M48
;DRILL file {KiCad (5.0.2)-1} date 10-07-2020 17:38:39
;FORMAT={-:-/ absolute / inch / decimal}
FMAT,2
INCH,TZ
T1C0.0157
T2C0.0394
T3C0.0728
%
G90
G05
T1
X1.752Y-0.3937
X1.752Y-2.126
X1.7583Y-1.3583
X1.7583Y-3.0906
X1.7589Y-1.5925
X1.7589Y-3.3248
X1.7591Y-0.6067
X1.7591Y-2.339
X1.7598Y-0.7136
X1.7598Y-0.8228
X1.7598Y-1.7717
X1.7598Y-2.4459
X1.7598Y-2.5551
X1.7598Y-3.5039
X1.835Y-1.6079
X1.835Y-3.3402
X1.8374Y-1.4799
X1.8374Y-3.2122
X1.8976Y-1.1087
X1.8976Y-2.8409
X1.9291Y-0.5709
X1.9291Y-1.6929
X1.9291Y-2.3031
X1.9291Y-3.4252
X1.939Y-1.8701
X1.939Y-3.6024
X1.9598Y-0.8602
X1.9598Y-2.5925
X1.9815Y-1.2295
X1.9815Y-2.9618
X1.9882Y-0.3445
X1.9882Y-2.0768
X1.9917Y-0.9913
X1.9917Y-2.7236
X2.0024Y-1.3547
X2.0024Y-3.087
X2.011Y-1.552
X2.011Y-3.2843
X2.0253Y-1.8701
X2.0253Y-3.6024
X2.0276Y-0.6102
X2.0276Y-2.3425
X2.0315Y-1.6929
X2.0315Y-3.4252
X2.1417Y-1.7687
X2.1417Y-3.501
X2.1539Y-0.6012
X2.1539Y-2.3335
X2.1622Y-1.3559
X2.1622Y-3.0882
X2.198Y-0.8236
X2.198Y-2.5559
X2.2012Y-1.2154
X2.2012Y-2.9476
X2.2047Y-0.9701
X2.2047Y-2.7024
X2.2457Y-1.6654
X2.2457Y-3.3976
X2.2802Y-1.8654
X2.2802Y-3.5977
X2.2829Y-0.3402
X2.2829Y-2.0725
X2.2909Y-0.8646
X2.2909Y-2.5969
X2.301Y-0.6014
X2.301Y-2.3337
X2.3034Y-1.7752
X2.3034Y-3.5075
X2.311Y-1.5193
X2.311Y-3.2516
X2.3201Y-0.4465
X2.3201Y-2.1787
X2.3402Y-1.2465
X2.3402Y-2.9787
X2.3488Y-0.9744
X2.3488Y-2.7067
X2.3672Y-1.6996
X2.3672Y-3.4319
X2.374Y-1.1024
X2.374Y-2.8346
X2.4063Y-0.5173
X2.4063Y-2.2496
X2.4471Y-1.6575
X2.4471Y-3.3898
X2.4685Y-1.1024
X2.4685Y-2.8346
X2.5467Y-1.6528
X2.5467Y-3.3851
X2.5591Y-0.5413
X2.5591Y-0.689
X2.5591Y-0.7677
X2.5591Y-0.8465
X2.5591Y-2.2736
X2.5591Y-2.4213
X2.5591Y-2.5
X2.5591Y-2.5787
X2.5787Y-0.9055
X2.5787Y-2.6378
X2.6575Y-0.9843
X2.6575Y-2.7165
X2.6599Y-1.5818
X2.6599Y-3.3141
X2.668Y-1.7032
X2.668Y-3.4355
X2.6807Y-1.4768
X2.6807Y-3.2091
X2.6969Y-1.2402
X2.6969Y-2.9724
X2.7165Y-1.0433
X2.7165Y-2.7756
X2.7299Y-1.7728
X2.7299Y-3.5051
X2.7303Y-1.1713
X2.7303Y-2.9035
X2.7438Y-1.2391
X2.7438Y-2.9713
X2.7553Y-1.8701
X2.7553Y-3.6024
X2.7559Y-1.5394
X2.7559Y-3.2717
X2.7717Y-1.4539
X2.7717Y-3.1862
X2.7819Y-1.687
X2.7819Y-3.4193
X2.7854Y-1.3681
X2.7854Y-3.1004
X2.7992Y-1.2677
X2.7992Y-3.
X2.8051Y-1.3287
X2.8051Y-3.061
X2.8248Y-1.3681
X2.8248Y-3.1004
X2.8744Y-1.5102
X2.8744Y-3.2425
X2.8937Y-1.0827
X2.8937Y-2.815
X2.9724Y-1.0827
X2.9724Y-2.815
X2.9866Y-1.5094
X2.9866Y-3.2417
X2.9976Y-1.687
X2.9976Y-3.4193
X3.0236Y-1.2638
X3.0236Y-2.9961
X3.0386Y-1.5791
X3.0386Y-3.3114
X3.0512Y-1.0827
X3.0512Y-1.8701
X3.0512Y-2.815
X3.0512Y-3.6024
X3.063Y-1.252
X3.063Y-2.9843
X3.0866Y-1.4528
X3.0866Y-3.185
X3.1012Y-1.6878
X3.1012Y-3.4201
X3.1299Y-1.0827
X3.1299Y-2.815
X3.185Y-1.4528
X3.185Y-3.185
X3.2087Y-1.0827
X3.2087Y-2.815
X3.2394Y-1.5976
X3.2394Y-3.3299
X3.2874Y-1.7717
X3.2874Y-3.5039
X3.4646Y-0.3937
X3.4646Y-2.126
X3.4709Y-1.3583
X3.4709Y-3.0906
X3.4715Y-1.5925
X3.4715Y-3.3248
X3.4717Y-0.6067
X3.4717Y-2.339
X3.4724Y-0.7136
X3.4724Y-0.8228
X3.4724Y-1.7717
X3.4724Y-2.4459
X3.4724Y-2.5551
X3.4724Y-3.5039
X3.5476Y-1.6079
X3.5476Y-3.3402
X3.55Y-1.4799
X3.55Y-3.2122
X3.6102Y-1.1087
X3.6102Y-2.8409
X3.6417Y-0.5709
X3.6417Y-1.6929
X3.6417Y-2.3031
X3.6417Y-3.4252
X3.6516Y-1.8701
X3.6516Y-3.6024
X3.6724Y-0.8602
X3.6724Y-2.5925
X3.6941Y-1.2295
X3.6941Y-2.9618
X3.7008Y-0.3445
X3.7008Y-2.0768
X3.7043Y-0.9913
X3.7043Y-2.7236
X3.715Y-1.3547
X3.715Y-3.087
X3.7236Y-1.552
X3.7236Y-3.2843
X3.7379Y-1.8701
X3.7379Y-3.6024
X3.7402Y-0.6102
X3.7402Y-2.3425
X3.7441Y-1.6929
X3.7441Y-3.4252
X3.8543Y-1.7687
X3.8543Y-3.501
X3.8665Y-0.6012
X3.8665Y-2.3335
X3.8748Y-1.3559
X3.8748Y-3.0882
X3.9106Y-0.8236
X3.9106Y-2.5559
X3.9138Y-1.2154
X3.9138Y-2.9476
X3.9173Y-0.9701
X3.9173Y-2.7024
X3.9583Y-1.6654
X3.9583Y-3.3976
X3.9928Y-1.8654
X3.9928Y-3.5977
X3.9955Y-0.3402
X3.9955Y-2.0725
X4.0035Y-0.8646
X4.0035Y-2.5969
X4.0136Y-0.6014
X4.0136Y-2.3337
X4.016Y-1.7752
X4.016Y-3.5075
X4.0236Y-1.5193
X4.0236Y-3.2516
X4.0327Y-0.4465
X4.0327Y-2.1787
X4.0528Y-1.2465
X4.0528Y-2.9787
X4.0614Y-0.9744
X4.0614Y-2.7067
X4.0798Y-1.6996
X4.0798Y-3.4319
X4.0866Y-1.1024
X4.0866Y-2.8346
X4.1189Y-0.5173
X4.1189Y-2.2496
X4.1597Y-1.6575
X4.1597Y-3.3898
X4.1811Y-1.1024
X4.1811Y-2.8346
X4.2593Y-1.6528
X4.2593Y-3.3851
X4.2717Y-0.5413
X4.2717Y-0.689
X4.2717Y-0.7677
X4.2717Y-0.8465
X4.2717Y-2.2736
X4.2717Y-2.4213
X4.2717Y-2.5
X4.2717Y-2.5787
X4.2913Y-0.9055
X4.2913Y-2.6378
X4.3701Y-0.9843
X4.3701Y-2.7165
X4.3725Y-1.5818
X4.3725Y-3.3141
X4.3806Y-1.7032
X4.3806Y-3.4355
X4.3933Y-1.4768
X4.3933Y-3.2091
X4.4094Y-1.2402
X4.4094Y-2.9724
X4.4291Y-1.0433
X4.4291Y-2.7756
X4.4425Y-1.7728
X4.4425Y-3.5051
X4.4429Y-1.1713
X4.4429Y-2.9035
X4.4564Y-1.2391
X4.4564Y-2.9713
X4.4679Y-1.8701
X4.4679Y-3.6024
X4.4685Y-1.5394
X4.4685Y-3.2717
X4.4843Y-1.4539
X4.4843Y-3.1862
X4.4945Y-1.687
X4.4945Y-3.4193
X4.498Y-1.3681
X4.498Y-3.1004
X4.5118Y-1.2677
X4.5118Y-3.
X4.5177Y-1.3287
X4.5177Y-3.061
X4.5374Y-1.3681
X4.5374Y-3.1004
X4.587Y-1.5102
X4.587Y-3.2425
X4.6063Y-1.0827
X4.6063Y-2.815
X4.685Y-1.0827
X4.685Y-2.815
X4.6992Y-1.5094
X4.6992Y-3.2417
X4.7102Y-1.687
X4.7102Y-3.4193
X4.7362Y-1.2638
X4.7362Y-2.9961
X4.7512Y-1.5791
X4.7512Y-3.3114
X4.7638Y-1.0827
X4.7638Y-1.8701
X4.7638Y-2.815
X4.7638Y-3.6024
X4.7756Y-1.252
X4.7756Y-2.9843
X4.7992Y-1.4528
X4.7992Y-3.185
X4.8138Y-1.6878
X4.8138Y-3.4201
X4.8425Y-1.0827
X4.8425Y-2.815
X4.8976Y-1.4528
X4.8976Y-3.185
X4.9213Y-1.0827
X4.9213Y-2.815
X4.952Y-1.5976
X4.952Y-3.3299
X5.Y-1.7717
X5.Y-3.5039
T2
X4.1036Y-2.4237
X2.391Y-3.3337
X4.2036Y-3.1337
X2.491Y-1.6014
X1.752Y-2.8346
X4.1036Y-0.5914
X2.391Y-1.5014
X4.2036Y-0.7914
X4.1036Y-2.3237
X2.491Y-3.1337
X4.2036Y-1.5014
X4.2036Y-2.3237
X4.2036Y-1.6014
X2.291Y-1.6014
X2.815Y-1.1024
X2.391Y-2.4237
X2.491Y-2.3237
X4.1036Y-1.6014
X3.4646Y-2.8346
X4.2036Y-3.3337
X4.1036Y-3.2337
X2.491Y-0.6914
X2.391Y-2.3237
X4.2036Y-1.4014
X2.391Y-3.2337
X3.4646Y-1.1024
X4.0036Y-3.3337
X2.491Y-0.7914
X2.815Y-2.8346
X2.491Y-1.5014
X2.391Y-0.5914
X4.2036Y-0.5914
X2.491Y-3.3337
X2.291Y-3.3337
X4.2036Y-2.4237
X2.391Y-1.6014
X2.491Y-2.4237
X4.1036Y-1.5014
X4.5276Y-2.8346
X4.2036Y-2.5237
X4.2036Y-3.2337
X2.491Y-1.4014
X1.752Y-1.1024
X2.491Y-2.5237
X4.0036Y-1.6014
X2.491Y-3.2337
X4.5276Y-1.1024
X4.1036Y-3.3337
X4.1036Y-0.6914
X2.491Y-0.5914
X2.391Y-0.6914
X4.2036Y-0.6914
T3
X2.1024Y-0.6864
X2.1024Y-1.5183
X2.1024Y-2.4187
X2.1024Y-3.2506
X3.815Y-2.4187
X3.815Y-3.2506
X3.815Y-0.6864
X3.815Y-1.5183
T0
M30
