G04 #@! TF.GenerationSoftware,KiCad,Pcbnew,(5.0.2)-1*
G04 #@! TF.CreationDate,2020-07-10T17:38:52+02:00*
G04 #@! TF.ProjectId,IKEA_Button2,494b4541-5f42-4757-9474-6f6e322e6b69,rev?*
G04 #@! TF.SameCoordinates,Original*
G04 #@! TF.FileFunction,Legend,Bot*
G04 #@! TF.FilePolarity,Positive*
%FSLAX46Y46*%
G04 Gerber Fmt 4.6, Leading zero omitted, Abs format (unit mm)*
G04 Created by KiCad (PCBNEW (5.0.2)-1) date 10-07-2020 17:38:52*
%MOMM*%
%LPD*%
G01*
G04 APERTURE LIST*
%ADD10C,0.300000*%
%ADD11C,0.200000*%
%ADD12C,0.150000*%
%ADD13C,0.100000*%
G04 APERTURE END LIST*
D10*
X111928571Y-20321428D02*
X111857142Y-20250000D01*
X111714285Y-20178571D01*
X111357142Y-20178571D01*
X111214285Y-20250000D01*
X111142857Y-20321428D01*
X111071428Y-20464285D01*
X111071428Y-20607142D01*
X111142857Y-20821428D01*
X112000000Y-21678571D01*
X111071428Y-21678571D01*
X111214285Y-64678571D02*
X111214285Y-65678571D01*
X111571428Y-64107142D02*
X111928571Y-65178571D01*
X111000000Y-65178571D01*
X67571428Y-21678571D02*
X68428571Y-21678571D01*
X68000000Y-21678571D02*
X68000000Y-20178571D01*
X68142857Y-20392857D01*
X68285714Y-20535714D01*
X68428571Y-20607142D01*
X68500000Y-64178571D02*
X67571428Y-64178571D01*
X68071428Y-64750000D01*
X67857142Y-64750000D01*
X67714285Y-64821428D01*
X67642857Y-64892857D01*
X67571428Y-65035714D01*
X67571428Y-65392857D01*
X67642857Y-65535714D01*
X67714285Y-65607142D01*
X67857142Y-65678571D01*
X68285714Y-65678571D01*
X68428571Y-65607142D01*
X68500000Y-65535714D01*
D11*
X48216666Y-90702380D02*
X48216666Y-89702380D01*
X48026190Y-89702380D01*
X47911904Y-89750000D01*
X47835714Y-89845238D01*
X47797619Y-89940476D01*
X47759523Y-90130952D01*
X47759523Y-90273809D01*
X47797619Y-90464285D01*
X47835714Y-90559523D01*
X47911904Y-90654761D01*
X48026190Y-90702380D01*
X48216666Y-90702380D01*
X47416666Y-90702380D02*
X47416666Y-90035714D01*
X47416666Y-89702380D02*
X47454761Y-89750000D01*
X47416666Y-89797619D01*
X47378571Y-89750000D01*
X47416666Y-89702380D01*
X47416666Y-89797619D01*
X47035714Y-90702380D02*
X47035714Y-90035714D01*
X47035714Y-90130952D02*
X46997619Y-90083333D01*
X46921428Y-90035714D01*
X46807142Y-90035714D01*
X46730952Y-90083333D01*
X46692857Y-90178571D01*
X46692857Y-90702380D01*
X46692857Y-90178571D02*
X46654761Y-90083333D01*
X46578571Y-90035714D01*
X46464285Y-90035714D01*
X46388095Y-90083333D01*
X46350000Y-90178571D01*
X46350000Y-90702380D01*
X45969047Y-90702380D02*
X45969047Y-90035714D01*
X45969047Y-90130952D02*
X45930952Y-90083333D01*
X45854761Y-90035714D01*
X45740476Y-90035714D01*
X45664285Y-90083333D01*
X45626190Y-90178571D01*
X45626190Y-90702380D01*
X45626190Y-90178571D02*
X45588095Y-90083333D01*
X45511904Y-90035714D01*
X45397619Y-90035714D01*
X45321428Y-90083333D01*
X45283333Y-90178571D01*
X45283333Y-90702380D01*
X57392857Y-87202380D02*
X57202380Y-87202380D01*
X57107142Y-87250000D01*
X57011904Y-87345238D01*
X56964285Y-87535714D01*
X56964285Y-87869047D01*
X57011904Y-88059523D01*
X57107142Y-88154761D01*
X57202380Y-88202380D01*
X57392857Y-88202380D01*
X57488095Y-88154761D01*
X57583333Y-88059523D01*
X57630952Y-87869047D01*
X57630952Y-87535714D01*
X57583333Y-87345238D01*
X57488095Y-87250000D01*
X57392857Y-87202380D01*
X56535714Y-87535714D02*
X56535714Y-88202380D01*
X56535714Y-87630952D02*
X56488095Y-87583333D01*
X56392857Y-87535714D01*
X56250000Y-87535714D01*
X56154761Y-87583333D01*
X56107142Y-87678571D01*
X56107142Y-88202380D01*
X55440476Y-87202380D02*
X55250000Y-87202380D01*
X55154761Y-87250000D01*
X55059523Y-87345238D01*
X55011904Y-87535714D01*
X55011904Y-87869047D01*
X55059523Y-88059523D01*
X55154761Y-88154761D01*
X55250000Y-88202380D01*
X55440476Y-88202380D01*
X55535714Y-88154761D01*
X55630952Y-88059523D01*
X55678571Y-87869047D01*
X55678571Y-87535714D01*
X55630952Y-87345238D01*
X55535714Y-87250000D01*
X55440476Y-87202380D01*
X54726190Y-87535714D02*
X54345238Y-87535714D01*
X54583333Y-88202380D02*
X54583333Y-87345238D01*
X54535714Y-87250000D01*
X54440476Y-87202380D01*
X54345238Y-87202380D01*
X54154761Y-87535714D02*
X53773809Y-87535714D01*
X54011904Y-88202380D02*
X54011904Y-87345238D01*
X53964285Y-87250000D01*
X53869047Y-87202380D01*
X53773809Y-87202380D01*
X56302380Y-90702380D02*
X56683333Y-90702380D01*
X56683333Y-89702380D01*
X55730952Y-90654761D02*
X55807142Y-90702380D01*
X55959523Y-90702380D01*
X56035714Y-90654761D01*
X56073809Y-90559523D01*
X56073809Y-90178571D01*
X56035714Y-90083333D01*
X55959523Y-90035714D01*
X55807142Y-90035714D01*
X55730952Y-90083333D01*
X55692857Y-90178571D01*
X55692857Y-90273809D01*
X56073809Y-90369047D01*
X55464285Y-90035714D02*
X55159523Y-90035714D01*
X55350000Y-90702380D02*
X55350000Y-89845238D01*
X55311904Y-89750000D01*
X55235714Y-89702380D01*
X55159523Y-89702380D01*
X55007142Y-90035714D02*
X54702380Y-90035714D01*
X54892857Y-89702380D02*
X54892857Y-90559523D01*
X54854761Y-90654761D01*
X54778571Y-90702380D01*
X54702380Y-90702380D01*
X59484854Y-77888053D02*
X59532473Y-77935672D01*
X59675330Y-77983291D01*
X59770568Y-77983291D01*
X59913425Y-77935672D01*
X60008663Y-77840434D01*
X60056282Y-77745196D01*
X60103901Y-77554720D01*
X60103901Y-77411863D01*
X60056282Y-77221387D01*
X60008663Y-77126149D01*
X59913425Y-77030911D01*
X59770568Y-76983291D01*
X59675330Y-76983291D01*
X59532473Y-77030911D01*
X59484854Y-77078530D01*
X58484854Y-77888053D02*
X58532473Y-77935672D01*
X58675330Y-77983291D01*
X58770568Y-77983291D01*
X58913425Y-77935672D01*
X59008663Y-77840434D01*
X59056282Y-77745196D01*
X59103901Y-77554720D01*
X59103901Y-77411863D01*
X59056282Y-77221387D01*
X59008663Y-77126149D01*
X58913425Y-77030911D01*
X58770568Y-76983291D01*
X58675330Y-76983291D01*
X58532473Y-77030911D01*
X58484854Y-77078530D01*
X56961044Y-77459482D02*
X56818187Y-77507101D01*
X56770568Y-77554720D01*
X56722949Y-77649958D01*
X56722949Y-77792815D01*
X56770568Y-77888053D01*
X56818187Y-77935672D01*
X56913425Y-77983291D01*
X57294378Y-77983291D01*
X57294378Y-76983291D01*
X56961044Y-76983291D01*
X56865806Y-77030911D01*
X56818187Y-77078530D01*
X56770568Y-77173768D01*
X56770568Y-77269006D01*
X56818187Y-77364244D01*
X56865806Y-77411863D01*
X56961044Y-77459482D01*
X57294378Y-77459482D01*
X56103901Y-77507101D02*
X56103901Y-77983291D01*
X56437235Y-76983291D02*
X56103901Y-77507101D01*
X55770568Y-76983291D01*
X55437235Y-77602339D02*
X54675330Y-77602339D01*
X54199139Y-77983291D02*
X54199139Y-76983291D01*
X53627711Y-77983291D01*
X53627711Y-76983291D01*
X52580092Y-77888053D02*
X52627711Y-77935672D01*
X52770568Y-77983291D01*
X52865806Y-77983291D01*
X53008663Y-77935672D01*
X53103901Y-77840434D01*
X53151520Y-77745196D01*
X53199139Y-77554720D01*
X53199139Y-77411863D01*
X53151520Y-77221387D01*
X53103901Y-77126149D01*
X53008663Y-77030911D01*
X52865806Y-76983291D01*
X52770568Y-76983291D01*
X52627711Y-77030911D01*
X52580092Y-77078530D01*
X52151520Y-77602339D02*
X51389616Y-77602339D01*
X50961044Y-77935672D02*
X50818187Y-77983291D01*
X50580092Y-77983291D01*
X50484854Y-77935672D01*
X50437235Y-77888053D01*
X50389616Y-77792815D01*
X50389616Y-77697577D01*
X50437235Y-77602339D01*
X50484854Y-77554720D01*
X50580092Y-77507101D01*
X50770568Y-77459482D01*
X50865806Y-77411863D01*
X50913425Y-77364244D01*
X50961044Y-77269006D01*
X50961044Y-77173768D01*
X50913425Y-77078530D01*
X50865806Y-77030911D01*
X50770568Y-76983291D01*
X50532473Y-76983291D01*
X50389616Y-77030911D01*
X50008663Y-77697577D02*
X49532473Y-77697577D01*
X50103901Y-77983291D02*
X49770568Y-76983291D01*
X49437235Y-77983291D01*
X47913425Y-77316625D02*
X47913425Y-77983291D01*
X48151520Y-76935672D02*
X48389616Y-77649958D01*
X47770568Y-77649958D01*
X47389616Y-77888053D02*
X47341997Y-77935672D01*
X47389616Y-77983291D01*
X47437235Y-77935672D01*
X47389616Y-77888053D01*
X47389616Y-77983291D01*
X46722949Y-76983291D02*
X46627711Y-76983291D01*
X46532473Y-77030911D01*
X46484854Y-77078530D01*
X46437235Y-77173768D01*
X46389616Y-77364244D01*
X46389616Y-77602339D01*
X46437235Y-77792815D01*
X46484854Y-77888053D01*
X46532473Y-77935672D01*
X46627711Y-77983291D01*
X46722949Y-77983291D01*
X46818187Y-77935672D01*
X46865806Y-77888053D01*
X46913425Y-77792815D01*
X46961044Y-77602339D01*
X46961044Y-77364244D01*
X46913425Y-77173768D01*
X46865806Y-77078530D01*
X46818187Y-77030911D01*
X46722949Y-76983291D01*
X58103901Y-78778530D02*
X58056282Y-78730911D01*
X57961044Y-78683291D01*
X57722949Y-78683291D01*
X57627711Y-78730911D01*
X57580092Y-78778530D01*
X57532473Y-78873768D01*
X57532473Y-78969006D01*
X57580092Y-79111863D01*
X58151520Y-79683291D01*
X57532473Y-79683291D01*
X56913425Y-78683291D02*
X56818187Y-78683291D01*
X56722949Y-78730911D01*
X56675330Y-78778530D01*
X56627711Y-78873768D01*
X56580092Y-79064244D01*
X56580092Y-79302339D01*
X56627711Y-79492815D01*
X56675330Y-79588053D01*
X56722949Y-79635672D01*
X56818187Y-79683291D01*
X56913425Y-79683291D01*
X57008663Y-79635672D01*
X57056282Y-79588053D01*
X57103901Y-79492815D01*
X57151520Y-79302339D01*
X57151520Y-79064244D01*
X57103901Y-78873768D01*
X57056282Y-78778530D01*
X57008663Y-78730911D01*
X56913425Y-78683291D01*
X56199139Y-78778530D02*
X56151520Y-78730911D01*
X56056282Y-78683291D01*
X55818187Y-78683291D01*
X55722949Y-78730911D01*
X55675330Y-78778530D01*
X55627711Y-78873768D01*
X55627711Y-78969006D01*
X55675330Y-79111863D01*
X56246759Y-79683291D01*
X55627711Y-79683291D01*
X55008663Y-78683291D02*
X54913425Y-78683291D01*
X54818187Y-78730911D01*
X54770568Y-78778530D01*
X54722949Y-78873768D01*
X54675330Y-79064244D01*
X54675330Y-79302339D01*
X54722949Y-79492815D01*
X54770568Y-79588053D01*
X54818187Y-79635672D01*
X54913425Y-79683291D01*
X55008663Y-79683291D01*
X55103901Y-79635672D01*
X55151520Y-79588053D01*
X55199139Y-79492815D01*
X55246759Y-79302339D01*
X55246759Y-79064244D01*
X55199139Y-78873768D01*
X55151520Y-78778530D01*
X55103901Y-78730911D01*
X55008663Y-78683291D01*
X54246759Y-79302339D02*
X53484854Y-79302339D01*
X52818187Y-78683291D02*
X52722949Y-78683291D01*
X52627711Y-78730911D01*
X52580092Y-78778530D01*
X52532473Y-78873768D01*
X52484854Y-79064244D01*
X52484854Y-79302339D01*
X52532473Y-79492815D01*
X52580092Y-79588053D01*
X52627711Y-79635672D01*
X52722949Y-79683291D01*
X52818187Y-79683291D01*
X52913425Y-79635672D01*
X52961044Y-79588053D01*
X53008663Y-79492815D01*
X53056282Y-79302339D01*
X53056282Y-79064244D01*
X53008663Y-78873768D01*
X52961044Y-78778530D01*
X52913425Y-78730911D01*
X52818187Y-78683291D01*
X52103901Y-78778530D02*
X52056282Y-78730911D01*
X51961044Y-78683291D01*
X51722949Y-78683291D01*
X51627711Y-78730911D01*
X51580092Y-78778530D01*
X51532473Y-78873768D01*
X51532473Y-78969006D01*
X51580092Y-79111863D01*
X52151520Y-79683291D01*
X51532473Y-79683291D01*
X51103901Y-79302339D02*
X50341997Y-79302339D01*
X49913425Y-78778530D02*
X49865806Y-78730911D01*
X49770568Y-78683291D01*
X49532473Y-78683291D01*
X49437235Y-78730911D01*
X49389616Y-78778530D01*
X49341997Y-78873768D01*
X49341997Y-78969006D01*
X49389616Y-79111863D01*
X49961044Y-79683291D01*
X49341997Y-79683291D01*
X48484854Y-79016625D02*
X48484854Y-79683291D01*
X48722949Y-78635672D02*
X48961044Y-79349958D01*
X48341997Y-79349958D01*
X82011520Y-88426625D02*
X81630568Y-88426625D01*
X81868663Y-88093291D02*
X81868663Y-88950434D01*
X81821044Y-89045672D01*
X81725806Y-89093291D01*
X81630568Y-89093291D01*
X81297235Y-89093291D02*
X81297235Y-88093291D01*
X80868663Y-89093291D02*
X80868663Y-88569482D01*
X80916282Y-88474244D01*
X81011520Y-88426625D01*
X81154378Y-88426625D01*
X81249616Y-88474244D01*
X81297235Y-88521863D01*
X80392473Y-89093291D02*
X80392473Y-88426625D01*
X80392473Y-88093291D02*
X80440092Y-88140911D01*
X80392473Y-88188530D01*
X80344854Y-88140911D01*
X80392473Y-88093291D01*
X80392473Y-88188530D01*
X79916282Y-88426625D02*
X79916282Y-89093291D01*
X79916282Y-88521863D02*
X79868663Y-88474244D01*
X79773425Y-88426625D01*
X79630568Y-88426625D01*
X79535330Y-88474244D01*
X79487711Y-88569482D01*
X79487711Y-89093291D01*
X78582949Y-88426625D02*
X78582949Y-89236149D01*
X78630568Y-89331387D01*
X78678187Y-89379006D01*
X78773425Y-89426625D01*
X78916282Y-89426625D01*
X79011520Y-89379006D01*
X78582949Y-89045672D02*
X78678187Y-89093291D01*
X78868663Y-89093291D01*
X78963901Y-89045672D01*
X79011520Y-88998053D01*
X79059139Y-88902815D01*
X79059139Y-88617101D01*
X79011520Y-88521863D01*
X78963901Y-88474244D01*
X78868663Y-88426625D01*
X78678187Y-88426625D01*
X78582949Y-88474244D01*
X78106759Y-89093291D02*
X78106759Y-88426625D01*
X78106759Y-88093291D02*
X78154378Y-88140911D01*
X78106759Y-88188530D01*
X78059139Y-88140911D01*
X78106759Y-88093291D01*
X78106759Y-88188530D01*
X77725806Y-88426625D02*
X77487711Y-89093291D01*
X77249616Y-88426625D01*
X76487711Y-89045672D02*
X76582949Y-89093291D01*
X76773425Y-89093291D01*
X76868663Y-89045672D01*
X76916282Y-88950434D01*
X76916282Y-88569482D01*
X76868663Y-88474244D01*
X76773425Y-88426625D01*
X76582949Y-88426625D01*
X76487711Y-88474244D01*
X76440092Y-88569482D01*
X76440092Y-88664720D01*
X76916282Y-88759958D01*
X76011520Y-89093291D02*
X76011520Y-88426625D01*
X76011520Y-88617101D02*
X75963901Y-88521863D01*
X75916282Y-88474244D01*
X75821044Y-88426625D01*
X75725806Y-88426625D01*
X75440092Y-89045672D02*
X75344854Y-89093291D01*
X75154378Y-89093291D01*
X75059139Y-89045672D01*
X75011520Y-88950434D01*
X75011520Y-88902815D01*
X75059139Y-88807577D01*
X75154378Y-88759958D01*
X75297235Y-88759958D01*
X75392473Y-88712339D01*
X75440092Y-88617101D01*
X75440092Y-88569482D01*
X75392473Y-88474244D01*
X75297235Y-88426625D01*
X75154378Y-88426625D01*
X75059139Y-88474244D01*
X74201997Y-89045672D02*
X74297235Y-89093291D01*
X74487711Y-89093291D01*
X74582949Y-89045672D01*
X74630568Y-88950434D01*
X74630568Y-88569482D01*
X74582949Y-88474244D01*
X74487711Y-88426625D01*
X74297235Y-88426625D01*
X74201997Y-88474244D01*
X74154378Y-88569482D01*
X74154378Y-88664720D01*
X74630568Y-88759958D01*
X73725806Y-88998053D02*
X73678187Y-89045672D01*
X73725806Y-89093291D01*
X73773425Y-89045672D01*
X73725806Y-88998053D01*
X73725806Y-89093291D01*
X72821044Y-89045672D02*
X72916282Y-89093291D01*
X73106759Y-89093291D01*
X73201997Y-89045672D01*
X73249616Y-88998053D01*
X73297235Y-88902815D01*
X73297235Y-88617101D01*
X73249616Y-88521863D01*
X73201997Y-88474244D01*
X73106759Y-88426625D01*
X72916282Y-88426625D01*
X72821044Y-88474244D01*
X72249616Y-89093291D02*
X72344854Y-89045672D01*
X72392473Y-88998053D01*
X72440092Y-88902815D01*
X72440092Y-88617101D01*
X72392473Y-88521863D01*
X72344854Y-88474244D01*
X72249616Y-88426625D01*
X72106759Y-88426625D01*
X72011520Y-88474244D01*
X71963901Y-88521863D01*
X71916282Y-88617101D01*
X71916282Y-88902815D01*
X71963901Y-88998053D01*
X72011520Y-89045672D01*
X72106759Y-89093291D01*
X72249616Y-89093291D01*
X71487711Y-89093291D02*
X71487711Y-88426625D01*
X71487711Y-88521863D02*
X71440092Y-88474244D01*
X71344854Y-88426625D01*
X71201997Y-88426625D01*
X71106759Y-88474244D01*
X71059139Y-88569482D01*
X71059139Y-89093291D01*
X71059139Y-88569482D02*
X71011520Y-88474244D01*
X70916282Y-88426625D01*
X70773425Y-88426625D01*
X70678187Y-88474244D01*
X70630568Y-88569482D01*
X70630568Y-89093291D01*
X69440092Y-88045672D02*
X70297235Y-89331387D01*
X82011520Y-90126625D02*
X81630568Y-90126625D01*
X81868663Y-89793291D02*
X81868663Y-90650434D01*
X81821044Y-90745672D01*
X81725806Y-90793291D01*
X81630568Y-90793291D01*
X81297235Y-90793291D02*
X81297235Y-89793291D01*
X80868663Y-90793291D02*
X80868663Y-90269482D01*
X80916282Y-90174244D01*
X81011520Y-90126625D01*
X81154378Y-90126625D01*
X81249616Y-90174244D01*
X81297235Y-90221863D01*
X80392473Y-90793291D02*
X80392473Y-90126625D01*
X80392473Y-89793291D02*
X80440092Y-89840911D01*
X80392473Y-89888530D01*
X80344854Y-89840911D01*
X80392473Y-89793291D01*
X80392473Y-89888530D01*
X79916282Y-90126625D02*
X79916282Y-90793291D01*
X79916282Y-90221863D02*
X79868663Y-90174244D01*
X79773425Y-90126625D01*
X79630568Y-90126625D01*
X79535330Y-90174244D01*
X79487711Y-90269482D01*
X79487711Y-90793291D01*
X78582949Y-90126625D02*
X78582949Y-90936149D01*
X78630568Y-91031387D01*
X78678187Y-91079006D01*
X78773425Y-91126625D01*
X78916282Y-91126625D01*
X79011520Y-91079006D01*
X78582949Y-90745672D02*
X78678187Y-90793291D01*
X78868663Y-90793291D01*
X78963901Y-90745672D01*
X79011520Y-90698053D01*
X79059139Y-90602815D01*
X79059139Y-90317101D01*
X79011520Y-90221863D01*
X78963901Y-90174244D01*
X78868663Y-90126625D01*
X78678187Y-90126625D01*
X78582949Y-90174244D01*
X78106759Y-90698053D02*
X78059139Y-90745672D01*
X78106759Y-90793291D01*
X78154378Y-90745672D01*
X78106759Y-90698053D01*
X78106759Y-90793291D01*
X78106759Y-90174244D02*
X78059139Y-90221863D01*
X78106759Y-90269482D01*
X78154378Y-90221863D01*
X78106759Y-90174244D01*
X78106759Y-90269482D01*
X77725806Y-89793291D02*
X77106759Y-89793291D01*
X77440092Y-90174244D01*
X77297235Y-90174244D01*
X77201997Y-90221863D01*
X77154378Y-90269482D01*
X77106759Y-90364720D01*
X77106759Y-90602815D01*
X77154378Y-90698053D01*
X77201997Y-90745672D01*
X77297235Y-90793291D01*
X77582949Y-90793291D01*
X77678187Y-90745672D01*
X77725806Y-90698053D01*
X76249616Y-89793291D02*
X76440092Y-89793291D01*
X76535330Y-89840911D01*
X76582949Y-89888530D01*
X76678187Y-90031387D01*
X76725806Y-90221863D01*
X76725806Y-90602815D01*
X76678187Y-90698053D01*
X76630568Y-90745672D01*
X76535330Y-90793291D01*
X76344854Y-90793291D01*
X76249616Y-90745672D01*
X76201997Y-90698053D01*
X76154378Y-90602815D01*
X76154378Y-90364720D01*
X76201997Y-90269482D01*
X76249616Y-90221863D01*
X76344854Y-90174244D01*
X76535330Y-90174244D01*
X76630568Y-90221863D01*
X76678187Y-90269482D01*
X76725806Y-90364720D01*
X75249616Y-89793291D02*
X75725806Y-89793291D01*
X75773425Y-90269482D01*
X75725806Y-90221863D01*
X75630568Y-90174244D01*
X75392473Y-90174244D01*
X75297235Y-90221863D01*
X75249616Y-90269482D01*
X75201997Y-90364720D01*
X75201997Y-90602815D01*
X75249616Y-90698053D01*
X75297235Y-90745672D01*
X75392473Y-90793291D01*
X75630568Y-90793291D01*
X75725806Y-90745672D01*
X75773425Y-90698053D01*
X74297235Y-89793291D02*
X74773425Y-89793291D01*
X74821044Y-90269482D01*
X74773425Y-90221863D01*
X74678187Y-90174244D01*
X74440092Y-90174244D01*
X74344854Y-90221863D01*
X74297235Y-90269482D01*
X74249616Y-90364720D01*
X74249616Y-90602815D01*
X74297235Y-90698053D01*
X74344854Y-90745672D01*
X74440092Y-90793291D01*
X74678187Y-90793291D01*
X74773425Y-90745672D01*
X74821044Y-90698053D01*
X73916282Y-89793291D02*
X73297235Y-89793291D01*
X73630568Y-90174244D01*
X73487711Y-90174244D01*
X73392473Y-90221863D01*
X73344854Y-90269482D01*
X73297235Y-90364720D01*
X73297235Y-90602815D01*
X73344854Y-90698053D01*
X73392473Y-90745672D01*
X73487711Y-90793291D01*
X73773425Y-90793291D01*
X73868663Y-90745672D01*
X73916282Y-90698053D01*
X72392473Y-89793291D02*
X72868663Y-89793291D01*
X72916282Y-90269482D01*
X72868663Y-90221863D01*
X72773425Y-90174244D01*
X72535330Y-90174244D01*
X72440092Y-90221863D01*
X72392473Y-90269482D01*
X72344854Y-90364720D01*
X72344854Y-90602815D01*
X72392473Y-90698053D01*
X72440092Y-90745672D01*
X72535330Y-90793291D01*
X72773425Y-90793291D01*
X72868663Y-90745672D01*
X72916282Y-90698053D01*
X71487711Y-90126625D02*
X71487711Y-90793291D01*
X71725806Y-89745672D02*
X71963901Y-90459958D01*
X71344854Y-90459958D01*
X56782473Y-65983291D02*
X56782473Y-64983291D01*
X56401520Y-64983291D01*
X56306282Y-65030911D01*
X56258663Y-65078530D01*
X56211044Y-65173768D01*
X56211044Y-65316625D01*
X56258663Y-65411863D01*
X56306282Y-65459482D01*
X56401520Y-65507101D01*
X56782473Y-65507101D01*
X55401520Y-65935672D02*
X55496759Y-65983291D01*
X55687235Y-65983291D01*
X55782473Y-65935672D01*
X55830092Y-65840434D01*
X55830092Y-65459482D01*
X55782473Y-65364244D01*
X55687235Y-65316625D01*
X55496759Y-65316625D01*
X55401520Y-65364244D01*
X55353901Y-65459482D01*
X55353901Y-65554720D01*
X55830092Y-65649958D01*
X54925330Y-65983291D02*
X54925330Y-65316625D01*
X54925330Y-65507101D02*
X54877711Y-65411863D01*
X54830092Y-65364244D01*
X54734854Y-65316625D01*
X54639616Y-65316625D01*
X53544378Y-65983291D02*
X53544378Y-64983291D01*
X53211044Y-65697577D01*
X52877711Y-64983291D01*
X52877711Y-65983291D01*
X52020568Y-65935672D02*
X52115806Y-65983291D01*
X52306282Y-65983291D01*
X52401520Y-65935672D01*
X52449139Y-65840434D01*
X52449139Y-65459482D01*
X52401520Y-65364244D01*
X52306282Y-65316625D01*
X52115806Y-65316625D01*
X52020568Y-65364244D01*
X51972949Y-65459482D01*
X51972949Y-65554720D01*
X52449139Y-65649958D01*
X51544378Y-65316625D02*
X51544378Y-66173768D01*
X51591997Y-66269006D01*
X51687235Y-66316625D01*
X51734854Y-66316625D01*
X51544378Y-64983291D02*
X51591997Y-65030911D01*
X51544378Y-65078530D01*
X51496759Y-65030911D01*
X51544378Y-64983291D01*
X51544378Y-65078530D01*
X50639616Y-65983291D02*
X50639616Y-64983291D01*
X50639616Y-65935672D02*
X50734854Y-65983291D01*
X50925330Y-65983291D01*
X51020568Y-65935672D01*
X51068187Y-65888053D01*
X51115806Y-65792815D01*
X51115806Y-65507101D01*
X51068187Y-65411863D01*
X51020568Y-65364244D01*
X50925330Y-65316625D01*
X50734854Y-65316625D01*
X50639616Y-65364244D01*
X49734854Y-65983291D02*
X49734854Y-65459482D01*
X49782473Y-65364244D01*
X49877711Y-65316625D01*
X50068187Y-65316625D01*
X50163425Y-65364244D01*
X49734854Y-65935672D02*
X49830092Y-65983291D01*
X50068187Y-65983291D01*
X50163425Y-65935672D01*
X50211044Y-65840434D01*
X50211044Y-65745196D01*
X50163425Y-65649958D01*
X50068187Y-65602339D01*
X49830092Y-65602339D01*
X49734854Y-65554720D01*
X49115806Y-65983291D02*
X49211044Y-65935672D01*
X49258663Y-65840434D01*
X49258663Y-64983291D01*
X56353901Y-67683291D02*
X56687235Y-67207101D01*
X56925330Y-67683291D02*
X56925330Y-66683291D01*
X56544378Y-66683291D01*
X56449139Y-66730911D01*
X56401520Y-66778530D01*
X56353901Y-66873768D01*
X56353901Y-67016625D01*
X56401520Y-67111863D01*
X56449139Y-67159482D01*
X56544378Y-67207101D01*
X56925330Y-67207101D01*
X55496759Y-67683291D02*
X55496759Y-67159482D01*
X55544378Y-67064244D01*
X55639616Y-67016625D01*
X55830092Y-67016625D01*
X55925330Y-67064244D01*
X55496759Y-67635672D02*
X55591997Y-67683291D01*
X55830092Y-67683291D01*
X55925330Y-67635672D01*
X55972949Y-67540434D01*
X55972949Y-67445196D01*
X55925330Y-67349958D01*
X55830092Y-67302339D01*
X55591997Y-67302339D01*
X55496759Y-67254720D01*
X55068187Y-67635672D02*
X54972949Y-67683291D01*
X54782473Y-67683291D01*
X54687235Y-67635672D01*
X54639616Y-67540434D01*
X54639616Y-67492815D01*
X54687235Y-67397577D01*
X54782473Y-67349958D01*
X54925330Y-67349958D01*
X55020568Y-67302339D01*
X55068187Y-67207101D01*
X55068187Y-67159482D01*
X55020568Y-67064244D01*
X54925330Y-67016625D01*
X54782473Y-67016625D01*
X54687235Y-67064244D01*
X54211044Y-67683291D02*
X54211044Y-67016625D01*
X54211044Y-67111863D02*
X54163425Y-67064244D01*
X54068187Y-67016625D01*
X53925330Y-67016625D01*
X53830092Y-67064244D01*
X53782473Y-67159482D01*
X53782473Y-67683291D01*
X53782473Y-67159482D02*
X53734854Y-67064244D01*
X53639616Y-67016625D01*
X53496759Y-67016625D01*
X53401520Y-67064244D01*
X53353901Y-67159482D01*
X53353901Y-67683291D01*
X52449139Y-67016625D02*
X52449139Y-67683291D01*
X52877711Y-67016625D02*
X52877711Y-67540434D01*
X52830092Y-67635672D01*
X52734854Y-67683291D01*
X52591997Y-67683291D01*
X52496759Y-67635672D01*
X52449139Y-67588053D01*
X52020568Y-67635672D02*
X51925330Y-67683291D01*
X51734854Y-67683291D01*
X51639616Y-67635672D01*
X51591997Y-67540434D01*
X51591997Y-67492815D01*
X51639616Y-67397577D01*
X51734854Y-67349958D01*
X51877711Y-67349958D01*
X51972949Y-67302339D01*
X52020568Y-67207101D01*
X52020568Y-67159482D01*
X51972949Y-67064244D01*
X51877711Y-67016625D01*
X51734854Y-67016625D01*
X51639616Y-67064244D01*
X51211044Y-67635672D02*
X51115806Y-67683291D01*
X50925330Y-67683291D01*
X50830092Y-67635672D01*
X50782473Y-67540434D01*
X50782473Y-67492815D01*
X50830092Y-67397577D01*
X50925330Y-67349958D01*
X51068187Y-67349958D01*
X51163425Y-67302339D01*
X51211044Y-67207101D01*
X51211044Y-67159482D01*
X51163425Y-67064244D01*
X51068187Y-67016625D01*
X50925330Y-67016625D01*
X50830092Y-67064244D01*
X49972949Y-67635672D02*
X50068187Y-67683291D01*
X50258663Y-67683291D01*
X50353901Y-67635672D01*
X50401520Y-67540434D01*
X50401520Y-67159482D01*
X50353901Y-67064244D01*
X50258663Y-67016625D01*
X50068187Y-67016625D01*
X49972949Y-67064244D01*
X49925330Y-67159482D01*
X49925330Y-67254720D01*
X50401520Y-67349958D01*
X49496759Y-67016625D02*
X49496759Y-67683291D01*
X49496759Y-67111863D02*
X49449139Y-67064244D01*
X49353901Y-67016625D01*
X49211044Y-67016625D01*
X49115806Y-67064244D01*
X49068187Y-67159482D01*
X49068187Y-67683291D01*
X52145238Y-90702380D02*
X52411904Y-90226190D01*
X52602380Y-90702380D02*
X52602380Y-89702380D01*
X52297619Y-89702380D01*
X52221428Y-89750000D01*
X52183333Y-89797619D01*
X52145238Y-89892857D01*
X52145238Y-90035714D01*
X52183333Y-90130952D01*
X52221428Y-90178571D01*
X52297619Y-90226190D01*
X52602380Y-90226190D01*
X51802380Y-90702380D02*
X51802380Y-90035714D01*
X51802380Y-89702380D02*
X51840476Y-89750000D01*
X51802380Y-89797619D01*
X51764285Y-89750000D01*
X51802380Y-89702380D01*
X51802380Y-89797619D01*
X51078571Y-90035714D02*
X51078571Y-90845238D01*
X51116666Y-90940476D01*
X51154761Y-90988095D01*
X51230952Y-91035714D01*
X51345238Y-91035714D01*
X51421428Y-90988095D01*
X51078571Y-90654761D02*
X51154761Y-90702380D01*
X51307142Y-90702380D01*
X51383333Y-90654761D01*
X51421428Y-90607142D01*
X51459523Y-90511904D01*
X51459523Y-90226190D01*
X51421428Y-90130952D01*
X51383333Y-90083333D01*
X51307142Y-90035714D01*
X51154761Y-90035714D01*
X51078571Y-90083333D01*
X50697619Y-90702380D02*
X50697619Y-89702380D01*
X50354761Y-90702380D02*
X50354761Y-90178571D01*
X50392857Y-90083333D01*
X50469047Y-90035714D01*
X50583333Y-90035714D01*
X50659523Y-90083333D01*
X50697619Y-90130952D01*
X50088095Y-90035714D02*
X49783333Y-90035714D01*
X49973809Y-89702380D02*
X49973809Y-90559523D01*
X49935714Y-90654761D01*
X49859523Y-90702380D01*
X49783333Y-90702380D01*
D10*
X82668901Y-53990911D02*
X82811759Y-53919482D01*
X83026044Y-53919482D01*
X83240330Y-53990911D01*
X83383187Y-54133768D01*
X83454616Y-54276625D01*
X83526044Y-54562339D01*
X83526044Y-54776625D01*
X83454616Y-55062339D01*
X83383187Y-55205196D01*
X83240330Y-55348053D01*
X83026044Y-55419482D01*
X82883187Y-55419482D01*
X82668901Y-55348053D01*
X82597473Y-55276625D01*
X82597473Y-54776625D01*
X82883187Y-54776625D01*
X81311759Y-55419482D02*
X81311759Y-54633768D01*
X81383187Y-54490911D01*
X81526044Y-54419482D01*
X81811759Y-54419482D01*
X81954616Y-54490911D01*
X81311759Y-55348053D02*
X81454616Y-55419482D01*
X81811759Y-55419482D01*
X81954616Y-55348053D01*
X82026044Y-55205196D01*
X82026044Y-55062339D01*
X81954616Y-54919482D01*
X81811759Y-54848053D01*
X81454616Y-54848053D01*
X81311759Y-54776625D01*
X81668901Y-54062339D02*
X81811759Y-53990911D01*
X81883187Y-53848053D01*
X81811759Y-53705196D01*
X81668901Y-53633768D01*
X81526044Y-53705196D01*
X81454616Y-53848053D01*
X81526044Y-53990911D01*
X81668901Y-54062339D01*
X80597473Y-55419482D02*
X80597473Y-54419482D01*
X80597473Y-54705196D02*
X80526044Y-54562339D01*
X80454616Y-54490911D01*
X80311759Y-54419482D01*
X80168901Y-54419482D01*
X78526044Y-55419482D02*
X78526044Y-54419482D01*
X78526044Y-53919482D02*
X78597473Y-53990911D01*
X78526044Y-54062339D01*
X78454616Y-53990911D01*
X78526044Y-53919482D01*
X78526044Y-54062339D01*
X76740330Y-55348053D02*
X76597473Y-55419482D01*
X76311759Y-55419482D01*
X76168901Y-55348053D01*
X76097473Y-55205196D01*
X76097473Y-55133768D01*
X76168901Y-54990911D01*
X76311759Y-54919482D01*
X76526044Y-54919482D01*
X76668901Y-54848053D01*
X76740330Y-54705196D01*
X76740330Y-54633768D01*
X76668901Y-54490911D01*
X76526044Y-54419482D01*
X76311759Y-54419482D01*
X76168901Y-54490911D01*
X75668901Y-54419482D02*
X75097473Y-54419482D01*
X75454616Y-53919482D02*
X75454616Y-55205196D01*
X75383187Y-55348053D01*
X75240330Y-55419482D01*
X75097473Y-55419482D01*
X74740330Y-54419482D02*
X74383187Y-55419482D01*
X74026044Y-54419482D02*
X74383187Y-55419482D01*
X74526044Y-55776625D01*
X74597473Y-55848053D01*
X74740330Y-55919482D01*
X73454616Y-55419482D02*
X73454616Y-53919482D01*
X73311759Y-54848053D02*
X72883187Y-55419482D01*
X72883187Y-54419482D02*
X73454616Y-54990911D01*
X72240330Y-55419482D02*
X72240330Y-53919482D01*
X72097473Y-54848053D02*
X71668901Y-55419482D01*
X71668901Y-54419482D02*
X72240330Y-54990911D01*
X70454616Y-55348053D02*
X70597473Y-55419482D01*
X70883187Y-55419482D01*
X71026044Y-55348053D01*
X71097473Y-55205196D01*
X71097473Y-54633768D01*
X71026044Y-54490911D01*
X70883187Y-54419482D01*
X70597473Y-54419482D01*
X70454616Y-54490911D01*
X70383187Y-54633768D01*
X70383187Y-54776625D01*
X71097473Y-54919482D01*
X69740330Y-55419482D02*
X69740330Y-54419482D01*
X69740330Y-54705196D02*
X69668901Y-54562339D01*
X69597473Y-54490911D01*
X69454616Y-54419482D01*
X69311759Y-54419482D01*
X83454616Y-57969482D02*
X83454616Y-56469482D01*
X82811759Y-57969482D02*
X82811759Y-57183768D01*
X82883187Y-57040911D01*
X83026044Y-56969482D01*
X83240330Y-56969482D01*
X83383187Y-57040911D01*
X83454616Y-57112339D01*
X82240330Y-56969482D02*
X81883187Y-57969482D01*
X81526044Y-56969482D01*
X80954616Y-57969482D02*
X80954616Y-56969482D01*
X80954616Y-56469482D02*
X81026044Y-56540911D01*
X80954616Y-56612339D01*
X80883187Y-56540911D01*
X80954616Y-56469482D01*
X80954616Y-56612339D01*
X80311759Y-57898053D02*
X80168901Y-57969482D01*
X79883187Y-57969482D01*
X79740330Y-57898053D01*
X79668901Y-57755196D01*
X79668901Y-57683768D01*
X79740330Y-57540911D01*
X79883187Y-57469482D01*
X80097473Y-57469482D01*
X80240330Y-57398053D01*
X80311759Y-57255196D01*
X80311759Y-57183768D01*
X80240330Y-57040911D01*
X80097473Y-56969482D01*
X79883187Y-56969482D01*
X79740330Y-57040911D01*
X77883187Y-57969482D02*
X77883187Y-56469482D01*
X77883187Y-57040911D02*
X77740330Y-56969482D01*
X77454616Y-56969482D01*
X77311759Y-57040911D01*
X77240330Y-57112339D01*
X77168901Y-57255196D01*
X77168901Y-57683768D01*
X77240330Y-57826625D01*
X77311759Y-57898053D01*
X77454616Y-57969482D01*
X77740330Y-57969482D01*
X77883187Y-57898053D01*
X75883187Y-57969482D02*
X75883187Y-57183768D01*
X75954616Y-57040911D01*
X76097473Y-56969482D01*
X76383187Y-56969482D01*
X76526044Y-57040911D01*
X75883187Y-57898053D02*
X76026044Y-57969482D01*
X76383187Y-57969482D01*
X76526044Y-57898053D01*
X76597473Y-57755196D01*
X76597473Y-57612339D01*
X76526044Y-57469482D01*
X76383187Y-57398053D01*
X76026044Y-57398053D01*
X75883187Y-57326625D01*
X75383187Y-56969482D02*
X74811759Y-56969482D01*
X75168901Y-56469482D02*
X75168901Y-57755196D01*
X75097473Y-57898053D01*
X74954616Y-57969482D01*
X74811759Y-57969482D01*
X74526044Y-56969482D02*
X73954616Y-56969482D01*
X74311759Y-56469482D02*
X74311759Y-57755196D01*
X74240330Y-57898053D01*
X74097473Y-57969482D01*
X73954616Y-57969482D01*
X72883187Y-57898053D02*
X73026044Y-57969482D01*
X73311759Y-57969482D01*
X73454616Y-57898053D01*
X73526044Y-57755196D01*
X73526044Y-57183768D01*
X73454616Y-57040911D01*
X73311759Y-56969482D01*
X73026044Y-56969482D01*
X72883187Y-57040911D01*
X72811759Y-57183768D01*
X72811759Y-57326625D01*
X73526044Y-57469482D01*
X72168901Y-57969482D02*
X72168901Y-56969482D01*
X72168901Y-57255196D02*
X72097473Y-57112339D01*
X72026044Y-57040911D01*
X71883187Y-56969482D01*
X71740330Y-56969482D01*
X71240330Y-57969482D02*
X71240330Y-56969482D01*
X71240330Y-56469482D02*
X71311759Y-56540911D01*
X71240330Y-56612339D01*
X71168901Y-56540911D01*
X71240330Y-56469482D01*
X71240330Y-56612339D01*
X69954616Y-57898053D02*
X70097473Y-57969482D01*
X70383187Y-57969482D01*
X70526044Y-57898053D01*
X70597473Y-57755196D01*
X70597473Y-57183768D01*
X70526044Y-57040911D01*
X70383187Y-56969482D01*
X70097473Y-56969482D01*
X69954616Y-57040911D01*
X69883187Y-57183768D01*
X69883187Y-57326625D01*
X70597473Y-57469482D01*
X69454616Y-56969482D02*
X68883187Y-56969482D01*
X69240330Y-56469482D02*
X69240330Y-57755196D01*
X69168901Y-57898053D01*
X69026044Y-57969482D01*
X68883187Y-57969482D01*
X83597473Y-59519482D02*
X83240330Y-60519482D01*
X82883187Y-59519482D01*
X81740330Y-60448053D02*
X81883187Y-60519482D01*
X82168901Y-60519482D01*
X82311759Y-60448053D01*
X82383187Y-60305196D01*
X82383187Y-59733768D01*
X82311759Y-59590911D01*
X82168901Y-59519482D01*
X81883187Y-59519482D01*
X81740330Y-59590911D01*
X81668901Y-59733768D01*
X81668901Y-59876625D01*
X82383187Y-60019482D01*
X81026044Y-59519482D02*
X81026044Y-60519482D01*
X81026044Y-59662339D02*
X80954616Y-59590911D01*
X80811759Y-59519482D01*
X80597473Y-59519482D01*
X80454616Y-59590911D01*
X80383187Y-59733768D01*
X80383187Y-60519482D01*
X79026044Y-60519482D02*
X79026044Y-59019482D01*
X79026044Y-60448053D02*
X79168901Y-60519482D01*
X79454616Y-60519482D01*
X79597473Y-60448053D01*
X79668901Y-60376625D01*
X79740330Y-60233768D01*
X79740330Y-59805196D01*
X79668901Y-59662339D01*
X79597473Y-59590911D01*
X79454616Y-59519482D01*
X79168901Y-59519482D01*
X79026044Y-59590911D01*
X77740330Y-60448053D02*
X77883187Y-60519482D01*
X78168901Y-60519482D01*
X78311759Y-60448053D01*
X78383187Y-60305196D01*
X78383187Y-59733768D01*
X78311759Y-59590911D01*
X78168901Y-59519482D01*
X77883187Y-59519482D01*
X77740330Y-59590911D01*
X77668901Y-59733768D01*
X77668901Y-59876625D01*
X78383187Y-60019482D01*
X77026044Y-60519482D02*
X77026044Y-59519482D01*
X77026044Y-59805196D02*
X76954616Y-59662339D01*
X76883187Y-59590911D01*
X76740330Y-59519482D01*
X76597473Y-59519482D01*
X75168901Y-59519482D02*
X74597473Y-59519482D01*
X74954616Y-60519482D02*
X74954616Y-59233768D01*
X74883187Y-59090911D01*
X74740330Y-59019482D01*
X74597473Y-59019482D01*
X73883187Y-60519482D02*
X74026044Y-60448053D01*
X74097473Y-60376625D01*
X74168901Y-60233768D01*
X74168901Y-59805196D01*
X74097473Y-59662339D01*
X74026044Y-59590911D01*
X73883187Y-59519482D01*
X73668901Y-59519482D01*
X73526044Y-59590911D01*
X73454616Y-59662339D01*
X73383187Y-59805196D01*
X73383187Y-60233768D01*
X73454616Y-60376625D01*
X73526044Y-60448053D01*
X73668901Y-60519482D01*
X73883187Y-60519482D01*
X72740330Y-60519482D02*
X72740330Y-59519482D01*
X72740330Y-59805196D02*
X72668901Y-59662339D01*
X72597473Y-59590911D01*
X72454616Y-59519482D01*
X72311759Y-59519482D01*
X71811759Y-60519482D02*
X71811759Y-59019482D01*
X71668901Y-59948053D02*
X71240330Y-60519482D01*
X71240330Y-59519482D02*
X71811759Y-60090911D01*
X70026044Y-60448053D02*
X70168901Y-60519482D01*
X70454616Y-60519482D01*
X70597473Y-60448053D01*
X70668901Y-60305196D01*
X70668901Y-59733768D01*
X70597473Y-59590911D01*
X70454616Y-59519482D01*
X70168901Y-59519482D01*
X70026044Y-59590911D01*
X69954616Y-59733768D01*
X69954616Y-59876625D01*
X70668901Y-60019482D01*
X69311759Y-60519482D02*
X69311759Y-59519482D01*
X69311759Y-59805196D02*
X69240330Y-59662339D01*
X69168901Y-59590911D01*
X69026044Y-59519482D01*
X68883187Y-59519482D01*
X68597473Y-59519482D02*
X68026044Y-59519482D01*
X68383187Y-59019482D02*
X68383187Y-60305196D01*
X68311759Y-60448053D01*
X68168901Y-60519482D01*
X68026044Y-60519482D01*
X67526044Y-60376625D02*
X67454616Y-60448053D01*
X67526044Y-60519482D01*
X67597473Y-60448053D01*
X67526044Y-60376625D01*
X67526044Y-60519482D01*
X67526044Y-59948053D02*
X67597473Y-59090911D01*
X67526044Y-59019482D01*
X67454616Y-59090911D01*
X67526044Y-59948053D01*
X67526044Y-59019482D01*
D11*
X49466666Y-55652380D02*
X49200000Y-56652380D01*
X48933333Y-55652380D01*
X48209523Y-56557142D02*
X48247619Y-56604761D01*
X48361904Y-56652380D01*
X48438095Y-56652380D01*
X48552380Y-56604761D01*
X48628571Y-56509523D01*
X48666666Y-56414285D01*
X48704761Y-56223809D01*
X48704761Y-56080952D01*
X48666666Y-55890476D01*
X48628571Y-55795238D01*
X48552380Y-55700000D01*
X48438095Y-55652380D01*
X48361904Y-55652380D01*
X48247619Y-55700000D01*
X48209523Y-55747619D01*
X47409523Y-56557142D02*
X47447619Y-56604761D01*
X47561904Y-56652380D01*
X47638095Y-56652380D01*
X47752380Y-56604761D01*
X47828571Y-56509523D01*
X47866666Y-56414285D01*
X47904761Y-56223809D01*
X47904761Y-56080952D01*
X47866666Y-55890476D01*
X47828571Y-55795238D01*
X47752380Y-55700000D01*
X47638095Y-55652380D01*
X47561904Y-55652380D01*
X47447619Y-55700000D01*
X47409523Y-55747619D01*
X55895238Y-56604761D02*
X55780952Y-56652380D01*
X55590476Y-56652380D01*
X55514285Y-56604761D01*
X55476190Y-56557142D01*
X55438095Y-56461904D01*
X55438095Y-56366666D01*
X55476190Y-56271428D01*
X55514285Y-56223809D01*
X55590476Y-56176190D01*
X55742857Y-56128571D01*
X55819047Y-56080952D01*
X55857142Y-56033333D01*
X55895238Y-55938095D01*
X55895238Y-55842857D01*
X55857142Y-55747619D01*
X55819047Y-55700000D01*
X55742857Y-55652380D01*
X55552380Y-55652380D01*
X55438095Y-55700000D01*
X55171428Y-55652380D02*
X54980952Y-56652380D01*
X54828571Y-55938095D01*
X54676190Y-56652380D01*
X54485714Y-55652380D01*
X54180952Y-56652380D02*
X54180952Y-55652380D01*
X53990476Y-55652380D01*
X53876190Y-55700000D01*
X53800000Y-55795238D01*
X53761904Y-55890476D01*
X53723809Y-56080952D01*
X53723809Y-56223809D01*
X53761904Y-56414285D01*
X53800000Y-56509523D01*
X53876190Y-56604761D01*
X53990476Y-56652380D01*
X54180952Y-56652380D01*
X53380952Y-56652380D02*
X53380952Y-55652380D01*
X52847619Y-55652380D02*
X52695238Y-55652380D01*
X52619047Y-55700000D01*
X52542857Y-55795238D01*
X52504761Y-55985714D01*
X52504761Y-56319047D01*
X52542857Y-56509523D01*
X52619047Y-56604761D01*
X52695238Y-56652380D01*
X52847619Y-56652380D01*
X52923809Y-56604761D01*
X53000000Y-56509523D01*
X53038095Y-56319047D01*
X53038095Y-55985714D01*
X53000000Y-55795238D01*
X52923809Y-55700000D01*
X52847619Y-55652380D01*
X55723809Y-59152380D02*
X55990476Y-58676190D01*
X56180952Y-59152380D02*
X56180952Y-58152380D01*
X55876190Y-58152380D01*
X55800000Y-58200000D01*
X55761904Y-58247619D01*
X55723809Y-58342857D01*
X55723809Y-58485714D01*
X55761904Y-58580952D01*
X55800000Y-58628571D01*
X55876190Y-58676190D01*
X56180952Y-58676190D01*
X55380952Y-58628571D02*
X55114285Y-58628571D01*
X55000000Y-59152380D02*
X55380952Y-59152380D01*
X55380952Y-58152380D01*
X55000000Y-58152380D01*
X54695238Y-59104761D02*
X54580952Y-59152380D01*
X54390476Y-59152380D01*
X54314285Y-59104761D01*
X54276190Y-59057142D01*
X54238095Y-58961904D01*
X54238095Y-58866666D01*
X54276190Y-58771428D01*
X54314285Y-58723809D01*
X54390476Y-58676190D01*
X54542857Y-58628571D01*
X54619047Y-58580952D01*
X54657142Y-58533333D01*
X54695238Y-58438095D01*
X54695238Y-58342857D01*
X54657142Y-58247619D01*
X54619047Y-58200000D01*
X54542857Y-58152380D01*
X54352380Y-58152380D01*
X54238095Y-58200000D01*
X53895238Y-58628571D02*
X53628571Y-58628571D01*
X53514285Y-59152380D02*
X53895238Y-59152380D01*
X53895238Y-58152380D01*
X53514285Y-58152380D01*
X53285714Y-58152380D02*
X52828571Y-58152380D01*
X53057142Y-59152380D02*
X53057142Y-58152380D01*
X52561904Y-58485714D02*
X52561904Y-59152380D01*
X52561904Y-58580952D02*
X52523809Y-58533333D01*
X52447619Y-58485714D01*
X52333333Y-58485714D01*
X52257142Y-58533333D01*
X52219047Y-58628571D01*
X52219047Y-59152380D01*
X56009523Y-54104761D02*
X55895238Y-54152380D01*
X55704761Y-54152380D01*
X55628571Y-54104761D01*
X55590476Y-54057142D01*
X55552380Y-53961904D01*
X55552380Y-53866666D01*
X55590476Y-53771428D01*
X55628571Y-53723809D01*
X55704761Y-53676190D01*
X55857142Y-53628571D01*
X55933333Y-53580952D01*
X55971428Y-53533333D01*
X56009523Y-53438095D01*
X56009523Y-53342857D01*
X55971428Y-53247619D01*
X55933333Y-53200000D01*
X55857142Y-53152380D01*
X55666666Y-53152380D01*
X55552380Y-53200000D01*
X55285714Y-53152380D02*
X55095238Y-54152380D01*
X54942857Y-53438095D01*
X54790476Y-54152380D01*
X54600000Y-53152380D01*
X53838095Y-54057142D02*
X53876190Y-54104761D01*
X53990476Y-54152380D01*
X54066666Y-54152380D01*
X54180952Y-54104761D01*
X54257142Y-54009523D01*
X54295238Y-53914285D01*
X54333333Y-53723809D01*
X54333333Y-53580952D01*
X54295238Y-53390476D01*
X54257142Y-53295238D01*
X54180952Y-53200000D01*
X54066666Y-53152380D01*
X53990476Y-53152380D01*
X53876190Y-53200000D01*
X53838095Y-53247619D01*
X53114285Y-54152380D02*
X53495238Y-54152380D01*
X53495238Y-53152380D01*
X52847619Y-54152380D02*
X52847619Y-53152380D01*
X52390476Y-54152380D02*
X52733333Y-53580952D01*
X52390476Y-53152380D02*
X52847619Y-53723809D01*
X49009523Y-53200000D02*
X49085714Y-53152380D01*
X49200000Y-53152380D01*
X49314285Y-53200000D01*
X49390476Y-53295238D01*
X49428571Y-53390476D01*
X49466666Y-53580952D01*
X49466666Y-53723809D01*
X49428571Y-53914285D01*
X49390476Y-54009523D01*
X49314285Y-54104761D01*
X49200000Y-54152380D01*
X49123809Y-54152380D01*
X49009523Y-54104761D01*
X48971428Y-54057142D01*
X48971428Y-53723809D01*
X49123809Y-53723809D01*
X48628571Y-54152380D02*
X48628571Y-53152380D01*
X48171428Y-54152380D01*
X48171428Y-53152380D01*
X47790476Y-54152380D02*
X47790476Y-53152380D01*
X47600000Y-53152380D01*
X47485714Y-53200000D01*
X47409523Y-53295238D01*
X47371428Y-53390476D01*
X47333333Y-53580952D01*
X47333333Y-53723809D01*
X47371428Y-53914285D01*
X47409523Y-54009523D01*
X47485714Y-54104761D01*
X47600000Y-54152380D01*
X47790476Y-54152380D01*
X52583333Y-87678571D02*
X52469047Y-87726190D01*
X52430952Y-87773809D01*
X52392857Y-87869047D01*
X52392857Y-88011904D01*
X52430952Y-88107142D01*
X52469047Y-88154761D01*
X52545238Y-88202380D01*
X52850000Y-88202380D01*
X52850000Y-87202380D01*
X52583333Y-87202380D01*
X52507142Y-87250000D01*
X52469047Y-87297619D01*
X52430952Y-87392857D01*
X52430952Y-87488095D01*
X52469047Y-87583333D01*
X52507142Y-87630952D01*
X52583333Y-87678571D01*
X52850000Y-87678571D01*
X52050000Y-88202380D02*
X52050000Y-87535714D01*
X52050000Y-87726190D02*
X52011904Y-87630952D01*
X51973809Y-87583333D01*
X51897619Y-87535714D01*
X51821428Y-87535714D01*
X51554761Y-88202380D02*
X51554761Y-87535714D01*
X51554761Y-87202380D02*
X51592857Y-87250000D01*
X51554761Y-87297619D01*
X51516666Y-87250000D01*
X51554761Y-87202380D01*
X51554761Y-87297619D01*
X50830952Y-87535714D02*
X50830952Y-88345238D01*
X50869047Y-88440476D01*
X50907142Y-88488095D01*
X50983333Y-88535714D01*
X51097619Y-88535714D01*
X51173809Y-88488095D01*
X50830952Y-88154761D02*
X50907142Y-88202380D01*
X51059523Y-88202380D01*
X51135714Y-88154761D01*
X51173809Y-88107142D01*
X51211904Y-88011904D01*
X51211904Y-87726190D01*
X51173809Y-87630952D01*
X51135714Y-87583333D01*
X51059523Y-87535714D01*
X50907142Y-87535714D01*
X50830952Y-87583333D01*
X50450000Y-88202380D02*
X50450000Y-87202380D01*
X50107142Y-88202380D02*
X50107142Y-87678571D01*
X50145238Y-87583333D01*
X50221428Y-87535714D01*
X50335714Y-87535714D01*
X50411904Y-87583333D01*
X50450000Y-87630952D01*
X49840476Y-87535714D02*
X49535714Y-87535714D01*
X49726190Y-87202380D02*
X49726190Y-88059523D01*
X49688095Y-88154761D01*
X49611904Y-88202380D01*
X49535714Y-88202380D01*
X56359523Y-84750000D02*
X56435714Y-84702380D01*
X56550000Y-84702380D01*
X56664285Y-84750000D01*
X56740476Y-84845238D01*
X56778571Y-84940476D01*
X56816666Y-85130952D01*
X56816666Y-85273809D01*
X56778571Y-85464285D01*
X56740476Y-85559523D01*
X56664285Y-85654761D01*
X56550000Y-85702380D01*
X56473809Y-85702380D01*
X56359523Y-85654761D01*
X56321428Y-85607142D01*
X56321428Y-85273809D01*
X56473809Y-85273809D01*
X55978571Y-85702380D02*
X55978571Y-84702380D01*
X55521428Y-85702380D01*
X55521428Y-84702380D01*
X55140476Y-85702380D02*
X55140476Y-84702380D01*
X54950000Y-84702380D01*
X54835714Y-84750000D01*
X54759523Y-84845238D01*
X54721428Y-84940476D01*
X54683333Y-85130952D01*
X54683333Y-85273809D01*
X54721428Y-85464285D01*
X54759523Y-85559523D01*
X54835714Y-85654761D01*
X54950000Y-85702380D01*
X55140476Y-85702380D01*
X57246759Y-54880911D02*
X45246759Y-54880911D01*
X45246759Y-57380911D02*
X57246759Y-57380911D01*
X57246759Y-59880911D02*
X57246759Y-52380911D01*
X51250000Y-59880911D02*
X57246759Y-59880911D01*
X45246759Y-52380911D02*
X45246759Y-57380000D01*
X49000000Y-91420000D02*
X49000000Y-86500000D01*
X51246759Y-59880911D02*
X51246759Y-52380911D01*
X57246759Y-52380911D02*
X45246759Y-52380911D01*
X53500000Y-91500000D02*
X53500000Y-84000000D01*
X57250000Y-84000000D02*
X53500000Y-84000000D01*
X44500000Y-89000000D02*
X44500000Y-91500000D01*
X44500000Y-91500000D02*
X58000000Y-91500000D01*
X58000000Y-91500000D02*
X58000000Y-85750000D01*
X58000000Y-86500000D02*
X49000000Y-86500000D01*
X44500000Y-89000000D02*
X58000000Y-89000000D01*
X99859523Y-84750000D02*
X99935714Y-84702380D01*
X100050000Y-84702380D01*
X100164285Y-84750000D01*
X100240476Y-84845238D01*
X100278571Y-84940476D01*
X100316666Y-85130952D01*
X100316666Y-85273809D01*
X100278571Y-85464285D01*
X100240476Y-85559523D01*
X100164285Y-85654761D01*
X100050000Y-85702380D01*
X99973809Y-85702380D01*
X99859523Y-85654761D01*
X99821428Y-85607142D01*
X99821428Y-85273809D01*
X99973809Y-85273809D01*
X99478571Y-85702380D02*
X99478571Y-84702380D01*
X99021428Y-85702380D01*
X99021428Y-84702380D01*
X98640476Y-85702380D02*
X98640476Y-84702380D01*
X98450000Y-84702380D01*
X98335714Y-84750000D01*
X98259523Y-84845238D01*
X98221428Y-84940476D01*
X98183333Y-85130952D01*
X98183333Y-85273809D01*
X98221428Y-85464285D01*
X98259523Y-85559523D01*
X98335714Y-85654761D01*
X98450000Y-85702380D01*
X98640476Y-85702380D01*
X96083333Y-87678571D02*
X95969047Y-87726190D01*
X95930952Y-87773809D01*
X95892857Y-87869047D01*
X95892857Y-88011904D01*
X95930952Y-88107142D01*
X95969047Y-88154761D01*
X96045238Y-88202380D01*
X96350000Y-88202380D01*
X96350000Y-87202380D01*
X96083333Y-87202380D01*
X96007142Y-87250000D01*
X95969047Y-87297619D01*
X95930952Y-87392857D01*
X95930952Y-87488095D01*
X95969047Y-87583333D01*
X96007142Y-87630952D01*
X96083333Y-87678571D01*
X96350000Y-87678571D01*
X95550000Y-88202380D02*
X95550000Y-87535714D01*
X95550000Y-87726190D02*
X95511904Y-87630952D01*
X95473809Y-87583333D01*
X95397619Y-87535714D01*
X95321428Y-87535714D01*
X95054761Y-88202380D02*
X95054761Y-87535714D01*
X95054761Y-87202380D02*
X95092857Y-87250000D01*
X95054761Y-87297619D01*
X95016666Y-87250000D01*
X95054761Y-87202380D01*
X95054761Y-87297619D01*
X94330952Y-87535714D02*
X94330952Y-88345238D01*
X94369047Y-88440476D01*
X94407142Y-88488095D01*
X94483333Y-88535714D01*
X94597619Y-88535714D01*
X94673809Y-88488095D01*
X94330952Y-88154761D02*
X94407142Y-88202380D01*
X94559523Y-88202380D01*
X94635714Y-88154761D01*
X94673809Y-88107142D01*
X94711904Y-88011904D01*
X94711904Y-87726190D01*
X94673809Y-87630952D01*
X94635714Y-87583333D01*
X94559523Y-87535714D01*
X94407142Y-87535714D01*
X94330952Y-87583333D01*
X93950000Y-88202380D02*
X93950000Y-87202380D01*
X93607142Y-88202380D02*
X93607142Y-87678571D01*
X93645238Y-87583333D01*
X93721428Y-87535714D01*
X93835714Y-87535714D01*
X93911904Y-87583333D01*
X93950000Y-87630952D01*
X93340476Y-87535714D02*
X93035714Y-87535714D01*
X93226190Y-87202380D02*
X93226190Y-88059523D01*
X93188095Y-88154761D01*
X93111904Y-88202380D01*
X93035714Y-88202380D01*
X92509523Y-53200000D02*
X92585714Y-53152380D01*
X92700000Y-53152380D01*
X92814285Y-53200000D01*
X92890476Y-53295238D01*
X92928571Y-53390476D01*
X92966666Y-53580952D01*
X92966666Y-53723809D01*
X92928571Y-53914285D01*
X92890476Y-54009523D01*
X92814285Y-54104761D01*
X92700000Y-54152380D01*
X92623809Y-54152380D01*
X92509523Y-54104761D01*
X92471428Y-54057142D01*
X92471428Y-53723809D01*
X92623809Y-53723809D01*
X92128571Y-54152380D02*
X92128571Y-53152380D01*
X91671428Y-54152380D01*
X91671428Y-53152380D01*
X91290476Y-54152380D02*
X91290476Y-53152380D01*
X91100000Y-53152380D01*
X90985714Y-53200000D01*
X90909523Y-53295238D01*
X90871428Y-53390476D01*
X90833333Y-53580952D01*
X90833333Y-53723809D01*
X90871428Y-53914285D01*
X90909523Y-54009523D01*
X90985714Y-54104761D01*
X91100000Y-54152380D01*
X91290476Y-54152380D01*
X99509523Y-54104761D02*
X99395238Y-54152380D01*
X99204761Y-54152380D01*
X99128571Y-54104761D01*
X99090476Y-54057142D01*
X99052380Y-53961904D01*
X99052380Y-53866666D01*
X99090476Y-53771428D01*
X99128571Y-53723809D01*
X99204761Y-53676190D01*
X99357142Y-53628571D01*
X99433333Y-53580952D01*
X99471428Y-53533333D01*
X99509523Y-53438095D01*
X99509523Y-53342857D01*
X99471428Y-53247619D01*
X99433333Y-53200000D01*
X99357142Y-53152380D01*
X99166666Y-53152380D01*
X99052380Y-53200000D01*
X98785714Y-53152380D02*
X98595238Y-54152380D01*
X98442857Y-53438095D01*
X98290476Y-54152380D01*
X98100000Y-53152380D01*
X97338095Y-54057142D02*
X97376190Y-54104761D01*
X97490476Y-54152380D01*
X97566666Y-54152380D01*
X97680952Y-54104761D01*
X97757142Y-54009523D01*
X97795238Y-53914285D01*
X97833333Y-53723809D01*
X97833333Y-53580952D01*
X97795238Y-53390476D01*
X97757142Y-53295238D01*
X97680952Y-53200000D01*
X97566666Y-53152380D01*
X97490476Y-53152380D01*
X97376190Y-53200000D01*
X97338095Y-53247619D01*
X96614285Y-54152380D02*
X96995238Y-54152380D01*
X96995238Y-53152380D01*
X96347619Y-54152380D02*
X96347619Y-53152380D01*
X95890476Y-54152380D02*
X96233333Y-53580952D01*
X95890476Y-53152380D02*
X96347619Y-53723809D01*
X99223809Y-59152380D02*
X99490476Y-58676190D01*
X99680952Y-59152380D02*
X99680952Y-58152380D01*
X99376190Y-58152380D01*
X99300000Y-58200000D01*
X99261904Y-58247619D01*
X99223809Y-58342857D01*
X99223809Y-58485714D01*
X99261904Y-58580952D01*
X99300000Y-58628571D01*
X99376190Y-58676190D01*
X99680952Y-58676190D01*
X98880952Y-58628571D02*
X98614285Y-58628571D01*
X98500000Y-59152380D02*
X98880952Y-59152380D01*
X98880952Y-58152380D01*
X98500000Y-58152380D01*
X98195238Y-59104761D02*
X98080952Y-59152380D01*
X97890476Y-59152380D01*
X97814285Y-59104761D01*
X97776190Y-59057142D01*
X97738095Y-58961904D01*
X97738095Y-58866666D01*
X97776190Y-58771428D01*
X97814285Y-58723809D01*
X97890476Y-58676190D01*
X98042857Y-58628571D01*
X98119047Y-58580952D01*
X98157142Y-58533333D01*
X98195238Y-58438095D01*
X98195238Y-58342857D01*
X98157142Y-58247619D01*
X98119047Y-58200000D01*
X98042857Y-58152380D01*
X97852380Y-58152380D01*
X97738095Y-58200000D01*
X97395238Y-58628571D02*
X97128571Y-58628571D01*
X97014285Y-59152380D02*
X97395238Y-59152380D01*
X97395238Y-58152380D01*
X97014285Y-58152380D01*
X96785714Y-58152380D02*
X96328571Y-58152380D01*
X96557142Y-59152380D02*
X96557142Y-58152380D01*
X96061904Y-58485714D02*
X96061904Y-59152380D01*
X96061904Y-58580952D02*
X96023809Y-58533333D01*
X95947619Y-58485714D01*
X95833333Y-58485714D01*
X95757142Y-58533333D01*
X95719047Y-58628571D01*
X95719047Y-59152380D01*
X99395238Y-56604761D02*
X99280952Y-56652380D01*
X99090476Y-56652380D01*
X99014285Y-56604761D01*
X98976190Y-56557142D01*
X98938095Y-56461904D01*
X98938095Y-56366666D01*
X98976190Y-56271428D01*
X99014285Y-56223809D01*
X99090476Y-56176190D01*
X99242857Y-56128571D01*
X99319047Y-56080952D01*
X99357142Y-56033333D01*
X99395238Y-55938095D01*
X99395238Y-55842857D01*
X99357142Y-55747619D01*
X99319047Y-55700000D01*
X99242857Y-55652380D01*
X99052380Y-55652380D01*
X98938095Y-55700000D01*
X98671428Y-55652380D02*
X98480952Y-56652380D01*
X98328571Y-55938095D01*
X98176190Y-56652380D01*
X97985714Y-55652380D01*
X97680952Y-56652380D02*
X97680952Y-55652380D01*
X97490476Y-55652380D01*
X97376190Y-55700000D01*
X97300000Y-55795238D01*
X97261904Y-55890476D01*
X97223809Y-56080952D01*
X97223809Y-56223809D01*
X97261904Y-56414285D01*
X97300000Y-56509523D01*
X97376190Y-56604761D01*
X97490476Y-56652380D01*
X97680952Y-56652380D01*
X96880952Y-56652380D02*
X96880952Y-55652380D01*
X96347619Y-55652380D02*
X96195238Y-55652380D01*
X96119047Y-55700000D01*
X96042857Y-55795238D01*
X96004761Y-55985714D01*
X96004761Y-56319047D01*
X96042857Y-56509523D01*
X96119047Y-56604761D01*
X96195238Y-56652380D01*
X96347619Y-56652380D01*
X96423809Y-56604761D01*
X96500000Y-56509523D01*
X96538095Y-56319047D01*
X96538095Y-55985714D01*
X96500000Y-55795238D01*
X96423809Y-55700000D01*
X96347619Y-55652380D01*
X92966666Y-55652380D02*
X92700000Y-56652380D01*
X92433333Y-55652380D01*
X91709523Y-56557142D02*
X91747619Y-56604761D01*
X91861904Y-56652380D01*
X91938095Y-56652380D01*
X92052380Y-56604761D01*
X92128571Y-56509523D01*
X92166666Y-56414285D01*
X92204761Y-56223809D01*
X92204761Y-56080952D01*
X92166666Y-55890476D01*
X92128571Y-55795238D01*
X92052380Y-55700000D01*
X91938095Y-55652380D01*
X91861904Y-55652380D01*
X91747619Y-55700000D01*
X91709523Y-55747619D01*
X90909523Y-56557142D02*
X90947619Y-56604761D01*
X91061904Y-56652380D01*
X91138095Y-56652380D01*
X91252380Y-56604761D01*
X91328571Y-56509523D01*
X91366666Y-56414285D01*
X91404761Y-56223809D01*
X91404761Y-56080952D01*
X91366666Y-55890476D01*
X91328571Y-55795238D01*
X91252380Y-55700000D01*
X91138095Y-55652380D01*
X91061904Y-55652380D01*
X90947619Y-55700000D01*
X90909523Y-55747619D01*
D10*
X126168901Y-53990911D02*
X126311759Y-53919482D01*
X126526044Y-53919482D01*
X126740330Y-53990911D01*
X126883187Y-54133768D01*
X126954616Y-54276625D01*
X127026044Y-54562339D01*
X127026044Y-54776625D01*
X126954616Y-55062339D01*
X126883187Y-55205196D01*
X126740330Y-55348053D01*
X126526044Y-55419482D01*
X126383187Y-55419482D01*
X126168901Y-55348053D01*
X126097473Y-55276625D01*
X126097473Y-54776625D01*
X126383187Y-54776625D01*
X124811759Y-55419482D02*
X124811759Y-54633768D01*
X124883187Y-54490911D01*
X125026044Y-54419482D01*
X125311759Y-54419482D01*
X125454616Y-54490911D01*
X124811759Y-55348053D02*
X124954616Y-55419482D01*
X125311759Y-55419482D01*
X125454616Y-55348053D01*
X125526044Y-55205196D01*
X125526044Y-55062339D01*
X125454616Y-54919482D01*
X125311759Y-54848053D01*
X124954616Y-54848053D01*
X124811759Y-54776625D01*
X125168901Y-54062339D02*
X125311759Y-53990911D01*
X125383187Y-53848053D01*
X125311759Y-53705196D01*
X125168901Y-53633768D01*
X125026044Y-53705196D01*
X124954616Y-53848053D01*
X125026044Y-53990911D01*
X125168901Y-54062339D01*
X124097473Y-55419482D02*
X124097473Y-54419482D01*
X124097473Y-54705196D02*
X124026044Y-54562339D01*
X123954616Y-54490911D01*
X123811759Y-54419482D01*
X123668901Y-54419482D01*
X122026044Y-55419482D02*
X122026044Y-54419482D01*
X122026044Y-53919482D02*
X122097473Y-53990911D01*
X122026044Y-54062339D01*
X121954616Y-53990911D01*
X122026044Y-53919482D01*
X122026044Y-54062339D01*
X120240330Y-55348053D02*
X120097473Y-55419482D01*
X119811759Y-55419482D01*
X119668901Y-55348053D01*
X119597473Y-55205196D01*
X119597473Y-55133768D01*
X119668901Y-54990911D01*
X119811759Y-54919482D01*
X120026044Y-54919482D01*
X120168901Y-54848053D01*
X120240330Y-54705196D01*
X120240330Y-54633768D01*
X120168901Y-54490911D01*
X120026044Y-54419482D01*
X119811759Y-54419482D01*
X119668901Y-54490911D01*
X119168901Y-54419482D02*
X118597473Y-54419482D01*
X118954616Y-53919482D02*
X118954616Y-55205196D01*
X118883187Y-55348053D01*
X118740330Y-55419482D01*
X118597473Y-55419482D01*
X118240330Y-54419482D02*
X117883187Y-55419482D01*
X117526044Y-54419482D02*
X117883187Y-55419482D01*
X118026044Y-55776625D01*
X118097473Y-55848053D01*
X118240330Y-55919482D01*
X116954616Y-55419482D02*
X116954616Y-53919482D01*
X116811759Y-54848053D02*
X116383187Y-55419482D01*
X116383187Y-54419482D02*
X116954616Y-54990911D01*
X115740330Y-55419482D02*
X115740330Y-53919482D01*
X115597473Y-54848053D02*
X115168901Y-55419482D01*
X115168901Y-54419482D02*
X115740330Y-54990911D01*
X113954616Y-55348053D02*
X114097473Y-55419482D01*
X114383187Y-55419482D01*
X114526044Y-55348053D01*
X114597473Y-55205196D01*
X114597473Y-54633768D01*
X114526044Y-54490911D01*
X114383187Y-54419482D01*
X114097473Y-54419482D01*
X113954616Y-54490911D01*
X113883187Y-54633768D01*
X113883187Y-54776625D01*
X114597473Y-54919482D01*
X113240330Y-55419482D02*
X113240330Y-54419482D01*
X113240330Y-54705196D02*
X113168901Y-54562339D01*
X113097473Y-54490911D01*
X112954616Y-54419482D01*
X112811759Y-54419482D01*
X126954616Y-57969482D02*
X126954616Y-56469482D01*
X126311759Y-57969482D02*
X126311759Y-57183768D01*
X126383187Y-57040911D01*
X126526044Y-56969482D01*
X126740330Y-56969482D01*
X126883187Y-57040911D01*
X126954616Y-57112339D01*
X125740330Y-56969482D02*
X125383187Y-57969482D01*
X125026044Y-56969482D01*
X124454616Y-57969482D02*
X124454616Y-56969482D01*
X124454616Y-56469482D02*
X124526044Y-56540911D01*
X124454616Y-56612339D01*
X124383187Y-56540911D01*
X124454616Y-56469482D01*
X124454616Y-56612339D01*
X123811759Y-57898053D02*
X123668901Y-57969482D01*
X123383187Y-57969482D01*
X123240330Y-57898053D01*
X123168901Y-57755196D01*
X123168901Y-57683768D01*
X123240330Y-57540911D01*
X123383187Y-57469482D01*
X123597473Y-57469482D01*
X123740330Y-57398053D01*
X123811759Y-57255196D01*
X123811759Y-57183768D01*
X123740330Y-57040911D01*
X123597473Y-56969482D01*
X123383187Y-56969482D01*
X123240330Y-57040911D01*
X121383187Y-57969482D02*
X121383187Y-56469482D01*
X121383187Y-57040911D02*
X121240330Y-56969482D01*
X120954616Y-56969482D01*
X120811759Y-57040911D01*
X120740330Y-57112339D01*
X120668901Y-57255196D01*
X120668901Y-57683768D01*
X120740330Y-57826625D01*
X120811759Y-57898053D01*
X120954616Y-57969482D01*
X121240330Y-57969482D01*
X121383187Y-57898053D01*
X119383187Y-57969482D02*
X119383187Y-57183768D01*
X119454616Y-57040911D01*
X119597473Y-56969482D01*
X119883187Y-56969482D01*
X120026044Y-57040911D01*
X119383187Y-57898053D02*
X119526044Y-57969482D01*
X119883187Y-57969482D01*
X120026044Y-57898053D01*
X120097473Y-57755196D01*
X120097473Y-57612339D01*
X120026044Y-57469482D01*
X119883187Y-57398053D01*
X119526044Y-57398053D01*
X119383187Y-57326625D01*
X118883187Y-56969482D02*
X118311759Y-56969482D01*
X118668901Y-56469482D02*
X118668901Y-57755196D01*
X118597473Y-57898053D01*
X118454616Y-57969482D01*
X118311759Y-57969482D01*
X118026044Y-56969482D02*
X117454616Y-56969482D01*
X117811759Y-56469482D02*
X117811759Y-57755196D01*
X117740330Y-57898053D01*
X117597473Y-57969482D01*
X117454616Y-57969482D01*
X116383187Y-57898053D02*
X116526044Y-57969482D01*
X116811759Y-57969482D01*
X116954616Y-57898053D01*
X117026044Y-57755196D01*
X117026044Y-57183768D01*
X116954616Y-57040911D01*
X116811759Y-56969482D01*
X116526044Y-56969482D01*
X116383187Y-57040911D01*
X116311759Y-57183768D01*
X116311759Y-57326625D01*
X117026044Y-57469482D01*
X115668901Y-57969482D02*
X115668901Y-56969482D01*
X115668901Y-57255196D02*
X115597473Y-57112339D01*
X115526044Y-57040911D01*
X115383187Y-56969482D01*
X115240330Y-56969482D01*
X114740330Y-57969482D02*
X114740330Y-56969482D01*
X114740330Y-56469482D02*
X114811759Y-56540911D01*
X114740330Y-56612339D01*
X114668901Y-56540911D01*
X114740330Y-56469482D01*
X114740330Y-56612339D01*
X113454616Y-57898053D02*
X113597473Y-57969482D01*
X113883187Y-57969482D01*
X114026044Y-57898053D01*
X114097473Y-57755196D01*
X114097473Y-57183768D01*
X114026044Y-57040911D01*
X113883187Y-56969482D01*
X113597473Y-56969482D01*
X113454616Y-57040911D01*
X113383187Y-57183768D01*
X113383187Y-57326625D01*
X114097473Y-57469482D01*
X112954616Y-56969482D02*
X112383187Y-56969482D01*
X112740330Y-56469482D02*
X112740330Y-57755196D01*
X112668901Y-57898053D01*
X112526044Y-57969482D01*
X112383187Y-57969482D01*
X127097473Y-59519482D02*
X126740330Y-60519482D01*
X126383187Y-59519482D01*
X125240330Y-60448053D02*
X125383187Y-60519482D01*
X125668901Y-60519482D01*
X125811759Y-60448053D01*
X125883187Y-60305196D01*
X125883187Y-59733768D01*
X125811759Y-59590911D01*
X125668901Y-59519482D01*
X125383187Y-59519482D01*
X125240330Y-59590911D01*
X125168901Y-59733768D01*
X125168901Y-59876625D01*
X125883187Y-60019482D01*
X124526044Y-59519482D02*
X124526044Y-60519482D01*
X124526044Y-59662339D02*
X124454616Y-59590911D01*
X124311759Y-59519482D01*
X124097473Y-59519482D01*
X123954616Y-59590911D01*
X123883187Y-59733768D01*
X123883187Y-60519482D01*
X122526044Y-60519482D02*
X122526044Y-59019482D01*
X122526044Y-60448053D02*
X122668901Y-60519482D01*
X122954616Y-60519482D01*
X123097473Y-60448053D01*
X123168901Y-60376625D01*
X123240330Y-60233768D01*
X123240330Y-59805196D01*
X123168901Y-59662339D01*
X123097473Y-59590911D01*
X122954616Y-59519482D01*
X122668901Y-59519482D01*
X122526044Y-59590911D01*
X121240330Y-60448053D02*
X121383187Y-60519482D01*
X121668901Y-60519482D01*
X121811759Y-60448053D01*
X121883187Y-60305196D01*
X121883187Y-59733768D01*
X121811759Y-59590911D01*
X121668901Y-59519482D01*
X121383187Y-59519482D01*
X121240330Y-59590911D01*
X121168901Y-59733768D01*
X121168901Y-59876625D01*
X121883187Y-60019482D01*
X120526044Y-60519482D02*
X120526044Y-59519482D01*
X120526044Y-59805196D02*
X120454616Y-59662339D01*
X120383187Y-59590911D01*
X120240330Y-59519482D01*
X120097473Y-59519482D01*
X118668901Y-59519482D02*
X118097473Y-59519482D01*
X118454616Y-60519482D02*
X118454616Y-59233768D01*
X118383187Y-59090911D01*
X118240330Y-59019482D01*
X118097473Y-59019482D01*
X117383187Y-60519482D02*
X117526044Y-60448053D01*
X117597473Y-60376625D01*
X117668901Y-60233768D01*
X117668901Y-59805196D01*
X117597473Y-59662339D01*
X117526044Y-59590911D01*
X117383187Y-59519482D01*
X117168901Y-59519482D01*
X117026044Y-59590911D01*
X116954616Y-59662339D01*
X116883187Y-59805196D01*
X116883187Y-60233768D01*
X116954616Y-60376625D01*
X117026044Y-60448053D01*
X117168901Y-60519482D01*
X117383187Y-60519482D01*
X116240330Y-60519482D02*
X116240330Y-59519482D01*
X116240330Y-59805196D02*
X116168901Y-59662339D01*
X116097473Y-59590911D01*
X115954616Y-59519482D01*
X115811759Y-59519482D01*
X115311759Y-60519482D02*
X115311759Y-59019482D01*
X115168901Y-59948053D02*
X114740330Y-60519482D01*
X114740330Y-59519482D02*
X115311759Y-60090911D01*
X113526044Y-60448053D02*
X113668901Y-60519482D01*
X113954616Y-60519482D01*
X114097473Y-60448053D01*
X114168901Y-60305196D01*
X114168901Y-59733768D01*
X114097473Y-59590911D01*
X113954616Y-59519482D01*
X113668901Y-59519482D01*
X113526044Y-59590911D01*
X113454616Y-59733768D01*
X113454616Y-59876625D01*
X114168901Y-60019482D01*
X112811759Y-60519482D02*
X112811759Y-59519482D01*
X112811759Y-59805196D02*
X112740330Y-59662339D01*
X112668901Y-59590911D01*
X112526044Y-59519482D01*
X112383187Y-59519482D01*
X112097473Y-59519482D02*
X111526044Y-59519482D01*
X111883187Y-59019482D02*
X111883187Y-60305196D01*
X111811759Y-60448053D01*
X111668901Y-60519482D01*
X111526044Y-60519482D01*
X111026044Y-60376625D02*
X110954616Y-60448053D01*
X111026044Y-60519482D01*
X111097473Y-60448053D01*
X111026044Y-60376625D01*
X111026044Y-60519482D01*
X111026044Y-59948053D02*
X111097473Y-59090911D01*
X111026044Y-59019482D01*
X110954616Y-59090911D01*
X111026044Y-59948053D01*
X111026044Y-59019482D01*
D11*
X95645238Y-90702380D02*
X95911904Y-90226190D01*
X96102380Y-90702380D02*
X96102380Y-89702380D01*
X95797619Y-89702380D01*
X95721428Y-89750000D01*
X95683333Y-89797619D01*
X95645238Y-89892857D01*
X95645238Y-90035714D01*
X95683333Y-90130952D01*
X95721428Y-90178571D01*
X95797619Y-90226190D01*
X96102380Y-90226190D01*
X95302380Y-90702380D02*
X95302380Y-90035714D01*
X95302380Y-89702380D02*
X95340476Y-89750000D01*
X95302380Y-89797619D01*
X95264285Y-89750000D01*
X95302380Y-89702380D01*
X95302380Y-89797619D01*
X94578571Y-90035714D02*
X94578571Y-90845238D01*
X94616666Y-90940476D01*
X94654761Y-90988095D01*
X94730952Y-91035714D01*
X94845238Y-91035714D01*
X94921428Y-90988095D01*
X94578571Y-90654761D02*
X94654761Y-90702380D01*
X94807142Y-90702380D01*
X94883333Y-90654761D01*
X94921428Y-90607142D01*
X94959523Y-90511904D01*
X94959523Y-90226190D01*
X94921428Y-90130952D01*
X94883333Y-90083333D01*
X94807142Y-90035714D01*
X94654761Y-90035714D01*
X94578571Y-90083333D01*
X94197619Y-90702380D02*
X94197619Y-89702380D01*
X93854761Y-90702380D02*
X93854761Y-90178571D01*
X93892857Y-90083333D01*
X93969047Y-90035714D01*
X94083333Y-90035714D01*
X94159523Y-90083333D01*
X94197619Y-90130952D01*
X93588095Y-90035714D02*
X93283333Y-90035714D01*
X93473809Y-89702380D02*
X93473809Y-90559523D01*
X93435714Y-90654761D01*
X93359523Y-90702380D01*
X93283333Y-90702380D01*
X100282473Y-65983291D02*
X100282473Y-64983291D01*
X99901520Y-64983291D01*
X99806282Y-65030911D01*
X99758663Y-65078530D01*
X99711044Y-65173768D01*
X99711044Y-65316625D01*
X99758663Y-65411863D01*
X99806282Y-65459482D01*
X99901520Y-65507101D01*
X100282473Y-65507101D01*
X98901520Y-65935672D02*
X98996759Y-65983291D01*
X99187235Y-65983291D01*
X99282473Y-65935672D01*
X99330092Y-65840434D01*
X99330092Y-65459482D01*
X99282473Y-65364244D01*
X99187235Y-65316625D01*
X98996759Y-65316625D01*
X98901520Y-65364244D01*
X98853901Y-65459482D01*
X98853901Y-65554720D01*
X99330092Y-65649958D01*
X98425330Y-65983291D02*
X98425330Y-65316625D01*
X98425330Y-65507101D02*
X98377711Y-65411863D01*
X98330092Y-65364244D01*
X98234854Y-65316625D01*
X98139616Y-65316625D01*
X97044378Y-65983291D02*
X97044378Y-64983291D01*
X96711044Y-65697577D01*
X96377711Y-64983291D01*
X96377711Y-65983291D01*
X95520568Y-65935672D02*
X95615806Y-65983291D01*
X95806282Y-65983291D01*
X95901520Y-65935672D01*
X95949139Y-65840434D01*
X95949139Y-65459482D01*
X95901520Y-65364244D01*
X95806282Y-65316625D01*
X95615806Y-65316625D01*
X95520568Y-65364244D01*
X95472949Y-65459482D01*
X95472949Y-65554720D01*
X95949139Y-65649958D01*
X95044378Y-65316625D02*
X95044378Y-66173768D01*
X95091997Y-66269006D01*
X95187235Y-66316625D01*
X95234854Y-66316625D01*
X95044378Y-64983291D02*
X95091997Y-65030911D01*
X95044378Y-65078530D01*
X94996759Y-65030911D01*
X95044378Y-64983291D01*
X95044378Y-65078530D01*
X94139616Y-65983291D02*
X94139616Y-64983291D01*
X94139616Y-65935672D02*
X94234854Y-65983291D01*
X94425330Y-65983291D01*
X94520568Y-65935672D01*
X94568187Y-65888053D01*
X94615806Y-65792815D01*
X94615806Y-65507101D01*
X94568187Y-65411863D01*
X94520568Y-65364244D01*
X94425330Y-65316625D01*
X94234854Y-65316625D01*
X94139616Y-65364244D01*
X93234854Y-65983291D02*
X93234854Y-65459482D01*
X93282473Y-65364244D01*
X93377711Y-65316625D01*
X93568187Y-65316625D01*
X93663425Y-65364244D01*
X93234854Y-65935672D02*
X93330092Y-65983291D01*
X93568187Y-65983291D01*
X93663425Y-65935672D01*
X93711044Y-65840434D01*
X93711044Y-65745196D01*
X93663425Y-65649958D01*
X93568187Y-65602339D01*
X93330092Y-65602339D01*
X93234854Y-65554720D01*
X92615806Y-65983291D02*
X92711044Y-65935672D01*
X92758663Y-65840434D01*
X92758663Y-64983291D01*
X99853901Y-67683291D02*
X100187235Y-67207101D01*
X100425330Y-67683291D02*
X100425330Y-66683291D01*
X100044378Y-66683291D01*
X99949139Y-66730911D01*
X99901520Y-66778530D01*
X99853901Y-66873768D01*
X99853901Y-67016625D01*
X99901520Y-67111863D01*
X99949139Y-67159482D01*
X100044378Y-67207101D01*
X100425330Y-67207101D01*
X98996759Y-67683291D02*
X98996759Y-67159482D01*
X99044378Y-67064244D01*
X99139616Y-67016625D01*
X99330092Y-67016625D01*
X99425330Y-67064244D01*
X98996759Y-67635672D02*
X99091997Y-67683291D01*
X99330092Y-67683291D01*
X99425330Y-67635672D01*
X99472949Y-67540434D01*
X99472949Y-67445196D01*
X99425330Y-67349958D01*
X99330092Y-67302339D01*
X99091997Y-67302339D01*
X98996759Y-67254720D01*
X98568187Y-67635672D02*
X98472949Y-67683291D01*
X98282473Y-67683291D01*
X98187235Y-67635672D01*
X98139616Y-67540434D01*
X98139616Y-67492815D01*
X98187235Y-67397577D01*
X98282473Y-67349958D01*
X98425330Y-67349958D01*
X98520568Y-67302339D01*
X98568187Y-67207101D01*
X98568187Y-67159482D01*
X98520568Y-67064244D01*
X98425330Y-67016625D01*
X98282473Y-67016625D01*
X98187235Y-67064244D01*
X97711044Y-67683291D02*
X97711044Y-67016625D01*
X97711044Y-67111863D02*
X97663425Y-67064244D01*
X97568187Y-67016625D01*
X97425330Y-67016625D01*
X97330092Y-67064244D01*
X97282473Y-67159482D01*
X97282473Y-67683291D01*
X97282473Y-67159482D02*
X97234854Y-67064244D01*
X97139616Y-67016625D01*
X96996759Y-67016625D01*
X96901520Y-67064244D01*
X96853901Y-67159482D01*
X96853901Y-67683291D01*
X95949139Y-67016625D02*
X95949139Y-67683291D01*
X96377711Y-67016625D02*
X96377711Y-67540434D01*
X96330092Y-67635672D01*
X96234854Y-67683291D01*
X96091997Y-67683291D01*
X95996759Y-67635672D01*
X95949139Y-67588053D01*
X95520568Y-67635672D02*
X95425330Y-67683291D01*
X95234854Y-67683291D01*
X95139616Y-67635672D01*
X95091997Y-67540434D01*
X95091997Y-67492815D01*
X95139616Y-67397577D01*
X95234854Y-67349958D01*
X95377711Y-67349958D01*
X95472949Y-67302339D01*
X95520568Y-67207101D01*
X95520568Y-67159482D01*
X95472949Y-67064244D01*
X95377711Y-67016625D01*
X95234854Y-67016625D01*
X95139616Y-67064244D01*
X94711044Y-67635672D02*
X94615806Y-67683291D01*
X94425330Y-67683291D01*
X94330092Y-67635672D01*
X94282473Y-67540434D01*
X94282473Y-67492815D01*
X94330092Y-67397577D01*
X94425330Y-67349958D01*
X94568187Y-67349958D01*
X94663425Y-67302339D01*
X94711044Y-67207101D01*
X94711044Y-67159482D01*
X94663425Y-67064244D01*
X94568187Y-67016625D01*
X94425330Y-67016625D01*
X94330092Y-67064244D01*
X93472949Y-67635672D02*
X93568187Y-67683291D01*
X93758663Y-67683291D01*
X93853901Y-67635672D01*
X93901520Y-67540434D01*
X93901520Y-67159482D01*
X93853901Y-67064244D01*
X93758663Y-67016625D01*
X93568187Y-67016625D01*
X93472949Y-67064244D01*
X93425330Y-67159482D01*
X93425330Y-67254720D01*
X93901520Y-67349958D01*
X92996759Y-67016625D02*
X92996759Y-67683291D01*
X92996759Y-67111863D02*
X92949139Y-67064244D01*
X92853901Y-67016625D01*
X92711044Y-67016625D01*
X92615806Y-67064244D01*
X92568187Y-67159482D01*
X92568187Y-67683291D01*
X125511520Y-88426625D02*
X125130568Y-88426625D01*
X125368663Y-88093291D02*
X125368663Y-88950434D01*
X125321044Y-89045672D01*
X125225806Y-89093291D01*
X125130568Y-89093291D01*
X124797235Y-89093291D02*
X124797235Y-88093291D01*
X124368663Y-89093291D02*
X124368663Y-88569482D01*
X124416282Y-88474244D01*
X124511520Y-88426625D01*
X124654378Y-88426625D01*
X124749616Y-88474244D01*
X124797235Y-88521863D01*
X123892473Y-89093291D02*
X123892473Y-88426625D01*
X123892473Y-88093291D02*
X123940092Y-88140911D01*
X123892473Y-88188530D01*
X123844854Y-88140911D01*
X123892473Y-88093291D01*
X123892473Y-88188530D01*
X123416282Y-88426625D02*
X123416282Y-89093291D01*
X123416282Y-88521863D02*
X123368663Y-88474244D01*
X123273425Y-88426625D01*
X123130568Y-88426625D01*
X123035330Y-88474244D01*
X122987711Y-88569482D01*
X122987711Y-89093291D01*
X122082949Y-88426625D02*
X122082949Y-89236149D01*
X122130568Y-89331387D01*
X122178187Y-89379006D01*
X122273425Y-89426625D01*
X122416282Y-89426625D01*
X122511520Y-89379006D01*
X122082949Y-89045672D02*
X122178187Y-89093291D01*
X122368663Y-89093291D01*
X122463901Y-89045672D01*
X122511520Y-88998053D01*
X122559139Y-88902815D01*
X122559139Y-88617101D01*
X122511520Y-88521863D01*
X122463901Y-88474244D01*
X122368663Y-88426625D01*
X122178187Y-88426625D01*
X122082949Y-88474244D01*
X121606759Y-89093291D02*
X121606759Y-88426625D01*
X121606759Y-88093291D02*
X121654378Y-88140911D01*
X121606759Y-88188530D01*
X121559139Y-88140911D01*
X121606759Y-88093291D01*
X121606759Y-88188530D01*
X121225806Y-88426625D02*
X120987711Y-89093291D01*
X120749616Y-88426625D01*
X119987711Y-89045672D02*
X120082949Y-89093291D01*
X120273425Y-89093291D01*
X120368663Y-89045672D01*
X120416282Y-88950434D01*
X120416282Y-88569482D01*
X120368663Y-88474244D01*
X120273425Y-88426625D01*
X120082949Y-88426625D01*
X119987711Y-88474244D01*
X119940092Y-88569482D01*
X119940092Y-88664720D01*
X120416282Y-88759958D01*
X119511520Y-89093291D02*
X119511520Y-88426625D01*
X119511520Y-88617101D02*
X119463901Y-88521863D01*
X119416282Y-88474244D01*
X119321044Y-88426625D01*
X119225806Y-88426625D01*
X118940092Y-89045672D02*
X118844854Y-89093291D01*
X118654378Y-89093291D01*
X118559139Y-89045672D01*
X118511520Y-88950434D01*
X118511520Y-88902815D01*
X118559139Y-88807577D01*
X118654378Y-88759958D01*
X118797235Y-88759958D01*
X118892473Y-88712339D01*
X118940092Y-88617101D01*
X118940092Y-88569482D01*
X118892473Y-88474244D01*
X118797235Y-88426625D01*
X118654378Y-88426625D01*
X118559139Y-88474244D01*
X117701997Y-89045672D02*
X117797235Y-89093291D01*
X117987711Y-89093291D01*
X118082949Y-89045672D01*
X118130568Y-88950434D01*
X118130568Y-88569482D01*
X118082949Y-88474244D01*
X117987711Y-88426625D01*
X117797235Y-88426625D01*
X117701997Y-88474244D01*
X117654378Y-88569482D01*
X117654378Y-88664720D01*
X118130568Y-88759958D01*
X117225806Y-88998053D02*
X117178187Y-89045672D01*
X117225806Y-89093291D01*
X117273425Y-89045672D01*
X117225806Y-88998053D01*
X117225806Y-89093291D01*
X116321044Y-89045672D02*
X116416282Y-89093291D01*
X116606759Y-89093291D01*
X116701997Y-89045672D01*
X116749616Y-88998053D01*
X116797235Y-88902815D01*
X116797235Y-88617101D01*
X116749616Y-88521863D01*
X116701997Y-88474244D01*
X116606759Y-88426625D01*
X116416282Y-88426625D01*
X116321044Y-88474244D01*
X115749616Y-89093291D02*
X115844854Y-89045672D01*
X115892473Y-88998053D01*
X115940092Y-88902815D01*
X115940092Y-88617101D01*
X115892473Y-88521863D01*
X115844854Y-88474244D01*
X115749616Y-88426625D01*
X115606759Y-88426625D01*
X115511520Y-88474244D01*
X115463901Y-88521863D01*
X115416282Y-88617101D01*
X115416282Y-88902815D01*
X115463901Y-88998053D01*
X115511520Y-89045672D01*
X115606759Y-89093291D01*
X115749616Y-89093291D01*
X114987711Y-89093291D02*
X114987711Y-88426625D01*
X114987711Y-88521863D02*
X114940092Y-88474244D01*
X114844854Y-88426625D01*
X114701997Y-88426625D01*
X114606759Y-88474244D01*
X114559139Y-88569482D01*
X114559139Y-89093291D01*
X114559139Y-88569482D02*
X114511520Y-88474244D01*
X114416282Y-88426625D01*
X114273425Y-88426625D01*
X114178187Y-88474244D01*
X114130568Y-88569482D01*
X114130568Y-89093291D01*
X112940092Y-88045672D02*
X113797235Y-89331387D01*
X125511520Y-90126625D02*
X125130568Y-90126625D01*
X125368663Y-89793291D02*
X125368663Y-90650434D01*
X125321044Y-90745672D01*
X125225806Y-90793291D01*
X125130568Y-90793291D01*
X124797235Y-90793291D02*
X124797235Y-89793291D01*
X124368663Y-90793291D02*
X124368663Y-90269482D01*
X124416282Y-90174244D01*
X124511520Y-90126625D01*
X124654378Y-90126625D01*
X124749616Y-90174244D01*
X124797235Y-90221863D01*
X123892473Y-90793291D02*
X123892473Y-90126625D01*
X123892473Y-89793291D02*
X123940092Y-89840911D01*
X123892473Y-89888530D01*
X123844854Y-89840911D01*
X123892473Y-89793291D01*
X123892473Y-89888530D01*
X123416282Y-90126625D02*
X123416282Y-90793291D01*
X123416282Y-90221863D02*
X123368663Y-90174244D01*
X123273425Y-90126625D01*
X123130568Y-90126625D01*
X123035330Y-90174244D01*
X122987711Y-90269482D01*
X122987711Y-90793291D01*
X122082949Y-90126625D02*
X122082949Y-90936149D01*
X122130568Y-91031387D01*
X122178187Y-91079006D01*
X122273425Y-91126625D01*
X122416282Y-91126625D01*
X122511520Y-91079006D01*
X122082949Y-90745672D02*
X122178187Y-90793291D01*
X122368663Y-90793291D01*
X122463901Y-90745672D01*
X122511520Y-90698053D01*
X122559139Y-90602815D01*
X122559139Y-90317101D01*
X122511520Y-90221863D01*
X122463901Y-90174244D01*
X122368663Y-90126625D01*
X122178187Y-90126625D01*
X122082949Y-90174244D01*
X121606759Y-90698053D02*
X121559139Y-90745672D01*
X121606759Y-90793291D01*
X121654378Y-90745672D01*
X121606759Y-90698053D01*
X121606759Y-90793291D01*
X121606759Y-90174244D02*
X121559139Y-90221863D01*
X121606759Y-90269482D01*
X121654378Y-90221863D01*
X121606759Y-90174244D01*
X121606759Y-90269482D01*
X121225806Y-89793291D02*
X120606759Y-89793291D01*
X120940092Y-90174244D01*
X120797235Y-90174244D01*
X120701997Y-90221863D01*
X120654378Y-90269482D01*
X120606759Y-90364720D01*
X120606759Y-90602815D01*
X120654378Y-90698053D01*
X120701997Y-90745672D01*
X120797235Y-90793291D01*
X121082949Y-90793291D01*
X121178187Y-90745672D01*
X121225806Y-90698053D01*
X119749616Y-89793291D02*
X119940092Y-89793291D01*
X120035330Y-89840911D01*
X120082949Y-89888530D01*
X120178187Y-90031387D01*
X120225806Y-90221863D01*
X120225806Y-90602815D01*
X120178187Y-90698053D01*
X120130568Y-90745672D01*
X120035330Y-90793291D01*
X119844854Y-90793291D01*
X119749616Y-90745672D01*
X119701997Y-90698053D01*
X119654378Y-90602815D01*
X119654378Y-90364720D01*
X119701997Y-90269482D01*
X119749616Y-90221863D01*
X119844854Y-90174244D01*
X120035330Y-90174244D01*
X120130568Y-90221863D01*
X120178187Y-90269482D01*
X120225806Y-90364720D01*
X118749616Y-89793291D02*
X119225806Y-89793291D01*
X119273425Y-90269482D01*
X119225806Y-90221863D01*
X119130568Y-90174244D01*
X118892473Y-90174244D01*
X118797235Y-90221863D01*
X118749616Y-90269482D01*
X118701997Y-90364720D01*
X118701997Y-90602815D01*
X118749616Y-90698053D01*
X118797235Y-90745672D01*
X118892473Y-90793291D01*
X119130568Y-90793291D01*
X119225806Y-90745672D01*
X119273425Y-90698053D01*
X117797235Y-89793291D02*
X118273425Y-89793291D01*
X118321044Y-90269482D01*
X118273425Y-90221863D01*
X118178187Y-90174244D01*
X117940092Y-90174244D01*
X117844854Y-90221863D01*
X117797235Y-90269482D01*
X117749616Y-90364720D01*
X117749616Y-90602815D01*
X117797235Y-90698053D01*
X117844854Y-90745672D01*
X117940092Y-90793291D01*
X118178187Y-90793291D01*
X118273425Y-90745672D01*
X118321044Y-90698053D01*
X117416282Y-89793291D02*
X116797235Y-89793291D01*
X117130568Y-90174244D01*
X116987711Y-90174244D01*
X116892473Y-90221863D01*
X116844854Y-90269482D01*
X116797235Y-90364720D01*
X116797235Y-90602815D01*
X116844854Y-90698053D01*
X116892473Y-90745672D01*
X116987711Y-90793291D01*
X117273425Y-90793291D01*
X117368663Y-90745672D01*
X117416282Y-90698053D01*
X115892473Y-89793291D02*
X116368663Y-89793291D01*
X116416282Y-90269482D01*
X116368663Y-90221863D01*
X116273425Y-90174244D01*
X116035330Y-90174244D01*
X115940092Y-90221863D01*
X115892473Y-90269482D01*
X115844854Y-90364720D01*
X115844854Y-90602815D01*
X115892473Y-90698053D01*
X115940092Y-90745672D01*
X116035330Y-90793291D01*
X116273425Y-90793291D01*
X116368663Y-90745672D01*
X116416282Y-90698053D01*
X114987711Y-90126625D02*
X114987711Y-90793291D01*
X115225806Y-89745672D02*
X115463901Y-90459958D01*
X114844854Y-90459958D01*
X102984854Y-77888053D02*
X103032473Y-77935672D01*
X103175330Y-77983291D01*
X103270568Y-77983291D01*
X103413425Y-77935672D01*
X103508663Y-77840434D01*
X103556282Y-77745196D01*
X103603901Y-77554720D01*
X103603901Y-77411863D01*
X103556282Y-77221387D01*
X103508663Y-77126149D01*
X103413425Y-77030911D01*
X103270568Y-76983291D01*
X103175330Y-76983291D01*
X103032473Y-77030911D01*
X102984854Y-77078530D01*
X101984854Y-77888053D02*
X102032473Y-77935672D01*
X102175330Y-77983291D01*
X102270568Y-77983291D01*
X102413425Y-77935672D01*
X102508663Y-77840434D01*
X102556282Y-77745196D01*
X102603901Y-77554720D01*
X102603901Y-77411863D01*
X102556282Y-77221387D01*
X102508663Y-77126149D01*
X102413425Y-77030911D01*
X102270568Y-76983291D01*
X102175330Y-76983291D01*
X102032473Y-77030911D01*
X101984854Y-77078530D01*
X100461044Y-77459482D02*
X100318187Y-77507101D01*
X100270568Y-77554720D01*
X100222949Y-77649958D01*
X100222949Y-77792815D01*
X100270568Y-77888053D01*
X100318187Y-77935672D01*
X100413425Y-77983291D01*
X100794378Y-77983291D01*
X100794378Y-76983291D01*
X100461044Y-76983291D01*
X100365806Y-77030911D01*
X100318187Y-77078530D01*
X100270568Y-77173768D01*
X100270568Y-77269006D01*
X100318187Y-77364244D01*
X100365806Y-77411863D01*
X100461044Y-77459482D01*
X100794378Y-77459482D01*
X99603901Y-77507101D02*
X99603901Y-77983291D01*
X99937235Y-76983291D02*
X99603901Y-77507101D01*
X99270568Y-76983291D01*
X98937235Y-77602339D02*
X98175330Y-77602339D01*
X97699139Y-77983291D02*
X97699139Y-76983291D01*
X97127711Y-77983291D01*
X97127711Y-76983291D01*
X96080092Y-77888053D02*
X96127711Y-77935672D01*
X96270568Y-77983291D01*
X96365806Y-77983291D01*
X96508663Y-77935672D01*
X96603901Y-77840434D01*
X96651520Y-77745196D01*
X96699139Y-77554720D01*
X96699139Y-77411863D01*
X96651520Y-77221387D01*
X96603901Y-77126149D01*
X96508663Y-77030911D01*
X96365806Y-76983291D01*
X96270568Y-76983291D01*
X96127711Y-77030911D01*
X96080092Y-77078530D01*
X95651520Y-77602339D02*
X94889616Y-77602339D01*
X94461044Y-77935672D02*
X94318187Y-77983291D01*
X94080092Y-77983291D01*
X93984854Y-77935672D01*
X93937235Y-77888053D01*
X93889616Y-77792815D01*
X93889616Y-77697577D01*
X93937235Y-77602339D01*
X93984854Y-77554720D01*
X94080092Y-77507101D01*
X94270568Y-77459482D01*
X94365806Y-77411863D01*
X94413425Y-77364244D01*
X94461044Y-77269006D01*
X94461044Y-77173768D01*
X94413425Y-77078530D01*
X94365806Y-77030911D01*
X94270568Y-76983291D01*
X94032473Y-76983291D01*
X93889616Y-77030911D01*
X93508663Y-77697577D02*
X93032473Y-77697577D01*
X93603901Y-77983291D02*
X93270568Y-76983291D01*
X92937235Y-77983291D01*
X91413425Y-77316625D02*
X91413425Y-77983291D01*
X91651520Y-76935672D02*
X91889616Y-77649958D01*
X91270568Y-77649958D01*
X90889616Y-77888053D02*
X90841997Y-77935672D01*
X90889616Y-77983291D01*
X90937235Y-77935672D01*
X90889616Y-77888053D01*
X90889616Y-77983291D01*
X90222949Y-76983291D02*
X90127711Y-76983291D01*
X90032473Y-77030911D01*
X89984854Y-77078530D01*
X89937235Y-77173768D01*
X89889616Y-77364244D01*
X89889616Y-77602339D01*
X89937235Y-77792815D01*
X89984854Y-77888053D01*
X90032473Y-77935672D01*
X90127711Y-77983291D01*
X90222949Y-77983291D01*
X90318187Y-77935672D01*
X90365806Y-77888053D01*
X90413425Y-77792815D01*
X90461044Y-77602339D01*
X90461044Y-77364244D01*
X90413425Y-77173768D01*
X90365806Y-77078530D01*
X90318187Y-77030911D01*
X90222949Y-76983291D01*
X101603901Y-78778530D02*
X101556282Y-78730911D01*
X101461044Y-78683291D01*
X101222949Y-78683291D01*
X101127711Y-78730911D01*
X101080092Y-78778530D01*
X101032473Y-78873768D01*
X101032473Y-78969006D01*
X101080092Y-79111863D01*
X101651520Y-79683291D01*
X101032473Y-79683291D01*
X100413425Y-78683291D02*
X100318187Y-78683291D01*
X100222949Y-78730911D01*
X100175330Y-78778530D01*
X100127711Y-78873768D01*
X100080092Y-79064244D01*
X100080092Y-79302339D01*
X100127711Y-79492815D01*
X100175330Y-79588053D01*
X100222949Y-79635672D01*
X100318187Y-79683291D01*
X100413425Y-79683291D01*
X100508663Y-79635672D01*
X100556282Y-79588053D01*
X100603901Y-79492815D01*
X100651520Y-79302339D01*
X100651520Y-79064244D01*
X100603901Y-78873768D01*
X100556282Y-78778530D01*
X100508663Y-78730911D01*
X100413425Y-78683291D01*
X99699139Y-78778530D02*
X99651520Y-78730911D01*
X99556282Y-78683291D01*
X99318187Y-78683291D01*
X99222949Y-78730911D01*
X99175330Y-78778530D01*
X99127711Y-78873768D01*
X99127711Y-78969006D01*
X99175330Y-79111863D01*
X99746759Y-79683291D01*
X99127711Y-79683291D01*
X98508663Y-78683291D02*
X98413425Y-78683291D01*
X98318187Y-78730911D01*
X98270568Y-78778530D01*
X98222949Y-78873768D01*
X98175330Y-79064244D01*
X98175330Y-79302339D01*
X98222949Y-79492815D01*
X98270568Y-79588053D01*
X98318187Y-79635672D01*
X98413425Y-79683291D01*
X98508663Y-79683291D01*
X98603901Y-79635672D01*
X98651520Y-79588053D01*
X98699139Y-79492815D01*
X98746759Y-79302339D01*
X98746759Y-79064244D01*
X98699139Y-78873768D01*
X98651520Y-78778530D01*
X98603901Y-78730911D01*
X98508663Y-78683291D01*
X97746759Y-79302339D02*
X96984854Y-79302339D01*
X96318187Y-78683291D02*
X96222949Y-78683291D01*
X96127711Y-78730911D01*
X96080092Y-78778530D01*
X96032473Y-78873768D01*
X95984854Y-79064244D01*
X95984854Y-79302339D01*
X96032473Y-79492815D01*
X96080092Y-79588053D01*
X96127711Y-79635672D01*
X96222949Y-79683291D01*
X96318187Y-79683291D01*
X96413425Y-79635672D01*
X96461044Y-79588053D01*
X96508663Y-79492815D01*
X96556282Y-79302339D01*
X96556282Y-79064244D01*
X96508663Y-78873768D01*
X96461044Y-78778530D01*
X96413425Y-78730911D01*
X96318187Y-78683291D01*
X95603901Y-78778530D02*
X95556282Y-78730911D01*
X95461044Y-78683291D01*
X95222949Y-78683291D01*
X95127711Y-78730911D01*
X95080092Y-78778530D01*
X95032473Y-78873768D01*
X95032473Y-78969006D01*
X95080092Y-79111863D01*
X95651520Y-79683291D01*
X95032473Y-79683291D01*
X94603901Y-79302339D02*
X93841997Y-79302339D01*
X93413425Y-78778530D02*
X93365806Y-78730911D01*
X93270568Y-78683291D01*
X93032473Y-78683291D01*
X92937235Y-78730911D01*
X92889616Y-78778530D01*
X92841997Y-78873768D01*
X92841997Y-78969006D01*
X92889616Y-79111863D01*
X93461044Y-79683291D01*
X92841997Y-79683291D01*
X91984854Y-79016625D02*
X91984854Y-79683291D01*
X92222949Y-78635672D02*
X92461044Y-79349958D01*
X91841997Y-79349958D01*
X99802380Y-90702380D02*
X100183333Y-90702380D01*
X100183333Y-89702380D01*
X99230952Y-90654761D02*
X99307142Y-90702380D01*
X99459523Y-90702380D01*
X99535714Y-90654761D01*
X99573809Y-90559523D01*
X99573809Y-90178571D01*
X99535714Y-90083333D01*
X99459523Y-90035714D01*
X99307142Y-90035714D01*
X99230952Y-90083333D01*
X99192857Y-90178571D01*
X99192857Y-90273809D01*
X99573809Y-90369047D01*
X98964285Y-90035714D02*
X98659523Y-90035714D01*
X98850000Y-90702380D02*
X98850000Y-89845238D01*
X98811904Y-89750000D01*
X98735714Y-89702380D01*
X98659523Y-89702380D01*
X98507142Y-90035714D02*
X98202380Y-90035714D01*
X98392857Y-89702380D02*
X98392857Y-90559523D01*
X98354761Y-90654761D01*
X98278571Y-90702380D01*
X98202380Y-90702380D01*
X91716666Y-90702380D02*
X91716666Y-89702380D01*
X91526190Y-89702380D01*
X91411904Y-89750000D01*
X91335714Y-89845238D01*
X91297619Y-89940476D01*
X91259523Y-90130952D01*
X91259523Y-90273809D01*
X91297619Y-90464285D01*
X91335714Y-90559523D01*
X91411904Y-90654761D01*
X91526190Y-90702380D01*
X91716666Y-90702380D01*
X90916666Y-90702380D02*
X90916666Y-90035714D01*
X90916666Y-89702380D02*
X90954761Y-89750000D01*
X90916666Y-89797619D01*
X90878571Y-89750000D01*
X90916666Y-89702380D01*
X90916666Y-89797619D01*
X90535714Y-90702380D02*
X90535714Y-90035714D01*
X90535714Y-90130952D02*
X90497619Y-90083333D01*
X90421428Y-90035714D01*
X90307142Y-90035714D01*
X90230952Y-90083333D01*
X90192857Y-90178571D01*
X90192857Y-90702380D01*
X90192857Y-90178571D02*
X90154761Y-90083333D01*
X90078571Y-90035714D01*
X89964285Y-90035714D01*
X89888095Y-90083333D01*
X89850000Y-90178571D01*
X89850000Y-90702380D01*
X89469047Y-90702380D02*
X89469047Y-90035714D01*
X89469047Y-90130952D02*
X89430952Y-90083333D01*
X89354761Y-90035714D01*
X89240476Y-90035714D01*
X89164285Y-90083333D01*
X89126190Y-90178571D01*
X89126190Y-90702380D01*
X89126190Y-90178571D02*
X89088095Y-90083333D01*
X89011904Y-90035714D01*
X88897619Y-90035714D01*
X88821428Y-90083333D01*
X88783333Y-90178571D01*
X88783333Y-90702380D01*
X100892857Y-87202380D02*
X100702380Y-87202380D01*
X100607142Y-87250000D01*
X100511904Y-87345238D01*
X100464285Y-87535714D01*
X100464285Y-87869047D01*
X100511904Y-88059523D01*
X100607142Y-88154761D01*
X100702380Y-88202380D01*
X100892857Y-88202380D01*
X100988095Y-88154761D01*
X101083333Y-88059523D01*
X101130952Y-87869047D01*
X101130952Y-87535714D01*
X101083333Y-87345238D01*
X100988095Y-87250000D01*
X100892857Y-87202380D01*
X100035714Y-87535714D02*
X100035714Y-88202380D01*
X100035714Y-87630952D02*
X99988095Y-87583333D01*
X99892857Y-87535714D01*
X99750000Y-87535714D01*
X99654761Y-87583333D01*
X99607142Y-87678571D01*
X99607142Y-88202380D01*
X98940476Y-87202380D02*
X98750000Y-87202380D01*
X98654761Y-87250000D01*
X98559523Y-87345238D01*
X98511904Y-87535714D01*
X98511904Y-87869047D01*
X98559523Y-88059523D01*
X98654761Y-88154761D01*
X98750000Y-88202380D01*
X98940476Y-88202380D01*
X99035714Y-88154761D01*
X99130952Y-88059523D01*
X99178571Y-87869047D01*
X99178571Y-87535714D01*
X99130952Y-87345238D01*
X99035714Y-87250000D01*
X98940476Y-87202380D01*
X98226190Y-87535714D02*
X97845238Y-87535714D01*
X98083333Y-88202380D02*
X98083333Y-87345238D01*
X98035714Y-87250000D01*
X97940476Y-87202380D01*
X97845238Y-87202380D01*
X97654761Y-87535714D02*
X97273809Y-87535714D01*
X97511904Y-88202380D02*
X97511904Y-87345238D01*
X97464285Y-87250000D01*
X97369047Y-87202380D01*
X97273809Y-87202380D01*
X100746759Y-54880911D02*
X88746759Y-54880911D01*
X88746759Y-57380911D02*
X100746759Y-57380911D01*
X100746759Y-59880911D02*
X100746759Y-52380911D01*
X94750000Y-59880911D02*
X100746759Y-59880911D01*
X88746759Y-52380911D02*
X88746759Y-57380000D01*
X92500000Y-91420000D02*
X92500000Y-86500000D01*
X94746759Y-59880911D02*
X94746759Y-52380911D01*
X100746759Y-52380911D02*
X88746759Y-52380911D01*
X97000000Y-91500000D02*
X97000000Y-84000000D01*
X100750000Y-84000000D02*
X97000000Y-84000000D01*
X88000000Y-89000000D02*
X88000000Y-91500000D01*
X88000000Y-91500000D02*
X101500000Y-91500000D01*
X101500000Y-91500000D02*
X101500000Y-85750000D01*
X101500000Y-86500000D02*
X92500000Y-86500000D01*
X88000000Y-89000000D02*
X101500000Y-89000000D01*
X97000000Y-47500000D02*
X97000000Y-40000000D01*
X100750000Y-40000000D02*
X97000000Y-40000000D01*
X88000000Y-45000000D02*
X88000000Y-47500000D01*
X88000000Y-47500000D02*
X101500000Y-47500000D01*
X101500000Y-47500000D02*
X101500000Y-41750000D01*
X101500000Y-42500000D02*
X92500000Y-42500000D01*
X88000000Y-45000000D02*
X101500000Y-45000000D01*
X100746759Y-10880911D02*
X88746759Y-10880911D01*
X88746759Y-13380911D02*
X100746759Y-13380911D01*
X100746759Y-15880911D02*
X100746759Y-8380911D01*
X94750000Y-15880911D02*
X100746759Y-15880911D01*
X88746759Y-8380911D02*
X88746759Y-13380000D01*
X92500000Y-47420000D02*
X92500000Y-42500000D01*
X94746759Y-15880911D02*
X94746759Y-8380911D01*
X100746759Y-8380911D02*
X88746759Y-8380911D01*
X99859523Y-40750000D02*
X99935714Y-40702380D01*
X100050000Y-40702380D01*
X100164285Y-40750000D01*
X100240476Y-40845238D01*
X100278571Y-40940476D01*
X100316666Y-41130952D01*
X100316666Y-41273809D01*
X100278571Y-41464285D01*
X100240476Y-41559523D01*
X100164285Y-41654761D01*
X100050000Y-41702380D01*
X99973809Y-41702380D01*
X99859523Y-41654761D01*
X99821428Y-41607142D01*
X99821428Y-41273809D01*
X99973809Y-41273809D01*
X99478571Y-41702380D02*
X99478571Y-40702380D01*
X99021428Y-41702380D01*
X99021428Y-40702380D01*
X98640476Y-41702380D02*
X98640476Y-40702380D01*
X98450000Y-40702380D01*
X98335714Y-40750000D01*
X98259523Y-40845238D01*
X98221428Y-40940476D01*
X98183333Y-41130952D01*
X98183333Y-41273809D01*
X98221428Y-41464285D01*
X98259523Y-41559523D01*
X98335714Y-41654761D01*
X98450000Y-41702380D01*
X98640476Y-41702380D01*
X96083333Y-43678571D02*
X95969047Y-43726190D01*
X95930952Y-43773809D01*
X95892857Y-43869047D01*
X95892857Y-44011904D01*
X95930952Y-44107142D01*
X95969047Y-44154761D01*
X96045238Y-44202380D01*
X96350000Y-44202380D01*
X96350000Y-43202380D01*
X96083333Y-43202380D01*
X96007142Y-43250000D01*
X95969047Y-43297619D01*
X95930952Y-43392857D01*
X95930952Y-43488095D01*
X95969047Y-43583333D01*
X96007142Y-43630952D01*
X96083333Y-43678571D01*
X96350000Y-43678571D01*
X95550000Y-44202380D02*
X95550000Y-43535714D01*
X95550000Y-43726190D02*
X95511904Y-43630952D01*
X95473809Y-43583333D01*
X95397619Y-43535714D01*
X95321428Y-43535714D01*
X95054761Y-44202380D02*
X95054761Y-43535714D01*
X95054761Y-43202380D02*
X95092857Y-43250000D01*
X95054761Y-43297619D01*
X95016666Y-43250000D01*
X95054761Y-43202380D01*
X95054761Y-43297619D01*
X94330952Y-43535714D02*
X94330952Y-44345238D01*
X94369047Y-44440476D01*
X94407142Y-44488095D01*
X94483333Y-44535714D01*
X94597619Y-44535714D01*
X94673809Y-44488095D01*
X94330952Y-44154761D02*
X94407142Y-44202380D01*
X94559523Y-44202380D01*
X94635714Y-44154761D01*
X94673809Y-44107142D01*
X94711904Y-44011904D01*
X94711904Y-43726190D01*
X94673809Y-43630952D01*
X94635714Y-43583333D01*
X94559523Y-43535714D01*
X94407142Y-43535714D01*
X94330952Y-43583333D01*
X93950000Y-44202380D02*
X93950000Y-43202380D01*
X93607142Y-44202380D02*
X93607142Y-43678571D01*
X93645238Y-43583333D01*
X93721428Y-43535714D01*
X93835714Y-43535714D01*
X93911904Y-43583333D01*
X93950000Y-43630952D01*
X93340476Y-43535714D02*
X93035714Y-43535714D01*
X93226190Y-43202380D02*
X93226190Y-44059523D01*
X93188095Y-44154761D01*
X93111904Y-44202380D01*
X93035714Y-44202380D01*
X92509523Y-9200000D02*
X92585714Y-9152380D01*
X92700000Y-9152380D01*
X92814285Y-9200000D01*
X92890476Y-9295238D01*
X92928571Y-9390476D01*
X92966666Y-9580952D01*
X92966666Y-9723809D01*
X92928571Y-9914285D01*
X92890476Y-10009523D01*
X92814285Y-10104761D01*
X92700000Y-10152380D01*
X92623809Y-10152380D01*
X92509523Y-10104761D01*
X92471428Y-10057142D01*
X92471428Y-9723809D01*
X92623809Y-9723809D01*
X92128571Y-10152380D02*
X92128571Y-9152380D01*
X91671428Y-10152380D01*
X91671428Y-9152380D01*
X91290476Y-10152380D02*
X91290476Y-9152380D01*
X91100000Y-9152380D01*
X90985714Y-9200000D01*
X90909523Y-9295238D01*
X90871428Y-9390476D01*
X90833333Y-9580952D01*
X90833333Y-9723809D01*
X90871428Y-9914285D01*
X90909523Y-10009523D01*
X90985714Y-10104761D01*
X91100000Y-10152380D01*
X91290476Y-10152380D01*
X99509523Y-10104761D02*
X99395238Y-10152380D01*
X99204761Y-10152380D01*
X99128571Y-10104761D01*
X99090476Y-10057142D01*
X99052380Y-9961904D01*
X99052380Y-9866666D01*
X99090476Y-9771428D01*
X99128571Y-9723809D01*
X99204761Y-9676190D01*
X99357142Y-9628571D01*
X99433333Y-9580952D01*
X99471428Y-9533333D01*
X99509523Y-9438095D01*
X99509523Y-9342857D01*
X99471428Y-9247619D01*
X99433333Y-9200000D01*
X99357142Y-9152380D01*
X99166666Y-9152380D01*
X99052380Y-9200000D01*
X98785714Y-9152380D02*
X98595238Y-10152380D01*
X98442857Y-9438095D01*
X98290476Y-10152380D01*
X98100000Y-9152380D01*
X97338095Y-10057142D02*
X97376190Y-10104761D01*
X97490476Y-10152380D01*
X97566666Y-10152380D01*
X97680952Y-10104761D01*
X97757142Y-10009523D01*
X97795238Y-9914285D01*
X97833333Y-9723809D01*
X97833333Y-9580952D01*
X97795238Y-9390476D01*
X97757142Y-9295238D01*
X97680952Y-9200000D01*
X97566666Y-9152380D01*
X97490476Y-9152380D01*
X97376190Y-9200000D01*
X97338095Y-9247619D01*
X96614285Y-10152380D02*
X96995238Y-10152380D01*
X96995238Y-9152380D01*
X96347619Y-10152380D02*
X96347619Y-9152380D01*
X95890476Y-10152380D02*
X96233333Y-9580952D01*
X95890476Y-9152380D02*
X96347619Y-9723809D01*
X99223809Y-15152380D02*
X99490476Y-14676190D01*
X99680952Y-15152380D02*
X99680952Y-14152380D01*
X99376190Y-14152380D01*
X99300000Y-14200000D01*
X99261904Y-14247619D01*
X99223809Y-14342857D01*
X99223809Y-14485714D01*
X99261904Y-14580952D01*
X99300000Y-14628571D01*
X99376190Y-14676190D01*
X99680952Y-14676190D01*
X98880952Y-14628571D02*
X98614285Y-14628571D01*
X98500000Y-15152380D02*
X98880952Y-15152380D01*
X98880952Y-14152380D01*
X98500000Y-14152380D01*
X98195238Y-15104761D02*
X98080952Y-15152380D01*
X97890476Y-15152380D01*
X97814285Y-15104761D01*
X97776190Y-15057142D01*
X97738095Y-14961904D01*
X97738095Y-14866666D01*
X97776190Y-14771428D01*
X97814285Y-14723809D01*
X97890476Y-14676190D01*
X98042857Y-14628571D01*
X98119047Y-14580952D01*
X98157142Y-14533333D01*
X98195238Y-14438095D01*
X98195238Y-14342857D01*
X98157142Y-14247619D01*
X98119047Y-14200000D01*
X98042857Y-14152380D01*
X97852380Y-14152380D01*
X97738095Y-14200000D01*
X97395238Y-14628571D02*
X97128571Y-14628571D01*
X97014285Y-15152380D02*
X97395238Y-15152380D01*
X97395238Y-14152380D01*
X97014285Y-14152380D01*
X96785714Y-14152380D02*
X96328571Y-14152380D01*
X96557142Y-15152380D02*
X96557142Y-14152380D01*
X96061904Y-14485714D02*
X96061904Y-15152380D01*
X96061904Y-14580952D02*
X96023809Y-14533333D01*
X95947619Y-14485714D01*
X95833333Y-14485714D01*
X95757142Y-14533333D01*
X95719047Y-14628571D01*
X95719047Y-15152380D01*
X99395238Y-12604761D02*
X99280952Y-12652380D01*
X99090476Y-12652380D01*
X99014285Y-12604761D01*
X98976190Y-12557142D01*
X98938095Y-12461904D01*
X98938095Y-12366666D01*
X98976190Y-12271428D01*
X99014285Y-12223809D01*
X99090476Y-12176190D01*
X99242857Y-12128571D01*
X99319047Y-12080952D01*
X99357142Y-12033333D01*
X99395238Y-11938095D01*
X99395238Y-11842857D01*
X99357142Y-11747619D01*
X99319047Y-11700000D01*
X99242857Y-11652380D01*
X99052380Y-11652380D01*
X98938095Y-11700000D01*
X98671428Y-11652380D02*
X98480952Y-12652380D01*
X98328571Y-11938095D01*
X98176190Y-12652380D01*
X97985714Y-11652380D01*
X97680952Y-12652380D02*
X97680952Y-11652380D01*
X97490476Y-11652380D01*
X97376190Y-11700000D01*
X97300000Y-11795238D01*
X97261904Y-11890476D01*
X97223809Y-12080952D01*
X97223809Y-12223809D01*
X97261904Y-12414285D01*
X97300000Y-12509523D01*
X97376190Y-12604761D01*
X97490476Y-12652380D01*
X97680952Y-12652380D01*
X96880952Y-12652380D02*
X96880952Y-11652380D01*
X96347619Y-11652380D02*
X96195238Y-11652380D01*
X96119047Y-11700000D01*
X96042857Y-11795238D01*
X96004761Y-11985714D01*
X96004761Y-12319047D01*
X96042857Y-12509523D01*
X96119047Y-12604761D01*
X96195238Y-12652380D01*
X96347619Y-12652380D01*
X96423809Y-12604761D01*
X96500000Y-12509523D01*
X96538095Y-12319047D01*
X96538095Y-11985714D01*
X96500000Y-11795238D01*
X96423809Y-11700000D01*
X96347619Y-11652380D01*
X92966666Y-11652380D02*
X92700000Y-12652380D01*
X92433333Y-11652380D01*
X91709523Y-12557142D02*
X91747619Y-12604761D01*
X91861904Y-12652380D01*
X91938095Y-12652380D01*
X92052380Y-12604761D01*
X92128571Y-12509523D01*
X92166666Y-12414285D01*
X92204761Y-12223809D01*
X92204761Y-12080952D01*
X92166666Y-11890476D01*
X92128571Y-11795238D01*
X92052380Y-11700000D01*
X91938095Y-11652380D01*
X91861904Y-11652380D01*
X91747619Y-11700000D01*
X91709523Y-11747619D01*
X90909523Y-12557142D02*
X90947619Y-12604761D01*
X91061904Y-12652380D01*
X91138095Y-12652380D01*
X91252380Y-12604761D01*
X91328571Y-12509523D01*
X91366666Y-12414285D01*
X91404761Y-12223809D01*
X91404761Y-12080952D01*
X91366666Y-11890476D01*
X91328571Y-11795238D01*
X91252380Y-11700000D01*
X91138095Y-11652380D01*
X91061904Y-11652380D01*
X90947619Y-11700000D01*
X90909523Y-11747619D01*
D10*
X126168901Y-9990911D02*
X126311759Y-9919482D01*
X126526044Y-9919482D01*
X126740330Y-9990911D01*
X126883187Y-10133768D01*
X126954616Y-10276625D01*
X127026044Y-10562339D01*
X127026044Y-10776625D01*
X126954616Y-11062339D01*
X126883187Y-11205196D01*
X126740330Y-11348053D01*
X126526044Y-11419482D01*
X126383187Y-11419482D01*
X126168901Y-11348053D01*
X126097473Y-11276625D01*
X126097473Y-10776625D01*
X126383187Y-10776625D01*
X124811759Y-11419482D02*
X124811759Y-10633768D01*
X124883187Y-10490911D01*
X125026044Y-10419482D01*
X125311759Y-10419482D01*
X125454616Y-10490911D01*
X124811759Y-11348053D02*
X124954616Y-11419482D01*
X125311759Y-11419482D01*
X125454616Y-11348053D01*
X125526044Y-11205196D01*
X125526044Y-11062339D01*
X125454616Y-10919482D01*
X125311759Y-10848053D01*
X124954616Y-10848053D01*
X124811759Y-10776625D01*
X125168901Y-10062339D02*
X125311759Y-9990911D01*
X125383187Y-9848053D01*
X125311759Y-9705196D01*
X125168901Y-9633768D01*
X125026044Y-9705196D01*
X124954616Y-9848053D01*
X125026044Y-9990911D01*
X125168901Y-10062339D01*
X124097473Y-11419482D02*
X124097473Y-10419482D01*
X124097473Y-10705196D02*
X124026044Y-10562339D01*
X123954616Y-10490911D01*
X123811759Y-10419482D01*
X123668901Y-10419482D01*
X122026044Y-11419482D02*
X122026044Y-10419482D01*
X122026044Y-9919482D02*
X122097473Y-9990911D01*
X122026044Y-10062339D01*
X121954616Y-9990911D01*
X122026044Y-9919482D01*
X122026044Y-10062339D01*
X120240330Y-11348053D02*
X120097473Y-11419482D01*
X119811759Y-11419482D01*
X119668901Y-11348053D01*
X119597473Y-11205196D01*
X119597473Y-11133768D01*
X119668901Y-10990911D01*
X119811759Y-10919482D01*
X120026044Y-10919482D01*
X120168901Y-10848053D01*
X120240330Y-10705196D01*
X120240330Y-10633768D01*
X120168901Y-10490911D01*
X120026044Y-10419482D01*
X119811759Y-10419482D01*
X119668901Y-10490911D01*
X119168901Y-10419482D02*
X118597473Y-10419482D01*
X118954616Y-9919482D02*
X118954616Y-11205196D01*
X118883187Y-11348053D01*
X118740330Y-11419482D01*
X118597473Y-11419482D01*
X118240330Y-10419482D02*
X117883187Y-11419482D01*
X117526044Y-10419482D02*
X117883187Y-11419482D01*
X118026044Y-11776625D01*
X118097473Y-11848053D01*
X118240330Y-11919482D01*
X116954616Y-11419482D02*
X116954616Y-9919482D01*
X116811759Y-10848053D02*
X116383187Y-11419482D01*
X116383187Y-10419482D02*
X116954616Y-10990911D01*
X115740330Y-11419482D02*
X115740330Y-9919482D01*
X115597473Y-10848053D02*
X115168901Y-11419482D01*
X115168901Y-10419482D02*
X115740330Y-10990911D01*
X113954616Y-11348053D02*
X114097473Y-11419482D01*
X114383187Y-11419482D01*
X114526044Y-11348053D01*
X114597473Y-11205196D01*
X114597473Y-10633768D01*
X114526044Y-10490911D01*
X114383187Y-10419482D01*
X114097473Y-10419482D01*
X113954616Y-10490911D01*
X113883187Y-10633768D01*
X113883187Y-10776625D01*
X114597473Y-10919482D01*
X113240330Y-11419482D02*
X113240330Y-10419482D01*
X113240330Y-10705196D02*
X113168901Y-10562339D01*
X113097473Y-10490911D01*
X112954616Y-10419482D01*
X112811759Y-10419482D01*
X126954616Y-13969482D02*
X126954616Y-12469482D01*
X126311759Y-13969482D02*
X126311759Y-13183768D01*
X126383187Y-13040911D01*
X126526044Y-12969482D01*
X126740330Y-12969482D01*
X126883187Y-13040911D01*
X126954616Y-13112339D01*
X125740330Y-12969482D02*
X125383187Y-13969482D01*
X125026044Y-12969482D01*
X124454616Y-13969482D02*
X124454616Y-12969482D01*
X124454616Y-12469482D02*
X124526044Y-12540911D01*
X124454616Y-12612339D01*
X124383187Y-12540911D01*
X124454616Y-12469482D01*
X124454616Y-12612339D01*
X123811759Y-13898053D02*
X123668901Y-13969482D01*
X123383187Y-13969482D01*
X123240330Y-13898053D01*
X123168901Y-13755196D01*
X123168901Y-13683768D01*
X123240330Y-13540911D01*
X123383187Y-13469482D01*
X123597473Y-13469482D01*
X123740330Y-13398053D01*
X123811759Y-13255196D01*
X123811759Y-13183768D01*
X123740330Y-13040911D01*
X123597473Y-12969482D01*
X123383187Y-12969482D01*
X123240330Y-13040911D01*
X121383187Y-13969482D02*
X121383187Y-12469482D01*
X121383187Y-13040911D02*
X121240330Y-12969482D01*
X120954616Y-12969482D01*
X120811759Y-13040911D01*
X120740330Y-13112339D01*
X120668901Y-13255196D01*
X120668901Y-13683768D01*
X120740330Y-13826625D01*
X120811759Y-13898053D01*
X120954616Y-13969482D01*
X121240330Y-13969482D01*
X121383187Y-13898053D01*
X119383187Y-13969482D02*
X119383187Y-13183768D01*
X119454616Y-13040911D01*
X119597473Y-12969482D01*
X119883187Y-12969482D01*
X120026044Y-13040911D01*
X119383187Y-13898053D02*
X119526044Y-13969482D01*
X119883187Y-13969482D01*
X120026044Y-13898053D01*
X120097473Y-13755196D01*
X120097473Y-13612339D01*
X120026044Y-13469482D01*
X119883187Y-13398053D01*
X119526044Y-13398053D01*
X119383187Y-13326625D01*
X118883187Y-12969482D02*
X118311759Y-12969482D01*
X118668901Y-12469482D02*
X118668901Y-13755196D01*
X118597473Y-13898053D01*
X118454616Y-13969482D01*
X118311759Y-13969482D01*
X118026044Y-12969482D02*
X117454616Y-12969482D01*
X117811759Y-12469482D02*
X117811759Y-13755196D01*
X117740330Y-13898053D01*
X117597473Y-13969482D01*
X117454616Y-13969482D01*
X116383187Y-13898053D02*
X116526044Y-13969482D01*
X116811759Y-13969482D01*
X116954616Y-13898053D01*
X117026044Y-13755196D01*
X117026044Y-13183768D01*
X116954616Y-13040911D01*
X116811759Y-12969482D01*
X116526044Y-12969482D01*
X116383187Y-13040911D01*
X116311759Y-13183768D01*
X116311759Y-13326625D01*
X117026044Y-13469482D01*
X115668901Y-13969482D02*
X115668901Y-12969482D01*
X115668901Y-13255196D02*
X115597473Y-13112339D01*
X115526044Y-13040911D01*
X115383187Y-12969482D01*
X115240330Y-12969482D01*
X114740330Y-13969482D02*
X114740330Y-12969482D01*
X114740330Y-12469482D02*
X114811759Y-12540911D01*
X114740330Y-12612339D01*
X114668901Y-12540911D01*
X114740330Y-12469482D01*
X114740330Y-12612339D01*
X113454616Y-13898053D02*
X113597473Y-13969482D01*
X113883187Y-13969482D01*
X114026044Y-13898053D01*
X114097473Y-13755196D01*
X114097473Y-13183768D01*
X114026044Y-13040911D01*
X113883187Y-12969482D01*
X113597473Y-12969482D01*
X113454616Y-13040911D01*
X113383187Y-13183768D01*
X113383187Y-13326625D01*
X114097473Y-13469482D01*
X112954616Y-12969482D02*
X112383187Y-12969482D01*
X112740330Y-12469482D02*
X112740330Y-13755196D01*
X112668901Y-13898053D01*
X112526044Y-13969482D01*
X112383187Y-13969482D01*
X127097473Y-15519482D02*
X126740330Y-16519482D01*
X126383187Y-15519482D01*
X125240330Y-16448053D02*
X125383187Y-16519482D01*
X125668901Y-16519482D01*
X125811759Y-16448053D01*
X125883187Y-16305196D01*
X125883187Y-15733768D01*
X125811759Y-15590911D01*
X125668901Y-15519482D01*
X125383187Y-15519482D01*
X125240330Y-15590911D01*
X125168901Y-15733768D01*
X125168901Y-15876625D01*
X125883187Y-16019482D01*
X124526044Y-15519482D02*
X124526044Y-16519482D01*
X124526044Y-15662339D02*
X124454616Y-15590911D01*
X124311759Y-15519482D01*
X124097473Y-15519482D01*
X123954616Y-15590911D01*
X123883187Y-15733768D01*
X123883187Y-16519482D01*
X122526044Y-16519482D02*
X122526044Y-15019482D01*
X122526044Y-16448053D02*
X122668901Y-16519482D01*
X122954616Y-16519482D01*
X123097473Y-16448053D01*
X123168901Y-16376625D01*
X123240330Y-16233768D01*
X123240330Y-15805196D01*
X123168901Y-15662339D01*
X123097473Y-15590911D01*
X122954616Y-15519482D01*
X122668901Y-15519482D01*
X122526044Y-15590911D01*
X121240330Y-16448053D02*
X121383187Y-16519482D01*
X121668901Y-16519482D01*
X121811759Y-16448053D01*
X121883187Y-16305196D01*
X121883187Y-15733768D01*
X121811759Y-15590911D01*
X121668901Y-15519482D01*
X121383187Y-15519482D01*
X121240330Y-15590911D01*
X121168901Y-15733768D01*
X121168901Y-15876625D01*
X121883187Y-16019482D01*
X120526044Y-16519482D02*
X120526044Y-15519482D01*
X120526044Y-15805196D02*
X120454616Y-15662339D01*
X120383187Y-15590911D01*
X120240330Y-15519482D01*
X120097473Y-15519482D01*
X118668901Y-15519482D02*
X118097473Y-15519482D01*
X118454616Y-16519482D02*
X118454616Y-15233768D01*
X118383187Y-15090911D01*
X118240330Y-15019482D01*
X118097473Y-15019482D01*
X117383187Y-16519482D02*
X117526044Y-16448053D01*
X117597473Y-16376625D01*
X117668901Y-16233768D01*
X117668901Y-15805196D01*
X117597473Y-15662339D01*
X117526044Y-15590911D01*
X117383187Y-15519482D01*
X117168901Y-15519482D01*
X117026044Y-15590911D01*
X116954616Y-15662339D01*
X116883187Y-15805196D01*
X116883187Y-16233768D01*
X116954616Y-16376625D01*
X117026044Y-16448053D01*
X117168901Y-16519482D01*
X117383187Y-16519482D01*
X116240330Y-16519482D02*
X116240330Y-15519482D01*
X116240330Y-15805196D02*
X116168901Y-15662339D01*
X116097473Y-15590911D01*
X115954616Y-15519482D01*
X115811759Y-15519482D01*
X115311759Y-16519482D02*
X115311759Y-15019482D01*
X115168901Y-15948053D02*
X114740330Y-16519482D01*
X114740330Y-15519482D02*
X115311759Y-16090911D01*
X113526044Y-16448053D02*
X113668901Y-16519482D01*
X113954616Y-16519482D01*
X114097473Y-16448053D01*
X114168901Y-16305196D01*
X114168901Y-15733768D01*
X114097473Y-15590911D01*
X113954616Y-15519482D01*
X113668901Y-15519482D01*
X113526044Y-15590911D01*
X113454616Y-15733768D01*
X113454616Y-15876625D01*
X114168901Y-16019482D01*
X112811759Y-16519482D02*
X112811759Y-15519482D01*
X112811759Y-15805196D02*
X112740330Y-15662339D01*
X112668901Y-15590911D01*
X112526044Y-15519482D01*
X112383187Y-15519482D01*
X112097473Y-15519482D02*
X111526044Y-15519482D01*
X111883187Y-15019482D02*
X111883187Y-16305196D01*
X111811759Y-16448053D01*
X111668901Y-16519482D01*
X111526044Y-16519482D01*
X111026044Y-16376625D02*
X110954616Y-16448053D01*
X111026044Y-16519482D01*
X111097473Y-16448053D01*
X111026044Y-16376625D01*
X111026044Y-16519482D01*
X111026044Y-15948053D02*
X111097473Y-15090911D01*
X111026044Y-15019482D01*
X110954616Y-15090911D01*
X111026044Y-15948053D01*
X111026044Y-15019482D01*
D11*
X95645238Y-46702380D02*
X95911904Y-46226190D01*
X96102380Y-46702380D02*
X96102380Y-45702380D01*
X95797619Y-45702380D01*
X95721428Y-45750000D01*
X95683333Y-45797619D01*
X95645238Y-45892857D01*
X95645238Y-46035714D01*
X95683333Y-46130952D01*
X95721428Y-46178571D01*
X95797619Y-46226190D01*
X96102380Y-46226190D01*
X95302380Y-46702380D02*
X95302380Y-46035714D01*
X95302380Y-45702380D02*
X95340476Y-45750000D01*
X95302380Y-45797619D01*
X95264285Y-45750000D01*
X95302380Y-45702380D01*
X95302380Y-45797619D01*
X94578571Y-46035714D02*
X94578571Y-46845238D01*
X94616666Y-46940476D01*
X94654761Y-46988095D01*
X94730952Y-47035714D01*
X94845238Y-47035714D01*
X94921428Y-46988095D01*
X94578571Y-46654761D02*
X94654761Y-46702380D01*
X94807142Y-46702380D01*
X94883333Y-46654761D01*
X94921428Y-46607142D01*
X94959523Y-46511904D01*
X94959523Y-46226190D01*
X94921428Y-46130952D01*
X94883333Y-46083333D01*
X94807142Y-46035714D01*
X94654761Y-46035714D01*
X94578571Y-46083333D01*
X94197619Y-46702380D02*
X94197619Y-45702380D01*
X93854761Y-46702380D02*
X93854761Y-46178571D01*
X93892857Y-46083333D01*
X93969047Y-46035714D01*
X94083333Y-46035714D01*
X94159523Y-46083333D01*
X94197619Y-46130952D01*
X93588095Y-46035714D02*
X93283333Y-46035714D01*
X93473809Y-45702380D02*
X93473809Y-46559523D01*
X93435714Y-46654761D01*
X93359523Y-46702380D01*
X93283333Y-46702380D01*
X100282473Y-21983291D02*
X100282473Y-20983291D01*
X99901520Y-20983291D01*
X99806282Y-21030911D01*
X99758663Y-21078530D01*
X99711044Y-21173768D01*
X99711044Y-21316625D01*
X99758663Y-21411863D01*
X99806282Y-21459482D01*
X99901520Y-21507101D01*
X100282473Y-21507101D01*
X98901520Y-21935672D02*
X98996759Y-21983291D01*
X99187235Y-21983291D01*
X99282473Y-21935672D01*
X99330092Y-21840434D01*
X99330092Y-21459482D01*
X99282473Y-21364244D01*
X99187235Y-21316625D01*
X98996759Y-21316625D01*
X98901520Y-21364244D01*
X98853901Y-21459482D01*
X98853901Y-21554720D01*
X99330092Y-21649958D01*
X98425330Y-21983291D02*
X98425330Y-21316625D01*
X98425330Y-21507101D02*
X98377711Y-21411863D01*
X98330092Y-21364244D01*
X98234854Y-21316625D01*
X98139616Y-21316625D01*
X97044378Y-21983291D02*
X97044378Y-20983291D01*
X96711044Y-21697577D01*
X96377711Y-20983291D01*
X96377711Y-21983291D01*
X95520568Y-21935672D02*
X95615806Y-21983291D01*
X95806282Y-21983291D01*
X95901520Y-21935672D01*
X95949139Y-21840434D01*
X95949139Y-21459482D01*
X95901520Y-21364244D01*
X95806282Y-21316625D01*
X95615806Y-21316625D01*
X95520568Y-21364244D01*
X95472949Y-21459482D01*
X95472949Y-21554720D01*
X95949139Y-21649958D01*
X95044378Y-21316625D02*
X95044378Y-22173768D01*
X95091997Y-22269006D01*
X95187235Y-22316625D01*
X95234854Y-22316625D01*
X95044378Y-20983291D02*
X95091997Y-21030911D01*
X95044378Y-21078530D01*
X94996759Y-21030911D01*
X95044378Y-20983291D01*
X95044378Y-21078530D01*
X94139616Y-21983291D02*
X94139616Y-20983291D01*
X94139616Y-21935672D02*
X94234854Y-21983291D01*
X94425330Y-21983291D01*
X94520568Y-21935672D01*
X94568187Y-21888053D01*
X94615806Y-21792815D01*
X94615806Y-21507101D01*
X94568187Y-21411863D01*
X94520568Y-21364244D01*
X94425330Y-21316625D01*
X94234854Y-21316625D01*
X94139616Y-21364244D01*
X93234854Y-21983291D02*
X93234854Y-21459482D01*
X93282473Y-21364244D01*
X93377711Y-21316625D01*
X93568187Y-21316625D01*
X93663425Y-21364244D01*
X93234854Y-21935672D02*
X93330092Y-21983291D01*
X93568187Y-21983291D01*
X93663425Y-21935672D01*
X93711044Y-21840434D01*
X93711044Y-21745196D01*
X93663425Y-21649958D01*
X93568187Y-21602339D01*
X93330092Y-21602339D01*
X93234854Y-21554720D01*
X92615806Y-21983291D02*
X92711044Y-21935672D01*
X92758663Y-21840434D01*
X92758663Y-20983291D01*
X99853901Y-23683291D02*
X100187235Y-23207101D01*
X100425330Y-23683291D02*
X100425330Y-22683291D01*
X100044378Y-22683291D01*
X99949139Y-22730911D01*
X99901520Y-22778530D01*
X99853901Y-22873768D01*
X99853901Y-23016625D01*
X99901520Y-23111863D01*
X99949139Y-23159482D01*
X100044378Y-23207101D01*
X100425330Y-23207101D01*
X98996759Y-23683291D02*
X98996759Y-23159482D01*
X99044378Y-23064244D01*
X99139616Y-23016625D01*
X99330092Y-23016625D01*
X99425330Y-23064244D01*
X98996759Y-23635672D02*
X99091997Y-23683291D01*
X99330092Y-23683291D01*
X99425330Y-23635672D01*
X99472949Y-23540434D01*
X99472949Y-23445196D01*
X99425330Y-23349958D01*
X99330092Y-23302339D01*
X99091997Y-23302339D01*
X98996759Y-23254720D01*
X98568187Y-23635672D02*
X98472949Y-23683291D01*
X98282473Y-23683291D01*
X98187235Y-23635672D01*
X98139616Y-23540434D01*
X98139616Y-23492815D01*
X98187235Y-23397577D01*
X98282473Y-23349958D01*
X98425330Y-23349958D01*
X98520568Y-23302339D01*
X98568187Y-23207101D01*
X98568187Y-23159482D01*
X98520568Y-23064244D01*
X98425330Y-23016625D01*
X98282473Y-23016625D01*
X98187235Y-23064244D01*
X97711044Y-23683291D02*
X97711044Y-23016625D01*
X97711044Y-23111863D02*
X97663425Y-23064244D01*
X97568187Y-23016625D01*
X97425330Y-23016625D01*
X97330092Y-23064244D01*
X97282473Y-23159482D01*
X97282473Y-23683291D01*
X97282473Y-23159482D02*
X97234854Y-23064244D01*
X97139616Y-23016625D01*
X96996759Y-23016625D01*
X96901520Y-23064244D01*
X96853901Y-23159482D01*
X96853901Y-23683291D01*
X95949139Y-23016625D02*
X95949139Y-23683291D01*
X96377711Y-23016625D02*
X96377711Y-23540434D01*
X96330092Y-23635672D01*
X96234854Y-23683291D01*
X96091997Y-23683291D01*
X95996759Y-23635672D01*
X95949139Y-23588053D01*
X95520568Y-23635672D02*
X95425330Y-23683291D01*
X95234854Y-23683291D01*
X95139616Y-23635672D01*
X95091997Y-23540434D01*
X95091997Y-23492815D01*
X95139616Y-23397577D01*
X95234854Y-23349958D01*
X95377711Y-23349958D01*
X95472949Y-23302339D01*
X95520568Y-23207101D01*
X95520568Y-23159482D01*
X95472949Y-23064244D01*
X95377711Y-23016625D01*
X95234854Y-23016625D01*
X95139616Y-23064244D01*
X94711044Y-23635672D02*
X94615806Y-23683291D01*
X94425330Y-23683291D01*
X94330092Y-23635672D01*
X94282473Y-23540434D01*
X94282473Y-23492815D01*
X94330092Y-23397577D01*
X94425330Y-23349958D01*
X94568187Y-23349958D01*
X94663425Y-23302339D01*
X94711044Y-23207101D01*
X94711044Y-23159482D01*
X94663425Y-23064244D01*
X94568187Y-23016625D01*
X94425330Y-23016625D01*
X94330092Y-23064244D01*
X93472949Y-23635672D02*
X93568187Y-23683291D01*
X93758663Y-23683291D01*
X93853901Y-23635672D01*
X93901520Y-23540434D01*
X93901520Y-23159482D01*
X93853901Y-23064244D01*
X93758663Y-23016625D01*
X93568187Y-23016625D01*
X93472949Y-23064244D01*
X93425330Y-23159482D01*
X93425330Y-23254720D01*
X93901520Y-23349958D01*
X92996759Y-23016625D02*
X92996759Y-23683291D01*
X92996759Y-23111863D02*
X92949139Y-23064244D01*
X92853901Y-23016625D01*
X92711044Y-23016625D01*
X92615806Y-23064244D01*
X92568187Y-23159482D01*
X92568187Y-23683291D01*
X125511520Y-44426625D02*
X125130568Y-44426625D01*
X125368663Y-44093291D02*
X125368663Y-44950434D01*
X125321044Y-45045672D01*
X125225806Y-45093291D01*
X125130568Y-45093291D01*
X124797235Y-45093291D02*
X124797235Y-44093291D01*
X124368663Y-45093291D02*
X124368663Y-44569482D01*
X124416282Y-44474244D01*
X124511520Y-44426625D01*
X124654378Y-44426625D01*
X124749616Y-44474244D01*
X124797235Y-44521863D01*
X123892473Y-45093291D02*
X123892473Y-44426625D01*
X123892473Y-44093291D02*
X123940092Y-44140911D01*
X123892473Y-44188530D01*
X123844854Y-44140911D01*
X123892473Y-44093291D01*
X123892473Y-44188530D01*
X123416282Y-44426625D02*
X123416282Y-45093291D01*
X123416282Y-44521863D02*
X123368663Y-44474244D01*
X123273425Y-44426625D01*
X123130568Y-44426625D01*
X123035330Y-44474244D01*
X122987711Y-44569482D01*
X122987711Y-45093291D01*
X122082949Y-44426625D02*
X122082949Y-45236149D01*
X122130568Y-45331387D01*
X122178187Y-45379006D01*
X122273425Y-45426625D01*
X122416282Y-45426625D01*
X122511520Y-45379006D01*
X122082949Y-45045672D02*
X122178187Y-45093291D01*
X122368663Y-45093291D01*
X122463901Y-45045672D01*
X122511520Y-44998053D01*
X122559139Y-44902815D01*
X122559139Y-44617101D01*
X122511520Y-44521863D01*
X122463901Y-44474244D01*
X122368663Y-44426625D01*
X122178187Y-44426625D01*
X122082949Y-44474244D01*
X121606759Y-45093291D02*
X121606759Y-44426625D01*
X121606759Y-44093291D02*
X121654378Y-44140911D01*
X121606759Y-44188530D01*
X121559139Y-44140911D01*
X121606759Y-44093291D01*
X121606759Y-44188530D01*
X121225806Y-44426625D02*
X120987711Y-45093291D01*
X120749616Y-44426625D01*
X119987711Y-45045672D02*
X120082949Y-45093291D01*
X120273425Y-45093291D01*
X120368663Y-45045672D01*
X120416282Y-44950434D01*
X120416282Y-44569482D01*
X120368663Y-44474244D01*
X120273425Y-44426625D01*
X120082949Y-44426625D01*
X119987711Y-44474244D01*
X119940092Y-44569482D01*
X119940092Y-44664720D01*
X120416282Y-44759958D01*
X119511520Y-45093291D02*
X119511520Y-44426625D01*
X119511520Y-44617101D02*
X119463901Y-44521863D01*
X119416282Y-44474244D01*
X119321044Y-44426625D01*
X119225806Y-44426625D01*
X118940092Y-45045672D02*
X118844854Y-45093291D01*
X118654378Y-45093291D01*
X118559139Y-45045672D01*
X118511520Y-44950434D01*
X118511520Y-44902815D01*
X118559139Y-44807577D01*
X118654378Y-44759958D01*
X118797235Y-44759958D01*
X118892473Y-44712339D01*
X118940092Y-44617101D01*
X118940092Y-44569482D01*
X118892473Y-44474244D01*
X118797235Y-44426625D01*
X118654378Y-44426625D01*
X118559139Y-44474244D01*
X117701997Y-45045672D02*
X117797235Y-45093291D01*
X117987711Y-45093291D01*
X118082949Y-45045672D01*
X118130568Y-44950434D01*
X118130568Y-44569482D01*
X118082949Y-44474244D01*
X117987711Y-44426625D01*
X117797235Y-44426625D01*
X117701997Y-44474244D01*
X117654378Y-44569482D01*
X117654378Y-44664720D01*
X118130568Y-44759958D01*
X117225806Y-44998053D02*
X117178187Y-45045672D01*
X117225806Y-45093291D01*
X117273425Y-45045672D01*
X117225806Y-44998053D01*
X117225806Y-45093291D01*
X116321044Y-45045672D02*
X116416282Y-45093291D01*
X116606759Y-45093291D01*
X116701997Y-45045672D01*
X116749616Y-44998053D01*
X116797235Y-44902815D01*
X116797235Y-44617101D01*
X116749616Y-44521863D01*
X116701997Y-44474244D01*
X116606759Y-44426625D01*
X116416282Y-44426625D01*
X116321044Y-44474244D01*
X115749616Y-45093291D02*
X115844854Y-45045672D01*
X115892473Y-44998053D01*
X115940092Y-44902815D01*
X115940092Y-44617101D01*
X115892473Y-44521863D01*
X115844854Y-44474244D01*
X115749616Y-44426625D01*
X115606759Y-44426625D01*
X115511520Y-44474244D01*
X115463901Y-44521863D01*
X115416282Y-44617101D01*
X115416282Y-44902815D01*
X115463901Y-44998053D01*
X115511520Y-45045672D01*
X115606759Y-45093291D01*
X115749616Y-45093291D01*
X114987711Y-45093291D02*
X114987711Y-44426625D01*
X114987711Y-44521863D02*
X114940092Y-44474244D01*
X114844854Y-44426625D01*
X114701997Y-44426625D01*
X114606759Y-44474244D01*
X114559139Y-44569482D01*
X114559139Y-45093291D01*
X114559139Y-44569482D02*
X114511520Y-44474244D01*
X114416282Y-44426625D01*
X114273425Y-44426625D01*
X114178187Y-44474244D01*
X114130568Y-44569482D01*
X114130568Y-45093291D01*
X112940092Y-44045672D02*
X113797235Y-45331387D01*
X125511520Y-46126625D02*
X125130568Y-46126625D01*
X125368663Y-45793291D02*
X125368663Y-46650434D01*
X125321044Y-46745672D01*
X125225806Y-46793291D01*
X125130568Y-46793291D01*
X124797235Y-46793291D02*
X124797235Y-45793291D01*
X124368663Y-46793291D02*
X124368663Y-46269482D01*
X124416282Y-46174244D01*
X124511520Y-46126625D01*
X124654378Y-46126625D01*
X124749616Y-46174244D01*
X124797235Y-46221863D01*
X123892473Y-46793291D02*
X123892473Y-46126625D01*
X123892473Y-45793291D02*
X123940092Y-45840911D01*
X123892473Y-45888530D01*
X123844854Y-45840911D01*
X123892473Y-45793291D01*
X123892473Y-45888530D01*
X123416282Y-46126625D02*
X123416282Y-46793291D01*
X123416282Y-46221863D02*
X123368663Y-46174244D01*
X123273425Y-46126625D01*
X123130568Y-46126625D01*
X123035330Y-46174244D01*
X122987711Y-46269482D01*
X122987711Y-46793291D01*
X122082949Y-46126625D02*
X122082949Y-46936149D01*
X122130568Y-47031387D01*
X122178187Y-47079006D01*
X122273425Y-47126625D01*
X122416282Y-47126625D01*
X122511520Y-47079006D01*
X122082949Y-46745672D02*
X122178187Y-46793291D01*
X122368663Y-46793291D01*
X122463901Y-46745672D01*
X122511520Y-46698053D01*
X122559139Y-46602815D01*
X122559139Y-46317101D01*
X122511520Y-46221863D01*
X122463901Y-46174244D01*
X122368663Y-46126625D01*
X122178187Y-46126625D01*
X122082949Y-46174244D01*
X121606759Y-46698053D02*
X121559139Y-46745672D01*
X121606759Y-46793291D01*
X121654378Y-46745672D01*
X121606759Y-46698053D01*
X121606759Y-46793291D01*
X121606759Y-46174244D02*
X121559139Y-46221863D01*
X121606759Y-46269482D01*
X121654378Y-46221863D01*
X121606759Y-46174244D01*
X121606759Y-46269482D01*
X121225806Y-45793291D02*
X120606759Y-45793291D01*
X120940092Y-46174244D01*
X120797235Y-46174244D01*
X120701997Y-46221863D01*
X120654378Y-46269482D01*
X120606759Y-46364720D01*
X120606759Y-46602815D01*
X120654378Y-46698053D01*
X120701997Y-46745672D01*
X120797235Y-46793291D01*
X121082949Y-46793291D01*
X121178187Y-46745672D01*
X121225806Y-46698053D01*
X119749616Y-45793291D02*
X119940092Y-45793291D01*
X120035330Y-45840911D01*
X120082949Y-45888530D01*
X120178187Y-46031387D01*
X120225806Y-46221863D01*
X120225806Y-46602815D01*
X120178187Y-46698053D01*
X120130568Y-46745672D01*
X120035330Y-46793291D01*
X119844854Y-46793291D01*
X119749616Y-46745672D01*
X119701997Y-46698053D01*
X119654378Y-46602815D01*
X119654378Y-46364720D01*
X119701997Y-46269482D01*
X119749616Y-46221863D01*
X119844854Y-46174244D01*
X120035330Y-46174244D01*
X120130568Y-46221863D01*
X120178187Y-46269482D01*
X120225806Y-46364720D01*
X118749616Y-45793291D02*
X119225806Y-45793291D01*
X119273425Y-46269482D01*
X119225806Y-46221863D01*
X119130568Y-46174244D01*
X118892473Y-46174244D01*
X118797235Y-46221863D01*
X118749616Y-46269482D01*
X118701997Y-46364720D01*
X118701997Y-46602815D01*
X118749616Y-46698053D01*
X118797235Y-46745672D01*
X118892473Y-46793291D01*
X119130568Y-46793291D01*
X119225806Y-46745672D01*
X119273425Y-46698053D01*
X117797235Y-45793291D02*
X118273425Y-45793291D01*
X118321044Y-46269482D01*
X118273425Y-46221863D01*
X118178187Y-46174244D01*
X117940092Y-46174244D01*
X117844854Y-46221863D01*
X117797235Y-46269482D01*
X117749616Y-46364720D01*
X117749616Y-46602815D01*
X117797235Y-46698053D01*
X117844854Y-46745672D01*
X117940092Y-46793291D01*
X118178187Y-46793291D01*
X118273425Y-46745672D01*
X118321044Y-46698053D01*
X117416282Y-45793291D02*
X116797235Y-45793291D01*
X117130568Y-46174244D01*
X116987711Y-46174244D01*
X116892473Y-46221863D01*
X116844854Y-46269482D01*
X116797235Y-46364720D01*
X116797235Y-46602815D01*
X116844854Y-46698053D01*
X116892473Y-46745672D01*
X116987711Y-46793291D01*
X117273425Y-46793291D01*
X117368663Y-46745672D01*
X117416282Y-46698053D01*
X115892473Y-45793291D02*
X116368663Y-45793291D01*
X116416282Y-46269482D01*
X116368663Y-46221863D01*
X116273425Y-46174244D01*
X116035330Y-46174244D01*
X115940092Y-46221863D01*
X115892473Y-46269482D01*
X115844854Y-46364720D01*
X115844854Y-46602815D01*
X115892473Y-46698053D01*
X115940092Y-46745672D01*
X116035330Y-46793291D01*
X116273425Y-46793291D01*
X116368663Y-46745672D01*
X116416282Y-46698053D01*
X114987711Y-46126625D02*
X114987711Y-46793291D01*
X115225806Y-45745672D02*
X115463901Y-46459958D01*
X114844854Y-46459958D01*
X102984854Y-33888053D02*
X103032473Y-33935672D01*
X103175330Y-33983291D01*
X103270568Y-33983291D01*
X103413425Y-33935672D01*
X103508663Y-33840434D01*
X103556282Y-33745196D01*
X103603901Y-33554720D01*
X103603901Y-33411863D01*
X103556282Y-33221387D01*
X103508663Y-33126149D01*
X103413425Y-33030911D01*
X103270568Y-32983291D01*
X103175330Y-32983291D01*
X103032473Y-33030911D01*
X102984854Y-33078530D01*
X101984854Y-33888053D02*
X102032473Y-33935672D01*
X102175330Y-33983291D01*
X102270568Y-33983291D01*
X102413425Y-33935672D01*
X102508663Y-33840434D01*
X102556282Y-33745196D01*
X102603901Y-33554720D01*
X102603901Y-33411863D01*
X102556282Y-33221387D01*
X102508663Y-33126149D01*
X102413425Y-33030911D01*
X102270568Y-32983291D01*
X102175330Y-32983291D01*
X102032473Y-33030911D01*
X101984854Y-33078530D01*
X100461044Y-33459482D02*
X100318187Y-33507101D01*
X100270568Y-33554720D01*
X100222949Y-33649958D01*
X100222949Y-33792815D01*
X100270568Y-33888053D01*
X100318187Y-33935672D01*
X100413425Y-33983291D01*
X100794378Y-33983291D01*
X100794378Y-32983291D01*
X100461044Y-32983291D01*
X100365806Y-33030911D01*
X100318187Y-33078530D01*
X100270568Y-33173768D01*
X100270568Y-33269006D01*
X100318187Y-33364244D01*
X100365806Y-33411863D01*
X100461044Y-33459482D01*
X100794378Y-33459482D01*
X99603901Y-33507101D02*
X99603901Y-33983291D01*
X99937235Y-32983291D02*
X99603901Y-33507101D01*
X99270568Y-32983291D01*
X98937235Y-33602339D02*
X98175330Y-33602339D01*
X97699139Y-33983291D02*
X97699139Y-32983291D01*
X97127711Y-33983291D01*
X97127711Y-32983291D01*
X96080092Y-33888053D02*
X96127711Y-33935672D01*
X96270568Y-33983291D01*
X96365806Y-33983291D01*
X96508663Y-33935672D01*
X96603901Y-33840434D01*
X96651520Y-33745196D01*
X96699139Y-33554720D01*
X96699139Y-33411863D01*
X96651520Y-33221387D01*
X96603901Y-33126149D01*
X96508663Y-33030911D01*
X96365806Y-32983291D01*
X96270568Y-32983291D01*
X96127711Y-33030911D01*
X96080092Y-33078530D01*
X95651520Y-33602339D02*
X94889616Y-33602339D01*
X94461044Y-33935672D02*
X94318187Y-33983291D01*
X94080092Y-33983291D01*
X93984854Y-33935672D01*
X93937235Y-33888053D01*
X93889616Y-33792815D01*
X93889616Y-33697577D01*
X93937235Y-33602339D01*
X93984854Y-33554720D01*
X94080092Y-33507101D01*
X94270568Y-33459482D01*
X94365806Y-33411863D01*
X94413425Y-33364244D01*
X94461044Y-33269006D01*
X94461044Y-33173768D01*
X94413425Y-33078530D01*
X94365806Y-33030911D01*
X94270568Y-32983291D01*
X94032473Y-32983291D01*
X93889616Y-33030911D01*
X93508663Y-33697577D02*
X93032473Y-33697577D01*
X93603901Y-33983291D02*
X93270568Y-32983291D01*
X92937235Y-33983291D01*
X91413425Y-33316625D02*
X91413425Y-33983291D01*
X91651520Y-32935672D02*
X91889616Y-33649958D01*
X91270568Y-33649958D01*
X90889616Y-33888053D02*
X90841997Y-33935672D01*
X90889616Y-33983291D01*
X90937235Y-33935672D01*
X90889616Y-33888053D01*
X90889616Y-33983291D01*
X90222949Y-32983291D02*
X90127711Y-32983291D01*
X90032473Y-33030911D01*
X89984854Y-33078530D01*
X89937235Y-33173768D01*
X89889616Y-33364244D01*
X89889616Y-33602339D01*
X89937235Y-33792815D01*
X89984854Y-33888053D01*
X90032473Y-33935672D01*
X90127711Y-33983291D01*
X90222949Y-33983291D01*
X90318187Y-33935672D01*
X90365806Y-33888053D01*
X90413425Y-33792815D01*
X90461044Y-33602339D01*
X90461044Y-33364244D01*
X90413425Y-33173768D01*
X90365806Y-33078530D01*
X90318187Y-33030911D01*
X90222949Y-32983291D01*
X101603901Y-34778530D02*
X101556282Y-34730911D01*
X101461044Y-34683291D01*
X101222949Y-34683291D01*
X101127711Y-34730911D01*
X101080092Y-34778530D01*
X101032473Y-34873768D01*
X101032473Y-34969006D01*
X101080092Y-35111863D01*
X101651520Y-35683291D01*
X101032473Y-35683291D01*
X100413425Y-34683291D02*
X100318187Y-34683291D01*
X100222949Y-34730911D01*
X100175330Y-34778530D01*
X100127711Y-34873768D01*
X100080092Y-35064244D01*
X100080092Y-35302339D01*
X100127711Y-35492815D01*
X100175330Y-35588053D01*
X100222949Y-35635672D01*
X100318187Y-35683291D01*
X100413425Y-35683291D01*
X100508663Y-35635672D01*
X100556282Y-35588053D01*
X100603901Y-35492815D01*
X100651520Y-35302339D01*
X100651520Y-35064244D01*
X100603901Y-34873768D01*
X100556282Y-34778530D01*
X100508663Y-34730911D01*
X100413425Y-34683291D01*
X99699139Y-34778530D02*
X99651520Y-34730911D01*
X99556282Y-34683291D01*
X99318187Y-34683291D01*
X99222949Y-34730911D01*
X99175330Y-34778530D01*
X99127711Y-34873768D01*
X99127711Y-34969006D01*
X99175330Y-35111863D01*
X99746759Y-35683291D01*
X99127711Y-35683291D01*
X98508663Y-34683291D02*
X98413425Y-34683291D01*
X98318187Y-34730911D01*
X98270568Y-34778530D01*
X98222949Y-34873768D01*
X98175330Y-35064244D01*
X98175330Y-35302339D01*
X98222949Y-35492815D01*
X98270568Y-35588053D01*
X98318187Y-35635672D01*
X98413425Y-35683291D01*
X98508663Y-35683291D01*
X98603901Y-35635672D01*
X98651520Y-35588053D01*
X98699139Y-35492815D01*
X98746759Y-35302339D01*
X98746759Y-35064244D01*
X98699139Y-34873768D01*
X98651520Y-34778530D01*
X98603901Y-34730911D01*
X98508663Y-34683291D01*
X97746759Y-35302339D02*
X96984854Y-35302339D01*
X96318187Y-34683291D02*
X96222949Y-34683291D01*
X96127711Y-34730911D01*
X96080092Y-34778530D01*
X96032473Y-34873768D01*
X95984854Y-35064244D01*
X95984854Y-35302339D01*
X96032473Y-35492815D01*
X96080092Y-35588053D01*
X96127711Y-35635672D01*
X96222949Y-35683291D01*
X96318187Y-35683291D01*
X96413425Y-35635672D01*
X96461044Y-35588053D01*
X96508663Y-35492815D01*
X96556282Y-35302339D01*
X96556282Y-35064244D01*
X96508663Y-34873768D01*
X96461044Y-34778530D01*
X96413425Y-34730911D01*
X96318187Y-34683291D01*
X95603901Y-34778530D02*
X95556282Y-34730911D01*
X95461044Y-34683291D01*
X95222949Y-34683291D01*
X95127711Y-34730911D01*
X95080092Y-34778530D01*
X95032473Y-34873768D01*
X95032473Y-34969006D01*
X95080092Y-35111863D01*
X95651520Y-35683291D01*
X95032473Y-35683291D01*
X94603901Y-35302339D02*
X93841997Y-35302339D01*
X93413425Y-34778530D02*
X93365806Y-34730911D01*
X93270568Y-34683291D01*
X93032473Y-34683291D01*
X92937235Y-34730911D01*
X92889616Y-34778530D01*
X92841997Y-34873768D01*
X92841997Y-34969006D01*
X92889616Y-35111863D01*
X93461044Y-35683291D01*
X92841997Y-35683291D01*
X91984854Y-35016625D02*
X91984854Y-35683291D01*
X92222949Y-34635672D02*
X92461044Y-35349958D01*
X91841997Y-35349958D01*
X99802380Y-46702380D02*
X100183333Y-46702380D01*
X100183333Y-45702380D01*
X99230952Y-46654761D02*
X99307142Y-46702380D01*
X99459523Y-46702380D01*
X99535714Y-46654761D01*
X99573809Y-46559523D01*
X99573809Y-46178571D01*
X99535714Y-46083333D01*
X99459523Y-46035714D01*
X99307142Y-46035714D01*
X99230952Y-46083333D01*
X99192857Y-46178571D01*
X99192857Y-46273809D01*
X99573809Y-46369047D01*
X98964285Y-46035714D02*
X98659523Y-46035714D01*
X98850000Y-46702380D02*
X98850000Y-45845238D01*
X98811904Y-45750000D01*
X98735714Y-45702380D01*
X98659523Y-45702380D01*
X98507142Y-46035714D02*
X98202380Y-46035714D01*
X98392857Y-45702380D02*
X98392857Y-46559523D01*
X98354761Y-46654761D01*
X98278571Y-46702380D01*
X98202380Y-46702380D01*
X100892857Y-43202380D02*
X100702380Y-43202380D01*
X100607142Y-43250000D01*
X100511904Y-43345238D01*
X100464285Y-43535714D01*
X100464285Y-43869047D01*
X100511904Y-44059523D01*
X100607142Y-44154761D01*
X100702380Y-44202380D01*
X100892857Y-44202380D01*
X100988095Y-44154761D01*
X101083333Y-44059523D01*
X101130952Y-43869047D01*
X101130952Y-43535714D01*
X101083333Y-43345238D01*
X100988095Y-43250000D01*
X100892857Y-43202380D01*
X100035714Y-43535714D02*
X100035714Y-44202380D01*
X100035714Y-43630952D02*
X99988095Y-43583333D01*
X99892857Y-43535714D01*
X99750000Y-43535714D01*
X99654761Y-43583333D01*
X99607142Y-43678571D01*
X99607142Y-44202380D01*
X98940476Y-43202380D02*
X98750000Y-43202380D01*
X98654761Y-43250000D01*
X98559523Y-43345238D01*
X98511904Y-43535714D01*
X98511904Y-43869047D01*
X98559523Y-44059523D01*
X98654761Y-44154761D01*
X98750000Y-44202380D01*
X98940476Y-44202380D01*
X99035714Y-44154761D01*
X99130952Y-44059523D01*
X99178571Y-43869047D01*
X99178571Y-43535714D01*
X99130952Y-43345238D01*
X99035714Y-43250000D01*
X98940476Y-43202380D01*
X98226190Y-43535714D02*
X97845238Y-43535714D01*
X98083333Y-44202380D02*
X98083333Y-43345238D01*
X98035714Y-43250000D01*
X97940476Y-43202380D01*
X97845238Y-43202380D01*
X97654761Y-43535714D02*
X97273809Y-43535714D01*
X97511904Y-44202380D02*
X97511904Y-43345238D01*
X97464285Y-43250000D01*
X97369047Y-43202380D01*
X97273809Y-43202380D01*
X91716666Y-46702380D02*
X91716666Y-45702380D01*
X91526190Y-45702380D01*
X91411904Y-45750000D01*
X91335714Y-45845238D01*
X91297619Y-45940476D01*
X91259523Y-46130952D01*
X91259523Y-46273809D01*
X91297619Y-46464285D01*
X91335714Y-46559523D01*
X91411904Y-46654761D01*
X91526190Y-46702380D01*
X91716666Y-46702380D01*
X90916666Y-46702380D02*
X90916666Y-46035714D01*
X90916666Y-45702380D02*
X90954761Y-45750000D01*
X90916666Y-45797619D01*
X90878571Y-45750000D01*
X90916666Y-45702380D01*
X90916666Y-45797619D01*
X90535714Y-46702380D02*
X90535714Y-46035714D01*
X90535714Y-46130952D02*
X90497619Y-46083333D01*
X90421428Y-46035714D01*
X90307142Y-46035714D01*
X90230952Y-46083333D01*
X90192857Y-46178571D01*
X90192857Y-46702380D01*
X90192857Y-46178571D02*
X90154761Y-46083333D01*
X90078571Y-46035714D01*
X89964285Y-46035714D01*
X89888095Y-46083333D01*
X89850000Y-46178571D01*
X89850000Y-46702380D01*
X89469047Y-46702380D02*
X89469047Y-46035714D01*
X89469047Y-46130952D02*
X89430952Y-46083333D01*
X89354761Y-46035714D01*
X89240476Y-46035714D01*
X89164285Y-46083333D01*
X89126190Y-46178571D01*
X89126190Y-46702380D01*
X89126190Y-46178571D02*
X89088095Y-46083333D01*
X89011904Y-46035714D01*
X88897619Y-46035714D01*
X88821428Y-46083333D01*
X88783333Y-46178571D01*
X88783333Y-46702380D01*
X48216666Y-46702380D02*
X48216666Y-45702380D01*
X48026190Y-45702380D01*
X47911904Y-45750000D01*
X47835714Y-45845238D01*
X47797619Y-45940476D01*
X47759523Y-46130952D01*
X47759523Y-46273809D01*
X47797619Y-46464285D01*
X47835714Y-46559523D01*
X47911904Y-46654761D01*
X48026190Y-46702380D01*
X48216666Y-46702380D01*
X47416666Y-46702380D02*
X47416666Y-46035714D01*
X47416666Y-45702380D02*
X47454761Y-45750000D01*
X47416666Y-45797619D01*
X47378571Y-45750000D01*
X47416666Y-45702380D01*
X47416666Y-45797619D01*
X47035714Y-46702380D02*
X47035714Y-46035714D01*
X47035714Y-46130952D02*
X46997619Y-46083333D01*
X46921428Y-46035714D01*
X46807142Y-46035714D01*
X46730952Y-46083333D01*
X46692857Y-46178571D01*
X46692857Y-46702380D01*
X46692857Y-46178571D02*
X46654761Y-46083333D01*
X46578571Y-46035714D01*
X46464285Y-46035714D01*
X46388095Y-46083333D01*
X46350000Y-46178571D01*
X46350000Y-46702380D01*
X45969047Y-46702380D02*
X45969047Y-46035714D01*
X45969047Y-46130952D02*
X45930952Y-46083333D01*
X45854761Y-46035714D01*
X45740476Y-46035714D01*
X45664285Y-46083333D01*
X45626190Y-46178571D01*
X45626190Y-46702380D01*
X45626190Y-46178571D02*
X45588095Y-46083333D01*
X45511904Y-46035714D01*
X45397619Y-46035714D01*
X45321428Y-46083333D01*
X45283333Y-46178571D01*
X45283333Y-46702380D01*
X57392857Y-43202380D02*
X57202380Y-43202380D01*
X57107142Y-43250000D01*
X57011904Y-43345238D01*
X56964285Y-43535714D01*
X56964285Y-43869047D01*
X57011904Y-44059523D01*
X57107142Y-44154761D01*
X57202380Y-44202380D01*
X57392857Y-44202380D01*
X57488095Y-44154761D01*
X57583333Y-44059523D01*
X57630952Y-43869047D01*
X57630952Y-43535714D01*
X57583333Y-43345238D01*
X57488095Y-43250000D01*
X57392857Y-43202380D01*
X56535714Y-43535714D02*
X56535714Y-44202380D01*
X56535714Y-43630952D02*
X56488095Y-43583333D01*
X56392857Y-43535714D01*
X56250000Y-43535714D01*
X56154761Y-43583333D01*
X56107142Y-43678571D01*
X56107142Y-44202380D01*
X55440476Y-43202380D02*
X55250000Y-43202380D01*
X55154761Y-43250000D01*
X55059523Y-43345238D01*
X55011904Y-43535714D01*
X55011904Y-43869047D01*
X55059523Y-44059523D01*
X55154761Y-44154761D01*
X55250000Y-44202380D01*
X55440476Y-44202380D01*
X55535714Y-44154761D01*
X55630952Y-44059523D01*
X55678571Y-43869047D01*
X55678571Y-43535714D01*
X55630952Y-43345238D01*
X55535714Y-43250000D01*
X55440476Y-43202380D01*
X54726190Y-43535714D02*
X54345238Y-43535714D01*
X54583333Y-44202380D02*
X54583333Y-43345238D01*
X54535714Y-43250000D01*
X54440476Y-43202380D01*
X54345238Y-43202380D01*
X54154761Y-43535714D02*
X53773809Y-43535714D01*
X54011904Y-44202380D02*
X54011904Y-43345238D01*
X53964285Y-43250000D01*
X53869047Y-43202380D01*
X53773809Y-43202380D01*
X56302380Y-46702380D02*
X56683333Y-46702380D01*
X56683333Y-45702380D01*
X55730952Y-46654761D02*
X55807142Y-46702380D01*
X55959523Y-46702380D01*
X56035714Y-46654761D01*
X56073809Y-46559523D01*
X56073809Y-46178571D01*
X56035714Y-46083333D01*
X55959523Y-46035714D01*
X55807142Y-46035714D01*
X55730952Y-46083333D01*
X55692857Y-46178571D01*
X55692857Y-46273809D01*
X56073809Y-46369047D01*
X55464285Y-46035714D02*
X55159523Y-46035714D01*
X55350000Y-46702380D02*
X55350000Y-45845238D01*
X55311904Y-45750000D01*
X55235714Y-45702380D01*
X55159523Y-45702380D01*
X55007142Y-46035714D02*
X54702380Y-46035714D01*
X54892857Y-45702380D02*
X54892857Y-46559523D01*
X54854761Y-46654761D01*
X54778571Y-46702380D01*
X54702380Y-46702380D01*
X59484854Y-33888053D02*
X59532473Y-33935672D01*
X59675330Y-33983291D01*
X59770568Y-33983291D01*
X59913425Y-33935672D01*
X60008663Y-33840434D01*
X60056282Y-33745196D01*
X60103901Y-33554720D01*
X60103901Y-33411863D01*
X60056282Y-33221387D01*
X60008663Y-33126149D01*
X59913425Y-33030911D01*
X59770568Y-32983291D01*
X59675330Y-32983291D01*
X59532473Y-33030911D01*
X59484854Y-33078530D01*
X58484854Y-33888053D02*
X58532473Y-33935672D01*
X58675330Y-33983291D01*
X58770568Y-33983291D01*
X58913425Y-33935672D01*
X59008663Y-33840434D01*
X59056282Y-33745196D01*
X59103901Y-33554720D01*
X59103901Y-33411863D01*
X59056282Y-33221387D01*
X59008663Y-33126149D01*
X58913425Y-33030911D01*
X58770568Y-32983291D01*
X58675330Y-32983291D01*
X58532473Y-33030911D01*
X58484854Y-33078530D01*
X56961044Y-33459482D02*
X56818187Y-33507101D01*
X56770568Y-33554720D01*
X56722949Y-33649958D01*
X56722949Y-33792815D01*
X56770568Y-33888053D01*
X56818187Y-33935672D01*
X56913425Y-33983291D01*
X57294378Y-33983291D01*
X57294378Y-32983291D01*
X56961044Y-32983291D01*
X56865806Y-33030911D01*
X56818187Y-33078530D01*
X56770568Y-33173768D01*
X56770568Y-33269006D01*
X56818187Y-33364244D01*
X56865806Y-33411863D01*
X56961044Y-33459482D01*
X57294378Y-33459482D01*
X56103901Y-33507101D02*
X56103901Y-33983291D01*
X56437235Y-32983291D02*
X56103901Y-33507101D01*
X55770568Y-32983291D01*
X55437235Y-33602339D02*
X54675330Y-33602339D01*
X54199139Y-33983291D02*
X54199139Y-32983291D01*
X53627711Y-33983291D01*
X53627711Y-32983291D01*
X52580092Y-33888053D02*
X52627711Y-33935672D01*
X52770568Y-33983291D01*
X52865806Y-33983291D01*
X53008663Y-33935672D01*
X53103901Y-33840434D01*
X53151520Y-33745196D01*
X53199139Y-33554720D01*
X53199139Y-33411863D01*
X53151520Y-33221387D01*
X53103901Y-33126149D01*
X53008663Y-33030911D01*
X52865806Y-32983291D01*
X52770568Y-32983291D01*
X52627711Y-33030911D01*
X52580092Y-33078530D01*
X52151520Y-33602339D02*
X51389616Y-33602339D01*
X50961044Y-33935672D02*
X50818187Y-33983291D01*
X50580092Y-33983291D01*
X50484854Y-33935672D01*
X50437235Y-33888053D01*
X50389616Y-33792815D01*
X50389616Y-33697577D01*
X50437235Y-33602339D01*
X50484854Y-33554720D01*
X50580092Y-33507101D01*
X50770568Y-33459482D01*
X50865806Y-33411863D01*
X50913425Y-33364244D01*
X50961044Y-33269006D01*
X50961044Y-33173768D01*
X50913425Y-33078530D01*
X50865806Y-33030911D01*
X50770568Y-32983291D01*
X50532473Y-32983291D01*
X50389616Y-33030911D01*
X50008663Y-33697577D02*
X49532473Y-33697577D01*
X50103901Y-33983291D02*
X49770568Y-32983291D01*
X49437235Y-33983291D01*
X47913425Y-33316625D02*
X47913425Y-33983291D01*
X48151520Y-32935672D02*
X48389616Y-33649958D01*
X47770568Y-33649958D01*
X47389616Y-33888053D02*
X47341997Y-33935672D01*
X47389616Y-33983291D01*
X47437235Y-33935672D01*
X47389616Y-33888053D01*
X47389616Y-33983291D01*
X46722949Y-32983291D02*
X46627711Y-32983291D01*
X46532473Y-33030911D01*
X46484854Y-33078530D01*
X46437235Y-33173768D01*
X46389616Y-33364244D01*
X46389616Y-33602339D01*
X46437235Y-33792815D01*
X46484854Y-33888053D01*
X46532473Y-33935672D01*
X46627711Y-33983291D01*
X46722949Y-33983291D01*
X46818187Y-33935672D01*
X46865806Y-33888053D01*
X46913425Y-33792815D01*
X46961044Y-33602339D01*
X46961044Y-33364244D01*
X46913425Y-33173768D01*
X46865806Y-33078530D01*
X46818187Y-33030911D01*
X46722949Y-32983291D01*
X58103901Y-34778530D02*
X58056282Y-34730911D01*
X57961044Y-34683291D01*
X57722949Y-34683291D01*
X57627711Y-34730911D01*
X57580092Y-34778530D01*
X57532473Y-34873768D01*
X57532473Y-34969006D01*
X57580092Y-35111863D01*
X58151520Y-35683291D01*
X57532473Y-35683291D01*
X56913425Y-34683291D02*
X56818187Y-34683291D01*
X56722949Y-34730911D01*
X56675330Y-34778530D01*
X56627711Y-34873768D01*
X56580092Y-35064244D01*
X56580092Y-35302339D01*
X56627711Y-35492815D01*
X56675330Y-35588053D01*
X56722949Y-35635672D01*
X56818187Y-35683291D01*
X56913425Y-35683291D01*
X57008663Y-35635672D01*
X57056282Y-35588053D01*
X57103901Y-35492815D01*
X57151520Y-35302339D01*
X57151520Y-35064244D01*
X57103901Y-34873768D01*
X57056282Y-34778530D01*
X57008663Y-34730911D01*
X56913425Y-34683291D01*
X56199139Y-34778530D02*
X56151520Y-34730911D01*
X56056282Y-34683291D01*
X55818187Y-34683291D01*
X55722949Y-34730911D01*
X55675330Y-34778530D01*
X55627711Y-34873768D01*
X55627711Y-34969006D01*
X55675330Y-35111863D01*
X56246759Y-35683291D01*
X55627711Y-35683291D01*
X55008663Y-34683291D02*
X54913425Y-34683291D01*
X54818187Y-34730911D01*
X54770568Y-34778530D01*
X54722949Y-34873768D01*
X54675330Y-35064244D01*
X54675330Y-35302339D01*
X54722949Y-35492815D01*
X54770568Y-35588053D01*
X54818187Y-35635672D01*
X54913425Y-35683291D01*
X55008663Y-35683291D01*
X55103901Y-35635672D01*
X55151520Y-35588053D01*
X55199139Y-35492815D01*
X55246759Y-35302339D01*
X55246759Y-35064244D01*
X55199139Y-34873768D01*
X55151520Y-34778530D01*
X55103901Y-34730911D01*
X55008663Y-34683291D01*
X54246759Y-35302339D02*
X53484854Y-35302339D01*
X52818187Y-34683291D02*
X52722949Y-34683291D01*
X52627711Y-34730911D01*
X52580092Y-34778530D01*
X52532473Y-34873768D01*
X52484854Y-35064244D01*
X52484854Y-35302339D01*
X52532473Y-35492815D01*
X52580092Y-35588053D01*
X52627711Y-35635672D01*
X52722949Y-35683291D01*
X52818187Y-35683291D01*
X52913425Y-35635672D01*
X52961044Y-35588053D01*
X53008663Y-35492815D01*
X53056282Y-35302339D01*
X53056282Y-35064244D01*
X53008663Y-34873768D01*
X52961044Y-34778530D01*
X52913425Y-34730911D01*
X52818187Y-34683291D01*
X52103901Y-34778530D02*
X52056282Y-34730911D01*
X51961044Y-34683291D01*
X51722949Y-34683291D01*
X51627711Y-34730911D01*
X51580092Y-34778530D01*
X51532473Y-34873768D01*
X51532473Y-34969006D01*
X51580092Y-35111863D01*
X52151520Y-35683291D01*
X51532473Y-35683291D01*
X51103901Y-35302339D02*
X50341997Y-35302339D01*
X49913425Y-34778530D02*
X49865806Y-34730911D01*
X49770568Y-34683291D01*
X49532473Y-34683291D01*
X49437235Y-34730911D01*
X49389616Y-34778530D01*
X49341997Y-34873768D01*
X49341997Y-34969006D01*
X49389616Y-35111863D01*
X49961044Y-35683291D01*
X49341997Y-35683291D01*
X48484854Y-35016625D02*
X48484854Y-35683291D01*
X48722949Y-34635672D02*
X48961044Y-35349958D01*
X48341997Y-35349958D01*
X82011520Y-44426625D02*
X81630568Y-44426625D01*
X81868663Y-44093291D02*
X81868663Y-44950434D01*
X81821044Y-45045672D01*
X81725806Y-45093291D01*
X81630568Y-45093291D01*
X81297235Y-45093291D02*
X81297235Y-44093291D01*
X80868663Y-45093291D02*
X80868663Y-44569482D01*
X80916282Y-44474244D01*
X81011520Y-44426625D01*
X81154378Y-44426625D01*
X81249616Y-44474244D01*
X81297235Y-44521863D01*
X80392473Y-45093291D02*
X80392473Y-44426625D01*
X80392473Y-44093291D02*
X80440092Y-44140911D01*
X80392473Y-44188530D01*
X80344854Y-44140911D01*
X80392473Y-44093291D01*
X80392473Y-44188530D01*
X79916282Y-44426625D02*
X79916282Y-45093291D01*
X79916282Y-44521863D02*
X79868663Y-44474244D01*
X79773425Y-44426625D01*
X79630568Y-44426625D01*
X79535330Y-44474244D01*
X79487711Y-44569482D01*
X79487711Y-45093291D01*
X78582949Y-44426625D02*
X78582949Y-45236149D01*
X78630568Y-45331387D01*
X78678187Y-45379006D01*
X78773425Y-45426625D01*
X78916282Y-45426625D01*
X79011520Y-45379006D01*
X78582949Y-45045672D02*
X78678187Y-45093291D01*
X78868663Y-45093291D01*
X78963901Y-45045672D01*
X79011520Y-44998053D01*
X79059139Y-44902815D01*
X79059139Y-44617101D01*
X79011520Y-44521863D01*
X78963901Y-44474244D01*
X78868663Y-44426625D01*
X78678187Y-44426625D01*
X78582949Y-44474244D01*
X78106759Y-45093291D02*
X78106759Y-44426625D01*
X78106759Y-44093291D02*
X78154378Y-44140911D01*
X78106759Y-44188530D01*
X78059139Y-44140911D01*
X78106759Y-44093291D01*
X78106759Y-44188530D01*
X77725806Y-44426625D02*
X77487711Y-45093291D01*
X77249616Y-44426625D01*
X76487711Y-45045672D02*
X76582949Y-45093291D01*
X76773425Y-45093291D01*
X76868663Y-45045672D01*
X76916282Y-44950434D01*
X76916282Y-44569482D01*
X76868663Y-44474244D01*
X76773425Y-44426625D01*
X76582949Y-44426625D01*
X76487711Y-44474244D01*
X76440092Y-44569482D01*
X76440092Y-44664720D01*
X76916282Y-44759958D01*
X76011520Y-45093291D02*
X76011520Y-44426625D01*
X76011520Y-44617101D02*
X75963901Y-44521863D01*
X75916282Y-44474244D01*
X75821044Y-44426625D01*
X75725806Y-44426625D01*
X75440092Y-45045672D02*
X75344854Y-45093291D01*
X75154378Y-45093291D01*
X75059139Y-45045672D01*
X75011520Y-44950434D01*
X75011520Y-44902815D01*
X75059139Y-44807577D01*
X75154378Y-44759958D01*
X75297235Y-44759958D01*
X75392473Y-44712339D01*
X75440092Y-44617101D01*
X75440092Y-44569482D01*
X75392473Y-44474244D01*
X75297235Y-44426625D01*
X75154378Y-44426625D01*
X75059139Y-44474244D01*
X74201997Y-45045672D02*
X74297235Y-45093291D01*
X74487711Y-45093291D01*
X74582949Y-45045672D01*
X74630568Y-44950434D01*
X74630568Y-44569482D01*
X74582949Y-44474244D01*
X74487711Y-44426625D01*
X74297235Y-44426625D01*
X74201997Y-44474244D01*
X74154378Y-44569482D01*
X74154378Y-44664720D01*
X74630568Y-44759958D01*
X73725806Y-44998053D02*
X73678187Y-45045672D01*
X73725806Y-45093291D01*
X73773425Y-45045672D01*
X73725806Y-44998053D01*
X73725806Y-45093291D01*
X72821044Y-45045672D02*
X72916282Y-45093291D01*
X73106759Y-45093291D01*
X73201997Y-45045672D01*
X73249616Y-44998053D01*
X73297235Y-44902815D01*
X73297235Y-44617101D01*
X73249616Y-44521863D01*
X73201997Y-44474244D01*
X73106759Y-44426625D01*
X72916282Y-44426625D01*
X72821044Y-44474244D01*
X72249616Y-45093291D02*
X72344854Y-45045672D01*
X72392473Y-44998053D01*
X72440092Y-44902815D01*
X72440092Y-44617101D01*
X72392473Y-44521863D01*
X72344854Y-44474244D01*
X72249616Y-44426625D01*
X72106759Y-44426625D01*
X72011520Y-44474244D01*
X71963901Y-44521863D01*
X71916282Y-44617101D01*
X71916282Y-44902815D01*
X71963901Y-44998053D01*
X72011520Y-45045672D01*
X72106759Y-45093291D01*
X72249616Y-45093291D01*
X71487711Y-45093291D02*
X71487711Y-44426625D01*
X71487711Y-44521863D02*
X71440092Y-44474244D01*
X71344854Y-44426625D01*
X71201997Y-44426625D01*
X71106759Y-44474244D01*
X71059139Y-44569482D01*
X71059139Y-45093291D01*
X71059139Y-44569482D02*
X71011520Y-44474244D01*
X70916282Y-44426625D01*
X70773425Y-44426625D01*
X70678187Y-44474244D01*
X70630568Y-44569482D01*
X70630568Y-45093291D01*
X69440092Y-44045672D02*
X70297235Y-45331387D01*
X82011520Y-46126625D02*
X81630568Y-46126625D01*
X81868663Y-45793291D02*
X81868663Y-46650434D01*
X81821044Y-46745672D01*
X81725806Y-46793291D01*
X81630568Y-46793291D01*
X81297235Y-46793291D02*
X81297235Y-45793291D01*
X80868663Y-46793291D02*
X80868663Y-46269482D01*
X80916282Y-46174244D01*
X81011520Y-46126625D01*
X81154378Y-46126625D01*
X81249616Y-46174244D01*
X81297235Y-46221863D01*
X80392473Y-46793291D02*
X80392473Y-46126625D01*
X80392473Y-45793291D02*
X80440092Y-45840911D01*
X80392473Y-45888530D01*
X80344854Y-45840911D01*
X80392473Y-45793291D01*
X80392473Y-45888530D01*
X79916282Y-46126625D02*
X79916282Y-46793291D01*
X79916282Y-46221863D02*
X79868663Y-46174244D01*
X79773425Y-46126625D01*
X79630568Y-46126625D01*
X79535330Y-46174244D01*
X79487711Y-46269482D01*
X79487711Y-46793291D01*
X78582949Y-46126625D02*
X78582949Y-46936149D01*
X78630568Y-47031387D01*
X78678187Y-47079006D01*
X78773425Y-47126625D01*
X78916282Y-47126625D01*
X79011520Y-47079006D01*
X78582949Y-46745672D02*
X78678187Y-46793291D01*
X78868663Y-46793291D01*
X78963901Y-46745672D01*
X79011520Y-46698053D01*
X79059139Y-46602815D01*
X79059139Y-46317101D01*
X79011520Y-46221863D01*
X78963901Y-46174244D01*
X78868663Y-46126625D01*
X78678187Y-46126625D01*
X78582949Y-46174244D01*
X78106759Y-46698053D02*
X78059139Y-46745672D01*
X78106759Y-46793291D01*
X78154378Y-46745672D01*
X78106759Y-46698053D01*
X78106759Y-46793291D01*
X78106759Y-46174244D02*
X78059139Y-46221863D01*
X78106759Y-46269482D01*
X78154378Y-46221863D01*
X78106759Y-46174244D01*
X78106759Y-46269482D01*
X77725806Y-45793291D02*
X77106759Y-45793291D01*
X77440092Y-46174244D01*
X77297235Y-46174244D01*
X77201997Y-46221863D01*
X77154378Y-46269482D01*
X77106759Y-46364720D01*
X77106759Y-46602815D01*
X77154378Y-46698053D01*
X77201997Y-46745672D01*
X77297235Y-46793291D01*
X77582949Y-46793291D01*
X77678187Y-46745672D01*
X77725806Y-46698053D01*
X76249616Y-45793291D02*
X76440092Y-45793291D01*
X76535330Y-45840911D01*
X76582949Y-45888530D01*
X76678187Y-46031387D01*
X76725806Y-46221863D01*
X76725806Y-46602815D01*
X76678187Y-46698053D01*
X76630568Y-46745672D01*
X76535330Y-46793291D01*
X76344854Y-46793291D01*
X76249616Y-46745672D01*
X76201997Y-46698053D01*
X76154378Y-46602815D01*
X76154378Y-46364720D01*
X76201997Y-46269482D01*
X76249616Y-46221863D01*
X76344854Y-46174244D01*
X76535330Y-46174244D01*
X76630568Y-46221863D01*
X76678187Y-46269482D01*
X76725806Y-46364720D01*
X75249616Y-45793291D02*
X75725806Y-45793291D01*
X75773425Y-46269482D01*
X75725806Y-46221863D01*
X75630568Y-46174244D01*
X75392473Y-46174244D01*
X75297235Y-46221863D01*
X75249616Y-46269482D01*
X75201997Y-46364720D01*
X75201997Y-46602815D01*
X75249616Y-46698053D01*
X75297235Y-46745672D01*
X75392473Y-46793291D01*
X75630568Y-46793291D01*
X75725806Y-46745672D01*
X75773425Y-46698053D01*
X74297235Y-45793291D02*
X74773425Y-45793291D01*
X74821044Y-46269482D01*
X74773425Y-46221863D01*
X74678187Y-46174244D01*
X74440092Y-46174244D01*
X74344854Y-46221863D01*
X74297235Y-46269482D01*
X74249616Y-46364720D01*
X74249616Y-46602815D01*
X74297235Y-46698053D01*
X74344854Y-46745672D01*
X74440092Y-46793291D01*
X74678187Y-46793291D01*
X74773425Y-46745672D01*
X74821044Y-46698053D01*
X73916282Y-45793291D02*
X73297235Y-45793291D01*
X73630568Y-46174244D01*
X73487711Y-46174244D01*
X73392473Y-46221863D01*
X73344854Y-46269482D01*
X73297235Y-46364720D01*
X73297235Y-46602815D01*
X73344854Y-46698053D01*
X73392473Y-46745672D01*
X73487711Y-46793291D01*
X73773425Y-46793291D01*
X73868663Y-46745672D01*
X73916282Y-46698053D01*
X72392473Y-45793291D02*
X72868663Y-45793291D01*
X72916282Y-46269482D01*
X72868663Y-46221863D01*
X72773425Y-46174244D01*
X72535330Y-46174244D01*
X72440092Y-46221863D01*
X72392473Y-46269482D01*
X72344854Y-46364720D01*
X72344854Y-46602815D01*
X72392473Y-46698053D01*
X72440092Y-46745672D01*
X72535330Y-46793291D01*
X72773425Y-46793291D01*
X72868663Y-46745672D01*
X72916282Y-46698053D01*
X71487711Y-46126625D02*
X71487711Y-46793291D01*
X71725806Y-45745672D02*
X71963901Y-46459958D01*
X71344854Y-46459958D01*
X56782473Y-21983291D02*
X56782473Y-20983291D01*
X56401520Y-20983291D01*
X56306282Y-21030911D01*
X56258663Y-21078530D01*
X56211044Y-21173768D01*
X56211044Y-21316625D01*
X56258663Y-21411863D01*
X56306282Y-21459482D01*
X56401520Y-21507101D01*
X56782473Y-21507101D01*
X55401520Y-21935672D02*
X55496759Y-21983291D01*
X55687235Y-21983291D01*
X55782473Y-21935672D01*
X55830092Y-21840434D01*
X55830092Y-21459482D01*
X55782473Y-21364244D01*
X55687235Y-21316625D01*
X55496759Y-21316625D01*
X55401520Y-21364244D01*
X55353901Y-21459482D01*
X55353901Y-21554720D01*
X55830092Y-21649958D01*
X54925330Y-21983291D02*
X54925330Y-21316625D01*
X54925330Y-21507101D02*
X54877711Y-21411863D01*
X54830092Y-21364244D01*
X54734854Y-21316625D01*
X54639616Y-21316625D01*
X53544378Y-21983291D02*
X53544378Y-20983291D01*
X53211044Y-21697577D01*
X52877711Y-20983291D01*
X52877711Y-21983291D01*
X52020568Y-21935672D02*
X52115806Y-21983291D01*
X52306282Y-21983291D01*
X52401520Y-21935672D01*
X52449139Y-21840434D01*
X52449139Y-21459482D01*
X52401520Y-21364244D01*
X52306282Y-21316625D01*
X52115806Y-21316625D01*
X52020568Y-21364244D01*
X51972949Y-21459482D01*
X51972949Y-21554720D01*
X52449139Y-21649958D01*
X51544378Y-21316625D02*
X51544378Y-22173768D01*
X51591997Y-22269006D01*
X51687235Y-22316625D01*
X51734854Y-22316625D01*
X51544378Y-20983291D02*
X51591997Y-21030911D01*
X51544378Y-21078530D01*
X51496759Y-21030911D01*
X51544378Y-20983291D01*
X51544378Y-21078530D01*
X50639616Y-21983291D02*
X50639616Y-20983291D01*
X50639616Y-21935672D02*
X50734854Y-21983291D01*
X50925330Y-21983291D01*
X51020568Y-21935672D01*
X51068187Y-21888053D01*
X51115806Y-21792815D01*
X51115806Y-21507101D01*
X51068187Y-21411863D01*
X51020568Y-21364244D01*
X50925330Y-21316625D01*
X50734854Y-21316625D01*
X50639616Y-21364244D01*
X49734854Y-21983291D02*
X49734854Y-21459482D01*
X49782473Y-21364244D01*
X49877711Y-21316625D01*
X50068187Y-21316625D01*
X50163425Y-21364244D01*
X49734854Y-21935672D02*
X49830092Y-21983291D01*
X50068187Y-21983291D01*
X50163425Y-21935672D01*
X50211044Y-21840434D01*
X50211044Y-21745196D01*
X50163425Y-21649958D01*
X50068187Y-21602339D01*
X49830092Y-21602339D01*
X49734854Y-21554720D01*
X49115806Y-21983291D02*
X49211044Y-21935672D01*
X49258663Y-21840434D01*
X49258663Y-20983291D01*
X56353901Y-23683291D02*
X56687235Y-23207101D01*
X56925330Y-23683291D02*
X56925330Y-22683291D01*
X56544378Y-22683291D01*
X56449139Y-22730911D01*
X56401520Y-22778530D01*
X56353901Y-22873768D01*
X56353901Y-23016625D01*
X56401520Y-23111863D01*
X56449139Y-23159482D01*
X56544378Y-23207101D01*
X56925330Y-23207101D01*
X55496759Y-23683291D02*
X55496759Y-23159482D01*
X55544378Y-23064244D01*
X55639616Y-23016625D01*
X55830092Y-23016625D01*
X55925330Y-23064244D01*
X55496759Y-23635672D02*
X55591997Y-23683291D01*
X55830092Y-23683291D01*
X55925330Y-23635672D01*
X55972949Y-23540434D01*
X55972949Y-23445196D01*
X55925330Y-23349958D01*
X55830092Y-23302339D01*
X55591997Y-23302339D01*
X55496759Y-23254720D01*
X55068187Y-23635672D02*
X54972949Y-23683291D01*
X54782473Y-23683291D01*
X54687235Y-23635672D01*
X54639616Y-23540434D01*
X54639616Y-23492815D01*
X54687235Y-23397577D01*
X54782473Y-23349958D01*
X54925330Y-23349958D01*
X55020568Y-23302339D01*
X55068187Y-23207101D01*
X55068187Y-23159482D01*
X55020568Y-23064244D01*
X54925330Y-23016625D01*
X54782473Y-23016625D01*
X54687235Y-23064244D01*
X54211044Y-23683291D02*
X54211044Y-23016625D01*
X54211044Y-23111863D02*
X54163425Y-23064244D01*
X54068187Y-23016625D01*
X53925330Y-23016625D01*
X53830092Y-23064244D01*
X53782473Y-23159482D01*
X53782473Y-23683291D01*
X53782473Y-23159482D02*
X53734854Y-23064244D01*
X53639616Y-23016625D01*
X53496759Y-23016625D01*
X53401520Y-23064244D01*
X53353901Y-23159482D01*
X53353901Y-23683291D01*
X52449139Y-23016625D02*
X52449139Y-23683291D01*
X52877711Y-23016625D02*
X52877711Y-23540434D01*
X52830092Y-23635672D01*
X52734854Y-23683291D01*
X52591997Y-23683291D01*
X52496759Y-23635672D01*
X52449139Y-23588053D01*
X52020568Y-23635672D02*
X51925330Y-23683291D01*
X51734854Y-23683291D01*
X51639616Y-23635672D01*
X51591997Y-23540434D01*
X51591997Y-23492815D01*
X51639616Y-23397577D01*
X51734854Y-23349958D01*
X51877711Y-23349958D01*
X51972949Y-23302339D01*
X52020568Y-23207101D01*
X52020568Y-23159482D01*
X51972949Y-23064244D01*
X51877711Y-23016625D01*
X51734854Y-23016625D01*
X51639616Y-23064244D01*
X51211044Y-23635672D02*
X51115806Y-23683291D01*
X50925330Y-23683291D01*
X50830092Y-23635672D01*
X50782473Y-23540434D01*
X50782473Y-23492815D01*
X50830092Y-23397577D01*
X50925330Y-23349958D01*
X51068187Y-23349958D01*
X51163425Y-23302339D01*
X51211044Y-23207101D01*
X51211044Y-23159482D01*
X51163425Y-23064244D01*
X51068187Y-23016625D01*
X50925330Y-23016625D01*
X50830092Y-23064244D01*
X49972949Y-23635672D02*
X50068187Y-23683291D01*
X50258663Y-23683291D01*
X50353901Y-23635672D01*
X50401520Y-23540434D01*
X50401520Y-23159482D01*
X50353901Y-23064244D01*
X50258663Y-23016625D01*
X50068187Y-23016625D01*
X49972949Y-23064244D01*
X49925330Y-23159482D01*
X49925330Y-23254720D01*
X50401520Y-23349958D01*
X49496759Y-23016625D02*
X49496759Y-23683291D01*
X49496759Y-23111863D02*
X49449139Y-23064244D01*
X49353901Y-23016625D01*
X49211044Y-23016625D01*
X49115806Y-23064244D01*
X49068187Y-23159482D01*
X49068187Y-23683291D01*
X52145238Y-46702380D02*
X52411904Y-46226190D01*
X52602380Y-46702380D02*
X52602380Y-45702380D01*
X52297619Y-45702380D01*
X52221428Y-45750000D01*
X52183333Y-45797619D01*
X52145238Y-45892857D01*
X52145238Y-46035714D01*
X52183333Y-46130952D01*
X52221428Y-46178571D01*
X52297619Y-46226190D01*
X52602380Y-46226190D01*
X51802380Y-46702380D02*
X51802380Y-46035714D01*
X51802380Y-45702380D02*
X51840476Y-45750000D01*
X51802380Y-45797619D01*
X51764285Y-45750000D01*
X51802380Y-45702380D01*
X51802380Y-45797619D01*
X51078571Y-46035714D02*
X51078571Y-46845238D01*
X51116666Y-46940476D01*
X51154761Y-46988095D01*
X51230952Y-47035714D01*
X51345238Y-47035714D01*
X51421428Y-46988095D01*
X51078571Y-46654761D02*
X51154761Y-46702380D01*
X51307142Y-46702380D01*
X51383333Y-46654761D01*
X51421428Y-46607142D01*
X51459523Y-46511904D01*
X51459523Y-46226190D01*
X51421428Y-46130952D01*
X51383333Y-46083333D01*
X51307142Y-46035714D01*
X51154761Y-46035714D01*
X51078571Y-46083333D01*
X50697619Y-46702380D02*
X50697619Y-45702380D01*
X50354761Y-46702380D02*
X50354761Y-46178571D01*
X50392857Y-46083333D01*
X50469047Y-46035714D01*
X50583333Y-46035714D01*
X50659523Y-46083333D01*
X50697619Y-46130952D01*
X50088095Y-46035714D02*
X49783333Y-46035714D01*
X49973809Y-45702380D02*
X49973809Y-46559523D01*
X49935714Y-46654761D01*
X49859523Y-46702380D01*
X49783333Y-46702380D01*
D10*
X82668901Y-9990911D02*
X82811759Y-9919482D01*
X83026044Y-9919482D01*
X83240330Y-9990911D01*
X83383187Y-10133768D01*
X83454616Y-10276625D01*
X83526044Y-10562339D01*
X83526044Y-10776625D01*
X83454616Y-11062339D01*
X83383187Y-11205196D01*
X83240330Y-11348053D01*
X83026044Y-11419482D01*
X82883187Y-11419482D01*
X82668901Y-11348053D01*
X82597473Y-11276625D01*
X82597473Y-10776625D01*
X82883187Y-10776625D01*
X81311759Y-11419482D02*
X81311759Y-10633768D01*
X81383187Y-10490911D01*
X81526044Y-10419482D01*
X81811759Y-10419482D01*
X81954616Y-10490911D01*
X81311759Y-11348053D02*
X81454616Y-11419482D01*
X81811759Y-11419482D01*
X81954616Y-11348053D01*
X82026044Y-11205196D01*
X82026044Y-11062339D01*
X81954616Y-10919482D01*
X81811759Y-10848053D01*
X81454616Y-10848053D01*
X81311759Y-10776625D01*
X81668901Y-10062339D02*
X81811759Y-9990911D01*
X81883187Y-9848053D01*
X81811759Y-9705196D01*
X81668901Y-9633768D01*
X81526044Y-9705196D01*
X81454616Y-9848053D01*
X81526044Y-9990911D01*
X81668901Y-10062339D01*
X80597473Y-11419482D02*
X80597473Y-10419482D01*
X80597473Y-10705196D02*
X80526044Y-10562339D01*
X80454616Y-10490911D01*
X80311759Y-10419482D01*
X80168901Y-10419482D01*
X78526044Y-11419482D02*
X78526044Y-10419482D01*
X78526044Y-9919482D02*
X78597473Y-9990911D01*
X78526044Y-10062339D01*
X78454616Y-9990911D01*
X78526044Y-9919482D01*
X78526044Y-10062339D01*
X76740330Y-11348053D02*
X76597473Y-11419482D01*
X76311759Y-11419482D01*
X76168901Y-11348053D01*
X76097473Y-11205196D01*
X76097473Y-11133768D01*
X76168901Y-10990911D01*
X76311759Y-10919482D01*
X76526044Y-10919482D01*
X76668901Y-10848053D01*
X76740330Y-10705196D01*
X76740330Y-10633768D01*
X76668901Y-10490911D01*
X76526044Y-10419482D01*
X76311759Y-10419482D01*
X76168901Y-10490911D01*
X75668901Y-10419482D02*
X75097473Y-10419482D01*
X75454616Y-9919482D02*
X75454616Y-11205196D01*
X75383187Y-11348053D01*
X75240330Y-11419482D01*
X75097473Y-11419482D01*
X74740330Y-10419482D02*
X74383187Y-11419482D01*
X74026044Y-10419482D02*
X74383187Y-11419482D01*
X74526044Y-11776625D01*
X74597473Y-11848053D01*
X74740330Y-11919482D01*
X73454616Y-11419482D02*
X73454616Y-9919482D01*
X73311759Y-10848053D02*
X72883187Y-11419482D01*
X72883187Y-10419482D02*
X73454616Y-10990911D01*
X72240330Y-11419482D02*
X72240330Y-9919482D01*
X72097473Y-10848053D02*
X71668901Y-11419482D01*
X71668901Y-10419482D02*
X72240330Y-10990911D01*
X70454616Y-11348053D02*
X70597473Y-11419482D01*
X70883187Y-11419482D01*
X71026044Y-11348053D01*
X71097473Y-11205196D01*
X71097473Y-10633768D01*
X71026044Y-10490911D01*
X70883187Y-10419482D01*
X70597473Y-10419482D01*
X70454616Y-10490911D01*
X70383187Y-10633768D01*
X70383187Y-10776625D01*
X71097473Y-10919482D01*
X69740330Y-11419482D02*
X69740330Y-10419482D01*
X69740330Y-10705196D02*
X69668901Y-10562339D01*
X69597473Y-10490911D01*
X69454616Y-10419482D01*
X69311759Y-10419482D01*
X83454616Y-13969482D02*
X83454616Y-12469482D01*
X82811759Y-13969482D02*
X82811759Y-13183768D01*
X82883187Y-13040911D01*
X83026044Y-12969482D01*
X83240330Y-12969482D01*
X83383187Y-13040911D01*
X83454616Y-13112339D01*
X82240330Y-12969482D02*
X81883187Y-13969482D01*
X81526044Y-12969482D01*
X80954616Y-13969482D02*
X80954616Y-12969482D01*
X80954616Y-12469482D02*
X81026044Y-12540911D01*
X80954616Y-12612339D01*
X80883187Y-12540911D01*
X80954616Y-12469482D01*
X80954616Y-12612339D01*
X80311759Y-13898053D02*
X80168901Y-13969482D01*
X79883187Y-13969482D01*
X79740330Y-13898053D01*
X79668901Y-13755196D01*
X79668901Y-13683768D01*
X79740330Y-13540911D01*
X79883187Y-13469482D01*
X80097473Y-13469482D01*
X80240330Y-13398053D01*
X80311759Y-13255196D01*
X80311759Y-13183768D01*
X80240330Y-13040911D01*
X80097473Y-12969482D01*
X79883187Y-12969482D01*
X79740330Y-13040911D01*
X77883187Y-13969482D02*
X77883187Y-12469482D01*
X77883187Y-13040911D02*
X77740330Y-12969482D01*
X77454616Y-12969482D01*
X77311759Y-13040911D01*
X77240330Y-13112339D01*
X77168901Y-13255196D01*
X77168901Y-13683768D01*
X77240330Y-13826625D01*
X77311759Y-13898053D01*
X77454616Y-13969482D01*
X77740330Y-13969482D01*
X77883187Y-13898053D01*
X75883187Y-13969482D02*
X75883187Y-13183768D01*
X75954616Y-13040911D01*
X76097473Y-12969482D01*
X76383187Y-12969482D01*
X76526044Y-13040911D01*
X75883187Y-13898053D02*
X76026044Y-13969482D01*
X76383187Y-13969482D01*
X76526044Y-13898053D01*
X76597473Y-13755196D01*
X76597473Y-13612339D01*
X76526044Y-13469482D01*
X76383187Y-13398053D01*
X76026044Y-13398053D01*
X75883187Y-13326625D01*
X75383187Y-12969482D02*
X74811759Y-12969482D01*
X75168901Y-12469482D02*
X75168901Y-13755196D01*
X75097473Y-13898053D01*
X74954616Y-13969482D01*
X74811759Y-13969482D01*
X74526044Y-12969482D02*
X73954616Y-12969482D01*
X74311759Y-12469482D02*
X74311759Y-13755196D01*
X74240330Y-13898053D01*
X74097473Y-13969482D01*
X73954616Y-13969482D01*
X72883187Y-13898053D02*
X73026044Y-13969482D01*
X73311759Y-13969482D01*
X73454616Y-13898053D01*
X73526044Y-13755196D01*
X73526044Y-13183768D01*
X73454616Y-13040911D01*
X73311759Y-12969482D01*
X73026044Y-12969482D01*
X72883187Y-13040911D01*
X72811759Y-13183768D01*
X72811759Y-13326625D01*
X73526044Y-13469482D01*
X72168901Y-13969482D02*
X72168901Y-12969482D01*
X72168901Y-13255196D02*
X72097473Y-13112339D01*
X72026044Y-13040911D01*
X71883187Y-12969482D01*
X71740330Y-12969482D01*
X71240330Y-13969482D02*
X71240330Y-12969482D01*
X71240330Y-12469482D02*
X71311759Y-12540911D01*
X71240330Y-12612339D01*
X71168901Y-12540911D01*
X71240330Y-12469482D01*
X71240330Y-12612339D01*
X69954616Y-13898053D02*
X70097473Y-13969482D01*
X70383187Y-13969482D01*
X70526044Y-13898053D01*
X70597473Y-13755196D01*
X70597473Y-13183768D01*
X70526044Y-13040911D01*
X70383187Y-12969482D01*
X70097473Y-12969482D01*
X69954616Y-13040911D01*
X69883187Y-13183768D01*
X69883187Y-13326625D01*
X70597473Y-13469482D01*
X69454616Y-12969482D02*
X68883187Y-12969482D01*
X69240330Y-12469482D02*
X69240330Y-13755196D01*
X69168901Y-13898053D01*
X69026044Y-13969482D01*
X68883187Y-13969482D01*
X83597473Y-15519482D02*
X83240330Y-16519482D01*
X82883187Y-15519482D01*
X81740330Y-16448053D02*
X81883187Y-16519482D01*
X82168901Y-16519482D01*
X82311759Y-16448053D01*
X82383187Y-16305196D01*
X82383187Y-15733768D01*
X82311759Y-15590911D01*
X82168901Y-15519482D01*
X81883187Y-15519482D01*
X81740330Y-15590911D01*
X81668901Y-15733768D01*
X81668901Y-15876625D01*
X82383187Y-16019482D01*
X81026044Y-15519482D02*
X81026044Y-16519482D01*
X81026044Y-15662339D02*
X80954616Y-15590911D01*
X80811759Y-15519482D01*
X80597473Y-15519482D01*
X80454616Y-15590911D01*
X80383187Y-15733768D01*
X80383187Y-16519482D01*
X79026044Y-16519482D02*
X79026044Y-15019482D01*
X79026044Y-16448053D02*
X79168901Y-16519482D01*
X79454616Y-16519482D01*
X79597473Y-16448053D01*
X79668901Y-16376625D01*
X79740330Y-16233768D01*
X79740330Y-15805196D01*
X79668901Y-15662339D01*
X79597473Y-15590911D01*
X79454616Y-15519482D01*
X79168901Y-15519482D01*
X79026044Y-15590911D01*
X77740330Y-16448053D02*
X77883187Y-16519482D01*
X78168901Y-16519482D01*
X78311759Y-16448053D01*
X78383187Y-16305196D01*
X78383187Y-15733768D01*
X78311759Y-15590911D01*
X78168901Y-15519482D01*
X77883187Y-15519482D01*
X77740330Y-15590911D01*
X77668901Y-15733768D01*
X77668901Y-15876625D01*
X78383187Y-16019482D01*
X77026044Y-16519482D02*
X77026044Y-15519482D01*
X77026044Y-15805196D02*
X76954616Y-15662339D01*
X76883187Y-15590911D01*
X76740330Y-15519482D01*
X76597473Y-15519482D01*
X75168901Y-15519482D02*
X74597473Y-15519482D01*
X74954616Y-16519482D02*
X74954616Y-15233768D01*
X74883187Y-15090911D01*
X74740330Y-15019482D01*
X74597473Y-15019482D01*
X73883187Y-16519482D02*
X74026044Y-16448053D01*
X74097473Y-16376625D01*
X74168901Y-16233768D01*
X74168901Y-15805196D01*
X74097473Y-15662339D01*
X74026044Y-15590911D01*
X73883187Y-15519482D01*
X73668901Y-15519482D01*
X73526044Y-15590911D01*
X73454616Y-15662339D01*
X73383187Y-15805196D01*
X73383187Y-16233768D01*
X73454616Y-16376625D01*
X73526044Y-16448053D01*
X73668901Y-16519482D01*
X73883187Y-16519482D01*
X72740330Y-16519482D02*
X72740330Y-15519482D01*
X72740330Y-15805196D02*
X72668901Y-15662339D01*
X72597473Y-15590911D01*
X72454616Y-15519482D01*
X72311759Y-15519482D01*
X71811759Y-16519482D02*
X71811759Y-15019482D01*
X71668901Y-15948053D02*
X71240330Y-16519482D01*
X71240330Y-15519482D02*
X71811759Y-16090911D01*
X70026044Y-16448053D02*
X70168901Y-16519482D01*
X70454616Y-16519482D01*
X70597473Y-16448053D01*
X70668901Y-16305196D01*
X70668901Y-15733768D01*
X70597473Y-15590911D01*
X70454616Y-15519482D01*
X70168901Y-15519482D01*
X70026044Y-15590911D01*
X69954616Y-15733768D01*
X69954616Y-15876625D01*
X70668901Y-16019482D01*
X69311759Y-16519482D02*
X69311759Y-15519482D01*
X69311759Y-15805196D02*
X69240330Y-15662339D01*
X69168901Y-15590911D01*
X69026044Y-15519482D01*
X68883187Y-15519482D01*
X68597473Y-15519482D02*
X68026044Y-15519482D01*
X68383187Y-15019482D02*
X68383187Y-16305196D01*
X68311759Y-16448053D01*
X68168901Y-16519482D01*
X68026044Y-16519482D01*
X67526044Y-16376625D02*
X67454616Y-16448053D01*
X67526044Y-16519482D01*
X67597473Y-16448053D01*
X67526044Y-16376625D01*
X67526044Y-16519482D01*
X67526044Y-15948053D02*
X67597473Y-15090911D01*
X67526044Y-15019482D01*
X67454616Y-15090911D01*
X67526044Y-15948053D01*
X67526044Y-15019482D01*
D11*
X49466666Y-11652380D02*
X49200000Y-12652380D01*
X48933333Y-11652380D01*
X48209523Y-12557142D02*
X48247619Y-12604761D01*
X48361904Y-12652380D01*
X48438095Y-12652380D01*
X48552380Y-12604761D01*
X48628571Y-12509523D01*
X48666666Y-12414285D01*
X48704761Y-12223809D01*
X48704761Y-12080952D01*
X48666666Y-11890476D01*
X48628571Y-11795238D01*
X48552380Y-11700000D01*
X48438095Y-11652380D01*
X48361904Y-11652380D01*
X48247619Y-11700000D01*
X48209523Y-11747619D01*
X47409523Y-12557142D02*
X47447619Y-12604761D01*
X47561904Y-12652380D01*
X47638095Y-12652380D01*
X47752380Y-12604761D01*
X47828571Y-12509523D01*
X47866666Y-12414285D01*
X47904761Y-12223809D01*
X47904761Y-12080952D01*
X47866666Y-11890476D01*
X47828571Y-11795238D01*
X47752380Y-11700000D01*
X47638095Y-11652380D01*
X47561904Y-11652380D01*
X47447619Y-11700000D01*
X47409523Y-11747619D01*
X55895238Y-12604761D02*
X55780952Y-12652380D01*
X55590476Y-12652380D01*
X55514285Y-12604761D01*
X55476190Y-12557142D01*
X55438095Y-12461904D01*
X55438095Y-12366666D01*
X55476190Y-12271428D01*
X55514285Y-12223809D01*
X55590476Y-12176190D01*
X55742857Y-12128571D01*
X55819047Y-12080952D01*
X55857142Y-12033333D01*
X55895238Y-11938095D01*
X55895238Y-11842857D01*
X55857142Y-11747619D01*
X55819047Y-11700000D01*
X55742857Y-11652380D01*
X55552380Y-11652380D01*
X55438095Y-11700000D01*
X55171428Y-11652380D02*
X54980952Y-12652380D01*
X54828571Y-11938095D01*
X54676190Y-12652380D01*
X54485714Y-11652380D01*
X54180952Y-12652380D02*
X54180952Y-11652380D01*
X53990476Y-11652380D01*
X53876190Y-11700000D01*
X53800000Y-11795238D01*
X53761904Y-11890476D01*
X53723809Y-12080952D01*
X53723809Y-12223809D01*
X53761904Y-12414285D01*
X53800000Y-12509523D01*
X53876190Y-12604761D01*
X53990476Y-12652380D01*
X54180952Y-12652380D01*
X53380952Y-12652380D02*
X53380952Y-11652380D01*
X52847619Y-11652380D02*
X52695238Y-11652380D01*
X52619047Y-11700000D01*
X52542857Y-11795238D01*
X52504761Y-11985714D01*
X52504761Y-12319047D01*
X52542857Y-12509523D01*
X52619047Y-12604761D01*
X52695238Y-12652380D01*
X52847619Y-12652380D01*
X52923809Y-12604761D01*
X53000000Y-12509523D01*
X53038095Y-12319047D01*
X53038095Y-11985714D01*
X53000000Y-11795238D01*
X52923809Y-11700000D01*
X52847619Y-11652380D01*
X55723809Y-15152380D02*
X55990476Y-14676190D01*
X56180952Y-15152380D02*
X56180952Y-14152380D01*
X55876190Y-14152380D01*
X55800000Y-14200000D01*
X55761904Y-14247619D01*
X55723809Y-14342857D01*
X55723809Y-14485714D01*
X55761904Y-14580952D01*
X55800000Y-14628571D01*
X55876190Y-14676190D01*
X56180952Y-14676190D01*
X55380952Y-14628571D02*
X55114285Y-14628571D01*
X55000000Y-15152380D02*
X55380952Y-15152380D01*
X55380952Y-14152380D01*
X55000000Y-14152380D01*
X54695238Y-15104761D02*
X54580952Y-15152380D01*
X54390476Y-15152380D01*
X54314285Y-15104761D01*
X54276190Y-15057142D01*
X54238095Y-14961904D01*
X54238095Y-14866666D01*
X54276190Y-14771428D01*
X54314285Y-14723809D01*
X54390476Y-14676190D01*
X54542857Y-14628571D01*
X54619047Y-14580952D01*
X54657142Y-14533333D01*
X54695238Y-14438095D01*
X54695238Y-14342857D01*
X54657142Y-14247619D01*
X54619047Y-14200000D01*
X54542857Y-14152380D01*
X54352380Y-14152380D01*
X54238095Y-14200000D01*
X53895238Y-14628571D02*
X53628571Y-14628571D01*
X53514285Y-15152380D02*
X53895238Y-15152380D01*
X53895238Y-14152380D01*
X53514285Y-14152380D01*
X53285714Y-14152380D02*
X52828571Y-14152380D01*
X53057142Y-15152380D02*
X53057142Y-14152380D01*
X52561904Y-14485714D02*
X52561904Y-15152380D01*
X52561904Y-14580952D02*
X52523809Y-14533333D01*
X52447619Y-14485714D01*
X52333333Y-14485714D01*
X52257142Y-14533333D01*
X52219047Y-14628571D01*
X52219047Y-15152380D01*
X56009523Y-10104761D02*
X55895238Y-10152380D01*
X55704761Y-10152380D01*
X55628571Y-10104761D01*
X55590476Y-10057142D01*
X55552380Y-9961904D01*
X55552380Y-9866666D01*
X55590476Y-9771428D01*
X55628571Y-9723809D01*
X55704761Y-9676190D01*
X55857142Y-9628571D01*
X55933333Y-9580952D01*
X55971428Y-9533333D01*
X56009523Y-9438095D01*
X56009523Y-9342857D01*
X55971428Y-9247619D01*
X55933333Y-9200000D01*
X55857142Y-9152380D01*
X55666666Y-9152380D01*
X55552380Y-9200000D01*
X55285714Y-9152380D02*
X55095238Y-10152380D01*
X54942857Y-9438095D01*
X54790476Y-10152380D01*
X54600000Y-9152380D01*
X53838095Y-10057142D02*
X53876190Y-10104761D01*
X53990476Y-10152380D01*
X54066666Y-10152380D01*
X54180952Y-10104761D01*
X54257142Y-10009523D01*
X54295238Y-9914285D01*
X54333333Y-9723809D01*
X54333333Y-9580952D01*
X54295238Y-9390476D01*
X54257142Y-9295238D01*
X54180952Y-9200000D01*
X54066666Y-9152380D01*
X53990476Y-9152380D01*
X53876190Y-9200000D01*
X53838095Y-9247619D01*
X53114285Y-10152380D02*
X53495238Y-10152380D01*
X53495238Y-9152380D01*
X52847619Y-10152380D02*
X52847619Y-9152380D01*
X52390476Y-10152380D02*
X52733333Y-9580952D01*
X52390476Y-9152380D02*
X52847619Y-9723809D01*
X49009523Y-9200000D02*
X49085714Y-9152380D01*
X49200000Y-9152380D01*
X49314285Y-9200000D01*
X49390476Y-9295238D01*
X49428571Y-9390476D01*
X49466666Y-9580952D01*
X49466666Y-9723809D01*
X49428571Y-9914285D01*
X49390476Y-10009523D01*
X49314285Y-10104761D01*
X49200000Y-10152380D01*
X49123809Y-10152380D01*
X49009523Y-10104761D01*
X48971428Y-10057142D01*
X48971428Y-9723809D01*
X49123809Y-9723809D01*
X48628571Y-10152380D02*
X48628571Y-9152380D01*
X48171428Y-10152380D01*
X48171428Y-9152380D01*
X47790476Y-10152380D02*
X47790476Y-9152380D01*
X47600000Y-9152380D01*
X47485714Y-9200000D01*
X47409523Y-9295238D01*
X47371428Y-9390476D01*
X47333333Y-9580952D01*
X47333333Y-9723809D01*
X47371428Y-9914285D01*
X47409523Y-10009523D01*
X47485714Y-10104761D01*
X47600000Y-10152380D01*
X47790476Y-10152380D01*
X56359523Y-40750000D02*
X56435714Y-40702380D01*
X56550000Y-40702380D01*
X56664285Y-40750000D01*
X56740476Y-40845238D01*
X56778571Y-40940476D01*
X56816666Y-41130952D01*
X56816666Y-41273809D01*
X56778571Y-41464285D01*
X56740476Y-41559523D01*
X56664285Y-41654761D01*
X56550000Y-41702380D01*
X56473809Y-41702380D01*
X56359523Y-41654761D01*
X56321428Y-41607142D01*
X56321428Y-41273809D01*
X56473809Y-41273809D01*
X55978571Y-41702380D02*
X55978571Y-40702380D01*
X55521428Y-41702380D01*
X55521428Y-40702380D01*
X55140476Y-41702380D02*
X55140476Y-40702380D01*
X54950000Y-40702380D01*
X54835714Y-40750000D01*
X54759523Y-40845238D01*
X54721428Y-40940476D01*
X54683333Y-41130952D01*
X54683333Y-41273809D01*
X54721428Y-41464285D01*
X54759523Y-41559523D01*
X54835714Y-41654761D01*
X54950000Y-41702380D01*
X55140476Y-41702380D01*
X52583333Y-43678571D02*
X52469047Y-43726190D01*
X52430952Y-43773809D01*
X52392857Y-43869047D01*
X52392857Y-44011904D01*
X52430952Y-44107142D01*
X52469047Y-44154761D01*
X52545238Y-44202380D01*
X52850000Y-44202380D01*
X52850000Y-43202380D01*
X52583333Y-43202380D01*
X52507142Y-43250000D01*
X52469047Y-43297619D01*
X52430952Y-43392857D01*
X52430952Y-43488095D01*
X52469047Y-43583333D01*
X52507142Y-43630952D01*
X52583333Y-43678571D01*
X52850000Y-43678571D01*
X52050000Y-44202380D02*
X52050000Y-43535714D01*
X52050000Y-43726190D02*
X52011904Y-43630952D01*
X51973809Y-43583333D01*
X51897619Y-43535714D01*
X51821428Y-43535714D01*
X51554761Y-44202380D02*
X51554761Y-43535714D01*
X51554761Y-43202380D02*
X51592857Y-43250000D01*
X51554761Y-43297619D01*
X51516666Y-43250000D01*
X51554761Y-43202380D01*
X51554761Y-43297619D01*
X50830952Y-43535714D02*
X50830952Y-44345238D01*
X50869047Y-44440476D01*
X50907142Y-44488095D01*
X50983333Y-44535714D01*
X51097619Y-44535714D01*
X51173809Y-44488095D01*
X50830952Y-44154761D02*
X50907142Y-44202380D01*
X51059523Y-44202380D01*
X51135714Y-44154761D01*
X51173809Y-44107142D01*
X51211904Y-44011904D01*
X51211904Y-43726190D01*
X51173809Y-43630952D01*
X51135714Y-43583333D01*
X51059523Y-43535714D01*
X50907142Y-43535714D01*
X50830952Y-43583333D01*
X50450000Y-44202380D02*
X50450000Y-43202380D01*
X50107142Y-44202380D02*
X50107142Y-43678571D01*
X50145238Y-43583333D01*
X50221428Y-43535714D01*
X50335714Y-43535714D01*
X50411904Y-43583333D01*
X50450000Y-43630952D01*
X49840476Y-43535714D02*
X49535714Y-43535714D01*
X49726190Y-43202380D02*
X49726190Y-44059523D01*
X49688095Y-44154761D01*
X49611904Y-44202380D01*
X49535714Y-44202380D01*
X49000000Y-47420000D02*
X49000000Y-42500000D01*
X51246759Y-15880911D02*
X51246759Y-8380911D01*
X57246759Y-8380911D02*
X45246759Y-8380911D01*
X45246759Y-8380911D02*
X45246759Y-13380000D01*
X51250000Y-15880911D02*
X57246759Y-15880911D01*
X57246759Y-15880911D02*
X57246759Y-8380911D01*
X45246759Y-13380911D02*
X57246759Y-13380911D01*
X57246759Y-10880911D02*
X45246759Y-10880911D01*
X44500000Y-45000000D02*
X58000000Y-45000000D01*
X58000000Y-42500000D02*
X49000000Y-42500000D01*
X58000000Y-47500000D02*
X58000000Y-41750000D01*
X44500000Y-47500000D02*
X58000000Y-47500000D01*
X44500000Y-45000000D02*
X44500000Y-47500000D01*
X57250000Y-40000000D02*
X53500000Y-40000000D01*
X53500000Y-47500000D02*
X53500000Y-40000000D01*
D12*
G04 #@! TO.C,U1*
X79130000Y-70300000D02*
X67130000Y-70300000D01*
X79130000Y-85800000D02*
X79130000Y-70300000D01*
X67130000Y-85800000D02*
X79130000Y-85800000D01*
X67130000Y-70300000D02*
X67130000Y-85800000D01*
D13*
X69880000Y-62550000D02*
X69880000Y-69050000D01*
X79880000Y-72050000D02*
X79880000Y-67050000D01*
X82380000Y-84050000D02*
X82380000Y-72050000D01*
X79880000Y-67050000D02*
X83980000Y-67050000D01*
X83980000Y-62550000D02*
X69880000Y-62550000D01*
X83980000Y-67050000D02*
X83980000Y-62550000D01*
X65880000Y-87050000D02*
X79880000Y-87050000D01*
X69880000Y-69050000D02*
X65880000Y-69050000D01*
X79880000Y-84050000D02*
X82380000Y-84050000D01*
X82380000Y-72050000D02*
X79880000Y-72050000D01*
X79880000Y-87050000D02*
X79880000Y-84050000D01*
X65880000Y-69050000D02*
X65880000Y-87050000D01*
D12*
G04 #@! TO.C,BT1*
X63814000Y-76000000D02*
X57900000Y-82400000D01*
X63941000Y-68000000D02*
X63814000Y-76000000D01*
X57900000Y-61600000D02*
X63941000Y-68000000D01*
X44000000Y-61600000D02*
X44000000Y-82400000D01*
X57900000Y-82400000D02*
X44000000Y-82400000D01*
X57900000Y-61600000D02*
X44000000Y-61600000D01*
D13*
G04 #@! TO.C,U1*
X109380000Y-69050000D02*
X109380000Y-87050000D01*
X123380000Y-87050000D02*
X123380000Y-84050000D01*
X125880000Y-72050000D02*
X123380000Y-72050000D01*
X123380000Y-84050000D02*
X125880000Y-84050000D01*
X113380000Y-69050000D02*
X109380000Y-69050000D01*
X109380000Y-87050000D02*
X123380000Y-87050000D01*
X127480000Y-67050000D02*
X127480000Y-62550000D01*
X127480000Y-62550000D02*
X113380000Y-62550000D01*
X123380000Y-67050000D02*
X127480000Y-67050000D01*
X125880000Y-84050000D02*
X125880000Y-72050000D01*
X123380000Y-72050000D02*
X123380000Y-67050000D01*
X113380000Y-62550000D02*
X113380000Y-69050000D01*
D12*
X110630000Y-70300000D02*
X110630000Y-85800000D01*
X110630000Y-85800000D02*
X122630000Y-85800000D01*
X122630000Y-85800000D02*
X122630000Y-70300000D01*
X122630000Y-70300000D02*
X110630000Y-70300000D01*
G04 #@! TO.C,BT1*
X101400000Y-61600000D02*
X87500000Y-61600000D01*
X101400000Y-82400000D02*
X87500000Y-82400000D01*
X87500000Y-61600000D02*
X87500000Y-82400000D01*
X101400000Y-61600000D02*
X107441000Y-68000000D01*
X107441000Y-68000000D02*
X107314000Y-76000000D01*
X107314000Y-76000000D02*
X101400000Y-82400000D01*
X107314000Y-32000000D02*
X101400000Y-38400000D01*
X107441000Y-24000000D02*
X107314000Y-32000000D01*
X101400000Y-17600000D02*
X107441000Y-24000000D01*
X87500000Y-17600000D02*
X87500000Y-38400000D01*
X101400000Y-38400000D02*
X87500000Y-38400000D01*
X101400000Y-17600000D02*
X87500000Y-17600000D01*
G04 #@! TO.C,U1*
X122630000Y-26300000D02*
X110630000Y-26300000D01*
X122630000Y-41800000D02*
X122630000Y-26300000D01*
X110630000Y-41800000D02*
X122630000Y-41800000D01*
X110630000Y-26300000D02*
X110630000Y-41800000D01*
D13*
X113380000Y-18550000D02*
X113380000Y-25050000D01*
X123380000Y-28050000D02*
X123380000Y-23050000D01*
X125880000Y-40050000D02*
X125880000Y-28050000D01*
X123380000Y-23050000D02*
X127480000Y-23050000D01*
X127480000Y-18550000D02*
X113380000Y-18550000D01*
X127480000Y-23050000D02*
X127480000Y-18550000D01*
X109380000Y-43050000D02*
X123380000Y-43050000D01*
X113380000Y-25050000D02*
X109380000Y-25050000D01*
X123380000Y-40050000D02*
X125880000Y-40050000D01*
X125880000Y-28050000D02*
X123380000Y-28050000D01*
X123380000Y-43050000D02*
X123380000Y-40050000D01*
X109380000Y-25050000D02*
X109380000Y-43050000D01*
X65880000Y-25050000D02*
X65880000Y-43050000D01*
X79880000Y-43050000D02*
X79880000Y-40050000D01*
X82380000Y-28050000D02*
X79880000Y-28050000D01*
X79880000Y-40050000D02*
X82380000Y-40050000D01*
X69880000Y-25050000D02*
X65880000Y-25050000D01*
X65880000Y-43050000D02*
X79880000Y-43050000D01*
X83980000Y-23050000D02*
X83980000Y-18550000D01*
X83980000Y-18550000D02*
X69880000Y-18550000D01*
X79880000Y-23050000D02*
X83980000Y-23050000D01*
X82380000Y-40050000D02*
X82380000Y-28050000D01*
X79880000Y-28050000D02*
X79880000Y-23050000D01*
X69880000Y-18550000D02*
X69880000Y-25050000D01*
D12*
X67130000Y-26300000D02*
X67130000Y-41800000D01*
X67130000Y-41800000D02*
X79130000Y-41800000D01*
X79130000Y-41800000D02*
X79130000Y-26300000D01*
X79130000Y-26300000D02*
X67130000Y-26300000D01*
G04 #@! TO.C,BT1*
X57900000Y-17600000D02*
X44000000Y-17600000D01*
X57900000Y-38400000D02*
X44000000Y-38400000D01*
X44000000Y-17600000D02*
X44000000Y-38400000D01*
X57900000Y-17600000D02*
X63941000Y-24000000D01*
X63941000Y-24000000D02*
X63814000Y-32000000D01*
X63814000Y-32000000D02*
X57900000Y-38400000D01*
G04 #@! TO.C,U1*
X69381904Y-71072380D02*
X69381904Y-71881904D01*
X69334285Y-71977142D01*
X69286666Y-72024761D01*
X69191428Y-72072380D01*
X69000952Y-72072380D01*
X68905714Y-72024761D01*
X68858095Y-71977142D01*
X68810476Y-71881904D01*
X68810476Y-71072380D01*
X67810476Y-72072380D02*
X68381904Y-72072380D01*
X68096190Y-72072380D02*
X68096190Y-71072380D01*
X68191428Y-71215238D01*
X68286666Y-71310476D01*
X68381904Y-71358095D01*
G04 #@! TO.C,BT1*
X46385714Y-62643571D02*
X46242857Y-62691190D01*
X46195238Y-62738809D01*
X46147619Y-62834047D01*
X46147619Y-62976904D01*
X46195238Y-63072142D01*
X46242857Y-63119761D01*
X46338095Y-63167380D01*
X46719047Y-63167380D01*
X46719047Y-62167380D01*
X46385714Y-62167380D01*
X46290476Y-62215000D01*
X46242857Y-62262619D01*
X46195238Y-62357857D01*
X46195238Y-62453095D01*
X46242857Y-62548333D01*
X46290476Y-62595952D01*
X46385714Y-62643571D01*
X46719047Y-62643571D01*
X45861904Y-62167380D02*
X45290476Y-62167380D01*
X45576190Y-63167380D02*
X45576190Y-62167380D01*
X44433333Y-63167380D02*
X45004761Y-63167380D01*
X44719047Y-63167380D02*
X44719047Y-62167380D01*
X44814285Y-62310238D01*
X44909523Y-62405476D01*
X45004761Y-62453095D01*
G04 #@! TO.C,U1*
X112881904Y-71072380D02*
X112881904Y-71881904D01*
X112834285Y-71977142D01*
X112786666Y-72024761D01*
X112691428Y-72072380D01*
X112500952Y-72072380D01*
X112405714Y-72024761D01*
X112358095Y-71977142D01*
X112310476Y-71881904D01*
X112310476Y-71072380D01*
X111310476Y-72072380D02*
X111881904Y-72072380D01*
X111596190Y-72072380D02*
X111596190Y-71072380D01*
X111691428Y-71215238D01*
X111786666Y-71310476D01*
X111881904Y-71358095D01*
G04 #@! TO.C,BT1*
X89885714Y-62643571D02*
X89742857Y-62691190D01*
X89695238Y-62738809D01*
X89647619Y-62834047D01*
X89647619Y-62976904D01*
X89695238Y-63072142D01*
X89742857Y-63119761D01*
X89838095Y-63167380D01*
X90219047Y-63167380D01*
X90219047Y-62167380D01*
X89885714Y-62167380D01*
X89790476Y-62215000D01*
X89742857Y-62262619D01*
X89695238Y-62357857D01*
X89695238Y-62453095D01*
X89742857Y-62548333D01*
X89790476Y-62595952D01*
X89885714Y-62643571D01*
X90219047Y-62643571D01*
X89361904Y-62167380D02*
X88790476Y-62167380D01*
X89076190Y-63167380D02*
X89076190Y-62167380D01*
X87933333Y-63167380D02*
X88504761Y-63167380D01*
X88219047Y-63167380D02*
X88219047Y-62167380D01*
X88314285Y-62310238D01*
X88409523Y-62405476D01*
X88504761Y-62453095D01*
X89885714Y-18643571D02*
X89742857Y-18691190D01*
X89695238Y-18738809D01*
X89647619Y-18834047D01*
X89647619Y-18976904D01*
X89695238Y-19072142D01*
X89742857Y-19119761D01*
X89838095Y-19167380D01*
X90219047Y-19167380D01*
X90219047Y-18167380D01*
X89885714Y-18167380D01*
X89790476Y-18215000D01*
X89742857Y-18262619D01*
X89695238Y-18357857D01*
X89695238Y-18453095D01*
X89742857Y-18548333D01*
X89790476Y-18595952D01*
X89885714Y-18643571D01*
X90219047Y-18643571D01*
X89361904Y-18167380D02*
X88790476Y-18167380D01*
X89076190Y-19167380D02*
X89076190Y-18167380D01*
X87933333Y-19167380D02*
X88504761Y-19167380D01*
X88219047Y-19167380D02*
X88219047Y-18167380D01*
X88314285Y-18310238D01*
X88409523Y-18405476D01*
X88504761Y-18453095D01*
G04 #@! TO.C,U1*
X112881904Y-27072380D02*
X112881904Y-27881904D01*
X112834285Y-27977142D01*
X112786666Y-28024761D01*
X112691428Y-28072380D01*
X112500952Y-28072380D01*
X112405714Y-28024761D01*
X112358095Y-27977142D01*
X112310476Y-27881904D01*
X112310476Y-27072380D01*
X111310476Y-28072380D02*
X111881904Y-28072380D01*
X111596190Y-28072380D02*
X111596190Y-27072380D01*
X111691428Y-27215238D01*
X111786666Y-27310476D01*
X111881904Y-27358095D01*
X69381904Y-27072380D02*
X69381904Y-27881904D01*
X69334285Y-27977142D01*
X69286666Y-28024761D01*
X69191428Y-28072380D01*
X69000952Y-28072380D01*
X68905714Y-28024761D01*
X68858095Y-27977142D01*
X68810476Y-27881904D01*
X68810476Y-27072380D01*
X67810476Y-28072380D02*
X68381904Y-28072380D01*
X68096190Y-28072380D02*
X68096190Y-27072380D01*
X68191428Y-27215238D01*
X68286666Y-27310476D01*
X68381904Y-27358095D01*
G04 #@! TO.C,BT1*
X46385714Y-18643571D02*
X46242857Y-18691190D01*
X46195238Y-18738809D01*
X46147619Y-18834047D01*
X46147619Y-18976904D01*
X46195238Y-19072142D01*
X46242857Y-19119761D01*
X46338095Y-19167380D01*
X46719047Y-19167380D01*
X46719047Y-18167380D01*
X46385714Y-18167380D01*
X46290476Y-18215000D01*
X46242857Y-18262619D01*
X46195238Y-18357857D01*
X46195238Y-18453095D01*
X46242857Y-18548333D01*
X46290476Y-18595952D01*
X46385714Y-18643571D01*
X46719047Y-18643571D01*
X45861904Y-18167380D02*
X45290476Y-18167380D01*
X45576190Y-19167380D02*
X45576190Y-18167380D01*
X44433333Y-19167380D02*
X45004761Y-19167380D01*
X44719047Y-19167380D02*
X44719047Y-18167380D01*
X44814285Y-18310238D01*
X44909523Y-18405476D01*
X45004761Y-18453095D01*
G04 #@! TD*
M02*
