G04 #@! TF.GenerationSoftware,KiCad,Pcbnew,(5.0.2)-1*
G04 #@! TF.CreationDate,2020-07-10T17:38:52+02:00*
G04 #@! TF.ProjectId,IKEA_Button2,494b4541-5f42-4757-9474-6f6e322e6b69,rev?*
G04 #@! TF.SameCoordinates,Original*
G04 #@! TF.FileFunction,Legend,Top*
G04 #@! TF.FilePolarity,Positive*
%FSLAX46Y46*%
G04 Gerber Fmt 4.6, Leading zero omitted, Abs format (unit mm)*
G04 Created by KiCad (PCBNEW (5.0.2)-1) date 10-07-2020 17:38:52*
%MOMM*%
%LPD*%
G01*
G04 APERTURE LIST*
%ADD10C,0.300000*%
%ADD11C,0.120000*%
%ADD12C,0.200000*%
%ADD13C,0.100000*%
%ADD14C,0.150000*%
G04 APERTURE END LIST*
D10*
X111785714Y-64678571D02*
X111785714Y-65678571D01*
X111428571Y-64107142D02*
X111071428Y-65178571D01*
X112000000Y-65178571D01*
X67500000Y-64178571D02*
X68428571Y-64178571D01*
X67928571Y-64750000D01*
X68142857Y-64750000D01*
X68285714Y-64821428D01*
X68357142Y-64892857D01*
X68428571Y-65035714D01*
X68428571Y-65392857D01*
X68357142Y-65535714D01*
X68285714Y-65607142D01*
X68142857Y-65678571D01*
X67714285Y-65678571D01*
X67571428Y-65607142D01*
X67500000Y-65535714D01*
X111071428Y-20321428D02*
X111142857Y-20250000D01*
X111285714Y-20178571D01*
X111642857Y-20178571D01*
X111785714Y-20250000D01*
X111857142Y-20321428D01*
X111928571Y-20464285D01*
X111928571Y-20607142D01*
X111857142Y-20821428D01*
X111000000Y-21678571D01*
X111928571Y-21678571D01*
X68428571Y-21678571D02*
X67571428Y-21678571D01*
X68000000Y-21678571D02*
X68000000Y-20178571D01*
X67857142Y-20392857D01*
X67714285Y-20535714D01*
X67571428Y-20607142D01*
D11*
X50041428Y-67318571D02*
X49984285Y-67261428D01*
X49927142Y-67090000D01*
X49927142Y-66975714D01*
X49984285Y-66804285D01*
X50098571Y-66690000D01*
X50212857Y-66632857D01*
X50441428Y-66575714D01*
X50612857Y-66575714D01*
X50841428Y-66632857D01*
X50955714Y-66690000D01*
X51070000Y-66804285D01*
X51127142Y-66975714D01*
X51127142Y-67090000D01*
X51070000Y-67261428D01*
X51012857Y-67318571D01*
X49927142Y-68804285D02*
X49927142Y-68747142D01*
X49984285Y-68632857D01*
X50155714Y-68461428D01*
X50498571Y-68175714D01*
X50670000Y-68061428D01*
X50841428Y-68004285D01*
X50955714Y-68004285D01*
X51070000Y-68061428D01*
X51127142Y-68175714D01*
X51127142Y-68232857D01*
X51070000Y-68347142D01*
X50955714Y-68404285D01*
X50898571Y-68404285D01*
X50784285Y-68347142D01*
X50727142Y-68290000D01*
X50498571Y-67947142D01*
X50441428Y-67890000D01*
X50327142Y-67832857D01*
X50155714Y-67832857D01*
X50041428Y-67890000D01*
X49984285Y-67947142D01*
X49927142Y-68061428D01*
X49927142Y-68232857D01*
X49984285Y-68347142D01*
X50041428Y-68404285D01*
X50270000Y-68575714D01*
X50441428Y-68632857D01*
X50555714Y-68632857D01*
X49927142Y-69318571D02*
X51127142Y-69318571D01*
X49927142Y-70004285D02*
X50612857Y-69490000D01*
X51127142Y-70004285D02*
X50441428Y-69318571D01*
X58757142Y-64028571D02*
X58414285Y-64942857D01*
X58071428Y-64028571D01*
X58757142Y-65514285D02*
X58414285Y-66428571D01*
X58071428Y-65514285D01*
X58757142Y-67000000D02*
X58414285Y-67914285D01*
X58071428Y-67000000D01*
X57957142Y-69400000D02*
X59157142Y-69400000D01*
X59157142Y-69857142D01*
X59100000Y-69971428D01*
X59042857Y-70028571D01*
X58928571Y-70085714D01*
X58757142Y-70085714D01*
X58642857Y-70028571D01*
X58585714Y-69971428D01*
X58528571Y-69857142D01*
X58528571Y-69400000D01*
X57957142Y-71114285D02*
X58585714Y-71114285D01*
X58700000Y-71057142D01*
X58757142Y-70942857D01*
X58757142Y-70714285D01*
X58700000Y-70600000D01*
X58014285Y-71114285D02*
X57957142Y-71000000D01*
X57957142Y-70714285D01*
X58014285Y-70600000D01*
X58128571Y-70542857D01*
X58242857Y-70542857D01*
X58357142Y-70600000D01*
X58414285Y-70714285D01*
X58414285Y-71000000D01*
X58471428Y-71114285D01*
X57957142Y-71685714D02*
X58757142Y-71685714D01*
X58528571Y-71685714D02*
X58642857Y-71742857D01*
X58700000Y-71800000D01*
X58757142Y-71914285D01*
X58757142Y-72028571D01*
X57957142Y-72428571D02*
X58757142Y-72428571D01*
X59157142Y-72428571D02*
X59100000Y-72371428D01*
X59042857Y-72428571D01*
X59100000Y-72485714D01*
X59157142Y-72428571D01*
X59042857Y-72428571D01*
X58757142Y-73000000D02*
X57957142Y-73000000D01*
X58642857Y-73000000D02*
X58700000Y-73057142D01*
X58757142Y-73171428D01*
X58757142Y-73342857D01*
X58700000Y-73457142D01*
X58585714Y-73514285D01*
X57957142Y-73514285D01*
X58757142Y-74600000D02*
X57785714Y-74600000D01*
X57671428Y-74542857D01*
X57614285Y-74485714D01*
X57557142Y-74371428D01*
X57557142Y-74200000D01*
X57614285Y-74085714D01*
X58014285Y-74600000D02*
X57957142Y-74485714D01*
X57957142Y-74257142D01*
X58014285Y-74142857D01*
X58071428Y-74085714D01*
X58185714Y-74028571D01*
X58528571Y-74028571D01*
X58642857Y-74085714D01*
X58700000Y-74142857D01*
X58757142Y-74257142D01*
X58757142Y-74485714D01*
X58700000Y-74600000D01*
X58757142Y-76085714D02*
X58414285Y-77000000D01*
X58071428Y-76085714D01*
X58757142Y-77571428D02*
X58414285Y-78485714D01*
X58071428Y-77571428D01*
X58757142Y-79057142D02*
X58414285Y-79971428D01*
X58071428Y-79057142D01*
D12*
X65410000Y-83910000D02*
X66080000Y-83910000D01*
X65730000Y-78660000D02*
X65730000Y-79330000D01*
X65390000Y-78980000D02*
X66060000Y-78980000D01*
D11*
X102257142Y-64028571D02*
X101914285Y-64942857D01*
X101571428Y-64028571D01*
X102257142Y-65514285D02*
X101914285Y-66428571D01*
X101571428Y-65514285D01*
X102257142Y-67000000D02*
X101914285Y-67914285D01*
X101571428Y-67000000D01*
X101457142Y-69400000D02*
X102657142Y-69400000D01*
X102657142Y-69857142D01*
X102600000Y-69971428D01*
X102542857Y-70028571D01*
X102428571Y-70085714D01*
X102257142Y-70085714D01*
X102142857Y-70028571D01*
X102085714Y-69971428D01*
X102028571Y-69857142D01*
X102028571Y-69400000D01*
X101457142Y-71114285D02*
X102085714Y-71114285D01*
X102200000Y-71057142D01*
X102257142Y-70942857D01*
X102257142Y-70714285D01*
X102200000Y-70600000D01*
X101514285Y-71114285D02*
X101457142Y-71000000D01*
X101457142Y-70714285D01*
X101514285Y-70600000D01*
X101628571Y-70542857D01*
X101742857Y-70542857D01*
X101857142Y-70600000D01*
X101914285Y-70714285D01*
X101914285Y-71000000D01*
X101971428Y-71114285D01*
X101457142Y-71685714D02*
X102257142Y-71685714D01*
X102028571Y-71685714D02*
X102142857Y-71742857D01*
X102200000Y-71800000D01*
X102257142Y-71914285D01*
X102257142Y-72028571D01*
X101457142Y-72428571D02*
X102257142Y-72428571D01*
X102657142Y-72428571D02*
X102600000Y-72371428D01*
X102542857Y-72428571D01*
X102600000Y-72485714D01*
X102657142Y-72428571D01*
X102542857Y-72428571D01*
X102257142Y-73000000D02*
X101457142Y-73000000D01*
X102142857Y-73000000D02*
X102200000Y-73057142D01*
X102257142Y-73171428D01*
X102257142Y-73342857D01*
X102200000Y-73457142D01*
X102085714Y-73514285D01*
X101457142Y-73514285D01*
X102257142Y-74600000D02*
X101285714Y-74600000D01*
X101171428Y-74542857D01*
X101114285Y-74485714D01*
X101057142Y-74371428D01*
X101057142Y-74200000D01*
X101114285Y-74085714D01*
X101514285Y-74600000D02*
X101457142Y-74485714D01*
X101457142Y-74257142D01*
X101514285Y-74142857D01*
X101571428Y-74085714D01*
X101685714Y-74028571D01*
X102028571Y-74028571D01*
X102142857Y-74085714D01*
X102200000Y-74142857D01*
X102257142Y-74257142D01*
X102257142Y-74485714D01*
X102200000Y-74600000D01*
X102257142Y-76085714D02*
X101914285Y-77000000D01*
X101571428Y-76085714D01*
X102257142Y-77571428D02*
X101914285Y-78485714D01*
X101571428Y-77571428D01*
X102257142Y-79057142D02*
X101914285Y-79971428D01*
X101571428Y-79057142D01*
X93541428Y-67318571D02*
X93484285Y-67261428D01*
X93427142Y-67090000D01*
X93427142Y-66975714D01*
X93484285Y-66804285D01*
X93598571Y-66690000D01*
X93712857Y-66632857D01*
X93941428Y-66575714D01*
X94112857Y-66575714D01*
X94341428Y-66632857D01*
X94455714Y-66690000D01*
X94570000Y-66804285D01*
X94627142Y-66975714D01*
X94627142Y-67090000D01*
X94570000Y-67261428D01*
X94512857Y-67318571D01*
X93427142Y-68804285D02*
X93427142Y-68747142D01*
X93484285Y-68632857D01*
X93655714Y-68461428D01*
X93998571Y-68175714D01*
X94170000Y-68061428D01*
X94341428Y-68004285D01*
X94455714Y-68004285D01*
X94570000Y-68061428D01*
X94627142Y-68175714D01*
X94627142Y-68232857D01*
X94570000Y-68347142D01*
X94455714Y-68404285D01*
X94398571Y-68404285D01*
X94284285Y-68347142D01*
X94227142Y-68290000D01*
X93998571Y-67947142D01*
X93941428Y-67890000D01*
X93827142Y-67832857D01*
X93655714Y-67832857D01*
X93541428Y-67890000D01*
X93484285Y-67947142D01*
X93427142Y-68061428D01*
X93427142Y-68232857D01*
X93484285Y-68347142D01*
X93541428Y-68404285D01*
X93770000Y-68575714D01*
X93941428Y-68632857D01*
X94055714Y-68632857D01*
X93427142Y-69318571D02*
X94627142Y-69318571D01*
X93427142Y-70004285D02*
X94112857Y-69490000D01*
X94627142Y-70004285D02*
X93941428Y-69318571D01*
D12*
X108910000Y-83910000D02*
X109580000Y-83910000D01*
X109230000Y-78660000D02*
X109230000Y-79330000D01*
X108890000Y-78980000D02*
X109560000Y-78980000D01*
X108910000Y-39910000D02*
X109580000Y-39910000D01*
X109230000Y-34660000D02*
X109230000Y-35330000D01*
X108890000Y-34980000D02*
X109560000Y-34980000D01*
D11*
X102257142Y-20028571D02*
X101914285Y-20942857D01*
X101571428Y-20028571D01*
X102257142Y-21514285D02*
X101914285Y-22428571D01*
X101571428Y-21514285D01*
X102257142Y-23000000D02*
X101914285Y-23914285D01*
X101571428Y-23000000D01*
X101457142Y-25400000D02*
X102657142Y-25400000D01*
X102657142Y-25857142D01*
X102600000Y-25971428D01*
X102542857Y-26028571D01*
X102428571Y-26085714D01*
X102257142Y-26085714D01*
X102142857Y-26028571D01*
X102085714Y-25971428D01*
X102028571Y-25857142D01*
X102028571Y-25400000D01*
X101457142Y-27114285D02*
X102085714Y-27114285D01*
X102200000Y-27057142D01*
X102257142Y-26942857D01*
X102257142Y-26714285D01*
X102200000Y-26600000D01*
X101514285Y-27114285D02*
X101457142Y-27000000D01*
X101457142Y-26714285D01*
X101514285Y-26600000D01*
X101628571Y-26542857D01*
X101742857Y-26542857D01*
X101857142Y-26600000D01*
X101914285Y-26714285D01*
X101914285Y-27000000D01*
X101971428Y-27114285D01*
X101457142Y-27685714D02*
X102257142Y-27685714D01*
X102028571Y-27685714D02*
X102142857Y-27742857D01*
X102200000Y-27800000D01*
X102257142Y-27914285D01*
X102257142Y-28028571D01*
X101457142Y-28428571D02*
X102257142Y-28428571D01*
X102657142Y-28428571D02*
X102600000Y-28371428D01*
X102542857Y-28428571D01*
X102600000Y-28485714D01*
X102657142Y-28428571D01*
X102542857Y-28428571D01*
X102257142Y-29000000D02*
X101457142Y-29000000D01*
X102142857Y-29000000D02*
X102200000Y-29057142D01*
X102257142Y-29171428D01*
X102257142Y-29342857D01*
X102200000Y-29457142D01*
X102085714Y-29514285D01*
X101457142Y-29514285D01*
X102257142Y-30600000D02*
X101285714Y-30600000D01*
X101171428Y-30542857D01*
X101114285Y-30485714D01*
X101057142Y-30371428D01*
X101057142Y-30200000D01*
X101114285Y-30085714D01*
X101514285Y-30600000D02*
X101457142Y-30485714D01*
X101457142Y-30257142D01*
X101514285Y-30142857D01*
X101571428Y-30085714D01*
X101685714Y-30028571D01*
X102028571Y-30028571D01*
X102142857Y-30085714D01*
X102200000Y-30142857D01*
X102257142Y-30257142D01*
X102257142Y-30485714D01*
X102200000Y-30600000D01*
X102257142Y-32085714D02*
X101914285Y-33000000D01*
X101571428Y-32085714D01*
X102257142Y-33571428D02*
X101914285Y-34485714D01*
X101571428Y-33571428D01*
X102257142Y-35057142D02*
X101914285Y-35971428D01*
X101571428Y-35057142D01*
X93541428Y-23318571D02*
X93484285Y-23261428D01*
X93427142Y-23090000D01*
X93427142Y-22975714D01*
X93484285Y-22804285D01*
X93598571Y-22690000D01*
X93712857Y-22632857D01*
X93941428Y-22575714D01*
X94112857Y-22575714D01*
X94341428Y-22632857D01*
X94455714Y-22690000D01*
X94570000Y-22804285D01*
X94627142Y-22975714D01*
X94627142Y-23090000D01*
X94570000Y-23261428D01*
X94512857Y-23318571D01*
X93427142Y-24804285D02*
X93427142Y-24747142D01*
X93484285Y-24632857D01*
X93655714Y-24461428D01*
X93998571Y-24175714D01*
X94170000Y-24061428D01*
X94341428Y-24004285D01*
X94455714Y-24004285D01*
X94570000Y-24061428D01*
X94627142Y-24175714D01*
X94627142Y-24232857D01*
X94570000Y-24347142D01*
X94455714Y-24404285D01*
X94398571Y-24404285D01*
X94284285Y-24347142D01*
X94227142Y-24290000D01*
X93998571Y-23947142D01*
X93941428Y-23890000D01*
X93827142Y-23832857D01*
X93655714Y-23832857D01*
X93541428Y-23890000D01*
X93484285Y-23947142D01*
X93427142Y-24061428D01*
X93427142Y-24232857D01*
X93484285Y-24347142D01*
X93541428Y-24404285D01*
X93770000Y-24575714D01*
X93941428Y-24632857D01*
X94055714Y-24632857D01*
X93427142Y-25318571D02*
X94627142Y-25318571D01*
X93427142Y-26004285D02*
X94112857Y-25490000D01*
X94627142Y-26004285D02*
X93941428Y-25318571D01*
X50041428Y-23318571D02*
X49984285Y-23261428D01*
X49927142Y-23090000D01*
X49927142Y-22975714D01*
X49984285Y-22804285D01*
X50098571Y-22690000D01*
X50212857Y-22632857D01*
X50441428Y-22575714D01*
X50612857Y-22575714D01*
X50841428Y-22632857D01*
X50955714Y-22690000D01*
X51070000Y-22804285D01*
X51127142Y-22975714D01*
X51127142Y-23090000D01*
X51070000Y-23261428D01*
X51012857Y-23318571D01*
X49927142Y-24804285D02*
X49927142Y-24747142D01*
X49984285Y-24632857D01*
X50155714Y-24461428D01*
X50498571Y-24175714D01*
X50670000Y-24061428D01*
X50841428Y-24004285D01*
X50955714Y-24004285D01*
X51070000Y-24061428D01*
X51127142Y-24175714D01*
X51127142Y-24232857D01*
X51070000Y-24347142D01*
X50955714Y-24404285D01*
X50898571Y-24404285D01*
X50784285Y-24347142D01*
X50727142Y-24290000D01*
X50498571Y-23947142D01*
X50441428Y-23890000D01*
X50327142Y-23832857D01*
X50155714Y-23832857D01*
X50041428Y-23890000D01*
X49984285Y-23947142D01*
X49927142Y-24061428D01*
X49927142Y-24232857D01*
X49984285Y-24347142D01*
X50041428Y-24404285D01*
X50270000Y-24575714D01*
X50441428Y-24632857D01*
X50555714Y-24632857D01*
X49927142Y-25318571D02*
X51127142Y-25318571D01*
X49927142Y-26004285D02*
X50612857Y-25490000D01*
X51127142Y-26004285D02*
X50441428Y-25318571D01*
X58757142Y-20028571D02*
X58414285Y-20942857D01*
X58071428Y-20028571D01*
X58757142Y-21514285D02*
X58414285Y-22428571D01*
X58071428Y-21514285D01*
X58757142Y-23000000D02*
X58414285Y-23914285D01*
X58071428Y-23000000D01*
X57957142Y-25400000D02*
X59157142Y-25400000D01*
X59157142Y-25857142D01*
X59100000Y-25971428D01*
X59042857Y-26028571D01*
X58928571Y-26085714D01*
X58757142Y-26085714D01*
X58642857Y-26028571D01*
X58585714Y-25971428D01*
X58528571Y-25857142D01*
X58528571Y-25400000D01*
X57957142Y-27114285D02*
X58585714Y-27114285D01*
X58700000Y-27057142D01*
X58757142Y-26942857D01*
X58757142Y-26714285D01*
X58700000Y-26600000D01*
X58014285Y-27114285D02*
X57957142Y-27000000D01*
X57957142Y-26714285D01*
X58014285Y-26600000D01*
X58128571Y-26542857D01*
X58242857Y-26542857D01*
X58357142Y-26600000D01*
X58414285Y-26714285D01*
X58414285Y-27000000D01*
X58471428Y-27114285D01*
X57957142Y-27685714D02*
X58757142Y-27685714D01*
X58528571Y-27685714D02*
X58642857Y-27742857D01*
X58700000Y-27800000D01*
X58757142Y-27914285D01*
X58757142Y-28028571D01*
X57957142Y-28428571D02*
X58757142Y-28428571D01*
X59157142Y-28428571D02*
X59100000Y-28371428D01*
X59042857Y-28428571D01*
X59100000Y-28485714D01*
X59157142Y-28428571D01*
X59042857Y-28428571D01*
X58757142Y-29000000D02*
X57957142Y-29000000D01*
X58642857Y-29000000D02*
X58700000Y-29057142D01*
X58757142Y-29171428D01*
X58757142Y-29342857D01*
X58700000Y-29457142D01*
X58585714Y-29514285D01*
X57957142Y-29514285D01*
X58757142Y-30600000D02*
X57785714Y-30600000D01*
X57671428Y-30542857D01*
X57614285Y-30485714D01*
X57557142Y-30371428D01*
X57557142Y-30200000D01*
X57614285Y-30085714D01*
X58014285Y-30600000D02*
X57957142Y-30485714D01*
X57957142Y-30257142D01*
X58014285Y-30142857D01*
X58071428Y-30085714D01*
X58185714Y-30028571D01*
X58528571Y-30028571D01*
X58642857Y-30085714D01*
X58700000Y-30142857D01*
X58757142Y-30257142D01*
X58757142Y-30485714D01*
X58700000Y-30600000D01*
X58757142Y-32085714D02*
X58414285Y-33000000D01*
X58071428Y-32085714D01*
X58757142Y-33571428D02*
X58414285Y-34485714D01*
X58071428Y-33571428D01*
X58757142Y-35057142D02*
X58414285Y-35971428D01*
X58071428Y-35057142D01*
D12*
X65730000Y-34660000D02*
X65730000Y-35330000D01*
X65390000Y-34980000D02*
X66060000Y-34980000D01*
X65410000Y-39910000D02*
X66080000Y-39910000D01*
D11*
G04 #@! TO.C,S3*
X47350000Y-91650000D02*
X47350000Y-92100000D01*
X47350000Y-92100000D02*
X53650000Y-92100000D01*
X53650000Y-92100000D02*
X53650000Y-91700000D01*
X47350000Y-90350000D02*
X47350000Y-87650000D01*
X53650000Y-87650000D02*
X53650000Y-90350000D01*
X47350000Y-85900000D02*
X53650000Y-85900000D01*
X53650000Y-85900000D02*
X53650000Y-86350000D01*
X47350000Y-86350000D02*
X47350000Y-85900000D01*
G04 #@! TO.C,S2*
X74350000Y-91650000D02*
X74350000Y-92100000D01*
X74350000Y-92100000D02*
X80650000Y-92100000D01*
X80650000Y-92100000D02*
X80650000Y-91700000D01*
X74350000Y-90350000D02*
X74350000Y-87650000D01*
X80650000Y-87650000D02*
X80650000Y-90350000D01*
X74350000Y-85900000D02*
X80650000Y-85900000D01*
X80650000Y-85900000D02*
X80650000Y-86350000D01*
X74350000Y-86350000D02*
X74350000Y-85900000D01*
G04 #@! TO.C,S1*
X74350000Y-57650000D02*
X74350000Y-58100000D01*
X74350000Y-58100000D02*
X80650000Y-58100000D01*
X80650000Y-58100000D02*
X80650000Y-57700000D01*
X74350000Y-56350000D02*
X74350000Y-53650000D01*
X80650000Y-53650000D02*
X80650000Y-56350000D01*
X74350000Y-51900000D02*
X80650000Y-51900000D01*
X80650000Y-51900000D02*
X80650000Y-52350000D01*
X74350000Y-52350000D02*
X74350000Y-51900000D01*
G04 #@! TO.C,S4*
X53650000Y-52350000D02*
X53650000Y-51900000D01*
X53650000Y-51900000D02*
X47350000Y-51900000D01*
X47350000Y-51900000D02*
X47350000Y-52300000D01*
X53650000Y-53650000D02*
X53650000Y-56350000D01*
X47350000Y-56350000D02*
X47350000Y-53650000D01*
X53650000Y-58100000D02*
X47350000Y-58100000D01*
X47350000Y-58100000D02*
X47350000Y-57650000D01*
X53650000Y-57650000D02*
X53650000Y-58100000D01*
G04 #@! TO.C,S2*
X117850000Y-91650000D02*
X117850000Y-92100000D01*
X117850000Y-92100000D02*
X124150000Y-92100000D01*
X124150000Y-92100000D02*
X124150000Y-91700000D01*
X117850000Y-90350000D02*
X117850000Y-87650000D01*
X124150000Y-87650000D02*
X124150000Y-90350000D01*
X117850000Y-85900000D02*
X124150000Y-85900000D01*
X124150000Y-85900000D02*
X124150000Y-86350000D01*
X117850000Y-86350000D02*
X117850000Y-85900000D01*
G04 #@! TO.C,S1*
X117850000Y-57650000D02*
X117850000Y-58100000D01*
X117850000Y-58100000D02*
X124150000Y-58100000D01*
X124150000Y-58100000D02*
X124150000Y-57700000D01*
X117850000Y-56350000D02*
X117850000Y-53650000D01*
X124150000Y-53650000D02*
X124150000Y-56350000D01*
X117850000Y-51900000D02*
X124150000Y-51900000D01*
X124150000Y-51900000D02*
X124150000Y-52350000D01*
X117850000Y-52350000D02*
X117850000Y-51900000D01*
G04 #@! TO.C,S4*
X97150000Y-52350000D02*
X97150000Y-51900000D01*
X97150000Y-51900000D02*
X90850000Y-51900000D01*
X90850000Y-51900000D02*
X90850000Y-52300000D01*
X97150000Y-53650000D02*
X97150000Y-56350000D01*
X90850000Y-56350000D02*
X90850000Y-53650000D01*
X97150000Y-58100000D02*
X90850000Y-58100000D01*
X90850000Y-58100000D02*
X90850000Y-57650000D01*
X97150000Y-57650000D02*
X97150000Y-58100000D01*
G04 #@! TO.C,S3*
X90850000Y-91650000D02*
X90850000Y-92100000D01*
X90850000Y-92100000D02*
X97150000Y-92100000D01*
X97150000Y-92100000D02*
X97150000Y-91700000D01*
X90850000Y-90350000D02*
X90850000Y-87650000D01*
X97150000Y-87650000D02*
X97150000Y-90350000D01*
X90850000Y-85900000D02*
X97150000Y-85900000D01*
X97150000Y-85900000D02*
X97150000Y-86350000D01*
X90850000Y-86350000D02*
X90850000Y-85900000D01*
G04 #@! TO.C,S4*
X97150000Y-8350000D02*
X97150000Y-7900000D01*
X97150000Y-7900000D02*
X90850000Y-7900000D01*
X90850000Y-7900000D02*
X90850000Y-8300000D01*
X97150000Y-9650000D02*
X97150000Y-12350000D01*
X90850000Y-12350000D02*
X90850000Y-9650000D01*
X97150000Y-14100000D02*
X90850000Y-14100000D01*
X90850000Y-14100000D02*
X90850000Y-13650000D01*
X97150000Y-13650000D02*
X97150000Y-14100000D01*
G04 #@! TO.C,S3*
X90850000Y-47650000D02*
X90850000Y-48100000D01*
X90850000Y-48100000D02*
X97150000Y-48100000D01*
X97150000Y-48100000D02*
X97150000Y-47700000D01*
X90850000Y-46350000D02*
X90850000Y-43650000D01*
X97150000Y-43650000D02*
X97150000Y-46350000D01*
X90850000Y-41900000D02*
X97150000Y-41900000D01*
X97150000Y-41900000D02*
X97150000Y-42350000D01*
X90850000Y-42350000D02*
X90850000Y-41900000D01*
G04 #@! TO.C,S2*
X117850000Y-47650000D02*
X117850000Y-48100000D01*
X117850000Y-48100000D02*
X124150000Y-48100000D01*
X124150000Y-48100000D02*
X124150000Y-47700000D01*
X117850000Y-46350000D02*
X117850000Y-43650000D01*
X124150000Y-43650000D02*
X124150000Y-46350000D01*
X117850000Y-41900000D02*
X124150000Y-41900000D01*
X124150000Y-41900000D02*
X124150000Y-42350000D01*
X117850000Y-42350000D02*
X117850000Y-41900000D01*
G04 #@! TO.C,S1*
X117850000Y-13650000D02*
X117850000Y-14100000D01*
X117850000Y-14100000D02*
X124150000Y-14100000D01*
X124150000Y-14100000D02*
X124150000Y-13700000D01*
X117850000Y-12350000D02*
X117850000Y-9650000D01*
X124150000Y-9650000D02*
X124150000Y-12350000D01*
X117850000Y-7900000D02*
X124150000Y-7900000D01*
X124150000Y-7900000D02*
X124150000Y-8350000D01*
X117850000Y-8350000D02*
X117850000Y-7900000D01*
G04 #@! TO.C,S4*
X53650000Y-8350000D02*
X53650000Y-7900000D01*
X53650000Y-7900000D02*
X47350000Y-7900000D01*
X47350000Y-7900000D02*
X47350000Y-8300000D01*
X53650000Y-9650000D02*
X53650000Y-12350000D01*
X47350000Y-12350000D02*
X47350000Y-9650000D01*
X53650000Y-14100000D02*
X47350000Y-14100000D01*
X47350000Y-14100000D02*
X47350000Y-13650000D01*
X53650000Y-13650000D02*
X53650000Y-14100000D01*
G04 #@! TO.C,S3*
X47350000Y-47650000D02*
X47350000Y-48100000D01*
X47350000Y-48100000D02*
X53650000Y-48100000D01*
X53650000Y-48100000D02*
X53650000Y-47700000D01*
X47350000Y-46350000D02*
X47350000Y-43650000D01*
X53650000Y-43650000D02*
X53650000Y-46350000D01*
X47350000Y-41900000D02*
X53650000Y-41900000D01*
X53650000Y-41900000D02*
X53650000Y-42350000D01*
X47350000Y-42350000D02*
X47350000Y-41900000D01*
G04 #@! TO.C,S2*
X74350000Y-47650000D02*
X74350000Y-48100000D01*
X74350000Y-48100000D02*
X80650000Y-48100000D01*
X80650000Y-48100000D02*
X80650000Y-47700000D01*
X74350000Y-46350000D02*
X74350000Y-43650000D01*
X80650000Y-43650000D02*
X80650000Y-46350000D01*
X74350000Y-41900000D02*
X80650000Y-41900000D01*
X80650000Y-41900000D02*
X80650000Y-42350000D01*
X74350000Y-42350000D02*
X74350000Y-41900000D01*
G04 #@! TO.C,S1*
X74350000Y-13650000D02*
X74350000Y-14100000D01*
X74350000Y-14100000D02*
X80650000Y-14100000D01*
X80650000Y-14100000D02*
X80650000Y-13700000D01*
X74350000Y-12350000D02*
X74350000Y-9650000D01*
X80650000Y-9650000D02*
X80650000Y-12350000D01*
X74350000Y-7900000D02*
X80650000Y-7900000D01*
X80650000Y-7900000D02*
X80650000Y-8350000D01*
X74350000Y-8350000D02*
X74350000Y-7900000D01*
G04 #@! TO.C,S5*
X61350000Y-75150000D02*
X60900000Y-75150000D01*
X60900000Y-68850000D02*
X61350000Y-68850000D01*
X60900000Y-75150000D02*
X60900000Y-68850000D01*
X62650000Y-68850000D02*
X65350000Y-68850000D01*
X65350000Y-75150000D02*
X62650000Y-75150000D01*
X67100000Y-68850000D02*
X66700000Y-68850000D01*
X67100000Y-75150000D02*
X67100000Y-68850000D01*
X66650000Y-75150000D02*
X67100000Y-75150000D01*
G04 #@! TO.C,R2*
X79903011Y-81730911D02*
X79380507Y-81730911D01*
X79903011Y-83150911D02*
X79380507Y-83150911D01*
G04 #@! TO.C,R1*
X79933011Y-74050911D02*
X79410507Y-74050911D01*
X79933011Y-72630911D02*
X79410507Y-72630911D01*
G04 #@! TO.C,R6*
X74188748Y-78660000D02*
X74711252Y-78660000D01*
X74188748Y-77240000D02*
X74711252Y-77240000D01*
G04 #@! TO.C,R3*
X47828748Y-82465000D02*
X48351252Y-82465000D01*
X47828748Y-83885000D02*
X48351252Y-83885000D01*
G04 #@! TO.C,R4*
X47788748Y-61265000D02*
X48311252Y-61265000D01*
X47788748Y-59845000D02*
X48311252Y-59845000D01*
G04 #@! TO.C,Q1*
X73720000Y-72900000D02*
X75180000Y-72900000D01*
X73720000Y-76060000D02*
X76880000Y-76060000D01*
X73720000Y-76060000D02*
X73720000Y-75130000D01*
X73720000Y-72900000D02*
X73720000Y-73830000D01*
G04 #@! TO.C,D1*
X66710000Y-83260000D02*
X66710000Y-80400000D01*
X64790000Y-83260000D02*
X66710000Y-83260000D01*
X64790000Y-80400000D02*
X64790000Y-83260000D01*
G04 #@! TO.C,C1*
X79943011Y-75680911D02*
X79420507Y-75680911D01*
X79943011Y-77100911D02*
X79420507Y-77100911D01*
G04 #@! TO.C,C2*
X79950252Y-80010000D02*
X79427748Y-80010000D01*
X79950252Y-78590000D02*
X79427748Y-78590000D01*
G04 #@! TO.C,C4*
X47838748Y-64440000D02*
X48361252Y-64440000D01*
X47838748Y-63020000D02*
X48361252Y-63020000D01*
G04 #@! TO.C,C3*
X47828748Y-79290000D02*
X48351252Y-79290000D01*
X47828748Y-80710000D02*
X48351252Y-80710000D01*
G04 #@! TO.C,C5*
X74711252Y-80115000D02*
X74188748Y-80115000D01*
X74711252Y-81535000D02*
X74188748Y-81535000D01*
D13*
G04 #@! TO.C,S6*
X52300000Y-76900000D02*
X52300000Y-78500000D01*
X52300000Y-78500000D02*
X48700000Y-78500000D01*
X48700000Y-78500000D02*
X48700000Y-76900000D01*
X48700000Y-73100000D02*
X48700000Y-70900000D01*
X52300000Y-73100000D02*
X52300000Y-70800000D01*
X48700000Y-67100000D02*
X48700000Y-65500000D01*
X48700000Y-65500000D02*
X52300000Y-65500000D01*
X52300000Y-65500000D02*
X52300000Y-67100000D01*
D12*
X53500000Y-77400000D02*
X53500000Y-77400000D01*
X53500000Y-77200000D02*
X53500000Y-77200000D01*
X53500000Y-77200000D02*
G75*
G02X53500000Y-77400000I0J-100000D01*
G01*
X53500000Y-77400000D02*
G75*
G02X53500000Y-77200000I0J100000D01*
G01*
D11*
G04 #@! TO.C,R5*
X74706252Y-83190000D02*
X74183748Y-83190000D01*
X74706252Y-84610000D02*
X74183748Y-84610000D01*
G04 #@! TO.C,S5*
X110150000Y-75150000D02*
X110600000Y-75150000D01*
X110600000Y-75150000D02*
X110600000Y-68850000D01*
X110600000Y-68850000D02*
X110200000Y-68850000D01*
X108850000Y-75150000D02*
X106150000Y-75150000D01*
X106150000Y-68850000D02*
X108850000Y-68850000D01*
X104400000Y-75150000D02*
X104400000Y-68850000D01*
X104400000Y-68850000D02*
X104850000Y-68850000D01*
X104850000Y-75150000D02*
X104400000Y-75150000D01*
G04 #@! TO.C,R2*
X123403011Y-83150911D02*
X122880507Y-83150911D01*
X123403011Y-81730911D02*
X122880507Y-81730911D01*
G04 #@! TO.C,R1*
X123433011Y-72630911D02*
X122910507Y-72630911D01*
X123433011Y-74050911D02*
X122910507Y-74050911D01*
G04 #@! TO.C,R6*
X117688748Y-77240000D02*
X118211252Y-77240000D01*
X117688748Y-78660000D02*
X118211252Y-78660000D01*
G04 #@! TO.C,R3*
X91328748Y-83885000D02*
X91851252Y-83885000D01*
X91328748Y-82465000D02*
X91851252Y-82465000D01*
G04 #@! TO.C,R4*
X91288748Y-59845000D02*
X91811252Y-59845000D01*
X91288748Y-61265000D02*
X91811252Y-61265000D01*
G04 #@! TO.C,Q1*
X117220000Y-72900000D02*
X117220000Y-73830000D01*
X117220000Y-76060000D02*
X117220000Y-75130000D01*
X117220000Y-76060000D02*
X120380000Y-76060000D01*
X117220000Y-72900000D02*
X118680000Y-72900000D01*
G04 #@! TO.C,D1*
X108290000Y-80400000D02*
X108290000Y-83260000D01*
X108290000Y-83260000D02*
X110210000Y-83260000D01*
X110210000Y-83260000D02*
X110210000Y-80400000D01*
G04 #@! TO.C,C1*
X123443011Y-77100911D02*
X122920507Y-77100911D01*
X123443011Y-75680911D02*
X122920507Y-75680911D01*
G04 #@! TO.C,C2*
X123450252Y-78590000D02*
X122927748Y-78590000D01*
X123450252Y-80010000D02*
X122927748Y-80010000D01*
G04 #@! TO.C,C4*
X91338748Y-63020000D02*
X91861252Y-63020000D01*
X91338748Y-64440000D02*
X91861252Y-64440000D01*
G04 #@! TO.C,C3*
X91328748Y-80710000D02*
X91851252Y-80710000D01*
X91328748Y-79290000D02*
X91851252Y-79290000D01*
G04 #@! TO.C,C5*
X118211252Y-81535000D02*
X117688748Y-81535000D01*
X118211252Y-80115000D02*
X117688748Y-80115000D01*
D12*
G04 #@! TO.C,S6*
X97000000Y-77400000D02*
G75*
G02X97000000Y-77200000I0J100000D01*
G01*
X97000000Y-77200000D02*
G75*
G02X97000000Y-77400000I0J-100000D01*
G01*
X97000000Y-77200000D02*
X97000000Y-77200000D01*
X97000000Y-77400000D02*
X97000000Y-77400000D01*
D13*
X95800000Y-65500000D02*
X95800000Y-67100000D01*
X92200000Y-65500000D02*
X95800000Y-65500000D01*
X92200000Y-67100000D02*
X92200000Y-65500000D01*
X95800000Y-73100000D02*
X95800000Y-70800000D01*
X92200000Y-73100000D02*
X92200000Y-70900000D01*
X92200000Y-78500000D02*
X92200000Y-76900000D01*
X95800000Y-78500000D02*
X92200000Y-78500000D01*
X95800000Y-76900000D02*
X95800000Y-78500000D01*
D11*
G04 #@! TO.C,R5*
X118206252Y-84610000D02*
X117683748Y-84610000D01*
X118206252Y-83190000D02*
X117683748Y-83190000D01*
G04 #@! TO.C,S5*
X104850000Y-31150000D02*
X104400000Y-31150000D01*
X104400000Y-24850000D02*
X104850000Y-24850000D01*
X104400000Y-31150000D02*
X104400000Y-24850000D01*
X106150000Y-24850000D02*
X108850000Y-24850000D01*
X108850000Y-31150000D02*
X106150000Y-31150000D01*
X110600000Y-24850000D02*
X110200000Y-24850000D01*
X110600000Y-31150000D02*
X110600000Y-24850000D01*
X110150000Y-31150000D02*
X110600000Y-31150000D01*
G04 #@! TO.C,R2*
X123403011Y-37730911D02*
X122880507Y-37730911D01*
X123403011Y-39150911D02*
X122880507Y-39150911D01*
G04 #@! TO.C,R1*
X123433011Y-30050911D02*
X122910507Y-30050911D01*
X123433011Y-28630911D02*
X122910507Y-28630911D01*
G04 #@! TO.C,R6*
X117688748Y-34660000D02*
X118211252Y-34660000D01*
X117688748Y-33240000D02*
X118211252Y-33240000D01*
G04 #@! TO.C,R3*
X91328748Y-38465000D02*
X91851252Y-38465000D01*
X91328748Y-39885000D02*
X91851252Y-39885000D01*
G04 #@! TO.C,R4*
X91288748Y-17265000D02*
X91811252Y-17265000D01*
X91288748Y-15845000D02*
X91811252Y-15845000D01*
G04 #@! TO.C,Q1*
X117220000Y-28900000D02*
X118680000Y-28900000D01*
X117220000Y-32060000D02*
X120380000Y-32060000D01*
X117220000Y-32060000D02*
X117220000Y-31130000D01*
X117220000Y-28900000D02*
X117220000Y-29830000D01*
G04 #@! TO.C,D1*
X110210000Y-39260000D02*
X110210000Y-36400000D01*
X108290000Y-39260000D02*
X110210000Y-39260000D01*
X108290000Y-36400000D02*
X108290000Y-39260000D01*
G04 #@! TO.C,C1*
X123443011Y-31680911D02*
X122920507Y-31680911D01*
X123443011Y-33100911D02*
X122920507Y-33100911D01*
G04 #@! TO.C,C2*
X123450252Y-36010000D02*
X122927748Y-36010000D01*
X123450252Y-34590000D02*
X122927748Y-34590000D01*
G04 #@! TO.C,C4*
X91338748Y-20440000D02*
X91861252Y-20440000D01*
X91338748Y-19020000D02*
X91861252Y-19020000D01*
G04 #@! TO.C,C3*
X91328748Y-35290000D02*
X91851252Y-35290000D01*
X91328748Y-36710000D02*
X91851252Y-36710000D01*
G04 #@! TO.C,C5*
X118211252Y-36115000D02*
X117688748Y-36115000D01*
X118211252Y-37535000D02*
X117688748Y-37535000D01*
D13*
G04 #@! TO.C,S6*
X95800000Y-32900000D02*
X95800000Y-34500000D01*
X95800000Y-34500000D02*
X92200000Y-34500000D01*
X92200000Y-34500000D02*
X92200000Y-32900000D01*
X92200000Y-29100000D02*
X92200000Y-26900000D01*
X95800000Y-29100000D02*
X95800000Y-26800000D01*
X92200000Y-23100000D02*
X92200000Y-21500000D01*
X92200000Y-21500000D02*
X95800000Y-21500000D01*
X95800000Y-21500000D02*
X95800000Y-23100000D01*
D12*
X97000000Y-33400000D02*
X97000000Y-33400000D01*
X97000000Y-33200000D02*
X97000000Y-33200000D01*
X97000000Y-33200000D02*
G75*
G02X97000000Y-33400000I0J-100000D01*
G01*
X97000000Y-33400000D02*
G75*
G02X97000000Y-33200000I0J100000D01*
G01*
D11*
G04 #@! TO.C,R5*
X118206252Y-39190000D02*
X117683748Y-39190000D01*
X118206252Y-40610000D02*
X117683748Y-40610000D01*
D12*
G04 #@! TO.C,S6*
X53500000Y-33400000D02*
G75*
G02X53500000Y-33200000I0J100000D01*
G01*
X53500000Y-33200000D02*
G75*
G02X53500000Y-33400000I0J-100000D01*
G01*
X53500000Y-33200000D02*
X53500000Y-33200000D01*
X53500000Y-33400000D02*
X53500000Y-33400000D01*
D13*
X52300000Y-21500000D02*
X52300000Y-23100000D01*
X48700000Y-21500000D02*
X52300000Y-21500000D01*
X48700000Y-23100000D02*
X48700000Y-21500000D01*
X52300000Y-29100000D02*
X52300000Y-26800000D01*
X48700000Y-29100000D02*
X48700000Y-26900000D01*
X48700000Y-34500000D02*
X48700000Y-32900000D01*
X52300000Y-34500000D02*
X48700000Y-34500000D01*
X52300000Y-32900000D02*
X52300000Y-34500000D01*
D11*
G04 #@! TO.C,S5*
X66650000Y-31150000D02*
X67100000Y-31150000D01*
X67100000Y-31150000D02*
X67100000Y-24850000D01*
X67100000Y-24850000D02*
X66700000Y-24850000D01*
X65350000Y-31150000D02*
X62650000Y-31150000D01*
X62650000Y-24850000D02*
X65350000Y-24850000D01*
X60900000Y-31150000D02*
X60900000Y-24850000D01*
X60900000Y-24850000D02*
X61350000Y-24850000D01*
X61350000Y-31150000D02*
X60900000Y-31150000D01*
G04 #@! TO.C,R2*
X79903011Y-39150911D02*
X79380507Y-39150911D01*
X79903011Y-37730911D02*
X79380507Y-37730911D01*
G04 #@! TO.C,R1*
X79933011Y-28630911D02*
X79410507Y-28630911D01*
X79933011Y-30050911D02*
X79410507Y-30050911D01*
G04 #@! TO.C,R6*
X74188748Y-33240000D02*
X74711252Y-33240000D01*
X74188748Y-34660000D02*
X74711252Y-34660000D01*
G04 #@! TO.C,R3*
X47828748Y-39885000D02*
X48351252Y-39885000D01*
X47828748Y-38465000D02*
X48351252Y-38465000D01*
G04 #@! TO.C,R4*
X47788748Y-15845000D02*
X48311252Y-15845000D01*
X47788748Y-17265000D02*
X48311252Y-17265000D01*
G04 #@! TO.C,Q1*
X73720000Y-28900000D02*
X73720000Y-29830000D01*
X73720000Y-32060000D02*
X73720000Y-31130000D01*
X73720000Y-32060000D02*
X76880000Y-32060000D01*
X73720000Y-28900000D02*
X75180000Y-28900000D01*
G04 #@! TO.C,D1*
X64790000Y-36400000D02*
X64790000Y-39260000D01*
X64790000Y-39260000D02*
X66710000Y-39260000D01*
X66710000Y-39260000D02*
X66710000Y-36400000D01*
G04 #@! TO.C,C1*
X79943011Y-33100911D02*
X79420507Y-33100911D01*
X79943011Y-31680911D02*
X79420507Y-31680911D01*
G04 #@! TO.C,C2*
X79950252Y-34590000D02*
X79427748Y-34590000D01*
X79950252Y-36010000D02*
X79427748Y-36010000D01*
G04 #@! TO.C,C4*
X47838748Y-19020000D02*
X48361252Y-19020000D01*
X47838748Y-20440000D02*
X48361252Y-20440000D01*
G04 #@! TO.C,C3*
X47828748Y-36710000D02*
X48351252Y-36710000D01*
X47828748Y-35290000D02*
X48351252Y-35290000D01*
G04 #@! TO.C,C5*
X74711252Y-37535000D02*
X74188748Y-37535000D01*
X74711252Y-36115000D02*
X74188748Y-36115000D01*
G04 #@! TO.C,R5*
X74706252Y-40610000D02*
X74183748Y-40610000D01*
X74706252Y-39190000D02*
X74183748Y-39190000D01*
G04 #@! TO.C,S3*
D14*
X49738095Y-89404761D02*
X49880952Y-89452380D01*
X50119047Y-89452380D01*
X50214285Y-89404761D01*
X50261904Y-89357142D01*
X50309523Y-89261904D01*
X50309523Y-89166666D01*
X50261904Y-89071428D01*
X50214285Y-89023809D01*
X50119047Y-88976190D01*
X49928571Y-88928571D01*
X49833333Y-88880952D01*
X49785714Y-88833333D01*
X49738095Y-88738095D01*
X49738095Y-88642857D01*
X49785714Y-88547619D01*
X49833333Y-88500000D01*
X49928571Y-88452380D01*
X50166666Y-88452380D01*
X50309523Y-88500000D01*
X50642857Y-88452380D02*
X51261904Y-88452380D01*
X50928571Y-88833333D01*
X51071428Y-88833333D01*
X51166666Y-88880952D01*
X51214285Y-88928571D01*
X51261904Y-89023809D01*
X51261904Y-89261904D01*
X51214285Y-89357142D01*
X51166666Y-89404761D01*
X51071428Y-89452380D01*
X50785714Y-89452380D01*
X50690476Y-89404761D01*
X50642857Y-89357142D01*
G04 #@! TO.C,S2*
X76738095Y-89404761D02*
X76880952Y-89452380D01*
X77119047Y-89452380D01*
X77214285Y-89404761D01*
X77261904Y-89357142D01*
X77309523Y-89261904D01*
X77309523Y-89166666D01*
X77261904Y-89071428D01*
X77214285Y-89023809D01*
X77119047Y-88976190D01*
X76928571Y-88928571D01*
X76833333Y-88880952D01*
X76785714Y-88833333D01*
X76738095Y-88738095D01*
X76738095Y-88642857D01*
X76785714Y-88547619D01*
X76833333Y-88500000D01*
X76928571Y-88452380D01*
X77166666Y-88452380D01*
X77309523Y-88500000D01*
X77690476Y-88547619D02*
X77738095Y-88500000D01*
X77833333Y-88452380D01*
X78071428Y-88452380D01*
X78166666Y-88500000D01*
X78214285Y-88547619D01*
X78261904Y-88642857D01*
X78261904Y-88738095D01*
X78214285Y-88880952D01*
X77642857Y-89452380D01*
X78261904Y-89452380D01*
G04 #@! TO.C,S1*
X76738095Y-55404761D02*
X76880952Y-55452380D01*
X77119047Y-55452380D01*
X77214285Y-55404761D01*
X77261904Y-55357142D01*
X77309523Y-55261904D01*
X77309523Y-55166666D01*
X77261904Y-55071428D01*
X77214285Y-55023809D01*
X77119047Y-54976190D01*
X76928571Y-54928571D01*
X76833333Y-54880952D01*
X76785714Y-54833333D01*
X76738095Y-54738095D01*
X76738095Y-54642857D01*
X76785714Y-54547619D01*
X76833333Y-54500000D01*
X76928571Y-54452380D01*
X77166666Y-54452380D01*
X77309523Y-54500000D01*
X78261904Y-55452380D02*
X77690476Y-55452380D01*
X77976190Y-55452380D02*
X77976190Y-54452380D01*
X77880952Y-54595238D01*
X77785714Y-54690476D01*
X77690476Y-54738095D01*
G04 #@! TO.C,S4*
X49738095Y-55404761D02*
X49880952Y-55452380D01*
X50119047Y-55452380D01*
X50214285Y-55404761D01*
X50261904Y-55357142D01*
X50309523Y-55261904D01*
X50309523Y-55166666D01*
X50261904Y-55071428D01*
X50214285Y-55023809D01*
X50119047Y-54976190D01*
X49928571Y-54928571D01*
X49833333Y-54880952D01*
X49785714Y-54833333D01*
X49738095Y-54738095D01*
X49738095Y-54642857D01*
X49785714Y-54547619D01*
X49833333Y-54500000D01*
X49928571Y-54452380D01*
X50166666Y-54452380D01*
X50309523Y-54500000D01*
X51166666Y-54785714D02*
X51166666Y-55452380D01*
X50928571Y-54404761D02*
X50690476Y-55119047D01*
X51309523Y-55119047D01*
G04 #@! TO.C,S2*
X120238095Y-89404761D02*
X120380952Y-89452380D01*
X120619047Y-89452380D01*
X120714285Y-89404761D01*
X120761904Y-89357142D01*
X120809523Y-89261904D01*
X120809523Y-89166666D01*
X120761904Y-89071428D01*
X120714285Y-89023809D01*
X120619047Y-88976190D01*
X120428571Y-88928571D01*
X120333333Y-88880952D01*
X120285714Y-88833333D01*
X120238095Y-88738095D01*
X120238095Y-88642857D01*
X120285714Y-88547619D01*
X120333333Y-88500000D01*
X120428571Y-88452380D01*
X120666666Y-88452380D01*
X120809523Y-88500000D01*
X121190476Y-88547619D02*
X121238095Y-88500000D01*
X121333333Y-88452380D01*
X121571428Y-88452380D01*
X121666666Y-88500000D01*
X121714285Y-88547619D01*
X121761904Y-88642857D01*
X121761904Y-88738095D01*
X121714285Y-88880952D01*
X121142857Y-89452380D01*
X121761904Y-89452380D01*
G04 #@! TO.C,S1*
X120238095Y-55404761D02*
X120380952Y-55452380D01*
X120619047Y-55452380D01*
X120714285Y-55404761D01*
X120761904Y-55357142D01*
X120809523Y-55261904D01*
X120809523Y-55166666D01*
X120761904Y-55071428D01*
X120714285Y-55023809D01*
X120619047Y-54976190D01*
X120428571Y-54928571D01*
X120333333Y-54880952D01*
X120285714Y-54833333D01*
X120238095Y-54738095D01*
X120238095Y-54642857D01*
X120285714Y-54547619D01*
X120333333Y-54500000D01*
X120428571Y-54452380D01*
X120666666Y-54452380D01*
X120809523Y-54500000D01*
X121761904Y-55452380D02*
X121190476Y-55452380D01*
X121476190Y-55452380D02*
X121476190Y-54452380D01*
X121380952Y-54595238D01*
X121285714Y-54690476D01*
X121190476Y-54738095D01*
G04 #@! TO.C,S4*
X93238095Y-55404761D02*
X93380952Y-55452380D01*
X93619047Y-55452380D01*
X93714285Y-55404761D01*
X93761904Y-55357142D01*
X93809523Y-55261904D01*
X93809523Y-55166666D01*
X93761904Y-55071428D01*
X93714285Y-55023809D01*
X93619047Y-54976190D01*
X93428571Y-54928571D01*
X93333333Y-54880952D01*
X93285714Y-54833333D01*
X93238095Y-54738095D01*
X93238095Y-54642857D01*
X93285714Y-54547619D01*
X93333333Y-54500000D01*
X93428571Y-54452380D01*
X93666666Y-54452380D01*
X93809523Y-54500000D01*
X94666666Y-54785714D02*
X94666666Y-55452380D01*
X94428571Y-54404761D02*
X94190476Y-55119047D01*
X94809523Y-55119047D01*
G04 #@! TO.C,S3*
X93238095Y-89404761D02*
X93380952Y-89452380D01*
X93619047Y-89452380D01*
X93714285Y-89404761D01*
X93761904Y-89357142D01*
X93809523Y-89261904D01*
X93809523Y-89166666D01*
X93761904Y-89071428D01*
X93714285Y-89023809D01*
X93619047Y-88976190D01*
X93428571Y-88928571D01*
X93333333Y-88880952D01*
X93285714Y-88833333D01*
X93238095Y-88738095D01*
X93238095Y-88642857D01*
X93285714Y-88547619D01*
X93333333Y-88500000D01*
X93428571Y-88452380D01*
X93666666Y-88452380D01*
X93809523Y-88500000D01*
X94142857Y-88452380D02*
X94761904Y-88452380D01*
X94428571Y-88833333D01*
X94571428Y-88833333D01*
X94666666Y-88880952D01*
X94714285Y-88928571D01*
X94761904Y-89023809D01*
X94761904Y-89261904D01*
X94714285Y-89357142D01*
X94666666Y-89404761D01*
X94571428Y-89452380D01*
X94285714Y-89452380D01*
X94190476Y-89404761D01*
X94142857Y-89357142D01*
G04 #@! TO.C,S4*
X93238095Y-11404761D02*
X93380952Y-11452380D01*
X93619047Y-11452380D01*
X93714285Y-11404761D01*
X93761904Y-11357142D01*
X93809523Y-11261904D01*
X93809523Y-11166666D01*
X93761904Y-11071428D01*
X93714285Y-11023809D01*
X93619047Y-10976190D01*
X93428571Y-10928571D01*
X93333333Y-10880952D01*
X93285714Y-10833333D01*
X93238095Y-10738095D01*
X93238095Y-10642857D01*
X93285714Y-10547619D01*
X93333333Y-10500000D01*
X93428571Y-10452380D01*
X93666666Y-10452380D01*
X93809523Y-10500000D01*
X94666666Y-10785714D02*
X94666666Y-11452380D01*
X94428571Y-10404761D02*
X94190476Y-11119047D01*
X94809523Y-11119047D01*
G04 #@! TO.C,S3*
X93238095Y-45404761D02*
X93380952Y-45452380D01*
X93619047Y-45452380D01*
X93714285Y-45404761D01*
X93761904Y-45357142D01*
X93809523Y-45261904D01*
X93809523Y-45166666D01*
X93761904Y-45071428D01*
X93714285Y-45023809D01*
X93619047Y-44976190D01*
X93428571Y-44928571D01*
X93333333Y-44880952D01*
X93285714Y-44833333D01*
X93238095Y-44738095D01*
X93238095Y-44642857D01*
X93285714Y-44547619D01*
X93333333Y-44500000D01*
X93428571Y-44452380D01*
X93666666Y-44452380D01*
X93809523Y-44500000D01*
X94142857Y-44452380D02*
X94761904Y-44452380D01*
X94428571Y-44833333D01*
X94571428Y-44833333D01*
X94666666Y-44880952D01*
X94714285Y-44928571D01*
X94761904Y-45023809D01*
X94761904Y-45261904D01*
X94714285Y-45357142D01*
X94666666Y-45404761D01*
X94571428Y-45452380D01*
X94285714Y-45452380D01*
X94190476Y-45404761D01*
X94142857Y-45357142D01*
G04 #@! TO.C,S2*
X120238095Y-45404761D02*
X120380952Y-45452380D01*
X120619047Y-45452380D01*
X120714285Y-45404761D01*
X120761904Y-45357142D01*
X120809523Y-45261904D01*
X120809523Y-45166666D01*
X120761904Y-45071428D01*
X120714285Y-45023809D01*
X120619047Y-44976190D01*
X120428571Y-44928571D01*
X120333333Y-44880952D01*
X120285714Y-44833333D01*
X120238095Y-44738095D01*
X120238095Y-44642857D01*
X120285714Y-44547619D01*
X120333333Y-44500000D01*
X120428571Y-44452380D01*
X120666666Y-44452380D01*
X120809523Y-44500000D01*
X121190476Y-44547619D02*
X121238095Y-44500000D01*
X121333333Y-44452380D01*
X121571428Y-44452380D01*
X121666666Y-44500000D01*
X121714285Y-44547619D01*
X121761904Y-44642857D01*
X121761904Y-44738095D01*
X121714285Y-44880952D01*
X121142857Y-45452380D01*
X121761904Y-45452380D01*
G04 #@! TO.C,S1*
X120238095Y-11404761D02*
X120380952Y-11452380D01*
X120619047Y-11452380D01*
X120714285Y-11404761D01*
X120761904Y-11357142D01*
X120809523Y-11261904D01*
X120809523Y-11166666D01*
X120761904Y-11071428D01*
X120714285Y-11023809D01*
X120619047Y-10976190D01*
X120428571Y-10928571D01*
X120333333Y-10880952D01*
X120285714Y-10833333D01*
X120238095Y-10738095D01*
X120238095Y-10642857D01*
X120285714Y-10547619D01*
X120333333Y-10500000D01*
X120428571Y-10452380D01*
X120666666Y-10452380D01*
X120809523Y-10500000D01*
X121761904Y-11452380D02*
X121190476Y-11452380D01*
X121476190Y-11452380D02*
X121476190Y-10452380D01*
X121380952Y-10595238D01*
X121285714Y-10690476D01*
X121190476Y-10738095D01*
G04 #@! TO.C,S4*
X49738095Y-11404761D02*
X49880952Y-11452380D01*
X50119047Y-11452380D01*
X50214285Y-11404761D01*
X50261904Y-11357142D01*
X50309523Y-11261904D01*
X50309523Y-11166666D01*
X50261904Y-11071428D01*
X50214285Y-11023809D01*
X50119047Y-10976190D01*
X49928571Y-10928571D01*
X49833333Y-10880952D01*
X49785714Y-10833333D01*
X49738095Y-10738095D01*
X49738095Y-10642857D01*
X49785714Y-10547619D01*
X49833333Y-10500000D01*
X49928571Y-10452380D01*
X50166666Y-10452380D01*
X50309523Y-10500000D01*
X51166666Y-10785714D02*
X51166666Y-11452380D01*
X50928571Y-10404761D02*
X50690476Y-11119047D01*
X51309523Y-11119047D01*
G04 #@! TO.C,S3*
X49738095Y-45404761D02*
X49880952Y-45452380D01*
X50119047Y-45452380D01*
X50214285Y-45404761D01*
X50261904Y-45357142D01*
X50309523Y-45261904D01*
X50309523Y-45166666D01*
X50261904Y-45071428D01*
X50214285Y-45023809D01*
X50119047Y-44976190D01*
X49928571Y-44928571D01*
X49833333Y-44880952D01*
X49785714Y-44833333D01*
X49738095Y-44738095D01*
X49738095Y-44642857D01*
X49785714Y-44547619D01*
X49833333Y-44500000D01*
X49928571Y-44452380D01*
X50166666Y-44452380D01*
X50309523Y-44500000D01*
X50642857Y-44452380D02*
X51261904Y-44452380D01*
X50928571Y-44833333D01*
X51071428Y-44833333D01*
X51166666Y-44880952D01*
X51214285Y-44928571D01*
X51261904Y-45023809D01*
X51261904Y-45261904D01*
X51214285Y-45357142D01*
X51166666Y-45404761D01*
X51071428Y-45452380D01*
X50785714Y-45452380D01*
X50690476Y-45404761D01*
X50642857Y-45357142D01*
G04 #@! TO.C,S2*
X76738095Y-45404761D02*
X76880952Y-45452380D01*
X77119047Y-45452380D01*
X77214285Y-45404761D01*
X77261904Y-45357142D01*
X77309523Y-45261904D01*
X77309523Y-45166666D01*
X77261904Y-45071428D01*
X77214285Y-45023809D01*
X77119047Y-44976190D01*
X76928571Y-44928571D01*
X76833333Y-44880952D01*
X76785714Y-44833333D01*
X76738095Y-44738095D01*
X76738095Y-44642857D01*
X76785714Y-44547619D01*
X76833333Y-44500000D01*
X76928571Y-44452380D01*
X77166666Y-44452380D01*
X77309523Y-44500000D01*
X77690476Y-44547619D02*
X77738095Y-44500000D01*
X77833333Y-44452380D01*
X78071428Y-44452380D01*
X78166666Y-44500000D01*
X78214285Y-44547619D01*
X78261904Y-44642857D01*
X78261904Y-44738095D01*
X78214285Y-44880952D01*
X77642857Y-45452380D01*
X78261904Y-45452380D01*
G04 #@! TO.C,S1*
X76738095Y-11404761D02*
X76880952Y-11452380D01*
X77119047Y-11452380D01*
X77214285Y-11404761D01*
X77261904Y-11357142D01*
X77309523Y-11261904D01*
X77309523Y-11166666D01*
X77261904Y-11071428D01*
X77214285Y-11023809D01*
X77119047Y-10976190D01*
X76928571Y-10928571D01*
X76833333Y-10880952D01*
X76785714Y-10833333D01*
X76738095Y-10738095D01*
X76738095Y-10642857D01*
X76785714Y-10547619D01*
X76833333Y-10500000D01*
X76928571Y-10452380D01*
X77166666Y-10452380D01*
X77309523Y-10500000D01*
X78261904Y-11452380D02*
X77690476Y-11452380D01*
X77976190Y-11452380D02*
X77976190Y-10452380D01*
X77880952Y-10595238D01*
X77785714Y-10690476D01*
X77690476Y-10738095D01*
G04 #@! TO.C,*
G04 #@! TO.C,S5*
X63238095Y-72404761D02*
X63380952Y-72452380D01*
X63619047Y-72452380D01*
X63714285Y-72404761D01*
X63761904Y-72357142D01*
X63809523Y-72261904D01*
X63809523Y-72166666D01*
X63761904Y-72071428D01*
X63714285Y-72023809D01*
X63619047Y-71976190D01*
X63428571Y-71928571D01*
X63333333Y-71880952D01*
X63285714Y-71833333D01*
X63238095Y-71738095D01*
X63238095Y-71642857D01*
X63285714Y-71547619D01*
X63333333Y-71500000D01*
X63428571Y-71452380D01*
X63666666Y-71452380D01*
X63809523Y-71500000D01*
X64714285Y-71452380D02*
X64238095Y-71452380D01*
X64190476Y-71928571D01*
X64238095Y-71880952D01*
X64333333Y-71833333D01*
X64571428Y-71833333D01*
X64666666Y-71880952D01*
X64714285Y-71928571D01*
X64761904Y-72023809D01*
X64761904Y-72261904D01*
X64714285Y-72357142D01*
X64666666Y-72404761D01*
X64571428Y-72452380D01*
X64333333Y-72452380D01*
X64238095Y-72404761D01*
X64190476Y-72357142D01*
G04 #@! TO.C,R2*
X82475092Y-82893291D02*
X82141759Y-82417101D01*
X81903663Y-82893291D02*
X81903663Y-81893291D01*
X82284616Y-81893291D01*
X82379854Y-81940911D01*
X82427473Y-81988530D01*
X82475092Y-82083768D01*
X82475092Y-82226625D01*
X82427473Y-82321863D01*
X82379854Y-82369482D01*
X82284616Y-82417101D01*
X81903663Y-82417101D01*
X82856044Y-81988530D02*
X82903663Y-81940911D01*
X82998901Y-81893291D01*
X83236997Y-81893291D01*
X83332235Y-81940911D01*
X83379854Y-81988530D01*
X83427473Y-82083768D01*
X83427473Y-82179006D01*
X83379854Y-82321863D01*
X82808425Y-82893291D01*
X83427473Y-82893291D01*
G04 #@! TO.C,R1*
X82505092Y-73793291D02*
X82171759Y-73317101D01*
X81933663Y-73793291D02*
X81933663Y-72793291D01*
X82314616Y-72793291D01*
X82409854Y-72840911D01*
X82457473Y-72888530D01*
X82505092Y-72983768D01*
X82505092Y-73126625D01*
X82457473Y-73221863D01*
X82409854Y-73269482D01*
X82314616Y-73317101D01*
X81933663Y-73317101D01*
X83457473Y-73793291D02*
X82886044Y-73793291D01*
X83171759Y-73793291D02*
X83171759Y-72793291D01*
X83076520Y-72936149D01*
X82981282Y-73031387D01*
X82886044Y-73079006D01*
G04 #@! TO.C,R6*
X71283333Y-78402380D02*
X70950000Y-77926190D01*
X70711904Y-78402380D02*
X70711904Y-77402380D01*
X71092857Y-77402380D01*
X71188095Y-77450000D01*
X71235714Y-77497619D01*
X71283333Y-77592857D01*
X71283333Y-77735714D01*
X71235714Y-77830952D01*
X71188095Y-77878571D01*
X71092857Y-77926190D01*
X70711904Y-77926190D01*
X72140476Y-77402380D02*
X71950000Y-77402380D01*
X71854761Y-77450000D01*
X71807142Y-77497619D01*
X71711904Y-77640476D01*
X71664285Y-77830952D01*
X71664285Y-78211904D01*
X71711904Y-78307142D01*
X71759523Y-78354761D01*
X71854761Y-78402380D01*
X72045238Y-78402380D01*
X72140476Y-78354761D01*
X72188095Y-78307142D01*
X72235714Y-78211904D01*
X72235714Y-77973809D01*
X72188095Y-77878571D01*
X72140476Y-77830952D01*
X72045238Y-77783333D01*
X71854761Y-77783333D01*
X71759523Y-77830952D01*
X71711904Y-77878571D01*
X71664285Y-77973809D01*
G04 #@! TO.C,R3*
X44923333Y-83627380D02*
X44590000Y-83151190D01*
X44351904Y-83627380D02*
X44351904Y-82627380D01*
X44732857Y-82627380D01*
X44828095Y-82675000D01*
X44875714Y-82722619D01*
X44923333Y-82817857D01*
X44923333Y-82960714D01*
X44875714Y-83055952D01*
X44828095Y-83103571D01*
X44732857Y-83151190D01*
X44351904Y-83151190D01*
X45256666Y-82627380D02*
X45875714Y-82627380D01*
X45542380Y-83008333D01*
X45685238Y-83008333D01*
X45780476Y-83055952D01*
X45828095Y-83103571D01*
X45875714Y-83198809D01*
X45875714Y-83436904D01*
X45828095Y-83532142D01*
X45780476Y-83579761D01*
X45685238Y-83627380D01*
X45399523Y-83627380D01*
X45304285Y-83579761D01*
X45256666Y-83532142D01*
G04 #@! TO.C,R4*
X44883333Y-61007380D02*
X44550000Y-60531190D01*
X44311904Y-61007380D02*
X44311904Y-60007380D01*
X44692857Y-60007380D01*
X44788095Y-60055000D01*
X44835714Y-60102619D01*
X44883333Y-60197857D01*
X44883333Y-60340714D01*
X44835714Y-60435952D01*
X44788095Y-60483571D01*
X44692857Y-60531190D01*
X44311904Y-60531190D01*
X45740476Y-60340714D02*
X45740476Y-61007380D01*
X45502380Y-59959761D02*
X45264285Y-60674047D01*
X45883333Y-60674047D01*
G04 #@! TO.C,Q1*
X70784761Y-75027619D02*
X70689523Y-74980000D01*
X70594285Y-74884761D01*
X70451428Y-74741904D01*
X70356190Y-74694285D01*
X70260952Y-74694285D01*
X70308571Y-74932380D02*
X70213333Y-74884761D01*
X70118095Y-74789523D01*
X70070476Y-74599047D01*
X70070476Y-74265714D01*
X70118095Y-74075238D01*
X70213333Y-73980000D01*
X70308571Y-73932380D01*
X70499047Y-73932380D01*
X70594285Y-73980000D01*
X70689523Y-74075238D01*
X70737142Y-74265714D01*
X70737142Y-74599047D01*
X70689523Y-74789523D01*
X70594285Y-74884761D01*
X70499047Y-74932380D01*
X70308571Y-74932380D01*
X71689523Y-74932380D02*
X71118095Y-74932380D01*
X71403809Y-74932380D02*
X71403809Y-73932380D01*
X71308571Y-74075238D01*
X71213333Y-74170476D01*
X71118095Y-74218095D01*
G04 #@! TO.C,D1*
X67511904Y-81852380D02*
X67511904Y-80852380D01*
X67750000Y-80852380D01*
X67892857Y-80900000D01*
X67988095Y-80995238D01*
X68035714Y-81090476D01*
X68083333Y-81280952D01*
X68083333Y-81423809D01*
X68035714Y-81614285D01*
X67988095Y-81709523D01*
X67892857Y-81804761D01*
X67750000Y-81852380D01*
X67511904Y-81852380D01*
X69035714Y-81852380D02*
X68464285Y-81852380D01*
X68750000Y-81852380D02*
X68750000Y-80852380D01*
X68654761Y-80995238D01*
X68559523Y-81090476D01*
X68464285Y-81138095D01*
G04 #@! TO.C,C1*
X82515092Y-76748053D02*
X82467473Y-76795672D01*
X82324616Y-76843291D01*
X82229378Y-76843291D01*
X82086520Y-76795672D01*
X81991282Y-76700434D01*
X81943663Y-76605196D01*
X81896044Y-76414720D01*
X81896044Y-76271863D01*
X81943663Y-76081387D01*
X81991282Y-75986149D01*
X82086520Y-75890911D01*
X82229378Y-75843291D01*
X82324616Y-75843291D01*
X82467473Y-75890911D01*
X82515092Y-75938530D01*
X83467473Y-76843291D02*
X82896044Y-76843291D01*
X83181759Y-76843291D02*
X83181759Y-75843291D01*
X83086520Y-75986149D01*
X82991282Y-76081387D01*
X82896044Y-76129006D01*
G04 #@! TO.C,C2*
X82522333Y-79657142D02*
X82474714Y-79704761D01*
X82331857Y-79752380D01*
X82236619Y-79752380D01*
X82093761Y-79704761D01*
X81998523Y-79609523D01*
X81950904Y-79514285D01*
X81903285Y-79323809D01*
X81903285Y-79180952D01*
X81950904Y-78990476D01*
X81998523Y-78895238D01*
X82093761Y-78800000D01*
X82236619Y-78752380D01*
X82331857Y-78752380D01*
X82474714Y-78800000D01*
X82522333Y-78847619D01*
X82903285Y-78847619D02*
X82950904Y-78800000D01*
X83046142Y-78752380D01*
X83284238Y-78752380D01*
X83379476Y-78800000D01*
X83427095Y-78847619D01*
X83474714Y-78942857D01*
X83474714Y-79038095D01*
X83427095Y-79180952D01*
X82855666Y-79752380D01*
X83474714Y-79752380D01*
G04 #@! TO.C,C4*
X44933333Y-64087142D02*
X44885714Y-64134761D01*
X44742857Y-64182380D01*
X44647619Y-64182380D01*
X44504761Y-64134761D01*
X44409523Y-64039523D01*
X44361904Y-63944285D01*
X44314285Y-63753809D01*
X44314285Y-63610952D01*
X44361904Y-63420476D01*
X44409523Y-63325238D01*
X44504761Y-63230000D01*
X44647619Y-63182380D01*
X44742857Y-63182380D01*
X44885714Y-63230000D01*
X44933333Y-63277619D01*
X45790476Y-63515714D02*
X45790476Y-64182380D01*
X45552380Y-63134761D02*
X45314285Y-63849047D01*
X45933333Y-63849047D01*
G04 #@! TO.C,C3*
X44923333Y-80357142D02*
X44875714Y-80404761D01*
X44732857Y-80452380D01*
X44637619Y-80452380D01*
X44494761Y-80404761D01*
X44399523Y-80309523D01*
X44351904Y-80214285D01*
X44304285Y-80023809D01*
X44304285Y-79880952D01*
X44351904Y-79690476D01*
X44399523Y-79595238D01*
X44494761Y-79500000D01*
X44637619Y-79452380D01*
X44732857Y-79452380D01*
X44875714Y-79500000D01*
X44923333Y-79547619D01*
X45256666Y-79452380D02*
X45875714Y-79452380D01*
X45542380Y-79833333D01*
X45685238Y-79833333D01*
X45780476Y-79880952D01*
X45828095Y-79928571D01*
X45875714Y-80023809D01*
X45875714Y-80261904D01*
X45828095Y-80357142D01*
X45780476Y-80404761D01*
X45685238Y-80452380D01*
X45399523Y-80452380D01*
X45304285Y-80404761D01*
X45256666Y-80357142D01*
G04 #@! TO.C,C5*
X71283333Y-81182142D02*
X71235714Y-81229761D01*
X71092857Y-81277380D01*
X70997619Y-81277380D01*
X70854761Y-81229761D01*
X70759523Y-81134523D01*
X70711904Y-81039285D01*
X70664285Y-80848809D01*
X70664285Y-80705952D01*
X70711904Y-80515476D01*
X70759523Y-80420238D01*
X70854761Y-80325000D01*
X70997619Y-80277380D01*
X71092857Y-80277380D01*
X71235714Y-80325000D01*
X71283333Y-80372619D01*
X72188095Y-80277380D02*
X71711904Y-80277380D01*
X71664285Y-80753571D01*
X71711904Y-80705952D01*
X71807142Y-80658333D01*
X72045238Y-80658333D01*
X72140476Y-80705952D01*
X72188095Y-80753571D01*
X72235714Y-80848809D01*
X72235714Y-81086904D01*
X72188095Y-81182142D01*
X72140476Y-81229761D01*
X72045238Y-81277380D01*
X71807142Y-81277380D01*
X71711904Y-81229761D01*
X71664285Y-81182142D01*
G04 #@! TO.C,S6*
X49738095Y-72404761D02*
X49880952Y-72452380D01*
X50119047Y-72452380D01*
X50214285Y-72404761D01*
X50261904Y-72357142D01*
X50309523Y-72261904D01*
X50309523Y-72166666D01*
X50261904Y-72071428D01*
X50214285Y-72023809D01*
X50119047Y-71976190D01*
X49928571Y-71928571D01*
X49833333Y-71880952D01*
X49785714Y-71833333D01*
X49738095Y-71738095D01*
X49738095Y-71642857D01*
X49785714Y-71547619D01*
X49833333Y-71500000D01*
X49928571Y-71452380D01*
X50166666Y-71452380D01*
X50309523Y-71500000D01*
X51166666Y-71452380D02*
X50976190Y-71452380D01*
X50880952Y-71500000D01*
X50833333Y-71547619D01*
X50738095Y-71690476D01*
X50690476Y-71880952D01*
X50690476Y-72261904D01*
X50738095Y-72357142D01*
X50785714Y-72404761D01*
X50880952Y-72452380D01*
X51071428Y-72452380D01*
X51166666Y-72404761D01*
X51214285Y-72357142D01*
X51261904Y-72261904D01*
X51261904Y-72023809D01*
X51214285Y-71928571D01*
X51166666Y-71880952D01*
X51071428Y-71833333D01*
X50880952Y-71833333D01*
X50785714Y-71880952D01*
X50738095Y-71928571D01*
X50690476Y-72023809D01*
G04 #@! TO.C,R5*
X71278333Y-84352380D02*
X70945000Y-83876190D01*
X70706904Y-84352380D02*
X70706904Y-83352380D01*
X71087857Y-83352380D01*
X71183095Y-83400000D01*
X71230714Y-83447619D01*
X71278333Y-83542857D01*
X71278333Y-83685714D01*
X71230714Y-83780952D01*
X71183095Y-83828571D01*
X71087857Y-83876190D01*
X70706904Y-83876190D01*
X72183095Y-83352380D02*
X71706904Y-83352380D01*
X71659285Y-83828571D01*
X71706904Y-83780952D01*
X71802142Y-83733333D01*
X72040238Y-83733333D01*
X72135476Y-83780952D01*
X72183095Y-83828571D01*
X72230714Y-83923809D01*
X72230714Y-84161904D01*
X72183095Y-84257142D01*
X72135476Y-84304761D01*
X72040238Y-84352380D01*
X71802142Y-84352380D01*
X71706904Y-84304761D01*
X71659285Y-84257142D01*
G04 #@! TO.C,S5*
X106738095Y-72404761D02*
X106880952Y-72452380D01*
X107119047Y-72452380D01*
X107214285Y-72404761D01*
X107261904Y-72357142D01*
X107309523Y-72261904D01*
X107309523Y-72166666D01*
X107261904Y-72071428D01*
X107214285Y-72023809D01*
X107119047Y-71976190D01*
X106928571Y-71928571D01*
X106833333Y-71880952D01*
X106785714Y-71833333D01*
X106738095Y-71738095D01*
X106738095Y-71642857D01*
X106785714Y-71547619D01*
X106833333Y-71500000D01*
X106928571Y-71452380D01*
X107166666Y-71452380D01*
X107309523Y-71500000D01*
X108214285Y-71452380D02*
X107738095Y-71452380D01*
X107690476Y-71928571D01*
X107738095Y-71880952D01*
X107833333Y-71833333D01*
X108071428Y-71833333D01*
X108166666Y-71880952D01*
X108214285Y-71928571D01*
X108261904Y-72023809D01*
X108261904Y-72261904D01*
X108214285Y-72357142D01*
X108166666Y-72404761D01*
X108071428Y-72452380D01*
X107833333Y-72452380D01*
X107738095Y-72404761D01*
X107690476Y-72357142D01*
G04 #@! TO.C,R2*
X125975092Y-82893291D02*
X125641759Y-82417101D01*
X125403663Y-82893291D02*
X125403663Y-81893291D01*
X125784616Y-81893291D01*
X125879854Y-81940911D01*
X125927473Y-81988530D01*
X125975092Y-82083768D01*
X125975092Y-82226625D01*
X125927473Y-82321863D01*
X125879854Y-82369482D01*
X125784616Y-82417101D01*
X125403663Y-82417101D01*
X126356044Y-81988530D02*
X126403663Y-81940911D01*
X126498901Y-81893291D01*
X126736997Y-81893291D01*
X126832235Y-81940911D01*
X126879854Y-81988530D01*
X126927473Y-82083768D01*
X126927473Y-82179006D01*
X126879854Y-82321863D01*
X126308425Y-82893291D01*
X126927473Y-82893291D01*
G04 #@! TO.C,R1*
X126005092Y-73793291D02*
X125671759Y-73317101D01*
X125433663Y-73793291D02*
X125433663Y-72793291D01*
X125814616Y-72793291D01*
X125909854Y-72840911D01*
X125957473Y-72888530D01*
X126005092Y-72983768D01*
X126005092Y-73126625D01*
X125957473Y-73221863D01*
X125909854Y-73269482D01*
X125814616Y-73317101D01*
X125433663Y-73317101D01*
X126957473Y-73793291D02*
X126386044Y-73793291D01*
X126671759Y-73793291D02*
X126671759Y-72793291D01*
X126576520Y-72936149D01*
X126481282Y-73031387D01*
X126386044Y-73079006D01*
G04 #@! TO.C,R6*
X114783333Y-78402380D02*
X114450000Y-77926190D01*
X114211904Y-78402380D02*
X114211904Y-77402380D01*
X114592857Y-77402380D01*
X114688095Y-77450000D01*
X114735714Y-77497619D01*
X114783333Y-77592857D01*
X114783333Y-77735714D01*
X114735714Y-77830952D01*
X114688095Y-77878571D01*
X114592857Y-77926190D01*
X114211904Y-77926190D01*
X115640476Y-77402380D02*
X115450000Y-77402380D01*
X115354761Y-77450000D01*
X115307142Y-77497619D01*
X115211904Y-77640476D01*
X115164285Y-77830952D01*
X115164285Y-78211904D01*
X115211904Y-78307142D01*
X115259523Y-78354761D01*
X115354761Y-78402380D01*
X115545238Y-78402380D01*
X115640476Y-78354761D01*
X115688095Y-78307142D01*
X115735714Y-78211904D01*
X115735714Y-77973809D01*
X115688095Y-77878571D01*
X115640476Y-77830952D01*
X115545238Y-77783333D01*
X115354761Y-77783333D01*
X115259523Y-77830952D01*
X115211904Y-77878571D01*
X115164285Y-77973809D01*
G04 #@! TO.C,R3*
X88423333Y-83627380D02*
X88090000Y-83151190D01*
X87851904Y-83627380D02*
X87851904Y-82627380D01*
X88232857Y-82627380D01*
X88328095Y-82675000D01*
X88375714Y-82722619D01*
X88423333Y-82817857D01*
X88423333Y-82960714D01*
X88375714Y-83055952D01*
X88328095Y-83103571D01*
X88232857Y-83151190D01*
X87851904Y-83151190D01*
X88756666Y-82627380D02*
X89375714Y-82627380D01*
X89042380Y-83008333D01*
X89185238Y-83008333D01*
X89280476Y-83055952D01*
X89328095Y-83103571D01*
X89375714Y-83198809D01*
X89375714Y-83436904D01*
X89328095Y-83532142D01*
X89280476Y-83579761D01*
X89185238Y-83627380D01*
X88899523Y-83627380D01*
X88804285Y-83579761D01*
X88756666Y-83532142D01*
G04 #@! TO.C,R4*
X88383333Y-61007380D02*
X88050000Y-60531190D01*
X87811904Y-61007380D02*
X87811904Y-60007380D01*
X88192857Y-60007380D01*
X88288095Y-60055000D01*
X88335714Y-60102619D01*
X88383333Y-60197857D01*
X88383333Y-60340714D01*
X88335714Y-60435952D01*
X88288095Y-60483571D01*
X88192857Y-60531190D01*
X87811904Y-60531190D01*
X89240476Y-60340714D02*
X89240476Y-61007380D01*
X89002380Y-59959761D02*
X88764285Y-60674047D01*
X89383333Y-60674047D01*
G04 #@! TO.C,Q1*
X114284761Y-75027619D02*
X114189523Y-74980000D01*
X114094285Y-74884761D01*
X113951428Y-74741904D01*
X113856190Y-74694285D01*
X113760952Y-74694285D01*
X113808571Y-74932380D02*
X113713333Y-74884761D01*
X113618095Y-74789523D01*
X113570476Y-74599047D01*
X113570476Y-74265714D01*
X113618095Y-74075238D01*
X113713333Y-73980000D01*
X113808571Y-73932380D01*
X113999047Y-73932380D01*
X114094285Y-73980000D01*
X114189523Y-74075238D01*
X114237142Y-74265714D01*
X114237142Y-74599047D01*
X114189523Y-74789523D01*
X114094285Y-74884761D01*
X113999047Y-74932380D01*
X113808571Y-74932380D01*
X115189523Y-74932380D02*
X114618095Y-74932380D01*
X114903809Y-74932380D02*
X114903809Y-73932380D01*
X114808571Y-74075238D01*
X114713333Y-74170476D01*
X114618095Y-74218095D01*
G04 #@! TO.C,D1*
X111011904Y-81852380D02*
X111011904Y-80852380D01*
X111250000Y-80852380D01*
X111392857Y-80900000D01*
X111488095Y-80995238D01*
X111535714Y-81090476D01*
X111583333Y-81280952D01*
X111583333Y-81423809D01*
X111535714Y-81614285D01*
X111488095Y-81709523D01*
X111392857Y-81804761D01*
X111250000Y-81852380D01*
X111011904Y-81852380D01*
X112535714Y-81852380D02*
X111964285Y-81852380D01*
X112250000Y-81852380D02*
X112250000Y-80852380D01*
X112154761Y-80995238D01*
X112059523Y-81090476D01*
X111964285Y-81138095D01*
G04 #@! TO.C,C1*
X126015092Y-76748053D02*
X125967473Y-76795672D01*
X125824616Y-76843291D01*
X125729378Y-76843291D01*
X125586520Y-76795672D01*
X125491282Y-76700434D01*
X125443663Y-76605196D01*
X125396044Y-76414720D01*
X125396044Y-76271863D01*
X125443663Y-76081387D01*
X125491282Y-75986149D01*
X125586520Y-75890911D01*
X125729378Y-75843291D01*
X125824616Y-75843291D01*
X125967473Y-75890911D01*
X126015092Y-75938530D01*
X126967473Y-76843291D02*
X126396044Y-76843291D01*
X126681759Y-76843291D02*
X126681759Y-75843291D01*
X126586520Y-75986149D01*
X126491282Y-76081387D01*
X126396044Y-76129006D01*
G04 #@! TO.C,C2*
X126022333Y-79657142D02*
X125974714Y-79704761D01*
X125831857Y-79752380D01*
X125736619Y-79752380D01*
X125593761Y-79704761D01*
X125498523Y-79609523D01*
X125450904Y-79514285D01*
X125403285Y-79323809D01*
X125403285Y-79180952D01*
X125450904Y-78990476D01*
X125498523Y-78895238D01*
X125593761Y-78800000D01*
X125736619Y-78752380D01*
X125831857Y-78752380D01*
X125974714Y-78800000D01*
X126022333Y-78847619D01*
X126403285Y-78847619D02*
X126450904Y-78800000D01*
X126546142Y-78752380D01*
X126784238Y-78752380D01*
X126879476Y-78800000D01*
X126927095Y-78847619D01*
X126974714Y-78942857D01*
X126974714Y-79038095D01*
X126927095Y-79180952D01*
X126355666Y-79752380D01*
X126974714Y-79752380D01*
G04 #@! TO.C,C4*
X88433333Y-64087142D02*
X88385714Y-64134761D01*
X88242857Y-64182380D01*
X88147619Y-64182380D01*
X88004761Y-64134761D01*
X87909523Y-64039523D01*
X87861904Y-63944285D01*
X87814285Y-63753809D01*
X87814285Y-63610952D01*
X87861904Y-63420476D01*
X87909523Y-63325238D01*
X88004761Y-63230000D01*
X88147619Y-63182380D01*
X88242857Y-63182380D01*
X88385714Y-63230000D01*
X88433333Y-63277619D01*
X89290476Y-63515714D02*
X89290476Y-64182380D01*
X89052380Y-63134761D02*
X88814285Y-63849047D01*
X89433333Y-63849047D01*
G04 #@! TO.C,C3*
X88423333Y-80357142D02*
X88375714Y-80404761D01*
X88232857Y-80452380D01*
X88137619Y-80452380D01*
X87994761Y-80404761D01*
X87899523Y-80309523D01*
X87851904Y-80214285D01*
X87804285Y-80023809D01*
X87804285Y-79880952D01*
X87851904Y-79690476D01*
X87899523Y-79595238D01*
X87994761Y-79500000D01*
X88137619Y-79452380D01*
X88232857Y-79452380D01*
X88375714Y-79500000D01*
X88423333Y-79547619D01*
X88756666Y-79452380D02*
X89375714Y-79452380D01*
X89042380Y-79833333D01*
X89185238Y-79833333D01*
X89280476Y-79880952D01*
X89328095Y-79928571D01*
X89375714Y-80023809D01*
X89375714Y-80261904D01*
X89328095Y-80357142D01*
X89280476Y-80404761D01*
X89185238Y-80452380D01*
X88899523Y-80452380D01*
X88804285Y-80404761D01*
X88756666Y-80357142D01*
G04 #@! TO.C,C5*
X114783333Y-81182142D02*
X114735714Y-81229761D01*
X114592857Y-81277380D01*
X114497619Y-81277380D01*
X114354761Y-81229761D01*
X114259523Y-81134523D01*
X114211904Y-81039285D01*
X114164285Y-80848809D01*
X114164285Y-80705952D01*
X114211904Y-80515476D01*
X114259523Y-80420238D01*
X114354761Y-80325000D01*
X114497619Y-80277380D01*
X114592857Y-80277380D01*
X114735714Y-80325000D01*
X114783333Y-80372619D01*
X115688095Y-80277380D02*
X115211904Y-80277380D01*
X115164285Y-80753571D01*
X115211904Y-80705952D01*
X115307142Y-80658333D01*
X115545238Y-80658333D01*
X115640476Y-80705952D01*
X115688095Y-80753571D01*
X115735714Y-80848809D01*
X115735714Y-81086904D01*
X115688095Y-81182142D01*
X115640476Y-81229761D01*
X115545238Y-81277380D01*
X115307142Y-81277380D01*
X115211904Y-81229761D01*
X115164285Y-81182142D01*
G04 #@! TO.C,S6*
X93238095Y-72404761D02*
X93380952Y-72452380D01*
X93619047Y-72452380D01*
X93714285Y-72404761D01*
X93761904Y-72357142D01*
X93809523Y-72261904D01*
X93809523Y-72166666D01*
X93761904Y-72071428D01*
X93714285Y-72023809D01*
X93619047Y-71976190D01*
X93428571Y-71928571D01*
X93333333Y-71880952D01*
X93285714Y-71833333D01*
X93238095Y-71738095D01*
X93238095Y-71642857D01*
X93285714Y-71547619D01*
X93333333Y-71500000D01*
X93428571Y-71452380D01*
X93666666Y-71452380D01*
X93809523Y-71500000D01*
X94666666Y-71452380D02*
X94476190Y-71452380D01*
X94380952Y-71500000D01*
X94333333Y-71547619D01*
X94238095Y-71690476D01*
X94190476Y-71880952D01*
X94190476Y-72261904D01*
X94238095Y-72357142D01*
X94285714Y-72404761D01*
X94380952Y-72452380D01*
X94571428Y-72452380D01*
X94666666Y-72404761D01*
X94714285Y-72357142D01*
X94761904Y-72261904D01*
X94761904Y-72023809D01*
X94714285Y-71928571D01*
X94666666Y-71880952D01*
X94571428Y-71833333D01*
X94380952Y-71833333D01*
X94285714Y-71880952D01*
X94238095Y-71928571D01*
X94190476Y-72023809D01*
G04 #@! TO.C,R5*
X114778333Y-84352380D02*
X114445000Y-83876190D01*
X114206904Y-84352380D02*
X114206904Y-83352380D01*
X114587857Y-83352380D01*
X114683095Y-83400000D01*
X114730714Y-83447619D01*
X114778333Y-83542857D01*
X114778333Y-83685714D01*
X114730714Y-83780952D01*
X114683095Y-83828571D01*
X114587857Y-83876190D01*
X114206904Y-83876190D01*
X115683095Y-83352380D02*
X115206904Y-83352380D01*
X115159285Y-83828571D01*
X115206904Y-83780952D01*
X115302142Y-83733333D01*
X115540238Y-83733333D01*
X115635476Y-83780952D01*
X115683095Y-83828571D01*
X115730714Y-83923809D01*
X115730714Y-84161904D01*
X115683095Y-84257142D01*
X115635476Y-84304761D01*
X115540238Y-84352380D01*
X115302142Y-84352380D01*
X115206904Y-84304761D01*
X115159285Y-84257142D01*
G04 #@! TO.C,S5*
X106738095Y-28404761D02*
X106880952Y-28452380D01*
X107119047Y-28452380D01*
X107214285Y-28404761D01*
X107261904Y-28357142D01*
X107309523Y-28261904D01*
X107309523Y-28166666D01*
X107261904Y-28071428D01*
X107214285Y-28023809D01*
X107119047Y-27976190D01*
X106928571Y-27928571D01*
X106833333Y-27880952D01*
X106785714Y-27833333D01*
X106738095Y-27738095D01*
X106738095Y-27642857D01*
X106785714Y-27547619D01*
X106833333Y-27500000D01*
X106928571Y-27452380D01*
X107166666Y-27452380D01*
X107309523Y-27500000D01*
X108214285Y-27452380D02*
X107738095Y-27452380D01*
X107690476Y-27928571D01*
X107738095Y-27880952D01*
X107833333Y-27833333D01*
X108071428Y-27833333D01*
X108166666Y-27880952D01*
X108214285Y-27928571D01*
X108261904Y-28023809D01*
X108261904Y-28261904D01*
X108214285Y-28357142D01*
X108166666Y-28404761D01*
X108071428Y-28452380D01*
X107833333Y-28452380D01*
X107738095Y-28404761D01*
X107690476Y-28357142D01*
G04 #@! TO.C,R2*
X125975092Y-38893291D02*
X125641759Y-38417101D01*
X125403663Y-38893291D02*
X125403663Y-37893291D01*
X125784616Y-37893291D01*
X125879854Y-37940911D01*
X125927473Y-37988530D01*
X125975092Y-38083768D01*
X125975092Y-38226625D01*
X125927473Y-38321863D01*
X125879854Y-38369482D01*
X125784616Y-38417101D01*
X125403663Y-38417101D01*
X126356044Y-37988530D02*
X126403663Y-37940911D01*
X126498901Y-37893291D01*
X126736997Y-37893291D01*
X126832235Y-37940911D01*
X126879854Y-37988530D01*
X126927473Y-38083768D01*
X126927473Y-38179006D01*
X126879854Y-38321863D01*
X126308425Y-38893291D01*
X126927473Y-38893291D01*
G04 #@! TO.C,R1*
X126005092Y-29793291D02*
X125671759Y-29317101D01*
X125433663Y-29793291D02*
X125433663Y-28793291D01*
X125814616Y-28793291D01*
X125909854Y-28840911D01*
X125957473Y-28888530D01*
X126005092Y-28983768D01*
X126005092Y-29126625D01*
X125957473Y-29221863D01*
X125909854Y-29269482D01*
X125814616Y-29317101D01*
X125433663Y-29317101D01*
X126957473Y-29793291D02*
X126386044Y-29793291D01*
X126671759Y-29793291D02*
X126671759Y-28793291D01*
X126576520Y-28936149D01*
X126481282Y-29031387D01*
X126386044Y-29079006D01*
G04 #@! TO.C,R6*
X114783333Y-34402380D02*
X114450000Y-33926190D01*
X114211904Y-34402380D02*
X114211904Y-33402380D01*
X114592857Y-33402380D01*
X114688095Y-33450000D01*
X114735714Y-33497619D01*
X114783333Y-33592857D01*
X114783333Y-33735714D01*
X114735714Y-33830952D01*
X114688095Y-33878571D01*
X114592857Y-33926190D01*
X114211904Y-33926190D01*
X115640476Y-33402380D02*
X115450000Y-33402380D01*
X115354761Y-33450000D01*
X115307142Y-33497619D01*
X115211904Y-33640476D01*
X115164285Y-33830952D01*
X115164285Y-34211904D01*
X115211904Y-34307142D01*
X115259523Y-34354761D01*
X115354761Y-34402380D01*
X115545238Y-34402380D01*
X115640476Y-34354761D01*
X115688095Y-34307142D01*
X115735714Y-34211904D01*
X115735714Y-33973809D01*
X115688095Y-33878571D01*
X115640476Y-33830952D01*
X115545238Y-33783333D01*
X115354761Y-33783333D01*
X115259523Y-33830952D01*
X115211904Y-33878571D01*
X115164285Y-33973809D01*
G04 #@! TO.C,R3*
X88423333Y-39627380D02*
X88090000Y-39151190D01*
X87851904Y-39627380D02*
X87851904Y-38627380D01*
X88232857Y-38627380D01*
X88328095Y-38675000D01*
X88375714Y-38722619D01*
X88423333Y-38817857D01*
X88423333Y-38960714D01*
X88375714Y-39055952D01*
X88328095Y-39103571D01*
X88232857Y-39151190D01*
X87851904Y-39151190D01*
X88756666Y-38627380D02*
X89375714Y-38627380D01*
X89042380Y-39008333D01*
X89185238Y-39008333D01*
X89280476Y-39055952D01*
X89328095Y-39103571D01*
X89375714Y-39198809D01*
X89375714Y-39436904D01*
X89328095Y-39532142D01*
X89280476Y-39579761D01*
X89185238Y-39627380D01*
X88899523Y-39627380D01*
X88804285Y-39579761D01*
X88756666Y-39532142D01*
G04 #@! TO.C,R4*
X88383333Y-17007380D02*
X88050000Y-16531190D01*
X87811904Y-17007380D02*
X87811904Y-16007380D01*
X88192857Y-16007380D01*
X88288095Y-16055000D01*
X88335714Y-16102619D01*
X88383333Y-16197857D01*
X88383333Y-16340714D01*
X88335714Y-16435952D01*
X88288095Y-16483571D01*
X88192857Y-16531190D01*
X87811904Y-16531190D01*
X89240476Y-16340714D02*
X89240476Y-17007380D01*
X89002380Y-15959761D02*
X88764285Y-16674047D01*
X89383333Y-16674047D01*
G04 #@! TO.C,Q1*
X114284761Y-31027619D02*
X114189523Y-30980000D01*
X114094285Y-30884761D01*
X113951428Y-30741904D01*
X113856190Y-30694285D01*
X113760952Y-30694285D01*
X113808571Y-30932380D02*
X113713333Y-30884761D01*
X113618095Y-30789523D01*
X113570476Y-30599047D01*
X113570476Y-30265714D01*
X113618095Y-30075238D01*
X113713333Y-29980000D01*
X113808571Y-29932380D01*
X113999047Y-29932380D01*
X114094285Y-29980000D01*
X114189523Y-30075238D01*
X114237142Y-30265714D01*
X114237142Y-30599047D01*
X114189523Y-30789523D01*
X114094285Y-30884761D01*
X113999047Y-30932380D01*
X113808571Y-30932380D01*
X115189523Y-30932380D02*
X114618095Y-30932380D01*
X114903809Y-30932380D02*
X114903809Y-29932380D01*
X114808571Y-30075238D01*
X114713333Y-30170476D01*
X114618095Y-30218095D01*
G04 #@! TO.C,D1*
X111011904Y-37852380D02*
X111011904Y-36852380D01*
X111250000Y-36852380D01*
X111392857Y-36900000D01*
X111488095Y-36995238D01*
X111535714Y-37090476D01*
X111583333Y-37280952D01*
X111583333Y-37423809D01*
X111535714Y-37614285D01*
X111488095Y-37709523D01*
X111392857Y-37804761D01*
X111250000Y-37852380D01*
X111011904Y-37852380D01*
X112535714Y-37852380D02*
X111964285Y-37852380D01*
X112250000Y-37852380D02*
X112250000Y-36852380D01*
X112154761Y-36995238D01*
X112059523Y-37090476D01*
X111964285Y-37138095D01*
G04 #@! TO.C,C1*
X126015092Y-32748053D02*
X125967473Y-32795672D01*
X125824616Y-32843291D01*
X125729378Y-32843291D01*
X125586520Y-32795672D01*
X125491282Y-32700434D01*
X125443663Y-32605196D01*
X125396044Y-32414720D01*
X125396044Y-32271863D01*
X125443663Y-32081387D01*
X125491282Y-31986149D01*
X125586520Y-31890911D01*
X125729378Y-31843291D01*
X125824616Y-31843291D01*
X125967473Y-31890911D01*
X126015092Y-31938530D01*
X126967473Y-32843291D02*
X126396044Y-32843291D01*
X126681759Y-32843291D02*
X126681759Y-31843291D01*
X126586520Y-31986149D01*
X126491282Y-32081387D01*
X126396044Y-32129006D01*
G04 #@! TO.C,C2*
X126022333Y-35657142D02*
X125974714Y-35704761D01*
X125831857Y-35752380D01*
X125736619Y-35752380D01*
X125593761Y-35704761D01*
X125498523Y-35609523D01*
X125450904Y-35514285D01*
X125403285Y-35323809D01*
X125403285Y-35180952D01*
X125450904Y-34990476D01*
X125498523Y-34895238D01*
X125593761Y-34800000D01*
X125736619Y-34752380D01*
X125831857Y-34752380D01*
X125974714Y-34800000D01*
X126022333Y-34847619D01*
X126403285Y-34847619D02*
X126450904Y-34800000D01*
X126546142Y-34752380D01*
X126784238Y-34752380D01*
X126879476Y-34800000D01*
X126927095Y-34847619D01*
X126974714Y-34942857D01*
X126974714Y-35038095D01*
X126927095Y-35180952D01*
X126355666Y-35752380D01*
X126974714Y-35752380D01*
G04 #@! TO.C,C4*
X88433333Y-20087142D02*
X88385714Y-20134761D01*
X88242857Y-20182380D01*
X88147619Y-20182380D01*
X88004761Y-20134761D01*
X87909523Y-20039523D01*
X87861904Y-19944285D01*
X87814285Y-19753809D01*
X87814285Y-19610952D01*
X87861904Y-19420476D01*
X87909523Y-19325238D01*
X88004761Y-19230000D01*
X88147619Y-19182380D01*
X88242857Y-19182380D01*
X88385714Y-19230000D01*
X88433333Y-19277619D01*
X89290476Y-19515714D02*
X89290476Y-20182380D01*
X89052380Y-19134761D02*
X88814285Y-19849047D01*
X89433333Y-19849047D01*
G04 #@! TO.C,C3*
X88423333Y-36357142D02*
X88375714Y-36404761D01*
X88232857Y-36452380D01*
X88137619Y-36452380D01*
X87994761Y-36404761D01*
X87899523Y-36309523D01*
X87851904Y-36214285D01*
X87804285Y-36023809D01*
X87804285Y-35880952D01*
X87851904Y-35690476D01*
X87899523Y-35595238D01*
X87994761Y-35500000D01*
X88137619Y-35452380D01*
X88232857Y-35452380D01*
X88375714Y-35500000D01*
X88423333Y-35547619D01*
X88756666Y-35452380D02*
X89375714Y-35452380D01*
X89042380Y-35833333D01*
X89185238Y-35833333D01*
X89280476Y-35880952D01*
X89328095Y-35928571D01*
X89375714Y-36023809D01*
X89375714Y-36261904D01*
X89328095Y-36357142D01*
X89280476Y-36404761D01*
X89185238Y-36452380D01*
X88899523Y-36452380D01*
X88804285Y-36404761D01*
X88756666Y-36357142D01*
G04 #@! TO.C,C5*
X114783333Y-37182142D02*
X114735714Y-37229761D01*
X114592857Y-37277380D01*
X114497619Y-37277380D01*
X114354761Y-37229761D01*
X114259523Y-37134523D01*
X114211904Y-37039285D01*
X114164285Y-36848809D01*
X114164285Y-36705952D01*
X114211904Y-36515476D01*
X114259523Y-36420238D01*
X114354761Y-36325000D01*
X114497619Y-36277380D01*
X114592857Y-36277380D01*
X114735714Y-36325000D01*
X114783333Y-36372619D01*
X115688095Y-36277380D02*
X115211904Y-36277380D01*
X115164285Y-36753571D01*
X115211904Y-36705952D01*
X115307142Y-36658333D01*
X115545238Y-36658333D01*
X115640476Y-36705952D01*
X115688095Y-36753571D01*
X115735714Y-36848809D01*
X115735714Y-37086904D01*
X115688095Y-37182142D01*
X115640476Y-37229761D01*
X115545238Y-37277380D01*
X115307142Y-37277380D01*
X115211904Y-37229761D01*
X115164285Y-37182142D01*
G04 #@! TO.C,S6*
X93238095Y-28404761D02*
X93380952Y-28452380D01*
X93619047Y-28452380D01*
X93714285Y-28404761D01*
X93761904Y-28357142D01*
X93809523Y-28261904D01*
X93809523Y-28166666D01*
X93761904Y-28071428D01*
X93714285Y-28023809D01*
X93619047Y-27976190D01*
X93428571Y-27928571D01*
X93333333Y-27880952D01*
X93285714Y-27833333D01*
X93238095Y-27738095D01*
X93238095Y-27642857D01*
X93285714Y-27547619D01*
X93333333Y-27500000D01*
X93428571Y-27452380D01*
X93666666Y-27452380D01*
X93809523Y-27500000D01*
X94666666Y-27452380D02*
X94476190Y-27452380D01*
X94380952Y-27500000D01*
X94333333Y-27547619D01*
X94238095Y-27690476D01*
X94190476Y-27880952D01*
X94190476Y-28261904D01*
X94238095Y-28357142D01*
X94285714Y-28404761D01*
X94380952Y-28452380D01*
X94571428Y-28452380D01*
X94666666Y-28404761D01*
X94714285Y-28357142D01*
X94761904Y-28261904D01*
X94761904Y-28023809D01*
X94714285Y-27928571D01*
X94666666Y-27880952D01*
X94571428Y-27833333D01*
X94380952Y-27833333D01*
X94285714Y-27880952D01*
X94238095Y-27928571D01*
X94190476Y-28023809D01*
G04 #@! TO.C,R5*
X114778333Y-40352380D02*
X114445000Y-39876190D01*
X114206904Y-40352380D02*
X114206904Y-39352380D01*
X114587857Y-39352380D01*
X114683095Y-39400000D01*
X114730714Y-39447619D01*
X114778333Y-39542857D01*
X114778333Y-39685714D01*
X114730714Y-39780952D01*
X114683095Y-39828571D01*
X114587857Y-39876190D01*
X114206904Y-39876190D01*
X115683095Y-39352380D02*
X115206904Y-39352380D01*
X115159285Y-39828571D01*
X115206904Y-39780952D01*
X115302142Y-39733333D01*
X115540238Y-39733333D01*
X115635476Y-39780952D01*
X115683095Y-39828571D01*
X115730714Y-39923809D01*
X115730714Y-40161904D01*
X115683095Y-40257142D01*
X115635476Y-40304761D01*
X115540238Y-40352380D01*
X115302142Y-40352380D01*
X115206904Y-40304761D01*
X115159285Y-40257142D01*
G04 #@! TO.C,S6*
X49738095Y-28404761D02*
X49880952Y-28452380D01*
X50119047Y-28452380D01*
X50214285Y-28404761D01*
X50261904Y-28357142D01*
X50309523Y-28261904D01*
X50309523Y-28166666D01*
X50261904Y-28071428D01*
X50214285Y-28023809D01*
X50119047Y-27976190D01*
X49928571Y-27928571D01*
X49833333Y-27880952D01*
X49785714Y-27833333D01*
X49738095Y-27738095D01*
X49738095Y-27642857D01*
X49785714Y-27547619D01*
X49833333Y-27500000D01*
X49928571Y-27452380D01*
X50166666Y-27452380D01*
X50309523Y-27500000D01*
X51166666Y-27452380D02*
X50976190Y-27452380D01*
X50880952Y-27500000D01*
X50833333Y-27547619D01*
X50738095Y-27690476D01*
X50690476Y-27880952D01*
X50690476Y-28261904D01*
X50738095Y-28357142D01*
X50785714Y-28404761D01*
X50880952Y-28452380D01*
X51071428Y-28452380D01*
X51166666Y-28404761D01*
X51214285Y-28357142D01*
X51261904Y-28261904D01*
X51261904Y-28023809D01*
X51214285Y-27928571D01*
X51166666Y-27880952D01*
X51071428Y-27833333D01*
X50880952Y-27833333D01*
X50785714Y-27880952D01*
X50738095Y-27928571D01*
X50690476Y-28023809D01*
G04 #@! TO.C,S5*
X63238095Y-28404761D02*
X63380952Y-28452380D01*
X63619047Y-28452380D01*
X63714285Y-28404761D01*
X63761904Y-28357142D01*
X63809523Y-28261904D01*
X63809523Y-28166666D01*
X63761904Y-28071428D01*
X63714285Y-28023809D01*
X63619047Y-27976190D01*
X63428571Y-27928571D01*
X63333333Y-27880952D01*
X63285714Y-27833333D01*
X63238095Y-27738095D01*
X63238095Y-27642857D01*
X63285714Y-27547619D01*
X63333333Y-27500000D01*
X63428571Y-27452380D01*
X63666666Y-27452380D01*
X63809523Y-27500000D01*
X64714285Y-27452380D02*
X64238095Y-27452380D01*
X64190476Y-27928571D01*
X64238095Y-27880952D01*
X64333333Y-27833333D01*
X64571428Y-27833333D01*
X64666666Y-27880952D01*
X64714285Y-27928571D01*
X64761904Y-28023809D01*
X64761904Y-28261904D01*
X64714285Y-28357142D01*
X64666666Y-28404761D01*
X64571428Y-28452380D01*
X64333333Y-28452380D01*
X64238095Y-28404761D01*
X64190476Y-28357142D01*
G04 #@! TO.C,R2*
X82475092Y-38893291D02*
X82141759Y-38417101D01*
X81903663Y-38893291D02*
X81903663Y-37893291D01*
X82284616Y-37893291D01*
X82379854Y-37940911D01*
X82427473Y-37988530D01*
X82475092Y-38083768D01*
X82475092Y-38226625D01*
X82427473Y-38321863D01*
X82379854Y-38369482D01*
X82284616Y-38417101D01*
X81903663Y-38417101D01*
X82856044Y-37988530D02*
X82903663Y-37940911D01*
X82998901Y-37893291D01*
X83236997Y-37893291D01*
X83332235Y-37940911D01*
X83379854Y-37988530D01*
X83427473Y-38083768D01*
X83427473Y-38179006D01*
X83379854Y-38321863D01*
X82808425Y-38893291D01*
X83427473Y-38893291D01*
G04 #@! TO.C,R1*
X82505092Y-29793291D02*
X82171759Y-29317101D01*
X81933663Y-29793291D02*
X81933663Y-28793291D01*
X82314616Y-28793291D01*
X82409854Y-28840911D01*
X82457473Y-28888530D01*
X82505092Y-28983768D01*
X82505092Y-29126625D01*
X82457473Y-29221863D01*
X82409854Y-29269482D01*
X82314616Y-29317101D01*
X81933663Y-29317101D01*
X83457473Y-29793291D02*
X82886044Y-29793291D01*
X83171759Y-29793291D02*
X83171759Y-28793291D01*
X83076520Y-28936149D01*
X82981282Y-29031387D01*
X82886044Y-29079006D01*
G04 #@! TO.C,R6*
X71283333Y-34402380D02*
X70950000Y-33926190D01*
X70711904Y-34402380D02*
X70711904Y-33402380D01*
X71092857Y-33402380D01*
X71188095Y-33450000D01*
X71235714Y-33497619D01*
X71283333Y-33592857D01*
X71283333Y-33735714D01*
X71235714Y-33830952D01*
X71188095Y-33878571D01*
X71092857Y-33926190D01*
X70711904Y-33926190D01*
X72140476Y-33402380D02*
X71950000Y-33402380D01*
X71854761Y-33450000D01*
X71807142Y-33497619D01*
X71711904Y-33640476D01*
X71664285Y-33830952D01*
X71664285Y-34211904D01*
X71711904Y-34307142D01*
X71759523Y-34354761D01*
X71854761Y-34402380D01*
X72045238Y-34402380D01*
X72140476Y-34354761D01*
X72188095Y-34307142D01*
X72235714Y-34211904D01*
X72235714Y-33973809D01*
X72188095Y-33878571D01*
X72140476Y-33830952D01*
X72045238Y-33783333D01*
X71854761Y-33783333D01*
X71759523Y-33830952D01*
X71711904Y-33878571D01*
X71664285Y-33973809D01*
G04 #@! TO.C,R3*
X44923333Y-39627380D02*
X44590000Y-39151190D01*
X44351904Y-39627380D02*
X44351904Y-38627380D01*
X44732857Y-38627380D01*
X44828095Y-38675000D01*
X44875714Y-38722619D01*
X44923333Y-38817857D01*
X44923333Y-38960714D01*
X44875714Y-39055952D01*
X44828095Y-39103571D01*
X44732857Y-39151190D01*
X44351904Y-39151190D01*
X45256666Y-38627380D02*
X45875714Y-38627380D01*
X45542380Y-39008333D01*
X45685238Y-39008333D01*
X45780476Y-39055952D01*
X45828095Y-39103571D01*
X45875714Y-39198809D01*
X45875714Y-39436904D01*
X45828095Y-39532142D01*
X45780476Y-39579761D01*
X45685238Y-39627380D01*
X45399523Y-39627380D01*
X45304285Y-39579761D01*
X45256666Y-39532142D01*
G04 #@! TO.C,R4*
X44883333Y-17007380D02*
X44550000Y-16531190D01*
X44311904Y-17007380D02*
X44311904Y-16007380D01*
X44692857Y-16007380D01*
X44788095Y-16055000D01*
X44835714Y-16102619D01*
X44883333Y-16197857D01*
X44883333Y-16340714D01*
X44835714Y-16435952D01*
X44788095Y-16483571D01*
X44692857Y-16531190D01*
X44311904Y-16531190D01*
X45740476Y-16340714D02*
X45740476Y-17007380D01*
X45502380Y-15959761D02*
X45264285Y-16674047D01*
X45883333Y-16674047D01*
G04 #@! TO.C,Q1*
X70784761Y-31027619D02*
X70689523Y-30980000D01*
X70594285Y-30884761D01*
X70451428Y-30741904D01*
X70356190Y-30694285D01*
X70260952Y-30694285D01*
X70308571Y-30932380D02*
X70213333Y-30884761D01*
X70118095Y-30789523D01*
X70070476Y-30599047D01*
X70070476Y-30265714D01*
X70118095Y-30075238D01*
X70213333Y-29980000D01*
X70308571Y-29932380D01*
X70499047Y-29932380D01*
X70594285Y-29980000D01*
X70689523Y-30075238D01*
X70737142Y-30265714D01*
X70737142Y-30599047D01*
X70689523Y-30789523D01*
X70594285Y-30884761D01*
X70499047Y-30932380D01*
X70308571Y-30932380D01*
X71689523Y-30932380D02*
X71118095Y-30932380D01*
X71403809Y-30932380D02*
X71403809Y-29932380D01*
X71308571Y-30075238D01*
X71213333Y-30170476D01*
X71118095Y-30218095D01*
G04 #@! TO.C,D1*
X67511904Y-37852380D02*
X67511904Y-36852380D01*
X67750000Y-36852380D01*
X67892857Y-36900000D01*
X67988095Y-36995238D01*
X68035714Y-37090476D01*
X68083333Y-37280952D01*
X68083333Y-37423809D01*
X68035714Y-37614285D01*
X67988095Y-37709523D01*
X67892857Y-37804761D01*
X67750000Y-37852380D01*
X67511904Y-37852380D01*
X69035714Y-37852380D02*
X68464285Y-37852380D01*
X68750000Y-37852380D02*
X68750000Y-36852380D01*
X68654761Y-36995238D01*
X68559523Y-37090476D01*
X68464285Y-37138095D01*
G04 #@! TO.C,C1*
X82515092Y-32748053D02*
X82467473Y-32795672D01*
X82324616Y-32843291D01*
X82229378Y-32843291D01*
X82086520Y-32795672D01*
X81991282Y-32700434D01*
X81943663Y-32605196D01*
X81896044Y-32414720D01*
X81896044Y-32271863D01*
X81943663Y-32081387D01*
X81991282Y-31986149D01*
X82086520Y-31890911D01*
X82229378Y-31843291D01*
X82324616Y-31843291D01*
X82467473Y-31890911D01*
X82515092Y-31938530D01*
X83467473Y-32843291D02*
X82896044Y-32843291D01*
X83181759Y-32843291D02*
X83181759Y-31843291D01*
X83086520Y-31986149D01*
X82991282Y-32081387D01*
X82896044Y-32129006D01*
G04 #@! TO.C,C2*
X82522333Y-35657142D02*
X82474714Y-35704761D01*
X82331857Y-35752380D01*
X82236619Y-35752380D01*
X82093761Y-35704761D01*
X81998523Y-35609523D01*
X81950904Y-35514285D01*
X81903285Y-35323809D01*
X81903285Y-35180952D01*
X81950904Y-34990476D01*
X81998523Y-34895238D01*
X82093761Y-34800000D01*
X82236619Y-34752380D01*
X82331857Y-34752380D01*
X82474714Y-34800000D01*
X82522333Y-34847619D01*
X82903285Y-34847619D02*
X82950904Y-34800000D01*
X83046142Y-34752380D01*
X83284238Y-34752380D01*
X83379476Y-34800000D01*
X83427095Y-34847619D01*
X83474714Y-34942857D01*
X83474714Y-35038095D01*
X83427095Y-35180952D01*
X82855666Y-35752380D01*
X83474714Y-35752380D01*
G04 #@! TO.C,C4*
X44933333Y-20087142D02*
X44885714Y-20134761D01*
X44742857Y-20182380D01*
X44647619Y-20182380D01*
X44504761Y-20134761D01*
X44409523Y-20039523D01*
X44361904Y-19944285D01*
X44314285Y-19753809D01*
X44314285Y-19610952D01*
X44361904Y-19420476D01*
X44409523Y-19325238D01*
X44504761Y-19230000D01*
X44647619Y-19182380D01*
X44742857Y-19182380D01*
X44885714Y-19230000D01*
X44933333Y-19277619D01*
X45790476Y-19515714D02*
X45790476Y-20182380D01*
X45552380Y-19134761D02*
X45314285Y-19849047D01*
X45933333Y-19849047D01*
G04 #@! TO.C,C3*
X44923333Y-36357142D02*
X44875714Y-36404761D01*
X44732857Y-36452380D01*
X44637619Y-36452380D01*
X44494761Y-36404761D01*
X44399523Y-36309523D01*
X44351904Y-36214285D01*
X44304285Y-36023809D01*
X44304285Y-35880952D01*
X44351904Y-35690476D01*
X44399523Y-35595238D01*
X44494761Y-35500000D01*
X44637619Y-35452380D01*
X44732857Y-35452380D01*
X44875714Y-35500000D01*
X44923333Y-35547619D01*
X45256666Y-35452380D02*
X45875714Y-35452380D01*
X45542380Y-35833333D01*
X45685238Y-35833333D01*
X45780476Y-35880952D01*
X45828095Y-35928571D01*
X45875714Y-36023809D01*
X45875714Y-36261904D01*
X45828095Y-36357142D01*
X45780476Y-36404761D01*
X45685238Y-36452380D01*
X45399523Y-36452380D01*
X45304285Y-36404761D01*
X45256666Y-36357142D01*
G04 #@! TO.C,C5*
X71283333Y-37182142D02*
X71235714Y-37229761D01*
X71092857Y-37277380D01*
X70997619Y-37277380D01*
X70854761Y-37229761D01*
X70759523Y-37134523D01*
X70711904Y-37039285D01*
X70664285Y-36848809D01*
X70664285Y-36705952D01*
X70711904Y-36515476D01*
X70759523Y-36420238D01*
X70854761Y-36325000D01*
X70997619Y-36277380D01*
X71092857Y-36277380D01*
X71235714Y-36325000D01*
X71283333Y-36372619D01*
X72188095Y-36277380D02*
X71711904Y-36277380D01*
X71664285Y-36753571D01*
X71711904Y-36705952D01*
X71807142Y-36658333D01*
X72045238Y-36658333D01*
X72140476Y-36705952D01*
X72188095Y-36753571D01*
X72235714Y-36848809D01*
X72235714Y-37086904D01*
X72188095Y-37182142D01*
X72140476Y-37229761D01*
X72045238Y-37277380D01*
X71807142Y-37277380D01*
X71711904Y-37229761D01*
X71664285Y-37182142D01*
G04 #@! TO.C,R5*
X71278333Y-40352380D02*
X70945000Y-39876190D01*
X70706904Y-40352380D02*
X70706904Y-39352380D01*
X71087857Y-39352380D01*
X71183095Y-39400000D01*
X71230714Y-39447619D01*
X71278333Y-39542857D01*
X71278333Y-39685714D01*
X71230714Y-39780952D01*
X71183095Y-39828571D01*
X71087857Y-39876190D01*
X70706904Y-39876190D01*
X72183095Y-39352380D02*
X71706904Y-39352380D01*
X71659285Y-39828571D01*
X71706904Y-39780952D01*
X71802142Y-39733333D01*
X72040238Y-39733333D01*
X72135476Y-39780952D01*
X72183095Y-39828571D01*
X72230714Y-39923809D01*
X72230714Y-40161904D01*
X72183095Y-40257142D01*
X72135476Y-40304761D01*
X72040238Y-40352380D01*
X71802142Y-40352380D01*
X71706904Y-40304761D01*
X71659285Y-40257142D01*
G04 #@! TO.C,*
G04 #@! TD*
M02*
