M48
;DRILL file {KiCad (5.0.2)-1} date 10-07-2020 17:38:39
;FORMAT={-:-/ absolute / inch / decimal}
FMAT,2
INCH,TZ
T1C0.0157
T2C0.0315
T3C0.0394
%
G90
G05
T1
X2.7283Y-1.9192
X2.752Y-1.9192
X2.7756Y-1.9192
X2.7992Y-1.9192
X2.8244Y-1.9192
X2.8465Y-1.9192
X2.8701Y-1.9192
X4.4409Y-1.9192
X4.4646Y-1.9192
X4.4882Y-1.9192
X4.5118Y-1.9192
X4.537Y-1.9192
X4.5591Y-1.9192
X4.5827Y-1.9192
X3.8819Y-3.6515
X3.9055Y-3.6515
X3.9291Y-3.6515
X3.9528Y-3.6515
X3.978Y-3.6515
X4.Y-3.6515
X4.0236Y-3.6515
X2.7283Y-2.0177
X2.752Y-2.0177
X2.774Y-2.0177
X2.7992Y-2.0177
X2.8228Y-2.0177
X2.8465Y-2.0177
X2.8701Y-2.0177
X2.1693Y-0.2854
X2.1929Y-0.2854
X2.215Y-0.2854
X2.2402Y-0.2854
X2.2638Y-0.2854
X2.2874Y-0.2854
X2.311Y-0.2854
X2.1693Y-3.6515
X2.1929Y-3.6515
X2.2165Y-3.6515
X2.2402Y-3.6515
X2.2654Y-3.6515
X2.2874Y-3.6515
X2.311Y-3.6515
X4.4409Y-0.2854
X4.4646Y-0.2854
X4.4866Y-0.2854
X4.5118Y-0.2854
X4.5354Y-0.2854
X4.5591Y-0.2854
X4.5827Y-0.2854
X3.8819Y-2.0177
X3.9055Y-2.0177
X3.9276Y-2.0177
X3.9528Y-2.0177
X3.9764Y-2.0177
X4.Y-2.0177
X4.0236Y-2.0177
X4.4409Y-2.0177
X4.4646Y-2.0177
X4.4866Y-2.0177
X4.5118Y-2.0177
X4.5354Y-2.0177
X4.5591Y-2.0177
X4.5827Y-2.0177
X4.4409Y-3.6515
X4.4646Y-3.6515
X4.4882Y-3.6515
X4.5118Y-3.6515
X4.537Y-3.6515
X4.5591Y-3.6515
X4.5827Y-3.6515
X2.1693Y-1.9192
X2.1929Y-1.9192
X2.2165Y-1.9192
X2.2402Y-1.9192
X2.2654Y-1.9192
X2.2874Y-1.9192
X2.311Y-1.9192
X3.8819Y-1.9192
X3.9055Y-1.9192
X3.9291Y-1.9192
X3.9528Y-1.9192
X3.978Y-1.9192
X4.Y-1.9192
X4.0236Y-1.9192
X2.7283Y-0.2854
X2.752Y-0.2854
X2.774Y-0.2854
X2.7992Y-0.2854
X2.8228Y-0.2854
X2.8465Y-0.2854
X2.8701Y-0.2854
X2.1693Y-2.0177
X2.1929Y-2.0177
X2.215Y-2.0177
X2.2402Y-2.0177
X2.2638Y-2.0177
X2.2874Y-2.0177
X2.311Y-2.0177
X2.7283Y-3.6515
X2.752Y-3.6515
X2.7756Y-3.6515
X2.7992Y-3.6515
X2.8244Y-3.6515
X2.8465Y-3.6515
X2.8701Y-3.6515
X3.8819Y-0.2854
X3.9055Y-0.2854
X3.9276Y-0.2854
X3.9528Y-0.2854
X3.9764Y-0.2854
X4.Y-0.2854
X4.0236Y-0.2854
T2
X3.376Y-3.7882
X3.376Y-3.8386
X3.376Y-3.889
X5.0886Y-0.048
X5.0886Y-0.0984
X5.0886Y-0.1488
X1.6634Y-0.048
X1.6634Y-0.0984
X1.6634Y-0.1488
X1.6634Y-3.7882
X1.6634Y-3.8386
X1.6634Y-3.889
X5.0886Y-3.7882
X5.0886Y-3.8386
X5.0886Y-3.889
X3.376Y-0.048
X3.376Y-0.0984
X3.376Y-0.1488
T3
X3.937Y-2.8346
X3.937Y-1.1024
X3.2874Y-2.8346
X2.2244Y-1.1024
X5.Y-2.8346
X5.Y-1.1024
X2.2244Y-2.8346
X3.2874Y-1.1024
T0
M30
