G04 #@! TF.GenerationSoftware,KiCad,Pcbnew,(5.0.2)-1*
G04 #@! TF.CreationDate,2020-07-10T17:38:52+02:00*
G04 #@! TF.ProjectId,IKEA_Button2,494b4541-5f42-4757-9474-6f6e322e6b69,rev?*
G04 #@! TF.SameCoordinates,Original*
G04 #@! TF.FileFunction,Copper,L2,Bot*
G04 #@! TF.FilePolarity,Positive*
%FSLAX46Y46*%
G04 Gerber Fmt 4.6, Leading zero omitted, Abs format (unit mm)*
G04 Created by KiCad (PCBNEW (5.0.2)-1) date 10-07-2020 17:38:52*
%MOMM*%
%LPD*%
G01*
G04 APERTURE LIST*
G04 #@! TA.AperFunction,ComponentPad*
%ADD10C,1.700000*%
G04 #@! TD*
G04 #@! TA.AperFunction,ComponentPad*
%ADD11R,1.700000X1.700000*%
G04 #@! TD*
G04 #@! TA.AperFunction,SMDPad,CuDef*
%ADD12R,3.500000X0.800000*%
G04 #@! TD*
G04 #@! TA.AperFunction,SMDPad,CuDef*
%ADD13R,2.000000X0.800000*%
G04 #@! TD*
G04 #@! TA.AperFunction,ComponentPad*
%ADD14C,1.650000*%
G04 #@! TD*
G04 #@! TA.AperFunction,ComponentPad*
%ADD15C,2.850000*%
G04 #@! TD*
G04 #@! TA.AperFunction,SMDPad,CuDef*
%ADD16O,4.500000X6.000000*%
G04 #@! TD*
G04 #@! TA.AperFunction,ViaPad*
%ADD17C,0.800000*%
G04 #@! TD*
G04 #@! TA.AperFunction,Conductor*
%ADD18C,0.400000*%
G04 #@! TD*
G04 #@! TA.AperFunction,Conductor*
%ADD19C,0.500000*%
G04 #@! TD*
G04 #@! TA.AperFunction,Conductor*
%ADD20C,0.800000*%
G04 #@! TD*
G04 #@! TA.AperFunction,Conductor*
%ADD21C,0.250000*%
G04 #@! TD*
G04 #@! TA.AperFunction,Conductor*
%ADD22C,0.200000*%
G04 #@! TD*
G04 #@! TA.AperFunction,Conductor*
%ADD23C,0.390000*%
G04 #@! TD*
G04 APERTURE END LIST*
D10*
G04 #@! TO.P,EXT1,1*
G04 #@! TO.N,Net-(C1-Pad1)*
X63272000Y-82136000D03*
G04 #@! TD*
G04 #@! TO.P,EXT2,1*
G04 #@! TO.N,Net-(C4-Pad1)*
X60732000Y-82136000D03*
G04 #@! TD*
G04 #@! TO.P,EXT3,1*
G04 #@! TO.N,Net-(C2-Pad1)*
X60732000Y-84676000D03*
G04 #@! TD*
G04 #@! TO.P,EXT4,1*
G04 #@! TO.N,Net-(C3-Pad1)*
X58192000Y-84676000D03*
G04 #@! TD*
D11*
G04 #@! TO.P,EXT_GND1,1*
G04 #@! TO.N,GND*
X63272000Y-79596000D03*
G04 #@! TD*
D10*
G04 #@! TO.P,SWDIO1,1*
G04 #@! TO.N,Net-(SWDIO1-Pad1)*
X63272000Y-61562000D03*
G04 #@! TD*
G04 #@! TO.P,SWCLK1,1*
G04 #@! TO.N,Net-(SWCLK1-Pad1)*
X63272000Y-59022000D03*
G04 #@! TD*
G04 #@! TO.P,RESETn1,1*
G04 #@! TO.N,Net-(RESETn1-Pad1)*
X63272000Y-64102000D03*
G04 #@! TD*
G04 #@! TO.P,EXT5,1*
G04 #@! TO.N,Net-(C5-Pad1)*
X63272000Y-84676000D03*
G04 #@! TD*
D12*
G04 #@! TO.P,U1,16*
G04 #@! TO.N,Pairing*
X82130000Y-73300000D03*
G04 #@! TO.P,U1,15*
G04 #@! TO.N,SW3*
X82130000Y-75200000D03*
G04 #@! TO.P,U1,14*
G04 #@! TO.N,Net-(U1-Pad14)*
X82130000Y-77100000D03*
G04 #@! TO.P,U1,13*
G04 #@! TO.N,LED*
X82130000Y-79000000D03*
G04 #@! TO.P,U1,12*
G04 #@! TO.N,GND*
X82130000Y-80900000D03*
G04 #@! TO.P,U1,11*
G04 #@! TO.N,VCC*
X82130000Y-82800000D03*
D13*
G04 #@! TO.P,U1,1*
G04 #@! TO.N,GND*
X65880000Y-85740000D03*
G04 #@! TO.P,U1,2*
G04 #@! TO.N,SW2*
X65880000Y-84030000D03*
G04 #@! TO.P,U1,3*
G04 #@! TO.N,SW4*
X65880000Y-82320000D03*
G04 #@! TO.P,U1,4*
G04 #@! TO.N,SW1*
X65880000Y-80610000D03*
G04 #@! TO.P,U1,5*
G04 #@! TO.N,SW5*
X65880000Y-78900000D03*
G04 #@! TO.P,U1,6*
G04 #@! TO.N,Net-(SWCLK1-Pad1)*
X65880000Y-77190000D03*
G04 #@! TO.P,U1,7*
G04 #@! TO.N,Net-(SWDIO1-Pad1)*
X65880000Y-75480000D03*
G04 #@! TO.P,U1,8*
G04 #@! TO.N,Net-(SWO1-Pad1)*
X65880000Y-73770000D03*
G04 #@! TO.P,U1,9*
G04 #@! TO.N,Net-(U1-Pad9)*
X65880000Y-72060000D03*
G04 #@! TO.P,U1,10*
G04 #@! TO.N,Net-(RESETn1-Pad1)*
X65880000Y-70350000D03*
G04 #@! TD*
D10*
G04 #@! TO.P,VCC1,1*
G04 #@! TO.N,VCC*
X60732000Y-61562000D03*
G04 #@! TD*
D11*
G04 #@! TO.P,GND1,1*
G04 #@! TO.N,GND*
X60732000Y-59022000D03*
G04 #@! TD*
D10*
G04 #@! TO.P,TP13,*
G04 #@! TO.N,GND*
X71500000Y-72000000D03*
G04 #@! TD*
D14*
G04 #@! TO.P,TP11,*
G04 #@! TO.N,GND*
X44500000Y-72000000D03*
G04 #@! TD*
D15*
G04 #@! TO.P,BT1,1*
G04 #@! TO.N,VCC*
X53400000Y-61435000D03*
D16*
G04 #@! TO.P,BT1,2*
G04 #@! TO.N,GND*
X53400000Y-72000000D03*
D15*
G04 #@! TO.P,BT1,1*
G04 #@! TO.N,VCC*
X53400000Y-82565000D03*
G04 #@! TD*
D10*
G04 #@! TO.P,EXT1,1*
G04 #@! TO.N,Net-(C1-Pad1)*
X106772000Y-82136000D03*
G04 #@! TD*
G04 #@! TO.P,EXT2,1*
G04 #@! TO.N,Net-(C4-Pad1)*
X104232000Y-82136000D03*
G04 #@! TD*
G04 #@! TO.P,EXT3,1*
G04 #@! TO.N,Net-(C2-Pad1)*
X104232000Y-84676000D03*
G04 #@! TD*
G04 #@! TO.P,EXT4,1*
G04 #@! TO.N,Net-(C3-Pad1)*
X101692000Y-84676000D03*
G04 #@! TD*
D11*
G04 #@! TO.P,EXT_GND1,1*
G04 #@! TO.N,GND*
X106772000Y-79596000D03*
G04 #@! TD*
D10*
G04 #@! TO.P,SWDIO1,1*
G04 #@! TO.N,Net-(SWDIO1-Pad1)*
X106772000Y-61562000D03*
G04 #@! TD*
G04 #@! TO.P,SWCLK1,1*
G04 #@! TO.N,Net-(SWCLK1-Pad1)*
X106772000Y-59022000D03*
G04 #@! TD*
G04 #@! TO.P,RESETn1,1*
G04 #@! TO.N,Net-(RESETn1-Pad1)*
X106772000Y-64102000D03*
G04 #@! TD*
G04 #@! TO.P,EXT5,1*
G04 #@! TO.N,Net-(C5-Pad1)*
X106772000Y-84676000D03*
G04 #@! TD*
D13*
G04 #@! TO.P,U1,10*
G04 #@! TO.N,Net-(RESETn1-Pad1)*
X109380000Y-70350000D03*
G04 #@! TO.P,U1,9*
G04 #@! TO.N,Net-(U1-Pad9)*
X109380000Y-72060000D03*
G04 #@! TO.P,U1,8*
G04 #@! TO.N,Net-(SWO1-Pad1)*
X109380000Y-73770000D03*
G04 #@! TO.P,U1,7*
G04 #@! TO.N,Net-(SWDIO1-Pad1)*
X109380000Y-75480000D03*
G04 #@! TO.P,U1,6*
G04 #@! TO.N,Net-(SWCLK1-Pad1)*
X109380000Y-77190000D03*
G04 #@! TO.P,U1,5*
G04 #@! TO.N,SW5*
X109380000Y-78900000D03*
G04 #@! TO.P,U1,4*
G04 #@! TO.N,SW1*
X109380000Y-80610000D03*
G04 #@! TO.P,U1,3*
G04 #@! TO.N,SW4*
X109380000Y-82320000D03*
G04 #@! TO.P,U1,2*
G04 #@! TO.N,SW2*
X109380000Y-84030000D03*
G04 #@! TO.P,U1,1*
G04 #@! TO.N,GND*
X109380000Y-85740000D03*
D12*
G04 #@! TO.P,U1,11*
G04 #@! TO.N,VCC*
X125630000Y-82800000D03*
G04 #@! TO.P,U1,12*
G04 #@! TO.N,GND*
X125630000Y-80900000D03*
G04 #@! TO.P,U1,13*
G04 #@! TO.N,LED*
X125630000Y-79000000D03*
G04 #@! TO.P,U1,14*
G04 #@! TO.N,Net-(U1-Pad14)*
X125630000Y-77100000D03*
G04 #@! TO.P,U1,15*
G04 #@! TO.N,SW3*
X125630000Y-75200000D03*
G04 #@! TO.P,U1,16*
G04 #@! TO.N,Pairing*
X125630000Y-73300000D03*
G04 #@! TD*
D10*
G04 #@! TO.P,VCC1,1*
G04 #@! TO.N,VCC*
X104232000Y-61562000D03*
G04 #@! TD*
D11*
G04 #@! TO.P,GND1,1*
G04 #@! TO.N,GND*
X104232000Y-59022000D03*
G04 #@! TD*
D10*
G04 #@! TO.P,TP13,*
G04 #@! TO.N,GND*
X115000000Y-72000000D03*
G04 #@! TD*
D14*
G04 #@! TO.P,TP11,*
G04 #@! TO.N,GND*
X88000000Y-72000000D03*
G04 #@! TD*
D15*
G04 #@! TO.P,BT1,1*
G04 #@! TO.N,VCC*
X96900000Y-82565000D03*
D16*
G04 #@! TO.P,BT1,2*
G04 #@! TO.N,GND*
X96900000Y-72000000D03*
D15*
G04 #@! TO.P,BT1,1*
G04 #@! TO.N,VCC*
X96900000Y-61435000D03*
G04 #@! TD*
D11*
G04 #@! TO.P,GND1,1*
G04 #@! TO.N,GND*
X104232000Y-15022000D03*
G04 #@! TD*
D10*
G04 #@! TO.P,TP13,*
G04 #@! TO.N,GND*
X115000000Y-28000000D03*
G04 #@! TD*
D14*
G04 #@! TO.P,TP11,*
G04 #@! TO.N,GND*
X88000000Y-28000000D03*
G04 #@! TD*
D15*
G04 #@! TO.P,BT1,1*
G04 #@! TO.N,VCC*
X96900000Y-17435000D03*
D16*
G04 #@! TO.P,BT1,2*
G04 #@! TO.N,GND*
X96900000Y-28000000D03*
D15*
G04 #@! TO.P,BT1,1*
G04 #@! TO.N,VCC*
X96900000Y-38565000D03*
G04 #@! TD*
D10*
G04 #@! TO.P,EXT1,1*
G04 #@! TO.N,Net-(C1-Pad1)*
X106772000Y-38136000D03*
G04 #@! TD*
G04 #@! TO.P,EXT2,1*
G04 #@! TO.N,Net-(C4-Pad1)*
X104232000Y-38136000D03*
G04 #@! TD*
G04 #@! TO.P,EXT3,1*
G04 #@! TO.N,Net-(C2-Pad1)*
X104232000Y-40676000D03*
G04 #@! TD*
G04 #@! TO.P,EXT4,1*
G04 #@! TO.N,Net-(C3-Pad1)*
X101692000Y-40676000D03*
G04 #@! TD*
D11*
G04 #@! TO.P,EXT_GND1,1*
G04 #@! TO.N,GND*
X106772000Y-35596000D03*
G04 #@! TD*
D10*
G04 #@! TO.P,SWDIO1,1*
G04 #@! TO.N,Net-(SWDIO1-Pad1)*
X106772000Y-17562000D03*
G04 #@! TD*
G04 #@! TO.P,SWCLK1,1*
G04 #@! TO.N,Net-(SWCLK1-Pad1)*
X106772000Y-15022000D03*
G04 #@! TD*
G04 #@! TO.P,RESETn1,1*
G04 #@! TO.N,Net-(RESETn1-Pad1)*
X106772000Y-20102000D03*
G04 #@! TD*
G04 #@! TO.P,EXT5,1*
G04 #@! TO.N,Net-(C5-Pad1)*
X106772000Y-40676000D03*
G04 #@! TD*
D12*
G04 #@! TO.P,U1,16*
G04 #@! TO.N,Pairing*
X125630000Y-29300000D03*
G04 #@! TO.P,U1,15*
G04 #@! TO.N,SW3*
X125630000Y-31200000D03*
G04 #@! TO.P,U1,14*
G04 #@! TO.N,Net-(U1-Pad14)*
X125630000Y-33100000D03*
G04 #@! TO.P,U1,13*
G04 #@! TO.N,LED*
X125630000Y-35000000D03*
G04 #@! TO.P,U1,12*
G04 #@! TO.N,GND*
X125630000Y-36900000D03*
G04 #@! TO.P,U1,11*
G04 #@! TO.N,VCC*
X125630000Y-38800000D03*
D13*
G04 #@! TO.P,U1,1*
G04 #@! TO.N,GND*
X109380000Y-41740000D03*
G04 #@! TO.P,U1,2*
G04 #@! TO.N,SW2*
X109380000Y-40030000D03*
G04 #@! TO.P,U1,3*
G04 #@! TO.N,SW4*
X109380000Y-38320000D03*
G04 #@! TO.P,U1,4*
G04 #@! TO.N,SW1*
X109380000Y-36610000D03*
G04 #@! TO.P,U1,5*
G04 #@! TO.N,SW5*
X109380000Y-34900000D03*
G04 #@! TO.P,U1,6*
G04 #@! TO.N,Net-(SWCLK1-Pad1)*
X109380000Y-33190000D03*
G04 #@! TO.P,U1,7*
G04 #@! TO.N,Net-(SWDIO1-Pad1)*
X109380000Y-31480000D03*
G04 #@! TO.P,U1,8*
G04 #@! TO.N,Net-(SWO1-Pad1)*
X109380000Y-29770000D03*
G04 #@! TO.P,U1,9*
G04 #@! TO.N,Net-(U1-Pad9)*
X109380000Y-28060000D03*
G04 #@! TO.P,U1,10*
G04 #@! TO.N,Net-(RESETn1-Pad1)*
X109380000Y-26350000D03*
G04 #@! TD*
D10*
G04 #@! TO.P,VCC1,1*
G04 #@! TO.N,VCC*
X104232000Y-17562000D03*
G04 #@! TD*
G04 #@! TO.P,EXT5,1*
G04 #@! TO.N,Net-(C5-Pad1)*
X63272000Y-40676000D03*
G04 #@! TD*
D13*
G04 #@! TO.P,U1,10*
G04 #@! TO.N,Net-(RESETn1-Pad1)*
X65880000Y-26350000D03*
G04 #@! TO.P,U1,9*
G04 #@! TO.N,Net-(U1-Pad9)*
X65880000Y-28060000D03*
G04 #@! TO.P,U1,8*
G04 #@! TO.N,Net-(SWO1-Pad1)*
X65880000Y-29770000D03*
G04 #@! TO.P,U1,7*
G04 #@! TO.N,Net-(SWDIO1-Pad1)*
X65880000Y-31480000D03*
G04 #@! TO.P,U1,6*
G04 #@! TO.N,Net-(SWCLK1-Pad1)*
X65880000Y-33190000D03*
G04 #@! TO.P,U1,5*
G04 #@! TO.N,SW5*
X65880000Y-34900000D03*
G04 #@! TO.P,U1,4*
G04 #@! TO.N,SW1*
X65880000Y-36610000D03*
G04 #@! TO.P,U1,3*
G04 #@! TO.N,SW4*
X65880000Y-38320000D03*
G04 #@! TO.P,U1,2*
G04 #@! TO.N,SW2*
X65880000Y-40030000D03*
G04 #@! TO.P,U1,1*
G04 #@! TO.N,GND*
X65880000Y-41740000D03*
D12*
G04 #@! TO.P,U1,11*
G04 #@! TO.N,VCC*
X82130000Y-38800000D03*
G04 #@! TO.P,U1,12*
G04 #@! TO.N,GND*
X82130000Y-36900000D03*
G04 #@! TO.P,U1,13*
G04 #@! TO.N,LED*
X82130000Y-35000000D03*
G04 #@! TO.P,U1,14*
G04 #@! TO.N,Net-(U1-Pad14)*
X82130000Y-33100000D03*
G04 #@! TO.P,U1,15*
G04 #@! TO.N,SW3*
X82130000Y-31200000D03*
G04 #@! TO.P,U1,16*
G04 #@! TO.N,Pairing*
X82130000Y-29300000D03*
G04 #@! TD*
D10*
G04 #@! TO.P,VCC1,1*
G04 #@! TO.N,VCC*
X60732000Y-17562000D03*
G04 #@! TD*
D11*
G04 #@! TO.P,GND1,1*
G04 #@! TO.N,GND*
X60732000Y-15022000D03*
G04 #@! TD*
D10*
G04 #@! TO.P,TP13,*
G04 #@! TO.N,GND*
X71500000Y-28000000D03*
G04 #@! TD*
D14*
G04 #@! TO.P,TP11,*
G04 #@! TO.N,GND*
X44500000Y-28000000D03*
G04 #@! TD*
D15*
G04 #@! TO.P,BT1,1*
G04 #@! TO.N,VCC*
X53400000Y-38565000D03*
D16*
G04 #@! TO.P,BT1,2*
G04 #@! TO.N,GND*
X53400000Y-28000000D03*
D15*
G04 #@! TO.P,BT1,1*
G04 #@! TO.N,VCC*
X53400000Y-17435000D03*
G04 #@! TD*
D10*
G04 #@! TO.P,EXT1,1*
G04 #@! TO.N,Net-(C1-Pad1)*
X63272000Y-38136000D03*
G04 #@! TD*
G04 #@! TO.P,EXT2,1*
G04 #@! TO.N,Net-(C4-Pad1)*
X60732000Y-38136000D03*
G04 #@! TD*
G04 #@! TO.P,EXT3,1*
G04 #@! TO.N,Net-(C2-Pad1)*
X60732000Y-40676000D03*
G04 #@! TD*
G04 #@! TO.P,EXT4,1*
G04 #@! TO.N,Net-(C3-Pad1)*
X58192000Y-40676000D03*
G04 #@! TD*
D11*
G04 #@! TO.P,EXT_GND1,1*
G04 #@! TO.N,GND*
X63272000Y-35596000D03*
G04 #@! TD*
D10*
G04 #@! TO.P,SWDIO1,1*
G04 #@! TO.N,Net-(SWDIO1-Pad1)*
X63272000Y-17562000D03*
G04 #@! TD*
G04 #@! TO.P,SWCLK1,1*
G04 #@! TO.N,Net-(SWCLK1-Pad1)*
X63272000Y-15022000D03*
G04 #@! TD*
G04 #@! TO.P,RESETn1,1*
G04 #@! TO.N,Net-(RESETn1-Pad1)*
X63272000Y-20102000D03*
G04 #@! TD*
D17*
G04 #@! TO.N,GND*
X58506759Y-45090911D03*
G04 #@! TO.N,*
X102006759Y-45090911D03*
G04 #@! TO.N,GND*
X102006759Y-89090911D03*
X119640000Y-86850000D03*
X58506759Y-89090911D03*
G04 #@! TO.N,VCC*
X71750000Y-34750000D03*
X70750000Y-34750000D03*
X115250000Y-34750000D03*
X114250000Y-34750000D03*
X115250000Y-78750000D03*
X114250000Y-78750000D03*
X70750000Y-78750000D03*
X71750000Y-78750000D03*
G04 #@! TO.N,GND*
X82280000Y-40580000D03*
X44700000Y-20900000D03*
X50860000Y-34410000D03*
X50590000Y-25180000D03*
X50330000Y-31230000D03*
X48200000Y-28160000D03*
X59660000Y-24750000D03*
X51080000Y-39420000D03*
X69350000Y-29750000D03*
X73500000Y-27500000D03*
X75500000Y-27500000D03*
X77500000Y-27500000D03*
X79500000Y-27500000D03*
X46670000Y-37590000D03*
X58190000Y-21960000D03*
X75860000Y-38340000D03*
X77180000Y-40110000D03*
X70660000Y-42850000D03*
X76140000Y-42850000D03*
X78770000Y-42870000D03*
X69340000Y-45030000D03*
X51500000Y-15500000D03*
X49000000Y-14500000D03*
X46610000Y-40840000D03*
X49000000Y-43000000D03*
X51600000Y-43000000D03*
X44675000Y-40450000D03*
X62156759Y-42100911D03*
X64686759Y-41980911D03*
X59440000Y-31660000D03*
X49780000Y-21850000D03*
X50500000Y-8750000D03*
X54710000Y-15270000D03*
X58446000Y-15276000D03*
X57040000Y-42300000D03*
X54400000Y-44925000D03*
X44680000Y-15410000D03*
X55830000Y-20920000D03*
X60300000Y-28000000D03*
X55910000Y-30870000D03*
X56000000Y-24640000D03*
X54920000Y-34440000D03*
X73010000Y-38360000D03*
X70000000Y-39100000D03*
X78400000Y-36900000D03*
X80900000Y-36900000D03*
X70400000Y-36930000D03*
X44660000Y-34500000D03*
X62700000Y-28000000D03*
X65000000Y-21500000D03*
X65000000Y-17500000D03*
X65000000Y-19500000D03*
X65500000Y-23000000D03*
X67500000Y-25000000D03*
X49250000Y-47500000D03*
X44500000Y-10000000D03*
X44700000Y-18125000D03*
X57986759Y-8640911D03*
X77500000Y-47500000D03*
X83500000Y-45000000D03*
X69984000Y-47500000D03*
X67766759Y-43260911D03*
X81500000Y-27500000D03*
X61120000Y-13140000D03*
X51442000Y-47500000D03*
X57916759Y-47380911D03*
X60126759Y-43170911D03*
X44700000Y-45000000D03*
X58930000Y-11340000D03*
X99500000Y-24640000D03*
X98420000Y-34440000D03*
X116510000Y-38360000D03*
X113500000Y-39100000D03*
X121900000Y-36900000D03*
X124400000Y-36900000D03*
X113900000Y-36930000D03*
X88160000Y-34500000D03*
X106200000Y-28000000D03*
X108500000Y-21500000D03*
X108500000Y-17500000D03*
X108500000Y-19500000D03*
X109000000Y-23000000D03*
X111000000Y-25000000D03*
X92750000Y-47500000D03*
X88000000Y-10000000D03*
X88200000Y-18125000D03*
X101486759Y-8640911D03*
X121000000Y-47500000D03*
X127000000Y-45000000D03*
X113484000Y-47500000D03*
X111266759Y-43260911D03*
X125000000Y-27500000D03*
X104620000Y-13140000D03*
X94942000Y-47500000D03*
X101416759Y-47380911D03*
X103626759Y-43170911D03*
X88200000Y-45000000D03*
X102430000Y-11340000D03*
X119640000Y-42850000D03*
X122270000Y-42870000D03*
X112840000Y-45030000D03*
X95000000Y-15500000D03*
X101690000Y-21960000D03*
X119360000Y-38340000D03*
X120680000Y-40110000D03*
X114160000Y-42850000D03*
X103800000Y-28000000D03*
X99330000Y-20920000D03*
X88180000Y-15410000D03*
X97900000Y-44925000D03*
X100540000Y-42300000D03*
X101946000Y-15276000D03*
X98210000Y-15270000D03*
X94000000Y-8750000D03*
X93280000Y-21850000D03*
X102940000Y-31660000D03*
X108186759Y-41980911D03*
X105656759Y-42100911D03*
X88175000Y-40450000D03*
X95100000Y-43000000D03*
X92500000Y-43000000D03*
X90110000Y-40840000D03*
X92500000Y-14500000D03*
X91700000Y-28160000D03*
X103160000Y-24750000D03*
X117000000Y-27500000D03*
X112850000Y-29750000D03*
X94580000Y-39420000D03*
X90170000Y-37590000D03*
X123000000Y-27500000D03*
X121000000Y-27500000D03*
X119000000Y-27500000D03*
X125780000Y-40580000D03*
X88200000Y-20900000D03*
X94360000Y-34410000D03*
X94090000Y-25180000D03*
X93830000Y-31230000D03*
X99410000Y-30870000D03*
X98420000Y-78440000D03*
X116510000Y-82360000D03*
X113500000Y-83100000D03*
X121900000Y-80900000D03*
X124400000Y-80900000D03*
X113900000Y-80930000D03*
X88160000Y-78500000D03*
X106200000Y-72000000D03*
X108500000Y-65500000D03*
X108500000Y-61500000D03*
X108500000Y-63500000D03*
X109000000Y-67000000D03*
X111000000Y-69000000D03*
X92750000Y-91500000D03*
X88000000Y-54000000D03*
X88200000Y-62125000D03*
X101486759Y-52640911D03*
X121000000Y-91500000D03*
X127000000Y-89000000D03*
X113484000Y-91500000D03*
X111266759Y-87260911D03*
X125000000Y-71500000D03*
X104620000Y-57140000D03*
X88200000Y-64900000D03*
X99500000Y-68640000D03*
X94942000Y-91500000D03*
X101416759Y-91380911D03*
X103626759Y-87170911D03*
X88200000Y-89000000D03*
X102430000Y-55340000D03*
X122270000Y-86870000D03*
X112840000Y-89030000D03*
X95000000Y-59500000D03*
X101690000Y-65960000D03*
X119360000Y-82340000D03*
X120680000Y-84110000D03*
X114160000Y-86850000D03*
X103800000Y-72000000D03*
X99330000Y-64920000D03*
X88180000Y-59410000D03*
X97900000Y-88925000D03*
X100540000Y-86300000D03*
X101946000Y-59276000D03*
X98210000Y-59270000D03*
X94000000Y-52750000D03*
X102940000Y-75660000D03*
X108186759Y-85980911D03*
X105656759Y-86100911D03*
X88175000Y-84450000D03*
X95100000Y-87000000D03*
X92500000Y-87000000D03*
X90110000Y-84840000D03*
X92500000Y-58500000D03*
X91700000Y-72160000D03*
X103160000Y-68750000D03*
X117000000Y-71500000D03*
X112850000Y-73750000D03*
X94580000Y-83420000D03*
X112500000Y-70500000D03*
X90170000Y-81590000D03*
X123000000Y-71500000D03*
X121000000Y-71500000D03*
X119000000Y-71500000D03*
X125780000Y-84580000D03*
X94360000Y-78410000D03*
X94090000Y-69180000D03*
X93830000Y-75230000D03*
X99410000Y-74870000D03*
X93280000Y-65850000D03*
X77500000Y-91500000D03*
X57986759Y-52640911D03*
X44700000Y-62125000D03*
X44500000Y-54000000D03*
X49250000Y-91500000D03*
X65500000Y-67000000D03*
X65000000Y-63500000D03*
X65000000Y-61500000D03*
X65000000Y-65500000D03*
X62700000Y-72000000D03*
X44660000Y-78500000D03*
X70400000Y-80930000D03*
X80900000Y-80900000D03*
X78400000Y-80900000D03*
X70000000Y-83100000D03*
X73010000Y-82360000D03*
X54920000Y-78440000D03*
X83500000Y-89000000D03*
X69984000Y-91500000D03*
X67766759Y-87260911D03*
X81500000Y-71500000D03*
X61120000Y-57140000D03*
X44700000Y-64900000D03*
X56000000Y-68640000D03*
X51442000Y-91500000D03*
X57916759Y-91380911D03*
X60126759Y-87170911D03*
X44700000Y-89000000D03*
X58930000Y-55340000D03*
X76140000Y-86850000D03*
X78770000Y-86870000D03*
X69340000Y-89030000D03*
X51500000Y-59500000D03*
X58190000Y-65960000D03*
X75860000Y-82340000D03*
X77180000Y-84110000D03*
X70660000Y-86850000D03*
X60300000Y-72000000D03*
X55830000Y-64920000D03*
X44680000Y-59410000D03*
X54400000Y-88925000D03*
X57040000Y-86300000D03*
X58446000Y-59276000D03*
X54710000Y-59270000D03*
X50500000Y-52750000D03*
X59440000Y-75660000D03*
X64686759Y-85980911D03*
X62156759Y-86100911D03*
X44675000Y-84450000D03*
X51600000Y-87000000D03*
X49000000Y-87000000D03*
X46610000Y-84840000D03*
X49000000Y-58500000D03*
X48200000Y-72160000D03*
X59660000Y-68750000D03*
X73500000Y-71500000D03*
X69350000Y-73750000D03*
X51080000Y-83420000D03*
X69000000Y-70500000D03*
X46670000Y-81590000D03*
X79500000Y-71500000D03*
X77500000Y-71500000D03*
X75500000Y-71500000D03*
X82280000Y-84580000D03*
X50860000Y-78410000D03*
X50590000Y-69180000D03*
X50330000Y-75230000D03*
X55910000Y-74870000D03*
X49780000Y-65850000D03*
X69000000Y-26500000D03*
X65000000Y-13750000D03*
X112500000Y-26500000D03*
X108500000Y-13750000D03*
G04 #@! TO.N,SW5*
X68090000Y-37510000D03*
X111590000Y-37510000D03*
X111590000Y-81510000D03*
X68090000Y-81510000D03*
G04 #@! TO.N,SW1*
X77800000Y-31800000D03*
X121300000Y-31800000D03*
X121300000Y-75800000D03*
X77800000Y-75800000D03*
G04 #@! TO.N,SW3*
X71100000Y-32200000D03*
X114600000Y-32200000D03*
X114600000Y-76200000D03*
X71100000Y-76200000D03*
G04 #@! TO.N,SW4*
X58700000Y-38590000D03*
X102200000Y-38590000D03*
X102200000Y-82590000D03*
X58700000Y-82590000D03*
G04 #@! TO.N,Pairing*
X69692006Y-31472005D03*
X113192006Y-31472005D03*
X113192006Y-75472005D03*
X69692006Y-75472005D03*
G04 #@! TO.N,LED*
X76800000Y-32100000D03*
X120300000Y-32100000D03*
X120300000Y-76100000D03*
X76800000Y-76100000D03*
G04 #@! TO.N,Net-(C1-Pad1)*
X68500000Y-31500000D03*
X112000000Y-31500000D03*
X112000000Y-75500000D03*
X68500000Y-75500000D03*
G04 #@! TO.N,GND*
X108500000Y-57750000D03*
X65000000Y-57750000D03*
X67500000Y-69000000D03*
G04 #@! TO.N,Net-(C5-Pad1)*
X71250000Y-33750000D03*
X114750000Y-33750000D03*
X114750000Y-77750000D03*
X71250000Y-77750000D03*
G04 #@! TO.N,SW2*
X67562653Y-40177347D03*
X111062653Y-40177347D03*
X111062653Y-84177347D03*
X67562653Y-84177347D03*
G04 #@! TD*
D18*
G04 #@! TO.N,VCC*
X59692000Y-17562000D02*
X60732000Y-17562000D01*
X53400000Y-17435000D02*
X59565000Y-17435000D01*
X59565000Y-17435000D02*
X59692000Y-17562000D01*
D19*
X71750000Y-34750000D02*
X72149999Y-34350001D01*
X70750000Y-34750000D02*
X71750000Y-34750000D01*
D20*
X77300000Y-38800000D02*
X77270000Y-38770000D01*
X81880000Y-38800000D02*
X77300000Y-38800000D01*
D19*
X76670000Y-33700000D02*
X77270000Y-34300000D01*
X72800000Y-33700000D02*
X76670000Y-33700000D01*
X77270000Y-34300000D02*
X77270000Y-38770000D01*
X71750000Y-34750000D02*
X72800000Y-33700000D01*
D18*
X103192000Y-17562000D02*
X104232000Y-17562000D01*
X96900000Y-17435000D02*
X103065000Y-17435000D01*
X103065000Y-17435000D02*
X103192000Y-17562000D01*
D19*
X115250000Y-34750000D02*
X115649999Y-34350001D01*
X114250000Y-34750000D02*
X115250000Y-34750000D01*
D20*
X120800000Y-38800000D02*
X120770000Y-38770000D01*
X125380000Y-38800000D02*
X120800000Y-38800000D01*
D19*
X120170000Y-33700000D02*
X120770000Y-34300000D01*
X116300000Y-33700000D02*
X120170000Y-33700000D01*
X120770000Y-34300000D02*
X120770000Y-38770000D01*
X115250000Y-34750000D02*
X116300000Y-33700000D01*
X115250000Y-78750000D02*
X115649999Y-78350001D01*
X114250000Y-78750000D02*
X115250000Y-78750000D01*
D20*
X120800000Y-82800000D02*
X120770000Y-82770000D01*
X125380000Y-82800000D02*
X120800000Y-82800000D01*
D19*
X120170000Y-77700000D02*
X120770000Y-78300000D01*
X116300000Y-77700000D02*
X120170000Y-77700000D01*
X120770000Y-78300000D02*
X120770000Y-82770000D01*
X115250000Y-78750000D02*
X116300000Y-77700000D01*
D18*
X103192000Y-61562000D02*
X104232000Y-61562000D01*
X96900000Y-61435000D02*
X103065000Y-61435000D01*
X103065000Y-61435000D02*
X103192000Y-61562000D01*
D19*
X71750000Y-78750000D02*
X72149999Y-78350001D01*
X70750000Y-78750000D02*
X71750000Y-78750000D01*
D20*
X77300000Y-82800000D02*
X77270000Y-82770000D01*
X81880000Y-82800000D02*
X77300000Y-82800000D01*
D19*
X76670000Y-77700000D02*
X77270000Y-78300000D01*
X72800000Y-77700000D02*
X76670000Y-77700000D01*
X77270000Y-78300000D02*
X77270000Y-82770000D01*
X71750000Y-78750000D02*
X72800000Y-77700000D01*
D18*
X59692000Y-61562000D02*
X60732000Y-61562000D01*
X53400000Y-61435000D02*
X59565000Y-61435000D01*
X59565000Y-61435000D02*
X59692000Y-61562000D01*
D20*
G04 #@! TO.N,GND*
X81880000Y-36900000D02*
X80900000Y-36900000D01*
D21*
X65727000Y-41762000D02*
X65793000Y-41828000D01*
D20*
X78400000Y-36900000D02*
X78400000Y-36900000D01*
X80900000Y-36900000D02*
X78400000Y-36900000D01*
X121900000Y-36900000D02*
X121900000Y-36900000D01*
X124400000Y-36900000D02*
X121900000Y-36900000D01*
X125380000Y-36900000D02*
X124400000Y-36900000D01*
D21*
X109227000Y-41762000D02*
X109293000Y-41828000D01*
D20*
X125380000Y-80900000D02*
X124400000Y-80900000D01*
D21*
X109227000Y-85762000D02*
X109293000Y-85828000D01*
D20*
X121900000Y-80900000D02*
X121900000Y-80900000D01*
X124400000Y-80900000D02*
X121900000Y-80900000D01*
X78400000Y-80900000D02*
X78400000Y-80900000D01*
X80900000Y-80900000D02*
X78400000Y-80900000D01*
X81880000Y-80900000D02*
X80900000Y-80900000D01*
D21*
X65727000Y-85762000D02*
X65793000Y-85828000D01*
G04 #@! TO.N,SW5*
X66230000Y-35000000D02*
X66230000Y-34830000D01*
X66264653Y-34965347D02*
X66230000Y-35000000D01*
X68090000Y-37510000D02*
X68090000Y-35460000D01*
X68090000Y-35460000D02*
X67530000Y-34900000D01*
X67530000Y-34900000D02*
X65880000Y-34900000D01*
X66730000Y-35000000D02*
X66230000Y-35000000D01*
X66230000Y-34830000D02*
X66364989Y-34695011D01*
X109730000Y-34830000D02*
X109864989Y-34695011D01*
X109730000Y-35000000D02*
X109730000Y-34830000D01*
X109764653Y-34965347D02*
X109730000Y-35000000D01*
X111590000Y-37510000D02*
X111590000Y-35460000D01*
X111590000Y-35460000D02*
X111030000Y-34900000D01*
X111030000Y-34900000D02*
X109380000Y-34900000D01*
X110230000Y-35000000D02*
X109730000Y-35000000D01*
X111030000Y-78900000D02*
X109380000Y-78900000D01*
X110230000Y-79000000D02*
X109730000Y-79000000D01*
X109730000Y-79000000D02*
X109730000Y-78830000D01*
X109764653Y-78965347D02*
X109730000Y-79000000D01*
X111590000Y-81510000D02*
X111590000Y-79460000D01*
X111590000Y-79460000D02*
X111030000Y-78900000D01*
X109730000Y-78830000D02*
X109864989Y-78695011D01*
X66230000Y-78830000D02*
X66364989Y-78695011D01*
X66230000Y-79000000D02*
X66230000Y-78830000D01*
X66264653Y-78965347D02*
X66230000Y-79000000D01*
X68090000Y-81510000D02*
X68090000Y-79460000D01*
X68090000Y-79460000D02*
X67530000Y-78900000D01*
X66730000Y-79000000D02*
X66230000Y-79000000D01*
X67530000Y-78900000D02*
X65880000Y-78900000D01*
G04 #@! TO.N,SW1*
X65880000Y-36610000D02*
X67130000Y-36610000D01*
X68614999Y-38235001D02*
X68855002Y-37994998D01*
X67741999Y-38235001D02*
X68614999Y-38235001D01*
X68855002Y-37994998D02*
X68855002Y-34942903D01*
X67360000Y-37853002D02*
X67741999Y-38235001D01*
X67360000Y-36840000D02*
X67360000Y-37853002D01*
X66730000Y-36750000D02*
X66230000Y-36750000D01*
X77340020Y-31270020D02*
X77760000Y-31690000D01*
X76556978Y-31270020D02*
X77340020Y-31270020D01*
X67130000Y-36610000D02*
X67360000Y-36840000D01*
X74840186Y-32986812D02*
X76556978Y-31270020D01*
X70811093Y-32986812D02*
X74840186Y-32986812D01*
X68855002Y-34942903D02*
X70811093Y-32986812D01*
X120840020Y-31270020D02*
X121260000Y-31690000D01*
X120056978Y-31270020D02*
X120840020Y-31270020D01*
X110630000Y-36610000D02*
X110860000Y-36840000D01*
X118340186Y-32986812D02*
X120056978Y-31270020D01*
X114311093Y-32986812D02*
X118340186Y-32986812D01*
X112355002Y-34942903D02*
X114311093Y-32986812D01*
X109380000Y-36610000D02*
X110630000Y-36610000D01*
X112114999Y-38235001D02*
X112355002Y-37994998D01*
X111241999Y-38235001D02*
X112114999Y-38235001D01*
X112355002Y-37994998D02*
X112355002Y-34942903D01*
X110860000Y-37853002D02*
X111241999Y-38235001D01*
X110860000Y-36840000D02*
X110860000Y-37853002D01*
X110230000Y-36750000D02*
X109730000Y-36750000D01*
X109380000Y-80610000D02*
X110630000Y-80610000D01*
X112114999Y-82235001D02*
X112355002Y-81994998D01*
X111241999Y-82235001D02*
X112114999Y-82235001D01*
X112355002Y-81994998D02*
X112355002Y-78942903D01*
X110860000Y-81853002D02*
X111241999Y-82235001D01*
X110860000Y-80840000D02*
X110860000Y-81853002D01*
X110230000Y-80750000D02*
X109730000Y-80750000D01*
X120840020Y-75270020D02*
X121260000Y-75690000D01*
X120056978Y-75270020D02*
X120840020Y-75270020D01*
X110630000Y-80610000D02*
X110860000Y-80840000D01*
X118340186Y-76986812D02*
X120056978Y-75270020D01*
X114311093Y-76986812D02*
X118340186Y-76986812D01*
X112355002Y-78942903D02*
X114311093Y-76986812D01*
X77340020Y-75270020D02*
X77760000Y-75690000D01*
X76556978Y-75270020D02*
X77340020Y-75270020D01*
X67130000Y-80610000D02*
X67360000Y-80840000D01*
X74840186Y-76986812D02*
X76556978Y-75270020D01*
X70811093Y-76986812D02*
X74840186Y-76986812D01*
X68855002Y-78942903D02*
X70811093Y-76986812D01*
X65880000Y-80610000D02*
X67130000Y-80610000D01*
X68614999Y-82235001D02*
X68855002Y-81994998D01*
X67741999Y-82235001D02*
X68614999Y-82235001D01*
X68855002Y-81994998D02*
X68855002Y-78942903D01*
X67360000Y-81853002D02*
X67741999Y-82235001D01*
X67360000Y-80840000D02*
X67360000Y-81853002D01*
X66730000Y-80750000D02*
X66230000Y-80750000D01*
D20*
G04 #@! TO.N,SW3*
X81880000Y-31200000D02*
X78700000Y-31200000D01*
D21*
X76390588Y-30800000D02*
X78300000Y-30800000D01*
X78400000Y-30900000D02*
X78700000Y-31200000D01*
X78300000Y-30800000D02*
X78400000Y-30900000D01*
X74990588Y-32200000D02*
X75690588Y-31500000D01*
X71100000Y-32200000D02*
X74990588Y-32200000D01*
X75260589Y-31929999D02*
X75690588Y-31500000D01*
X75690588Y-31500000D02*
X76390588Y-30800000D01*
X118760589Y-31929999D02*
X119190588Y-31500000D01*
X119190588Y-31500000D02*
X119890588Y-30800000D01*
D20*
X125380000Y-31200000D02*
X122200000Y-31200000D01*
D21*
X119890588Y-30800000D02*
X121800000Y-30800000D01*
X121900000Y-30900000D02*
X122200000Y-31200000D01*
X121800000Y-30800000D02*
X121900000Y-30900000D01*
X118490588Y-32200000D02*
X119190588Y-31500000D01*
X114600000Y-32200000D02*
X118490588Y-32200000D01*
X118490588Y-76200000D02*
X119190588Y-75500000D01*
X114600000Y-76200000D02*
X118490588Y-76200000D01*
D20*
X125380000Y-75200000D02*
X122200000Y-75200000D01*
D21*
X119890588Y-74800000D02*
X121800000Y-74800000D01*
X121900000Y-74900000D02*
X122200000Y-75200000D01*
X121800000Y-74800000D02*
X121900000Y-74900000D01*
X118760589Y-75929999D02*
X119190588Y-75500000D01*
X119190588Y-75500000D02*
X119890588Y-74800000D01*
X75260589Y-75929999D02*
X75690588Y-75500000D01*
X75690588Y-75500000D02*
X76390588Y-74800000D01*
D20*
X81880000Y-75200000D02*
X78700000Y-75200000D01*
D21*
X76390588Y-74800000D02*
X78300000Y-74800000D01*
X78400000Y-74900000D02*
X78700000Y-75200000D01*
X78300000Y-74800000D02*
X78400000Y-74900000D01*
X71100000Y-76200000D02*
X74990588Y-76200000D01*
X74990588Y-76200000D02*
X75690588Y-75500000D01*
G04 #@! TO.N,SW4*
X59500000Y-39390000D02*
X58700000Y-38590000D01*
X63757002Y-39390000D02*
X59500000Y-39390000D01*
X65880000Y-38320000D02*
X64827002Y-38320000D01*
X64827002Y-38320000D02*
X63757002Y-39390000D01*
X103000000Y-39390000D02*
X102200000Y-38590000D01*
X107257002Y-39390000D02*
X103000000Y-39390000D01*
X109380000Y-38320000D02*
X108327002Y-38320000D01*
X108327002Y-38320000D02*
X107257002Y-39390000D01*
X103000000Y-83390000D02*
X102200000Y-82590000D01*
X107257002Y-83390000D02*
X103000000Y-83390000D01*
X109380000Y-82320000D02*
X108327002Y-82320000D01*
X108327002Y-82320000D02*
X107257002Y-83390000D01*
X59500000Y-83390000D02*
X58700000Y-82590000D01*
X63757002Y-83390000D02*
X59500000Y-83390000D01*
X65880000Y-82320000D02*
X64827002Y-82320000D01*
X64827002Y-82320000D02*
X63757002Y-83390000D01*
G04 #@! TO.N,Pairing*
X82850000Y-29100000D02*
X83230000Y-29100000D01*
D20*
X81880000Y-29300000D02*
X78700000Y-29300000D01*
D21*
X77660000Y-30340000D02*
X78700000Y-29300000D01*
X76200000Y-30340000D02*
X77660000Y-30340000D01*
X70207001Y-31474999D02*
X71974999Y-31474999D01*
X71974999Y-31474999D02*
X71979989Y-31479989D01*
X71979989Y-31479989D02*
X75060011Y-31479989D01*
X75060011Y-31479989D02*
X76200000Y-30340000D01*
X70207001Y-31474999D02*
X69695000Y-31474999D01*
X69695000Y-31474999D02*
X69692006Y-31472005D01*
X126350000Y-29100000D02*
X126730000Y-29100000D01*
D20*
X125380000Y-29300000D02*
X122200000Y-29300000D01*
D21*
X121160000Y-30340000D02*
X122200000Y-29300000D01*
X119700000Y-30340000D02*
X121160000Y-30340000D01*
X113707001Y-31474999D02*
X115474999Y-31474999D01*
X115474999Y-31474999D02*
X115479989Y-31479989D01*
X115479989Y-31479989D02*
X118560011Y-31479989D01*
X118560011Y-31479989D02*
X119700000Y-30340000D01*
X113707001Y-31474999D02*
X113195000Y-31474999D01*
X113195000Y-31474999D02*
X113192006Y-31472005D01*
X126350000Y-73100000D02*
X126730000Y-73100000D01*
D20*
X125380000Y-73300000D02*
X122200000Y-73300000D01*
D21*
X121160000Y-74340000D02*
X122200000Y-73300000D01*
X119700000Y-74340000D02*
X121160000Y-74340000D01*
X113707001Y-75474999D02*
X115474999Y-75474999D01*
X115474999Y-75474999D02*
X115479989Y-75479989D01*
X115479989Y-75479989D02*
X118560011Y-75479989D01*
X118560011Y-75479989D02*
X119700000Y-74340000D01*
X113707001Y-75474999D02*
X113195000Y-75474999D01*
X113195000Y-75474999D02*
X113192006Y-75472005D01*
X82850000Y-73100000D02*
X83230000Y-73100000D01*
D20*
X81880000Y-73300000D02*
X78700000Y-73300000D01*
D21*
X77660000Y-74340000D02*
X78700000Y-73300000D01*
X76200000Y-74340000D02*
X77660000Y-74340000D01*
X70207001Y-75474999D02*
X71974999Y-75474999D01*
X71974999Y-75474999D02*
X71979989Y-75479989D01*
X71979989Y-75479989D02*
X75060011Y-75479989D01*
X75060011Y-75479989D02*
X76200000Y-74340000D01*
X70207001Y-75474999D02*
X69695000Y-75474999D01*
X69695000Y-75474999D02*
X69692006Y-75472005D01*
G04 #@! TO.N,LED*
X83230000Y-35104000D02*
X82730000Y-35104000D01*
X83230000Y-35150000D02*
X82510000Y-35150000D01*
X77934999Y-33409999D02*
X76625000Y-32100000D01*
X77934999Y-34818001D02*
X77934999Y-33409999D01*
D20*
X81880000Y-35000000D02*
X78120010Y-35000000D01*
D21*
X126730000Y-35104000D02*
X126230000Y-35104000D01*
X126730000Y-35150000D02*
X126010000Y-35150000D01*
X121434999Y-33409999D02*
X120125000Y-32100000D01*
X121434999Y-34818001D02*
X121434999Y-33409999D01*
D20*
X125380000Y-35000000D02*
X121620010Y-35000000D01*
D21*
X126730000Y-79104000D02*
X126230000Y-79104000D01*
X126730000Y-79150000D02*
X126010000Y-79150000D01*
X121434999Y-77409999D02*
X120125000Y-76100000D01*
X121434999Y-78818001D02*
X121434999Y-77409999D01*
D20*
X125380000Y-79000000D02*
X121620010Y-79000000D01*
D21*
X83230000Y-79104000D02*
X82730000Y-79104000D01*
X83230000Y-79150000D02*
X82510000Y-79150000D01*
X77934999Y-77409999D02*
X76625000Y-76100000D01*
X77934999Y-78818001D02*
X77934999Y-77409999D01*
D20*
X81880000Y-79000000D02*
X78120010Y-79000000D01*
D21*
G04 #@! TO.N,Net-(C1-Pad1)*
X68500000Y-33850000D02*
X68500000Y-31500000D01*
X68280000Y-34070000D02*
X68500000Y-33850000D01*
X64724998Y-34070000D02*
X68280000Y-34070000D01*
X64554999Y-34239999D02*
X64724998Y-34070000D01*
X64554999Y-36853001D02*
X64554999Y-34239999D01*
X63272000Y-38136000D02*
X64554999Y-36853001D01*
X111780000Y-34070000D02*
X112000000Y-33850000D01*
X108054999Y-36853001D02*
X108054999Y-34239999D01*
X108224998Y-34070000D02*
X111780000Y-34070000D01*
X108054999Y-34239999D02*
X108224998Y-34070000D01*
X112000000Y-33850000D02*
X112000000Y-31500000D01*
X106772000Y-38136000D02*
X108054999Y-36853001D01*
X111780000Y-78070000D02*
X112000000Y-77850000D01*
X108054999Y-80853001D02*
X108054999Y-78239999D01*
X108224998Y-78070000D02*
X111780000Y-78070000D01*
X108054999Y-78239999D02*
X108224998Y-78070000D01*
X112000000Y-77850000D02*
X112000000Y-75500000D01*
X106772000Y-82136000D02*
X108054999Y-80853001D01*
X68280000Y-78070000D02*
X68500000Y-77850000D01*
X64554999Y-80853001D02*
X64554999Y-78239999D01*
X64724998Y-78070000D02*
X68280000Y-78070000D01*
X64554999Y-78239999D02*
X64724998Y-78070000D01*
X68500000Y-77850000D02*
X68500000Y-75500000D01*
X63272000Y-82136000D02*
X64554999Y-80853001D01*
G04 #@! TO.N,Net-(RESETn1-Pad1)*
X63272000Y-20102000D02*
X62928000Y-20102000D01*
X66230000Y-26400000D02*
X65970000Y-26400000D01*
X62928000Y-20102000D02*
X62480010Y-20549990D01*
X65970000Y-26400000D02*
X65890000Y-26480000D01*
X66230000Y-26400000D02*
X65730000Y-26400000D01*
X65880000Y-26350000D02*
X65450000Y-26350000D01*
X65880000Y-26350000D02*
X64230000Y-26350000D01*
X63956410Y-26350000D02*
X64230000Y-26350000D01*
X62480010Y-24873600D02*
X63956410Y-26350000D01*
X62480010Y-20549990D02*
X62480010Y-24873600D01*
X107456410Y-26350000D02*
X107730000Y-26350000D01*
X105980010Y-24873600D02*
X107456410Y-26350000D01*
X105980010Y-20549990D02*
X105980010Y-24873600D01*
X106772000Y-20102000D02*
X106428000Y-20102000D01*
X109730000Y-26400000D02*
X109470000Y-26400000D01*
X106428000Y-20102000D02*
X105980010Y-20549990D01*
X109470000Y-26400000D02*
X109390000Y-26480000D01*
X109730000Y-26400000D02*
X109230000Y-26400000D01*
X109380000Y-26350000D02*
X108950000Y-26350000D01*
X109380000Y-26350000D02*
X107730000Y-26350000D01*
X109380000Y-70350000D02*
X108950000Y-70350000D01*
X109380000Y-70350000D02*
X107730000Y-70350000D01*
X106772000Y-64102000D02*
X106428000Y-64102000D01*
X109730000Y-70400000D02*
X109470000Y-70400000D01*
X106428000Y-64102000D02*
X105980010Y-64549990D01*
X109470000Y-70400000D02*
X109390000Y-70480000D01*
X109730000Y-70400000D02*
X109230000Y-70400000D01*
X107456410Y-70350000D02*
X107730000Y-70350000D01*
X105980010Y-68873600D02*
X107456410Y-70350000D01*
X105980010Y-64549990D02*
X105980010Y-68873600D01*
X63956410Y-70350000D02*
X64230000Y-70350000D01*
X62480010Y-68873600D02*
X63956410Y-70350000D01*
X62480010Y-64549990D02*
X62480010Y-68873600D01*
X63272000Y-64102000D02*
X62928000Y-64102000D01*
X66230000Y-70400000D02*
X65970000Y-70400000D01*
X62928000Y-64102000D02*
X62480010Y-64549990D01*
X65970000Y-70400000D02*
X65890000Y-70480000D01*
X66230000Y-70400000D02*
X65730000Y-70400000D01*
X65880000Y-70350000D02*
X64230000Y-70350000D01*
X65880000Y-70350000D02*
X65450000Y-70350000D01*
G04 #@! TO.N,Net-(SWO1-Pad1)*
X65730000Y-29700000D02*
X66230000Y-29700000D01*
X65730000Y-29800000D02*
X66230000Y-29800000D01*
X109230000Y-29700000D02*
X109730000Y-29700000D01*
X109230000Y-29800000D02*
X109730000Y-29800000D01*
X109230000Y-73700000D02*
X109730000Y-73700000D01*
X109230000Y-73800000D02*
X109730000Y-73800000D01*
X65730000Y-73700000D02*
X66230000Y-73700000D01*
X65730000Y-73800000D02*
X66230000Y-73800000D01*
G04 #@! TO.N,Net-(SWDIO1-Pad1)*
X64550000Y-27580000D02*
X62310000Y-25340000D01*
X62030000Y-18804000D02*
X62030000Y-25073590D01*
X62030000Y-25073590D02*
X62296410Y-25340000D01*
X62296410Y-25340000D02*
X62310000Y-25340000D01*
X63272000Y-17562000D02*
X62030000Y-18804000D01*
X65280000Y-31480000D02*
X64550000Y-30750000D01*
X65880000Y-31480000D02*
X65280000Y-31480000D01*
X64550000Y-30750000D02*
X64550000Y-27580000D01*
X65730000Y-31450000D02*
X66230000Y-31450000D01*
X108050000Y-27580000D02*
X105810000Y-25340000D01*
X105530000Y-18804000D02*
X105530000Y-25073590D01*
X105530000Y-25073590D02*
X105796410Y-25340000D01*
X105796410Y-25340000D02*
X105810000Y-25340000D01*
X106772000Y-17562000D02*
X105530000Y-18804000D01*
X108780000Y-31480000D02*
X108050000Y-30750000D01*
X109380000Y-31480000D02*
X108780000Y-31480000D01*
X108050000Y-30750000D02*
X108050000Y-27580000D01*
X109230000Y-31450000D02*
X109730000Y-31450000D01*
X108050000Y-71580000D02*
X105810000Y-69340000D01*
X105530000Y-62804000D02*
X105530000Y-69073590D01*
X105530000Y-69073590D02*
X105796410Y-69340000D01*
X105796410Y-69340000D02*
X105810000Y-69340000D01*
X106772000Y-61562000D02*
X105530000Y-62804000D01*
X108780000Y-75480000D02*
X108050000Y-74750000D01*
X109380000Y-75480000D02*
X108780000Y-75480000D01*
X108050000Y-74750000D02*
X108050000Y-71580000D01*
X109230000Y-75450000D02*
X109730000Y-75450000D01*
X64550000Y-71580000D02*
X62310000Y-69340000D01*
X62030000Y-62804000D02*
X62030000Y-69073590D01*
X62030000Y-69073590D02*
X62296410Y-69340000D01*
X62296410Y-69340000D02*
X62310000Y-69340000D01*
X63272000Y-61562000D02*
X62030000Y-62804000D01*
X65280000Y-75480000D02*
X64550000Y-74750000D01*
X65880000Y-75480000D02*
X65280000Y-75480000D01*
X64550000Y-74750000D02*
X64550000Y-71580000D01*
X65730000Y-75450000D02*
X66230000Y-75450000D01*
G04 #@! TO.N,Net-(SWCLK1-Pad1)*
X65480000Y-33200000D02*
X66230000Y-33200000D01*
X65730000Y-33200000D02*
X66230000Y-33200000D01*
X65280000Y-33190000D02*
X64100000Y-32010000D01*
X65880000Y-33190000D02*
X65280000Y-33190000D01*
X64100000Y-32010000D02*
X64100000Y-27780000D01*
X61990000Y-18043002D02*
X61570000Y-18463002D01*
X61990000Y-16304000D02*
X63272000Y-15022000D01*
X61640000Y-25306410D02*
X61640000Y-25320000D01*
X61990000Y-18043002D02*
X61990000Y-16304000D01*
X61570000Y-25250000D02*
X61960000Y-25640000D01*
X61570000Y-18463002D02*
X61570000Y-25250000D01*
X64100000Y-27780000D02*
X61960000Y-25640000D01*
X61960000Y-25640000D02*
X61640000Y-25320000D01*
X105070000Y-18463002D02*
X105070000Y-25250000D01*
X107600000Y-27780000D02*
X105460000Y-25640000D01*
X105460000Y-25640000D02*
X105140000Y-25320000D01*
X108980000Y-33200000D02*
X109730000Y-33200000D01*
X109230000Y-33200000D02*
X109730000Y-33200000D01*
X108780000Y-33190000D02*
X107600000Y-32010000D01*
X109380000Y-33190000D02*
X108780000Y-33190000D01*
X107600000Y-32010000D02*
X107600000Y-27780000D01*
X105490000Y-18043002D02*
X105070000Y-18463002D01*
X105490000Y-16304000D02*
X106772000Y-15022000D01*
X105140000Y-25306410D02*
X105140000Y-25320000D01*
X105490000Y-18043002D02*
X105490000Y-16304000D01*
X105070000Y-25250000D02*
X105460000Y-25640000D01*
X108980000Y-77200000D02*
X109730000Y-77200000D01*
X109230000Y-77200000D02*
X109730000Y-77200000D01*
X108780000Y-77190000D02*
X107600000Y-76010000D01*
X109380000Y-77190000D02*
X108780000Y-77190000D01*
X107600000Y-76010000D02*
X107600000Y-71780000D01*
X105490000Y-62043002D02*
X105070000Y-62463002D01*
X105490000Y-60304000D02*
X106772000Y-59022000D01*
X105140000Y-69306410D02*
X105140000Y-69320000D01*
X105490000Y-62043002D02*
X105490000Y-60304000D01*
X105070000Y-69250000D02*
X105460000Y-69640000D01*
X105070000Y-62463002D02*
X105070000Y-69250000D01*
X107600000Y-71780000D02*
X105460000Y-69640000D01*
X105460000Y-69640000D02*
X105140000Y-69320000D01*
X61570000Y-62463002D02*
X61570000Y-69250000D01*
X64100000Y-71780000D02*
X61960000Y-69640000D01*
X61960000Y-69640000D02*
X61640000Y-69320000D01*
X65480000Y-77200000D02*
X66230000Y-77200000D01*
X65730000Y-77200000D02*
X66230000Y-77200000D01*
X65280000Y-77190000D02*
X64100000Y-76010000D01*
X65880000Y-77190000D02*
X65280000Y-77190000D01*
X64100000Y-76010000D02*
X64100000Y-71780000D01*
X61990000Y-62043002D02*
X61570000Y-62463002D01*
X61990000Y-60304000D02*
X63272000Y-59022000D01*
X61640000Y-69306410D02*
X61640000Y-69320000D01*
X61990000Y-62043002D02*
X61990000Y-60304000D01*
X61570000Y-69250000D02*
X61960000Y-69640000D01*
G04 #@! TO.N,Net-(C5-Pad1)*
X64748000Y-39200000D02*
X63272000Y-40676000D01*
X68300000Y-39200000D02*
X64748000Y-39200000D01*
X69305011Y-38194989D02*
X68300000Y-39200000D01*
X69305012Y-35129303D02*
X69305011Y-38194989D01*
X70684315Y-33750000D02*
X69305012Y-35129303D01*
X71250000Y-33750000D02*
X70684315Y-33750000D01*
X108248000Y-39200000D02*
X106772000Y-40676000D01*
X111800000Y-39200000D02*
X108248000Y-39200000D01*
X112805011Y-38194989D02*
X111800000Y-39200000D01*
X112805012Y-35129303D02*
X112805011Y-38194989D01*
X114184315Y-33750000D02*
X112805012Y-35129303D01*
X114750000Y-33750000D02*
X114184315Y-33750000D01*
X108248000Y-83200000D02*
X106772000Y-84676000D01*
X111800000Y-83200000D02*
X108248000Y-83200000D01*
X112805011Y-82194989D02*
X111800000Y-83200000D01*
X112805012Y-79129303D02*
X112805011Y-82194989D01*
X114184315Y-77750000D02*
X112805012Y-79129303D01*
X114750000Y-77750000D02*
X114184315Y-77750000D01*
X64748000Y-83200000D02*
X63272000Y-84676000D01*
X68300000Y-83200000D02*
X64748000Y-83200000D01*
X69305011Y-82194989D02*
X68300000Y-83200000D01*
X69305012Y-79129303D02*
X69305011Y-82194989D01*
X70684315Y-77750000D02*
X69305012Y-79129303D01*
X71250000Y-77750000D02*
X70684315Y-77750000D01*
G04 #@! TO.N,SW2*
X66230000Y-40250000D02*
X65730000Y-40250000D01*
X65880000Y-40030000D02*
X67415306Y-40030000D01*
X67415306Y-40030000D02*
X67562653Y-40177347D01*
X109730000Y-40250000D02*
X109230000Y-40250000D01*
X109380000Y-40030000D02*
X110915306Y-40030000D01*
X110915306Y-40030000D02*
X111062653Y-40177347D01*
X109730000Y-84250000D02*
X109230000Y-84250000D01*
X109380000Y-84030000D02*
X110915306Y-84030000D01*
X110915306Y-84030000D02*
X111062653Y-84177347D01*
X66230000Y-84250000D02*
X65730000Y-84250000D01*
X65880000Y-84030000D02*
X67415306Y-84030000D01*
X67415306Y-84030000D02*
X67562653Y-84177347D01*
G04 #@! TO.N,Net-(U1-Pad9)*
X65730000Y-27950000D02*
X66230000Y-27950000D01*
X109230000Y-27950000D02*
X109730000Y-27950000D01*
X109230000Y-71950000D02*
X109730000Y-71950000D01*
X65730000Y-71950000D02*
X66230000Y-71950000D01*
G04 #@! TD*
D22*
G04 #@! TO.N,GND*
G36*
X72900000Y-29400000D02*
X70100000Y-29400000D01*
X70100000Y-27100000D01*
X72900000Y-27100000D01*
X72900000Y-29400000D01*
X72900000Y-29400000D01*
G37*
X72900000Y-29400000D02*
X70100000Y-29400000D01*
X70100000Y-27100000D01*
X72900000Y-27100000D01*
X72900000Y-29400000D01*
G36*
X45600000Y-29305678D02*
X44090000Y-29393982D01*
X44090000Y-26594322D01*
X45600000Y-26506018D01*
X45600000Y-29305678D01*
X45600000Y-29305678D01*
G37*
X45600000Y-29305678D02*
X44090000Y-29393982D01*
X44090000Y-26594322D01*
X45600000Y-26506018D01*
X45600000Y-29305678D01*
D23*
G36*
X54941865Y-8045000D02*
X55258135Y-8045000D01*
X55400000Y-7986237D01*
X55541865Y-8045000D01*
X55858135Y-8045000D01*
X55980005Y-7994520D01*
X56101875Y-8045000D01*
X56418145Y-8045000D01*
X56580005Y-7977955D01*
X56741865Y-8045000D01*
X57058135Y-8045000D01*
X57200000Y-7986237D01*
X57341865Y-8045000D01*
X57658135Y-8045000D01*
X57800000Y-7986237D01*
X57941865Y-8045000D01*
X58258135Y-8045000D01*
X58336477Y-8012549D01*
X58364247Y-8494165D01*
X58365788Y-8504601D01*
X58365788Y-8515157D01*
X58377057Y-8591465D01*
X58557324Y-9461938D01*
X58563416Y-9482116D01*
X58567149Y-9502864D01*
X58591747Y-9575954D01*
X58591753Y-9575973D01*
X58591757Y-9575980D01*
X58923316Y-10400764D01*
X58932886Y-10419546D01*
X58940234Y-10439305D01*
X58977395Y-10506900D01*
X59449778Y-11259944D01*
X59462523Y-11276735D01*
X59473254Y-11294880D01*
X59521798Y-11354826D01*
X60120068Y-12012315D01*
X60135585Y-12026583D01*
X60149358Y-12042540D01*
X60207731Y-12092925D01*
X60207751Y-12092944D01*
X60207760Y-12092950D01*
X60912996Y-12634098D01*
X60930793Y-12645392D01*
X60947177Y-12658660D01*
X61013571Y-12697925D01*
X61803501Y-13105638D01*
X61823021Y-13113604D01*
X61841491Y-13123758D01*
X61913773Y-13150639D01*
X61913790Y-13150646D01*
X61913797Y-13150648D01*
X62763435Y-13412030D01*
X62784049Y-13416412D01*
X62804033Y-13423137D01*
X62879950Y-13436796D01*
X63762454Y-13543591D01*
X63783521Y-13544253D01*
X63804378Y-13547333D01*
X63881514Y-13547333D01*
X64768983Y-13496162D01*
X64789833Y-13493083D01*
X64810907Y-13492421D01*
X64886824Y-13478761D01*
X65305000Y-13378366D01*
X65305000Y-22273753D01*
X65319843Y-22348376D01*
X65367083Y-22416435D01*
X69367083Y-26142682D01*
X69431803Y-26182686D01*
X69493750Y-26193871D01*
X69519035Y-26254915D01*
X69735808Y-26579339D01*
X69828235Y-26671765D01*
X69920661Y-26764192D01*
X70245084Y-26980964D01*
X70245085Y-26980965D01*
X70486607Y-27081006D01*
X70738579Y-27131126D01*
X70934011Y-27170000D01*
X82781437Y-27170000D01*
X82571704Y-27379733D01*
X82405000Y-27782191D01*
X82405000Y-28217809D01*
X82436288Y-28293344D01*
X80380000Y-28293344D01*
X80321401Y-28305000D01*
X78602002Y-28305000D01*
X78311770Y-28362731D01*
X77982645Y-28582645D01*
X77762731Y-28911770D01*
X77686436Y-29295331D01*
X77361767Y-29620000D01*
X76270911Y-29620000D01*
X76200000Y-29605895D01*
X76129089Y-29620000D01*
X75919070Y-29661775D01*
X75680909Y-29820909D01*
X75640741Y-29881025D01*
X74761778Y-30759989D01*
X72070997Y-30759989D01*
X72045910Y-30754999D01*
X71974999Y-30740894D01*
X71904088Y-30754999D01*
X70382142Y-30754999D01*
X70255628Y-30628485D01*
X69889924Y-30477005D01*
X69494088Y-30477005D01*
X69128384Y-30628485D01*
X69082006Y-30674864D01*
X69063622Y-30656480D01*
X68697918Y-30505000D01*
X68302082Y-30505000D01*
X67936378Y-30656480D01*
X67656480Y-30936378D01*
X67505000Y-31302082D01*
X67505000Y-31697918D01*
X67656480Y-32063622D01*
X67780001Y-32187143D01*
X67780000Y-33350000D01*
X67486656Y-33350000D01*
X67486656Y-32790000D01*
X67440477Y-32557843D01*
X67308971Y-32361029D01*
X67270016Y-32335000D01*
X67308971Y-32308971D01*
X67440477Y-32112157D01*
X67486656Y-31880000D01*
X67486656Y-31080000D01*
X67440477Y-30847843D01*
X67308971Y-30651029D01*
X67270016Y-30625000D01*
X67308971Y-30598971D01*
X67440477Y-30402157D01*
X67486656Y-30170000D01*
X67486656Y-29370000D01*
X67440477Y-29137843D01*
X67308971Y-28941029D01*
X67270016Y-28915000D01*
X67308971Y-28888971D01*
X67440477Y-28692157D01*
X67486656Y-28460000D01*
X67486656Y-27660000D01*
X67440477Y-27427843D01*
X67308971Y-27231029D01*
X67270016Y-27205000D01*
X67308971Y-27178971D01*
X67440477Y-26982157D01*
X67486656Y-26750000D01*
X67486656Y-25950000D01*
X67440477Y-25717843D01*
X67308971Y-25521029D01*
X67112157Y-25389523D01*
X66880000Y-25343344D01*
X64880000Y-25343344D01*
X64647843Y-25389523D01*
X64451029Y-25521029D01*
X64378217Y-25630000D01*
X64254644Y-25630000D01*
X63200010Y-24575367D01*
X63200010Y-21547000D01*
X63559428Y-21547000D01*
X64090527Y-21327012D01*
X64497012Y-20920527D01*
X64717000Y-20389428D01*
X64717000Y-19814572D01*
X64497012Y-19283473D01*
X64090527Y-18876988D01*
X63981916Y-18832000D01*
X64090527Y-18787012D01*
X64497012Y-18380527D01*
X64717000Y-17849428D01*
X64717000Y-17274572D01*
X64497012Y-16743473D01*
X64090527Y-16336988D01*
X63981916Y-16292000D01*
X64090527Y-16247012D01*
X64497012Y-15840527D01*
X64717000Y-15309428D01*
X64717000Y-14734572D01*
X64497012Y-14203473D01*
X64090527Y-13796988D01*
X63559428Y-13577000D01*
X62984572Y-13577000D01*
X62453473Y-13796988D01*
X62046988Y-14203473D01*
X61827000Y-14734572D01*
X61827000Y-15309428D01*
X61867811Y-15407955D01*
X61531026Y-15744741D01*
X61470910Y-15784909D01*
X61430742Y-15845025D01*
X61311775Y-16023071D01*
X61272260Y-16221726D01*
X61019428Y-16117000D01*
X60444572Y-16117000D01*
X59913473Y-16336988D01*
X59615908Y-16634553D01*
X59565000Y-16624427D01*
X59486709Y-16640000D01*
X55257132Y-16640000D01*
X55112473Y-16290762D01*
X54544238Y-15722527D01*
X53801803Y-15415000D01*
X52998197Y-15415000D01*
X52255762Y-15722527D01*
X51687527Y-16290762D01*
X51474522Y-16805000D01*
X48099187Y-16805000D01*
X48024482Y-16819877D01*
X47961239Y-16862176D01*
X47918997Y-16925458D01*
X47904187Y-17000088D01*
X47905000Y-18800088D01*
X47919843Y-18874623D01*
X47962114Y-18937886D01*
X48025377Y-18980157D01*
X48100000Y-18995000D01*
X52103289Y-18995000D01*
X52255762Y-19147473D01*
X52998197Y-19455000D01*
X53801803Y-19455000D01*
X54544238Y-19147473D01*
X54696711Y-18995000D01*
X58100000Y-18995000D01*
X58174705Y-18980123D01*
X58237948Y-18937824D01*
X58280190Y-18874542D01*
X58295000Y-18799912D01*
X58294743Y-18230000D01*
X59260773Y-18230000D01*
X59381807Y-18310873D01*
X59486786Y-18331755D01*
X59506988Y-18380527D01*
X59913473Y-18787012D01*
X60444572Y-19007000D01*
X60850000Y-19007000D01*
X60850001Y-25179084D01*
X60835895Y-25250000D01*
X60891775Y-25530929D01*
X60933037Y-25592681D01*
X61050910Y-25769091D01*
X61092872Y-25797129D01*
X61120910Y-25839091D01*
X61181027Y-25879260D01*
X61400742Y-26098975D01*
X63380001Y-28078235D01*
X63380000Y-31939089D01*
X63365895Y-32010000D01*
X63402694Y-32195000D01*
X63421775Y-32290929D01*
X63580909Y-32529090D01*
X63641026Y-32569259D01*
X64273344Y-33201578D01*
X64273344Y-33505849D01*
X64205907Y-33550909D01*
X64165736Y-33611029D01*
X64096026Y-33680739D01*
X64035909Y-33720908D01*
X63995741Y-33781024D01*
X63876774Y-33959070D01*
X63820894Y-34239999D01*
X63835000Y-34310915D01*
X63834999Y-36554768D01*
X63657956Y-36731811D01*
X63559428Y-36691000D01*
X62984572Y-36691000D01*
X62453473Y-36910988D01*
X62046988Y-37317473D01*
X62002000Y-37426084D01*
X61957012Y-37317473D01*
X61550527Y-36910988D01*
X61019428Y-36691000D01*
X60444572Y-36691000D01*
X59913473Y-36910988D01*
X59506988Y-37317473D01*
X59310055Y-37792913D01*
X59263622Y-37746480D01*
X58897918Y-37595000D01*
X58502082Y-37595000D01*
X58195000Y-37722198D01*
X58195000Y-37200000D01*
X58180157Y-37125377D01*
X58137886Y-37062114D01*
X58074623Y-37019843D01*
X58000000Y-37005000D01*
X54696711Y-37005000D01*
X54544238Y-36852527D01*
X53801803Y-36545000D01*
X52998197Y-36545000D01*
X52255762Y-36852527D01*
X52103289Y-37005000D01*
X48000000Y-37005000D01*
X47925377Y-37019843D01*
X47862114Y-37062114D01*
X47819843Y-37125377D01*
X47805000Y-37200000D01*
X47805000Y-39000000D01*
X47819843Y-39074623D01*
X47862114Y-39137886D01*
X47925377Y-39180157D01*
X48000000Y-39195000D01*
X51474522Y-39195000D01*
X51687527Y-39709238D01*
X52255762Y-40277473D01*
X52998197Y-40585000D01*
X53801803Y-40585000D01*
X54544238Y-40277473D01*
X55112473Y-39709238D01*
X55325478Y-39195000D01*
X57897858Y-39195000D01*
X57933858Y-39231000D01*
X57904572Y-39231000D01*
X57373473Y-39450988D01*
X56966988Y-39857473D01*
X56747000Y-40388572D01*
X56747000Y-40963428D01*
X56966988Y-41494527D01*
X57373473Y-41901012D01*
X57904572Y-42121000D01*
X58479428Y-42121000D01*
X59010527Y-41901012D01*
X59417012Y-41494527D01*
X59462000Y-41385916D01*
X59506988Y-41494527D01*
X59913473Y-41901012D01*
X60444572Y-42121000D01*
X61019428Y-42121000D01*
X61550527Y-41901012D01*
X61957012Y-41494527D01*
X62002000Y-41385916D01*
X62046988Y-41494527D01*
X62453473Y-41901012D01*
X62984572Y-42121000D01*
X63559428Y-42121000D01*
X64090527Y-41901012D01*
X64497012Y-41494527D01*
X64701385Y-41001127D01*
X64880000Y-41036656D01*
X66880000Y-41036656D01*
X66992452Y-41014288D01*
X66999031Y-41020867D01*
X67364735Y-41172347D01*
X67760571Y-41172347D01*
X68126275Y-41020867D01*
X68406173Y-40740969D01*
X68557653Y-40375265D01*
X68557653Y-39979429D01*
X68520696Y-39890206D01*
X68580930Y-39878225D01*
X68819091Y-39719091D01*
X68859261Y-39658972D01*
X69763987Y-38754247D01*
X69824101Y-38714080D01*
X69873104Y-38640742D01*
X69983235Y-38475920D01*
X70039116Y-38194990D01*
X70025010Y-38124075D01*
X70025012Y-35432154D01*
X70186378Y-35593520D01*
X70552082Y-35745000D01*
X70947918Y-35745000D01*
X71250000Y-35619873D01*
X71552082Y-35745000D01*
X71947918Y-35745000D01*
X72313622Y-35593520D01*
X72593520Y-35313622D01*
X72743521Y-34951489D01*
X73150010Y-34545000D01*
X76319990Y-34545000D01*
X76425000Y-34650010D01*
X76425001Y-38243680D01*
X76332731Y-38381771D01*
X76255507Y-38770000D01*
X76332731Y-39158229D01*
X76497134Y-39404276D01*
X76527132Y-39434274D01*
X76582645Y-39517355D01*
X76911770Y-39737269D01*
X77202002Y-39795000D01*
X77202006Y-39795000D01*
X77299999Y-39814492D01*
X77397993Y-39795000D01*
X80321401Y-39795000D01*
X80380000Y-39806656D01*
X83830000Y-39806656D01*
X83830000Y-46452270D01*
X83769981Y-46871366D01*
X83614704Y-47212881D01*
X83369814Y-47497089D01*
X83055005Y-47701138D01*
X82673381Y-47815268D01*
X82503395Y-47827900D01*
X73934479Y-47827900D01*
X73841112Y-47846472D01*
X73487075Y-47916894D01*
X73245553Y-48016935D01*
X73232992Y-48025328D01*
X73058135Y-47952900D01*
X72741865Y-47952900D01*
X72600000Y-48011663D01*
X72458135Y-47952900D01*
X72141865Y-47952900D01*
X72019995Y-48003380D01*
X71898125Y-47952900D01*
X71581855Y-47952900D01*
X71419995Y-48019945D01*
X71258135Y-47952900D01*
X70941865Y-47952900D01*
X70800000Y-48011663D01*
X70658135Y-47952900D01*
X70341865Y-47952900D01*
X70200000Y-48011663D01*
X70058135Y-47952900D01*
X69741865Y-47952900D01*
X69667306Y-47983783D01*
X69667035Y-47932032D01*
X69668889Y-47919480D01*
X69668889Y-47842344D01*
X69635753Y-47267657D01*
X69634212Y-47257221D01*
X69634212Y-47246665D01*
X69622943Y-47170357D01*
X69442676Y-46299884D01*
X69436584Y-46279708D01*
X69432851Y-46258957D01*
X69408247Y-46185850D01*
X69076683Y-45361058D01*
X69067116Y-45342282D01*
X69059766Y-45322517D01*
X69022612Y-45254936D01*
X69022605Y-45254922D01*
X69022601Y-45254917D01*
X68550222Y-44501878D01*
X68537477Y-44485087D01*
X68526746Y-44466942D01*
X68478203Y-44406997D01*
X67879932Y-43749507D01*
X67864415Y-43735239D01*
X67850642Y-43719282D01*
X67792251Y-43668880D01*
X67087004Y-43127725D01*
X67069208Y-43116431D01*
X67052823Y-43103163D01*
X66986429Y-43063897D01*
X66196499Y-42656184D01*
X66176979Y-42648218D01*
X66158509Y-42638064D01*
X66086210Y-42611176D01*
X65236565Y-42349792D01*
X65215949Y-42345410D01*
X65195966Y-42338685D01*
X65120050Y-42325026D01*
X64237546Y-42218231D01*
X64216479Y-42217569D01*
X64195622Y-42214489D01*
X64118486Y-42214489D01*
X63231017Y-42265660D01*
X63210167Y-42268739D01*
X63189094Y-42269401D01*
X63113182Y-42283060D01*
X63113176Y-42283061D01*
X63113174Y-42283062D01*
X62248794Y-42490581D01*
X62228812Y-42497306D01*
X62208195Y-42501688D01*
X62135897Y-42528575D01*
X61321927Y-42885884D01*
X61303455Y-42896039D01*
X61283937Y-42904004D01*
X61217543Y-42943269D01*
X60479709Y-43439072D01*
X60463324Y-43452340D01*
X60445528Y-43463634D01*
X60387136Y-43514036D01*
X59748763Y-44132664D01*
X59734992Y-44148618D01*
X59719472Y-44162889D01*
X59670929Y-44222835D01*
X59152194Y-44944731D01*
X59141463Y-44962876D01*
X59128718Y-44979667D01*
X59091558Y-45047262D01*
X58708858Y-45849608D01*
X58701512Y-45869362D01*
X58691939Y-45888149D01*
X58667336Y-45961256D01*
X58432769Y-46818692D01*
X58429037Y-46839434D01*
X58422942Y-46859620D01*
X58411674Y-46935928D01*
X58338469Y-47756169D01*
X58326423Y-47818431D01*
X58327277Y-47981540D01*
X58258135Y-47952900D01*
X57941865Y-47952900D01*
X57819995Y-48003380D01*
X57698125Y-47952900D01*
X57381855Y-47952900D01*
X57219995Y-48019945D01*
X57058135Y-47952900D01*
X56741865Y-47952900D01*
X56600000Y-48011663D01*
X56458135Y-47952900D01*
X56141865Y-47952900D01*
X56000000Y-48011663D01*
X55858135Y-47952900D01*
X55541865Y-47952900D01*
X55400000Y-48011663D01*
X55258135Y-47952900D01*
X54941865Y-47952900D01*
X54767586Y-48025089D01*
X54755383Y-48016935D01*
X54513861Y-47916894D01*
X54131178Y-47840774D01*
X54120153Y-47840774D01*
X54065989Y-47830000D01*
X45547730Y-47830000D01*
X45128634Y-47769981D01*
X44787119Y-47614704D01*
X44502911Y-47369814D01*
X44298862Y-47055005D01*
X44184732Y-46673381D01*
X44170000Y-46475135D01*
X44170000Y-27782191D01*
X55405000Y-27782191D01*
X55405000Y-28217809D01*
X55571704Y-28620267D01*
X55879733Y-28928296D01*
X56282191Y-29095000D01*
X56717809Y-29095000D01*
X57120267Y-28928296D01*
X57428296Y-28620267D01*
X57595000Y-28217809D01*
X57595000Y-27782191D01*
X57428296Y-27379733D01*
X57120267Y-27071704D01*
X56717809Y-26905000D01*
X56282191Y-26905000D01*
X55879733Y-27071704D01*
X55571704Y-27379733D01*
X55405000Y-27782191D01*
X44170000Y-27782191D01*
X44170000Y-9547730D01*
X44230019Y-9128632D01*
X44385296Y-8787119D01*
X44630186Y-8502911D01*
X44944997Y-8298861D01*
X45326619Y-8184732D01*
X45524865Y-8170000D01*
X54065989Y-8170000D01*
X54261421Y-8131126D01*
X54513393Y-8081006D01*
X54754915Y-7980965D01*
X54767297Y-7972691D01*
X54941865Y-8045000D01*
X54941865Y-8045000D01*
G37*
X54941865Y-8045000D02*
X55258135Y-8045000D01*
X55400000Y-7986237D01*
X55541865Y-8045000D01*
X55858135Y-8045000D01*
X55980005Y-7994520D01*
X56101875Y-8045000D01*
X56418145Y-8045000D01*
X56580005Y-7977955D01*
X56741865Y-8045000D01*
X57058135Y-8045000D01*
X57200000Y-7986237D01*
X57341865Y-8045000D01*
X57658135Y-8045000D01*
X57800000Y-7986237D01*
X57941865Y-8045000D01*
X58258135Y-8045000D01*
X58336477Y-8012549D01*
X58364247Y-8494165D01*
X58365788Y-8504601D01*
X58365788Y-8515157D01*
X58377057Y-8591465D01*
X58557324Y-9461938D01*
X58563416Y-9482116D01*
X58567149Y-9502864D01*
X58591747Y-9575954D01*
X58591753Y-9575973D01*
X58591757Y-9575980D01*
X58923316Y-10400764D01*
X58932886Y-10419546D01*
X58940234Y-10439305D01*
X58977395Y-10506900D01*
X59449778Y-11259944D01*
X59462523Y-11276735D01*
X59473254Y-11294880D01*
X59521798Y-11354826D01*
X60120068Y-12012315D01*
X60135585Y-12026583D01*
X60149358Y-12042540D01*
X60207731Y-12092925D01*
X60207751Y-12092944D01*
X60207760Y-12092950D01*
X60912996Y-12634098D01*
X60930793Y-12645392D01*
X60947177Y-12658660D01*
X61013571Y-12697925D01*
X61803501Y-13105638D01*
X61823021Y-13113604D01*
X61841491Y-13123758D01*
X61913773Y-13150639D01*
X61913790Y-13150646D01*
X61913797Y-13150648D01*
X62763435Y-13412030D01*
X62784049Y-13416412D01*
X62804033Y-13423137D01*
X62879950Y-13436796D01*
X63762454Y-13543591D01*
X63783521Y-13544253D01*
X63804378Y-13547333D01*
X63881514Y-13547333D01*
X64768983Y-13496162D01*
X64789833Y-13493083D01*
X64810907Y-13492421D01*
X64886824Y-13478761D01*
X65305000Y-13378366D01*
X65305000Y-22273753D01*
X65319843Y-22348376D01*
X65367083Y-22416435D01*
X69367083Y-26142682D01*
X69431803Y-26182686D01*
X69493750Y-26193871D01*
X69519035Y-26254915D01*
X69735808Y-26579339D01*
X69828235Y-26671765D01*
X69920661Y-26764192D01*
X70245084Y-26980964D01*
X70245085Y-26980965D01*
X70486607Y-27081006D01*
X70738579Y-27131126D01*
X70934011Y-27170000D01*
X82781437Y-27170000D01*
X82571704Y-27379733D01*
X82405000Y-27782191D01*
X82405000Y-28217809D01*
X82436288Y-28293344D01*
X80380000Y-28293344D01*
X80321401Y-28305000D01*
X78602002Y-28305000D01*
X78311770Y-28362731D01*
X77982645Y-28582645D01*
X77762731Y-28911770D01*
X77686436Y-29295331D01*
X77361767Y-29620000D01*
X76270911Y-29620000D01*
X76200000Y-29605895D01*
X76129089Y-29620000D01*
X75919070Y-29661775D01*
X75680909Y-29820909D01*
X75640741Y-29881025D01*
X74761778Y-30759989D01*
X72070997Y-30759989D01*
X72045910Y-30754999D01*
X71974999Y-30740894D01*
X71904088Y-30754999D01*
X70382142Y-30754999D01*
X70255628Y-30628485D01*
X69889924Y-30477005D01*
X69494088Y-30477005D01*
X69128384Y-30628485D01*
X69082006Y-30674864D01*
X69063622Y-30656480D01*
X68697918Y-30505000D01*
X68302082Y-30505000D01*
X67936378Y-30656480D01*
X67656480Y-30936378D01*
X67505000Y-31302082D01*
X67505000Y-31697918D01*
X67656480Y-32063622D01*
X67780001Y-32187143D01*
X67780000Y-33350000D01*
X67486656Y-33350000D01*
X67486656Y-32790000D01*
X67440477Y-32557843D01*
X67308971Y-32361029D01*
X67270016Y-32335000D01*
X67308971Y-32308971D01*
X67440477Y-32112157D01*
X67486656Y-31880000D01*
X67486656Y-31080000D01*
X67440477Y-30847843D01*
X67308971Y-30651029D01*
X67270016Y-30625000D01*
X67308971Y-30598971D01*
X67440477Y-30402157D01*
X67486656Y-30170000D01*
X67486656Y-29370000D01*
X67440477Y-29137843D01*
X67308971Y-28941029D01*
X67270016Y-28915000D01*
X67308971Y-28888971D01*
X67440477Y-28692157D01*
X67486656Y-28460000D01*
X67486656Y-27660000D01*
X67440477Y-27427843D01*
X67308971Y-27231029D01*
X67270016Y-27205000D01*
X67308971Y-27178971D01*
X67440477Y-26982157D01*
X67486656Y-26750000D01*
X67486656Y-25950000D01*
X67440477Y-25717843D01*
X67308971Y-25521029D01*
X67112157Y-25389523D01*
X66880000Y-25343344D01*
X64880000Y-25343344D01*
X64647843Y-25389523D01*
X64451029Y-25521029D01*
X64378217Y-25630000D01*
X64254644Y-25630000D01*
X63200010Y-24575367D01*
X63200010Y-21547000D01*
X63559428Y-21547000D01*
X64090527Y-21327012D01*
X64497012Y-20920527D01*
X64717000Y-20389428D01*
X64717000Y-19814572D01*
X64497012Y-19283473D01*
X64090527Y-18876988D01*
X63981916Y-18832000D01*
X64090527Y-18787012D01*
X64497012Y-18380527D01*
X64717000Y-17849428D01*
X64717000Y-17274572D01*
X64497012Y-16743473D01*
X64090527Y-16336988D01*
X63981916Y-16292000D01*
X64090527Y-16247012D01*
X64497012Y-15840527D01*
X64717000Y-15309428D01*
X64717000Y-14734572D01*
X64497012Y-14203473D01*
X64090527Y-13796988D01*
X63559428Y-13577000D01*
X62984572Y-13577000D01*
X62453473Y-13796988D01*
X62046988Y-14203473D01*
X61827000Y-14734572D01*
X61827000Y-15309428D01*
X61867811Y-15407955D01*
X61531026Y-15744741D01*
X61470910Y-15784909D01*
X61430742Y-15845025D01*
X61311775Y-16023071D01*
X61272260Y-16221726D01*
X61019428Y-16117000D01*
X60444572Y-16117000D01*
X59913473Y-16336988D01*
X59615908Y-16634553D01*
X59565000Y-16624427D01*
X59486709Y-16640000D01*
X55257132Y-16640000D01*
X55112473Y-16290762D01*
X54544238Y-15722527D01*
X53801803Y-15415000D01*
X52998197Y-15415000D01*
X52255762Y-15722527D01*
X51687527Y-16290762D01*
X51474522Y-16805000D01*
X48099187Y-16805000D01*
X48024482Y-16819877D01*
X47961239Y-16862176D01*
X47918997Y-16925458D01*
X47904187Y-17000088D01*
X47905000Y-18800088D01*
X47919843Y-18874623D01*
X47962114Y-18937886D01*
X48025377Y-18980157D01*
X48100000Y-18995000D01*
X52103289Y-18995000D01*
X52255762Y-19147473D01*
X52998197Y-19455000D01*
X53801803Y-19455000D01*
X54544238Y-19147473D01*
X54696711Y-18995000D01*
X58100000Y-18995000D01*
X58174705Y-18980123D01*
X58237948Y-18937824D01*
X58280190Y-18874542D01*
X58295000Y-18799912D01*
X58294743Y-18230000D01*
X59260773Y-18230000D01*
X59381807Y-18310873D01*
X59486786Y-18331755D01*
X59506988Y-18380527D01*
X59913473Y-18787012D01*
X60444572Y-19007000D01*
X60850000Y-19007000D01*
X60850001Y-25179084D01*
X60835895Y-25250000D01*
X60891775Y-25530929D01*
X60933037Y-25592681D01*
X61050910Y-25769091D01*
X61092872Y-25797129D01*
X61120910Y-25839091D01*
X61181027Y-25879260D01*
X61400742Y-26098975D01*
X63380001Y-28078235D01*
X63380000Y-31939089D01*
X63365895Y-32010000D01*
X63402694Y-32195000D01*
X63421775Y-32290929D01*
X63580909Y-32529090D01*
X63641026Y-32569259D01*
X64273344Y-33201578D01*
X64273344Y-33505849D01*
X64205907Y-33550909D01*
X64165736Y-33611029D01*
X64096026Y-33680739D01*
X64035909Y-33720908D01*
X63995741Y-33781024D01*
X63876774Y-33959070D01*
X63820894Y-34239999D01*
X63835000Y-34310915D01*
X63834999Y-36554768D01*
X63657956Y-36731811D01*
X63559428Y-36691000D01*
X62984572Y-36691000D01*
X62453473Y-36910988D01*
X62046988Y-37317473D01*
X62002000Y-37426084D01*
X61957012Y-37317473D01*
X61550527Y-36910988D01*
X61019428Y-36691000D01*
X60444572Y-36691000D01*
X59913473Y-36910988D01*
X59506988Y-37317473D01*
X59310055Y-37792913D01*
X59263622Y-37746480D01*
X58897918Y-37595000D01*
X58502082Y-37595000D01*
X58195000Y-37722198D01*
X58195000Y-37200000D01*
X58180157Y-37125377D01*
X58137886Y-37062114D01*
X58074623Y-37019843D01*
X58000000Y-37005000D01*
X54696711Y-37005000D01*
X54544238Y-36852527D01*
X53801803Y-36545000D01*
X52998197Y-36545000D01*
X52255762Y-36852527D01*
X52103289Y-37005000D01*
X48000000Y-37005000D01*
X47925377Y-37019843D01*
X47862114Y-37062114D01*
X47819843Y-37125377D01*
X47805000Y-37200000D01*
X47805000Y-39000000D01*
X47819843Y-39074623D01*
X47862114Y-39137886D01*
X47925377Y-39180157D01*
X48000000Y-39195000D01*
X51474522Y-39195000D01*
X51687527Y-39709238D01*
X52255762Y-40277473D01*
X52998197Y-40585000D01*
X53801803Y-40585000D01*
X54544238Y-40277473D01*
X55112473Y-39709238D01*
X55325478Y-39195000D01*
X57897858Y-39195000D01*
X57933858Y-39231000D01*
X57904572Y-39231000D01*
X57373473Y-39450988D01*
X56966988Y-39857473D01*
X56747000Y-40388572D01*
X56747000Y-40963428D01*
X56966988Y-41494527D01*
X57373473Y-41901012D01*
X57904572Y-42121000D01*
X58479428Y-42121000D01*
X59010527Y-41901012D01*
X59417012Y-41494527D01*
X59462000Y-41385916D01*
X59506988Y-41494527D01*
X59913473Y-41901012D01*
X60444572Y-42121000D01*
X61019428Y-42121000D01*
X61550527Y-41901012D01*
X61957012Y-41494527D01*
X62002000Y-41385916D01*
X62046988Y-41494527D01*
X62453473Y-41901012D01*
X62984572Y-42121000D01*
X63559428Y-42121000D01*
X64090527Y-41901012D01*
X64497012Y-41494527D01*
X64701385Y-41001127D01*
X64880000Y-41036656D01*
X66880000Y-41036656D01*
X66992452Y-41014288D01*
X66999031Y-41020867D01*
X67364735Y-41172347D01*
X67760571Y-41172347D01*
X68126275Y-41020867D01*
X68406173Y-40740969D01*
X68557653Y-40375265D01*
X68557653Y-39979429D01*
X68520696Y-39890206D01*
X68580930Y-39878225D01*
X68819091Y-39719091D01*
X68859261Y-39658972D01*
X69763987Y-38754247D01*
X69824101Y-38714080D01*
X69873104Y-38640742D01*
X69983235Y-38475920D01*
X70039116Y-38194990D01*
X70025010Y-38124075D01*
X70025012Y-35432154D01*
X70186378Y-35593520D01*
X70552082Y-35745000D01*
X70947918Y-35745000D01*
X71250000Y-35619873D01*
X71552082Y-35745000D01*
X71947918Y-35745000D01*
X72313622Y-35593520D01*
X72593520Y-35313622D01*
X72743521Y-34951489D01*
X73150010Y-34545000D01*
X76319990Y-34545000D01*
X76425000Y-34650010D01*
X76425001Y-38243680D01*
X76332731Y-38381771D01*
X76255507Y-38770000D01*
X76332731Y-39158229D01*
X76497134Y-39404276D01*
X76527132Y-39434274D01*
X76582645Y-39517355D01*
X76911770Y-39737269D01*
X77202002Y-39795000D01*
X77202006Y-39795000D01*
X77299999Y-39814492D01*
X77397993Y-39795000D01*
X80321401Y-39795000D01*
X80380000Y-39806656D01*
X83830000Y-39806656D01*
X83830000Y-46452270D01*
X83769981Y-46871366D01*
X83614704Y-47212881D01*
X83369814Y-47497089D01*
X83055005Y-47701138D01*
X82673381Y-47815268D01*
X82503395Y-47827900D01*
X73934479Y-47827900D01*
X73841112Y-47846472D01*
X73487075Y-47916894D01*
X73245553Y-48016935D01*
X73232992Y-48025328D01*
X73058135Y-47952900D01*
X72741865Y-47952900D01*
X72600000Y-48011663D01*
X72458135Y-47952900D01*
X72141865Y-47952900D01*
X72019995Y-48003380D01*
X71898125Y-47952900D01*
X71581855Y-47952900D01*
X71419995Y-48019945D01*
X71258135Y-47952900D01*
X70941865Y-47952900D01*
X70800000Y-48011663D01*
X70658135Y-47952900D01*
X70341865Y-47952900D01*
X70200000Y-48011663D01*
X70058135Y-47952900D01*
X69741865Y-47952900D01*
X69667306Y-47983783D01*
X69667035Y-47932032D01*
X69668889Y-47919480D01*
X69668889Y-47842344D01*
X69635753Y-47267657D01*
X69634212Y-47257221D01*
X69634212Y-47246665D01*
X69622943Y-47170357D01*
X69442676Y-46299884D01*
X69436584Y-46279708D01*
X69432851Y-46258957D01*
X69408247Y-46185850D01*
X69076683Y-45361058D01*
X69067116Y-45342282D01*
X69059766Y-45322517D01*
X69022612Y-45254936D01*
X69022605Y-45254922D01*
X69022601Y-45254917D01*
X68550222Y-44501878D01*
X68537477Y-44485087D01*
X68526746Y-44466942D01*
X68478203Y-44406997D01*
X67879932Y-43749507D01*
X67864415Y-43735239D01*
X67850642Y-43719282D01*
X67792251Y-43668880D01*
X67087004Y-43127725D01*
X67069208Y-43116431D01*
X67052823Y-43103163D01*
X66986429Y-43063897D01*
X66196499Y-42656184D01*
X66176979Y-42648218D01*
X66158509Y-42638064D01*
X66086210Y-42611176D01*
X65236565Y-42349792D01*
X65215949Y-42345410D01*
X65195966Y-42338685D01*
X65120050Y-42325026D01*
X64237546Y-42218231D01*
X64216479Y-42217569D01*
X64195622Y-42214489D01*
X64118486Y-42214489D01*
X63231017Y-42265660D01*
X63210167Y-42268739D01*
X63189094Y-42269401D01*
X63113182Y-42283060D01*
X63113176Y-42283061D01*
X63113174Y-42283062D01*
X62248794Y-42490581D01*
X62228812Y-42497306D01*
X62208195Y-42501688D01*
X62135897Y-42528575D01*
X61321927Y-42885884D01*
X61303455Y-42896039D01*
X61283937Y-42904004D01*
X61217543Y-42943269D01*
X60479709Y-43439072D01*
X60463324Y-43452340D01*
X60445528Y-43463634D01*
X60387136Y-43514036D01*
X59748763Y-44132664D01*
X59734992Y-44148618D01*
X59719472Y-44162889D01*
X59670929Y-44222835D01*
X59152194Y-44944731D01*
X59141463Y-44962876D01*
X59128718Y-44979667D01*
X59091558Y-45047262D01*
X58708858Y-45849608D01*
X58701512Y-45869362D01*
X58691939Y-45888149D01*
X58667336Y-45961256D01*
X58432769Y-46818692D01*
X58429037Y-46839434D01*
X58422942Y-46859620D01*
X58411674Y-46935928D01*
X58338469Y-47756169D01*
X58326423Y-47818431D01*
X58327277Y-47981540D01*
X58258135Y-47952900D01*
X57941865Y-47952900D01*
X57819995Y-48003380D01*
X57698125Y-47952900D01*
X57381855Y-47952900D01*
X57219995Y-48019945D01*
X57058135Y-47952900D01*
X56741865Y-47952900D01*
X56600000Y-48011663D01*
X56458135Y-47952900D01*
X56141865Y-47952900D01*
X56000000Y-48011663D01*
X55858135Y-47952900D01*
X55541865Y-47952900D01*
X55400000Y-48011663D01*
X55258135Y-47952900D01*
X54941865Y-47952900D01*
X54767586Y-48025089D01*
X54755383Y-48016935D01*
X54513861Y-47916894D01*
X54131178Y-47840774D01*
X54120153Y-47840774D01*
X54065989Y-47830000D01*
X45547730Y-47830000D01*
X45128634Y-47769981D01*
X44787119Y-47614704D01*
X44502911Y-47369814D01*
X44298862Y-47055005D01*
X44184732Y-46673381D01*
X44170000Y-46475135D01*
X44170000Y-27782191D01*
X55405000Y-27782191D01*
X55405000Y-28217809D01*
X55571704Y-28620267D01*
X55879733Y-28928296D01*
X56282191Y-29095000D01*
X56717809Y-29095000D01*
X57120267Y-28928296D01*
X57428296Y-28620267D01*
X57595000Y-28217809D01*
X57595000Y-27782191D01*
X57428296Y-27379733D01*
X57120267Y-27071704D01*
X56717809Y-26905000D01*
X56282191Y-26905000D01*
X55879733Y-27071704D01*
X55571704Y-27379733D01*
X55405000Y-27782191D01*
X44170000Y-27782191D01*
X44170000Y-9547730D01*
X44230019Y-9128632D01*
X44385296Y-8787119D01*
X44630186Y-8502911D01*
X44944997Y-8298861D01*
X45326619Y-8184732D01*
X45524865Y-8170000D01*
X54065989Y-8170000D01*
X54261421Y-8131126D01*
X54513393Y-8081006D01*
X54754915Y-7980965D01*
X54767297Y-7972691D01*
X54941865Y-8045000D01*
D22*
G36*
X116400000Y-29400000D02*
X113600000Y-29400000D01*
X113600000Y-27100000D01*
X116400000Y-27100000D01*
X116400000Y-29400000D01*
X116400000Y-29400000D01*
G37*
X116400000Y-29400000D02*
X113600000Y-29400000D01*
X113600000Y-27100000D01*
X116400000Y-27100000D01*
X116400000Y-29400000D01*
G36*
X89100000Y-29305678D02*
X87590000Y-29393982D01*
X87590000Y-26594322D01*
X89100000Y-26506018D01*
X89100000Y-29305678D01*
X89100000Y-29305678D01*
G37*
X89100000Y-29305678D02*
X87590000Y-29393982D01*
X87590000Y-26594322D01*
X89100000Y-26506018D01*
X89100000Y-29305678D01*
D23*
G36*
X98441865Y-8045000D02*
X98758135Y-8045000D01*
X98900000Y-7986237D01*
X99041865Y-8045000D01*
X99358135Y-8045000D01*
X99480005Y-7994520D01*
X99601875Y-8045000D01*
X99918145Y-8045000D01*
X100080005Y-7977955D01*
X100241865Y-8045000D01*
X100558135Y-8045000D01*
X100700000Y-7986237D01*
X100841865Y-8045000D01*
X101158135Y-8045000D01*
X101300000Y-7986237D01*
X101441865Y-8045000D01*
X101758135Y-8045000D01*
X101836477Y-8012549D01*
X101864247Y-8494165D01*
X101865788Y-8504601D01*
X101865788Y-8515157D01*
X101877057Y-8591465D01*
X102057324Y-9461938D01*
X102063416Y-9482116D01*
X102067149Y-9502864D01*
X102091747Y-9575954D01*
X102091753Y-9575973D01*
X102091757Y-9575980D01*
X102423316Y-10400764D01*
X102432886Y-10419546D01*
X102440234Y-10439305D01*
X102477395Y-10506900D01*
X102949778Y-11259944D01*
X102962523Y-11276735D01*
X102973254Y-11294880D01*
X103021798Y-11354826D01*
X103620068Y-12012315D01*
X103635585Y-12026583D01*
X103649358Y-12042540D01*
X103707731Y-12092925D01*
X103707751Y-12092944D01*
X103707760Y-12092950D01*
X104412996Y-12634098D01*
X104430793Y-12645392D01*
X104447177Y-12658660D01*
X104513571Y-12697925D01*
X105303501Y-13105638D01*
X105323021Y-13113604D01*
X105341491Y-13123758D01*
X105413773Y-13150639D01*
X105413790Y-13150646D01*
X105413797Y-13150648D01*
X106263435Y-13412030D01*
X106284049Y-13416412D01*
X106304033Y-13423137D01*
X106379950Y-13436796D01*
X107262454Y-13543591D01*
X107283521Y-13544253D01*
X107304378Y-13547333D01*
X107381514Y-13547333D01*
X108268983Y-13496162D01*
X108289833Y-13493083D01*
X108310907Y-13492421D01*
X108386824Y-13478761D01*
X108805000Y-13378366D01*
X108805000Y-22273753D01*
X108819843Y-22348376D01*
X108867083Y-22416435D01*
X112867083Y-26142682D01*
X112931803Y-26182686D01*
X112993750Y-26193871D01*
X113019035Y-26254915D01*
X113235808Y-26579339D01*
X113328235Y-26671765D01*
X113420661Y-26764192D01*
X113745084Y-26980964D01*
X113745085Y-26980965D01*
X113986607Y-27081006D01*
X114238579Y-27131126D01*
X114434011Y-27170000D01*
X126281437Y-27170000D01*
X126071704Y-27379733D01*
X125905000Y-27782191D01*
X125905000Y-28217809D01*
X125936288Y-28293344D01*
X123880000Y-28293344D01*
X123821401Y-28305000D01*
X122102002Y-28305000D01*
X121811770Y-28362731D01*
X121482645Y-28582645D01*
X121262731Y-28911770D01*
X121186436Y-29295331D01*
X120861767Y-29620000D01*
X119770911Y-29620000D01*
X119700000Y-29605895D01*
X119629089Y-29620000D01*
X119419070Y-29661775D01*
X119180909Y-29820909D01*
X119140741Y-29881025D01*
X118261778Y-30759989D01*
X115570997Y-30759989D01*
X115545910Y-30754999D01*
X115474999Y-30740894D01*
X115404088Y-30754999D01*
X113882142Y-30754999D01*
X113755628Y-30628485D01*
X113389924Y-30477005D01*
X112994088Y-30477005D01*
X112628384Y-30628485D01*
X112582006Y-30674864D01*
X112563622Y-30656480D01*
X112197918Y-30505000D01*
X111802082Y-30505000D01*
X111436378Y-30656480D01*
X111156480Y-30936378D01*
X111005000Y-31302082D01*
X111005000Y-31697918D01*
X111156480Y-32063622D01*
X111280001Y-32187143D01*
X111280000Y-33350000D01*
X110986656Y-33350000D01*
X110986656Y-32790000D01*
X110940477Y-32557843D01*
X110808971Y-32361029D01*
X110770016Y-32335000D01*
X110808971Y-32308971D01*
X110940477Y-32112157D01*
X110986656Y-31880000D01*
X110986656Y-31080000D01*
X110940477Y-30847843D01*
X110808971Y-30651029D01*
X110770016Y-30625000D01*
X110808971Y-30598971D01*
X110940477Y-30402157D01*
X110986656Y-30170000D01*
X110986656Y-29370000D01*
X110940477Y-29137843D01*
X110808971Y-28941029D01*
X110770016Y-28915000D01*
X110808971Y-28888971D01*
X110940477Y-28692157D01*
X110986656Y-28460000D01*
X110986656Y-27660000D01*
X110940477Y-27427843D01*
X110808971Y-27231029D01*
X110770016Y-27205000D01*
X110808971Y-27178971D01*
X110940477Y-26982157D01*
X110986656Y-26750000D01*
X110986656Y-25950000D01*
X110940477Y-25717843D01*
X110808971Y-25521029D01*
X110612157Y-25389523D01*
X110380000Y-25343344D01*
X108380000Y-25343344D01*
X108147843Y-25389523D01*
X107951029Y-25521029D01*
X107878217Y-25630000D01*
X107754644Y-25630000D01*
X106700010Y-24575367D01*
X106700010Y-21547000D01*
X107059428Y-21547000D01*
X107590527Y-21327012D01*
X107997012Y-20920527D01*
X108217000Y-20389428D01*
X108217000Y-19814572D01*
X107997012Y-19283473D01*
X107590527Y-18876988D01*
X107481916Y-18832000D01*
X107590527Y-18787012D01*
X107997012Y-18380527D01*
X108217000Y-17849428D01*
X108217000Y-17274572D01*
X107997012Y-16743473D01*
X107590527Y-16336988D01*
X107481916Y-16292000D01*
X107590527Y-16247012D01*
X107997012Y-15840527D01*
X108217000Y-15309428D01*
X108217000Y-14734572D01*
X107997012Y-14203473D01*
X107590527Y-13796988D01*
X107059428Y-13577000D01*
X106484572Y-13577000D01*
X105953473Y-13796988D01*
X105546988Y-14203473D01*
X105327000Y-14734572D01*
X105327000Y-15309428D01*
X105367811Y-15407955D01*
X105031026Y-15744741D01*
X104970910Y-15784909D01*
X104930742Y-15845025D01*
X104811775Y-16023071D01*
X104772260Y-16221726D01*
X104519428Y-16117000D01*
X103944572Y-16117000D01*
X103413473Y-16336988D01*
X103115908Y-16634553D01*
X103065000Y-16624427D01*
X102986709Y-16640000D01*
X98757132Y-16640000D01*
X98612473Y-16290762D01*
X98044238Y-15722527D01*
X97301803Y-15415000D01*
X96498197Y-15415000D01*
X95755762Y-15722527D01*
X95187527Y-16290762D01*
X94974522Y-16805000D01*
X91599187Y-16805000D01*
X91524482Y-16819877D01*
X91461239Y-16862176D01*
X91418997Y-16925458D01*
X91404187Y-17000088D01*
X91405000Y-18800088D01*
X91419843Y-18874623D01*
X91462114Y-18937886D01*
X91525377Y-18980157D01*
X91600000Y-18995000D01*
X95603289Y-18995000D01*
X95755762Y-19147473D01*
X96498197Y-19455000D01*
X97301803Y-19455000D01*
X98044238Y-19147473D01*
X98196711Y-18995000D01*
X101600000Y-18995000D01*
X101674705Y-18980123D01*
X101737948Y-18937824D01*
X101780190Y-18874542D01*
X101795000Y-18799912D01*
X101794743Y-18230000D01*
X102760773Y-18230000D01*
X102881807Y-18310873D01*
X102986786Y-18331755D01*
X103006988Y-18380527D01*
X103413473Y-18787012D01*
X103944572Y-19007000D01*
X104350000Y-19007000D01*
X104350001Y-25179084D01*
X104335895Y-25250000D01*
X104391775Y-25530929D01*
X104433037Y-25592681D01*
X104550910Y-25769091D01*
X104592872Y-25797129D01*
X104620910Y-25839091D01*
X104681027Y-25879260D01*
X104900742Y-26098975D01*
X106880001Y-28078235D01*
X106880000Y-31939089D01*
X106865895Y-32010000D01*
X106902694Y-32195000D01*
X106921775Y-32290929D01*
X107080909Y-32529090D01*
X107141026Y-32569259D01*
X107773344Y-33201578D01*
X107773344Y-33505849D01*
X107705907Y-33550909D01*
X107665736Y-33611029D01*
X107596026Y-33680739D01*
X107535909Y-33720908D01*
X107495741Y-33781024D01*
X107376774Y-33959070D01*
X107320894Y-34239999D01*
X107335000Y-34310915D01*
X107334999Y-36554768D01*
X107157956Y-36731811D01*
X107059428Y-36691000D01*
X106484572Y-36691000D01*
X105953473Y-36910988D01*
X105546988Y-37317473D01*
X105502000Y-37426084D01*
X105457012Y-37317473D01*
X105050527Y-36910988D01*
X104519428Y-36691000D01*
X103944572Y-36691000D01*
X103413473Y-36910988D01*
X103006988Y-37317473D01*
X102810055Y-37792913D01*
X102763622Y-37746480D01*
X102397918Y-37595000D01*
X102002082Y-37595000D01*
X101695000Y-37722198D01*
X101695000Y-37200000D01*
X101680157Y-37125377D01*
X101637886Y-37062114D01*
X101574623Y-37019843D01*
X101500000Y-37005000D01*
X98196711Y-37005000D01*
X98044238Y-36852527D01*
X97301803Y-36545000D01*
X96498197Y-36545000D01*
X95755762Y-36852527D01*
X95603289Y-37005000D01*
X91500000Y-37005000D01*
X91425377Y-37019843D01*
X91362114Y-37062114D01*
X91319843Y-37125377D01*
X91305000Y-37200000D01*
X91305000Y-39000000D01*
X91319843Y-39074623D01*
X91362114Y-39137886D01*
X91425377Y-39180157D01*
X91500000Y-39195000D01*
X94974522Y-39195000D01*
X95187527Y-39709238D01*
X95755762Y-40277473D01*
X96498197Y-40585000D01*
X97301803Y-40585000D01*
X98044238Y-40277473D01*
X98612473Y-39709238D01*
X98825478Y-39195000D01*
X101397858Y-39195000D01*
X101433858Y-39231000D01*
X101404572Y-39231000D01*
X100873473Y-39450988D01*
X100466988Y-39857473D01*
X100247000Y-40388572D01*
X100247000Y-40963428D01*
X100466988Y-41494527D01*
X100873473Y-41901012D01*
X101404572Y-42121000D01*
X101979428Y-42121000D01*
X102510527Y-41901012D01*
X102917012Y-41494527D01*
X102962000Y-41385916D01*
X103006988Y-41494527D01*
X103413473Y-41901012D01*
X103944572Y-42121000D01*
X104519428Y-42121000D01*
X105050527Y-41901012D01*
X105457012Y-41494527D01*
X105502000Y-41385916D01*
X105546988Y-41494527D01*
X105953473Y-41901012D01*
X106484572Y-42121000D01*
X107059428Y-42121000D01*
X107590527Y-41901012D01*
X107997012Y-41494527D01*
X108201385Y-41001127D01*
X108380000Y-41036656D01*
X110380000Y-41036656D01*
X110492452Y-41014288D01*
X110499031Y-41020867D01*
X110864735Y-41172347D01*
X111260571Y-41172347D01*
X111626275Y-41020867D01*
X111906173Y-40740969D01*
X112057653Y-40375265D01*
X112057653Y-39979429D01*
X112020696Y-39890206D01*
X112080930Y-39878225D01*
X112319091Y-39719091D01*
X112359261Y-39658972D01*
X113263987Y-38754247D01*
X113324101Y-38714080D01*
X113373104Y-38640742D01*
X113483235Y-38475920D01*
X113539116Y-38194990D01*
X113525010Y-38124075D01*
X113525012Y-35432154D01*
X113686378Y-35593520D01*
X114052082Y-35745000D01*
X114447918Y-35745000D01*
X114750000Y-35619873D01*
X115052082Y-35745000D01*
X115447918Y-35745000D01*
X115813622Y-35593520D01*
X116093520Y-35313622D01*
X116243521Y-34951489D01*
X116650010Y-34545000D01*
X119819990Y-34545000D01*
X119925000Y-34650010D01*
X119925001Y-38243680D01*
X119832731Y-38381771D01*
X119755507Y-38770000D01*
X119832731Y-39158229D01*
X119997134Y-39404276D01*
X120027132Y-39434274D01*
X120082645Y-39517355D01*
X120411770Y-39737269D01*
X120702002Y-39795000D01*
X120702006Y-39795000D01*
X120799999Y-39814492D01*
X120897993Y-39795000D01*
X123821401Y-39795000D01*
X123880000Y-39806656D01*
X127330000Y-39806656D01*
X127330000Y-46452270D01*
X127269981Y-46871366D01*
X127114704Y-47212881D01*
X126869814Y-47497089D01*
X126555005Y-47701138D01*
X126173381Y-47815268D01*
X125975135Y-47830000D01*
X117434011Y-47830000D01*
X117379847Y-47840774D01*
X117369758Y-47840774D01*
X116987075Y-47916894D01*
X116745553Y-48016935D01*
X116732992Y-48025328D01*
X116558135Y-47952900D01*
X116241865Y-47952900D01*
X116100000Y-48011663D01*
X115958135Y-47952900D01*
X115641865Y-47952900D01*
X115519995Y-48003380D01*
X115398125Y-47952900D01*
X115081855Y-47952900D01*
X114919995Y-48019945D01*
X114758135Y-47952900D01*
X114441865Y-47952900D01*
X114300000Y-48011663D01*
X114158135Y-47952900D01*
X113841865Y-47952900D01*
X113700000Y-48011663D01*
X113558135Y-47952900D01*
X113241865Y-47952900D01*
X113167306Y-47983783D01*
X113167035Y-47932032D01*
X113168889Y-47919480D01*
X113168889Y-47842344D01*
X113135753Y-47267657D01*
X113134212Y-47257221D01*
X113134212Y-47246665D01*
X113122943Y-47170357D01*
X112942676Y-46299884D01*
X112936584Y-46279708D01*
X112932851Y-46258957D01*
X112908247Y-46185850D01*
X112576683Y-45361058D01*
X112567116Y-45342282D01*
X112559766Y-45322517D01*
X112522612Y-45254936D01*
X112522605Y-45254922D01*
X112522601Y-45254917D01*
X112050222Y-44501878D01*
X112037477Y-44485087D01*
X112026746Y-44466942D01*
X111978203Y-44406997D01*
X111379932Y-43749507D01*
X111364415Y-43735239D01*
X111350642Y-43719282D01*
X111292251Y-43668880D01*
X110587004Y-43127725D01*
X110569208Y-43116431D01*
X110552823Y-43103163D01*
X110486429Y-43063897D01*
X109696499Y-42656184D01*
X109676979Y-42648218D01*
X109658509Y-42638064D01*
X109586210Y-42611176D01*
X108736565Y-42349792D01*
X108715949Y-42345410D01*
X108695966Y-42338685D01*
X108620050Y-42325026D01*
X107737546Y-42218231D01*
X107716479Y-42217569D01*
X107695622Y-42214489D01*
X107618486Y-42214489D01*
X106731017Y-42265660D01*
X106710167Y-42268739D01*
X106689094Y-42269401D01*
X106613182Y-42283060D01*
X106613176Y-42283061D01*
X106613174Y-42283062D01*
X105748794Y-42490581D01*
X105728812Y-42497306D01*
X105708195Y-42501688D01*
X105635897Y-42528575D01*
X104821927Y-42885884D01*
X104803455Y-42896039D01*
X104783937Y-42904004D01*
X104717543Y-42943269D01*
X103979709Y-43439072D01*
X103963324Y-43452340D01*
X103945528Y-43463634D01*
X103887136Y-43514036D01*
X103248763Y-44132664D01*
X103234992Y-44148618D01*
X103219472Y-44162889D01*
X103170929Y-44222835D01*
X102652194Y-44944731D01*
X102641463Y-44962876D01*
X102628718Y-44979667D01*
X102591558Y-45047262D01*
X102208858Y-45849608D01*
X102201512Y-45869362D01*
X102191939Y-45888149D01*
X102167336Y-45961256D01*
X101932769Y-46818692D01*
X101929037Y-46839434D01*
X101922942Y-46859620D01*
X101911674Y-46935928D01*
X101838469Y-47756169D01*
X101826423Y-47818431D01*
X101827277Y-47981540D01*
X101758135Y-47952900D01*
X101441865Y-47952900D01*
X101319995Y-48003380D01*
X101198125Y-47952900D01*
X100881855Y-47952900D01*
X100719995Y-48019945D01*
X100558135Y-47952900D01*
X100241865Y-47952900D01*
X100100000Y-48011663D01*
X99958135Y-47952900D01*
X99641865Y-47952900D01*
X99500000Y-48011663D01*
X99358135Y-47952900D01*
X99041865Y-47952900D01*
X98900000Y-48011663D01*
X98758135Y-47952900D01*
X98441865Y-47952900D01*
X98267586Y-48025089D01*
X98255383Y-48016935D01*
X98013861Y-47916894D01*
X97631178Y-47840774D01*
X97620153Y-47840774D01*
X97565989Y-47830000D01*
X89047730Y-47830000D01*
X88628634Y-47769981D01*
X88287119Y-47614704D01*
X88002911Y-47369814D01*
X87798862Y-47055005D01*
X87684732Y-46673381D01*
X87670000Y-46475135D01*
X87670000Y-27782191D01*
X98905000Y-27782191D01*
X98905000Y-28217809D01*
X99071704Y-28620267D01*
X99379733Y-28928296D01*
X99782191Y-29095000D01*
X100217809Y-29095000D01*
X100620267Y-28928296D01*
X100928296Y-28620267D01*
X101095000Y-28217809D01*
X101095000Y-27782191D01*
X100928296Y-27379733D01*
X100620267Y-27071704D01*
X100217809Y-26905000D01*
X99782191Y-26905000D01*
X99379733Y-27071704D01*
X99071704Y-27379733D01*
X98905000Y-27782191D01*
X87670000Y-27782191D01*
X87670000Y-9547730D01*
X87730019Y-9128632D01*
X87885296Y-8787119D01*
X88130186Y-8502911D01*
X88444997Y-8298861D01*
X88826619Y-8184732D01*
X89024865Y-8170000D01*
X97565989Y-8170000D01*
X97761421Y-8131126D01*
X98013393Y-8081006D01*
X98254915Y-7980965D01*
X98267297Y-7972691D01*
X98441865Y-8045000D01*
X98441865Y-8045000D01*
G37*
X98441865Y-8045000D02*
X98758135Y-8045000D01*
X98900000Y-7986237D01*
X99041865Y-8045000D01*
X99358135Y-8045000D01*
X99480005Y-7994520D01*
X99601875Y-8045000D01*
X99918145Y-8045000D01*
X100080005Y-7977955D01*
X100241865Y-8045000D01*
X100558135Y-8045000D01*
X100700000Y-7986237D01*
X100841865Y-8045000D01*
X101158135Y-8045000D01*
X101300000Y-7986237D01*
X101441865Y-8045000D01*
X101758135Y-8045000D01*
X101836477Y-8012549D01*
X101864247Y-8494165D01*
X101865788Y-8504601D01*
X101865788Y-8515157D01*
X101877057Y-8591465D01*
X102057324Y-9461938D01*
X102063416Y-9482116D01*
X102067149Y-9502864D01*
X102091747Y-9575954D01*
X102091753Y-9575973D01*
X102091757Y-9575980D01*
X102423316Y-10400764D01*
X102432886Y-10419546D01*
X102440234Y-10439305D01*
X102477395Y-10506900D01*
X102949778Y-11259944D01*
X102962523Y-11276735D01*
X102973254Y-11294880D01*
X103021798Y-11354826D01*
X103620068Y-12012315D01*
X103635585Y-12026583D01*
X103649358Y-12042540D01*
X103707731Y-12092925D01*
X103707751Y-12092944D01*
X103707760Y-12092950D01*
X104412996Y-12634098D01*
X104430793Y-12645392D01*
X104447177Y-12658660D01*
X104513571Y-12697925D01*
X105303501Y-13105638D01*
X105323021Y-13113604D01*
X105341491Y-13123758D01*
X105413773Y-13150639D01*
X105413790Y-13150646D01*
X105413797Y-13150648D01*
X106263435Y-13412030D01*
X106284049Y-13416412D01*
X106304033Y-13423137D01*
X106379950Y-13436796D01*
X107262454Y-13543591D01*
X107283521Y-13544253D01*
X107304378Y-13547333D01*
X107381514Y-13547333D01*
X108268983Y-13496162D01*
X108289833Y-13493083D01*
X108310907Y-13492421D01*
X108386824Y-13478761D01*
X108805000Y-13378366D01*
X108805000Y-22273753D01*
X108819843Y-22348376D01*
X108867083Y-22416435D01*
X112867083Y-26142682D01*
X112931803Y-26182686D01*
X112993750Y-26193871D01*
X113019035Y-26254915D01*
X113235808Y-26579339D01*
X113328235Y-26671765D01*
X113420661Y-26764192D01*
X113745084Y-26980964D01*
X113745085Y-26980965D01*
X113986607Y-27081006D01*
X114238579Y-27131126D01*
X114434011Y-27170000D01*
X126281437Y-27170000D01*
X126071704Y-27379733D01*
X125905000Y-27782191D01*
X125905000Y-28217809D01*
X125936288Y-28293344D01*
X123880000Y-28293344D01*
X123821401Y-28305000D01*
X122102002Y-28305000D01*
X121811770Y-28362731D01*
X121482645Y-28582645D01*
X121262731Y-28911770D01*
X121186436Y-29295331D01*
X120861767Y-29620000D01*
X119770911Y-29620000D01*
X119700000Y-29605895D01*
X119629089Y-29620000D01*
X119419070Y-29661775D01*
X119180909Y-29820909D01*
X119140741Y-29881025D01*
X118261778Y-30759989D01*
X115570997Y-30759989D01*
X115545910Y-30754999D01*
X115474999Y-30740894D01*
X115404088Y-30754999D01*
X113882142Y-30754999D01*
X113755628Y-30628485D01*
X113389924Y-30477005D01*
X112994088Y-30477005D01*
X112628384Y-30628485D01*
X112582006Y-30674864D01*
X112563622Y-30656480D01*
X112197918Y-30505000D01*
X111802082Y-30505000D01*
X111436378Y-30656480D01*
X111156480Y-30936378D01*
X111005000Y-31302082D01*
X111005000Y-31697918D01*
X111156480Y-32063622D01*
X111280001Y-32187143D01*
X111280000Y-33350000D01*
X110986656Y-33350000D01*
X110986656Y-32790000D01*
X110940477Y-32557843D01*
X110808971Y-32361029D01*
X110770016Y-32335000D01*
X110808971Y-32308971D01*
X110940477Y-32112157D01*
X110986656Y-31880000D01*
X110986656Y-31080000D01*
X110940477Y-30847843D01*
X110808971Y-30651029D01*
X110770016Y-30625000D01*
X110808971Y-30598971D01*
X110940477Y-30402157D01*
X110986656Y-30170000D01*
X110986656Y-29370000D01*
X110940477Y-29137843D01*
X110808971Y-28941029D01*
X110770016Y-28915000D01*
X110808971Y-28888971D01*
X110940477Y-28692157D01*
X110986656Y-28460000D01*
X110986656Y-27660000D01*
X110940477Y-27427843D01*
X110808971Y-27231029D01*
X110770016Y-27205000D01*
X110808971Y-27178971D01*
X110940477Y-26982157D01*
X110986656Y-26750000D01*
X110986656Y-25950000D01*
X110940477Y-25717843D01*
X110808971Y-25521029D01*
X110612157Y-25389523D01*
X110380000Y-25343344D01*
X108380000Y-25343344D01*
X108147843Y-25389523D01*
X107951029Y-25521029D01*
X107878217Y-25630000D01*
X107754644Y-25630000D01*
X106700010Y-24575367D01*
X106700010Y-21547000D01*
X107059428Y-21547000D01*
X107590527Y-21327012D01*
X107997012Y-20920527D01*
X108217000Y-20389428D01*
X108217000Y-19814572D01*
X107997012Y-19283473D01*
X107590527Y-18876988D01*
X107481916Y-18832000D01*
X107590527Y-18787012D01*
X107997012Y-18380527D01*
X108217000Y-17849428D01*
X108217000Y-17274572D01*
X107997012Y-16743473D01*
X107590527Y-16336988D01*
X107481916Y-16292000D01*
X107590527Y-16247012D01*
X107997012Y-15840527D01*
X108217000Y-15309428D01*
X108217000Y-14734572D01*
X107997012Y-14203473D01*
X107590527Y-13796988D01*
X107059428Y-13577000D01*
X106484572Y-13577000D01*
X105953473Y-13796988D01*
X105546988Y-14203473D01*
X105327000Y-14734572D01*
X105327000Y-15309428D01*
X105367811Y-15407955D01*
X105031026Y-15744741D01*
X104970910Y-15784909D01*
X104930742Y-15845025D01*
X104811775Y-16023071D01*
X104772260Y-16221726D01*
X104519428Y-16117000D01*
X103944572Y-16117000D01*
X103413473Y-16336988D01*
X103115908Y-16634553D01*
X103065000Y-16624427D01*
X102986709Y-16640000D01*
X98757132Y-16640000D01*
X98612473Y-16290762D01*
X98044238Y-15722527D01*
X97301803Y-15415000D01*
X96498197Y-15415000D01*
X95755762Y-15722527D01*
X95187527Y-16290762D01*
X94974522Y-16805000D01*
X91599187Y-16805000D01*
X91524482Y-16819877D01*
X91461239Y-16862176D01*
X91418997Y-16925458D01*
X91404187Y-17000088D01*
X91405000Y-18800088D01*
X91419843Y-18874623D01*
X91462114Y-18937886D01*
X91525377Y-18980157D01*
X91600000Y-18995000D01*
X95603289Y-18995000D01*
X95755762Y-19147473D01*
X96498197Y-19455000D01*
X97301803Y-19455000D01*
X98044238Y-19147473D01*
X98196711Y-18995000D01*
X101600000Y-18995000D01*
X101674705Y-18980123D01*
X101737948Y-18937824D01*
X101780190Y-18874542D01*
X101795000Y-18799912D01*
X101794743Y-18230000D01*
X102760773Y-18230000D01*
X102881807Y-18310873D01*
X102986786Y-18331755D01*
X103006988Y-18380527D01*
X103413473Y-18787012D01*
X103944572Y-19007000D01*
X104350000Y-19007000D01*
X104350001Y-25179084D01*
X104335895Y-25250000D01*
X104391775Y-25530929D01*
X104433037Y-25592681D01*
X104550910Y-25769091D01*
X104592872Y-25797129D01*
X104620910Y-25839091D01*
X104681027Y-25879260D01*
X104900742Y-26098975D01*
X106880001Y-28078235D01*
X106880000Y-31939089D01*
X106865895Y-32010000D01*
X106902694Y-32195000D01*
X106921775Y-32290929D01*
X107080909Y-32529090D01*
X107141026Y-32569259D01*
X107773344Y-33201578D01*
X107773344Y-33505849D01*
X107705907Y-33550909D01*
X107665736Y-33611029D01*
X107596026Y-33680739D01*
X107535909Y-33720908D01*
X107495741Y-33781024D01*
X107376774Y-33959070D01*
X107320894Y-34239999D01*
X107335000Y-34310915D01*
X107334999Y-36554768D01*
X107157956Y-36731811D01*
X107059428Y-36691000D01*
X106484572Y-36691000D01*
X105953473Y-36910988D01*
X105546988Y-37317473D01*
X105502000Y-37426084D01*
X105457012Y-37317473D01*
X105050527Y-36910988D01*
X104519428Y-36691000D01*
X103944572Y-36691000D01*
X103413473Y-36910988D01*
X103006988Y-37317473D01*
X102810055Y-37792913D01*
X102763622Y-37746480D01*
X102397918Y-37595000D01*
X102002082Y-37595000D01*
X101695000Y-37722198D01*
X101695000Y-37200000D01*
X101680157Y-37125377D01*
X101637886Y-37062114D01*
X101574623Y-37019843D01*
X101500000Y-37005000D01*
X98196711Y-37005000D01*
X98044238Y-36852527D01*
X97301803Y-36545000D01*
X96498197Y-36545000D01*
X95755762Y-36852527D01*
X95603289Y-37005000D01*
X91500000Y-37005000D01*
X91425377Y-37019843D01*
X91362114Y-37062114D01*
X91319843Y-37125377D01*
X91305000Y-37200000D01*
X91305000Y-39000000D01*
X91319843Y-39074623D01*
X91362114Y-39137886D01*
X91425377Y-39180157D01*
X91500000Y-39195000D01*
X94974522Y-39195000D01*
X95187527Y-39709238D01*
X95755762Y-40277473D01*
X96498197Y-40585000D01*
X97301803Y-40585000D01*
X98044238Y-40277473D01*
X98612473Y-39709238D01*
X98825478Y-39195000D01*
X101397858Y-39195000D01*
X101433858Y-39231000D01*
X101404572Y-39231000D01*
X100873473Y-39450988D01*
X100466988Y-39857473D01*
X100247000Y-40388572D01*
X100247000Y-40963428D01*
X100466988Y-41494527D01*
X100873473Y-41901012D01*
X101404572Y-42121000D01*
X101979428Y-42121000D01*
X102510527Y-41901012D01*
X102917012Y-41494527D01*
X102962000Y-41385916D01*
X103006988Y-41494527D01*
X103413473Y-41901012D01*
X103944572Y-42121000D01*
X104519428Y-42121000D01*
X105050527Y-41901012D01*
X105457012Y-41494527D01*
X105502000Y-41385916D01*
X105546988Y-41494527D01*
X105953473Y-41901012D01*
X106484572Y-42121000D01*
X107059428Y-42121000D01*
X107590527Y-41901012D01*
X107997012Y-41494527D01*
X108201385Y-41001127D01*
X108380000Y-41036656D01*
X110380000Y-41036656D01*
X110492452Y-41014288D01*
X110499031Y-41020867D01*
X110864735Y-41172347D01*
X111260571Y-41172347D01*
X111626275Y-41020867D01*
X111906173Y-40740969D01*
X112057653Y-40375265D01*
X112057653Y-39979429D01*
X112020696Y-39890206D01*
X112080930Y-39878225D01*
X112319091Y-39719091D01*
X112359261Y-39658972D01*
X113263987Y-38754247D01*
X113324101Y-38714080D01*
X113373104Y-38640742D01*
X113483235Y-38475920D01*
X113539116Y-38194990D01*
X113525010Y-38124075D01*
X113525012Y-35432154D01*
X113686378Y-35593520D01*
X114052082Y-35745000D01*
X114447918Y-35745000D01*
X114750000Y-35619873D01*
X115052082Y-35745000D01*
X115447918Y-35745000D01*
X115813622Y-35593520D01*
X116093520Y-35313622D01*
X116243521Y-34951489D01*
X116650010Y-34545000D01*
X119819990Y-34545000D01*
X119925000Y-34650010D01*
X119925001Y-38243680D01*
X119832731Y-38381771D01*
X119755507Y-38770000D01*
X119832731Y-39158229D01*
X119997134Y-39404276D01*
X120027132Y-39434274D01*
X120082645Y-39517355D01*
X120411770Y-39737269D01*
X120702002Y-39795000D01*
X120702006Y-39795000D01*
X120799999Y-39814492D01*
X120897993Y-39795000D01*
X123821401Y-39795000D01*
X123880000Y-39806656D01*
X127330000Y-39806656D01*
X127330000Y-46452270D01*
X127269981Y-46871366D01*
X127114704Y-47212881D01*
X126869814Y-47497089D01*
X126555005Y-47701138D01*
X126173381Y-47815268D01*
X125975135Y-47830000D01*
X117434011Y-47830000D01*
X117379847Y-47840774D01*
X117369758Y-47840774D01*
X116987075Y-47916894D01*
X116745553Y-48016935D01*
X116732992Y-48025328D01*
X116558135Y-47952900D01*
X116241865Y-47952900D01*
X116100000Y-48011663D01*
X115958135Y-47952900D01*
X115641865Y-47952900D01*
X115519995Y-48003380D01*
X115398125Y-47952900D01*
X115081855Y-47952900D01*
X114919995Y-48019945D01*
X114758135Y-47952900D01*
X114441865Y-47952900D01*
X114300000Y-48011663D01*
X114158135Y-47952900D01*
X113841865Y-47952900D01*
X113700000Y-48011663D01*
X113558135Y-47952900D01*
X113241865Y-47952900D01*
X113167306Y-47983783D01*
X113167035Y-47932032D01*
X113168889Y-47919480D01*
X113168889Y-47842344D01*
X113135753Y-47267657D01*
X113134212Y-47257221D01*
X113134212Y-47246665D01*
X113122943Y-47170357D01*
X112942676Y-46299884D01*
X112936584Y-46279708D01*
X112932851Y-46258957D01*
X112908247Y-46185850D01*
X112576683Y-45361058D01*
X112567116Y-45342282D01*
X112559766Y-45322517D01*
X112522612Y-45254936D01*
X112522605Y-45254922D01*
X112522601Y-45254917D01*
X112050222Y-44501878D01*
X112037477Y-44485087D01*
X112026746Y-44466942D01*
X111978203Y-44406997D01*
X111379932Y-43749507D01*
X111364415Y-43735239D01*
X111350642Y-43719282D01*
X111292251Y-43668880D01*
X110587004Y-43127725D01*
X110569208Y-43116431D01*
X110552823Y-43103163D01*
X110486429Y-43063897D01*
X109696499Y-42656184D01*
X109676979Y-42648218D01*
X109658509Y-42638064D01*
X109586210Y-42611176D01*
X108736565Y-42349792D01*
X108715949Y-42345410D01*
X108695966Y-42338685D01*
X108620050Y-42325026D01*
X107737546Y-42218231D01*
X107716479Y-42217569D01*
X107695622Y-42214489D01*
X107618486Y-42214489D01*
X106731017Y-42265660D01*
X106710167Y-42268739D01*
X106689094Y-42269401D01*
X106613182Y-42283060D01*
X106613176Y-42283061D01*
X106613174Y-42283062D01*
X105748794Y-42490581D01*
X105728812Y-42497306D01*
X105708195Y-42501688D01*
X105635897Y-42528575D01*
X104821927Y-42885884D01*
X104803455Y-42896039D01*
X104783937Y-42904004D01*
X104717543Y-42943269D01*
X103979709Y-43439072D01*
X103963324Y-43452340D01*
X103945528Y-43463634D01*
X103887136Y-43514036D01*
X103248763Y-44132664D01*
X103234992Y-44148618D01*
X103219472Y-44162889D01*
X103170929Y-44222835D01*
X102652194Y-44944731D01*
X102641463Y-44962876D01*
X102628718Y-44979667D01*
X102591558Y-45047262D01*
X102208858Y-45849608D01*
X102201512Y-45869362D01*
X102191939Y-45888149D01*
X102167336Y-45961256D01*
X101932769Y-46818692D01*
X101929037Y-46839434D01*
X101922942Y-46859620D01*
X101911674Y-46935928D01*
X101838469Y-47756169D01*
X101826423Y-47818431D01*
X101827277Y-47981540D01*
X101758135Y-47952900D01*
X101441865Y-47952900D01*
X101319995Y-48003380D01*
X101198125Y-47952900D01*
X100881855Y-47952900D01*
X100719995Y-48019945D01*
X100558135Y-47952900D01*
X100241865Y-47952900D01*
X100100000Y-48011663D01*
X99958135Y-47952900D01*
X99641865Y-47952900D01*
X99500000Y-48011663D01*
X99358135Y-47952900D01*
X99041865Y-47952900D01*
X98900000Y-48011663D01*
X98758135Y-47952900D01*
X98441865Y-47952900D01*
X98267586Y-48025089D01*
X98255383Y-48016935D01*
X98013861Y-47916894D01*
X97631178Y-47840774D01*
X97620153Y-47840774D01*
X97565989Y-47830000D01*
X89047730Y-47830000D01*
X88628634Y-47769981D01*
X88287119Y-47614704D01*
X88002911Y-47369814D01*
X87798862Y-47055005D01*
X87684732Y-46673381D01*
X87670000Y-46475135D01*
X87670000Y-27782191D01*
X98905000Y-27782191D01*
X98905000Y-28217809D01*
X99071704Y-28620267D01*
X99379733Y-28928296D01*
X99782191Y-29095000D01*
X100217809Y-29095000D01*
X100620267Y-28928296D01*
X100928296Y-28620267D01*
X101095000Y-28217809D01*
X101095000Y-27782191D01*
X100928296Y-27379733D01*
X100620267Y-27071704D01*
X100217809Y-26905000D01*
X99782191Y-26905000D01*
X99379733Y-27071704D01*
X99071704Y-27379733D01*
X98905000Y-27782191D01*
X87670000Y-27782191D01*
X87670000Y-9547730D01*
X87730019Y-9128632D01*
X87885296Y-8787119D01*
X88130186Y-8502911D01*
X88444997Y-8298861D01*
X88826619Y-8184732D01*
X89024865Y-8170000D01*
X97565989Y-8170000D01*
X97761421Y-8131126D01*
X98013393Y-8081006D01*
X98254915Y-7980965D01*
X98267297Y-7972691D01*
X98441865Y-8045000D01*
D22*
G36*
X116400000Y-73400000D02*
X113600000Y-73400000D01*
X113600000Y-71100000D01*
X116400000Y-71100000D01*
X116400000Y-73400000D01*
X116400000Y-73400000D01*
G37*
X116400000Y-73400000D02*
X113600000Y-73400000D01*
X113600000Y-71100000D01*
X116400000Y-71100000D01*
X116400000Y-73400000D01*
G36*
X89100000Y-73305678D02*
X87590000Y-73393982D01*
X87590000Y-70594322D01*
X89100000Y-70506018D01*
X89100000Y-73305678D01*
X89100000Y-73305678D01*
G37*
X89100000Y-73305678D02*
X87590000Y-73393982D01*
X87590000Y-70594322D01*
X89100000Y-70506018D01*
X89100000Y-73305678D01*
D23*
G36*
X98441865Y-52045000D02*
X98758135Y-52045000D01*
X98900000Y-51986237D01*
X99041865Y-52045000D01*
X99358135Y-52045000D01*
X99480005Y-51994520D01*
X99601875Y-52045000D01*
X99918145Y-52045000D01*
X100080005Y-51977955D01*
X100241865Y-52045000D01*
X100558135Y-52045000D01*
X100700000Y-51986237D01*
X100841865Y-52045000D01*
X101158135Y-52045000D01*
X101300000Y-51986237D01*
X101441865Y-52045000D01*
X101758135Y-52045000D01*
X101836477Y-52012549D01*
X101864247Y-52494165D01*
X101865788Y-52504601D01*
X101865788Y-52515157D01*
X101877057Y-52591465D01*
X102057324Y-53461938D01*
X102063416Y-53482116D01*
X102067149Y-53502864D01*
X102091747Y-53575954D01*
X102091753Y-53575973D01*
X102091757Y-53575980D01*
X102423316Y-54400764D01*
X102432886Y-54419546D01*
X102440234Y-54439305D01*
X102477395Y-54506900D01*
X102949778Y-55259944D01*
X102962523Y-55276735D01*
X102973254Y-55294880D01*
X103021798Y-55354826D01*
X103620068Y-56012315D01*
X103635585Y-56026583D01*
X103649358Y-56042540D01*
X103707731Y-56092925D01*
X103707751Y-56092944D01*
X103707760Y-56092950D01*
X104412996Y-56634098D01*
X104430793Y-56645392D01*
X104447177Y-56658660D01*
X104513571Y-56697925D01*
X105303501Y-57105638D01*
X105323021Y-57113604D01*
X105341491Y-57123758D01*
X105413773Y-57150639D01*
X105413790Y-57150646D01*
X105413797Y-57150648D01*
X106263435Y-57412030D01*
X106284049Y-57416412D01*
X106304033Y-57423137D01*
X106379950Y-57436796D01*
X107262454Y-57543591D01*
X107283521Y-57544253D01*
X107304378Y-57547333D01*
X107381514Y-57547333D01*
X108268983Y-57496162D01*
X108289833Y-57493083D01*
X108310907Y-57492421D01*
X108386824Y-57478761D01*
X108805000Y-57378366D01*
X108805000Y-66273753D01*
X108819843Y-66348376D01*
X108867083Y-66416435D01*
X112867083Y-70142682D01*
X112931803Y-70182686D01*
X112993750Y-70193871D01*
X113019035Y-70254915D01*
X113235808Y-70579339D01*
X113328235Y-70671765D01*
X113420661Y-70764192D01*
X113745084Y-70980964D01*
X113745085Y-70980965D01*
X113986607Y-71081006D01*
X114238579Y-71131126D01*
X114434011Y-71170000D01*
X126281437Y-71170000D01*
X126071704Y-71379733D01*
X125905000Y-71782191D01*
X125905000Y-72217809D01*
X125936288Y-72293344D01*
X123880000Y-72293344D01*
X123821401Y-72305000D01*
X122102002Y-72305000D01*
X121811770Y-72362731D01*
X121482645Y-72582645D01*
X121262731Y-72911770D01*
X121186436Y-73295331D01*
X120861767Y-73620000D01*
X119770911Y-73620000D01*
X119700000Y-73605895D01*
X119629089Y-73620000D01*
X119419070Y-73661775D01*
X119180909Y-73820909D01*
X119140741Y-73881025D01*
X118261778Y-74759989D01*
X115570997Y-74759989D01*
X115545910Y-74754999D01*
X115474999Y-74740894D01*
X115404088Y-74754999D01*
X113882142Y-74754999D01*
X113755628Y-74628485D01*
X113389924Y-74477005D01*
X112994088Y-74477005D01*
X112628384Y-74628485D01*
X112582006Y-74674864D01*
X112563622Y-74656480D01*
X112197918Y-74505000D01*
X111802082Y-74505000D01*
X111436378Y-74656480D01*
X111156480Y-74936378D01*
X111005000Y-75302082D01*
X111005000Y-75697918D01*
X111156480Y-76063622D01*
X111280001Y-76187143D01*
X111280000Y-77350000D01*
X110986656Y-77350000D01*
X110986656Y-76790000D01*
X110940477Y-76557843D01*
X110808971Y-76361029D01*
X110770016Y-76335000D01*
X110808971Y-76308971D01*
X110940477Y-76112157D01*
X110986656Y-75880000D01*
X110986656Y-75080000D01*
X110940477Y-74847843D01*
X110808971Y-74651029D01*
X110770016Y-74625000D01*
X110808971Y-74598971D01*
X110940477Y-74402157D01*
X110986656Y-74170000D01*
X110986656Y-73370000D01*
X110940477Y-73137843D01*
X110808971Y-72941029D01*
X110770016Y-72915000D01*
X110808971Y-72888971D01*
X110940477Y-72692157D01*
X110986656Y-72460000D01*
X110986656Y-71660000D01*
X110940477Y-71427843D01*
X110808971Y-71231029D01*
X110770016Y-71205000D01*
X110808971Y-71178971D01*
X110940477Y-70982157D01*
X110986656Y-70750000D01*
X110986656Y-69950000D01*
X110940477Y-69717843D01*
X110808971Y-69521029D01*
X110612157Y-69389523D01*
X110380000Y-69343344D01*
X108380000Y-69343344D01*
X108147843Y-69389523D01*
X107951029Y-69521029D01*
X107878217Y-69630000D01*
X107754644Y-69630000D01*
X106700010Y-68575367D01*
X106700010Y-65547000D01*
X107059428Y-65547000D01*
X107590527Y-65327012D01*
X107997012Y-64920527D01*
X108217000Y-64389428D01*
X108217000Y-63814572D01*
X107997012Y-63283473D01*
X107590527Y-62876988D01*
X107481916Y-62832000D01*
X107590527Y-62787012D01*
X107997012Y-62380527D01*
X108217000Y-61849428D01*
X108217000Y-61274572D01*
X107997012Y-60743473D01*
X107590527Y-60336988D01*
X107481916Y-60292000D01*
X107590527Y-60247012D01*
X107997012Y-59840527D01*
X108217000Y-59309428D01*
X108217000Y-58734572D01*
X107997012Y-58203473D01*
X107590527Y-57796988D01*
X107059428Y-57577000D01*
X106484572Y-57577000D01*
X105953473Y-57796988D01*
X105546988Y-58203473D01*
X105327000Y-58734572D01*
X105327000Y-59309428D01*
X105367811Y-59407955D01*
X105031026Y-59744741D01*
X104970910Y-59784909D01*
X104930742Y-59845025D01*
X104811775Y-60023071D01*
X104772260Y-60221726D01*
X104519428Y-60117000D01*
X103944572Y-60117000D01*
X103413473Y-60336988D01*
X103115908Y-60634553D01*
X103065000Y-60624427D01*
X102986709Y-60640000D01*
X98757132Y-60640000D01*
X98612473Y-60290762D01*
X98044238Y-59722527D01*
X97301803Y-59415000D01*
X96498197Y-59415000D01*
X95755762Y-59722527D01*
X95187527Y-60290762D01*
X94974522Y-60805000D01*
X91599187Y-60805000D01*
X91524482Y-60819877D01*
X91461239Y-60862176D01*
X91418997Y-60925458D01*
X91404187Y-61000088D01*
X91405000Y-62800088D01*
X91419843Y-62874623D01*
X91462114Y-62937886D01*
X91525377Y-62980157D01*
X91600000Y-62995000D01*
X95603289Y-62995000D01*
X95755762Y-63147473D01*
X96498197Y-63455000D01*
X97301803Y-63455000D01*
X98044238Y-63147473D01*
X98196711Y-62995000D01*
X101600000Y-62995000D01*
X101674705Y-62980123D01*
X101737948Y-62937824D01*
X101780190Y-62874542D01*
X101795000Y-62799912D01*
X101794743Y-62230000D01*
X102760773Y-62230000D01*
X102881807Y-62310873D01*
X102986786Y-62331755D01*
X103006988Y-62380527D01*
X103413473Y-62787012D01*
X103944572Y-63007000D01*
X104350000Y-63007000D01*
X104350001Y-69179084D01*
X104335895Y-69250000D01*
X104391775Y-69530929D01*
X104433037Y-69592681D01*
X104550910Y-69769091D01*
X104592872Y-69797129D01*
X104620910Y-69839091D01*
X104681027Y-69879260D01*
X104900742Y-70098975D01*
X106880001Y-72078235D01*
X106880000Y-75939089D01*
X106865895Y-76010000D01*
X106902694Y-76195000D01*
X106921775Y-76290929D01*
X107080909Y-76529090D01*
X107141026Y-76569259D01*
X107773344Y-77201578D01*
X107773344Y-77505849D01*
X107705907Y-77550909D01*
X107665736Y-77611029D01*
X107596026Y-77680739D01*
X107535909Y-77720908D01*
X107495741Y-77781024D01*
X107376774Y-77959070D01*
X107320894Y-78239999D01*
X107335000Y-78310915D01*
X107334999Y-80554768D01*
X107157956Y-80731811D01*
X107059428Y-80691000D01*
X106484572Y-80691000D01*
X105953473Y-80910988D01*
X105546988Y-81317473D01*
X105502000Y-81426084D01*
X105457012Y-81317473D01*
X105050527Y-80910988D01*
X104519428Y-80691000D01*
X103944572Y-80691000D01*
X103413473Y-80910988D01*
X103006988Y-81317473D01*
X102810055Y-81792913D01*
X102763622Y-81746480D01*
X102397918Y-81595000D01*
X102002082Y-81595000D01*
X101695000Y-81722198D01*
X101695000Y-81200000D01*
X101680157Y-81125377D01*
X101637886Y-81062114D01*
X101574623Y-81019843D01*
X101500000Y-81005000D01*
X98196711Y-81005000D01*
X98044238Y-80852527D01*
X97301803Y-80545000D01*
X96498197Y-80545000D01*
X95755762Y-80852527D01*
X95603289Y-81005000D01*
X91500000Y-81005000D01*
X91425377Y-81019843D01*
X91362114Y-81062114D01*
X91319843Y-81125377D01*
X91305000Y-81200000D01*
X91305000Y-83000000D01*
X91319843Y-83074623D01*
X91362114Y-83137886D01*
X91425377Y-83180157D01*
X91500000Y-83195000D01*
X94974522Y-83195000D01*
X95187527Y-83709238D01*
X95755762Y-84277473D01*
X96498197Y-84585000D01*
X97301803Y-84585000D01*
X98044238Y-84277473D01*
X98612473Y-83709238D01*
X98825478Y-83195000D01*
X101397858Y-83195000D01*
X101433858Y-83231000D01*
X101404572Y-83231000D01*
X100873473Y-83450988D01*
X100466988Y-83857473D01*
X100247000Y-84388572D01*
X100247000Y-84963428D01*
X100466988Y-85494527D01*
X100873473Y-85901012D01*
X101404572Y-86121000D01*
X101979428Y-86121000D01*
X102510527Y-85901012D01*
X102917012Y-85494527D01*
X102962000Y-85385916D01*
X103006988Y-85494527D01*
X103413473Y-85901012D01*
X103944572Y-86121000D01*
X104519428Y-86121000D01*
X105050527Y-85901012D01*
X105457012Y-85494527D01*
X105502000Y-85385916D01*
X105546988Y-85494527D01*
X105953473Y-85901012D01*
X106484572Y-86121000D01*
X107059428Y-86121000D01*
X107590527Y-85901012D01*
X107997012Y-85494527D01*
X108201385Y-85001127D01*
X108380000Y-85036656D01*
X110380000Y-85036656D01*
X110492452Y-85014288D01*
X110499031Y-85020867D01*
X110864735Y-85172347D01*
X111260571Y-85172347D01*
X111626275Y-85020867D01*
X111906173Y-84740969D01*
X112057653Y-84375265D01*
X112057653Y-83979429D01*
X112020696Y-83890206D01*
X112080930Y-83878225D01*
X112319091Y-83719091D01*
X112359261Y-83658972D01*
X113263987Y-82754247D01*
X113324101Y-82714080D01*
X113373104Y-82640742D01*
X113483235Y-82475920D01*
X113539116Y-82194990D01*
X113525010Y-82124075D01*
X113525012Y-79432154D01*
X113686378Y-79593520D01*
X114052082Y-79745000D01*
X114447918Y-79745000D01*
X114750000Y-79619873D01*
X115052082Y-79745000D01*
X115447918Y-79745000D01*
X115813622Y-79593520D01*
X116093520Y-79313622D01*
X116243521Y-78951489D01*
X116650010Y-78545000D01*
X119819990Y-78545000D01*
X119925000Y-78650010D01*
X119925001Y-82243680D01*
X119832731Y-82381771D01*
X119755507Y-82770000D01*
X119832731Y-83158229D01*
X119997134Y-83404276D01*
X120027132Y-83434274D01*
X120082645Y-83517355D01*
X120411770Y-83737269D01*
X120702002Y-83795000D01*
X120702006Y-83795000D01*
X120799999Y-83814492D01*
X120897993Y-83795000D01*
X123821401Y-83795000D01*
X123880000Y-83806656D01*
X127330000Y-83806656D01*
X127330000Y-90452270D01*
X127269981Y-90871366D01*
X127114704Y-91212881D01*
X126869814Y-91497089D01*
X126555005Y-91701138D01*
X126173381Y-91815268D01*
X125975135Y-91830000D01*
X117434011Y-91830000D01*
X117379847Y-91840774D01*
X117369758Y-91840774D01*
X116987075Y-91916894D01*
X116745553Y-92016935D01*
X116732992Y-92025328D01*
X116558135Y-91952900D01*
X116241865Y-91952900D01*
X116100000Y-92011663D01*
X115958135Y-91952900D01*
X115641865Y-91952900D01*
X115519995Y-92003380D01*
X115398125Y-91952900D01*
X115081855Y-91952900D01*
X114919995Y-92019945D01*
X114758135Y-91952900D01*
X114441865Y-91952900D01*
X114300000Y-92011663D01*
X114158135Y-91952900D01*
X113841865Y-91952900D01*
X113700000Y-92011663D01*
X113558135Y-91952900D01*
X113241865Y-91952900D01*
X113167306Y-91983783D01*
X113167035Y-91932032D01*
X113168889Y-91919480D01*
X113168889Y-91842344D01*
X113135753Y-91267657D01*
X113134212Y-91257221D01*
X113134212Y-91246665D01*
X113122943Y-91170357D01*
X112942676Y-90299884D01*
X112936584Y-90279708D01*
X112932851Y-90258957D01*
X112908247Y-90185850D01*
X112576683Y-89361058D01*
X112567116Y-89342282D01*
X112559766Y-89322517D01*
X112522612Y-89254936D01*
X112522605Y-89254922D01*
X112522601Y-89254917D01*
X112050222Y-88501878D01*
X112037477Y-88485087D01*
X112026746Y-88466942D01*
X111978203Y-88406997D01*
X111379932Y-87749507D01*
X111364415Y-87735239D01*
X111350642Y-87719282D01*
X111292251Y-87668880D01*
X110587004Y-87127725D01*
X110569208Y-87116431D01*
X110552823Y-87103163D01*
X110486429Y-87063897D01*
X109696499Y-86656184D01*
X109676979Y-86648218D01*
X109658509Y-86638064D01*
X109586210Y-86611176D01*
X108736565Y-86349792D01*
X108715949Y-86345410D01*
X108695966Y-86338685D01*
X108620050Y-86325026D01*
X107737546Y-86218231D01*
X107716479Y-86217569D01*
X107695622Y-86214489D01*
X107618486Y-86214489D01*
X106731017Y-86265660D01*
X106710167Y-86268739D01*
X106689094Y-86269401D01*
X106613182Y-86283060D01*
X106613176Y-86283061D01*
X106613174Y-86283062D01*
X105748794Y-86490581D01*
X105728812Y-86497306D01*
X105708195Y-86501688D01*
X105635897Y-86528575D01*
X104821927Y-86885884D01*
X104803455Y-86896039D01*
X104783937Y-86904004D01*
X104717543Y-86943269D01*
X103979709Y-87439072D01*
X103963324Y-87452340D01*
X103945528Y-87463634D01*
X103887136Y-87514036D01*
X103248763Y-88132664D01*
X103234992Y-88148618D01*
X103219472Y-88162889D01*
X103170929Y-88222835D01*
X102652194Y-88944731D01*
X102641463Y-88962876D01*
X102628718Y-88979667D01*
X102591558Y-89047262D01*
X102208858Y-89849608D01*
X102201512Y-89869362D01*
X102191939Y-89888149D01*
X102167336Y-89961256D01*
X101932769Y-90818692D01*
X101929037Y-90839434D01*
X101922942Y-90859620D01*
X101911674Y-90935928D01*
X101838469Y-91756169D01*
X101826423Y-91818431D01*
X101827277Y-91981540D01*
X101758135Y-91952900D01*
X101441865Y-91952900D01*
X101319995Y-92003380D01*
X101198125Y-91952900D01*
X100881855Y-91952900D01*
X100719995Y-92019945D01*
X100558135Y-91952900D01*
X100241865Y-91952900D01*
X100100000Y-92011663D01*
X99958135Y-91952900D01*
X99641865Y-91952900D01*
X99500000Y-92011663D01*
X99358135Y-91952900D01*
X99041865Y-91952900D01*
X98900000Y-92011663D01*
X98758135Y-91952900D01*
X98441865Y-91952900D01*
X98267586Y-92025089D01*
X98255383Y-92016935D01*
X98013861Y-91916894D01*
X97631178Y-91840774D01*
X97620153Y-91840774D01*
X97565989Y-91830000D01*
X89047730Y-91830000D01*
X88628634Y-91769981D01*
X88287119Y-91614704D01*
X88002911Y-91369814D01*
X87798862Y-91055005D01*
X87684732Y-90673381D01*
X87670000Y-90475135D01*
X87670000Y-71782191D01*
X98905000Y-71782191D01*
X98905000Y-72217809D01*
X99071704Y-72620267D01*
X99379733Y-72928296D01*
X99782191Y-73095000D01*
X100217809Y-73095000D01*
X100620267Y-72928296D01*
X100928296Y-72620267D01*
X101095000Y-72217809D01*
X101095000Y-71782191D01*
X100928296Y-71379733D01*
X100620267Y-71071704D01*
X100217809Y-70905000D01*
X99782191Y-70905000D01*
X99379733Y-71071704D01*
X99071704Y-71379733D01*
X98905000Y-71782191D01*
X87670000Y-71782191D01*
X87670000Y-53547730D01*
X87730019Y-53128632D01*
X87885296Y-52787119D01*
X88130186Y-52502911D01*
X88444997Y-52298861D01*
X88826619Y-52184732D01*
X89024865Y-52170000D01*
X97565989Y-52170000D01*
X97761421Y-52131126D01*
X98013393Y-52081006D01*
X98254915Y-51980965D01*
X98267297Y-51972691D01*
X98441865Y-52045000D01*
X98441865Y-52045000D01*
G37*
X98441865Y-52045000D02*
X98758135Y-52045000D01*
X98900000Y-51986237D01*
X99041865Y-52045000D01*
X99358135Y-52045000D01*
X99480005Y-51994520D01*
X99601875Y-52045000D01*
X99918145Y-52045000D01*
X100080005Y-51977955D01*
X100241865Y-52045000D01*
X100558135Y-52045000D01*
X100700000Y-51986237D01*
X100841865Y-52045000D01*
X101158135Y-52045000D01*
X101300000Y-51986237D01*
X101441865Y-52045000D01*
X101758135Y-52045000D01*
X101836477Y-52012549D01*
X101864247Y-52494165D01*
X101865788Y-52504601D01*
X101865788Y-52515157D01*
X101877057Y-52591465D01*
X102057324Y-53461938D01*
X102063416Y-53482116D01*
X102067149Y-53502864D01*
X102091747Y-53575954D01*
X102091753Y-53575973D01*
X102091757Y-53575980D01*
X102423316Y-54400764D01*
X102432886Y-54419546D01*
X102440234Y-54439305D01*
X102477395Y-54506900D01*
X102949778Y-55259944D01*
X102962523Y-55276735D01*
X102973254Y-55294880D01*
X103021798Y-55354826D01*
X103620068Y-56012315D01*
X103635585Y-56026583D01*
X103649358Y-56042540D01*
X103707731Y-56092925D01*
X103707751Y-56092944D01*
X103707760Y-56092950D01*
X104412996Y-56634098D01*
X104430793Y-56645392D01*
X104447177Y-56658660D01*
X104513571Y-56697925D01*
X105303501Y-57105638D01*
X105323021Y-57113604D01*
X105341491Y-57123758D01*
X105413773Y-57150639D01*
X105413790Y-57150646D01*
X105413797Y-57150648D01*
X106263435Y-57412030D01*
X106284049Y-57416412D01*
X106304033Y-57423137D01*
X106379950Y-57436796D01*
X107262454Y-57543591D01*
X107283521Y-57544253D01*
X107304378Y-57547333D01*
X107381514Y-57547333D01*
X108268983Y-57496162D01*
X108289833Y-57493083D01*
X108310907Y-57492421D01*
X108386824Y-57478761D01*
X108805000Y-57378366D01*
X108805000Y-66273753D01*
X108819843Y-66348376D01*
X108867083Y-66416435D01*
X112867083Y-70142682D01*
X112931803Y-70182686D01*
X112993750Y-70193871D01*
X113019035Y-70254915D01*
X113235808Y-70579339D01*
X113328235Y-70671765D01*
X113420661Y-70764192D01*
X113745084Y-70980964D01*
X113745085Y-70980965D01*
X113986607Y-71081006D01*
X114238579Y-71131126D01*
X114434011Y-71170000D01*
X126281437Y-71170000D01*
X126071704Y-71379733D01*
X125905000Y-71782191D01*
X125905000Y-72217809D01*
X125936288Y-72293344D01*
X123880000Y-72293344D01*
X123821401Y-72305000D01*
X122102002Y-72305000D01*
X121811770Y-72362731D01*
X121482645Y-72582645D01*
X121262731Y-72911770D01*
X121186436Y-73295331D01*
X120861767Y-73620000D01*
X119770911Y-73620000D01*
X119700000Y-73605895D01*
X119629089Y-73620000D01*
X119419070Y-73661775D01*
X119180909Y-73820909D01*
X119140741Y-73881025D01*
X118261778Y-74759989D01*
X115570997Y-74759989D01*
X115545910Y-74754999D01*
X115474999Y-74740894D01*
X115404088Y-74754999D01*
X113882142Y-74754999D01*
X113755628Y-74628485D01*
X113389924Y-74477005D01*
X112994088Y-74477005D01*
X112628384Y-74628485D01*
X112582006Y-74674864D01*
X112563622Y-74656480D01*
X112197918Y-74505000D01*
X111802082Y-74505000D01*
X111436378Y-74656480D01*
X111156480Y-74936378D01*
X111005000Y-75302082D01*
X111005000Y-75697918D01*
X111156480Y-76063622D01*
X111280001Y-76187143D01*
X111280000Y-77350000D01*
X110986656Y-77350000D01*
X110986656Y-76790000D01*
X110940477Y-76557843D01*
X110808971Y-76361029D01*
X110770016Y-76335000D01*
X110808971Y-76308971D01*
X110940477Y-76112157D01*
X110986656Y-75880000D01*
X110986656Y-75080000D01*
X110940477Y-74847843D01*
X110808971Y-74651029D01*
X110770016Y-74625000D01*
X110808971Y-74598971D01*
X110940477Y-74402157D01*
X110986656Y-74170000D01*
X110986656Y-73370000D01*
X110940477Y-73137843D01*
X110808971Y-72941029D01*
X110770016Y-72915000D01*
X110808971Y-72888971D01*
X110940477Y-72692157D01*
X110986656Y-72460000D01*
X110986656Y-71660000D01*
X110940477Y-71427843D01*
X110808971Y-71231029D01*
X110770016Y-71205000D01*
X110808971Y-71178971D01*
X110940477Y-70982157D01*
X110986656Y-70750000D01*
X110986656Y-69950000D01*
X110940477Y-69717843D01*
X110808971Y-69521029D01*
X110612157Y-69389523D01*
X110380000Y-69343344D01*
X108380000Y-69343344D01*
X108147843Y-69389523D01*
X107951029Y-69521029D01*
X107878217Y-69630000D01*
X107754644Y-69630000D01*
X106700010Y-68575367D01*
X106700010Y-65547000D01*
X107059428Y-65547000D01*
X107590527Y-65327012D01*
X107997012Y-64920527D01*
X108217000Y-64389428D01*
X108217000Y-63814572D01*
X107997012Y-63283473D01*
X107590527Y-62876988D01*
X107481916Y-62832000D01*
X107590527Y-62787012D01*
X107997012Y-62380527D01*
X108217000Y-61849428D01*
X108217000Y-61274572D01*
X107997012Y-60743473D01*
X107590527Y-60336988D01*
X107481916Y-60292000D01*
X107590527Y-60247012D01*
X107997012Y-59840527D01*
X108217000Y-59309428D01*
X108217000Y-58734572D01*
X107997012Y-58203473D01*
X107590527Y-57796988D01*
X107059428Y-57577000D01*
X106484572Y-57577000D01*
X105953473Y-57796988D01*
X105546988Y-58203473D01*
X105327000Y-58734572D01*
X105327000Y-59309428D01*
X105367811Y-59407955D01*
X105031026Y-59744741D01*
X104970910Y-59784909D01*
X104930742Y-59845025D01*
X104811775Y-60023071D01*
X104772260Y-60221726D01*
X104519428Y-60117000D01*
X103944572Y-60117000D01*
X103413473Y-60336988D01*
X103115908Y-60634553D01*
X103065000Y-60624427D01*
X102986709Y-60640000D01*
X98757132Y-60640000D01*
X98612473Y-60290762D01*
X98044238Y-59722527D01*
X97301803Y-59415000D01*
X96498197Y-59415000D01*
X95755762Y-59722527D01*
X95187527Y-60290762D01*
X94974522Y-60805000D01*
X91599187Y-60805000D01*
X91524482Y-60819877D01*
X91461239Y-60862176D01*
X91418997Y-60925458D01*
X91404187Y-61000088D01*
X91405000Y-62800088D01*
X91419843Y-62874623D01*
X91462114Y-62937886D01*
X91525377Y-62980157D01*
X91600000Y-62995000D01*
X95603289Y-62995000D01*
X95755762Y-63147473D01*
X96498197Y-63455000D01*
X97301803Y-63455000D01*
X98044238Y-63147473D01*
X98196711Y-62995000D01*
X101600000Y-62995000D01*
X101674705Y-62980123D01*
X101737948Y-62937824D01*
X101780190Y-62874542D01*
X101795000Y-62799912D01*
X101794743Y-62230000D01*
X102760773Y-62230000D01*
X102881807Y-62310873D01*
X102986786Y-62331755D01*
X103006988Y-62380527D01*
X103413473Y-62787012D01*
X103944572Y-63007000D01*
X104350000Y-63007000D01*
X104350001Y-69179084D01*
X104335895Y-69250000D01*
X104391775Y-69530929D01*
X104433037Y-69592681D01*
X104550910Y-69769091D01*
X104592872Y-69797129D01*
X104620910Y-69839091D01*
X104681027Y-69879260D01*
X104900742Y-70098975D01*
X106880001Y-72078235D01*
X106880000Y-75939089D01*
X106865895Y-76010000D01*
X106902694Y-76195000D01*
X106921775Y-76290929D01*
X107080909Y-76529090D01*
X107141026Y-76569259D01*
X107773344Y-77201578D01*
X107773344Y-77505849D01*
X107705907Y-77550909D01*
X107665736Y-77611029D01*
X107596026Y-77680739D01*
X107535909Y-77720908D01*
X107495741Y-77781024D01*
X107376774Y-77959070D01*
X107320894Y-78239999D01*
X107335000Y-78310915D01*
X107334999Y-80554768D01*
X107157956Y-80731811D01*
X107059428Y-80691000D01*
X106484572Y-80691000D01*
X105953473Y-80910988D01*
X105546988Y-81317473D01*
X105502000Y-81426084D01*
X105457012Y-81317473D01*
X105050527Y-80910988D01*
X104519428Y-80691000D01*
X103944572Y-80691000D01*
X103413473Y-80910988D01*
X103006988Y-81317473D01*
X102810055Y-81792913D01*
X102763622Y-81746480D01*
X102397918Y-81595000D01*
X102002082Y-81595000D01*
X101695000Y-81722198D01*
X101695000Y-81200000D01*
X101680157Y-81125377D01*
X101637886Y-81062114D01*
X101574623Y-81019843D01*
X101500000Y-81005000D01*
X98196711Y-81005000D01*
X98044238Y-80852527D01*
X97301803Y-80545000D01*
X96498197Y-80545000D01*
X95755762Y-80852527D01*
X95603289Y-81005000D01*
X91500000Y-81005000D01*
X91425377Y-81019843D01*
X91362114Y-81062114D01*
X91319843Y-81125377D01*
X91305000Y-81200000D01*
X91305000Y-83000000D01*
X91319843Y-83074623D01*
X91362114Y-83137886D01*
X91425377Y-83180157D01*
X91500000Y-83195000D01*
X94974522Y-83195000D01*
X95187527Y-83709238D01*
X95755762Y-84277473D01*
X96498197Y-84585000D01*
X97301803Y-84585000D01*
X98044238Y-84277473D01*
X98612473Y-83709238D01*
X98825478Y-83195000D01*
X101397858Y-83195000D01*
X101433858Y-83231000D01*
X101404572Y-83231000D01*
X100873473Y-83450988D01*
X100466988Y-83857473D01*
X100247000Y-84388572D01*
X100247000Y-84963428D01*
X100466988Y-85494527D01*
X100873473Y-85901012D01*
X101404572Y-86121000D01*
X101979428Y-86121000D01*
X102510527Y-85901012D01*
X102917012Y-85494527D01*
X102962000Y-85385916D01*
X103006988Y-85494527D01*
X103413473Y-85901012D01*
X103944572Y-86121000D01*
X104519428Y-86121000D01*
X105050527Y-85901012D01*
X105457012Y-85494527D01*
X105502000Y-85385916D01*
X105546988Y-85494527D01*
X105953473Y-85901012D01*
X106484572Y-86121000D01*
X107059428Y-86121000D01*
X107590527Y-85901012D01*
X107997012Y-85494527D01*
X108201385Y-85001127D01*
X108380000Y-85036656D01*
X110380000Y-85036656D01*
X110492452Y-85014288D01*
X110499031Y-85020867D01*
X110864735Y-85172347D01*
X111260571Y-85172347D01*
X111626275Y-85020867D01*
X111906173Y-84740969D01*
X112057653Y-84375265D01*
X112057653Y-83979429D01*
X112020696Y-83890206D01*
X112080930Y-83878225D01*
X112319091Y-83719091D01*
X112359261Y-83658972D01*
X113263987Y-82754247D01*
X113324101Y-82714080D01*
X113373104Y-82640742D01*
X113483235Y-82475920D01*
X113539116Y-82194990D01*
X113525010Y-82124075D01*
X113525012Y-79432154D01*
X113686378Y-79593520D01*
X114052082Y-79745000D01*
X114447918Y-79745000D01*
X114750000Y-79619873D01*
X115052082Y-79745000D01*
X115447918Y-79745000D01*
X115813622Y-79593520D01*
X116093520Y-79313622D01*
X116243521Y-78951489D01*
X116650010Y-78545000D01*
X119819990Y-78545000D01*
X119925000Y-78650010D01*
X119925001Y-82243680D01*
X119832731Y-82381771D01*
X119755507Y-82770000D01*
X119832731Y-83158229D01*
X119997134Y-83404276D01*
X120027132Y-83434274D01*
X120082645Y-83517355D01*
X120411770Y-83737269D01*
X120702002Y-83795000D01*
X120702006Y-83795000D01*
X120799999Y-83814492D01*
X120897993Y-83795000D01*
X123821401Y-83795000D01*
X123880000Y-83806656D01*
X127330000Y-83806656D01*
X127330000Y-90452270D01*
X127269981Y-90871366D01*
X127114704Y-91212881D01*
X126869814Y-91497089D01*
X126555005Y-91701138D01*
X126173381Y-91815268D01*
X125975135Y-91830000D01*
X117434011Y-91830000D01*
X117379847Y-91840774D01*
X117369758Y-91840774D01*
X116987075Y-91916894D01*
X116745553Y-92016935D01*
X116732992Y-92025328D01*
X116558135Y-91952900D01*
X116241865Y-91952900D01*
X116100000Y-92011663D01*
X115958135Y-91952900D01*
X115641865Y-91952900D01*
X115519995Y-92003380D01*
X115398125Y-91952900D01*
X115081855Y-91952900D01*
X114919995Y-92019945D01*
X114758135Y-91952900D01*
X114441865Y-91952900D01*
X114300000Y-92011663D01*
X114158135Y-91952900D01*
X113841865Y-91952900D01*
X113700000Y-92011663D01*
X113558135Y-91952900D01*
X113241865Y-91952900D01*
X113167306Y-91983783D01*
X113167035Y-91932032D01*
X113168889Y-91919480D01*
X113168889Y-91842344D01*
X113135753Y-91267657D01*
X113134212Y-91257221D01*
X113134212Y-91246665D01*
X113122943Y-91170357D01*
X112942676Y-90299884D01*
X112936584Y-90279708D01*
X112932851Y-90258957D01*
X112908247Y-90185850D01*
X112576683Y-89361058D01*
X112567116Y-89342282D01*
X112559766Y-89322517D01*
X112522612Y-89254936D01*
X112522605Y-89254922D01*
X112522601Y-89254917D01*
X112050222Y-88501878D01*
X112037477Y-88485087D01*
X112026746Y-88466942D01*
X111978203Y-88406997D01*
X111379932Y-87749507D01*
X111364415Y-87735239D01*
X111350642Y-87719282D01*
X111292251Y-87668880D01*
X110587004Y-87127725D01*
X110569208Y-87116431D01*
X110552823Y-87103163D01*
X110486429Y-87063897D01*
X109696499Y-86656184D01*
X109676979Y-86648218D01*
X109658509Y-86638064D01*
X109586210Y-86611176D01*
X108736565Y-86349792D01*
X108715949Y-86345410D01*
X108695966Y-86338685D01*
X108620050Y-86325026D01*
X107737546Y-86218231D01*
X107716479Y-86217569D01*
X107695622Y-86214489D01*
X107618486Y-86214489D01*
X106731017Y-86265660D01*
X106710167Y-86268739D01*
X106689094Y-86269401D01*
X106613182Y-86283060D01*
X106613176Y-86283061D01*
X106613174Y-86283062D01*
X105748794Y-86490581D01*
X105728812Y-86497306D01*
X105708195Y-86501688D01*
X105635897Y-86528575D01*
X104821927Y-86885884D01*
X104803455Y-86896039D01*
X104783937Y-86904004D01*
X104717543Y-86943269D01*
X103979709Y-87439072D01*
X103963324Y-87452340D01*
X103945528Y-87463634D01*
X103887136Y-87514036D01*
X103248763Y-88132664D01*
X103234992Y-88148618D01*
X103219472Y-88162889D01*
X103170929Y-88222835D01*
X102652194Y-88944731D01*
X102641463Y-88962876D01*
X102628718Y-88979667D01*
X102591558Y-89047262D01*
X102208858Y-89849608D01*
X102201512Y-89869362D01*
X102191939Y-89888149D01*
X102167336Y-89961256D01*
X101932769Y-90818692D01*
X101929037Y-90839434D01*
X101922942Y-90859620D01*
X101911674Y-90935928D01*
X101838469Y-91756169D01*
X101826423Y-91818431D01*
X101827277Y-91981540D01*
X101758135Y-91952900D01*
X101441865Y-91952900D01*
X101319995Y-92003380D01*
X101198125Y-91952900D01*
X100881855Y-91952900D01*
X100719995Y-92019945D01*
X100558135Y-91952900D01*
X100241865Y-91952900D01*
X100100000Y-92011663D01*
X99958135Y-91952900D01*
X99641865Y-91952900D01*
X99500000Y-92011663D01*
X99358135Y-91952900D01*
X99041865Y-91952900D01*
X98900000Y-92011663D01*
X98758135Y-91952900D01*
X98441865Y-91952900D01*
X98267586Y-92025089D01*
X98255383Y-92016935D01*
X98013861Y-91916894D01*
X97631178Y-91840774D01*
X97620153Y-91840774D01*
X97565989Y-91830000D01*
X89047730Y-91830000D01*
X88628634Y-91769981D01*
X88287119Y-91614704D01*
X88002911Y-91369814D01*
X87798862Y-91055005D01*
X87684732Y-90673381D01*
X87670000Y-90475135D01*
X87670000Y-71782191D01*
X98905000Y-71782191D01*
X98905000Y-72217809D01*
X99071704Y-72620267D01*
X99379733Y-72928296D01*
X99782191Y-73095000D01*
X100217809Y-73095000D01*
X100620267Y-72928296D01*
X100928296Y-72620267D01*
X101095000Y-72217809D01*
X101095000Y-71782191D01*
X100928296Y-71379733D01*
X100620267Y-71071704D01*
X100217809Y-70905000D01*
X99782191Y-70905000D01*
X99379733Y-71071704D01*
X99071704Y-71379733D01*
X98905000Y-71782191D01*
X87670000Y-71782191D01*
X87670000Y-53547730D01*
X87730019Y-53128632D01*
X87885296Y-52787119D01*
X88130186Y-52502911D01*
X88444997Y-52298861D01*
X88826619Y-52184732D01*
X89024865Y-52170000D01*
X97565989Y-52170000D01*
X97761421Y-52131126D01*
X98013393Y-52081006D01*
X98254915Y-51980965D01*
X98267297Y-51972691D01*
X98441865Y-52045000D01*
D22*
G36*
X72900000Y-73400000D02*
X70100000Y-73400000D01*
X70100000Y-71100000D01*
X72900000Y-71100000D01*
X72900000Y-73400000D01*
X72900000Y-73400000D01*
G37*
X72900000Y-73400000D02*
X70100000Y-73400000D01*
X70100000Y-71100000D01*
X72900000Y-71100000D01*
X72900000Y-73400000D01*
G36*
X45600000Y-73305678D02*
X44090000Y-73393982D01*
X44090000Y-70594322D01*
X45600000Y-70506018D01*
X45600000Y-73305678D01*
X45600000Y-73305678D01*
G37*
X45600000Y-73305678D02*
X44090000Y-73393982D01*
X44090000Y-70594322D01*
X45600000Y-70506018D01*
X45600000Y-73305678D01*
D23*
G36*
X54941865Y-52045000D02*
X55258135Y-52045000D01*
X55400000Y-51986237D01*
X55541865Y-52045000D01*
X55858135Y-52045000D01*
X55980005Y-51994520D01*
X56101875Y-52045000D01*
X56418145Y-52045000D01*
X56580005Y-51977955D01*
X56741865Y-52045000D01*
X57058135Y-52045000D01*
X57200000Y-51986237D01*
X57341865Y-52045000D01*
X57658135Y-52045000D01*
X57800000Y-51986237D01*
X57941865Y-52045000D01*
X58258135Y-52045000D01*
X58336477Y-52012549D01*
X58364247Y-52494165D01*
X58365788Y-52504601D01*
X58365788Y-52515157D01*
X58377057Y-52591465D01*
X58557324Y-53461938D01*
X58563416Y-53482116D01*
X58567149Y-53502864D01*
X58591747Y-53575954D01*
X58591753Y-53575973D01*
X58591757Y-53575980D01*
X58923316Y-54400764D01*
X58932886Y-54419546D01*
X58940234Y-54439305D01*
X58977395Y-54506900D01*
X59449778Y-55259944D01*
X59462523Y-55276735D01*
X59473254Y-55294880D01*
X59521798Y-55354826D01*
X60120068Y-56012315D01*
X60135585Y-56026583D01*
X60149358Y-56042540D01*
X60207731Y-56092925D01*
X60207751Y-56092944D01*
X60207760Y-56092950D01*
X60912996Y-56634098D01*
X60930793Y-56645392D01*
X60947177Y-56658660D01*
X61013571Y-56697925D01*
X61803501Y-57105638D01*
X61823021Y-57113604D01*
X61841491Y-57123758D01*
X61913773Y-57150639D01*
X61913790Y-57150646D01*
X61913797Y-57150648D01*
X62763435Y-57412030D01*
X62784049Y-57416412D01*
X62804033Y-57423137D01*
X62879950Y-57436796D01*
X63762454Y-57543591D01*
X63783521Y-57544253D01*
X63804378Y-57547333D01*
X63881514Y-57547333D01*
X64768983Y-57496162D01*
X64789833Y-57493083D01*
X64810907Y-57492421D01*
X64886824Y-57478761D01*
X65305000Y-57378366D01*
X65305000Y-66273753D01*
X65319843Y-66348376D01*
X65367083Y-66416435D01*
X69367083Y-70142682D01*
X69431803Y-70182686D01*
X69493750Y-70193871D01*
X69519035Y-70254915D01*
X69735808Y-70579339D01*
X69828235Y-70671765D01*
X69920661Y-70764192D01*
X70245084Y-70980964D01*
X70245085Y-70980965D01*
X70486607Y-71081006D01*
X70738579Y-71131126D01*
X70934011Y-71170000D01*
X82781437Y-71170000D01*
X82571704Y-71379733D01*
X82405000Y-71782191D01*
X82405000Y-72217809D01*
X82436288Y-72293344D01*
X80380000Y-72293344D01*
X80321401Y-72305000D01*
X78602002Y-72305000D01*
X78311770Y-72362731D01*
X77982645Y-72582645D01*
X77762731Y-72911770D01*
X77686436Y-73295331D01*
X77361767Y-73620000D01*
X76270911Y-73620000D01*
X76200000Y-73605895D01*
X76129089Y-73620000D01*
X75919070Y-73661775D01*
X75680909Y-73820909D01*
X75640741Y-73881025D01*
X74761778Y-74759989D01*
X72070997Y-74759989D01*
X72045910Y-74754999D01*
X71974999Y-74740894D01*
X71904088Y-74754999D01*
X70382142Y-74754999D01*
X70255628Y-74628485D01*
X69889924Y-74477005D01*
X69494088Y-74477005D01*
X69128384Y-74628485D01*
X69082006Y-74674864D01*
X69063622Y-74656480D01*
X68697918Y-74505000D01*
X68302082Y-74505000D01*
X67936378Y-74656480D01*
X67656480Y-74936378D01*
X67505000Y-75302082D01*
X67505000Y-75697918D01*
X67656480Y-76063622D01*
X67780001Y-76187143D01*
X67780000Y-77350000D01*
X67486656Y-77350000D01*
X67486656Y-76790000D01*
X67440477Y-76557843D01*
X67308971Y-76361029D01*
X67270016Y-76335000D01*
X67308971Y-76308971D01*
X67440477Y-76112157D01*
X67486656Y-75880000D01*
X67486656Y-75080000D01*
X67440477Y-74847843D01*
X67308971Y-74651029D01*
X67270016Y-74625000D01*
X67308971Y-74598971D01*
X67440477Y-74402157D01*
X67486656Y-74170000D01*
X67486656Y-73370000D01*
X67440477Y-73137843D01*
X67308971Y-72941029D01*
X67270016Y-72915000D01*
X67308971Y-72888971D01*
X67440477Y-72692157D01*
X67486656Y-72460000D01*
X67486656Y-71660000D01*
X67440477Y-71427843D01*
X67308971Y-71231029D01*
X67270016Y-71205000D01*
X67308971Y-71178971D01*
X67440477Y-70982157D01*
X67486656Y-70750000D01*
X67486656Y-69950000D01*
X67440477Y-69717843D01*
X67308971Y-69521029D01*
X67112157Y-69389523D01*
X66880000Y-69343344D01*
X64880000Y-69343344D01*
X64647843Y-69389523D01*
X64451029Y-69521029D01*
X64378217Y-69630000D01*
X64254644Y-69630000D01*
X63200010Y-68575367D01*
X63200010Y-65547000D01*
X63559428Y-65547000D01*
X64090527Y-65327012D01*
X64497012Y-64920527D01*
X64717000Y-64389428D01*
X64717000Y-63814572D01*
X64497012Y-63283473D01*
X64090527Y-62876988D01*
X63981916Y-62832000D01*
X64090527Y-62787012D01*
X64497012Y-62380527D01*
X64717000Y-61849428D01*
X64717000Y-61274572D01*
X64497012Y-60743473D01*
X64090527Y-60336988D01*
X63981916Y-60292000D01*
X64090527Y-60247012D01*
X64497012Y-59840527D01*
X64717000Y-59309428D01*
X64717000Y-58734572D01*
X64497012Y-58203473D01*
X64090527Y-57796988D01*
X63559428Y-57577000D01*
X62984572Y-57577000D01*
X62453473Y-57796988D01*
X62046988Y-58203473D01*
X61827000Y-58734572D01*
X61827000Y-59309428D01*
X61867811Y-59407955D01*
X61531026Y-59744741D01*
X61470910Y-59784909D01*
X61430742Y-59845025D01*
X61311775Y-60023071D01*
X61272260Y-60221726D01*
X61019428Y-60117000D01*
X60444572Y-60117000D01*
X59913473Y-60336988D01*
X59615908Y-60634553D01*
X59565000Y-60624427D01*
X59486709Y-60640000D01*
X55257132Y-60640000D01*
X55112473Y-60290762D01*
X54544238Y-59722527D01*
X53801803Y-59415000D01*
X52998197Y-59415000D01*
X52255762Y-59722527D01*
X51687527Y-60290762D01*
X51474522Y-60805000D01*
X48099187Y-60805000D01*
X48024482Y-60819877D01*
X47961239Y-60862176D01*
X47918997Y-60925458D01*
X47904187Y-61000088D01*
X47905000Y-62800088D01*
X47919843Y-62874623D01*
X47962114Y-62937886D01*
X48025377Y-62980157D01*
X48100000Y-62995000D01*
X52103289Y-62995000D01*
X52255762Y-63147473D01*
X52998197Y-63455000D01*
X53801803Y-63455000D01*
X54544238Y-63147473D01*
X54696711Y-62995000D01*
X58100000Y-62995000D01*
X58174705Y-62980123D01*
X58237948Y-62937824D01*
X58280190Y-62874542D01*
X58295000Y-62799912D01*
X58294743Y-62230000D01*
X59260773Y-62230000D01*
X59381807Y-62310873D01*
X59486786Y-62331755D01*
X59506988Y-62380527D01*
X59913473Y-62787012D01*
X60444572Y-63007000D01*
X60850000Y-63007000D01*
X60850001Y-69179084D01*
X60835895Y-69250000D01*
X60891775Y-69530929D01*
X60933037Y-69592681D01*
X61050910Y-69769091D01*
X61092872Y-69797129D01*
X61120910Y-69839091D01*
X61181027Y-69879260D01*
X61400742Y-70098975D01*
X63380001Y-72078235D01*
X63380000Y-75939089D01*
X63365895Y-76010000D01*
X63402694Y-76195000D01*
X63421775Y-76290929D01*
X63580909Y-76529090D01*
X63641026Y-76569259D01*
X64273344Y-77201578D01*
X64273344Y-77505849D01*
X64205907Y-77550909D01*
X64165736Y-77611029D01*
X64096026Y-77680739D01*
X64035909Y-77720908D01*
X63995741Y-77781024D01*
X63876774Y-77959070D01*
X63820894Y-78239999D01*
X63835000Y-78310915D01*
X63834999Y-80554768D01*
X63657956Y-80731811D01*
X63559428Y-80691000D01*
X62984572Y-80691000D01*
X62453473Y-80910988D01*
X62046988Y-81317473D01*
X62002000Y-81426084D01*
X61957012Y-81317473D01*
X61550527Y-80910988D01*
X61019428Y-80691000D01*
X60444572Y-80691000D01*
X59913473Y-80910988D01*
X59506988Y-81317473D01*
X59310055Y-81792913D01*
X59263622Y-81746480D01*
X58897918Y-81595000D01*
X58502082Y-81595000D01*
X58195000Y-81722198D01*
X58195000Y-81200000D01*
X58180157Y-81125377D01*
X58137886Y-81062114D01*
X58074623Y-81019843D01*
X58000000Y-81005000D01*
X54696711Y-81005000D01*
X54544238Y-80852527D01*
X53801803Y-80545000D01*
X52998197Y-80545000D01*
X52255762Y-80852527D01*
X52103289Y-81005000D01*
X48000000Y-81005000D01*
X47925377Y-81019843D01*
X47862114Y-81062114D01*
X47819843Y-81125377D01*
X47805000Y-81200000D01*
X47805000Y-83000000D01*
X47819843Y-83074623D01*
X47862114Y-83137886D01*
X47925377Y-83180157D01*
X48000000Y-83195000D01*
X51474522Y-83195000D01*
X51687527Y-83709238D01*
X52255762Y-84277473D01*
X52998197Y-84585000D01*
X53801803Y-84585000D01*
X54544238Y-84277473D01*
X55112473Y-83709238D01*
X55325478Y-83195000D01*
X57897858Y-83195000D01*
X57933858Y-83231000D01*
X57904572Y-83231000D01*
X57373473Y-83450988D01*
X56966988Y-83857473D01*
X56747000Y-84388572D01*
X56747000Y-84963428D01*
X56966988Y-85494527D01*
X57373473Y-85901012D01*
X57904572Y-86121000D01*
X58479428Y-86121000D01*
X59010527Y-85901012D01*
X59417012Y-85494527D01*
X59462000Y-85385916D01*
X59506988Y-85494527D01*
X59913473Y-85901012D01*
X60444572Y-86121000D01*
X61019428Y-86121000D01*
X61550527Y-85901012D01*
X61957012Y-85494527D01*
X62002000Y-85385916D01*
X62046988Y-85494527D01*
X62453473Y-85901012D01*
X62984572Y-86121000D01*
X63559428Y-86121000D01*
X64090527Y-85901012D01*
X64497012Y-85494527D01*
X64701385Y-85001127D01*
X64880000Y-85036656D01*
X66880000Y-85036656D01*
X66992452Y-85014288D01*
X66999031Y-85020867D01*
X67364735Y-85172347D01*
X67760571Y-85172347D01*
X68126275Y-85020867D01*
X68406173Y-84740969D01*
X68557653Y-84375265D01*
X68557653Y-83979429D01*
X68520696Y-83890206D01*
X68580930Y-83878225D01*
X68819091Y-83719091D01*
X68859261Y-83658972D01*
X69763987Y-82754247D01*
X69824101Y-82714080D01*
X69873104Y-82640742D01*
X69983235Y-82475920D01*
X70039116Y-82194990D01*
X70025010Y-82124075D01*
X70025012Y-79432154D01*
X70186378Y-79593520D01*
X70552082Y-79745000D01*
X70947918Y-79745000D01*
X71250000Y-79619873D01*
X71552082Y-79745000D01*
X71947918Y-79745000D01*
X72313622Y-79593520D01*
X72593520Y-79313622D01*
X72743521Y-78951489D01*
X73150010Y-78545000D01*
X76319990Y-78545000D01*
X76425000Y-78650010D01*
X76425001Y-82243680D01*
X76332731Y-82381771D01*
X76255507Y-82770000D01*
X76332731Y-83158229D01*
X76497134Y-83404276D01*
X76527132Y-83434274D01*
X76582645Y-83517355D01*
X76911770Y-83737269D01*
X77202002Y-83795000D01*
X77202006Y-83795000D01*
X77299999Y-83814492D01*
X77397993Y-83795000D01*
X80321401Y-83795000D01*
X80380000Y-83806656D01*
X83830000Y-83806656D01*
X83830000Y-90452270D01*
X83769981Y-90871366D01*
X83614704Y-91212881D01*
X83369814Y-91497089D01*
X83055005Y-91701138D01*
X82673381Y-91815268D01*
X82475135Y-91830000D01*
X73934011Y-91830000D01*
X73879847Y-91840774D01*
X73869758Y-91840774D01*
X73487075Y-91916894D01*
X73245553Y-92016935D01*
X73232992Y-92025328D01*
X73058135Y-91952900D01*
X72741865Y-91952900D01*
X72600000Y-92011663D01*
X72458135Y-91952900D01*
X72141865Y-91952900D01*
X72019995Y-92003380D01*
X71898125Y-91952900D01*
X71581855Y-91952900D01*
X71419995Y-92019945D01*
X71258135Y-91952900D01*
X70941865Y-91952900D01*
X70800000Y-92011663D01*
X70658135Y-91952900D01*
X70341865Y-91952900D01*
X70200000Y-92011663D01*
X70058135Y-91952900D01*
X69741865Y-91952900D01*
X69667306Y-91983783D01*
X69667035Y-91932032D01*
X69668889Y-91919480D01*
X69668889Y-91842344D01*
X69635753Y-91267657D01*
X69634212Y-91257221D01*
X69634212Y-91246665D01*
X69622943Y-91170357D01*
X69442676Y-90299884D01*
X69436584Y-90279708D01*
X69432851Y-90258957D01*
X69408247Y-90185850D01*
X69076683Y-89361058D01*
X69067116Y-89342282D01*
X69059766Y-89322517D01*
X69022612Y-89254936D01*
X69022605Y-89254922D01*
X69022601Y-89254917D01*
X68550222Y-88501878D01*
X68537477Y-88485087D01*
X68526746Y-88466942D01*
X68478203Y-88406997D01*
X67879932Y-87749507D01*
X67864415Y-87735239D01*
X67850642Y-87719282D01*
X67792251Y-87668880D01*
X67087004Y-87127725D01*
X67069208Y-87116431D01*
X67052823Y-87103163D01*
X66986429Y-87063897D01*
X66196499Y-86656184D01*
X66176979Y-86648218D01*
X66158509Y-86638064D01*
X66086210Y-86611176D01*
X65236565Y-86349792D01*
X65215949Y-86345410D01*
X65195966Y-86338685D01*
X65120050Y-86325026D01*
X64237546Y-86218231D01*
X64216479Y-86217569D01*
X64195622Y-86214489D01*
X64118486Y-86214489D01*
X63231017Y-86265660D01*
X63210167Y-86268739D01*
X63189094Y-86269401D01*
X63113182Y-86283060D01*
X63113176Y-86283061D01*
X63113174Y-86283062D01*
X62248794Y-86490581D01*
X62228812Y-86497306D01*
X62208195Y-86501688D01*
X62135897Y-86528575D01*
X61321927Y-86885884D01*
X61303455Y-86896039D01*
X61283937Y-86904004D01*
X61217543Y-86943269D01*
X60479709Y-87439072D01*
X60463324Y-87452340D01*
X60445528Y-87463634D01*
X60387136Y-87514036D01*
X59748763Y-88132664D01*
X59734992Y-88148618D01*
X59719472Y-88162889D01*
X59670929Y-88222835D01*
X59152194Y-88944731D01*
X59141463Y-88962876D01*
X59128718Y-88979667D01*
X59091558Y-89047262D01*
X58708858Y-89849608D01*
X58701512Y-89869362D01*
X58691939Y-89888149D01*
X58667336Y-89961256D01*
X58432769Y-90818692D01*
X58429037Y-90839434D01*
X58422942Y-90859620D01*
X58411674Y-90935928D01*
X58338469Y-91756169D01*
X58326423Y-91818431D01*
X58327277Y-91981540D01*
X58258135Y-91952900D01*
X57941865Y-91952900D01*
X57819995Y-92003380D01*
X57698125Y-91952900D01*
X57381855Y-91952900D01*
X57219995Y-92019945D01*
X57058135Y-91952900D01*
X56741865Y-91952900D01*
X56600000Y-92011663D01*
X56458135Y-91952900D01*
X56141865Y-91952900D01*
X56000000Y-92011663D01*
X55858135Y-91952900D01*
X55541865Y-91952900D01*
X55400000Y-92011663D01*
X55258135Y-91952900D01*
X54941865Y-91952900D01*
X54767586Y-92025089D01*
X54755383Y-92016935D01*
X54513861Y-91916894D01*
X54159824Y-91846472D01*
X54066457Y-91827900D01*
X45533066Y-91827900D01*
X45128634Y-91769981D01*
X44787119Y-91614704D01*
X44502911Y-91369814D01*
X44298862Y-91055005D01*
X44184732Y-90673381D01*
X44170000Y-90475135D01*
X44170000Y-71782191D01*
X55405000Y-71782191D01*
X55405000Y-72217809D01*
X55571704Y-72620267D01*
X55879733Y-72928296D01*
X56282191Y-73095000D01*
X56717809Y-73095000D01*
X57120267Y-72928296D01*
X57428296Y-72620267D01*
X57595000Y-72217809D01*
X57595000Y-71782191D01*
X57428296Y-71379733D01*
X57120267Y-71071704D01*
X56717809Y-70905000D01*
X56282191Y-70905000D01*
X55879733Y-71071704D01*
X55571704Y-71379733D01*
X55405000Y-71782191D01*
X44170000Y-71782191D01*
X44170000Y-53547730D01*
X44230019Y-53128632D01*
X44385296Y-52787119D01*
X44630186Y-52502911D01*
X44944997Y-52298861D01*
X45326619Y-52184732D01*
X45524865Y-52170000D01*
X54065989Y-52170000D01*
X54261421Y-52131126D01*
X54513393Y-52081006D01*
X54754915Y-51980965D01*
X54767297Y-51972691D01*
X54941865Y-52045000D01*
X54941865Y-52045000D01*
G37*
X54941865Y-52045000D02*
X55258135Y-52045000D01*
X55400000Y-51986237D01*
X55541865Y-52045000D01*
X55858135Y-52045000D01*
X55980005Y-51994520D01*
X56101875Y-52045000D01*
X56418145Y-52045000D01*
X56580005Y-51977955D01*
X56741865Y-52045000D01*
X57058135Y-52045000D01*
X57200000Y-51986237D01*
X57341865Y-52045000D01*
X57658135Y-52045000D01*
X57800000Y-51986237D01*
X57941865Y-52045000D01*
X58258135Y-52045000D01*
X58336477Y-52012549D01*
X58364247Y-52494165D01*
X58365788Y-52504601D01*
X58365788Y-52515157D01*
X58377057Y-52591465D01*
X58557324Y-53461938D01*
X58563416Y-53482116D01*
X58567149Y-53502864D01*
X58591747Y-53575954D01*
X58591753Y-53575973D01*
X58591757Y-53575980D01*
X58923316Y-54400764D01*
X58932886Y-54419546D01*
X58940234Y-54439305D01*
X58977395Y-54506900D01*
X59449778Y-55259944D01*
X59462523Y-55276735D01*
X59473254Y-55294880D01*
X59521798Y-55354826D01*
X60120068Y-56012315D01*
X60135585Y-56026583D01*
X60149358Y-56042540D01*
X60207731Y-56092925D01*
X60207751Y-56092944D01*
X60207760Y-56092950D01*
X60912996Y-56634098D01*
X60930793Y-56645392D01*
X60947177Y-56658660D01*
X61013571Y-56697925D01*
X61803501Y-57105638D01*
X61823021Y-57113604D01*
X61841491Y-57123758D01*
X61913773Y-57150639D01*
X61913790Y-57150646D01*
X61913797Y-57150648D01*
X62763435Y-57412030D01*
X62784049Y-57416412D01*
X62804033Y-57423137D01*
X62879950Y-57436796D01*
X63762454Y-57543591D01*
X63783521Y-57544253D01*
X63804378Y-57547333D01*
X63881514Y-57547333D01*
X64768983Y-57496162D01*
X64789833Y-57493083D01*
X64810907Y-57492421D01*
X64886824Y-57478761D01*
X65305000Y-57378366D01*
X65305000Y-66273753D01*
X65319843Y-66348376D01*
X65367083Y-66416435D01*
X69367083Y-70142682D01*
X69431803Y-70182686D01*
X69493750Y-70193871D01*
X69519035Y-70254915D01*
X69735808Y-70579339D01*
X69828235Y-70671765D01*
X69920661Y-70764192D01*
X70245084Y-70980964D01*
X70245085Y-70980965D01*
X70486607Y-71081006D01*
X70738579Y-71131126D01*
X70934011Y-71170000D01*
X82781437Y-71170000D01*
X82571704Y-71379733D01*
X82405000Y-71782191D01*
X82405000Y-72217809D01*
X82436288Y-72293344D01*
X80380000Y-72293344D01*
X80321401Y-72305000D01*
X78602002Y-72305000D01*
X78311770Y-72362731D01*
X77982645Y-72582645D01*
X77762731Y-72911770D01*
X77686436Y-73295331D01*
X77361767Y-73620000D01*
X76270911Y-73620000D01*
X76200000Y-73605895D01*
X76129089Y-73620000D01*
X75919070Y-73661775D01*
X75680909Y-73820909D01*
X75640741Y-73881025D01*
X74761778Y-74759989D01*
X72070997Y-74759989D01*
X72045910Y-74754999D01*
X71974999Y-74740894D01*
X71904088Y-74754999D01*
X70382142Y-74754999D01*
X70255628Y-74628485D01*
X69889924Y-74477005D01*
X69494088Y-74477005D01*
X69128384Y-74628485D01*
X69082006Y-74674864D01*
X69063622Y-74656480D01*
X68697918Y-74505000D01*
X68302082Y-74505000D01*
X67936378Y-74656480D01*
X67656480Y-74936378D01*
X67505000Y-75302082D01*
X67505000Y-75697918D01*
X67656480Y-76063622D01*
X67780001Y-76187143D01*
X67780000Y-77350000D01*
X67486656Y-77350000D01*
X67486656Y-76790000D01*
X67440477Y-76557843D01*
X67308971Y-76361029D01*
X67270016Y-76335000D01*
X67308971Y-76308971D01*
X67440477Y-76112157D01*
X67486656Y-75880000D01*
X67486656Y-75080000D01*
X67440477Y-74847843D01*
X67308971Y-74651029D01*
X67270016Y-74625000D01*
X67308971Y-74598971D01*
X67440477Y-74402157D01*
X67486656Y-74170000D01*
X67486656Y-73370000D01*
X67440477Y-73137843D01*
X67308971Y-72941029D01*
X67270016Y-72915000D01*
X67308971Y-72888971D01*
X67440477Y-72692157D01*
X67486656Y-72460000D01*
X67486656Y-71660000D01*
X67440477Y-71427843D01*
X67308971Y-71231029D01*
X67270016Y-71205000D01*
X67308971Y-71178971D01*
X67440477Y-70982157D01*
X67486656Y-70750000D01*
X67486656Y-69950000D01*
X67440477Y-69717843D01*
X67308971Y-69521029D01*
X67112157Y-69389523D01*
X66880000Y-69343344D01*
X64880000Y-69343344D01*
X64647843Y-69389523D01*
X64451029Y-69521029D01*
X64378217Y-69630000D01*
X64254644Y-69630000D01*
X63200010Y-68575367D01*
X63200010Y-65547000D01*
X63559428Y-65547000D01*
X64090527Y-65327012D01*
X64497012Y-64920527D01*
X64717000Y-64389428D01*
X64717000Y-63814572D01*
X64497012Y-63283473D01*
X64090527Y-62876988D01*
X63981916Y-62832000D01*
X64090527Y-62787012D01*
X64497012Y-62380527D01*
X64717000Y-61849428D01*
X64717000Y-61274572D01*
X64497012Y-60743473D01*
X64090527Y-60336988D01*
X63981916Y-60292000D01*
X64090527Y-60247012D01*
X64497012Y-59840527D01*
X64717000Y-59309428D01*
X64717000Y-58734572D01*
X64497012Y-58203473D01*
X64090527Y-57796988D01*
X63559428Y-57577000D01*
X62984572Y-57577000D01*
X62453473Y-57796988D01*
X62046988Y-58203473D01*
X61827000Y-58734572D01*
X61827000Y-59309428D01*
X61867811Y-59407955D01*
X61531026Y-59744741D01*
X61470910Y-59784909D01*
X61430742Y-59845025D01*
X61311775Y-60023071D01*
X61272260Y-60221726D01*
X61019428Y-60117000D01*
X60444572Y-60117000D01*
X59913473Y-60336988D01*
X59615908Y-60634553D01*
X59565000Y-60624427D01*
X59486709Y-60640000D01*
X55257132Y-60640000D01*
X55112473Y-60290762D01*
X54544238Y-59722527D01*
X53801803Y-59415000D01*
X52998197Y-59415000D01*
X52255762Y-59722527D01*
X51687527Y-60290762D01*
X51474522Y-60805000D01*
X48099187Y-60805000D01*
X48024482Y-60819877D01*
X47961239Y-60862176D01*
X47918997Y-60925458D01*
X47904187Y-61000088D01*
X47905000Y-62800088D01*
X47919843Y-62874623D01*
X47962114Y-62937886D01*
X48025377Y-62980157D01*
X48100000Y-62995000D01*
X52103289Y-62995000D01*
X52255762Y-63147473D01*
X52998197Y-63455000D01*
X53801803Y-63455000D01*
X54544238Y-63147473D01*
X54696711Y-62995000D01*
X58100000Y-62995000D01*
X58174705Y-62980123D01*
X58237948Y-62937824D01*
X58280190Y-62874542D01*
X58295000Y-62799912D01*
X58294743Y-62230000D01*
X59260773Y-62230000D01*
X59381807Y-62310873D01*
X59486786Y-62331755D01*
X59506988Y-62380527D01*
X59913473Y-62787012D01*
X60444572Y-63007000D01*
X60850000Y-63007000D01*
X60850001Y-69179084D01*
X60835895Y-69250000D01*
X60891775Y-69530929D01*
X60933037Y-69592681D01*
X61050910Y-69769091D01*
X61092872Y-69797129D01*
X61120910Y-69839091D01*
X61181027Y-69879260D01*
X61400742Y-70098975D01*
X63380001Y-72078235D01*
X63380000Y-75939089D01*
X63365895Y-76010000D01*
X63402694Y-76195000D01*
X63421775Y-76290929D01*
X63580909Y-76529090D01*
X63641026Y-76569259D01*
X64273344Y-77201578D01*
X64273344Y-77505849D01*
X64205907Y-77550909D01*
X64165736Y-77611029D01*
X64096026Y-77680739D01*
X64035909Y-77720908D01*
X63995741Y-77781024D01*
X63876774Y-77959070D01*
X63820894Y-78239999D01*
X63835000Y-78310915D01*
X63834999Y-80554768D01*
X63657956Y-80731811D01*
X63559428Y-80691000D01*
X62984572Y-80691000D01*
X62453473Y-80910988D01*
X62046988Y-81317473D01*
X62002000Y-81426084D01*
X61957012Y-81317473D01*
X61550527Y-80910988D01*
X61019428Y-80691000D01*
X60444572Y-80691000D01*
X59913473Y-80910988D01*
X59506988Y-81317473D01*
X59310055Y-81792913D01*
X59263622Y-81746480D01*
X58897918Y-81595000D01*
X58502082Y-81595000D01*
X58195000Y-81722198D01*
X58195000Y-81200000D01*
X58180157Y-81125377D01*
X58137886Y-81062114D01*
X58074623Y-81019843D01*
X58000000Y-81005000D01*
X54696711Y-81005000D01*
X54544238Y-80852527D01*
X53801803Y-80545000D01*
X52998197Y-80545000D01*
X52255762Y-80852527D01*
X52103289Y-81005000D01*
X48000000Y-81005000D01*
X47925377Y-81019843D01*
X47862114Y-81062114D01*
X47819843Y-81125377D01*
X47805000Y-81200000D01*
X47805000Y-83000000D01*
X47819843Y-83074623D01*
X47862114Y-83137886D01*
X47925377Y-83180157D01*
X48000000Y-83195000D01*
X51474522Y-83195000D01*
X51687527Y-83709238D01*
X52255762Y-84277473D01*
X52998197Y-84585000D01*
X53801803Y-84585000D01*
X54544238Y-84277473D01*
X55112473Y-83709238D01*
X55325478Y-83195000D01*
X57897858Y-83195000D01*
X57933858Y-83231000D01*
X57904572Y-83231000D01*
X57373473Y-83450988D01*
X56966988Y-83857473D01*
X56747000Y-84388572D01*
X56747000Y-84963428D01*
X56966988Y-85494527D01*
X57373473Y-85901012D01*
X57904572Y-86121000D01*
X58479428Y-86121000D01*
X59010527Y-85901012D01*
X59417012Y-85494527D01*
X59462000Y-85385916D01*
X59506988Y-85494527D01*
X59913473Y-85901012D01*
X60444572Y-86121000D01*
X61019428Y-86121000D01*
X61550527Y-85901012D01*
X61957012Y-85494527D01*
X62002000Y-85385916D01*
X62046988Y-85494527D01*
X62453473Y-85901012D01*
X62984572Y-86121000D01*
X63559428Y-86121000D01*
X64090527Y-85901012D01*
X64497012Y-85494527D01*
X64701385Y-85001127D01*
X64880000Y-85036656D01*
X66880000Y-85036656D01*
X66992452Y-85014288D01*
X66999031Y-85020867D01*
X67364735Y-85172347D01*
X67760571Y-85172347D01*
X68126275Y-85020867D01*
X68406173Y-84740969D01*
X68557653Y-84375265D01*
X68557653Y-83979429D01*
X68520696Y-83890206D01*
X68580930Y-83878225D01*
X68819091Y-83719091D01*
X68859261Y-83658972D01*
X69763987Y-82754247D01*
X69824101Y-82714080D01*
X69873104Y-82640742D01*
X69983235Y-82475920D01*
X70039116Y-82194990D01*
X70025010Y-82124075D01*
X70025012Y-79432154D01*
X70186378Y-79593520D01*
X70552082Y-79745000D01*
X70947918Y-79745000D01*
X71250000Y-79619873D01*
X71552082Y-79745000D01*
X71947918Y-79745000D01*
X72313622Y-79593520D01*
X72593520Y-79313622D01*
X72743521Y-78951489D01*
X73150010Y-78545000D01*
X76319990Y-78545000D01*
X76425000Y-78650010D01*
X76425001Y-82243680D01*
X76332731Y-82381771D01*
X76255507Y-82770000D01*
X76332731Y-83158229D01*
X76497134Y-83404276D01*
X76527132Y-83434274D01*
X76582645Y-83517355D01*
X76911770Y-83737269D01*
X77202002Y-83795000D01*
X77202006Y-83795000D01*
X77299999Y-83814492D01*
X77397993Y-83795000D01*
X80321401Y-83795000D01*
X80380000Y-83806656D01*
X83830000Y-83806656D01*
X83830000Y-90452270D01*
X83769981Y-90871366D01*
X83614704Y-91212881D01*
X83369814Y-91497089D01*
X83055005Y-91701138D01*
X82673381Y-91815268D01*
X82475135Y-91830000D01*
X73934011Y-91830000D01*
X73879847Y-91840774D01*
X73869758Y-91840774D01*
X73487075Y-91916894D01*
X73245553Y-92016935D01*
X73232992Y-92025328D01*
X73058135Y-91952900D01*
X72741865Y-91952900D01*
X72600000Y-92011663D01*
X72458135Y-91952900D01*
X72141865Y-91952900D01*
X72019995Y-92003380D01*
X71898125Y-91952900D01*
X71581855Y-91952900D01*
X71419995Y-92019945D01*
X71258135Y-91952900D01*
X70941865Y-91952900D01*
X70800000Y-92011663D01*
X70658135Y-91952900D01*
X70341865Y-91952900D01*
X70200000Y-92011663D01*
X70058135Y-91952900D01*
X69741865Y-91952900D01*
X69667306Y-91983783D01*
X69667035Y-91932032D01*
X69668889Y-91919480D01*
X69668889Y-91842344D01*
X69635753Y-91267657D01*
X69634212Y-91257221D01*
X69634212Y-91246665D01*
X69622943Y-91170357D01*
X69442676Y-90299884D01*
X69436584Y-90279708D01*
X69432851Y-90258957D01*
X69408247Y-90185850D01*
X69076683Y-89361058D01*
X69067116Y-89342282D01*
X69059766Y-89322517D01*
X69022612Y-89254936D01*
X69022605Y-89254922D01*
X69022601Y-89254917D01*
X68550222Y-88501878D01*
X68537477Y-88485087D01*
X68526746Y-88466942D01*
X68478203Y-88406997D01*
X67879932Y-87749507D01*
X67864415Y-87735239D01*
X67850642Y-87719282D01*
X67792251Y-87668880D01*
X67087004Y-87127725D01*
X67069208Y-87116431D01*
X67052823Y-87103163D01*
X66986429Y-87063897D01*
X66196499Y-86656184D01*
X66176979Y-86648218D01*
X66158509Y-86638064D01*
X66086210Y-86611176D01*
X65236565Y-86349792D01*
X65215949Y-86345410D01*
X65195966Y-86338685D01*
X65120050Y-86325026D01*
X64237546Y-86218231D01*
X64216479Y-86217569D01*
X64195622Y-86214489D01*
X64118486Y-86214489D01*
X63231017Y-86265660D01*
X63210167Y-86268739D01*
X63189094Y-86269401D01*
X63113182Y-86283060D01*
X63113176Y-86283061D01*
X63113174Y-86283062D01*
X62248794Y-86490581D01*
X62228812Y-86497306D01*
X62208195Y-86501688D01*
X62135897Y-86528575D01*
X61321927Y-86885884D01*
X61303455Y-86896039D01*
X61283937Y-86904004D01*
X61217543Y-86943269D01*
X60479709Y-87439072D01*
X60463324Y-87452340D01*
X60445528Y-87463634D01*
X60387136Y-87514036D01*
X59748763Y-88132664D01*
X59734992Y-88148618D01*
X59719472Y-88162889D01*
X59670929Y-88222835D01*
X59152194Y-88944731D01*
X59141463Y-88962876D01*
X59128718Y-88979667D01*
X59091558Y-89047262D01*
X58708858Y-89849608D01*
X58701512Y-89869362D01*
X58691939Y-89888149D01*
X58667336Y-89961256D01*
X58432769Y-90818692D01*
X58429037Y-90839434D01*
X58422942Y-90859620D01*
X58411674Y-90935928D01*
X58338469Y-91756169D01*
X58326423Y-91818431D01*
X58327277Y-91981540D01*
X58258135Y-91952900D01*
X57941865Y-91952900D01*
X57819995Y-92003380D01*
X57698125Y-91952900D01*
X57381855Y-91952900D01*
X57219995Y-92019945D01*
X57058135Y-91952900D01*
X56741865Y-91952900D01*
X56600000Y-92011663D01*
X56458135Y-91952900D01*
X56141865Y-91952900D01*
X56000000Y-92011663D01*
X55858135Y-91952900D01*
X55541865Y-91952900D01*
X55400000Y-92011663D01*
X55258135Y-91952900D01*
X54941865Y-91952900D01*
X54767586Y-92025089D01*
X54755383Y-92016935D01*
X54513861Y-91916894D01*
X54159824Y-91846472D01*
X54066457Y-91827900D01*
X45533066Y-91827900D01*
X45128634Y-91769981D01*
X44787119Y-91614704D01*
X44502911Y-91369814D01*
X44298862Y-91055005D01*
X44184732Y-90673381D01*
X44170000Y-90475135D01*
X44170000Y-71782191D01*
X55405000Y-71782191D01*
X55405000Y-72217809D01*
X55571704Y-72620267D01*
X55879733Y-72928296D01*
X56282191Y-73095000D01*
X56717809Y-73095000D01*
X57120267Y-72928296D01*
X57428296Y-72620267D01*
X57595000Y-72217809D01*
X57595000Y-71782191D01*
X57428296Y-71379733D01*
X57120267Y-71071704D01*
X56717809Y-70905000D01*
X56282191Y-70905000D01*
X55879733Y-71071704D01*
X55571704Y-71379733D01*
X55405000Y-71782191D01*
X44170000Y-71782191D01*
X44170000Y-53547730D01*
X44230019Y-53128632D01*
X44385296Y-52787119D01*
X44630186Y-52502911D01*
X44944997Y-52298861D01*
X45326619Y-52184732D01*
X45524865Y-52170000D01*
X54065989Y-52170000D01*
X54261421Y-52131126D01*
X54513393Y-52081006D01*
X54754915Y-51980965D01*
X54767297Y-51972691D01*
X54941865Y-52045000D01*
G04 #@! TD*
M02*
