999
DXF file: c-2-1437565-7-v-2d.dxf
999
Pro/ENGINEER 2018190 by Parametric Technology Corporation
  0
SECTION
  2
HEADER
  9
$ACADVER
  1
AC1014
  9
$DWGCODEPAGE
  3
ANSI_1252
  9
$EXTMAX
 10
420.0
 20
297.0
 30
0.0
  9
$EXTMIN
 10
0.0
 20
0.0
 30
0.0
  9
$LIMMIN
 10
0.0
 20
0.0
  9
$LIMMAX
 10
420.0
 20
297.0
  9
$VIEWCTR
 10
210.0
 20
148.5
  9
$VIEWSIZE
 40
297.0
  9
$CLAYER
  8
0
  9
$LTSCALE
 40
23.1
  9
$CELTYPE
  6
BYLAYER
  9
$DIMSCALE
 40
1.0
  9
$DIMASZ
 40
4.5
  9
$DIMEXO
 40
1.5
  9
$DIMDLI
 40
15.96
  9
$DIMEXE
 40
3.0
  9
$DIMCEN
 40
3.78
  9
$DIMLFAC
 40
0.1428571429
  9
$DIMBLK
  1
_CLOSED
  9
$DIMALT
 70
0
  9
$DIMALTF
 40
0.0393700787
  9
$DIMTXT
 40
3.0
  9
$DIMTOL
 70
1
  9
$DIMLIM
 70
0
  9
$DIMTFAC
 40
1.0
  9
$DIMTP
 40
0.01
  9
$DIMTM
 40
0.01
  9
$DIMGAP
 40
0.625
  9
$AUNITS
 70
0
  9
$PDMODE
 70
3
  9
$PDSIZE
 40
0.3125
  9
$HANDSEED
  5
366
  9
$TILEMODE
 70
1
  9
$MEASUREMENT
 70
1
  0
ENDSEC
  0
SECTION
  2
CLASSES
  0
ENDSEC
  0
SECTION
  2
TABLES
  0
TABLE
  2
VPORT
  5
8
100
AcDbSymbolTable
 70
2
  0
VPORT
  5
1F4
100
AcDbSymbolTableRecord
100
AcDbViewportTableRecord
  2
*ACTIVE
 70
0
 10
0.0
 20
0.0
 11
1.0
 21
1.0
 12
210.0
 22
148.5
 13
0.0
 23
0.0
 14
1.0
 24
1.0
 15
0.0
 25
0.0
 16
0.0
 26
0.0
 36
1.0
 17
0.0
 27
0.0
 37
0.0
 40
297.0
 41
1.4141414141
 42
50.0
 43
0.0
 44
0.0
 50
0.0
 51
0.0
 71
0
 72
100
 73
1
 74
1
 75
0
 76
0
 77
0
 78
0
  0
ENDTAB
  0
TABLE
  2
LTYPE
  5
5
100
AcDbSymbolTable
 70
6
  0
LTYPE
  5
14
100
AcDbSymbolTableRecord
100
AcDbLinetypeTableRecord
  2
BYBLOCK
 70
0
  3

 72
65
 73
0
 40
0.0
  0
LTYPE
  5
15
100
AcDbSymbolTableRecord
100
AcDbLinetypeTableRecord
  2
BYLAYER
 70
0
  3

 72
65
 73
0
 40
0.0
  0
LTYPE
  5
16
100
AcDbSymbolTableRecord
100
AcDbLinetypeTableRecord
  2
CONTINUOUS
 70
64
  3
Solid line
 72
65
 73
0
 40
0.0
  0
LTYPE
  5
1F5
100
AcDbSymbolTableRecord
100
AcDbLinetypeTableRecord
  2
CENTER
 70
64
  3
____ _ ____ _ ____ _ ____ _ ____ _ ____ _ ____
 72
65
 73
4
 40
0.6
 49
0.375
 74
0
 49
-0.075
 74
0
 49
0.075
 74
0
 49
-0.075
 74
0
  0
LTYPE
  5
1F6
100
AcDbSymbolTableRecord
100
AcDbLinetypeTableRecord
  2
HIDDEN
 70
64
  3
- - - - - - - - - - - - - - - - - - - -
 72
65
 73
2
 40
0.2
 49
0.1
 74
0
 49
-0.1
 74
0
  0
LTYPE
  5
1F7
100
AcDbSymbolTableRecord
100
AcDbLinetypeTableRecord
  2
PHANTOM
 70
64
  3
_____ _ _ _____ _ _ _____ _ _ _____
 72
65
 73
6
 40
0.8
 49
0.45
 74
0
 49
-0.05
 74
0
 49
0.1
 74
0
 49
-0.05
 74
0
 49
0.1
 74
0
 49
-0.05
 74
0
  0
LTYPE
  5
1F8
100
AcDbSymbolTableRecord
100
AcDbLinetypeTableRecord
  2
DOT
 70
64
  3
. . . . . . . . . . . . . . . . . . . .
 72
65
 73
2
 40
0.2
 49
0.1
 74
0
 49
-0.1
 74
0
  0
LTYPE
  5
1F9
100
AcDbSymbolTableRecord
100
AcDbLinetypeTableRecord
  2
DASHED
 70
64
  3
- - - - - - - - - - - - - - - - - - - -
 72
65
 73
2
 40
0.2
 49
0.1
 74
0
 49
-0.1
 74
0
  0
ENDTAB
  0
TABLE
  2
LAYER
  5
2
100
AcDbSymbolTable
 70
36
  0
LAYER
  5
10
100
AcDbSymbolTableRecord
100
AcDbLayerTableRecord
  2
0
 70
0
 62
7
  6
CONTINUOUS
  0
LAYER
  5
1FA
100
AcDbSymbolTableRecord
100
AcDbLayerTableRecord
  2
DEFAULT_1
 70
0
 62
7
  6
CENTER
  0
LAYER
  5
1FB
100
AcDbSymbolTableRecord
100
AcDbLayerTableRecord
  2
DEFAULT_2
 70
0
 62
8
  6
HIDDEN
  0
LAYER
  5
1FC
100
AcDbSymbolTableRecord
100
AcDbLayerTableRecord
  2
DEFAULT_3
 70
0
 62
7
  6
PHANTOM
  0
LAYER
  5
1FD
100
AcDbSymbolTableRecord
100
AcDbLayerTableRecord
  2
DRAFT_ENTITY
 70
0
 62
7
  6
CONTINUOUS
  0
LAYER
  5
1FE
100
AcDbSymbolTableRecord
100
AcDbLayerTableRecord
  2
DRAFT_GEOM
 70
0
 62
7
  6
CONTINUOUS
  0
LAYER
  5
1FF
100
AcDbSymbolTableRecord
100
AcDbLayerTableRecord
  2
DRAFT_GRP
 70
0
 62
7
  6
CONTINUOUS
  0
LAYER
  5
200
100
AcDbSymbolTableRecord
100
AcDbLayerTableRecord
  2
DRAFT_OTHER
 70
0
 62
7
  6
CONTINUOUS
  0
LAYER
  5
201
100
AcDbSymbolTableRecord
100
AcDbLayerTableRecord
  2
DTM_ALL
 70
0
 62
7
  6
CONTINUOUS
  0
LAYER
  5
202
100
AcDbSymbolTableRecord
100
AcDbLayerTableRecord
  2
DTM_AXIS
 70
0
 62
7
  6
CONTINUOUS
  0
LAYER
  5
203
100
AcDbSymbolTableRecord
100
AcDbLayerTableRecord
  2
DTM_MAJOR
 70
0
 62
7
  6
CONTINUOUS
  0
LAYER
  5
204
100
AcDbSymbolTableRecord
100
AcDbLayerTableRecord
  2
NOTE
 70
0
 62
7
  6
CONTINUOUS
  0
ENDTAB
  0
TABLE
  2
STYLE
  5
3
100
AcDbSymbolTable
 70
1
  0
STYLE
  5
11
100
AcDbSymbolTableRecord
100
AcDbTextStyleTableRecord
  2
STANDARD
 70
0
 40
0.0
 41
0.95
 50
0.0
 71
0
 42
0.2
  3
txt
  4

  0
STYLE
  5
205
100
AcDbSymbolTableRecord
100
AcDbTextStyleTableRecord
  2
TEXTSTYLE_1
 70
0
 40
0.0
 41
0.8
 50
0.0
 71
0
 42
0.2
  3
gdt
  4

  0
STYLE
  5
206
100
AcDbSymbolTableRecord
100
AcDbTextStyleTableRecord
  2
TEXTSTYLE_2
 70
0
 40
0.0
 41
0.8
 50
0.0
 71
0
 42
0.2
  3
txt
  4

  0
ENDTAB
  0
TABLE
  2
VIEW
  5
6
100
AcDbSymbolTable
 70
0
  0
ENDTAB
  0
TABLE
  2
UCS
  5
7
100
AcDbSymbolTable
 70
0
  0
ENDTAB
  0
TABLE
  2
APPID
  5
9
100
AcDbSymbolTable
 70
1
  0
APPID
  5
207
100
AcDbSymbolTableRecord
100
AcDbRegAppTableRecord
  2
ACAD
 70
0
  0
ENDTAB
  0
TABLE
  2
BLOCK_RECORD
  5
1
100
AcDbSymbolTable
 70
0
  0
BLOCK_RECORD
  5
1F
100
AcDbSymbolTableRecord
100
AcDbBlockTableRecord
  2
*MODEL_SPACE
  0
BLOCK_RECORD
  5
1B
100
AcDbSymbolTableRecord
100
AcDbBlockTableRecord
  2
*PAPER_SPACE
  0
BLOCK_RECORD
  5
208
100
AcDbSymbolTableRecord
100
AcDbBlockTableRecord
  2
_CLOSED
  0
BLOCK_RECORD
  5
209
100
AcDbSymbolTableRecord
100
AcDbBlockTableRecord
  2
TE_CONNECTIVITY_BL0
  0
ENDTAB
  0
TABLE
  2
DIMSTYLE
  5
A
100
AcDbSymbolTable
 70
1
  0
DIMSTYLE
105
20A
100
AcDbSymbolTableRecord
100
AcDbDimStyleTableRecord
  2
STANDARD
 70
0
  3

  4

  5
_CLOSED
  6
_CLOSED
  7
_CLOSED
 40
1.0
 41
4.5
 42
1.5
 43
0.38
 44
3.0
 45
0.0
 46
0.0
 47
0.01
 48
0.01
140
3.0
141
0.09
142
0.0
143
25.4
144
1.0
145
0.0
146
1.0
147
0.625
 71
1.0
 72
0.0
 73
1
 74
1
 75
0
 76
0
 77
0
 78
8
 79
2
170
0
171
1
172
0
173
0
174
0
175
0
176
0
177
0
178
0
270
2
271
2
272
2
273
2
274
2
275
0
280
0
281
0
282
0
283
1
284
8
285
0
286
0
287
3
288
0
340
11
  0
ENDTAB
  0
ENDSEC
  0
SECTION
  2
BLOCKS
  0
BLOCK
  5
20
100
AcDbEntity
  8
0
100
AcDbBlockBegin
  2
*MODEL_SPACE
 70
0
 10
0.0
 20
0.0
 30
0.0
  3
*MODEL_SPACE
  1

  0
ENDBLK
  5
21
100
AcDbEntity
  8
0
100
AcDbBlockEnd
  0
BLOCK
  5
1C
100
AcDbEntity
  8
0
100
AcDbBlockBegin
  2
*PAPER_SPACE
 70
0
 10
0.0
 20
0.0
 30
0.0
  3
*PAPER_SPACE
  1

  0
ENDBLK
  5
1D
100
AcDbEntity
  8
0
100
AcDbBlockEnd
  0
BLOCK
  5
20B
100
AcDbEntity
  8
0
100
AcDbBlockBegin
 62
2
  6
CONTINUOUS
  2
TE_CONNECTIVITY_BL0
 70
64
 10
315.0
 20
36.0
  3
TE_CONNECTIVITY_BL0
  1

  0
LINE
  5
20C
100
AcDbEntity
  8
0
100
AcDbLine
 62
2
  6
CONTINUOUS
 10
303.4442621268
 20
31.975
 11
311.2931594095
 21
31.975
  0
LINE
  5
20D
100
AcDbEntity
  8
0
100
AcDbLine
 62
2
  6
CONTINUOUS
 10
316.3319775183
 20
31.975
 11
318.4139164045
 21
31.975
  0
LINE
  5
20E
100
AcDbEntity
  8
0
100
AcDbLine
 62
2
  6
CONTINUOUS
 10
321.4865647769
 20
31.975
 11
327.8504615515
 21
31.975
  0
LINE
  5
20F
100
AcDbEntity
  8
0
100
AcDbLine
 62
2
  6
CONTINUOUS
 10
328.3338139487
 20
33.7788957044
 11
324.0176749741
 21
33.7788957044
  0
LINE
  5
210
100
AcDbEntity
  8
0
100
AcDbLine
 62
2
  6
CONTINUOUS
 10
311.2931594095
 20
34.2561326711
 11
303.4442621268
 21
34.2561326711
  0
LINE
  5
211
100
AcDbEntity
  8
0
100
AcDbLine
 62
2
  6
CONTINUOUS
 10
301.1331145522
 20
34.8594322328
 11
308.9820118349
 21
34.8594322328
  0
LINE
  5
212
100
AcDbEntity
  8
0
100
AcDbLine
 62
2
  6
CONTINUOUS
 10
316.0776474878
 20
40.0249971366
 11
315.5942950906
 21
38.2211014322
  0
LINE
  5
213
100
AcDbEntity
  8
0
100
AcDbLine
 62
2
  6
CONTINUOUS
 10
324.4045177413
 20
35.2226125659
 11
328.2576583666
 21
35.2226125659
  0
LINE
  5
214
100
AcDbEntity
  8
0
100
AcDbLine
 62
2
  6
CONTINUOUS
 10
328.6887347141
 20
36.8314113971
 11
324.8355940889
 21
36.8314113971
  0
LINE
  5
215
100
AcDbEntity
  8
0
100
AcDbLine
 62
2
  6
CONTINUOUS
 10
308.9820118349
 20
37.1405649038
 11
301.1331145522
 21
37.1405649038
  0
LINE
  5
216
100
AcDbEntity
  8
0
100
AcDbLine
 62
2
  6
CONTINUOUS
 10
304.9810251894
 20
37.7438644655
 11
312.8299224721
 21
37.7438644655
  0
LINE
  5
217
100
AcDbEntity
  8
0
100
AcDbLine
 62
2
  6
CONTINUOUS
 10
318.0056153529
 20
38.2211014322
 11
316.3319775183
 21
31.975
  0
LINE
  5
218
100
AcDbEntity
  8
0
100
AcDbLine
 62
2
  6
CONTINUOUS
 10
315.5942950906
 20
38.2211014322
 11
318.0056153529
 21
38.2211014322
  0
LINE
  5
219
100
AcDbEntity
  8
0
100
AcDbLine
 62
2
  6
CONTINUOUS
 10
320.0875542391
 20
38.2211014322
 11
322.4988745014
 21
38.2211014322
  0
LINE
  5
21A
100
AcDbEntity
  8
0
100
AcDbLine
 62
2
  6
CONTINUOUS
 10
325.2079604115
 20
38.2211014322
 11
329.5240993861
 21
38.2211014322
  0
LINE
  5
21B
100
AcDbEntity
  8
0
100
AcDbLine
 62
2
  6
CONTINUOUS
 10
330.0074517833
 20
40.0249971366
 11
323.6435550087
 21
40.0249971366
  0
LINE
  5
21C
100
AcDbEntity
  8
0
100
AcDbLine
 62
2
  6
CONTINUOUS
 10
322.9822268986
 20
40.0249971366
 11
316.0776474878
 21
40.0249971366
  0
LINE
  5
21D
100
AcDbEntity
  8
0
100
AcDbLine
 62
2
  6
CONTINUOUS
 10
312.8299224721
 20
40.0249971366
 11
304.9810251894
 21
40.0249971366
  0
LINE
  5
21E
100
AcDbEntity
  8
0
100
AcDbLine
 62
2
  6
CONTINUOUS
 10
318.4139164045
 20
31.975
 11
320.0875542391
 21
38.2211014322
  0
LINE
  5
21F
100
AcDbEntity
  8
0
100
AcDbLine
 62
2
  6
CONTINUOUS
 10
322.4988745014
 20
38.2211014322
 11
322.9822268986
 21
40.0249971366
  0
LINE
  5
220
100
AcDbEntity
  8
0
100
AcDbLine
 62
2
  6
CONTINUOUS
 10
323.6435550087
 20
40.0249971366
 11
321.4865647769
 21
31.975
  0
LINE
  5
221
100
AcDbEntity
  8
0
100
AcDbLine
 62
2
  6
CONTINUOUS
 10
324.0176749741
 20
33.7788957044
 11
324.4045177413
 21
35.2226125659
  0
LINE
  5
222
100
AcDbEntity
  8
0
100
AcDbLine
 62
2
  6
CONTINUOUS
 10
324.8355940889
 20
36.8314113971
 11
325.2079604115
 21
38.2211014322
  0
LINE
  5
223
100
AcDbEntity
  8
0
100
AcDbLine
 62
2
  6
CONTINUOUS
 10
328.2576583666
 20
35.2226125659
 11
328.6887347141
 21
36.8314113971
  0
LINE
  5
224
100
AcDbEntity
  8
0
100
AcDbLine
 62
2
  6
CONTINUOUS
 10
327.8504615515
 20
31.975
 11
328.3338139487
 21
33.7788957044
  0
LINE
  5
225
100
AcDbEntity
  8
0
100
AcDbLine
 62
2
  6
CONTINUOUS
 10
329.5240993861
 20
38.2211014322
 11
330.0074517833
 21
40.0249971366
  0
ARC
  5
226
100
AcDbEntity
  8
0
100
AcDbCircle
 62
2
  6
CONTINUOUS
 10
304.9810251894
 20
38.884430801
 40
1.1405663355
100
AcDbArc
 50
90.0
 51
270.0
  0
ARC
  5
227
100
AcDbEntity
  8
0
100
AcDbCircle
 62
2
  6
CONTINUOUS
 10
312.8299224721
 20
38.884430801
 40
1.1405663355
100
AcDbArc
 50
270.0
 51
90.0
  0
ARC
  5
228
100
AcDbEntity
  8
0
100
AcDbCircle
 62
2
  6
CONTINUOUS
 10
311.2931594095
 20
33.1155663355
 40
1.1405663355
100
AcDbArc
 50
270.0
 51
90.0
  0
ARC
  5
229
100
AcDbEntity
  8
0
100
AcDbCircle
 62
2
  6
CONTINUOUS
 10
303.4442621268
 20
33.1155663355
 40
1.1405663355
100
AcDbArc
 50
90.0
 51
270.0
  0
ARC
  5
22A
100
AcDbEntity
  8
0
100
AcDbCircle
 62
2
  6
CONTINUOUS
 10
308.9820118349
 20
35.9999985683
 40
1.1405663355
100
AcDbArc
 50
270.0
 51
90.0
  0
ARC
  5
22B
100
AcDbEntity
  8
0
100
AcDbCircle
 62
2
  6
CONTINUOUS
 10
301.1331145522
 20
35.9999985683
 40
1.1405663355
100
AcDbArc
 50
90.0
 51
270.0
  0
LWPOLYLINE
  5
22C
100
AcDbEntity
  8
0
100
AcDbPolyline
 62
2
  6
CONTINUOUS
 90
50
 70
0
 10
304.8321514087
 20
40.0152434035
 10
304.9810251894
 20
40.025
 10
312.8299224721
 20
40.025
 10
312.9787962529
 20
40.0152434035
 10
313.125122762
 20
39.9861346138
 10
313.2663983123
 20
39.9381727309
 10
313.4002056399
 20
39.8721869044
 10
313.5242552644
 20
39.7893041338
 10
313.6364246624
 20
39.6909331688
 10
313.7347945842
 20
39.5787645087
 10
313.8176818934
 20
39.4547140529
 10
313.883668365
 20
39.3209070004
 10
313.9316249522
 20
39.1796295507
 10
313.9607311046
 20
39.0333047528
 10
313.9704888077
 20
38.8844281057
 10
313.9607311046
 20
38.7355595087
 10
313.9316249522
 20
38.5892266607
 10
313.883668365
 20
38.447957261
 10
313.8176818934
 20
38.3141502086
 10
313.7347945842
 20
38.1900997527
 10
313.6364246624
 20
38.0779310926
 10
313.5242552644
 20
37.9795601276
 10
313.4002056399
 20
37.8966693071
 10
313.2663983123
 20
37.8306834805
 10
313.125122762
 20
37.7827296476
 10
312.9787962529
 20
37.7536208579
 10
304.9810251894
 20
37.7438642614
 10
304.8321514087
 20
37.7536208579
 10
304.6858248996
 20
37.7827296476
 10
304.5445493493
 20
37.8306834805
 10
304.4107420217
 20
37.8966693071
 10
304.2866923972
 20
37.9795601276
 10
304.1745229992
 20
38.0779310926
 10
304.0761530773
 20
38.1900997527
 10
303.9932657682
 20
38.3141502086
 10
303.9272792966
 20
38.447957261
 10
303.8793227094
 20
38.5892266607
 10
303.850216557
 20
38.7355595087
 10
303.8404588539
 20
38.8844281057
 10
303.850216557
 20
39.0333047528
 10
303.8793227094
 20
39.1796295507
 10
303.9272792966
 20
39.3209070004
 10
303.9932657682
 20
39.4547140529
 10
304.0761530773
 20
39.5787645087
 10
304.1745229992
 20
39.6909331688
 10
304.2866923972
 20
39.7893041338
 10
304.4107420217
 20
39.8721869044
 10
304.5445493493
 20
39.9381727309
 10
304.6858248996
 20
39.9861346138
 10
304.8321514087
 20
40.0152434035
  0
HATCH
  5
22D
100
AcDbEntity
  8
0
100
AcDbHatch
 62
2
  6
CONTINUOUS
 10
0.0
 20
0.0
 30
0.0
210
0.0
220
0.0
230
1.0
  2
SOLID
 70
1
 71
1
 91
1
 92
1
 93
49
 72
1
 10
304.8321514087
 20
40.0152434035
 11
304.9810251894
 21
40.025
 72
1
 10
304.9810251894
 20
40.025
 11
312.8299224721
 21
40.025
 72
1
 10
312.8299224721
 20
40.025
 11
312.9787962529
 21
40.0152434035
 72
1
 10
312.9787962529
 20
40.0152434035
 11
313.125122762
 21
39.9861346138
 72
1
 10
313.125122762
 20
39.9861346138
 11
313.2663983123
 21
39.9381727309
 72
1
 10
313.2663983123
 20
39.9381727309
 11
313.4002056399
 21
39.8721869044
 72
1
 10
313.4002056399
 20
39.8721869044
 11
313.5242552644
 21
39.7893041338
 72
1
 10
313.5242552644
 20
39.7893041338
 11
313.6364246624
 21
39.6909331688
 72
1
 10
313.6364246624
 20
39.6909331688
 11
313.7347945842
 21
39.5787645087
 72
1
 10
313.7347945842
 20
39.5787645087
 11
313.8176818934
 21
39.4547140529
 72
1
 10
313.8176818934
 20
39.4547140529
 11
313.883668365
 21
39.3209070004
 72
1
 10
313.883668365
 20
39.3209070004
 11
313.9316249522
 21
39.1796295507
 72
1
 10
313.9316249522
 20
39.1796295507
 11
313.9607311046
 21
39.0333047528
 72
1
 10
313.9607311046
 20
39.0333047528
 11
313.9704888077
 21
38.8844281057
 72
1
 10
313.9704888077
 20
38.8844281057
 11
313.9607311046
 21
38.7355595087
 72
1
 10
313.9607311046
 20
38.7355595087
 11
313.9316249522
 21
38.5892266607
 72
1
 10
313.9316249522
 20
38.5892266607
 11
313.883668365
 21
38.447957261
 72
1
 10
313.883668365
 20
38.447957261
 11
313.8176818934
 21
38.3141502086
 72
1
 10
313.8176818934
 20
38.3141502086
 11
313.7347945842
 21
38.1900997527
 72
1
 10
313.7347945842
 20
38.1900997527
 11
313.6364246624
 21
38.0779310926
 72
1
 10
313.6364246624
 20
38.0779310926
 11
313.5242552644
 21
37.9795601276
 72
1
 10
313.5242552644
 20
37.9795601276
 11
313.4002056399
 21
37.8966693071
 72
1
 10
313.4002056399
 20
37.8966693071
 11
313.2663983123
 21
37.8306834805
 72
1
 10
313.2663983123
 20
37.8306834805
 11
313.125122762
 21
37.7827296476
 72
1
 10
313.125122762
 20
37.7827296476
 11
312.9787962529
 21
37.7536208579
 72
1
 10
312.9787962529
 20
37.7536208579
 11
304.9810251894
 21
37.7438642614
 72
1
 10
304.9810251894
 20
37.7438642614
 11
304.8321514087
 21
37.7536208579
 72
1
 10
304.8321514087
 20
37.7536208579
 11
304.6858248996
 21
37.7827296476
 72
1
 10
304.6858248996
 20
37.7827296476
 11
304.5445493493
 21
37.8306834805
 72
1
 10
304.5445493493
 20
37.8306834805
 11
304.4107420217
 21
37.8966693071
 72
1
 10
304.4107420217
 20
37.8966693071
 11
304.2866923972
 21
37.9795601276
 72
1
 10
304.2866923972
 20
37.9795601276
 11
304.1745229992
 21
38.0779310926
 72
1
 10
304.1745229992
 20
38.0779310926
 11
304.0761530773
 21
38.1900997527
 72
1
 10
304.0761530773
 20
38.1900997527
 11
303.9932657682
 21
38.3141502086
 72
1
 10
303.9932657682
 20
38.3141502086
 11
303.9272792966
 21
38.447957261
 72
1
 10
303.9272792966
 20
38.447957261
 11
303.8793227094
 21
38.5892266607
 72
1
 10
303.8793227094
 20
38.5892266607
 11
303.850216557
 21
38.7355595087
 72
1
 10
303.850216557
 20
38.7355595087
 11
303.8404588539
 21
38.8844281057
 72
1
 10
303.8404588539
 20
38.8844281057
 11
303.850216557
 21
39.0333047528
 72
1
 10
303.850216557
 20
39.0333047528
 11
303.8793227094
 21
39.1796295507
 72
1
 10
303.8793227094
 20
39.1796295507
 11
303.9272792966
 21
39.3209070004
 72
1
 10
303.9272792966
 20
39.3209070004
 11
303.9932657682
 21
39.4547140529
 72
1
 10
303.9932657682
 20
39.4547140529
 11
304.0761530773
 21
39.5787645087
 72
1
 10
304.0761530773
 20
39.5787645087
 11
304.1745229992
 21
39.6909331688
 72
1
 10
304.1745229992
 20
39.6909331688
 11
304.2866923972
 21
39.7893041338
 72
1
 10
304.2866923972
 20
39.7893041338
 11
304.4107420217
 21
39.8721869044
 72
1
 10
304.4107420217
 20
39.8721869044
 11
304.5445493493
 21
39.9381727309
 72
1
 10
304.5445493493
 20
39.9381727309
 11
304.6858248996
 21
39.9861346138
 72
1
 10
304.6858248996
 20
39.9861346138
 11
304.8321514087
 21
40.0152434035
 97
1
330
22C
 75
0
 76
1
 98
1
 10
0.0
 20
0.0
  0
LWPOLYLINE
  5
22E
100
AcDbEntity
  8
0
100
AcDbPolyline
 62
2
  6
CONTINUOUS
 90
9
 70
0
 10
315.5942950906
 20
38.2211002917
 10
316.0776474878
 20
40.025
 10
322.9822268986
 20
40.025
 10
322.4988745014
 20
38.2211002917
 10
320.0875542391
 20
38.2211002917
 10
318.4139164045
 20
31.9750028634
 10
316.3319775183
 20
31.9750028634
 10
318.0056153529
 20
38.2211002917
 10
315.5942950906
 20
38.2211002917
  0
HATCH
  5
22F
100
AcDbEntity
  8
0
100
AcDbHatch
 62
2
  6
CONTINUOUS
 10
0.0
 20
0.0
 30
0.0
210
0.0
220
0.0
230
1.0
  2
SOLID
 70
1
 71
1
 91
1
 92
1
 93
8
 72
1
 10
315.5942950906
 20
38.2211002917
 11
316.0776474878
 21
40.025
 72
1
 10
316.0776474878
 20
40.025
 11
322.9822268986
 21
40.025
 72
1
 10
322.9822268986
 20
40.025
 11
322.4988745014
 21
38.2211002917
 72
1
 10
322.4988745014
 20
38.2211002917
 11
320.0875542391
 21
38.2211002917
 72
1
 10
320.0875542391
 20
38.2211002917
 11
318.4139164045
 21
31.9750028634
 72
1
 10
318.4139164045
 20
31.9750028634
 11
316.3319775183
 21
31.9750028634
 72
1
 10
316.3319775183
 20
31.9750028634
 11
318.0056153529
 21
38.2211002917
 72
1
 10
318.0056153529
 20
38.2211002917
 11
315.5942950906
 21
38.2211002917
 97
1
330
22E
 75
0
 76
1
 98
1
 10
0.0
 20
0.0
  0
LWPOLYLINE
  5
230
100
AcDbEntity
  8
0
100
AcDbPolyline
 62
2
  6
CONTINUOUS
 90
6
 70
0
 10
330.0074517833
 20
40.025
 10
329.5240993861
 20
38.2211002917
 10
325.2079604115
 20
38.2211002917
 10
321.4865647769
 20
31.9750028634
 10
323.6435550087
 20
40.025
 10
330.0074517833
 20
40.025
  0
HATCH
  5
231
100
AcDbEntity
  8
0
100
AcDbHatch
 62
2
  6
CONTINUOUS
 10
0.0
 20
0.0
 30
0.0
210
0.0
220
0.0
230
1.0
  2
SOLID
 70
1
 71
1
 91
1
 92
1
 93
5
 72
1
 10
330.0074517833
 20
40.025
 11
329.5240993861
 21
38.2211002917
 72
1
 10
329.5240993861
 20
38.2211002917
 11
325.2079604115
 21
38.2211002917
 72
1
 10
325.2079604115
 20
38.2211002917
 11
321.4865647769
 21
31.9750028634
 72
1
 10
321.4865647769
 20
31.9750028634
 11
323.6435550087
 21
40.025
 72
1
 10
323.6435550087
 20
40.025
 11
330.0074517833
 21
40.025
 97
1
330
230
 75
0
 76
1
 98
1
 10
0.0
 20
0.0
  0
SOLID
  5
232
100
AcDbEntity
  8
0
100
AcDbTrace
 62
2
  6
CONTINUOUS
 10
312.9787962529
 20
37.7536208579
 11
312.8299224721
 21
37.7438642614
 12
304.9810251894
 22
37.7438642614
 13
304.9810251894
 23
37.7438642614
  0
LWPOLYLINE
  5
233
100
AcDbEntity
  8
0
100
AcDbPolyline
 62
2
  6
CONTINUOUS
 90
50
 70
0
 10
300.9842407715
 20
37.1308086795
 10
301.1331145522
 20
37.140565276
 10
308.9820118349
 20
37.140565276
 10
309.1308856156
 20
37.1308086795
 10
309.2772121247
 20
37.1016998898
 10
309.418487675
 20
37.0537460569
 10
309.5522950027
 20
36.9877602304
 10
309.6763446272
 20
36.9048694098
 10
309.7885140251
 20
36.8064984448
 10
309.886883947
 20
36.6943297847
 10
309.9697712562
 20
36.5702793289
 10
310.0357577278
 20
36.4364722765
 10
310.083714315
 20
36.2952028767
 10
310.1128204673
 20
36.1488700288
 10
310.1225781704
 20
36.0000014317
 10
310.1128204673
 20
35.8511247847
 10
310.083714315
 20
35.7047999867
 10
310.0357577278
 20
35.563522537
 10
309.9697712562
 20
35.4297154846
 10
309.886883947
 20
35.3056650287
 10
309.7885140251
 20
35.1934963686
 10
309.6763446272
 20
35.0951254036
 10
309.5522950027
 20
35.0122426331
 10
309.418487675
 20
34.9462487565
 10
309.2772121247
 20
34.8982949236
 10
309.1308856156
 20
34.8691861339
 10
301.1331145522
 20
34.8594295374
 10
300.9842407715
 20
34.8691861339
 10
300.8379142624
 20
34.8982949236
 10
300.6966387121
 20
34.9462487565
 10
300.5628313844
 20
35.0122426331
 10
300.4387817599
 20
35.0951254036
 10
300.326612362
 20
35.1934963686
 10
300.2282424401
 20
35.3056650287
 10
300.1453551309
 20
35.4297154846
 10
300.0793686593
 20
35.563522537
 10
300.0314120721
 20
35.7047999867
 10
300.0023059198
 20
35.8511247847
 10
299.9925482167
 20
36.0000014317
 10
300.0023059198
 20
36.1488700288
 10
300.0314120721
 20
36.2952028767
 10
300.0793686593
 20
36.4364722765
 10
300.1453551309
 20
36.5702793289
 10
300.2282424401
 20
36.6943297847
 10
300.326612362
 20
36.8064984448
 10
300.4387817599
 20
36.9048694098
 10
300.5628313844
 20
36.9877602304
 10
300.6966387121
 20
37.0537460569
 10
300.8379142624
 20
37.1016998898
 10
300.9842407715
 20
37.1308086795
  0
HATCH
  5
234
100
AcDbEntity
  8
0
100
AcDbHatch
 62
2
  6
CONTINUOUS
 10
0.0
 20
0.0
 30
0.0
210
0.0
220
0.0
230
1.0
  2
SOLID
 70
1
 71
1
 91
1
 92
1
 93
49
 72
1
 10
300.9842407715
 20
37.1308086795
 11
301.1331145522
 21
37.140565276
 72
1
 10
301.1331145522
 20
37.140565276
 11
308.9820118349
 21
37.140565276
 72
1
 10
308.9820118349
 20
37.140565276
 11
309.1308856156
 21
37.1308086795
 72
1
 10
309.1308856156
 20
37.1308086795
 11
309.2772121247
 21
37.1016998898
 72
1
 10
309.2772121247
 20
37.1016998898
 11
309.418487675
 21
37.0537460569
 72
1
 10
309.418487675
 20
37.0537460569
 11
309.5522950027
 21
36.9877602304
 72
1
 10
309.5522950027
 20
36.9877602304
 11
309.6763446272
 21
36.9048694098
 72
1
 10
309.6763446272
 20
36.9048694098
 11
309.7885140251
 21
36.8064984448
 72
1
 10
309.7885140251
 20
36.8064984448
 11
309.886883947
 21
36.6943297847
 72
1
 10
309.886883947
 20
36.6943297847
 11
309.9697712562
 21
36.5702793289
 72
1
 10
309.9697712562
 20
36.5702793289
 11
310.0357577278
 21
36.4364722765
 72
1
 10
310.0357577278
 20
36.4364722765
 11
310.083714315
 21
36.2952028767
 72
1
 10
310.083714315
 20
36.2952028767
 11
310.1128204673
 21
36.1488700288
 72
1
 10
310.1128204673
 20
36.1488700288
 11
310.1225781704
 21
36.0000014317
 72
1
 10
310.1225781704
 20
36.0000014317
 11
310.1128204673
 21
35.8511247847
 72
1
 10
310.1128204673
 20
35.8511247847
 11
310.083714315
 21
35.7047999867
 72
1
 10
310.083714315
 20
35.7047999867
 11
310.0357577278
 21
35.563522537
 72
1
 10
310.0357577278
 20
35.563522537
 11
309.9697712562
 21
35.4297154846
 72
1
 10
309.9697712562
 20
35.4297154846
 11
309.886883947
 21
35.3056650287
 72
1
 10
309.886883947
 20
35.3056650287
 11
309.7885140251
 21
35.1934963686
 72
1
 10
309.7885140251
 20
35.1934963686
 11
309.6763446272
 21
35.0951254036
 72
1
 10
309.6763446272
 20
35.0951254036
 11
309.5522950027
 21
35.0122426331
 72
1
 10
309.5522950027
 20
35.0122426331
 11
309.418487675
 21
34.9462487565
 72
1
 10
309.418487675
 20
34.9462487565
 11
309.2772121247
 21
34.8982949236
 72
1
 10
309.2772121247
 20
34.8982949236
 11
309.1308856156
 21
34.8691861339
 72
1
 10
309.1308856156
 20
34.8691861339
 11
301.1331145522
 21
34.8594295374
 72
1
 10
301.1331145522
 20
34.8594295374
 11
300.9842407715
 21
34.8691861339
 72
1
 10
300.9842407715
 20
34.8691861339
 11
300.8379142624
 21
34.8982949236
 72
1
 10
300.8379142624
 20
34.8982949236
 11
300.6966387121
 21
34.9462487565
 72
1
 10
300.6966387121
 20
34.9462487565
 11
300.5628313844
 21
35.0122426331
 72
1
 10
300.5628313844
 20
35.0122426331
 11
300.4387817599
 21
35.0951254036
 72
1
 10
300.4387817599
 20
35.0951254036
 11
300.326612362
 21
35.1934963686
 72
1
 10
300.326612362
 20
35.1934963686
 11
300.2282424401
 21
35.3056650287
 72
1
 10
300.2282424401
 20
35.3056650287
 11
300.1453551309
 21
35.4297154846
 72
1
 10
300.1453551309
 20
35.4297154846
 11
300.0793686593
 21
35.563522537
 72
1
 10
300.0793686593
 20
35.563522537
 11
300.0314120721
 21
35.7047999867
 72
1
 10
300.0314120721
 20
35.7047999867
 11
300.0023059198
 21
35.8511247847
 72
1
 10
300.0023059198
 20
35.8511247847
 11
299.9925482167
 21
36.0000014317
 72
1
 10
299.9925482167
 20
36.0000014317
 11
300.0023059198
 21
36.1488700288
 72
1
 10
300.0023059198
 20
36.1488700288
 11
300.0314120721
 21
36.2952028767
 72
1
 10
300.0314120721
 20
36.2952028767
 11
300.0793686593
 21
36.4364722765
 72
1
 10
300.0793686593
 20
36.4364722765
 11
300.1453551309
 21
36.5702793289
 72
1
 10
300.1453551309
 20
36.5702793289
 11
300.2282424401
 21
36.6943297847
 72
1
 10
300.2282424401
 20
36.6943297847
 11
300.326612362
 21
36.8064984448
 72
1
 10
300.326612362
 20
36.8064984448
 11
300.4387817599
 21
36.9048694098
 72
1
 10
300.4387817599
 20
36.9048694098
 11
300.5628313844
 21
36.9877602304
 72
1
 10
300.5628313844
 20
36.9877602304
 11
300.6966387121
 21
37.0537460569
 72
1
 10
300.6966387121
 20
37.0537460569
 11
300.8379142624
 21
37.1016998898
 72
1
 10
300.8379142624
 20
37.1016998898
 11
300.9842407715
 21
37.1308086795
 97
1
330
233
 75
0
 76
1
 98
1
 10
0.0
 20
0.0
  0
LWPOLYLINE
  5
235
100
AcDbEntity
  8
0
100
AcDbPolyline
 62
2
  6
CONTINUOUS
 90
7
 70
0
 10
328.6887347141
 20
36.831413186
 10
328.2576583666
 20
35.2226132082
 10
324.4045177413
 20
35.2226132082
 10
321.4865647769
 20
31.9750028634
 10
325.2079604115
 20
38.2211002917
 10
324.8355940889
 20
36.831413186
 10
328.6887347141
 20
36.831413186
  0
HATCH
  5
236
100
AcDbEntity
  8
0
100
AcDbHatch
 62
2
  6
CONTINUOUS
 10
0.0
 20
0.0
 30
0.0
210
0.0
220
0.0
230
1.0
  2
SOLID
 70
1
 71
1
 91
1
 92
1
 93
6
 72
1
 10
328.6887347141
 20
36.831413186
 11
328.2576583666
 21
35.2226132082
 72
1
 10
328.2576583666
 20
35.2226132082
 11
324.4045177413
 21
35.2226132082
 72
1
 10
324.4045177413
 20
35.2226132082
 11
321.4865647769
 21
31.9750028634
 72
1
 10
321.4865647769
 20
31.9750028634
 11
325.2079604115
 21
38.2211002917
 72
1
 10
325.2079604115
 20
38.2211002917
 11
324.8355940889
 21
36.831413186
 72
1
 10
324.8355940889
 20
36.831413186
 11
328.6887347141
 21
36.831413186
 97
1
330
235
 75
0
 76
1
 98
1
 10
0.0
 20
0.0
  0
SOLID
  5
237
100
AcDbEntity
  8
0
100
AcDbTrace
 62
2
  6
CONTINUOUS
 10
309.1308856156
 20
34.8691861339
 11
308.9820118349
 21
34.8594295374
 12
301.1331145522
 22
34.8594295374
 13
301.1331145522
 23
34.8594295374
  0
LWPOLYLINE
  5
238
100
AcDbEntity
  8
0
100
AcDbPolyline
 62
2
  6
CONTINUOUS
 90
50
 70
0
 10
303.2953883461
 20
34.2463739555
 10
303.4442621268
 20
34.256130552
 10
311.2931594095
 20
34.256130552
 10
311.4420331903
 20
34.2463739555
 10
311.5883596994
 20
34.2172651658
 10
311.7296352496
 20
34.1693113329
 10
311.8634425773
 20
34.1033255064
 10
311.9874922018
 20
34.0204346859
 10
312.0996615998
 20
33.9220717708
 10
312.1980315216
 20
33.8099031107
 10
312.2809188308
 20
33.6858526549
 10
312.3469053024
 20
33.5520456025
 10
312.3948618896
 20
33.4107681527
 10
312.4239680419
 20
33.2644433548
 10
312.4337257451
 20
33.1155667077
 10
312.4239680419
 20
32.9666900607
 10
312.3948618896
 20
32.8203652627
 10
312.3469053024
 20
32.679087813
 10
312.2809188308
 20
32.5452807606
 10
312.1980315216
 20
32.4212303047
 10
312.0996615998
 20
32.3090616446
 10
311.9874922018
 20
32.2106906796
 10
311.8634425773
 20
32.1278079091
 10
311.7296352496
 20
32.0618220825
 10
311.5883596994
 20
32.0138601996
 10
311.4420331903
 20
31.98475946
 10
303.4442621268
 20
31.9750028634
 10
303.2953883461
 20
31.98475946
 10
303.149061837
 20
32.0138601996
 10
303.0077862867
 20
32.0618220825
 10
302.8739789591
 20
32.1278079091
 10
302.7499293345
 20
32.2106906796
 10
302.6377599366
 20
32.3090616446
 10
302.5393900147
 20
32.4212303047
 10
302.4565027056
 20
32.5452807606
 10
302.390516234
 20
32.679087813
 10
302.3425596467
 20
32.8203652627
 10
302.3134534944
 20
32.9666900607
 10
302.3036957913
 20
33.1155667077
 10
302.3134534944
 20
33.2644433548
 10
302.3425596467
 20
33.4107681527
 10
302.390516234
 20
33.5520456025
 10
302.4565027056
 20
33.6858526549
 10
302.5393900147
 20
33.8099031107
 10
302.6377599366
 20
33.9220717708
 10
302.7499293345
 20
34.0204346859
 10
302.8739789591
 20
34.1033255064
 10
303.0077862867
 20
34.1693113329
 10
303.149061837
 20
34.2172651658
 10
303.2953883461
 20
34.2463739555
  0
HATCH
  5
239
100
AcDbEntity
  8
0
100
AcDbHatch
 62
2
  6
CONTINUOUS
 10
0.0
 20
0.0
 30
0.0
210
0.0
220
0.0
230
1.0
  2
SOLID
 70
1
 71
1
 91
1
 92
1
 93
49
 72
1
 10
303.2953883461
 20
34.2463739555
 11
303.4442621268
 21
34.256130552
 72
1
 10
303.4442621268
 20
34.256130552
 11
311.2931594095
 21
34.256130552
 72
1
 10
311.2931594095
 20
34.256130552
 11
311.4420331903
 21
34.2463739555
 72
1
 10
311.4420331903
 20
34.2463739555
 11
311.5883596994
 21
34.2172651658
 72
1
 10
311.5883596994
 20
34.2172651658
 11
311.7296352496
 21
34.1693113329
 72
1
 10
311.7296352496
 20
34.1693113329
 11
311.8634425773
 21
34.1033255064
 72
1
 10
311.8634425773
 20
34.1033255064
 11
311.9874922018
 21
34.0204346859
 72
1
 10
311.9874922018
 20
34.0204346859
 11
312.0996615998
 21
33.9220717708
 72
1
 10
312.0996615998
 20
33.9220717708
 11
312.1980315216
 21
33.8099031107
 72
1
 10
312.1980315216
 20
33.8099031107
 11
312.2809188308
 21
33.6858526549
 72
1
 10
312.2809188308
 20
33.6858526549
 11
312.3469053024
 21
33.5520456025
 72
1
 10
312.3469053024
 20
33.5520456025
 11
312.3948618896
 21
33.4107681527
 72
1
 10
312.3948618896
 20
33.4107681527
 11
312.4239680419
 21
33.2644433548
 72
1
 10
312.4239680419
 20
33.2644433548
 11
312.4337257451
 21
33.1155667077
 72
1
 10
312.4337257451
 20
33.1155667077
 11
312.4239680419
 21
32.9666900607
 72
1
 10
312.4239680419
 20
32.9666900607
 11
312.3948618896
 21
32.8203652627
 72
1
 10
312.3948618896
 20
32.8203652627
 11
312.3469053024
 21
32.679087813
 72
1
 10
312.3469053024
 20
32.679087813
 11
312.2809188308
 21
32.5452807606
 72
1
 10
312.2809188308
 20
32.5452807606
 11
312.1980315216
 21
32.4212303047
 72
1
 10
312.1980315216
 20
32.4212303047
 11
312.0996615998
 21
32.3090616446
 72
1
 10
312.0996615998
 20
32.3090616446
 11
311.9874922018
 21
32.2106906796
 72
1
 10
311.9874922018
 20
32.2106906796
 11
311.8634425773
 21
32.1278079091
 72
1
 10
311.8634425773
 20
32.1278079091
 11
311.7296352496
 21
32.0618220825
 72
1
 10
311.7296352496
 20
32.0618220825
 11
311.5883596994
 21
32.0138601996
 72
1
 10
311.5883596994
 20
32.0138601996
 11
311.4420331903
 21
31.98475946
 72
1
 10
311.4420331903
 20
31.98475946
 11
303.4442621268
 21
31.9750028634
 72
1
 10
303.4442621268
 20
31.9750028634
 11
303.2953883461
 21
31.98475946
 72
1
 10
303.2953883461
 20
31.98475946
 11
303.149061837
 21
32.0138601996
 72
1
 10
303.149061837
 20
32.0138601996
 11
303.0077862867
 21
32.0618220825
 72
1
 10
303.0077862867
 20
32.0618220825
 11
302.8739789591
 21
32.1278079091
 72
1
 10
302.8739789591
 20
32.1278079091
 11
302.7499293345
 21
32.2106906796
 72
1
 10
302.7499293345
 20
32.2106906796
 11
302.6377599366
 21
32.3090616446
 72
1
 10
302.6377599366
 20
32.3090616446
 11
302.5393900147
 21
32.4212303047
 72
1
 10
302.5393900147
 20
32.4212303047
 11
302.4565027056
 21
32.5452807606
 72
1
 10
302.4565027056
 20
32.5452807606
 11
302.390516234
 21
32.679087813
 72
1
 10
302.390516234
 20
32.679087813
 11
302.3425596467
 21
32.8203652627
 72
1
 10
302.3425596467
 20
32.8203652627
 11
302.3134534944
 21
32.9666900607
 72
1
 10
302.3134534944
 20
32.9666900607
 11
302.3036957913
 21
33.1155667077
 72
1
 10
302.3036957913
 20
33.1155667077
 11
302.3134534944
 21
33.2644433548
 72
1
 10
302.3134534944
 20
33.2644433548
 11
302.3425596467
 21
33.4107681527
 72
1
 10
302.3425596467
 20
33.4107681527
 11
302.390516234
 21
33.5520456025
 72
1
 10
302.390516234
 20
33.5520456025
 11
302.4565027056
 21
33.6858526549
 72
1
 10
302.4565027056
 20
33.6858526549
 11
302.5393900147
 21
33.8099031107
 72
1
 10
302.5393900147
 20
33.8099031107
 11
302.6377599366
 21
33.9220717708
 72
1
 10
302.6377599366
 20
33.9220717708
 11
302.7499293345
 21
34.0204346859
 72
1
 10
302.7499293345
 20
34.0204346859
 11
302.8739789591
 21
34.1033255064
 72
1
 10
302.8739789591
 20
34.1033255064
 11
303.0077862867
 21
34.1693113329
 72
1
 10
303.0077862867
 20
34.1693113329
 11
303.149061837
 21
34.2172651658
 72
1
 10
303.149061837
 20
34.2172651658
 11
303.2953883461
 21
34.2463739555
 97
1
330
238
 75
0
 76
1
 98
1
 10
0.0
 20
0.0
  0
SOLID
  5
23A
100
AcDbEntity
  8
0
100
AcDbTrace
 62
2
  6
CONTINUOUS
 10
311.4420331903
 20
31.98475946
 11
311.2931594095
 21
31.9750028634
 12
303.4442621268
 22
31.9750028634
 13
303.4442621268
 23
31.9750028634
  0
LWPOLYLINE
  5
23B
100
AcDbEntity
  8
0
100
AcDbPolyline
 62
2
  6
CONTINUOUS
 90
6
 70
0
 10
328.3338139487
 20
33.7788945218
 10
327.8504615515
 20
31.9750028634
 10
321.4865647769
 20
31.9750028634
 10
324.4045177413
 20
35.2226132082
 10
324.0176749741
 20
33.7788945218
 10
328.3338139487
 20
33.7788945218
  0
HATCH
  5
23C
100
AcDbEntity
  8
0
100
AcDbHatch
 62
2
  6
CONTINUOUS
 10
0.0
 20
0.0
 30
0.0
210
0.0
220
0.0
230
1.0
  2
SOLID
 70
1
 71
1
 91
1
 92
1
 93
5
 72
1
 10
328.3338139487
 20
33.7788945218
 11
327.8504615515
 21
31.9750028634
 72
1
 10
327.8504615515
 20
31.9750028634
 11
321.4865647769
 21
31.9750028634
 72
1
 10
321.4865647769
 20
31.9750028634
 11
324.4045177413
 21
35.2226132082
 72
1
 10
324.4045177413
 20
35.2226132082
 11
324.0176749741
 21
33.7788945218
 72
1
 10
324.0176749741
 20
33.7788945218
 11
328.3338139487
 21
33.7788945218
 97
1
330
23B
 75
0
 76
1
 98
1
 10
0.0
 20
0.0
  0
ENDBLK
  5
23D
100
AcDbEntity
  8
0
  6
BYBLOCK
 62
0
100
AcDbBlockEnd
  0
BLOCK
  5
23E
100
AcDbEntity
  8
0
100
AcDbBlockBegin
  2
_CLOSED
 70
64
 10
0.0
 20
0.0
  3
_CLOSED
  1

  0
LINE
  5
23F
100
AcDbEntity
  8
0
  6
BYBLOCK
 62
0
100
AcDbLine
 10
0.0
 20
0.0
 11
-1.0
 21
0.1666666667
  0
LINE
  5
240
100
AcDbEntity
  8
0
  6
BYBLOCK
 62
0
100
AcDbLine
 10
-1.0
 20
0.1666666667
 11
-1.0
 21
-0.1666666667
  0
LINE
  5
241
100
AcDbEntity
  8
0
  6
BYBLOCK
 62
0
100
AcDbLine
 10
-1.0
 20
-0.1666666667
 11
0.0
 21
0.0
  0
LINE
  5
242
100
AcDbEntity
  8
0
  6
BYBLOCK
 62
0
100
AcDbLine
 10
-1.0
 20
0.0
 11
0.0
 21
0.0
  0
ENDBLK
  5
243
100
AcDbEntity
  8
0
  6
BYBLOCK
 62
0
100
AcDbBlockEnd
  0
ENDSEC
  0
SECTION
  2
ENTITIES
  0
TEXT
  5
244
100
AcDbEntity
  8
0
100
AcDbText
 62
2
  6
CONTINUOUS
 10
273.9447944556
 20
16.2331743479
  7
STANDARD
 40
1.5200002147
  1
SIZE
 41
0.95
 72
0
100
AcDbText
  0
TEXT
  5
245
100
AcDbEntity
  8
0
100
AcDbText
 62
2
  6
CONTINUOUS
 10
287.5144966041
 20
16.2331819773
  7
STANDARD
 40
1.5200002147
  1
DRAWING NO
 41
0.95
 72
0
100
AcDbText
  0
TEXT
  5
246
100
AcDbEntity
  8
0
100
AcDbText
 62
2
  6
CONTINUOUS
 10
354.2964949762
 20
16.2330905319
  7
STANDARD
 40
1.52
  1
VERSION
 41
0.95
 72
0
100
AcDbText
  0
TEXT
  5
247
100
AcDbEntity
  8
0
100
AcDbText
 62
2
  6
CONTINUOUS
 10
274.4447944556
 20
25.5657549143
  7
STANDARD
 40
1.5200002147
  1
NAME
 41
0.95
 72
0
100
AcDbText
  0
TEXT
  5
248
100
AcDbEntity
  8
0
100
AcDbText
 62
2
  6
CONTINUOUS
 10
276.2800492314
 20
10.3485471083
  7
STANDARD
 40
4.9999998868
  1
A3
 41
0.95
 72
0
100
AcDbText
  0
TEXT
  5
249
100
AcDbEntity
  8
0
100
AcDbText
 62
2
  6
CONTINUOUS
 10
297.3906714731
 20
21.1920805906
  7
TEXTSTYLE_2
 40
3.968
  1
CUSTOMER VIEW MODEL DRAWING
 41
0.8
 72
1
 11
340.2450714731
 21
21.1920805906
100
AcDbText
  0
TEXT
  5
24A
100
AcDbEntity
  8
0
100
AcDbText
 62
2
  6
CONTINUOUS
 10
347.0299084682
 20
34.4224093775
  7
TEXTSTYLE_2
 40
2.5
  1
TE Connectivity
 41
0.8
 72
0
100
AcDbText
  0
TEXT
  5
24B
100
AcDbEntity
  8
0
100
AcDbText
 62
2
  6
CONTINUOUS
 10
369.5635822821
 20
16.2739597356
  7
STANDARD
 40
1.52
  1
DATE
 41
0.95
 72
0
100
AcDbText
  0
TEXT
  5
24C
100
AcDbEntity
  8
0
100
AcDbText
 62
2
  6
CONTINUOUS
 10
174.6476862981
 20
23.8368677885
  7
TEXTSTYLE_2
 40
2.286
  1
THIS IS NOT A CONTROLLED DRAWING.
 41
0.8
 72
0
100
AcDbText
  0
TEXT
  5
24D
100
AcDbEntity
  8
0
100
AcDbText
 62
2
  6
CONTINUOUS
 10
174.6476862981
 20
20.4078677885
  7
TEXTSTYLE_2
 40
2.286
  1
THIS IS A REPRESENTATION OF THE CUSTOMER VIEW MODEL.
 41
0.8
 72
0
100
AcDbText
  0
TEXT
  5
24E
100
AcDbEntity
  8
0
100
AcDbText
 62
2
  6
CONTINUOUS
 10
174.6476862981
 20
16.9788677885
  7
TEXTSTYLE_2
 40
2.286
  1
    THIS IS NOT THE DOCUMENT OF SALE.
 41
0.8
 72
0
100
AcDbText
  0
TEXT
  5
24F
100
AcDbEntity
  8
0
100
AcDbText
 62
2
  6
CONTINUOUS
 10
174.6476862981
 20
13.5498677885
  7
TEXTSTYLE_2
 40
2.286
  1
SEE THE CUSTOMER DRAWING FOR DESIGN PURPOSES.
 41
0.8
 72
0
100
AcDbText
  0
TEXT
  5
250
100
AcDbEntity
  8
0
100
AcDbText
 62
2
  6
CONTINUOUS
 10
22.7512107444
 20
282.4829655254
  7
TEXTSTYLE_2
 40
2.5
  1
c
 41
0.8
 72
0
100
AcDbText
  0
INSERT
  5
251
100
AcDbEntity
  8
0
100
AcDbBlockReference
 62
2
  6
CONTINUOUS
  2
TE_CONNECTIVITY_BL0
 10
315.0
 20
36.0
  0
LINE
  5
252
100
AcDbEntity
  8
0
100
AcDbLine
 62
2
  6
CONTINUOUS
 10
287.2090159416
 20
18.7593422635
 11
409.2090159416
 21
18.7593422635
  0
LINE
  5
253
100
AcDbEntity
  8
0
100
AcDbLine
 62
2
  6
CONTINUOUS
 10
287.2090159416
 20
18.7593422635
 11
287.2090159416
 21
9.2342522635
  0
LINE
  5
254
100
AcDbEntity
  8
0
100
AcDbLine
 62
2
  6
CONTINUOUS
 10
287.2090159416
 20
9.2342522635
 11
409.2090159416
 21
9.2342522635
  0
LINE
  5
255
100
AcDbEntity
  8
0
100
AcDbLine
 62
2
  6
CONTINUOUS
 10
353.3340159416
 20
18.7593422635
 11
353.3340159416
 21
9.2342522635
  0
LINE
  5
256
100
AcDbEntity
  8
0
100
AcDbLine
 62
2
  6
CONTINUOUS
 10
367.9590159416
 20
18.7593422635
 11
367.9590159416
 21
9.2342522635
  0
LINE
  5
257
100
AcDbEntity
  8
0
100
AcDbLine
 62
2
  6
CONTINUOUS
 10
409.2090159416
 20
18.7593422635
 11
409.2090159416
 21
9.2342522635
  0
TEXT
  5
258
100
AcDbEntity
  8
0
100
AcDbText
 62
2
  6
CONTINUOUS
 10
303.7355159416
 20
12.4067972635
  7
TEXTSTYLE_2
 40
3.18
  1
C-2-1437565-7
 41
0.8
 72
1
 11
320.2715159416
 21
12.4067972635
100
AcDbText
  0
TEXT
  5
259
100
AcDbEntity
  8
0
100
AcDbText
 62
2
  6
CONTINUOUS
 10
359.3745159416
 20
12.4067972635
  7
TEXTSTYLE_2
 40
3.18
  1
V
 41
0.8
 72
1
 11
360.6465159416
 21
12.4067972635
100
AcDbText
  0
TEXT
  5
25A
100
AcDbEntity
  8
0
100
AcDbText
 62
2
  6
CONTINUOUS
 10
377.1360159416
 20
12.4067972635
  7
TEXTSTYLE_2
 40
3.18
  1
17-Dec-18
 41
0.8
 72
1
 11
388.5840159416
 21
12.4067972635
100
AcDbText
  0
LINE
  5
25B
100
AcDbEntity
  8
0
100
AcDbLine
 62
2
  6
CONTINUOUS
 10
17.7838797455
 20
287.0843544705
 11
132.7838797455
 21
287.0843544705
  0
LINE
  5
25C
100
AcDbEntity
  8
0
100
AcDbLine
 62
2
  6
CONTINUOUS
 10
17.7838797455
 20
287.0843544705
 11
17.7838797455
 21
272.0843544705
  0
LINE
  5
25D
100
AcDbEntity
  8
0
100
AcDbLine
 62
2
  6
CONTINUOUS
 10
17.7838797455
 20
272.0843544705
 11
132.7838797455
 21
272.0843544705
  0
LINE
  5
25E
100
AcDbEntity
  8
0
100
AcDbLine
 62
2
  6
CONTINUOUS
 10
132.7838797455
 20
287.0843544705
 11
132.7838797455
 21
272.0843544705
  0
TEXT
  5
25F
100
AcDbEntity
  8
0
100
AcDbText
 62
2
  6
CONTINUOUS
 10
17.8463797455
 20
282.0843544705
  7
TEXTSTYLE_2
 40
2.5
  1
  
 41
0.8
 72
0
100
AcDbText
  0
TEXT
  5
260
100
AcDbEntity
  8
0
100
AcDbText
 62
2
  6
CONTINUOUS
 10
21.8463797455
 20
282.0843544705
  7
TEXTSTYLE_1
 40
2.5
  1
e
 41
1.0
 72
0
100
AcDbText
  0
TEXT
  5
261
100
AcDbEntity
  8
0
100
AcDbText
 62
2
  6
CONTINUOUS
 10
26.4297130788
 20
282.0843544705
  7
TEXTSTYLE_2
 40
2.5
  1
Copyright 
 41
0.8
 72
0
100
AcDbText
  0
TEXT
  5
262
100
AcDbEntity
  8
0
100
AcDbText
 62
2
  6
CONTINUOUS
 10
46.4297130788
 20
282.0843544705
  7
TEXTSTYLE_2
 40
2.5
  1
17-Dec-18
 41
0.8
 72
0
100
AcDbText
  0
TEXT
  5
263
100
AcDbEntity
  8
0
100
AcDbText
 62
2
  6
CONTINUOUS
 10
64.4297130788
 20
282.0843544705
  7
TEXTSTYLE_2
 40
2.5
  1
 Tyco Electronics Corporation,
 41
0.8
 72
0
100
AcDbText
  0
TEXT
  5
264
100
AcDbEntity
  8
0
100
AcDbText
 62
2
  6
CONTINUOUS
 10
17.8463797455
 20
278.3343544705
  7
TEXTSTYLE_2
 40
2.5
  1
 
 41
0.8
 72
0
100
AcDbText
  0
TEXT
  5
265
100
AcDbEntity
  8
0
100
AcDbText
 62
2
  6
CONTINUOUS
 10
17.8463797455
 20
274.5843544705
  7
TEXTSTYLE_2
 40
2.5
  1
  a TE Connectivity Ltd. Company.  All Rights Reserved.
 41
0.8
 72
0
100
AcDbText
  0
LINE
  5
266
100
AcDbEntity
  8
0
100
AcDbLine
 62
7
  6
CONTINUOUS
 10
0.0
 20
0.0
 11
0.0
 21
297.0
  0
LINE
  5
267
100
AcDbEntity
  8
0
100
AcDbLine
 62
7
  6
CONTINUOUS
 10
17.7838797455
 20
9.2342568143
 11
17.7838797455
 21
287.0843544705
  0
LINE
  5
268
100
AcDbEntity
  8
0
100
AcDbLine
 62
7
  6
CONTINUOUS
 10
0.0
 20
0.0
 11
420.0
 21
0.0
  0
LINE
  5
269
100
AcDbEntity
  8
0
100
AcDbLine
 62
7
  6
CONTINUOUS
 10
409.2090201263
 20
9.2342568143
 11
17.7838797455
 21
9.2342568143
  0
LINE
  5
26A
100
AcDbEntity
  8
0
100
AcDbLine
 62
7
  6
CONTINUOUS
 10
30.4841666107
 20
9.234348367
 11
17.784490097
 21
9.234348367
  0
LINE
  5
26B
100
AcDbEntity
  8
0
100
AcDbLine
 62
7
  6
CONTINUOUS
 10
409.2090159416
 20
18.7593422635
 11
273.4388174896
 21
18.7593422635
  0
LINE
  5
26C
100
AcDbEntity
  8
DRAFT_ENTITY
100
AcDbLine
 62
7
  6
CONTINUOUS
 10
409.2091421966
 20
28.2845192655
 11
273.4386343841
 21
28.2845192655
  0
LINE
  5
26D
100
AcDbEntity
  8
0
100
AcDbLine
 62
7
  6
CONTINUOUS
 10
409.2091421966
 20
44.1593056424
 11
273.4386343841
 21
44.1593056424
  0
LINE
  5
26E
100
AcDbEntity
  8
0
100
AcDbLine
 62
7
  6
CONTINUOUS
 10
273.4386343841
 20
44.1593056424
 11
273.4386343841
 21
9.2342568143
  0
LINE
  5
26F
100
AcDbEntity
  8
0
100
AcDbLine
 62
7
  6
CONTINUOUS
 10
287.2079097655
 20
18.7593422635
 11
287.2079097655
 21
9.2342568143
  0
LINE
  5
270
100
AcDbEntity
  8
0
100
AcDbLine
 62
7
  6
CONTINUOUS
 10
353.3344447689
 20
18.7593808926
 11
353.3344447689
 21
9.2342954434
  0
LINE
  5
271
100
AcDbEntity
  8
0
100
AcDbLine
 62
7
  6
CONTINUOUS
 10
17.7838797455
 20
287.0843544705
 11
409.208898056
 21
287.0843544705
  0
LINE
  5
272
100
AcDbEntity
  8
0
100
AcDbLine
 62
7
  6
CONTINUOUS
 10
0.0
 20
297.0
 11
420.0
 21
297.0
  0
LINE
  5
273
100
AcDbEntity
  8
0
100
AcDbLine
 62
7
  6
CONTINUOUS
 10
367.9586057154
 20
9.2337890544
 11
367.9586057154
 21
18.7587829509
  0
LINE
  5
274
100
AcDbEntity
  8
0
100
AcDbLine
 62
7
  6
CONTINUOUS
 10
409.208898056
 20
287.0843544705
 11
409.2090201263
 21
9.2342568143
  0
LINE
  5
275
100
AcDbEntity
  8
0
100
AcDbLine
 62
7
  6
CONTINUOUS
 10
420.0
 20
0.0
 11
420.0
 21
297.0
  0
LINE
  5
276
100
AcDbEntity
  8
0
100
AcDbLine
 62
7
  6
CONTINUOUS
 10
268.5984726036
 20
246.9472313075
 11
268.1748569156
 21
245.5764091656
  0
LINE
  5
277
100
AcDbEntity
  8
0
100
AcDbLine
 62
7
  6
CONTINUOUS
 10
269.9932973449
 20
239.6367544011
 11
269.2307891065
 21
237.1692745457
  0
LINE
  5
278
100
AcDbEntity
  8
0
100
AcDbLine
 62
7
  6
CONTINUOUS
 10
273.1116719355
 20
246.9472313075
 11
272.6880562475
 21
245.5764091656
  0
LINE
  5
279
100
AcDbEntity
  8
0
100
AcDbLine
 62
7
  6
CONTINUOUS
 10
264.5450995677
 20
217.5498890901
 11
269.248485762
 21
232.7700665285
  0
LINE
  5
27A
100
AcDbEntity
  8
0
100
AcDbLine
 62
7
  6
CONTINUOUS
 10
265.6832632418
 20
218.1210239357
 11
269.8186623616
 21
231.5031928204
  0
LINE
  5
27B
100
AcDbEntity
  8
0
100
AcDbLine
 62
7
  6
CONTINUOUS
 10
282.9093139788
 20
192.0134089495
 11
306.0333481528
 21
192.0134089495
  0
LINE
  5
27C
100
AcDbEntity
  8
0
100
AcDbLine
 62
7
  6
CONTINUOUS
 10
310.8266755604
 20
192.0134089495
 11
313.9558643769
 21
192.0134089495
  0
LINE
  5
27D
100
AcDbEntity
  8
0
100
AcDbLine
 62
7
  6
CONTINUOUS
 10
264.6052292226
 20
217.0332066446
 11
276.3493326941
 21
193.1012262406
  0
LINE
  5
27E
100
AcDbEntity
  8
0
100
AcDbLine
 62
7
  6
CONTINUOUS
 10
274.5064966768
 20
239.6367544011
 11
273.7439884384
 21
237.1692745457
  0
LINE
  5
27F
100
AcDbEntity
  8
0
100
AcDbLine
 62
7
  6
CONTINUOUS
 10
267.8940037156
 20
215.5210790744
 11
267.2162186148
 21
213.3277636474
  0
LINE
  5
280
100
AcDbEntity
  8
0
100
AcDbLine
 62
7
  6
CONTINUOUS
 10
274.2778113235
 20
236.0814572546
 11
275.0403195618
 21
238.54893711
  0
LINE
  5
281
100
AcDbEntity
  8
0
100
AcDbLine
 62
7
  6
CONTINUOUS
 10
275.3488997136
 20
231.6647466976
 11
274.9252840257
 21
230.2939245557
  0
LINE
  5
282
100
AcDbEntity
  8
0
100
AcDbLine
 62
7
  6
CONTINUOUS
 10
274.5819499522
 20
213.4543492925
 11
273.9041648515
 21
211.2610338655
  0
LINE
  5
283
100
AcDbEntity
  8
0
100
AcDbLine
 62
7
  6
CONTINUOUS
 10
317.8398029391
 20
201.4698828416
 11
318.5585701128
 21
201.4698828416
  0
LINE
  5
284
100
AcDbEntity
  8
0
100
AcDbLine
 62
7
  6
CONTINUOUS
 10
319.3039466655
 20
202.0637175219
 11
323.0543959266
 21
202.0637175219
  0
LINE
  5
285
100
AcDbEntity
  8
0
100
AcDbLine
 62
7
  6
CONTINUOUS
 10
269.4512035006
 20
232.2519956797
 11
270.4120846937
 21
230.2939245557
  0
LINE
  5
286
100
AcDbEntity
  8
0
100
AcDbLine
 62
7
  6
CONTINUOUS
 10
318.5852230479
 20
203.8820654383
 11
319.0923929979
 21
203.8820654383
  0
LINE
  5
287
100
AcDbEntity
  8
0
100
AcDbLine
 62
7
  6
CONTINUOUS
 10
320.5087155126
 20
205.5447328534
 11
321.3461626944
 21
205.5447328534
  0
LINE
  5
288
100
AcDbEntity
  8
0
100
AcDbLine
 62
7
  6
CONTINUOUS
 10
278.1156578951
 20
208.6839935609
 11
276.9125893413
 21
204.7908586779
  0
LINE
  5
289
100
AcDbEntity
  8
0
100
AcDbLine
 62
7
  6
CONTINUOUS
 10
319.3477312863
 20
206.3495452937
 11
319.8549012363
 21
206.3495452937
  0
LINE
  5
28A
100
AcDbEntity
  8
0
100
AcDbLine
 62
7
  6
CONTINUOUS
 10
319.7569907394
 20
207.6739105992
 11
320.9225470064
 21
207.6739105992
  0
LINE
  5
28B
100
AcDbEntity
  8
0
100
AcDbLine
 62
7
  6
CONTINUOUS
 10
273.9644028325
 20
232.2519956797
 11
274.9252840257
 21
230.2939245557
  0
LINE
  5
28C
100
AcDbEntity
  8
0
100
AcDbLine
 62
7
  6
CONTINUOUS
 10
268.1748569156
 20
245.5764091656
 11
269.8830901478
 21
242.0953938341
  0
LINE
  5
28D
100
AcDbEntity
  8
0
100
AcDbLine
 62
7
  6
CONTINUOUS
 10
275.3488997136
 20
231.6647466976
 11
274.3880185205
 21
233.6228178216
  0
LINE
  5
28E
100
AcDbEntity
  8
0
100
AcDbLine
 62
7
  6
CONTINUOUS
 10
277.1398160849
 20
196.6800835927
 11
276.4620309841
 21
194.4867681656
  0
LINE
  5
28F
100
AcDbEntity
  8
0
100
AcDbLine
 62
7
  6
CONTINUOUS
 10
272.6880562475
 20
245.5764091656
 11
274.3962894797
 21
242.0953938341
  0
LINE
  5
290
100
AcDbEntity
  8
0
100
AcDbLine
 62
7
  6
CONTINUOUS
 10
274.8199051677
 20
243.466215976
 11
273.1116719355
 21
246.9472313075
  0
LINE
  5
291
100
AcDbEntity
  8
0
100
AcDbLine
 62
7
  6
CONTINUOUS
 10
297.6118968801
 20
246.9472313075
 11
297.1882811921
 21
245.5764091656
  0
LINE
  5
292
100
AcDbEntity
  8
0
100
AcDbLine
 62
7
  6
CONTINUOUS
 10
283.8277623216
 20
194.6133538108
 11
283.1499772208
 21
192.4200383838
  0
LINE
  5
293
100
AcDbEntity
  8
0
100
AcDbLine
 62
7
  6
CONTINUOUS
 10
299.0067216214
 20
239.6367544011
 11
298.244213383
 21
237.1692745457
  0
LINE
  5
294
100
AcDbEntity
  8
0
100
AcDbLine
 62
7
  6
CONTINUOUS
 10
302.125096212
 20
246.9472313075
 11
301.701480524
 21
245.5764091656
  0
LINE
  5
295
100
AcDbEntity
  8
0
100
AcDbLine
 62
7
  6
CONTINUOUS
 10
265.6832632418
 20
218.1210239357
 11
301.1441151354
 21
218.1210239357
  0
LINE
  5
296
100
AcDbEntity
  8
0
100
AcDbLine
 62
7
  6
CONTINUOUS
 10
295.8113652972
 20
215.5210790744
 11
295.1335801964
 21
213.3277636474
  0
LINE
  5
297
100
AcDbEntity
  8
0
100
AcDbLine
 62
7
  6
CONTINUOUS
 10
303.5199209533
 20
239.6367544011
 11
302.7574127149
 21
237.1692745457
  0
LINE
  5
298
100
AcDbEntity
  8
0
100
AcDbLine
 62
7
  6
CONTINUOUS
 10
303.2912356
 20
236.0814572546
 11
304.0537438384
 21
238.54893711
  0
LINE
  5
299
100
AcDbEntity
  8
0
100
AcDbLine
 62
7
  6
CONTINUOUS
 10
304.3623239902
 20
231.6647466976
 11
303.9387083022
 21
230.2939245557
  0
LINE
  5
29A
100
AcDbEntity
  8
0
100
AcDbLine
 62
7
  6
CONTINUOUS
 10
307.1933471599
 20
237.696364122
 11
301.1441151354
 21
218.1210239357
  0
LINE
  5
29B
100
AcDbEntity
  8
0
100
AcDbLine
 62
7
  6
CONTINUOUS
 10
303.2897949247
 20
217.0332066446
 11
315.0338983961
 21
193.1012262406
  0
LINE
  5
29C
100
AcDbEntity
  8
0
100
AcDbLine
 62
7
  6
CONTINUOUS
 10
309.3390269492
 20
236.6085468309
 11
303.2897949247
 21
217.0332066446
  0
LINE
  5
29D
100
AcDbEntity
  8
0
100
AcDbLine
 62
7
  6
CONTINUOUS
 10
302.4993115339
 20
213.4543492925
 11
301.8215264331
 21
211.2610338655
  0
LINE
  5
29E
100
AcDbEntity
  8
0
100
AcDbLine
 62
7
  6
CONTINUOUS
 10
298.4646277772
 20
232.2519956797
 11
299.4255089703
 21
230.2939245557
  0
LINE
  5
29F
100
AcDbEntity
  8
0
100
AcDbLine
 62
7
  6
CONTINUOUS
 10
301.5234697236
 20
201.4504393243
 11
300.3204011697
 21
197.5573044413
  0
LINE
  5
2A0
100
AcDbEntity
  8
0
100
AcDbLine
 62
7
  6
CONTINUOUS
 10
270.4120846937
 20
230.2939245557
 11
274.9252840257
 21
230.2939245557
  0
LINE
  5
2A1
100
AcDbEntity
  8
0
100
AcDbLine
 62
7
  6
CONTINUOUS
 10
299.4255089703
 20
230.2939245557
 11
303.9387083022
 21
230.2939245557
  0
LINE
  5
2A2
100
AcDbEntity
  8
0
100
AcDbLine
 62
7
  6
CONTINUOUS
 10
269.4512035006
 20
232.2519956797
 11
273.9644028325
 21
232.2519956797
  0
LINE
  5
2A3
100
AcDbEntity
  8
0
100
AcDbLine
 62
7
  6
CONTINUOUS
 10
298.4646277772
 20
232.2519956797
 11
302.9778271091
 21
232.2519956797
  0
LINE
  5
2A4
100
AcDbEntity
  8
0
100
AcDbLine
 62
7
  6
CONTINUOUS
 10
302.9778271091
 20
232.2519956797
 11
303.9387083022
 21
230.2939245557
  0
LINE
  5
2A5
100
AcDbEntity
  8
0
100
AcDbLine
 62
7
  6
CONTINUOUS
 10
297.1882811921
 20
245.5764091656
 11
298.8965144243
 21
242.0953938341
  0
LINE
  5
2A6
100
AcDbEntity
  8
0
100
AcDbLine
 62
7
  6
CONTINUOUS
 10
304.3623239902
 20
231.6647466976
 11
303.4014427971
 21
233.6228178216
  0
LINE
  5
2A7
100
AcDbEntity
  8
0
100
AcDbLine
 62
7
  6
CONTINUOUS
 10
305.0571776665
 20
196.6800835927
 11
304.3793925657
 21
194.4867681656
  0
LINE
  5
2A8
100
AcDbEntity
  8
0
100
AcDbLine
 62
7
  6
CONTINUOUS
 10
269.2307891065
 20
237.1692745457
 11
273.7439884384
 21
237.1692745457
  0
LINE
  5
2A9
100
AcDbEntity
  8
0
100
AcDbLine
 62
7
  6
CONTINUOUS
 10
298.244213383
 20
237.1692745457
 11
302.7574127149
 21
237.1692745457
  0
LINE
  5
2AA
100
AcDbEntity
  8
0
100
AcDbLine
 62
7
  6
CONTINUOUS
 10
274.7768548264
 20
237.696364122
 11
298.4070962302
 21
237.696364122
  0
LINE
  5
2AB
100
AcDbEntity
  8
0
100
AcDbLine
 62
7
  6
CONTINUOUS
 10
303.790279103
 20
237.696364122
 11
307.1933471599
 21
237.696364122
  0
LINE
  5
2AC
100
AcDbEntity
  8
0
100
AcDbLine
 62
7
  6
CONTINUOUS
 10
301.701480524
 20
245.5764091656
 11
303.4097137562
 21
242.0953938341
  0
LINE
  5
2AD
100
AcDbEntity
  8
0
100
AcDbLine
 62
7
  6
CONTINUOUS
 10
321.3461626944
 20
205.5447328534
 11
323.0543959266
 21
202.0637175219
  0
LINE
  5
2AE
100
AcDbEntity
  8
0
100
AcDbLine
 62
7
  6
CONTINUOUS
 10
269.9932973449
 20
239.6367544011
 11
274.5064966768
 21
239.6367544011
  0
LINE
  5
2AF
100
AcDbEntity
  8
0
100
AcDbLine
 62
7
  6
CONTINUOUS
 10
299.0067216214
 20
239.6367544011
 11
303.5199209533
 21
239.6367544011
  0
LINE
  5
2B0
100
AcDbEntity
  8
0
100
AcDbLine
 62
7
  6
CONTINUOUS
 10
323.4780116146
 20
203.4345396638
 11
321.7697783824
 21
206.9155549953
  0
LINE
  5
2B1
100
AcDbEntity
  8
0
100
AcDbLine
 62
7
  6
CONTINUOUS
 10
303.8333294442
 20
243.466215976
 11
302.125096212
 21
246.9472313075
  0
LINE
  5
2B2
100
AcDbEntity
  8
0
100
AcDbLine
 62
7
  6
CONTINUOUS
 10
321.0831304206
 20
212.6765664269
 11
309.3390269492
 21
236.6085468309
  0
LINE
  5
2B3
100
AcDbEntity
  8
0
100
AcDbLine
 62
7
  6
CONTINUOUS
 10
311.7451239032
 20
194.6133538108
 11
311.0673388024
 21
192.4200383838
  0
LINE
  5
2B4
100
AcDbEntity
  8
0
100
AcDbLine
 62
7
  6
CONTINUOUS
 10
269.8830901478
 20
242.0953938341
 11
274.3962894797
 21
242.0953938341
  0
LINE
  5
2B5
100
AcDbEntity
  8
0
100
AcDbLine
 62
7
  6
CONTINUOUS
 10
298.8965144243
 20
242.0953938341
 11
303.4097137562
 21
242.0953938341
  0
LINE
  5
2B6
100
AcDbEntity
  8
0
100
AcDbLine
 62
7
  6
CONTINUOUS
 10
268.1748569156
 20
245.5764091656
 11
272.6880562475
 21
245.5764091656
  0
LINE
  5
2B7
100
AcDbEntity
  8
0
100
AcDbLine
 62
7
  6
CONTINUOUS
 10
297.1882811921
 20
245.5764091656
 11
301.701480524
 21
245.5764091656
  0
LINE
  5
2B8
100
AcDbEntity
  8
0
100
AcDbLine
 62
7
  6
CONTINUOUS
 10
315.0338983961
 20
193.1012262406
 11
321.0831304206
 21
212.6765664269
  0
LINE
  5
2B9
100
AcDbEntity
  8
0
100
AcDbLine
 62
7
  6
CONTINUOUS
 10
315.094028051
 20
192.5845437951
 11
321.1432600755
 21
212.1598839814
  0
LINE
  5
2BA
100
AcDbEntity
  8
0
100
AcDbLine
 62
7
  6
CONTINUOUS
 10
319.8549012363
 20
206.3495452937
 11
319.0923929979
 21
203.8820654383
  0
LINE
  5
2BB
100
AcDbEntity
  8
0
100
AcDbLine
 62
7
  6
CONTINUOUS
 10
319.6262158829
 20
202.7942481472
 11
320.3887241213
 21
205.2617280026
  0
LINE
  5
2BC
100
AcDbEntity
  8
0
100
AcDbLine
 62
7
  6
CONTINUOUS
 10
268.5984726036
 20
246.9472313075
 11
273.1116719355
 21
246.9472313075
  0
LINE
  5
2BD
100
AcDbEntity
  8
0
100
AcDbLine
 62
7
  6
CONTINUOUS
 10
297.6118968801
 20
246.9472313075
 11
302.125096212
 21
246.9472313075
  0
LINE
  5
2BE
100
AcDbEntity
  8
0
100
AcDbLine
 62
7
  6
CONTINUOUS
 10
323.0543959266
 20
202.0637175219
 11
323.4780116146
 21
203.4345396638
  0
LINE
  5
2BF
100
AcDbEntity
  8
0
100
AcDbLine
 62
7
  6
CONTINUOUS
 10
97.3
 20
62.3125
 11
102.2
 21
62.3125
  0
LINE
  5
2C0
100
AcDbEntity
  8
0
100
AcDbLine
 62
7
  6
CONTINUOUS
 10
128.8
 20
62.3125
 11
133.7
 21
62.3125
  0
LINE
  5
2C1
100
AcDbEntity
  8
0
100
AcDbLine
 62
7
  6
CONTINUOUS
 10
97.3
 20
67.9125
 11
102.2
 21
67.9125
  0
LINE
  5
2C2
100
AcDbEntity
  8
0
100
AcDbLine
 62
7
  6
CONTINUOUS
 10
128.8
 20
67.9125
 11
133.7
 21
67.9125
  0
LINE
  5
2C3
100
AcDbEntity
  8
0
100
AcDbLine
 62
7
  6
CONTINUOUS
 10
97.3
 20
69.6625
 11
102.2
 21
69.6625
  0
LINE
  5
2C4
100
AcDbEntity
  8
0
100
AcDbLine
 62
7
  6
CONTINUOUS
 10
128.8
 20
69.6625
 11
133.7
 21
69.6625
  0
LINE
  5
2C5
100
AcDbEntity
  8
0
100
AcDbLine
 62
7
  6
CONTINUOUS
 10
97.3
 20
73.1625
 11
102.2
 21
73.1625
  0
LINE
  5
2C6
100
AcDbEntity
  8
0
100
AcDbLine
 62
7
  6
CONTINUOUS
 10
128.8
 20
73.1625
 11
133.7
 21
73.1625
  0
LINE
  5
2C7
100
AcDbEntity
  8
0
100
AcDbLine
 62
7
  6
CONTINUOUS
 10
94.5
 20
116.5625
 11
94.5
 21
78.0625
  0
LINE
  5
2C8
100
AcDbEntity
  8
0
100
AcDbLine
 62
7
  6
CONTINUOUS
 10
96.25
 20
76.3125
 11
134.75
 21
76.3125
  0
LINE
  5
2C9
100
AcDbEntity
  8
0
100
AcDbLine
 62
7
  6
CONTINUOUS
 10
97.3
 20
132.3125
 11
97.3
 21
118.3125
  0
LINE
  5
2CA
100
AcDbEntity
  8
0
100
AcDbLine
 62
7
  6
CONTINUOUS
 10
97.3
 20
76.3125
 11
97.3
 21
62.3125
  0
LINE
  5
2CB
100
AcDbEntity
  8
0
100
AcDbLine
 62
7
  6
CONTINUOUS
 10
102.2
 20
132.3125
 11
102.2
 21
118.3125
  0
LINE
  5
2CC
100
AcDbEntity
  8
0
100
AcDbLine
 62
7
  6
CONTINUOUS
 10
102.2
 20
76.3125
 11
102.2
 21
62.3125
  0
LINE
  5
2CD
100
AcDbEntity
  8
0
100
AcDbLine
 62
7
  6
CONTINUOUS
 10
128.8
 20
132.3125
 11
128.8
 21
118.3125
  0
LINE
  5
2CE
100
AcDbEntity
  8
0
100
AcDbLine
 62
7
  6
CONTINUOUS
 10
128.8
 20
76.3125
 11
128.8
 21
62.3125
  0
LINE
  5
2CF
100
AcDbEntity
  8
0
100
AcDbLine
 62
7
  6
CONTINUOUS
 10
133.7
 20
132.3125
 11
133.7
 21
118.3125
  0
LINE
  5
2D0
100
AcDbEntity
  8
0
100
AcDbLine
 62
7
  6
CONTINUOUS
 10
133.7
 20
76.3125
 11
133.7
 21
62.3125
  0
LINE
  5
2D1
100
AcDbEntity
  8
0
100
AcDbLine
 62
7
  6
CONTINUOUS
 10
136.5
 20
116.5625
 11
136.5
 21
78.0625
  0
LINE
  5
2D2
100
AcDbEntity
  8
0
100
AcDbLine
 62
7
  6
CONTINUOUS
 10
96.25
 20
118.3125
 11
134.75
 21
118.3125
  0
LINE
  5
2D3
100
AcDbEntity
  8
0
100
AcDbLine
 62
7
  6
CONTINUOUS
 10
97.3
 20
121.4625
 11
102.2
 21
121.4625
  0
LINE
  5
2D4
100
AcDbEntity
  8
0
100
AcDbLine
 62
7
  6
CONTINUOUS
 10
128.8
 20
121.4625
 11
133.7
 21
121.4625
  0
LINE
  5
2D5
100
AcDbEntity
  8
0
100
AcDbLine
 62
7
  6
CONTINUOUS
 10
97.3
 20
124.9625
 11
102.2
 21
124.9625
  0
LINE
  5
2D6
100
AcDbEntity
  8
0
100
AcDbLine
 62
7
  6
CONTINUOUS
 10
128.8
 20
124.9625
 11
133.7
 21
124.9625
  0
LINE
  5
2D7
100
AcDbEntity
  8
0
100
AcDbLine
 62
7
  6
CONTINUOUS
 10
97.3
 20
126.7125
 11
102.2
 21
126.7125
  0
LINE
  5
2D8
100
AcDbEntity
  8
0
100
AcDbLine
 62
7
  6
CONTINUOUS
 10
128.8
 20
126.7125
 11
133.7
 21
126.7125
  0
LINE
  5
2D9
100
AcDbEntity
  8
0
100
AcDbLine
 62
7
  6
CONTINUOUS
 10
97.3
 20
132.3125
 11
102.2
 21
132.3125
  0
LINE
  5
2DA
100
AcDbEntity
  8
0
100
AcDbLine
 62
7
  6
CONTINUOUS
 10
128.8
 20
132.3125
 11
133.7
 21
132.3125
  0
LINE
  5
2DB
100
AcDbEntity
  8
0
100
AcDbLine
 62
7
  6
CONTINUOUS
 10
94.5
 20
187.7525
 11
94.5
 21
212.7425
  0
LINE
  5
2DC
100
AcDbEntity
  8
0
100
AcDbLine
 62
7
  6
CONTINUOUS
 10
96.25
 20
187.7525
 11
96.25
 21
212.7425
  0
LINE
  5
2DD
100
AcDbEntity
  8
0
100
AcDbLine
 62
7
  6
CONTINUOUS
 10
96.845
 20
187.7525
 11
96.845
 21
184.9525
  0
LINE
  5
2DE
100
AcDbEntity
  8
0
100
AcDbLine
 62
7
  6
CONTINUOUS
 10
97.3
 20
213.4425
 11
97.3
 21
203.2925
  0
LINE
  5
2DF
100
AcDbEntity
  8
0
100
AcDbLine
 62
7
  6
CONTINUOUS
 10
103.250214113
 20
182.7825
 11
127.749785887
 21
182.7825
  0
LINE
  5
2E0
100
AcDbEntity
  8
0
100
AcDbLine
 62
7
  6
CONTINUOUS
 10
102.2
 20
213.4425
 11
102.2
 21
203.2925
  0
LINE
  5
2E1
100
AcDbEntity
  8
0
100
AcDbLine
 62
7
  6
CONTINUOUS
 10
103.25
 20
184.9525
 11
103.25
 21
182.7825
  0
LINE
  5
2E2
100
AcDbEntity
  8
0
100
AcDbLine
 62
7
  6
CONTINUOUS
 10
134.155
 20
184.9525
 11
127.155
 21
184.9525
  0
LINE
  5
2E3
100
AcDbEntity
  8
0
100
AcDbLine
 62
7
  6
CONTINUOUS
 10
103.845
 20
184.9525
 11
96.845
 21
184.9525
  0
LINE
  5
2E4
100
AcDbEntity
  8
0
100
AcDbLine
 62
7
  6
CONTINUOUS
 10
103.845
 20
187.7525
 11
103.845
 21
184.9525
  0
LINE
  5
2E5
100
AcDbEntity
  8
0
100
AcDbLine
 62
7
  6
CONTINUOUS
 10
94.5
 20
187.7525
 11
136.5
 21
187.7525
  0
LINE
  5
2E6
100
AcDbEntity
  8
0
100
AcDbLine
 62
7
  6
CONTINUOUS
 10
97.3
 20
203.2925
 11
102.2
 21
203.2925
  0
LINE
  5
2E7
100
AcDbEntity
  8
0
100
AcDbLine
 62
7
  6
CONTINUOUS
 10
128.8
 20
203.2925
 11
133.7
 21
203.2925
  0
LINE
  5
2E8
100
AcDbEntity
  8
0
100
AcDbLine
 62
7
  6
CONTINUOUS
 10
97.3
 20
206.7925
 11
102.2
 21
206.7925
  0
LINE
  5
2E9
100
AcDbEntity
  8
0
100
AcDbLine
 62
7
  6
CONTINUOUS
 10
128.8
 20
206.7925
 11
133.7
 21
206.7925
  0
LINE
  5
2EA
100
AcDbEntity
  8
0
100
AcDbLine
 62
7
  6
CONTINUOUS
 10
127.155
 20
187.7525
 11
127.155
 21
184.9525
  0
LINE
  5
2EB
100
AcDbEntity
  8
0
100
AcDbLine
 62
7
  6
CONTINUOUS
 10
127.75
 20
184.9525
 11
127.75
 21
182.7825
  0
LINE
  5
2EC
100
AcDbEntity
  8
0
100
AcDbLine
 62
7
  6
CONTINUOUS
 10
97.3
 20
209.9425
 11
102.2
 21
209.9425
  0
LINE
  5
2ED
100
AcDbEntity
  8
0
100
AcDbLine
 62
7
  6
CONTINUOUS
 10
128.8
 20
209.9425
 11
133.7
 21
209.9425
  0
LINE
  5
2EE
100
AcDbEntity
  8
0
100
AcDbLine
 62
7
  6
CONTINUOUS
 10
128.8
 20
213.4425
 11
128.8
 21
203.2925
  0
LINE
  5
2EF
100
AcDbEntity
  8
0
100
AcDbLine
 62
7
  6
CONTINUOUS
 10
97.3
 20
211.6925
 11
102.2
 21
211.6925
  0
LINE
  5
2F0
100
AcDbEntity
  8
0
100
AcDbLine
 62
7
  6
CONTINUOUS
 10
128.8
 20
211.6925
 11
133.7
 21
211.6925
  0
LINE
  5
2F1
100
AcDbEntity
  8
0
100
AcDbLine
 62
7
  6
CONTINUOUS
 10
94.5
 20
212.7425
 11
97.3
 21
212.7425
  0
LINE
  5
2F2
100
AcDbEntity
  8
0
100
AcDbLine
 62
7
  6
CONTINUOUS
 10
102.2
 20
212.7425
 11
128.8
 21
212.7425
  0
LINE
  5
2F3
100
AcDbEntity
  8
0
100
AcDbLine
 62
7
  6
CONTINUOUS
 10
133.7
 20
212.7425
 11
136.5
 21
212.7425
  0
LINE
  5
2F4
100
AcDbEntity
  8
0
100
AcDbLine
 62
7
  6
CONTINUOUS
 10
97.3
 20
213.4425
 11
102.2
 21
213.4425
  0
LINE
  5
2F5
100
AcDbEntity
  8
0
100
AcDbLine
 62
7
  6
CONTINUOUS
 10
128.8
 20
213.4425
 11
133.7
 21
213.4425
  0
LINE
  5
2F6
100
AcDbEntity
  8
0
100
AcDbLine
 62
7
  6
CONTINUOUS
 10
133.7
 20
213.4425
 11
133.7
 21
203.2925
  0
LINE
  5
2F7
100
AcDbEntity
  8
0
100
AcDbLine
 62
7
  6
CONTINUOUS
 10
134.155
 20
187.7525
 11
134.155
 21
184.9525
  0
LINE
  5
2F8
100
AcDbEntity
  8
0
100
AcDbLine
 62
7
  6
CONTINUOUS
 10
134.75
 20
212.7425
 11
134.75
 21
187.7525
  0
LINE
  5
2F9
100
AcDbEntity
  8
0
100
AcDbLine
 62
7
  6
CONTINUOUS
 10
136.5
 20
212.7425
 11
136.5
 21
187.7525
  0
LINE
  5
2FA
100
AcDbEntity
  8
0
100
AcDbLine
 62
7
  6
CONTINUOUS
 10
265.58
 20
62.3125
 11
267.33
 21
62.3125
  0
LINE
  5
2FB
100
AcDbEntity
  8
0
100
AcDbLine
 62
7
  6
CONTINUOUS
 10
260.68
 20
69.6625
 11
263.83
 21
69.6625
  0
LINE
  5
2FC
100
AcDbEntity
  8
0
100
AcDbLine
 62
7
  6
CONTINUOUS
 10
263.83
 20
71.4125
 11
260.68
 21
71.4125
  0
LINE
  5
2FD
100
AcDbEntity
  8
0
100
AcDbLine
 62
7
  6
CONTINUOUS
 10
241.64
 20
76.3125
 11
266.63
 21
76.3125
  0
LINE
  5
2FE
100
AcDbEntity
  8
0
100
AcDbLine
 62
7
  6
CONTINUOUS
 10
241.64
 20
78.0625
 11
266.63
 21
78.0625
  0
LINE
  5
2FF
100
AcDbEntity
  8
0
100
AcDbLine
 62
7
  6
CONTINUOUS
 10
241.64
 20
78.6575
 11
238.84
 21
78.6575
  0
LINE
  5
300
100
AcDbEntity
  8
0
100
AcDbLine
 62
7
  6
CONTINUOUS
 10
236.67
 20
109.5625
 11
236.67
 21
85.0625
  0
LINE
  5
301
100
AcDbEntity
  8
0
100
AcDbLine
 62
7
  6
CONTINUOUS
 10
238.84
 20
78.6575
 11
238.84
 21
85.6575
  0
LINE
  5
302
100
AcDbEntity
  8
0
100
AcDbLine
 62
7
  6
CONTINUOUS
 10
238.84
 20
108.9675
 11
238.84
 21
115.9675
  0
LINE
  5
303
100
AcDbEntity
  8
0
100
AcDbLine
 62
7
  6
CONTINUOUS
 10
241.64
 20
76.3125
 11
241.64
 21
118.3125
  0
LINE
  5
304
100
AcDbEntity
  8
0
100
AcDbLine
 62
7
  6
CONTINUOUS
 10
238.84
 20
85.0625
 11
236.67
 21
85.0625
  0
LINE
  5
305
100
AcDbEntity
  8
0
100
AcDbLine
 62
7
  6
CONTINUOUS
 10
241.64
 20
85.6575
 11
238.84
 21
85.6575
  0
LINE
  5
306
100
AcDbEntity
  8
0
100
AcDbLine
 62
7
  6
CONTINUOUS
 10
257.18
 20
121.4625
 11
257.18
 21
118.3125
  0
LINE
  5
307
100
AcDbEntity
  8
0
100
AcDbLine
 62
7
  6
CONTINUOUS
 10
257.18
 20
76.3125
 11
257.18
 21
73.1625
  0
LINE
  5
308
100
AcDbEntity
  8
0
100
AcDbLine
 62
7
  6
CONTINUOUS
 10
258.93
 20
73.1625
 11
258.93
 21
76.3125
  0
LINE
  5
309
100
AcDbEntity
  8
0
100
AcDbLine
 62
7
  6
CONTINUOUS
 10
258.93
 20
118.3125
 11
258.93
 21
121.4625
  0
LINE
  5
30A
100
AcDbEntity
  8
0
100
AcDbLine
 62
7
  6
CONTINUOUS
 10
241.64
 20
108.9675
 11
238.84
 21
108.9675
  0
LINE
  5
30B
100
AcDbEntity
  8
0
100
AcDbLine
 62
7
  6
CONTINUOUS
 10
238.84
 20
109.5625
 11
236.67
 21
109.5625
  0
LINE
  5
30C
100
AcDbEntity
  8
0
100
AcDbLine
 62
7
  6
CONTINUOUS
 10
265.58
 20
132.3125
 11
265.58
 21
126.7125
  0
LINE
  5
30D
100
AcDbEntity
  8
0
100
AcDbLine
 62
7
  6
CONTINUOUS
 10
265.58
 20
67.9125
 11
265.58
 21
62.3125
  0
LINE
  5
30E
100
AcDbEntity
  8
0
100
AcDbLine
 62
7
  6
CONTINUOUS
 10
266.63
 20
76.3125
 11
266.63
 21
118.3125
  0
LINE
  5
30F
100
AcDbEntity
  8
0
100
AcDbLine
 62
7
  6
CONTINUOUS
 10
267.33
 20
62.3125
 11
267.33
 21
67.9125
  0
LINE
  5
310
100
AcDbEntity
  8
0
100
AcDbLine
 62
7
  6
CONTINUOUS
 10
267.33
 20
126.7125
 11
267.33
 21
132.3125
  0
LINE
  5
311
100
AcDbEntity
  8
0
100
AcDbLine
 62
7
  6
CONTINUOUS
 10
241.64
 20
115.9675
 11
238.84
 21
115.9675
  0
LINE
  5
312
100
AcDbEntity
  8
0
100
AcDbLine
 62
7
  6
CONTINUOUS
 10
266.63
 20
116.5625
 11
241.64
 21
116.5625
  0
LINE
  5
313
100
AcDbEntity
  8
0
100
AcDbLine
 62
7
  6
CONTINUOUS
 10
266.63
 20
118.3125
 11
241.64
 21
118.3125
  0
LINE
  5
314
100
AcDbEntity
  8
0
100
AcDbLine
 62
7
  6
CONTINUOUS
 10
260.68
 20
123.2125
 11
263.83
 21
123.2125
  0
LINE
  5
315
100
AcDbEntity
  8
0
100
AcDbLine
 62
7
  6
CONTINUOUS
 10
263.83
 20
124.9625
 11
260.68
 21
124.9625
  0
LINE
  5
316
100
AcDbEntity
  8
0
100
AcDbLine
 62
7
  6
CONTINUOUS
 10
267.33
 20
132.3125
 11
265.58
 21
132.3125
  0
CIRCLE
  5
317
100
AcDbEntity
  8
0
100
AcDbCircle
 62
7
  6
CONTINUOUS
 10
115.5
 20
97.3125
 40
12.25
  0
CIRCLE
  5
318
100
AcDbEntity
  8
0
100
AcDbCircle
 62
7
  6
CONTINUOUS
 10
130.655
 20
112.4675
 40
3.5
  0
CIRCLE
  5
319
100
AcDbEntity
  8
0
100
AcDbCircle
 62
7
  6
CONTINUOUS
 10
100.345
 20
112.4675
 40
3.5
  0
CIRCLE
  5
31A
100
AcDbEntity
  8
0
100
AcDbCircle
 62
7
  6
CONTINUOUS
 10
100.345
 20
82.1575
 40
3.5
  0
CIRCLE
  5
31B
100
AcDbEntity
  8
0
100
AcDbCircle
 62
7
  6
CONTINUOUS
 10
130.655
 20
82.1575
 40
3.5
  0
ARC
  5
31C
100
AcDbEntity
  8
0
100
AcDbCircle
 62
7
  6
CONTINUOUS
 10
134.75
 20
116.5625
 40
1.75
100
AcDbArc
 50
0.0
 51
90.0
  0
ARC
  5
31D
100
AcDbEntity
  8
0
100
AcDbCircle
 62
7
  6
CONTINUOUS
 10
134.75
 20
78.0625
 40
1.75
100
AcDbArc
 50
270.0
 51
360.0
  0
ARC
  5
31E
100
AcDbEntity
  8
0
100
AcDbCircle
 62
7
  6
CONTINUOUS
 10
96.25
 20
78.0625
 40
1.75
100
AcDbArc
 50
180.0
 51
270.0
  0
ARC
  5
31F
100
AcDbEntity
  8
0
100
AcDbCircle
 62
7
  6
CONTINUOUS
 10
96.25
 20
116.5625
 40
1.75
100
AcDbArc
 50
90.0
 51
180.0
  0
ARC
  5
320
100
AcDbEntity
  8
0
100
AcDbCircle
 62
7
  6
CONTINUOUS
 10
263.83
 20
126.7125
 40
3.5
100
AcDbArc
 50
270.0
 51
360.0
  0
ARC
  5
321
100
AcDbEntity
  8
0
100
AcDbCircle
 62
7
  6
CONTINUOUS
 10
260.68
 20
121.4625
 40
3.5
100
AcDbArc
 50
90.0
 51
180.0
  0
ARC
  5
322
100
AcDbEntity
  8
0
100
AcDbCircle
 62
7
  6
CONTINUOUS
 10
260.68
 20
73.1625
 40
3.5
100
AcDbArc
 50
180.0
 51
270.0
  0
ARC
  5
323
100
AcDbEntity
  8
0
100
AcDbCircle
 62
7
  6
CONTINUOUS
 10
263.83
 20
67.9125
 40
3.5
100
AcDbArc
 50
0.0
 51
90.0
  0
ARC
  5
324
100
AcDbEntity
  8
0
100
AcDbCircle
 62
7
  6
CONTINUOUS
 10
260.68
 20
121.4625
 40
1.75
100
AcDbArc
 50
90.0
 51
180.0
  0
ARC
  5
325
100
AcDbEntity
  8
0
100
AcDbCircle
 62
7
  6
CONTINUOUS
 10
263.83
 20
126.7125
 40
1.75
100
AcDbArc
 50
270.0
 51
360.0
  0
ARC
  5
326
100
AcDbEntity
  8
0
100
AcDbCircle
 62
7
  6
CONTINUOUS
 10
263.83
 20
67.9125
 40
1.75
100
AcDbArc
 50
0.0
 51
90.0
  0
ARC
  5
327
100
AcDbEntity
  8
0
100
AcDbCircle
 62
7
  6
CONTINUOUS
 10
260.68
 20
73.1625
 40
1.75
100
AcDbArc
 50
180.0
 51
270.0
  0
SPLINE
  5
328
100
AcDbEntity
  8
0
100
AcDbSpline
 62
7
  6
CONTINUOUS
 70
0
 71
3
 72
9
 73
5
 74
0
 42
0.0000001
 43
0.0000001
 44
0.0000000001
 40
0.0
 40
0.0
 40
0.0
 40
0.0
 40
0.4825102819
 40
1.0
 40
1.0
 40
1.0
 40
1.0
 10
318.5582691013
 20
203.219908379
 30
0.0
 10
318.5313655383
 20
203.2199103192
 30
0.0
 10
318.4753379711
 20
203.2287367428
 30
0.0
 10
318.4243465077
 20
203.2529331945
 30
0.0
 10
318.3997698782
 20
203.2680506837
 30
0.0
  0
SPLINE
  5
329
100
AcDbEntity
  8
0
100
AcDbSpline
 62
7
  6
CONTINUOUS
 70
0
 71
3
 72
15
 73
11
 74
0
 42
0.0000001
 43
0.0000001
 44
0.0000000001
 40
0.0
 40
0.0
 40
0.0
 40
0.0
 40
0.155715393
 40
0.303228513
 40
0.4411403008
 40
0.569082114
 40
0.6873742644
 40
0.7971189338
 40
0.9003396054
 40
1.0
 40
1.0
 40
1.0
 40
1.0
 10
313.9558643769
 20
192.0134089495
 30
0.0
 10
314.0262931299
 20
192.0134089495
 30
0.0
 10
314.163542405
 20
192.019512238
 30
0.0
 10
314.3613760748
 20
192.0480476168
 30
0.0
 10
314.5426654464
 20
192.0955835038
 30
0.0
 10
314.7041547267
 20
192.1612096068
 30
0.0
 10
314.8430204136
 20
192.2440948642
 30
0.0
 10
314.9568026548
 20
192.3430047788
 30
0.0
 10
315.0428349774
 20
192.4565646252
 30
0.0
 10
315.0806371665
 20
192.5412641797
 30
0.0
 10
315.0939622902
 20
192.584325142
 30
0.0
  0
SPLINE
  5
32A
100
AcDbEntity
  8
0
100
AcDbSpline
 62
7
  6
CONTINUOUS
 70
0
 71
3
 72
14
 73
10
 74
0
 42
0.0000001
 43
0.0000001
 44
0.0000000001
 40
0.0
 40
0.0
 40
0.0
 40
0.0
 40
0.1002774249
 40
0.2101604635
 40
0.3289623477
 40
0.4555450682
 40
0.5881784695
 40
0.7247481215
 40
1.0
 40
1.0
 40
1.0
 40
1.0
 10
276.3493326941
 20
193.1012262406
 30
0.0
 10
276.379362701
 20
193.0400314853
 30
0.0
 10
276.455297061
 20
192.9179868641
 30
0.0
 10
276.6022009599
 20
192.7484610972
 30
0.0
 10
276.7837335565
 20
192.5882141793
 30
0.0
 10
276.9951175831
 20
192.4412418862
 30
0.0
 10
277.2311065528
 20
192.3110343436
 30
0.0
 10
277.5712031081
 20
192.1641467699
 30
0.0
 10
277.8430204854
 20
192.0887783049
 30
0.0
 10
278.0272436921
 20
192.0560430462
 30
0.0
  0
SPLINE
  5
32B
100
AcDbEntity
  8
0
100
AcDbSpline
 62
7
  6
CONTINUOUS
 70
0
 71
3
 72
16
 73
12
 74
0
 42
0.0000001
 43
0.0000001
 44
0.0000000001
 40
0.0
 40
0.0
 40
0.0
 40
0.0
 40
0.0426536325
 40
0.0860499752
 40
0.1776191594
 40
0.2793942435
 40
0.3942580618
 40
0.5237082224
 40
0.6682431707
 40
0.8274553015
 40
1.0
 40
1.0
 40
1.0
 40
1.0
 10
318.5586958494
 20
201.4699352604
 30
0.0
 10
318.5843029257
 20
201.4699363557
 30
0.0
 10
318.6360404605
 20
201.4736983715
 30
0.0
 10
318.7405169417
 20
201.4965425251
 30
0.0
 10
318.8715648558
 20
201.5557528386
 30
0.0
 10
319.0197461058
 20
201.6684908671
 30
0.0
 10
319.1609435757
 20
201.8220773215
 30
0.0
 10
319.29408014
 20
202.0145332858
 30
0.0
 10
319.4178738786
 20
202.2437339971
 30
0.0
 10
319.5308097645
 20
202.5067568676
 30
0.0
 10
319.5956320956
 20
202.6952788832
 30
0.0
 10
319.6262158829
 20
202.7942481472
 30
0.0
  0
SPLINE
  5
32C
100
AcDbEntity
  8
0
100
AcDbSpline
 62
7
  6
CONTINUOUS
 70
0
 71
3
 72
15
 73
11
 74
0
 42
0.0000001
 43
0.0000001
 44
0.0000000001
 40
0.0
 40
0.0
 40
0.0
 40
0.0
 40
0.1296298987
 40
0.2645662144
 40
0.4012499054
 40
0.5362787877
 40
0.6662280311
 40
0.7881052603
 40
0.8997701407
 40
1.0
 40
1.0
 40
1.0
 40
1.0
 10
307.1933471599
 20
237.696364122
 30
0.0
 10
307.3017771236
 20
237.696364122
 30
0.0
 10
307.5232526464
 20
237.6813599174
 30
0.0
 10
307.8538041037
 20
237.6193958903
 30
0.0
 10
308.179690309
 20
237.5194728398
 30
0.0
 10
308.4885951573
 20
237.3855104293
 30
0.0
 10
308.7689846844
 20
237.2223795484
 30
0.0
 10
309.0105902561
 20
237.0361221408
 30
0.0
 10
309.2042855863
 20
236.833482609
 30
0.0
 10
309.3020927175
 20
236.6838109249
 30
0.0
 10
309.3390269492
 20
236.6085468309
 30
0.0
  0
SPLINE
  5
32D
100
AcDbEntity
  8
0
100
AcDbSpline
 62
7
  6
CONTINUOUS
 70
0
 71
3
 72
11
 73
7
 74
0
 42
0.0000001
 43
0.0000001
 44
0.0000000001
 40
0.0
 40
0.0
 40
0.0
 40
0.0
 40
0.233661247
 40
0.4744503287
 40
0.7285791038
 40
1.0
 40
1.0
 40
1.0
 40
1.0
 10
304.3793020609
 20
194.4864153628
 30
0.0
 10
304.3548405657
 20
194.4072291275
 30
0.0
 10
304.3227596614
 20
194.2404601007
 30
0.0
 10
304.3284306164
 20
193.9803860304
 30
0.0
 10
304.3869073016
 20
193.7134269664
 30
0.0
 10
304.4572401814
 20
193.5398292702
 30
0.0
 10
304.4996518755
 20
193.4534032747
 30
0.0
  0
SPLINE
  5
32E
100
AcDbEntity
  8
0
100
AcDbSpline
 62
7
  6
CONTINUOUS
 70
0
 71
3
 72
11
 73
7
 74
0
 42
0.0000001
 43
0.0000001
 44
0.0000000001
 40
0.0
 40
0.0
 40
0.0
 40
0.0
 40
0.2712992558
 40
0.5254922903
 40
0.7663473983
 40
1.0
 40
1.0
 40
1.0
 40
1.0
 10
321.0831304206
 20
212.6765664269
 30
0.0
 10
321.1043428753
 20
212.6333399642
 30
0.0
 10
321.1395021023
 20
212.5464727931
 30
0.0
 10
321.1687671048
 20
212.4128918533
 30
0.0
 10
321.171560744
 20
212.2827286433
 30
0.0
 10
321.1554533226
 20
212.1992810714
 30
0.0
 10
321.1431943147
 20
212.1596653283
 30
0.0
  0
SPLINE
  5
32F
100
AcDbEntity
  8
0
100
AcDbSpline
 62
7
  6
CONTINUOUS
 70
0
 71
3
 72
11
 73
7
 74
0
 42
0.0000001
 43
0.0000001
 44
0.0000000001
 40
0.0
 40
0.0
 40
0.0
 40
0.0
 40
0.233661247
 40
0.4744503287
 40
0.7285791038
 40
1.0
 40
1.0
 40
1.0
 40
1.0
 10
276.4619404793
 20
194.4864153628
 30
0.0
 10
276.437478984
 20
194.4072291275
 30
0.0
 10
276.4053980798
 20
194.2404601007
 30
0.0
 10
276.4110690348
 20
193.9803860304
 30
0.0
 10
276.46954572
 20
193.7134269664
 30
0.0
 10
276.5398785998
 20
193.5398292702
 30
0.0
 10
276.5822902939
 20
193.4534032747
 30
0.0
  0
SPLINE
  5
330
100
AcDbEntity
  8
0
100
AcDbSpline
 62
7
  6
CONTINUOUS
 70
0
 71
3
 72
25
 73
21
 74
0
 42
0.0000001
 43
0.0000001
 44
0.0000000001
 40
0.0
 40
0.0
 40
0.0
 40
0.0
 40
0.0543321926
 40
0.1139575067
 40
0.1785230974
 40
0.2473497109
 40
0.3194126482
 40
0.3934946211
 40
0.4682666998
 40
0.5423595408
 40
0.6144398147
 40
0.6832916392
 40
0.747899296
 40
0.8075426776
 40
0.8619230223
 40
0.911310968
 40
0.9344534619
 40
0.9567826773
 40
0.9785392453
 40
1.0
 40
1.0
 40
1.0
 40
1.0
 10
295.2538395062
 20
212.2943987564
 30
0.0
 10
295.3155505088
 20
212.1686448829
 30
0.0
 10
295.4723705039
 20
211.9179548399
 30
0.0
 10
295.7769271012
 20
211.5708578037
 30
0.0
 10
296.153707903
 20
211.2437084507
 30
0.0
 10
296.5924505047
 20
210.945005258
 30
0.0
 10
297.081694865
 20
210.6825614197
 30
0.0
 10
297.6083267144
 20
210.4633372678
 30
0.0
 10
298.1582547592
 20
210.2931798435
 30
0.0
 10
298.7167484017
 20
210.1766842822
 30
0.0
 10
299.2688513682
 20
210.1169774961
 30
0.0
 10
299.7998543497
 20
210.1156417074
 30
0.0
 10
300.2957260905
 20
210.1727659593
 30
0.0
 10
300.7435802423
 20
210.2871752203
 30
0.0
 10
301.1316978758
 20
210.4563263195
 30
0.0
 10
301.4028013192
 20
210.6446670632
 30
0.0
 10
301.5754827781
 20
210.8186721986
 30
0.0
 10
301.6811077595
 20
210.9567680364
 30
0.0
 10
301.7646052071
 20
211.1043008361
 30
0.0
 10
301.8052862556
 20
211.2085213288
 30
0.0
 10
301.8216169379
 20
211.2613866683
 30
0.0
  0
SPLINE
  5
331
100
AcDbEntity
  8
0
100
AcDbSpline
 62
7
  6
CONTINUOUS
 70
0
 71
3
 72
25
 73
21
 74
0
 42
0.0000001
 43
0.0000001
 44
0.0000000001
 40
0.0
 40
0.0
 40
0.0
 40
0.0
 40
0.0543321926
 40
0.1139575067
 40
0.1785230974
 40
0.2473497109
 40
0.3194126482
 40
0.3934946211
 40
0.4682666998
 40
0.5423595408
 40
0.6144398147
 40
0.6832916392
 40
0.747899296
 40
0.8075426776
 40
0.8619230223
 40
0.911310968
 40
0.9344534619
 40
0.9567826773
 40
0.9785392453
 40
1.0
 40
1.0
 40
1.0
 40
1.0
 10
267.3364779246
 20
212.2943987564
 30
0.0
 10
267.3981889271
 20
212.1686448829
 30
0.0
 10
267.5550089223
 20
211.9179548399
 30
0.0
 10
267.8595655196
 20
211.5708578037
 30
0.0
 10
268.2363463214
 20
211.2437084507
 30
0.0
 10
268.675088923
 20
210.945005258
 30
0.0
 10
269.1643332833
 20
210.6825614197
 30
0.0
 10
269.6909651328
 20
210.4633372678
 30
0.0
 10
270.2408931775
 20
210.2931798435
 30
0.0
 10
270.79938682
 20
210.1766842822
 30
0.0
 10
271.3514897865
 20
210.1169774961
 30
0.0
 10
271.882492768
 20
210.1156417074
 30
0.0
 10
272.3783645088
 20
210.1727659593
 30
0.0
 10
272.8262186607
 20
210.2871752203
 30
0.0
 10
273.2143362942
 20
210.4563263195
 30
0.0
 10
273.4854397375
 20
210.6446670632
 30
0.0
 10
273.6581211965
 20
210.8186721986
 30
0.0
 10
273.7637461778
 20
210.9567680364
 30
0.0
 10
273.8472436255
 20
211.1043008361
 30
0.0
 10
273.887924674
 20
211.2085213288
 30
0.0
 10
273.9042553563
 20
211.2613866683
 30
0.0
  0
SPLINE
  5
332
100
AcDbEntity
  8
0
100
AcDbSpline
 62
7
  6
CONTINUOUS
 70
0
 71
3
 72
25
 73
21
 74
0
 42
0.0000001
 43
0.0000001
 44
0.0000000001
 40
0.0
 40
0.0
 40
0.0
 40
0.0
 40
0.0543321926
 40
0.1139575067
 40
0.1785230974
 40
0.2473497109
 40
0.3194126482
 40
0.3934946211
 40
0.4682666998
 40
0.5423595408
 40
0.6144398147
 40
0.6832916392
 40
0.747899296
 40
0.8075426776
 40
0.8619230223
 40
0.911310968
 40
0.9344534619
 40
0.9567826773
 40
0.9785392453
 40
1.0
 40
1.0
 40
1.0
 40
1.0
 10
276.5822902939
 20
193.4534032747
 30
0.0
 10
276.6440012964
 20
193.3276494012
 30
0.0
 10
276.8008212916
 20
193.0769593582
 30
0.0
 10
277.1053778889
 20
192.729862322
 30
0.0
 10
277.4821586907
 20
192.402712969
 30
0.0
 10
277.9209012923
 20
192.1040097763
 30
0.0
 10
278.4101456526
 20
191.8415659379
 30
0.0
 10
278.9367775021
 20
191.6223417861
 30
0.0
 10
279.4867055468
 20
191.4521843618
 30
0.0
 10
280.0451991893
 20
191.3356888005
 30
0.0
 10
280.5973021558
 20
191.2759820144
 30
0.0
 10
281.1283051373
 20
191.2746462257
 30
0.0
 10
281.6241768781
 20
191.3317704776
 30
0.0
 10
282.07203103
 20
191.4461797386
 30
0.0
 10
282.4601486635
 20
191.6153308378
 30
0.0
 10
282.7312521068
 20
191.8036715814
 30
0.0
 10
282.9039335658
 20
191.9776767169
 30
0.0
 10
283.0095585472
 20
192.1157725547
 30
0.0
 10
283.0930559948
 20
192.2633053544
 30
0.0
 10
283.1337370433
 20
192.3675258471
 30
0.0
 10
283.1500677256
 20
192.4203911866
 30
0.0
  0
SPLINE
  5
333
100
AcDbEntity
  8
0
100
AcDbSpline
 62
7
  6
CONTINUOUS
 70
0
 71
3
 72
25
 73
21
 74
0
 42
0.0000001
 43
0.0000001
 44
0.0000000001
 40
0.0
 40
0.0
 40
0.0
 40
0.0
 40
0.0543321926
 40
0.1139575067
 40
0.1785230974
 40
0.2473497109
 40
0.3194126482
 40
0.3934946211
 40
0.4682666998
 40
0.5423595408
 40
0.6144398147
 40
0.6832916392
 40
0.747899296
 40
0.8075426776
 40
0.8619230223
 40
0.911310968
 40
0.9344534619
 40
0.9567826773
 40
0.9785392453
 40
1.0
 40
1.0
 40
1.0
 40
1.0
 10
304.4996518755
 20
193.4534032747
 30
0.0
 10
304.5613628781
 20
193.3276494012
 30
0.0
 10
304.7181828732
 20
193.0769593582
 30
0.0
 10
305.0227394705
 20
192.729862322
 30
0.0
 10
305.3995202723
 20
192.402712969
 30
0.0
 10
305.838262874
 20
192.1040097763
 30
0.0
 10
306.3275072343
 20
191.8415659379
 30
0.0
 10
306.8541390837
 20
191.6223417861
 30
0.0
 10
307.4040671285
 20
191.4521843618
 30
0.0
 10
307.962560771
 20
191.3356888005
 30
0.0
 10
308.5146637375
 20
191.2759820144
 30
0.0
 10
309.045666719
 20
191.2746462257
 30
0.0
 10
309.5415384598
 20
191.3317704776
 30
0.0
 10
309.9893926116
 20
191.4461797386
 30
0.0
 10
310.3775102451
 20
191.6153308378
 30
0.0
 10
310.6486136885
 20
191.8036715814
 30
0.0
 10
310.8212951474
 20
191.9776767169
 30
0.0
 10
310.9269201288
 20
192.1157725547
 30
0.0
 10
311.0104175764
 20
192.2633053544
 30
0.0
 10
311.0510986249
 20
192.3675258471
 30
0.0
 10
311.0674293072
 20
192.4203911866
 30
0.0
  0
SPLINE
  5
334
100
AcDbEntity
  8
0
100
AcDbSpline
 62
7
  6
CONTINUOUS
 70
0
 71
3
 72
11
 73
7
 74
0
 42
0.0000001
 43
0.0000001
 44
0.0000000001
 40
0.0
 40
0.0
 40
0.0
 40
0.0
 40
0.233661247
 40
0.4744503287
 40
0.7285791038
 40
1.0
 40
1.0
 40
1.0
 40
1.0
 10
267.21612811
 20
213.3274108445
 30
0.0
 10
267.1916666147
 20
213.2482246092
 30
0.0
 10
267.1595857105
 20
213.0814555824
 30
0.0
 10
267.1652566655
 20
212.8213815122
 30
0.0
 10
267.2237333507
 20
212.5544224481
 30
0.0
 10
267.2940662305
 20
212.3808247519
 30
0.0
 10
267.3364779246
 20
212.2943987564
 30
0.0
  0
SPLINE
  5
335
100
AcDbEntity
  8
0
100
AcDbSpline
 62
7
  6
CONTINUOUS
 70
0
 71
3
 72
11
 73
7
 74
0
 42
0.0000001
 43
0.0000001
 44
0.0000000001
 40
0.0
 40
0.0
 40
0.0
 40
0.0
 40
0.233661247
 40
0.4744503287
 40
0.7285791038
 40
1.0
 40
1.0
 40
1.0
 40
1.0
 10
295.1334896916
 20
213.3274108445
 30
0.0
 10
295.1090281964
 20
213.2482246092
 30
0.0
 10
295.0769472921
 20
213.0814555824
 30
0.0
 10
295.0826182471
 20
212.8213815122
 30
0.0
 10
295.1410949323
 20
212.5544224481
 30
0.0
 10
295.2114278121
 20
212.3808247519
 30
0.0
 10
295.2538395062
 20
212.2943987564
 30
0.0
  0
SPLINE
  5
336
100
AcDbEntity
  8
0
100
AcDbSpline
 62
7
  6
CONTINUOUS
 70
0
 71
3
 72
16
 73
12
 74
0
 42
0.0000001
 43
0.0000001
 44
0.0000000001
 40
0.0
 40
0.0
 40
0.0
 40
0.0
 40
0.0493289422
 40
0.1025801583
 40
0.2192209513
 40
0.3465450596
 40
0.4807878284
 40
0.6176215863
 40
0.7525894306
 40
0.8814865791
 40
1.0
 40
1.0
 40
1.0
 40
1.0
 10
269.8830901478
 20
242.0953938341
 30
0.0
 10
269.9012477706
 20
242.0583924679
 30
0.0
 10
269.9358103746
 20
241.979857048
 30
0.0
 10
269.998234818
 20
241.8075470327
 30
0.0
 10
270.0617144821
 20
241.5669166693
 30
0.0
 10
270.113438233
 20
241.2547996413
 30
0.0
 10
270.140845011
 20
240.9226975819
 30
0.0
 10
270.1430488439
 20
240.5831222221
 30
0.0
 10
270.1197750353
 20
240.2487772132
 30
0.0
 10
270.071887184
 20
239.9325486259
 30
0.0
 10
270.0225336561
 20
239.7313632268
 30
0.0
 10
269.9932973449
 20
239.6367544011
 30
0.0
  0
SPLINE
  5
337
100
AcDbEntity
  8
0
100
AcDbSpline
 62
7
  6
CONTINUOUS
 70
0
 71
3
 72
18
 73
14
 74
0
 42
0.0000001
 43
0.0000001
 44
0.0000000001
 40
0.0
 40
0.0
 40
0.0
 40
0.0
 40
0.0577727153
 40
0.1186173687
 40
0.2474074211
 40
0.3823766994
 40
0.5192118802
 40
0.6534485239
 40
0.7807741636
 40
0.8406253452
 40
0.8973674806
 40
0.950614907
 40
1.0
 40
1.0
 40
1.0
 40
1.0
 10
269.2307891065
 20
237.1692745457
 30
0.0
 10
269.2022826236
 20
237.0770274477
 30
0.0
 10
269.1492864939
 20
236.8858857549
 30
0.0
 10
269.0589873972
 20
236.4822573303
 30
0.0
 10
268.9778864976
 20
235.9451000214
 30
0.0
 10
268.9313260675
 20
235.2766059195
 30
0.0
 10
268.935582728
 20
234.5973653246
 30
0.0
 10
268.9905650429
 20
233.9331845841
 30
0.0
 10
269.0784476706
 20
233.4024783834
 30
0.0
 10
269.1739249503
 20
233.0060191511
 30
0.0
 10
269.254809124
 20
232.7337852154
 30
0.0
 10
269.3456415438
 20
232.4832332834
 30
0.0
 10
269.4148439189
 20
232.3260887597
 30
0.0
 10
269.4512035006
 20
232.2519956797
 30
0.0
  0
SPLINE
  5
338
100
AcDbEntity
  8
0
100
AcDbSpline
 62
7
  6
CONTINUOUS
 70
0
 71
3
 72
18
 73
14
 74
0
 42
0.0000001
 43
0.0000001
 44
0.0000000001
 40
0.0
 40
0.0
 40
0.0
 40
0.0
 40
0.0577727153
 40
0.1186173687
 40
0.2474074211
 40
0.3823766994
 40
0.5192118802
 40
0.6534485239
 40
0.7807741636
 40
0.8406253452
 40
0.8973674806
 40
0.950614907
 40
1.0
 40
1.0
 40
1.0
 40
1.0
 10
275.0403195618
 20
238.54893711
 30
0.0
 10
275.0688260447
 20
238.641184208
 30
0.0
 10
275.1218221744
 20
238.8323259008
 30
0.0
 10
275.2121212711
 20
239.2359543254
 30
0.0
 10
275.2932221708
 20
239.7731116343
 30
0.0
 10
275.3397826008
 20
240.4416057362
 30
0.0
 10
275.3355259403
 20
241.1208463311
 30
0.0
 10
275.2805436254
 20
241.7850270716
 30
0.0
 10
275.1926609977
 20
242.3157332723
 30
0.0
 10
275.097183718
 20
242.7121925046
 30
0.0
 10
275.0162995444
 20
242.9844264403
 30
0.0
 10
274.9254671245
 20
243.2349783723
 30
0.0
 10
274.8562647495
 20
243.392122896
 30
0.0
 10
274.8199051677
 20
243.466215976
 30
0.0
  0
SPLINE
  5
339
100
AcDbEntity
  8
0
100
AcDbSpline
 62
7
  6
CONTINUOUS
 70
0
 71
3
 72
16
 73
12
 74
0
 42
0.0000001
 43
0.0000001
 44
0.0000000001
 40
0.0
 40
0.0
 40
0.0
 40
0.0
 40
0.0493289422
 40
0.1025801583
 40
0.2192209513
 40
0.3465450596
 40
0.4807878284
 40
0.6176215863
 40
0.7525894306
 40
0.8814865791
 40
1.0
 40
1.0
 40
1.0
 40
1.0
 10
274.3880185205
 20
233.6228178216
 30
0.0
 10
274.3698608977
 20
233.6598191878
 30
0.0
 10
274.3352982938
 20
233.7383546077
 30
0.0
 10
274.2728738503
 20
233.910664623
 30
0.0
 10
274.2093941862
 20
234.1512949864
 30
0.0
 10
274.1576704353
 20
234.4634120144
 30
0.0
 10
274.1302636573
 20
234.7955140738
 30
0.0
 10
274.1280598245
 20
235.1350894335
 30
0.0
 10
274.1513336331
 20
235.4694344425
 30
0.0
 10
274.1992214843
 20
235.7856630298
 30
0.0
 10
274.2485750122
 20
235.9868484289
 30
0.0
 10
274.2778113235
 20
236.0814572546
 30
0.0
  0
SPLINE
  5
33A
100
AcDbEntity
  8
0
100
AcDbSpline
 62
7
  6
CONTINUOUS
 70
0
 71
3
 72
18
 73
14
 74
0
 42
0.0000001
 43
0.0000001
 44
0.0000000001
 40
0.0
 40
0.0
 40
0.0
 40
0.0
 40
0.0496697214
 40
0.0997951605
 40
0.1508116566
 40
0.2031162989
 40
0.257057567
 40
0.3129209128
 40
0.4311660897
 40
0.5590809963
 40
0.6968986551
 40
0.8442212443
 40
1.0
 40
1.0
 40
1.0
 40
1.0
 10
300.3203833734
 20
197.5573285367
 30
0.0
 10
300.273925174
 20
197.4069884995
 30
0.0
 10
300.1626881518
 20
197.110132138
 30
0.0
 10
299.9434871444
 20
196.6844724097
 30
0.0
 10
299.6728440998
 20
196.2794332921
 30
0.0
 10
299.3521405273
 20
195.8969617521
 30
0.0
 10
298.9828820839
 20
195.5387933844
 30
0.0
 10
298.417782644
 20
195.0871511824
 30
0.0
 10
297.5919516272
 20
194.5943056593
 30
0.0
 10
296.4615729517
 20
194.1348024284
 30
0.0
 10
295.192648442
 20
193.8021158917
 30
0.0
 10
293.8077422426
 20
193.6017554057
 30
0.0
 10
292.8467656516
 20
193.559360522
 30
0.0
 10
292.3532554509
 20
193.559360522
 30
0.0
  0
SPLINE
  5
33B
100
AcDbEntity
  8
0
100
AcDbSpline
 62
7
  6
CONTINUOUS
 70
0
 71
3
 72
25
 73
21
 74
0
 42
0.0000001
 43
0.0000001
 44
0.0000000001
 40
0.0
 40
0.0
 40
0.0
 40
0.0
 40
0.0212736485
 40
0.0427273533
 40
0.0645337508
 40
0.0868512339
 40
0.1335080871
 40
0.1836091637
 40
0.2376390289
 40
0.2957519053
 40
0.3578280507
 40
0.4235291526
 40
0.4923467141
 40
0.5636447226
 40
0.6366942691
 40
0.7107051414
 40
0.7848555551
 40
0.8583102513
 40
0.9302874553
 40
1.0
 40
1.0
 40
1.0
 40
1.0
 10
276.9126071375
 20
204.7908345825
 30
0.0
 10
276.8680093092
 20
204.6465147585
 30
0.0
 10
276.7947488367
 20
204.3513224333
 30
0.0
 10
276.7348330472
 20
203.8961355348
 30
0.0
 10
276.7247654789
 20
203.4296857321
 30
0.0
 10
276.7784867554
 20
202.7863235978
 30
0.0
 10
276.9767344839
 20
201.958717032
 30
0.0
 10
277.4049968215
 20
200.9725820214
 30
0.0
 10
278.0180956751
 20
199.9928708928
 30
0.0
 10
278.8052396232
 20
199.0347873022
 30
0.0
 10
279.7533729115
 20
198.1130495333
 30
0.0
 10
280.847020285
 20
197.2422888533
 30
0.0
 10
282.0683178193
 20
196.436484169
 30
0.0
 10
283.3972873892
 20
195.7087431582
 30
0.0
 10
284.8121304496
 20
195.0709771885
 30
0.0
 10
286.2896094034
 20
194.5336759126
 30
0.0
 10
287.8053584638
 20
194.1057346968
 30
0.0
 10
289.3345519027
 20
193.794038745
 30
0.0
 10
290.8517818823
 20
193.6039424437
 30
0.0
 10
291.8582614673
 20
193.559360522
 30
0.0
 10
292.3532554509
 20
193.559360522
 30
0.0
  0
SPLINE
  5
33C
100
AcDbEntity
  8
0
100
AcDbSpline
 62
7
  6
CONTINUOUS
 70
0
 71
3
 72
11
 73
7
 74
0
 42
0.0000001
 43
0.0000001
 44
0.0000000001
 40
0.0
 40
0.0
 40
0.0
 40
0.0
 40
0.2336526017
 40
0.4745077097
 40
0.7287007442
 40
1.0
 40
1.0
 40
1.0
 40
1.0
 10
264.5451653285
 20
217.5501077432
 30
0.0
 10
264.5329063206
 20
217.5104920001
 30
0.0
 10
264.5167988992
 20
217.4270444282
 30
0.0
 10
264.5195925384
 20
217.2968812182
 30
0.0
 10
264.548857541
 20
217.1633002784
 30
0.0
 10
264.5840167679
 20
217.0764331073
 30
0.0
 10
264.6052292226
 20
217.0332066446
 30
0.0
  0
SPLINE
  5
33D
100
AcDbEntity
  8
0
100
AcDbSpline
 62
7
  6
CONTINUOUS
 70
0
 71
3
 72
16
 73
12
 74
0
 42
0.0000001
 43
0.0000001
 44
0.0000000001
 40
0.0
 40
0.0
 40
0.0
 40
0.0
 40
0.0493289422
 40
0.1025801583
 40
0.2192209513
 40
0.3465450596
 40
0.4807878284
 40
0.6176215863
 40
0.7525894306
 40
0.8814865791
 40
1.0
 40
1.0
 40
1.0
 40
1.0
 10
298.8965144243
 20
242.0953938341
 30
0.0
 10
298.9146720471
 20
242.0583924679
 30
0.0
 10
298.9492346511
 20
241.979857048
 30
0.0
 10
299.0116590945
 20
241.8075470327
 30
0.0
 10
299.0751387587
 20
241.5669166693
 30
0.0
 10
299.1268625095
 20
241.2547996413
 30
0.0
 10
299.1542692876
 20
240.9226975819
 30
0.0
 10
299.1564731204
 20
240.5831222221
 30
0.0
 10
299.1331993118
 20
240.2487772132
 30
0.0
 10
299.0853114606
 20
239.9325486259
 30
0.0
 10
299.0359579326
 20
239.7313632268
 30
0.0
 10
299.0067216214
 20
239.6367544011
 30
0.0
  0
SPLINE
  5
33E
100
AcDbEntity
  8
0
100
AcDbSpline
 62
7
  6
CONTINUOUS
 70
0
 71
3
 72
17
 73
13
 74
0
 42
0.0000001
 43
0.0000001
 44
0.0000000001
 40
0.0
 40
0.0
 40
0.0
 40
0.0
 40
0.0577488571
 40
0.1185987997
 40
0.2474303773
 40
0.3823884942
 40
0.5192334348
 40
0.6534787004
 40
0.7807940641
 40
0.8973823358
 40
0.9506344814
 40
1.0
 40
1.0
 40
1.0
 40
1.0
 10
298.244213383
 20
237.1692745457
 30
0.0
 10
298.2157198639
 20
237.0770693985
 30
0.0
 10
298.1627490456
 20
236.8859614082
 30
0.0
 10
298.0724458537
 20
236.4823129916
 30
0.0
 10
297.9913041434
 20
235.9451247412
 30
0.0
 10
297.9447593967
 20
235.2765858001
 30
0.0
 10
297.9489955293
 20
234.5973779669
 30
0.0
 10
298.003985337
 20
233.9331531663
 30
0.0
 10
298.1074131455
 20
233.3089977304
 30
0.0
 10
298.2342236931
 20
232.8277785832
 30
0.0
 10
298.3591044344
 20
232.4831785131
 30
0.0
 10
298.4282841268
 20
232.3260562948
 30
0.0
 10
298.4646277772
 20
232.2519956797
 30
0.0
  0
SPLINE
  5
33F
100
AcDbEntity
  8
0
100
AcDbSpline
 62
7
  6
CONTINUOUS
 70
0
 71
3
 72
15
 73
11
 74
0
 42
0.0000001
 43
0.0000001
 44
0.0000000001
 40
0.0
 40
0.0
 40
0.0
 40
0.0
 40
0.163730223
 40
0.3152440321
 40
0.4543830519
 40
0.581398808
 40
0.6973553491
 40
0.8040057939
 40
0.9038171616
 40
1.0
 40
1.0
 40
1.0
 40
1.0
 10
321.7697783824
 20
206.9155549953
 30
0.0
 10
321.7410752294
 20
206.9740459049
 30
0.0
 10
321.682078044
 20
207.0849009302
 30
0.0
 10
321.5847775155
 20
207.237549883
 30
0.0
 10
321.4827499264
 20
207.3691131327
 30
0.0
 10
321.3765192645
 20
207.478431693
 30
0.0
 10
321.2667590967
 20
207.5647137338
 30
0.0
 10
321.1540150149
 20
207.6273113155
 30
0.0
 10
321.0389292134
 20
207.6653109627
 30
0.0
 10
320.9606958578
 20
207.6738598177
 30
0.0
 10
320.9224212698
 20
207.6738581805
 30
0.0
  0
SPLINE
  5
340
100
AcDbEntity
  8
0
100
AcDbSpline
 62
7
  6
CONTINUOUS
 70
0
 71
3
 72
15
 73
11
 74
0
 42
0.0000001
 43
0.0000001
 44
0.0000000001
 40
0.0
 40
0.0
 40
0.0
 40
0.0
 40
0.1724557306
 40
0.3317242808
 40
0.4764470677
 40
0.6059670415
 40
0.7208438321
 40
0.8225868749
 40
0.9141334873
 40
1.0
 40
1.0
 40
1.0
 40
1.0
 10
320.3887241213
 20
205.2617280026
 30
0.0
 10
320.404010578
 20
205.3111950406
 30
0.0
 10
320.4364369533
 20
205.405458657
 30
0.0
 10
320.4929666236
 20
205.5370165427
 30
0.0
 10
320.5548615986
 20
205.6517490667
 30
0.0
 10
320.6215358089
 20
205.7480332392
 30
0.0
 10
320.6921602174
 20
205.8248261127
 30
0.0
 10
320.7663458298
 20
205.8811630215
 30
0.0
 10
320.8435443022
 20
205.9158773693
 30
0.0
 10
320.8970689416
 20
205.923886921
 30
0.0
 10
320.9228480179
 20
205.9238850619
 30
0.0
  0
SPLINE
  5
341
100
AcDbEntity
  8
0
100
AcDbSpline
 62
7
  6
CONTINUOUS
 70
0
 71
3
 72
17
 73
13
 74
0
 42
0.0000001
 43
0.0000001
 44
0.0000000001
 40
0.0
 40
0.0
 40
0.0
 40
0.0
 40
0.0577488571
 40
0.1185987997
 40
0.2474303773
 40
0.3823884942
 40
0.5192334348
 40
0.6534787004
 40
0.7807940641
 40
0.8973823358
 40
0.9506344814
 40
1.0
 40
1.0
 40
1.0
 40
1.0
 10
304.0537438384
 20
238.54893711
 30
0.0
 10
304.0822373574
 20
238.6411422571
 30
0.0
 10
304.1352081758
 20
238.8322502475
 30
0.0
 10
304.2255113677
 20
239.2358986641
 30
0.0
 10
304.306653078
 20
239.7730869145
 30
0.0
 10
304.3531978247
 20
240.4416258556
 30
0.0
 10
304.348961692
 20
241.1208336888
 30
0.0
 10
304.2939718844
 20
241.7850584894
 30
0.0
 10
304.1905440758
 20
242.4092139253
 30
0.0
 10
304.0637335283
 20
242.8904330725
 30
0.0
 10
303.938852787
 20
243.2350331426
 30
0.0
 10
303.8696730945
 20
243.3921553609
 30
0.0
 10
303.8333294442
 20
243.466215976
 30
0.0
  0
SPLINE
  5
342
100
AcDbEntity
  8
0
100
AcDbSpline
 62
7
  6
CONTINUOUS
 70
0
 71
3
 72
16
 73
12
 74
0
 42
0.0000001
 43
0.0000001
 44
0.0000000001
 40
0.0
 40
0.0
 40
0.0
 40
0.0
 40
0.0493289422
 40
0.1025801583
 40
0.2192209513
 40
0.3465450596
 40
0.4807878284
 40
0.6176215863
 40
0.7525894306
 40
0.8814865791
 40
1.0
 40
1.0
 40
1.0
 40
1.0
 10
303.4014427971
 20
233.6228178216
 30
0.0
 10
303.3832851742
 20
233.6598191878
 30
0.0
 10
303.3487225703
 20
233.7383546077
 30
0.0
 10
303.2862981269
 20
233.910664623
 30
0.0
 10
303.2228184627
 20
234.1512949864
 30
0.0
 10
303.1710947118
 20
234.4634120144
 30
0.0
 10
303.1436879338
 20
234.7955140738
 30
0.0
 10
303.141484101
 20
235.1350894335
 30
0.0
 10
303.1647579096
 20
235.4694344425
 30
0.0
 10
303.2126457608
 20
235.7856630298
 30
0.0
 10
303.2619992887
 20
235.9868484289
 30
0.0
 10
303.2912356
 20
236.0814572546
 30
0.0
  0
SPLINE
  5
343
100
AcDbEntity
  8
0
100
AcDbSpline
 62
7
  6
CONTINUOUS
 70
0
 71
3
 72
25
 73
21
 74
0
 42
0.0000001
 43
0.0000001
 44
0.0000000001
 40
0.0
 40
0.0
 40
0.0
 40
0.0
 40
0.0697125447
 40
0.1416897487
 40
0.2151444449
 40
0.2892948586
 40
0.3633057309
 40
0.4363552774
 40
0.5076532859
 40
0.5764708474
 40
0.6421719493
 40
0.7042480947
 40
0.7623609711
 40
0.8163908363
 40
0.8664919129
 40
0.9131487661
 40
0.9354662492
 40
0.9572726467
 40
0.9787263515
 40
1.0
 40
1.0
 40
1.0
 40
1.0
 10
284.87973506
 20
208.7888025973
 30
0.0
 10
285.3747290437
 20
208.7888025973
 30
0.0
 10
286.3812086286
 20
208.7442206755
 30
0.0
 10
287.8984386082
 20
208.5541243743
 30
0.0
 10
289.4276320471
 20
208.2424284224
 30
0.0
 10
290.9433811075
 20
207.8144872067
 30
0.0
 10
292.4208600613
 20
207.2771859307
 30
0.0
 10
293.8357031217
 20
206.639419961
 30
0.0
 10
295.1646726917
 20
205.9116789502
 30
0.0
 10
296.3859702259
 20
205.1058742659
 30
0.0
 10
297.4796175995
 20
204.2351135859
 30
0.0
 10
298.4277508877
 20
203.3133758171
 30
0.0
 10
299.2148948358
 20
202.3552922264
 30
0.0
 10
299.8279936894
 20
201.3755810978
 30
0.0
 10
300.2562560271
 20
200.3894460872
 30
0.0
 10
300.4545037555
 20
199.5618395214
 30
0.0
 10
300.5082250321
 20
198.9184773871
 30
0.0
 10
300.4981574638
 20
198.4520275844
 30
0.0
 10
300.4382416743
 20
197.996840686
 30
0.0
 10
300.3649812017
 20
197.7016483608
 30
0.0
 10
300.3203833734
 20
197.5573285367
 30
0.0
  0
SPLINE
  5
344
100
AcDbEntity
  8
0
100
AcDbSpline
 62
7
  6
CONTINUOUS
 70
0
 71
3
 72
18
 73
14
 74
0
 42
0.0000001
 43
0.0000001
 44
0.0000000001
 40
0.0
 40
0.0
 40
0.0
 40
0.0
 40
0.1557787557
 40
0.3031013449
 40
0.4409190037
 40
0.5688339103
 40
0.6870790872
 40
0.742942433
 40
0.7968837011
 40
0.8491883434
 40
0.9002048395
 40
0.9503302786
 40
1.0
 40
1.0
 40
1.0
 40
1.0
 10
284.87973506
 20
208.7888025973
 30
0.0
 10
284.3862248593
 20
208.7888025973
 30
0.0
 10
283.4252482684
 20
208.7464077135
 30
0.0
 10
282.040342069
 20
208.5460472275
 30
0.0
 10
280.7714175593
 20
208.2133606908
 30
0.0
 10
279.6410388837
 20
207.75385746
 30
0.0
 10
278.815207867
 20
207.2610119369
 30
0.0
 10
278.250108427
 20
206.8093697348
 30
0.0
 10
277.8808499837
 20
206.4512013671
 30
0.0
 10
277.5601464111
 20
206.0687298271
 30
0.0
 10
277.2895033665
 20
205.6636907095
 30
0.0
 10
277.0703023591
 20
205.2380309812
 30
0.0
 10
276.959065337
 20
204.9411746197
 30
0.0
 10
276.9126071375
 20
204.7908345825
 30
0.0
  0
SPLINE
  5
345
100
AcDbEntity
  8
0
100
AcDbSpline
 62
7
  6
CONTINUOUS
 70
0
 71
3
 72
18
 73
14
 74
0
 42
0.0000001
 43
0.0000001
 44
0.0000000001
 40
0.0
 40
0.0
 40
0.0
 40
0.0
 40
0.0577727153
 40
0.1186173687
 40
0.2474074211
 40
0.3823766994
 40
0.5192118802
 40
0.6534485239
 40
0.7807741636
 40
0.8406253452
 40
0.8973674806
 40
0.950614907
 40
1.0
 40
1.0
 40
1.0
 40
1.0
 10
273.7439884384
 20
237.1692745457
 30
0.0
 10
273.7154819556
 20
237.0770274477
 30
0.0
 10
273.6624858258
 20
236.8858857549
 30
0.0
 10
273.5721867291
 20
236.4822573303
 30
0.0
 10
273.4910858295
 20
235.9451000214
 30
0.0
 10
273.4445253994
 20
235.2766059195
 30
0.0
 10
273.4487820599
 20
234.5973653246
 30
0.0
 10
273.5037643748
 20
233.9331845841
 30
0.0
 10
273.5916470025
 20
233.4024783834
 30
0.0
 10
273.6871242822
 20
233.0060191511
 30
0.0
 10
273.7680084559
 20
232.7337852154
 30
0.0
 10
273.8588408757
 20
232.4832332834
 30
0.0
 10
273.9280432508
 20
232.3260887597
 30
0.0
 10
273.9644028325
 20
232.2519956797
 30
0.0
  0
SPLINE
  5
346
100
AcDbEntity
  8
0
100
AcDbSpline
 62
7
  6
CONTINUOUS
 70
0
 71
3
 72
16
 73
12
 74
0
 42
0.0000001
 43
0.0000001
 44
0.0000000001
 40
0.0
 40
0.0
 40
0.0
 40
0.0
 40
0.0493289422
 40
0.1025801583
 40
0.2192209513
 40
0.3465450596
 40
0.4807878284
 40
0.6176215863
 40
0.7525894306
 40
0.8814865791
 40
1.0
 40
1.0
 40
1.0
 40
1.0
 10
274.3962894797
 20
242.0953938341
 30
0.0
 10
274.4144471025
 20
242.0583924679
 30
0.0
 10
274.4490097065
 20
241.979857048
 30
0.0
 10
274.5114341499
 20
241.8075470327
 30
0.0
 10
274.574913814
 20
241.5669166693
 30
0.0
 10
274.6266375649
 20
241.2547996413
 30
0.0
 10
274.6540443429
 20
240.9226975819
 30
0.0
 10
274.6562481758
 20
240.5831222221
 30
0.0
 10
274.6329743672
 20
240.2487772132
 30
0.0
 10
274.5850865159
 20
239.9325486259
 30
0.0
 10
274.535732988
 20
239.7313632268
 30
0.0
 10
274.5064966768
 20
239.6367544011
 30
0.0
  0
SPLINE
  5
347
100
AcDbEntity
  8
0
100
AcDbSpline
 62
7
  6
CONTINUOUS
 70
0
 71
3
 72
25
 73
21
 74
0
 42
0.0000001
 43
0.0000001
 44
0.0000000001
 40
0.0
 40
0.0
 40
0.0
 40
0.0
 40
0.0543321926
 40
0.1139575067
 40
0.1785230974
 40
0.2473497109
 40
0.3194126482
 40
0.3934946211
 40
0.4682666998
 40
0.5423595408
 40
0.6144398147
 40
0.6832916392
 40
0.747899296
 40
0.8075426776
 40
0.8619230223
 40
0.911310968
 40
0.9344534619
 40
0.9567826773
 40
0.9785392453
 40
1.0
 40
1.0
 40
1.0
 40
1.0
 10
301.7012671233
 20
212.2943987564
 30
0.0
 10
301.6395561207
 20
212.4201526299
 30
0.0
 10
301.4827361256
 20
212.6708426729
 30
0.0
 10
301.1781795283
 20
213.0179397092
 30
0.0
 10
300.8013987265
 20
213.3450890621
 30
0.0
 10
300.3626561248
 20
213.6437922548
 30
0.0
 10
299.8734117645
 20
213.9062360932
 30
0.0
 10
299.3467799151
 20
214.125460245
 30
0.0
 10
298.7968518703
 20
214.2956176693
 30
0.0
 10
298.2383582278
 20
214.4121132306
 30
0.0
 10
297.6862552613
 20
214.4718200168
 30
0.0
 10
297.1552522798
 20
214.4731558054
 30
0.0
 10
296.659380539
 20
214.4160315536
 30
0.0
 10
296.2115263872
 20
214.3016222926
 30
0.0
 10
295.8234087537
 20
214.1324711933
 30
0.0
 10
295.5523053103
 20
213.9441304497
 30
0.0
 10
295.3796238514
 20
213.7701253142
 30
0.0
 10
295.27399887
 20
213.6320294764
 30
0.0
 10
295.1905014224
 20
213.4844966768
 30
0.0
 10
295.1498203739
 20
213.3802761841
 30
0.0
 10
295.1334896916
 20
213.3274108445
 30
0.0
  0
SPLINE
  5
348
100
AcDbEntity
  8
0
100
AcDbSpline
 62
7
  6
CONTINUOUS
 70
0
 71
3
 72
15
 73
11
 74
0
 42
0.0000001
 43
0.0000001
 44
0.0000000001
 40
0.0
 40
0.0
 40
0.0
 40
0.0
 40
0.155715393
 40
0.303228513
 40
0.4411403008
 40
0.569082114
 40
0.6873742644
 40
0.7971189338
 40
0.9003396054
 40
1.0
 40
1.0
 40
1.0
 40
1.0
 10
265.6832632418
 20
218.1210239357
 30
0.0
 10
265.6128344889
 20
218.1210239357
 30
0.0
 10
265.4755852137
 20
218.1149206472
 30
0.0
 10
265.277751544
 20
218.0863852684
 30
0.0
 10
265.0964621723
 20
218.0388493814
 30
0.0
 10
264.934972892
 20
217.9732232784
 30
0.0
 10
264.7961072051
 20
217.890338021
 30
0.0
 10
264.6823249639
 20
217.7914281064
 30
0.0
 10
264.5962926414
 20
217.67786826
 30
0.0
 10
264.5584904522
 20
217.5931687055
 30
0.0
 10
264.5451653285
 20
217.5501077432
 30
0.0
  0
SPLINE
  5
349
100
AcDbEntity
  8
0
100
AcDbSpline
 62
7
  6
CONTINUOUS
 70
0
 71
3
 72
25
 73
21
 74
0
 42
0.0000001
 43
0.0000001
 44
0.0000000001
 40
0.0
 40
0.0
 40
0.0
 40
0.0
 40
0.0543321926
 40
0.1139575067
 40
0.1785230974
 40
0.2473497109
 40
0.3194126482
 40
0.3934946211
 40
0.4682666998
 40
0.5423595408
 40
0.6144398147
 40
0.6832916392
 40
0.747899296
 40
0.8075426776
 40
0.8619230223
 40
0.911310968
 40
0.9344534619
 40
0.9567826773
 40
0.9785392453
 40
1.0
 40
1.0
 40
1.0
 40
1.0
 10
273.7839055416
 20
212.2943987564
 30
0.0
 10
273.7221945391
 20
212.4201526299
 30
0.0
 10
273.565374544
 20
212.6708426729
 30
0.0
 10
273.2608179466
 20
213.0179397092
 30
0.0
 10
272.8840371448
 20
213.3450890621
 30
0.0
 10
272.4452945432
 20
213.6437922548
 30
0.0
 10
271.9560501829
 20
213.9062360932
 30
0.0
 10
271.4294183335
 20
214.125460245
 30
0.0
 10
270.8794902887
 20
214.2956176693
 30
0.0
 10
270.3209966462
 20
214.4121132306
 30
0.0
 10
269.7688936797
 20
214.4718200168
 30
0.0
 10
269.2378906982
 20
214.4731558054
 30
0.0
 10
268.7420189574
 20
214.4160315536
 30
0.0
 10
268.2941648055
 20
214.3016222926
 30
0.0
 10
267.9060471721
 20
214.1324711933
 30
0.0
 10
267.6349437287
 20
213.9441304497
 30
0.0
 10
267.4622622697
 20
213.7701253142
 30
0.0
 10
267.3566372884
 20
213.6320294764
 30
0.0
 10
267.2731398407
 20
213.4844966768
 30
0.0
 10
267.2324587923
 20
213.3802761841
 30
0.0
 10
267.21612811
 20
213.3274108445
 30
0.0
  0
SPLINE
  5
34A
100
AcDbEntity
  8
0
100
AcDbSpline
 62
7
  6
CONTINUOUS
 70
0
 71
3
 72
25
 73
21
 74
0
 42
0.0000001
 43
0.0000001
 44
0.0000000001
 40
0.0
 40
0.0
 40
0.0
 40
0.0
 40
0.0543321926
 40
0.1139575067
 40
0.1785230974
 40
0.2473497109
 40
0.3194126482
 40
0.3934946211
 40
0.4682666998
 40
0.5423595408
 40
0.6144398147
 40
0.6832916392
 40
0.747899296
 40
0.8075426776
 40
0.8619230223
 40
0.911310968
 40
0.9344534619
 40
0.9567826773
 40
0.9785392453
 40
1.0
 40
1.0
 40
1.0
 40
1.0
 10
283.0297179109
 20
193.4534032747
 30
0.0
 10
282.9680069084
 20
193.5791571482
 30
0.0
 10
282.8111869133
 20
193.8298471912
 30
0.0
 10
282.5066303159
 20
194.1769442275
 30
0.0
 10
282.1298495142
 20
194.5040935804
 30
0.0
 10
281.6911069125
 20
194.8027967731
 30
0.0
 10
281.2018625522
 20
195.0652406115
 30
0.0
 10
280.6752307028
 20
195.2844647633
 30
0.0
 10
280.125302658
 20
195.4546221876
 30
0.0
 10
279.5668090155
 20
195.5711177489
 30
0.0
 10
279.014706049
 20
195.6308245351
 30
0.0
 10
278.4837030675
 20
195.6321603237
 30
0.0
 10
277.9878313267
 20
195.5750360718
 30
0.0
 10
277.5399771748
 20
195.4606268108
 30
0.0
 10
277.1518595414
 20
195.2914757116
 30
0.0
 10
276.880756098
 20
195.103134968
 30
0.0
 10
276.708074639
 20
194.9291298325
 30
0.0
 10
276.6024496577
 20
194.7910339947
 30
0.0
 10
276.51895221
 20
194.6435011951
 30
0.0
 10
276.4782711616
 20
194.5392807024
 30
0.0
 10
276.4619404793
 20
194.4864153628
 30
0.0
  0
SPLINE
  5
34B
100
AcDbEntity
  8
0
100
AcDbSpline
 62
7
  6
CONTINUOUS
 70
0
 71
3
 72
27
 73
23
 74
0
 42
0.0000001
 43
0.0000001
 44
0.0000000001
 40
0.0
 40
0.0
 40
0.0
 40
0.0
 40
0.0212717471
 40
0.0427237324
 40
0.0645282393
 40
0.0868445563
 40
0.1098118248
 40
0.1335489558
 40
0.1836462191
 40
0.2101691284
 40
0.2377051769
 40
0.2958143593
 40
0.3578859537
 40
0.4235814035
 40
0.4923929624
 40
0.5636848297
 40
0.6367281453
 40
0.7107320108
 40
0.7848753716
 40
0.8583245495
 40
0.9302916831
 40
1.0
 40
1.0
 40
1.0
 40
1.0
 10
301.523584521
 20
201.45082827
 30
0.0
 10
301.5681743696
 20
201.5951468274
 30
0.0
 10
301.6413558772
 20
201.8903526766
 30
0.0
 10
301.7012513351
 20
202.3455334323
 30
0.0
 10
301.7113214286
 20
202.8119648008
 30
0.0
 10
301.6714773888
 20
203.2875118361
 30
0.0
 10
301.5821448146
 20
203.770213798
 30
0.0
 10
301.3941847668
 20
204.4322471769
 30
0.0
 10
301.1089674056
 20
205.0894090089
 30
0.0
 10
300.7413281156
 20
205.7316094513
 30
0.0
 10
300.2982381172
 20
206.3942283575
 30
0.0
 10
299.6305256667
 20
207.2068228009
 30
0.0
 10
298.6824446667
 20
208.1284338422
 30
0.0
 10
297.5887832678
 20
208.9991907645
 30
0.0
 10
296.3675104379
 20
209.8049612902
 30
0.0
 10
295.0385582005
 20
210.5326755335
 30
0.0
 10
293.6237340841
 20
211.1703954264
 30
0.0
 10
292.1462878828
 20
211.707665727
 30
0.0
 10
290.6305730575
 20
212.135598034
 30
0.0
 10
289.101433562
 20
212.4472656998
 30
0.0
 10
287.5842451779
 20
212.637369736
 30
0.0
 10
286.5778001364
 20
212.6819374802
 30
0.0
 10
286.0828036139
 20
212.6819374802
 30
0.0
  0
SPLINE
  5
34C
100
AcDbEntity
  8
0
100
AcDbSpline
 62
7
  6
CONTINUOUS
 70
0
 71
3
 72
17
 73
13
 74
0
 42
0.0000001
 43
0.0000001
 44
0.0000000001
 40
0.0
 40
0.0
 40
0.0
 40
0.0
 40
0.1558049068
 40
0.3031398664
 40
0.4409782449
 40
0.5689077541
 40
0.6871664994
 40
0.7968580764
 40
0.8491690077
 40
0.9001919825
 40
0.9503234814
 40
1.0
 40
1.0
 40
1.0
 40
1.0
 10
286.0828036139
 20
212.6819374802
 30
0.0
 10
285.5892528151
 20
212.6819374802
 30
0.0
 10
284.628239562
 20
212.6395552407
 30
0.0
 10
283.2432515363
 20
212.4391365264
 30
0.0
 10
281.9743525831
 20
212.1064942612
 30
0.0
 10
280.8437318586
 20
211.646737697
 30
0.0
 10
279.8714500937
 20
211.0666497027
 30
0.0
 10
279.197276092
 20
210.4796262395
 30
0.0
 10
278.7630437193
 20
209.9616041068
 30
0.0
 10
278.4923568124
 20
209.5565442274
 30
0.0
 10
278.2732609288
 20
209.1308138199
 30
0.0
 10
278.1619964614
 20
208.833954586
 30
0.0
 10
278.1155430977
 20
208.6836046151
 30
0.0
  0
SPLINE
  5
34D
100
AcDbEntity
  8
0
100
AcDbSpline
 62
7
  6
CONTINUOUS
 70
0
 71
3
 72
25
 73
21
 74
0
 42
0.0000001
 43
0.0000001
 44
0.0000000001
 40
0.0
 40
0.0
 40
0.0
 40
0.0
 40
0.0543321926
 40
0.1139575067
 40
0.1785230974
 40
0.2473497109
 40
0.3194126482
 40
0.3934946211
 40
0.4682666998
 40
0.5423595408
 40
0.6144398147
 40
0.6832916392
 40
0.747899296
 40
0.8075426776
 40
0.8619230223
 40
0.911310968
 40
0.9344534619
 40
0.9567826773
 40
0.9785392453
 40
1.0
 40
1.0
 40
1.0
 40
1.0
 10
310.9470794926
 20
193.4534032747
 30
0.0
 10
310.88536849
 20
193.5791571482
 30
0.0
 10
310.7285484949
 20
193.8298471912
 30
0.0
 10
310.4239918976
 20
194.1769442275
 30
0.0
 10
310.0472110958
 20
194.5040935804
 30
0.0
 10
309.6084684941
 20
194.8027967731
 30
0.0
 10
309.1192241338
 20
195.0652406115
 30
0.0
 10
308.5925922844
 20
195.2844647633
 30
0.0
 10
308.0426642396
 20
195.4546221876
 30
0.0
 10
307.4841705971
 20
195.5711177489
 30
0.0
 10
306.9320676306
 20
195.6308245351
 30
0.0
 10
306.4010646491
 20
195.6321603237
 30
0.0
 10
305.9051929083
 20
195.5750360718
 30
0.0
 10
305.4573387565
 20
195.4606268108
 30
0.0
 10
305.069221123
 20
195.2914757116
 30
0.0
 10
304.7981176796
 20
195.103134968
 30
0.0
 10
304.6254362207
 20
194.9291298325
 30
0.0
 10
304.5198112393
 20
194.7910339947
 30
0.0
 10
304.4363137917
 20
194.6435011951
 30
0.0
 10
304.3956327432
 20
194.5392807024
 30
0.0
 10
304.3793020609
 20
194.4864153628
 30
0.0
  0
SPLINE
  5
34E
100
AcDbEntity
  8
0
100
AcDbSpline
 62
7
  6
CONTINUOUS
 70
0
 71
3
 72
11
 73
7
 74
0
 42
0.0000001
 43
0.0000001
 44
0.0000000001
 40
0.0
 40
0.0
 40
0.0
 40
0.0
 40
0.2336526017
 40
0.4745077097
 40
0.7287007442
 40
1.0
 40
1.0
 40
1.0
 40
1.0
 10
315.0939622902
 20
192.584325142
 30
0.0
 10
315.1062212981
 20
192.6239408851
 30
0.0
 10
315.1223287195
 20
192.707388457
 30
0.0
 10
315.1195350803
 20
192.837551667
 30
0.0
 10
315.0902700778
 20
192.9711326068
 30
0.0
 10
315.0551108508
 20
193.0579997779
 30
0.0
 10
315.0338983961
 20
193.1012262406
 30
0.0
  0
SPLINE
  5
34F
100
AcDbEntity
  8
0
100
AcDbSpline
 62
7
  6
CONTINUOUS
 70
0
 71
3
 72
25
 73
21
 74
0
 42
0.0000001
 43
0.0000001
 44
0.0000000001
 40
0.0
 40
0.0
 40
0.0
 40
0.0
 40
0.0543358683
 40
0.1139541046
 40
0.178520979
 40
0.2473463607
 40
0.3194071666
 40
0.3934890929
 40
0.4682602808
 40
0.5423519377
 40
0.6144330053
 40
0.6832860388
 40
0.7478932871
 40
0.8075372553
 40
0.8619202919
 40
0.9113104614
 40
0.9344526571
 40
0.9567821809
 40
0.9785389087
 40
1.0
 40
1.0
 40
1.0
 40
1.0
 10
302.379052224
 20
214.4877141835
 30
0.0
 10
302.3173383235
 20
214.6134739625
 30
0.0
 10
302.1605422971
 20
214.8641620863
 30
0.0
 10
301.8559771615
 20
215.2112328838
 30
0.0
 10
301.479224827
 20
215.538369632
 30
0.0
 10
301.0404988121
 20
215.837068345
 30
0.0
 10
300.5512832565
 20
216.0995222098
 30
0.0
 10
300.0246722101
 20
216.3187472513
 30
0.0
 10
299.4747583116
 20
216.4888915459
 30
0.0
 10
298.916282948
 20
216.6053952588
 30
0.0
 10
298.3641938499
 20
216.6651403137
 30
0.0
 10
297.8331964138
 20
216.6664962962
 30
0.0
 10
297.3373322145
 20
216.6093660248
 30
0.0
 10
296.8894766504
 20
216.4949786155
 30
0.0
 10
296.5013342771
 20
216.3258753177
 30
0.0
 10
296.2301997294
 20
216.1375654581
 30
0.0
 10
296.0575175671
 20
215.9635590213
 30
0.0
 10
295.9518824938
 20
215.8254782655
 30
0.0
 10
295.8683299124
 20
215.6779766155
 30
0.0
 10
295.8276617101
 20
215.5737506108
 30
0.0
 10
295.8113295777
 20
215.5208860092
 30
0.0
  0
SPLINE
  5
350
100
AcDbEntity
  8
0
100
AcDbSpline
 62
7
  6
CONTINUOUS
 70
0
 71
3
 72
14
 73
10
 74
0
 42
0.0000001
 43
0.0000001
 44
0.0000000001
 40
0.0
 40
0.0
 40
0.0
 40
0.0
 40
0.0961726705
 40
0.1960106025
 40
0.3027081782
 40
0.4187614851
 40
0.5459674572
 40
0.6852032124
 40
1.0
 40
1.0
 40
1.0
 40
1.0
 10
320.9228480179
 20
205.9238850619
 30
0.0
 10
320.9419669142
 20
205.9238836831
 30
0.0
 10
320.9810539557
 20
205.9195729621
 30
0.0
 10
321.0385243953
 20
205.9004878284
 30
0.0
 10
321.0948659801
 20
205.8691848651
 30
0.0
 10
321.1497315554
 20
205.8260103303
 30
0.0
 10
321.2027890054
 20
205.7712734059
 30
0.0
 10
321.2736660588
 20
205.679803843
 30
0.0
 10
321.3185931713
 20
205.6009136668
 30
0.0
 10
321.3461626944
 20
205.5447328534
 30
0.0
  0
SPLINE
  5
351
100
AcDbEntity
  8
0
100
AcDbSpline
 62
7
  6
CONTINUOUS
 70
0
 71
3
 72
11
 73
7
 74
0
 42
0.0000001
 43
0.0000001
 44
0.0000000001
 40
0.0
 40
0.0
 40
0.0
 40
0.0
 40
0.233661247
 40
0.4744503287
 40
0.7285791038
 40
1.0
 40
1.0
 40
1.0
 40
1.0
 10
273.9042553563
 20
211.2613866683
 30
0.0
 10
273.9287168515
 20
211.3405729036
 30
0.0
 10
273.9607977557
 20
211.5073419304
 30
0.0
 10
273.9551268008
 20
211.7674160007
 30
0.0
 10
273.8966501156
 20
212.0343750647
 30
0.0
 10
273.8263172358
 20
212.2079727609
 30
0.0
 10
273.7839055416
 20
212.2943987564
 30
0.0
  0
SPLINE
  5
352
100
AcDbEntity
  8
0
100
AcDbSpline
 62
7
  6
CONTINUOUS
 70
0
 71
3
 72
11
 73
7
 74
0
 42
0.0000001
 43
0.0000001
 44
0.0000000001
 40
0.0
 40
0.0
 40
0.0
 40
0.0
 40
0.233661247
 40
0.4744503287
 40
0.7285791038
 40
1.0
 40
1.0
 40
1.0
 40
1.0
 10
311.0674293072
 20
192.4203911866
 30
0.0
 10
311.0918908024
 20
192.4995774219
 30
0.0
 10
311.1239717067
 20
192.6663464487
 30
0.0
 10
311.1183007517
 20
192.926420519
 30
0.0
 10
311.0598240665
 20
193.193379583
 30
0.0
 10
310.9894911867
 20
193.3669772792
 30
0.0
 10
310.9470794926
 20
193.4534032747
 30
0.0
  0
SPLINE
  5
353
100
AcDbEntity
  8
0
100
AcDbSpline
 62
7
  6
CONTINUOUS
 70
0
 71
3
 72
11
 73
7
 74
0
 42
0.0000001
 43
0.0000001
 44
0.0000000001
 40
0.0
 40
0.0
 40
0.0
 40
0.0
 40
0.2336737792
 40
0.474444227
 40
0.7285372816
 40
1.0
 40
1.0
 40
1.0
 40
1.0
 10
274.5819856717
 20
213.4545423577
 30
0.0
 10
274.6064546722
 20
213.5337447502
 30
0.0
 10
274.6385869237
 20
213.7005292551
 30
0.0
 10
274.6329154296
 20
213.9606314351
 30
0.0
 10
274.5744793466
 20
214.2276388677
 30
0.0
 10
274.504115631
 20
214.4012610967
 30
0.0
 10
274.4616906424
 20
214.4877141835
 30
0.0
  0
SPLINE
  5
354
100
AcDbEntity
  8
0
100
AcDbSpline
 62
7
  6
CONTINUOUS
 70
0
 71
3
 72
11
 73
7
 74
0
 42
0.0000001
 43
0.0000001
 44
0.0000000001
 40
0.0
 40
0.0
 40
0.0
 40
0.0
 40
0.2336737792
 40
0.474444227
 40
0.7285372816
 40
1.0
 40
1.0
 40
1.0
 40
1.0
 10
311.7451596227
 20
194.613546876
 30
0.0
 10
311.7696286231
 20
194.6927492685
 30
0.0
 10
311.8017608746
 20
194.8595337734
 30
0.0
 10
311.7960893805
 20
195.1196359534
 30
0.0
 10
311.7376532976
 20
195.386643386
 30
0.0
 10
311.667289582
 20
195.560265615
 30
0.0
 10
311.6248645933
 20
195.6467187017
 30
0.0
  0
SPLINE
  5
355
100
AcDbEntity
  8
0
100
AcDbSpline
 62
7
  6
CONTINUOUS
 70
0
 71
3
 72
25
 73
21
 74
0
 42
0.0000001
 43
0.0000001
 44
0.0000000001
 40
0.0
 40
0.0
 40
0.0
 40
0.0
 40
0.0543358683
 40
0.1139541046
 40
0.178520979
 40
0.2473463607
 40
0.3194071666
 40
0.3934890929
 40
0.4682602808
 40
0.5423519377
 40
0.6144330053
 40
0.6832860388
 40
0.7478932871
 40
0.8075372553
 40
0.8619202919
 40
0.9113104614
 40
0.9344526571
 40
0.9567821809
 40
0.9785389087
 40
1.0
 40
1.0
 40
1.0
 40
1.0
 10
274.4616906424
 20
214.4877141835
 30
0.0
 10
274.3999767419
 20
214.6134739625
 30
0.0
 10
274.2431807154
 20
214.8641620863
 30
0.0
 10
273.9386155798
 20
215.2112328838
 30
0.0
 10
273.5618632453
 20
215.538369632
 30
0.0
 10
273.1231372305
 20
215.837068345
 30
0.0
 10
272.6339216749
 20
216.0995222098
 30
0.0
 10
272.1073106285
 20
216.3187472513
 30
0.0
 10
271.5573967299
 20
216.4888915459
 30
0.0
 10
270.9989213663
 20
216.6053952588
 30
0.0
 10
270.4468322682
 20
216.6651403137
 30
0.0
 10
269.9158348321
 20
216.6664962962
 30
0.0
 10
269.4199706328
 20
216.6093660248
 30
0.0
 10
268.9721150688
 20
216.4949786155
 30
0.0
 10
268.5839726955
 20
216.3258753177
 30
0.0
 10
268.3128381478
 20
216.1375654581
 30
0.0
 10
268.1401559855
 20
215.9635590213
 30
0.0
 10
268.0345209122
 20
215.8254782655
 30
0.0
 10
267.9509683308
 20
215.6779766155
 30
0.0
 10
267.9103001284
 20
215.5737506108
 30
0.0
 10
267.8939679961
 20
215.5208860092
 30
0.0
  0
SPLINE
  5
356
100
AcDbEntity
  8
0
100
AcDbSpline
 62
7
  6
CONTINUOUS
 70
0
 71
3
 72
17
 73
13
 74
0
 42
0.0000001
 43
0.0000001
 44
0.0000000001
 40
0.0
 40
0.0
 40
0.0
 40
0.0
 40
0.1574945238
 40
0.3080122288
 40
0.4492845333
 40
0.5797006306
 40
0.6985732674
 40
0.8064638672
 40
0.8569876433
 40
0.9057188353
 40
0.9531858125
 40
1.0
 40
1.0
 40
1.0
 40
1.0
 10
280.265942218
 20
197.7516518671
 30
0.0
 10
280.0810601122
 20
197.7816549121
 30
0.0
 10
279.7163387393
 20
197.8228812255
 30
0.0
 10
279.1809861317
 20
197.8266278802
 30
0.0
 10
278.6806243751
 20
197.7711691528
 30
0.0
 10
278.2284696104
 20
197.6576854085
 30
0.0
 10
277.8364626265
 20
197.4887331543
 30
0.0
 10
277.5625365279
 20
197.2998894818
 30
0.0
 10
277.3881170294
 20
197.1250868026
 30
0.0
 10
277.2814789504
 20
196.9862965976
 30
0.0
 10
277.1971878915
 20
196.8379532677
 30
0.0
 10
277.1562140179
 20
196.7330837344
 30
0.0
 10
277.1397803654
 20
196.6798905275
 30
0.0
  0
SPLINE
  5
357
100
AcDbEntity
  8
0
100
AcDbSpline
 62
7
  6
CONTINUOUS
 70
0
 71
3
 72
15
 73
11
 74
0
 42
0.0000001
 43
0.0000001
 44
0.0000000001
 40
0.0
 40
0.0
 40
0.0
 40
0.0
 40
0.1002298593
 40
0.2118947397
 40
0.3337719689
 40
0.4637212123
 40
0.5987500946
 40
0.7354337856
 40
0.8703701013
 40
1.0
 40
1.0
 40
1.0
 40
1.0
 10
303.2897949247
 20
217.0332066446
 30
0.0
 10
303.252860693
 20
217.1084707386
 30
0.0
 10
303.1550535618
 20
217.2581424227
 30
0.0
 10
302.9613582316
 20
217.4607819545
 30
0.0
 10
302.7197526599
 20
217.6470393621
 30
0.0
 10
302.4393631328
 20
217.810170243
 30
0.0
 10
302.1304582845
 20
217.9441326535
 30
0.0
 10
301.8045720792
 20
218.044055704
 30
0.0
 10
301.4740206219
 20
218.1060197311
 30
0.0
 10
301.2525450991
 20
218.1210239357
 30
0.0
 10
301.1441151354
 20
218.1210239357
 30
0.0
  0
SPLINE
  5
358
100
AcDbEntity
  8
0
100
AcDbSpline
 62
7
  6
CONTINUOUS
 70
0
 71
3
 72
15
 73
11
 74
0
 42
0.0000001
 43
0.0000001
 44
0.0000000001
 40
0.0
 40
0.0
 40
0.0
 40
0.0
 40
0.1724557306
 40
0.3317242808
 40
0.4764470677
 40
0.6059670415
 40
0.7208438321
 40
0.8225868749
 40
0.9141334873
 40
1.0
 40
1.0
 40
1.0
 40
1.0
 10
319.0923929979
 20
203.8820654383
 30
0.0
 10
319.0771065412
 20
203.8325984003
 30
0.0
 10
319.0446801659
 20
203.7383347838
 30
0.0
 10
318.9881504955
 20
203.6067768981
 30
0.0
 10
318.9262555206
 20
203.4920443742
 30
0.0
 10
318.8595813103
 20
203.3957602016
 30
0.0
 10
318.7889569018
 20
203.3189673282
 30
0.0
 10
318.7147712894
 20
203.2626304193
 30
0.0
 10
318.637572817
 20
203.2279160716
 30
0.0
 10
318.5840481776
 20
203.2199065198
 30
0.0
 10
318.5582691013
 20
203.219908379
 30
0.0
  0
SPLINE
  5
359
100
AcDbEntity
  8
0
100
AcDbSpline
 62
7
  6
CONTINUOUS
 70
0
 71
3
 72
11
 73
7
 74
0
 42
0.0000001
 43
0.0000001
 44
0.0000000001
 40
0.0
 40
0.0
 40
0.0
 40
0.0
 40
0.233661247
 40
0.4744503287
 40
0.7285791038
 40
1.0
 40
1.0
 40
1.0
 40
1.0
 10
301.8216169379
 20
211.2613866683
 30
0.0
 10
301.8460784331
 20
211.3405729036
 30
0.0
 10
301.8781593374
 20
211.5073419304
 30
0.0
 10
301.8724883824
 20
211.7674160007
 30
0.0
 10
301.8140116972
 20
212.0343750647
 30
0.0
 10
301.7436788174
 20
212.2079727609
 30
0.0
 10
301.7012671233
 20
212.2943987564
 30
0.0
  0
SPLINE
  5
35A
100
AcDbEntity
  8
0
100
AcDbSpline
 62
7
  6
CONTINUOUS
 70
0
 71
3
 72
11
 73
7
 74
0
 42
0.0000001
 43
0.0000001
 44
0.0000000001
 40
0.0
 40
0.0
 40
0.0
 40
0.0
 40
0.2336737792
 40
0.474444227
 40
0.7285372816
 40
1.0
 40
1.0
 40
1.0
 40
1.0
 10
302.4993472534
 20
213.4545423577
 30
0.0
 10
302.5238162538
 20
213.5337447502
 30
0.0
 10
302.5559485053
 20
213.7005292551
 30
0.0
 10
302.5502770112
 20
213.9606314351
 30
0.0
 10
302.4918409283
 20
214.2276388677
 30
0.0
 10
302.4214772127
 20
214.4012610967
 30
0.0
 10
302.379052224
 20
214.4877141835
 30
0.0
  0
SPLINE
  5
35B
100
AcDbEntity
  8
0
100
AcDbSpline
 62
7
  6
CONTINUOUS
 70
0
 71
3
 72
25
 73
21
 74
0
 42
0.0000001
 43
0.0000001
 44
0.0000000001
 40
0.0
 40
0.0
 40
0.0
 40
0.0
 40
0.0543358683
 40
0.1139541046
 40
0.178520979
 40
0.2473463607
 40
0.3194071666
 40
0.3934890929
 40
0.4682602808
 40
0.5423519377
 40
0.6144330053
 40
0.6832860388
 40
0.7478932871
 40
0.8075372553
 40
0.8619202919
 40
0.9113104614
 40
0.9344526571
 40
0.9567821809
 40
0.9785389087
 40
1.0
 40
1.0
 40
1.0
 40
1.0
 10
311.6248645933
 20
195.6467187017
 30
0.0
 10
311.5631506928
 20
195.7724784808
 30
0.0
 10
311.4063546664
 20
196.0231666046
 30
0.0
 10
311.1017895308
 20
196.3702374021
 30
0.0
 10
310.7250371963
 20
196.6973741503
 30
0.0
 10
310.2863111814
 20
196.9960728633
 30
0.0
 10
309.7970956258
 20
197.2585267281
 30
0.0
 10
309.2704845795
 20
197.4777517696
 30
0.0
 10
308.7205706809
 20
197.6478960642
 30
0.0
 10
308.1620953173
 20
197.7643997771
 30
0.0
 10
307.6100062192
 20
197.824144832
 30
0.0
 10
307.0790087831
 20
197.8255008145
 30
0.0
 10
306.5831445838
 20
197.7683705431
 30
0.0
 10
306.1352890197
 20
197.6539831337
 30
0.0
 10
305.7471466464
 20
197.484879836
 30
0.0
 10
305.4760120987
 20
197.2965699764
 30
0.0
 10
305.3033299364
 20
197.1225635396
 30
0.0
 10
305.1976948631
 20
196.9844827838
 30
0.0
 10
305.1141422817
 20
196.8369811338
 30
0.0
 10
305.0734740794
 20
196.7327551291
 30
0.0
 10
305.057141947
 20
196.6798905275
 30
0.0
  0
SPLINE
  5
35C
100
AcDbEntity
  8
0
100
AcDbSpline
 62
7
  6
CONTINUOUS
 70
0
 71
3
 72
12
 73
8
 74
0
 42
0.0000001
 43
0.0000001
 44
0.0000000001
 40
0.0
 40
0.0
 40
0.0
 40
0.0
 40
0.2927839665
 40
0.5511766137
 40
0.7827860176
 40
0.8923602836
 40
1.0
 40
1.0
 40
1.0
 40
1.0
 10
317.9539921287
 20
201.8331115074
 30
0.0
 10
317.9979699109
 20
201.7771726197
 30
0.0
 10
318.0878677225
 20
201.6769917166
 30
0.0
 10
318.2389228427
 20
201.5594041497
 30
0.0
 10
318.3728756097
 20
201.4976557988
 30
0.0
 10
318.4796637322
 20
201.4738596655
 30
0.0
 10
318.5325358344
 20
201.4699341414
 30
0.0
 10
318.5586958494
 20
201.4699352604
 30
0.0
  0
SPLINE
  5
35D
100
AcDbEntity
  8
0
100
AcDbSpline
 62
7
  6
CONTINUOUS
 70
0
 71
3
 72
17
 73
13
 74
0
 42
0.0000001
 43
0.0000001
 44
0.0000000001
 40
0.0
 40
0.0
 40
0.0
 40
0.0
 40
0.0577488571
 40
0.1185987997
 40
0.2474303773
 40
0.3823884942
 40
0.5192334348
 40
0.6534787004
 40
0.7807940641
 40
0.8973823358
 40
0.9506344814
 40
1.0
 40
1.0
 40
1.0
 40
1.0
 10
302.7574127149
 20
237.1692745457
 30
0.0
 10
302.7289191958
 20
237.0770693985
 30
0.0
 10
302.6759483775
 20
236.8859614082
 30
0.0
 10
302.5856451856
 20
236.4823129916
 30
0.0
 10
302.5045034753
 20
235.9451247412
 30
0.0
 10
302.4579587286
 20
235.2765858001
 30
0.0
 10
302.4621948612
 20
234.5973779669
 30
0.0
 10
302.5171846689
 20
233.9331531663
 30
0.0
 10
302.6206124774
 20
233.3089977304
 30
0.0
 10
302.747423025
 20
232.8277785832
 30
0.0
 10
302.8723037663
 20
232.4831785131
 30
0.0
 10
302.9414834588
 20
232.3260562948
 30
0.0
 10
302.9778271091
 20
232.2519956797
 30
0.0
  0
SPLINE
  5
35E
100
AcDbEntity
  8
0
100
AcDbSpline
 62
7
  6
CONTINUOUS
 70
0
 71
3
 72
16
 73
12
 74
0
 42
0.0000001
 43
0.0000001
 44
0.0000000001
 40
0.0
 40
0.0
 40
0.0
 40
0.0
 40
0.0493289422
 40
0.1025801583
 40
0.2192209513
 40
0.3465450596
 40
0.4807878284
 40
0.6176215863
 40
0.7525894306
 40
0.8814865791
 40
1.0
 40
1.0
 40
1.0
 40
1.0
 10
303.4097137562
 20
242.0953938341
 30
0.0
 10
303.427871379
 20
242.0583924679
 30
0.0
 10
303.462433983
 20
241.979857048
 30
0.0
 10
303.5248584264
 20
241.8075470327
 30
0.0
 10
303.5883380906
 20
241.5669166693
 30
0.0
 10
303.6400618415
 20
241.2547996413
 30
0.0
 10
303.6674686195
 20
240.9226975819
 30
0.0
 10
303.6696724523
 20
240.5831222221
 30
0.0
 10
303.6463986437
 20
240.2487772132
 30
0.0
 10
303.5985107925
 20
239.9325486259
 30
0.0
 10
303.5491572645
 20
239.7313632268
 30
0.0
 10
303.5199209533
 20
239.6367544011
 30
0.0
  0
SPLINE
  5
35F
100
AcDbEntity
  8
0
100
AcDbSpline
 62
7
  6
CONTINUOUS
 70
0
 71
3
 72
11
 73
7
 74
0
 42
0.0000001
 43
0.0000001
 44
0.0000000001
 40
0.0
 40
0.0
 40
0.0
 40
0.0
 40
0.233661247
 40
0.4744503287
 40
0.7285791038
 40
1.0
 40
1.0
 40
1.0
 40
1.0
 10
283.1500677256
 20
192.4203911866
 30
0.0
 10
283.1745292208
 20
192.4995774219
 30
0.0
 10
283.206610125
 20
192.6663464487
 30
0.0
 10
283.2009391701
 20
192.926420519
 30
0.0
 10
283.1424624849
 20
193.193379583
 30
0.0
 10
283.0721296051
 20
193.3669772792
 30
0.0
 10
283.0297179109
 20
193.4534032747
 30
0.0
  0
SPLINE
  5
360
100
AcDbEntity
  8
0
100
AcDbSpline
 62
7
  6
CONTINUOUS
 70
0
 71
3
 72
11
 73
7
 74
0
 42
0.0000001
 43
0.0000001
 44
0.0000000001
 40
0.0
 40
0.0
 40
0.0
 40
0.0
 40
0.2348532646
 40
0.4762338908
 40
0.7299576881
 40
1.0
 40
1.0
 40
1.0
 40
1.0
 10
283.827798041
 20
194.613546876
 30
0.0
 10
283.8511736267
 20
194.689210053
 30
0.0
 10
283.8825993037
 20
194.8480601356
 30
0.0
 10
283.8806715995
 20
195.0956986634
 30
0.0
 10
283.8305425925
 20
195.3501250118
 30
0.0
 10
283.7680705819
 20
195.5161871778
 30
0.0
 10
283.7301518249
 20
195.5989737468
 30
0.0
  0
SPLINE
  5
361
100
AcDbEntity
  8
0
100
AcDbSpline
 62
7
  6
CONTINUOUS
 70
0
 71
3
 72
16
 73
12
 74
0
 42
0.0000001
 43
0.0000001
 44
0.0000000001
 40
0.0
 40
0.0
 40
0.0
 40
0.0
 40
0.0426536325
 40
0.0860499752
 40
0.1776191594
 40
0.2793942435
 40
0.3942580618
 40
0.5237082224
 40
0.6682431707
 40
0.8274553015
 40
1.0
 40
1.0
 40
1.0
 40
1.0
 10
320.9224212698
 20
207.6738581805
 30
0.0
 10
320.8968141935
 20
207.6738570851
 30
0.0
 10
320.8450766587
 20
207.6700950694
 30
0.0
 10
320.7406001775
 20
207.6472509158
 30
0.0
 10
320.6095522634
 20
207.5880406023
 30
0.0
 10
320.4613710133
 20
207.4753025737
 30
0.0
 10
320.3201735435
 20
207.3217161194
 30
0.0
 10
320.1870369792
 20
207.129260155
 30
0.0
 10
320.0632432405
 20
206.9000594438
 30
0.0
 10
319.9503073547
 20
206.6370365733
 30
0.0
 10
319.8854850236
 20
206.4485145577
 30
0.0
 10
319.8549012363
 20
206.3495452937
 30
0.0
  0
ENDSEC
  0
SECTION
  2
OBJECTS
  0
DICTIONARY
  5
362
100
AcDbDictionary
  3
ACAD_GROUP
350
363
  3
ACAD_MLINESTYLE
350
364
  0
DICTIONARY
  5
363
102
{ACAD_REACTORS
330
362
102
}
100
AcDbDictionary
  0
DICTIONARY
  5
364
102
{ACAD_REACTORS
330
362
102
}
100
AcDbDictionary
  3
STANDARD
350
365
  0
MLINESTYLE
  5
365
102
{ACAD_REACTORS
330
364
102
}
100
AcDbMlineStyle
  2
STANDARD
 70
0
  3

 62
256
 51
90.0
 52
90.0
 71
2
 49
0.5
 62
256
  6
BYLAYER
 49
-0.5
 62
256
  6
BYLAYER
  0
ENDSEC
  0
EOF
