G04 #@! TF.GenerationSoftware,KiCad,Pcbnew,(7.0.0)*
G04 #@! TF.CreationDate,2023-04-30T09:27:40+02:00*
G04 #@! TF.ProjectId,IKEA_Button2,494b4541-5f42-4757-9474-6f6e322e6b69,rev?*
G04 #@! TF.SameCoordinates,Original*
G04 #@! TF.FileFunction,Paste,Top*
G04 #@! TF.FilePolarity,Positive*
%FSLAX46Y46*%
G04 Gerber Fmt 4.6, Leading zero omitted, Abs format (unit mm)*
G04 Created by KiCad (PCBNEW (7.0.0)) date 2023-04-30 09:27:40*
%MOMM*%
%LPD*%
G01*
G04 APERTURE LIST*
G04 Aperture macros list*
%AMRoundRect*
0 Rectangle with rounded corners*
0 $1 Rounding radius*
0 $2 $3 $4 $5 $6 $7 $8 $9 X,Y pos of 4 corners*
0 Add a 4 corners polygon primitive as box body*
4,1,4,$2,$3,$4,$5,$6,$7,$8,$9,$2,$3,0*
0 Add four circle primitives for the rounded corners*
1,1,$1+$1,$2,$3*
1,1,$1+$1,$4,$5*
1,1,$1+$1,$6,$7*
1,1,$1+$1,$8,$9*
0 Add four rect primitives between the rounded corners*
20,1,$1+$1,$2,$3,$4,$5,0*
20,1,$1+$1,$4,$5,$6,$7,0*
20,1,$1+$1,$6,$7,$8,$9,0*
20,1,$1+$1,$8,$9,$2,$3,0*%
G04 Aperture macros list end*
%ADD10R,1.600000X1.000000*%
%ADD11R,1.200000X1.400000*%
%ADD12RoundRect,0.250000X-0.412500X-0.650000X0.412500X-0.650000X0.412500X0.650000X-0.412500X0.650000X0*%
%ADD13RoundRect,0.250000X-0.337500X-0.475000X0.337500X-0.475000X0.337500X0.475000X-0.337500X0.475000X0*%
%ADD14RoundRect,0.250000X0.337500X0.475000X-0.337500X0.475000X-0.337500X-0.475000X0.337500X-0.475000X0*%
%ADD15RoundRect,0.250000X-0.325000X-0.450000X0.325000X-0.450000X0.325000X0.450000X-0.325000X0.450000X0*%
%ADD16RoundRect,0.250001X0.462499X0.624999X-0.462499X0.624999X-0.462499X-0.624999X0.462499X-0.624999X0*%
%ADD17RoundRect,0.250000X-0.350000X-0.450000X0.350000X-0.450000X0.350000X0.450000X-0.350000X0.450000X0*%
%ADD18R,1.400000X1.200000*%
%ADD19R,1.200000X2.500000*%
%ADD20RoundRect,0.250000X0.350000X0.450000X-0.350000X0.450000X-0.350000X-0.450000X0.350000X-0.450000X0*%
%ADD21RoundRect,0.250000X-0.475000X0.337500X-0.475000X-0.337500X0.475000X-0.337500X0.475000X0.337500X0*%
%ADD22R,1.000000X1.600000*%
G04 APERTURE END LIST*
D10*
X77199999Y-65749999D03*
X85799999Y-65749999D03*
X77199999Y-70249999D03*
X85799999Y-70249999D03*
D11*
X38749999Y-88999999D03*
X38749999Y-80999999D03*
X43249999Y-88999999D03*
X43249999Y-80999999D03*
D12*
X80937500Y-78500000D03*
X84062500Y-78500000D03*
D10*
X77199999Y-99749999D03*
X85799999Y-99749999D03*
X77199999Y-104249999D03*
X85799999Y-104249999D03*
D11*
X70249999Y-80999999D03*
X70249999Y-88999999D03*
X65749999Y-80999999D03*
X65749999Y-88999999D03*
D13*
X72500000Y-94000000D03*
X74575000Y-94000000D03*
D14*
X26537500Y-96000000D03*
X24462500Y-96000000D03*
D13*
X33962500Y-78500000D03*
X36037500Y-78500000D03*
X82125000Y-74500000D03*
X84200000Y-74500000D03*
D15*
X81950000Y-94000000D03*
X84000000Y-94000000D03*
D16*
X77975000Y-78500000D03*
X75000000Y-78500000D03*
D17*
X82000000Y-46500000D03*
X84000000Y-46500000D03*
D10*
X107199999Y-94749999D03*
X115799999Y-94749999D03*
X107199999Y-99249999D03*
X115799999Y-99249999D03*
D13*
X125712500Y-29000000D03*
X127787500Y-29000000D03*
D12*
X124187500Y-78750000D03*
X127312500Y-78750000D03*
D10*
X129299999Y-70249999D03*
X120699999Y-70249999D03*
X129299999Y-65749999D03*
X120699999Y-65749999D03*
X23199999Y-99749999D03*
X31799999Y-99749999D03*
X23199999Y-104249999D03*
X31799999Y-104249999D03*
D18*
X85499999Y-87249999D03*
X77499999Y-87249999D03*
X85499999Y-82749999D03*
X77499999Y-82749999D03*
D19*
X24999999Y-92249999D03*
X27499999Y-92249999D03*
X29999999Y-92249999D03*
X24999999Y-86749999D03*
X27499999Y-86749999D03*
X29999999Y-86749999D03*
D13*
X125712500Y-73000000D03*
X127787500Y-73000000D03*
X110462500Y-34000000D03*
X112537500Y-34000000D03*
D18*
X85499999Y-43249999D03*
X77499999Y-43249999D03*
X85499999Y-38749999D03*
X77499999Y-38749999D03*
D10*
X50199999Y-55749999D03*
X58799999Y-55749999D03*
X50199999Y-60249999D03*
X58799999Y-60249999D03*
D14*
X26537500Y-74000000D03*
X24462500Y-74000000D03*
X36037500Y-30500000D03*
X33962500Y-30500000D03*
X127787500Y-91500000D03*
X125712500Y-91500000D03*
D10*
X77199999Y-55749999D03*
X85799999Y-55749999D03*
X77199999Y-60249999D03*
X85799999Y-60249999D03*
D15*
X99150000Y-87700000D03*
X101200000Y-87700000D03*
D13*
X97462500Y-50000000D03*
X99537500Y-50000000D03*
D17*
X125700000Y-94200000D03*
X127700000Y-94200000D03*
D11*
X38749999Y-44999999D03*
X38749999Y-36999999D03*
X43249999Y-44999999D03*
X43249999Y-36999999D03*
D13*
X53962500Y-51800000D03*
X56037500Y-51800000D03*
D14*
X36037500Y-74500000D03*
X33962500Y-74500000D03*
X74537500Y-46500000D03*
X72462500Y-46500000D03*
D10*
X102299999Y-26249999D03*
X93699999Y-26249999D03*
X102299999Y-21749999D03*
X93699999Y-21749999D03*
D14*
X26537500Y-30000000D03*
X24462500Y-30000000D03*
D19*
X29999999Y-33749999D03*
X27499999Y-33749999D03*
X24999999Y-33749999D03*
X29999999Y-39249999D03*
X27499999Y-39249999D03*
X24999999Y-39249999D03*
D14*
X26537500Y-52000000D03*
X24462500Y-52000000D03*
D10*
X115799999Y-31249999D03*
X107199999Y-31249999D03*
X115799999Y-26749999D03*
X107199999Y-26749999D03*
D13*
X33962500Y-34500000D03*
X36037500Y-34500000D03*
D15*
X99150000Y-43700000D03*
X101200000Y-43700000D03*
D10*
X93699999Y-55749999D03*
X102299999Y-55749999D03*
X93699999Y-60249999D03*
X102299999Y-60249999D03*
D13*
X82125000Y-30500000D03*
X84200000Y-30500000D03*
D14*
X127787500Y-53000000D03*
X125712500Y-53000000D03*
D12*
X124187500Y-34750000D03*
X127312500Y-34750000D03*
D10*
X23199999Y-55749999D03*
X31799999Y-55749999D03*
X23199999Y-60249999D03*
X31799999Y-60249999D03*
D20*
X56000000Y-93000000D03*
X54000000Y-93000000D03*
D19*
X29999999Y-77749999D03*
X27499999Y-77749999D03*
X24999999Y-77749999D03*
X29999999Y-83249999D03*
X27499999Y-83249999D03*
X24999999Y-83249999D03*
D10*
X107199999Y-50749999D03*
X115799999Y-50749999D03*
X107199999Y-55249999D03*
X115799999Y-55249999D03*
D11*
X70249999Y-36999999D03*
X70249999Y-44999999D03*
X65749999Y-36999999D03*
X65749999Y-44999999D03*
D14*
X127787500Y-97000000D03*
X125712500Y-97000000D03*
D15*
X81950000Y-50000000D03*
X84000000Y-50000000D03*
D13*
X53962500Y-95800000D03*
X56037500Y-95800000D03*
X72500000Y-50000000D03*
X74575000Y-50000000D03*
D18*
X128999999Y-87249999D03*
X120999999Y-87249999D03*
X128999999Y-82749999D03*
X120999999Y-82749999D03*
D10*
X58799999Y-70249999D03*
X50199999Y-70249999D03*
X58799999Y-65749999D03*
X50199999Y-65749999D03*
X58799999Y-26249999D03*
X50199999Y-26249999D03*
X58799999Y-21749999D03*
X50199999Y-21749999D03*
D20*
X56000000Y-49000000D03*
X54000000Y-49000000D03*
D10*
X50199999Y-99749999D03*
X58799999Y-99749999D03*
X50199999Y-104249999D03*
X58799999Y-104249999D03*
X120699999Y-55749999D03*
X129299999Y-55749999D03*
X120699999Y-60249999D03*
X129299999Y-60249999D03*
D16*
X121475000Y-34750000D03*
X118500000Y-34750000D03*
D10*
X77199999Y-21749999D03*
X85799999Y-21749999D03*
X77199999Y-26249999D03*
X85799999Y-26249999D03*
D19*
X24999999Y-48249999D03*
X27499999Y-48249999D03*
X29999999Y-48249999D03*
X24999999Y-42749999D03*
X27499999Y-42749999D03*
X29999999Y-42749999D03*
D14*
X99537500Y-97000000D03*
X97462500Y-97000000D03*
D13*
X110462500Y-78000000D03*
X112537500Y-78000000D03*
D17*
X125700000Y-50200000D03*
X127700000Y-50200000D03*
X99075000Y-91050000D03*
X101075000Y-91050000D03*
D14*
X99537500Y-53000000D03*
X97462500Y-53000000D03*
D10*
X120699999Y-99749999D03*
X129299999Y-99749999D03*
X120699999Y-104249999D03*
X129299999Y-104249999D03*
D18*
X128999999Y-43249999D03*
X120999999Y-43249999D03*
X128999999Y-38749999D03*
X120999999Y-38749999D03*
D12*
X80937500Y-34500000D03*
X84062500Y-34500000D03*
D10*
X93699999Y-99749999D03*
X102299999Y-99749999D03*
X93699999Y-104249999D03*
X102299999Y-104249999D03*
X115799999Y-75249999D03*
X107199999Y-75249999D03*
X115799999Y-70749999D03*
X107199999Y-70749999D03*
X102299999Y-70249999D03*
X93699999Y-70249999D03*
X102299999Y-65749999D03*
X93699999Y-65749999D03*
X31799999Y-70249999D03*
X23199999Y-70249999D03*
X31799999Y-65749999D03*
X23199999Y-65749999D03*
D17*
X99075000Y-47050000D03*
X101075000Y-47050000D03*
D21*
X116250000Y-83962500D03*
X116250000Y-86037500D03*
D13*
X97462500Y-94000000D03*
X99537500Y-94000000D03*
D21*
X116250000Y-39962500D03*
X116250000Y-42037500D03*
D14*
X74537500Y-90500000D03*
X72462500Y-90500000D03*
D16*
X77975000Y-34500000D03*
X75000000Y-34500000D03*
D13*
X110462500Y-92250000D03*
X112537500Y-92250000D03*
D10*
X129299999Y-26249999D03*
X120699999Y-26249999D03*
X129299999Y-21749999D03*
X120699999Y-21749999D03*
D22*
X109249999Y-45299999D03*
X109249999Y-36699999D03*
X113749999Y-45299999D03*
X113749999Y-36699999D03*
D16*
X121475000Y-78750000D03*
X118500000Y-78750000D03*
D13*
X110462500Y-48250000D03*
X112537500Y-48250000D03*
D22*
X109249999Y-89299999D03*
X109249999Y-80699999D03*
X113749999Y-89299999D03*
X113749999Y-80699999D03*
D10*
X31799999Y-26249999D03*
X23199999Y-26249999D03*
X31799999Y-21749999D03*
X23199999Y-21749999D03*
D14*
X127787500Y-47500000D03*
X125712500Y-47500000D03*
D17*
X82000000Y-90500000D03*
X84000000Y-90500000D03*
M02*
