G04 #@! TF.GenerationSoftware,KiCad,Pcbnew,(7.0.0)*
G04 #@! TF.CreationDate,2023-04-30T09:27:40+02:00*
G04 #@! TF.ProjectId,IKEA_Button2,494b4541-5f42-4757-9474-6f6e322e6b69,rev?*
G04 #@! TF.SameCoordinates,Original*
G04 #@! TF.FileFunction,Paste,Bot*
G04 #@! TF.FilePolarity,Positive*
%FSLAX46Y46*%
G04 Gerber Fmt 4.6, Leading zero omitted, Abs format (unit mm)*
G04 Created by KiCad (PCBNEW (7.0.0)) date 2023-04-30 09:27:40*
%MOMM*%
%LPD*%
G01*
G04 APERTURE LIST*
%ADD10O,4.500000X6.000000*%
%ADD11R,2.000000X0.800000*%
%ADD12R,0.800000X2.000000*%
%ADD13R,4.000000X0.800000*%
G04 APERTURE END LIST*
D10*
X78499999Y-84999999D03*
D11*
X64866999Y-90397999D03*
X64866999Y-92107999D03*
X64866999Y-93817999D03*
X64866999Y-95527999D03*
X64866999Y-97237999D03*
X64866999Y-98947999D03*
D12*
X62636999Y-100177999D03*
X60926999Y-100177999D03*
X59216999Y-100177999D03*
X57506999Y-100177999D03*
X55796999Y-100177999D03*
X54086999Y-100177999D03*
D13*
X49366999Y-97927999D03*
X49366999Y-96027999D03*
X49366999Y-94127999D03*
X49366999Y-92227999D03*
X49366999Y-90327999D03*
X49366999Y-88427999D03*
D11*
X64866999Y-46397999D03*
X64866999Y-48107999D03*
X64866999Y-49817999D03*
X64866999Y-51527999D03*
X64866999Y-53237999D03*
X64866999Y-54947999D03*
D12*
X62636999Y-56177999D03*
X60926999Y-56177999D03*
X59216999Y-56177999D03*
X57506999Y-56177999D03*
X55796999Y-56177999D03*
X54086999Y-56177999D03*
D13*
X49366999Y-53927999D03*
X49366999Y-52027999D03*
X49366999Y-50127999D03*
X49366999Y-48227999D03*
X49366999Y-46327999D03*
X49366999Y-44427999D03*
D11*
X108366999Y-90397999D03*
X108366999Y-92107999D03*
X108366999Y-93817999D03*
X108366999Y-95527999D03*
X108366999Y-97237999D03*
X108366999Y-98947999D03*
D12*
X106136999Y-100177999D03*
X104426999Y-100177999D03*
X102716999Y-100177999D03*
X101006999Y-100177999D03*
X99296999Y-100177999D03*
X97586999Y-100177999D03*
D13*
X92866999Y-97927999D03*
X92866999Y-96027999D03*
X92866999Y-94127999D03*
X92866999Y-92227999D03*
X92866999Y-90327999D03*
X92866999Y-88427999D03*
D11*
X108366999Y-46397999D03*
X108366999Y-48107999D03*
X108366999Y-49817999D03*
X108366999Y-51527999D03*
X108366999Y-53237999D03*
X108366999Y-54947999D03*
D12*
X106136999Y-56177999D03*
X104426999Y-56177999D03*
X102716999Y-56177999D03*
X101006999Y-56177999D03*
X99296999Y-56177999D03*
X97586999Y-56177999D03*
D13*
X92866999Y-53927999D03*
X92866999Y-52027999D03*
X92866999Y-50127999D03*
X92866999Y-48227999D03*
X92866999Y-46327999D03*
X92866999Y-44427999D03*
D10*
X78499999Y-40999999D03*
X121999999Y-84999999D03*
X30499999Y-84999999D03*
X30499999Y-40999999D03*
X121999999Y-40999999D03*
M02*
