%TF.GenerationSoftware,KiCad,Pcbnew,(7.0.0)*%
%TF.CreationDate,2023-04-30T09:27:37+02:00*%
%TF.ProjectId,IKEA_Button2,494b4541-5f42-4757-9474-6f6e322e6b69,rev?*%
%TF.SameCoordinates,Original*%
%TF.FileFunction,Drillmap*%
%TF.FilePolarity,Positive*%
%FSLAX45Y45*%
G04 Gerber Fmt 4.5, Leading zero omitted, Abs format (unit mm)*
G04 Created by KiCad (PCBNEW (7.0.0)) date 2023-04-30 09:27:37*
%MOMM*%
%LPD*%
G01*
G04 APERTURE LIST*
%ADD10C,0.150000*%
%ADD11C,0.200000*%
%ADD12C,0.040000*%
%ADD13C,0.080000*%
%ADD14C,0.100000*%
%ADD15C,0.115200*%
G04 APERTURE END LIST*
D10*
X7700210Y-10699790D02*
X7700000Y-10600000D01*
X5900000Y-10600000D02*
X5900210Y-10699790D01*
X6300000Y-10550000D02*
X6300210Y-10699790D01*
X7300000Y-10550000D02*
X7300210Y-10699790D01*
X7750000Y-10550000D02*
X8650000Y-10550000D01*
X8850000Y-6650000D02*
G75*
G03*
X8650000Y-6450000I-200000J0D01*
G01*
X5850000Y-6450000D02*
X5050000Y-6450000D01*
X6300000Y-6500000D02*
G75*
G03*
X7300000Y-6500000I500000J0D01*
G01*
X5000000Y-7775000D02*
X6200000Y-7775000D01*
X6200000Y-8375000D02*
X5000000Y-8375000D01*
X5850000Y-6450000D02*
G75*
G03*
X5899790Y-6400210I0J49790D01*
G01*
X7750000Y-10550000D02*
G75*
G03*
X7700000Y-10600000I0J-50000D01*
G01*
X7700000Y-6400000D02*
G75*
G03*
X7750000Y-6450000I50000J0D01*
G01*
X8850000Y-6650000D02*
X8850000Y-10350000D01*
X7300000Y-10500000D02*
G75*
G03*
X6300000Y-10500000I-500000J0D01*
G01*
X5900000Y-10600000D02*
G75*
G03*
X5850000Y-10550000I-50000J0D01*
G01*
X8649953Y-6450210D02*
X7750000Y-6450210D01*
X7300000Y-6500000D02*
X7300000Y-6450000D01*
X6300000Y-6450000D02*
X6300000Y-6500000D01*
X6300000Y-7875000D02*
X6300000Y-8275000D01*
X6300000Y-10550000D02*
X6300000Y-10500000D01*
X7300000Y-10500000D02*
X7300000Y-10550000D01*
X8650000Y-10550000D02*
G75*
G03*
X8850000Y-10350000I0J200000D01*
G01*
X6200000Y-8375000D02*
G75*
G03*
X6300000Y-8275000I0J100000D01*
G01*
X6300000Y-7875000D02*
G75*
G03*
X6200000Y-7775000I-100000J0D01*
G01*
X12050000Y-2000000D02*
G75*
G03*
X12100000Y-2050000I50000J0D01*
G01*
X11650000Y-10500000D02*
G75*
G03*
X10650000Y-10500000I-500000J0D01*
G01*
X6300000Y-2050000D02*
X6300000Y-2100000D01*
X3600000Y-2100000D02*
X3600000Y-2050000D01*
X7700000Y-2000000D02*
X7700000Y-1900000D01*
X13350000Y-10800000D02*
G75*
G03*
X13450000Y-10700000I0J100000D01*
G01*
X5000040Y-10699790D02*
G75*
G03*
X5100047Y-10799790I100010J10D01*
G01*
X3200210Y-6199790D02*
X3200000Y-6400000D01*
X10550000Y-8375000D02*
X9400000Y-8375000D01*
X1800000Y-10700000D02*
G75*
G03*
X1900000Y-10800000I100000J0D01*
G01*
X10650000Y-6150000D02*
X10650000Y-6100000D01*
X5850000Y-2050000D02*
G75*
G03*
X5899790Y-2000210I0J49790D01*
G01*
X9100000Y-10350000D02*
G75*
G03*
X9300000Y-10550000I200000J0D01*
G01*
X10650000Y-3475000D02*
G75*
G03*
X10550000Y-3375000I-100000J0D01*
G01*
X3700000Y-1800000D02*
X4500000Y-1800000D01*
X11650000Y-10550000D02*
X11650047Y-10699790D01*
X7300000Y-1900000D02*
G75*
G03*
X7200000Y-1800000I-100000J0D01*
G01*
X3150000Y-2050000D02*
X2250000Y-2050000D01*
X7300000Y-6100000D02*
X7300000Y-6150000D01*
X5800210Y-10799790D02*
G75*
G03*
X5900210Y-10699790I0J100000D01*
G01*
X5000210Y-10699790D02*
X5000210Y-10599790D01*
X9100000Y-5950000D02*
X9100000Y-3975000D01*
X10650000Y-2100000D02*
G75*
G03*
X11650000Y-2100000I500000J0D01*
G01*
X7300000Y-1900000D02*
X7300000Y-2050000D01*
X7700210Y-10699790D02*
G75*
G03*
X7800210Y-10799790I100000J0D01*
G01*
X10650000Y-6150000D02*
X10650000Y-6450000D01*
X13000000Y-10550000D02*
G75*
G03*
X13200000Y-10350000I0J200000D01*
G01*
X10750000Y-1800000D02*
X11550000Y-1800000D01*
X10550000Y-3975000D02*
G75*
G03*
X10650000Y-3875000I0J100000D01*
G01*
X10200000Y-6150000D02*
X9300000Y-6150000D01*
X7300000Y-6150000D02*
X7300000Y-6450000D01*
X4600000Y-2050000D02*
X4600000Y-2100000D01*
X10650000Y-1900000D02*
X10650000Y-2050000D01*
X10550000Y-3975000D02*
X9400000Y-3975000D01*
X11650000Y-6150000D02*
X11650000Y-6450000D01*
X4600000Y-2050000D02*
X4600000Y-1900000D01*
X9400000Y-3375000D02*
X10550000Y-3375000D01*
X4600000Y-6100000D02*
G75*
G03*
X3600000Y-6100000I-500000J0D01*
G01*
X9300000Y-7875000D02*
X9300000Y-8275000D01*
X5000000Y-7775000D02*
G75*
G03*
X4900000Y-7875000I0J-100000D01*
G01*
X5000000Y-2000000D02*
G75*
G03*
X5050000Y-2050000I50000J0D01*
G01*
X3150000Y-2050000D02*
G75*
G03*
X3200000Y-2000000I0J50000D01*
G01*
X10200000Y-2050000D02*
X9300000Y-2050000D01*
X4900000Y-7875000D02*
X4900000Y-8275000D01*
X10650000Y-10550000D02*
X10650000Y-10500000D01*
X7750000Y-6150000D02*
X8650000Y-6150000D01*
X12999953Y-6450210D02*
X12100000Y-6450210D01*
X1800000Y-10700000D02*
X1800000Y-1900000D01*
X5850000Y-2050000D02*
X5050000Y-2050000D01*
X10250000Y-6200000D02*
G75*
G03*
X10200000Y-6150000I-50000J0D01*
G01*
X3600000Y-6500000D02*
X3600000Y-6450000D01*
X2250047Y-6149790D02*
X3150000Y-6149790D01*
X3100000Y-10800000D02*
X1900000Y-10800000D01*
X12100000Y-10550000D02*
G75*
G03*
X12050000Y-10600000I0J-50000D01*
G01*
X10250000Y-6200000D02*
X10249790Y-6400210D01*
X3600000Y-6100000D02*
X3600000Y-6150000D01*
X7300000Y-2100000D02*
X7300000Y-2050000D01*
X9300000Y-3875000D02*
G75*
G03*
X9400000Y-3975000I100000J0D01*
G01*
X4600000Y-10500000D02*
G75*
G03*
X3600000Y-10500000I-500000J0D01*
G01*
X13200000Y-6650000D02*
G75*
G03*
X13000000Y-6450000I-200000J0D01*
G01*
X12999953Y-2050210D02*
X12100000Y-2050210D01*
X2050000Y-5950000D02*
G75*
G03*
X2250000Y-6150000I200000J0D01*
G01*
X5100000Y-1800000D02*
G75*
G03*
X5000000Y-1900000I0J-100000D01*
G01*
X4600210Y-10699790D02*
X4600210Y-10549790D01*
X6300210Y-10699790D02*
G75*
G03*
X6400210Y-10799790I100000J0D01*
G01*
X10650000Y-2050000D02*
X10650000Y-2100000D01*
X5900000Y-6200000D02*
G75*
G03*
X5850000Y-6150000I-50000J0D01*
G01*
X4600000Y-10550000D02*
X4600000Y-10500000D01*
X11650000Y-2100000D02*
X11650000Y-2050000D01*
X9300000Y-2050000D02*
G75*
G03*
X9100000Y-2250000I0J-200000D01*
G01*
X3600040Y-10699790D02*
G75*
G03*
X3700047Y-10799790I100010J10D01*
G01*
X10200000Y-10550000D02*
X9300000Y-10550000D01*
X12150210Y-10799790D02*
X13350000Y-10800000D01*
X12050000Y-6400000D02*
G75*
G03*
X12100000Y-6450000I50000J0D01*
G01*
X8850000Y-2250000D02*
G75*
G03*
X8650000Y-2050000I-200000J0D01*
G01*
X8650000Y-6150000D02*
G75*
G03*
X8850000Y-5950000I0J200000D01*
G01*
X3200000Y-1900000D02*
G75*
G03*
X3100000Y-1800000I-100000J0D01*
G01*
X12100000Y-10550000D02*
X13000000Y-10550000D01*
X9100000Y-2250000D02*
X9100000Y-3975000D01*
X6300000Y-2100000D02*
G75*
G03*
X7300000Y-2100000I500000J0D01*
G01*
X10650000Y-10550000D02*
X10650047Y-10699790D01*
X3200000Y-10600000D02*
G75*
G03*
X3150000Y-10550000I-50000J0D01*
G01*
X7750000Y-6150000D02*
G75*
G03*
X7700000Y-6200000I0J-50000D01*
G01*
X5900000Y-1900000D02*
X5900000Y-2000000D01*
X10150210Y-10799790D02*
G75*
G03*
X10250210Y-10699790I0J100000D01*
G01*
X7200210Y-10799790D02*
G75*
G03*
X7300210Y-10699790I0J100000D01*
G01*
X3700000Y-1800000D02*
G75*
G03*
X3600000Y-1900000I0J-100000D01*
G01*
X6400210Y-10799790D02*
X7200210Y-10799790D01*
X6300000Y-6150000D02*
X6300000Y-6450000D01*
X12050210Y-10699790D02*
G75*
G03*
X12150210Y-10799790I100000J0D01*
G01*
X3150000Y-6450000D02*
X2250000Y-6450000D01*
X6300000Y-3475000D02*
G75*
G03*
X6200000Y-3375000I-100000J0D01*
G01*
X10200000Y-6450000D02*
X9300000Y-6450000D01*
X3200210Y-10599790D02*
X3200210Y-10699790D01*
X4900000Y-3875000D02*
G75*
G03*
X5000000Y-3975000I100000J0D01*
G01*
X4500047Y-10799797D02*
G75*
G03*
X4600047Y-10699790I-7J100007D01*
G01*
X11650000Y-10500000D02*
X11650000Y-10550000D01*
X5100000Y-1800000D02*
X5800000Y-1800000D01*
X5000000Y-3375000D02*
G75*
G03*
X4900000Y-3475000I0J-100000D01*
G01*
X5000000Y-2000000D02*
X5000000Y-1900000D01*
X9100000Y-6650000D02*
X9100000Y-8375000D01*
X9400000Y-7775000D02*
X10550000Y-7775000D01*
X10650000Y-7875000D02*
X10650000Y-8275000D01*
X10200000Y-2050000D02*
G75*
G03*
X10249790Y-2000210I0J49790D01*
G01*
X12100000Y-6150000D02*
G75*
G03*
X12050000Y-6200000I0J-50000D01*
G01*
X4900000Y-3475000D02*
X4900000Y-3875000D01*
X13950000Y-11300000D02*
X13950000Y-1300000D01*
X7700000Y-6400000D02*
X7700000Y-6200000D01*
X3200000Y-1900000D02*
X3200000Y-2000000D01*
X2250047Y-10549790D02*
X3150000Y-10549790D01*
X11550210Y-10799790D02*
G75*
G03*
X11650210Y-10699790I0J100000D01*
G01*
X1300000Y-11300000D02*
X13950000Y-11300000D01*
X3600000Y-6450000D02*
X3600210Y-6149790D01*
X4600000Y-1900000D02*
G75*
G03*
X4500000Y-1800000I-100000J0D01*
G01*
X10750210Y-10799790D02*
X11550210Y-10799790D01*
X4900000Y-8275000D02*
G75*
G03*
X5000000Y-8375000I100000J0D01*
G01*
X3100047Y-10799797D02*
G75*
G03*
X3200047Y-10699790I-7J100007D01*
G01*
X5050000Y-10550000D02*
G75*
G03*
X5000210Y-10599790I0J-49790D01*
G01*
X10750000Y-1800000D02*
G75*
G03*
X10650000Y-1900000I0J-100000D01*
G01*
X4600000Y-6450000D02*
X4600000Y-6500000D01*
X2050000Y-10350000D02*
G75*
G03*
X2250000Y-10550000I200000J0D01*
G01*
X7800000Y-1800000D02*
X10150000Y-1800000D01*
X12050000Y-6400000D02*
X12050000Y-6200000D01*
X13000000Y-6150000D02*
G75*
G03*
X13200000Y-5950000I0J200000D01*
G01*
X2250000Y-2050000D02*
G75*
G03*
X2050000Y-2250000I0J-200000D01*
G01*
X7800210Y-10799790D02*
X10150210Y-10799790D01*
X9400000Y-3375000D02*
G75*
G03*
X9300000Y-3475000I0J-100000D01*
G01*
X8850000Y-2250000D02*
X8850000Y-5950000D01*
X5050000Y-6150000D02*
G75*
G03*
X5000210Y-6199790I0J-49790D01*
G01*
X10250000Y-10600000D02*
G75*
G03*
X10200000Y-10550000I-50000J0D01*
G01*
X12050000Y-2000000D02*
X12050000Y-1900000D01*
X6400000Y-1800000D02*
G75*
G03*
X6300000Y-1900000I0J-100000D01*
G01*
X2250000Y-6450000D02*
G75*
G03*
X2050000Y-6650000I0J-200000D01*
G01*
X5900000Y-1900000D02*
G75*
G03*
X5800000Y-1800000I-100000J0D01*
G01*
X10650210Y-10699790D02*
G75*
G03*
X10750210Y-10799790I100000J0D01*
G01*
X10250000Y-1900000D02*
G75*
G03*
X10150000Y-1800000I-100000J0D01*
G01*
X6200000Y-3975000D02*
X5000000Y-3975000D01*
X9100000Y-10350000D02*
X9100000Y-8375000D01*
X12050000Y-10700000D02*
X12050000Y-10600000D01*
X13450000Y-10700000D02*
X13450000Y-1900000D01*
X9300000Y-6450000D02*
G75*
G03*
X9100000Y-6650000I0J-200000D01*
G01*
X7800000Y-1800000D02*
G75*
G03*
X7700000Y-1900000I0J-100000D01*
G01*
X4600210Y-6450000D02*
X4600210Y-6149790D01*
X3150000Y-6450000D02*
G75*
G03*
X3200000Y-6400000I0J50000D01*
G01*
X1900000Y-1800000D02*
G75*
G03*
X1800000Y-1900000I0J-100000D01*
G01*
X9400000Y-7775000D02*
G75*
G03*
X9300000Y-7875000I0J-100000D01*
G01*
X13200000Y-6650000D02*
X13200000Y-10350000D01*
X4500047Y-10799790D02*
X3700047Y-10799790D01*
X2050000Y-10350000D02*
X2050000Y-6650000D01*
X5050000Y-6150000D02*
X5850000Y-6150000D01*
X5050000Y-10550000D02*
X5850000Y-10550000D01*
X6300000Y-1900000D02*
X6300000Y-2050000D01*
X12150000Y-1800000D02*
G75*
G03*
X12050000Y-1900000I0J-100000D01*
G01*
X9300000Y-8275000D02*
G75*
G03*
X9400000Y-8375000I100000J0D01*
G01*
X8649953Y-2050210D02*
X7750000Y-2050210D01*
X4600000Y-6150000D02*
X4600000Y-6100000D01*
X6400000Y-1800000D02*
X7200000Y-1800000D01*
X3600000Y-2100000D02*
G75*
G03*
X4600000Y-2100000I500000J0D01*
G01*
X5000000Y-6400000D02*
X5000210Y-6199790D01*
X5000000Y-3375000D02*
X6200000Y-3375000D01*
X3600000Y-2050000D02*
X3600000Y-1900000D01*
X13200000Y-2250000D02*
X13200000Y-5950000D01*
X11650000Y-1900000D02*
G75*
G03*
X11550000Y-1800000I-100000J0D01*
G01*
X9100000Y-5950000D02*
G75*
G03*
X9300000Y-6150000I200000J0D01*
G01*
X13450000Y-1900000D02*
G75*
G03*
X13350000Y-1800000I-100000J0D01*
G01*
X12150000Y-1800000D02*
X13350000Y-1800000D01*
X3200000Y-6200000D02*
G75*
G03*
X3150000Y-6150000I-50000J0D01*
G01*
X11650000Y-6100000D02*
X11650000Y-6150000D01*
X3600000Y-10500000D02*
X3600000Y-10550000D01*
X1900000Y-1800000D02*
X3100000Y-1800000D01*
X5000000Y-6400000D02*
G75*
G03*
X5050000Y-6450000I50000J0D01*
G01*
X11650000Y-1900000D02*
X11650000Y-2050000D01*
X7700000Y-2000000D02*
G75*
G03*
X7750000Y-2050000I50000J0D01*
G01*
X10250000Y-1900000D02*
X10250000Y-2000000D01*
X10250000Y-10600000D02*
X10250047Y-10699790D01*
X6200000Y-3975000D02*
G75*
G03*
X6300000Y-3875000I0J100000D01*
G01*
X11650000Y-6500000D02*
X11650000Y-6450000D01*
X10650000Y-6500000D02*
G75*
G03*
X11650000Y-6500000I500000J0D01*
G01*
X10650000Y-6450000D02*
X10650000Y-6500000D01*
X1300000Y-11300000D02*
X1300000Y-1300000D01*
X12100000Y-6150000D02*
X13000000Y-6150000D01*
X9300000Y-3475000D02*
X9300000Y-3875000D01*
X11650000Y-6100000D02*
G75*
G03*
X10650000Y-6100000I-500000J0D01*
G01*
X10650000Y-3475000D02*
X10650000Y-3875000D01*
X10550000Y-8375000D02*
G75*
G03*
X10650000Y-8275000I0J100000D01*
G01*
X7300000Y-6100000D02*
G75*
G03*
X6300000Y-6100000I-500000J0D01*
G01*
X6300000Y-3475000D02*
X6300000Y-3875000D01*
X5900000Y-6200000D02*
X5899790Y-6400210D01*
X10200000Y-6450000D02*
G75*
G03*
X10249790Y-6400210I0J49790D01*
G01*
X13200000Y-2250000D02*
G75*
G03*
X13000000Y-2050000I-200000J0D01*
G01*
X3600000Y-6500000D02*
G75*
G03*
X4600000Y-6500000I500000J0D01*
G01*
X6300000Y-6150000D02*
X6300000Y-6100000D01*
X10650000Y-7875000D02*
G75*
G03*
X10550000Y-7775000I-100000J0D01*
G01*
X5100047Y-10799790D02*
X5800210Y-10799790D01*
X2050000Y-5950000D02*
X2050000Y-2250000D01*
X1300000Y-1300000D02*
X13950000Y-1300000D01*
X3600210Y-10699790D02*
X3600210Y-10549790D01*
D11*
D12*
X3190000Y-2030000D02*
X3230000Y-2070000D01*
X3230000Y-2030000D02*
X3190000Y-2070000D01*
X3190000Y-6130000D02*
X3230000Y-6170000D01*
X3230000Y-6130000D02*
X3190000Y-6170000D01*
X3190000Y-6430000D02*
X3230000Y-6470000D01*
X3230000Y-6430000D02*
X3190000Y-6470000D01*
X3190000Y-10530000D02*
X3230000Y-10570000D01*
X3230000Y-10530000D02*
X3190000Y-10570000D01*
X3250000Y-2030000D02*
X3290000Y-2070000D01*
X3290000Y-2030000D02*
X3250000Y-2070000D01*
X3250000Y-6130000D02*
X3290000Y-6170000D01*
X3290000Y-6130000D02*
X3250000Y-6170000D01*
X3250000Y-6430000D02*
X3290000Y-6470000D01*
X3290000Y-6430000D02*
X3250000Y-6470000D01*
X3250000Y-10530000D02*
X3290000Y-10570000D01*
X3290000Y-10530000D02*
X3250000Y-10570000D01*
X3306001Y-2030000D02*
X3346001Y-2070000D01*
X3346001Y-2030000D02*
X3306001Y-2070000D01*
X3306001Y-6430000D02*
X3346001Y-6470000D01*
X3346001Y-6430000D02*
X3306001Y-6470000D01*
X3310000Y-6130000D02*
X3350000Y-6170000D01*
X3350000Y-6130000D02*
X3310000Y-6170000D01*
X3310000Y-10530000D02*
X3350000Y-10570000D01*
X3350000Y-10530000D02*
X3310000Y-10570000D01*
X3370000Y-2030000D02*
X3410000Y-2070000D01*
X3410000Y-2030000D02*
X3370000Y-2070000D01*
X3370000Y-6130000D02*
X3410000Y-6170000D01*
X3410000Y-6130000D02*
X3370000Y-6170000D01*
X3370000Y-6430000D02*
X3410000Y-6470000D01*
X3410000Y-6430000D02*
X3370000Y-6470000D01*
X3370000Y-10530000D02*
X3410000Y-10570000D01*
X3410000Y-10530000D02*
X3370000Y-10570000D01*
X3430000Y-2030000D02*
X3470000Y-2070000D01*
X3470000Y-2030000D02*
X3430000Y-2070000D01*
X3430000Y-6430000D02*
X3470000Y-6470000D01*
X3470000Y-6430000D02*
X3430000Y-6470000D01*
X3433999Y-6130000D02*
X3473999Y-6170000D01*
X3473999Y-6130000D02*
X3433999Y-6170000D01*
X3433999Y-10530000D02*
X3473999Y-10570000D01*
X3473999Y-10530000D02*
X3433999Y-10570000D01*
X3490000Y-2030000D02*
X3530000Y-2070000D01*
X3530000Y-2030000D02*
X3490000Y-2070000D01*
X3490000Y-6130000D02*
X3530000Y-6170000D01*
X3530000Y-6130000D02*
X3490000Y-6170000D01*
X3490000Y-6430000D02*
X3530000Y-6470000D01*
X3530000Y-6430000D02*
X3490000Y-6470000D01*
X3490000Y-10530000D02*
X3530000Y-10570000D01*
X3530000Y-10530000D02*
X3490000Y-10570000D01*
X3550000Y-2030000D02*
X3590000Y-2070000D01*
X3590000Y-2030000D02*
X3550000Y-2070000D01*
X3550000Y-6130000D02*
X3590000Y-6170000D01*
X3590000Y-6130000D02*
X3550000Y-6170000D01*
X3550000Y-6430000D02*
X3590000Y-6470000D01*
X3590000Y-6430000D02*
X3550000Y-6470000D01*
X3550000Y-10530000D02*
X3590000Y-10570000D01*
X3590000Y-10530000D02*
X3550000Y-10570000D01*
X4610000Y-2030000D02*
X4650000Y-2070000D01*
X4650000Y-2030000D02*
X4610000Y-2070000D01*
X4610000Y-6130000D02*
X4650000Y-6170000D01*
X4650000Y-6130000D02*
X4610000Y-6170000D01*
X4610000Y-6430000D02*
X4650000Y-6470000D01*
X4650000Y-6430000D02*
X4610000Y-6470000D01*
X4610000Y-10530000D02*
X4650000Y-10570000D01*
X4650000Y-10530000D02*
X4610000Y-10570000D01*
X4670000Y-2030000D02*
X4710000Y-2070000D01*
X4710000Y-2030000D02*
X4670000Y-2070000D01*
X4670000Y-6130000D02*
X4710000Y-6170000D01*
X4710000Y-6130000D02*
X4670000Y-6170000D01*
X4670000Y-6430000D02*
X4710000Y-6470000D01*
X4710000Y-6430000D02*
X4670000Y-6470000D01*
X4670000Y-10530000D02*
X4710000Y-10570000D01*
X4710000Y-10530000D02*
X4670000Y-10570000D01*
X4726001Y-2030000D02*
X4766001Y-2070000D01*
X4766001Y-2030000D02*
X4726001Y-2070000D01*
X4726001Y-6430000D02*
X4766001Y-6470000D01*
X4766001Y-6430000D02*
X4726001Y-6470000D01*
X4730000Y-6130000D02*
X4770000Y-6170000D01*
X4770000Y-6130000D02*
X4730000Y-6170000D01*
X4730000Y-10530000D02*
X4770000Y-10570000D01*
X4770000Y-10530000D02*
X4730000Y-10570000D01*
X4790000Y-2030000D02*
X4830000Y-2070000D01*
X4830000Y-2030000D02*
X4790000Y-2070000D01*
X4790000Y-6130000D02*
X4830000Y-6170000D01*
X4830000Y-6130000D02*
X4790000Y-6170000D01*
X4790000Y-6430000D02*
X4830000Y-6470000D01*
X4830000Y-6430000D02*
X4790000Y-6470000D01*
X4790000Y-10530000D02*
X4830000Y-10570000D01*
X4830000Y-10530000D02*
X4790000Y-10570000D01*
X4850000Y-2030000D02*
X4890000Y-2070000D01*
X4890000Y-2030000D02*
X4850000Y-2070000D01*
X4850000Y-6430000D02*
X4890000Y-6470000D01*
X4890000Y-6430000D02*
X4850000Y-6470000D01*
X4853999Y-6130000D02*
X4893999Y-6170000D01*
X4893999Y-6130000D02*
X4853999Y-6170000D01*
X4853999Y-10530000D02*
X4893999Y-10570000D01*
X4893999Y-10530000D02*
X4853999Y-10570000D01*
X4910000Y-2030000D02*
X4950000Y-2070000D01*
X4950000Y-2030000D02*
X4910000Y-2070000D01*
X4910000Y-6130000D02*
X4950000Y-6170000D01*
X4950000Y-6130000D02*
X4910000Y-6170000D01*
X4910000Y-6430000D02*
X4950000Y-6470000D01*
X4950000Y-6430000D02*
X4910000Y-6470000D01*
X4910000Y-10530000D02*
X4950000Y-10570000D01*
X4950000Y-10530000D02*
X4910000Y-10570000D01*
X4970000Y-2030000D02*
X5010000Y-2070000D01*
X5010000Y-2030000D02*
X4970000Y-2070000D01*
X4970000Y-6130000D02*
X5010000Y-6170000D01*
X5010000Y-6130000D02*
X4970000Y-6170000D01*
X4970000Y-6430000D02*
X5010000Y-6470000D01*
X5010000Y-6430000D02*
X4970000Y-6470000D01*
X4970000Y-10530000D02*
X5010000Y-10570000D01*
X5010000Y-10530000D02*
X4970000Y-10570000D01*
X5890000Y-2030000D02*
X5930000Y-2070000D01*
X5930000Y-2030000D02*
X5890000Y-2070000D01*
X5890000Y-6130000D02*
X5930000Y-6170000D01*
X5930000Y-6130000D02*
X5890000Y-6170000D01*
X5890000Y-6430000D02*
X5930000Y-6470000D01*
X5930000Y-6430000D02*
X5890000Y-6470000D01*
X5890000Y-10530000D02*
X5930000Y-10570000D01*
X5930000Y-10530000D02*
X5890000Y-10570000D01*
X5950000Y-2030000D02*
X5990000Y-2070000D01*
X5990000Y-2030000D02*
X5950000Y-2070000D01*
X5950000Y-6130000D02*
X5990000Y-6170000D01*
X5990000Y-6130000D02*
X5950000Y-6170000D01*
X5950000Y-6430000D02*
X5990000Y-6470000D01*
X5990000Y-6430000D02*
X5950000Y-6470000D01*
X5950000Y-10530000D02*
X5990000Y-10570000D01*
X5990000Y-10530000D02*
X5950000Y-10570000D01*
X6006001Y-2030000D02*
X6046001Y-2070000D01*
X6046001Y-2030000D02*
X6006001Y-2070000D01*
X6006001Y-6430000D02*
X6046001Y-6470000D01*
X6046001Y-6430000D02*
X6006001Y-6470000D01*
X6010000Y-6130000D02*
X6050000Y-6170000D01*
X6050000Y-6130000D02*
X6010000Y-6170000D01*
X6010000Y-10530000D02*
X6050000Y-10570000D01*
X6050000Y-10530000D02*
X6010000Y-10570000D01*
X6070000Y-2030000D02*
X6110000Y-2070000D01*
X6110000Y-2030000D02*
X6070000Y-2070000D01*
X6070000Y-6130000D02*
X6110000Y-6170000D01*
X6110000Y-6130000D02*
X6070000Y-6170000D01*
X6070000Y-6430000D02*
X6110000Y-6470000D01*
X6110000Y-6430000D02*
X6070000Y-6470000D01*
X6070000Y-10530000D02*
X6110000Y-10570000D01*
X6110000Y-10530000D02*
X6070000Y-10570000D01*
X6130000Y-2030000D02*
X6170000Y-2070000D01*
X6170000Y-2030000D02*
X6130000Y-2070000D01*
X6130000Y-6430000D02*
X6170000Y-6470000D01*
X6170000Y-6430000D02*
X6130000Y-6470000D01*
X6133999Y-6130000D02*
X6173999Y-6170000D01*
X6173999Y-6130000D02*
X6133999Y-6170000D01*
X6133999Y-10530000D02*
X6173999Y-10570000D01*
X6173999Y-10530000D02*
X6133999Y-10570000D01*
X6190000Y-2030000D02*
X6230000Y-2070000D01*
X6230000Y-2030000D02*
X6190000Y-2070000D01*
X6190000Y-6130000D02*
X6230000Y-6170000D01*
X6230000Y-6130000D02*
X6190000Y-6170000D01*
X6190000Y-6430000D02*
X6230000Y-6470000D01*
X6230000Y-6430000D02*
X6190000Y-6470000D01*
X6190000Y-10530000D02*
X6230000Y-10570000D01*
X6230000Y-10530000D02*
X6190000Y-10570000D01*
X6250000Y-2030000D02*
X6290000Y-2070000D01*
X6290000Y-2030000D02*
X6250000Y-2070000D01*
X6250000Y-6130000D02*
X6290000Y-6170000D01*
X6290000Y-6130000D02*
X6250000Y-6170000D01*
X6250000Y-6430000D02*
X6290000Y-6470000D01*
X6290000Y-6430000D02*
X6250000Y-6470000D01*
X6250000Y-10530000D02*
X6290000Y-10570000D01*
X6290000Y-10530000D02*
X6250000Y-10570000D01*
X7310000Y-2030000D02*
X7350000Y-2070000D01*
X7350000Y-2030000D02*
X7310000Y-2070000D01*
X7310000Y-6130000D02*
X7350000Y-6170000D01*
X7350000Y-6130000D02*
X7310000Y-6170000D01*
X7310000Y-6430000D02*
X7350000Y-6470000D01*
X7350000Y-6430000D02*
X7310000Y-6470000D01*
X7310000Y-10530000D02*
X7350000Y-10570000D01*
X7350000Y-10530000D02*
X7310000Y-10570000D01*
X7370000Y-2030000D02*
X7410000Y-2070000D01*
X7410000Y-2030000D02*
X7370000Y-2070000D01*
X7370000Y-6130000D02*
X7410000Y-6170000D01*
X7410000Y-6130000D02*
X7370000Y-6170000D01*
X7370000Y-6430000D02*
X7410000Y-6470000D01*
X7410000Y-6430000D02*
X7370000Y-6470000D01*
X7370000Y-10530000D02*
X7410000Y-10570000D01*
X7410000Y-10530000D02*
X7370000Y-10570000D01*
X7426001Y-2030000D02*
X7466001Y-2070000D01*
X7466001Y-2030000D02*
X7426001Y-2070000D01*
X7426001Y-6430000D02*
X7466001Y-6470000D01*
X7466001Y-6430000D02*
X7426001Y-6470000D01*
X7430000Y-6130000D02*
X7470000Y-6170000D01*
X7470000Y-6130000D02*
X7430000Y-6170000D01*
X7430000Y-10530000D02*
X7470000Y-10570000D01*
X7470000Y-10530000D02*
X7430000Y-10570000D01*
X7490000Y-2030000D02*
X7530000Y-2070000D01*
X7530000Y-2030000D02*
X7490000Y-2070000D01*
X7490000Y-6130000D02*
X7530000Y-6170000D01*
X7530000Y-6130000D02*
X7490000Y-6170000D01*
X7490000Y-6430000D02*
X7530000Y-6470000D01*
X7530000Y-6430000D02*
X7490000Y-6470000D01*
X7490000Y-10530000D02*
X7530000Y-10570000D01*
X7530000Y-10530000D02*
X7490000Y-10570000D01*
X7550000Y-2030000D02*
X7590000Y-2070000D01*
X7590000Y-2030000D02*
X7550000Y-2070000D01*
X7550000Y-6430000D02*
X7590000Y-6470000D01*
X7590000Y-6430000D02*
X7550000Y-6470000D01*
X7553999Y-6130000D02*
X7593999Y-6170000D01*
X7593999Y-6130000D02*
X7553999Y-6170000D01*
X7553999Y-10530000D02*
X7593999Y-10570000D01*
X7593999Y-10530000D02*
X7553999Y-10570000D01*
X7610000Y-2030000D02*
X7650000Y-2070000D01*
X7650000Y-2030000D02*
X7610000Y-2070000D01*
X7610000Y-6130000D02*
X7650000Y-6170000D01*
X7650000Y-6130000D02*
X7610000Y-6170000D01*
X7610000Y-6430000D02*
X7650000Y-6470000D01*
X7650000Y-6430000D02*
X7610000Y-6470000D01*
X7610000Y-10530000D02*
X7650000Y-10570000D01*
X7650000Y-10530000D02*
X7610000Y-10570000D01*
X7670000Y-2030000D02*
X7710000Y-2070000D01*
X7710000Y-2030000D02*
X7670000Y-2070000D01*
X7670000Y-6130000D02*
X7710000Y-6170000D01*
X7710000Y-6130000D02*
X7670000Y-6170000D01*
X7670000Y-6430000D02*
X7710000Y-6470000D01*
X7710000Y-6430000D02*
X7670000Y-6470000D01*
X7670000Y-10530000D02*
X7710000Y-10570000D01*
X7710000Y-10530000D02*
X7670000Y-10570000D01*
X10240000Y-2030000D02*
X10280000Y-2070000D01*
X10280000Y-2030000D02*
X10240000Y-2070000D01*
X10240000Y-6130000D02*
X10280000Y-6170000D01*
X10280000Y-6130000D02*
X10240000Y-6170000D01*
X10240000Y-6430000D02*
X10280000Y-6470000D01*
X10280000Y-6430000D02*
X10240000Y-6470000D01*
X10240000Y-10530000D02*
X10280000Y-10570000D01*
X10280000Y-10530000D02*
X10240000Y-10570000D01*
X10300000Y-2030000D02*
X10340000Y-2070000D01*
X10340000Y-2030000D02*
X10300000Y-2070000D01*
X10300000Y-6130000D02*
X10340000Y-6170000D01*
X10340000Y-6130000D02*
X10300000Y-6170000D01*
X10300000Y-6430000D02*
X10340000Y-6470000D01*
X10340000Y-6430000D02*
X10300000Y-6470000D01*
X10300000Y-10530000D02*
X10340000Y-10570000D01*
X10340000Y-10530000D02*
X10300000Y-10570000D01*
X10356001Y-2030000D02*
X10396001Y-2070000D01*
X10396001Y-2030000D02*
X10356001Y-2070000D01*
X10356001Y-6430000D02*
X10396001Y-6470000D01*
X10396001Y-6430000D02*
X10356001Y-6470000D01*
X10360000Y-6130000D02*
X10400000Y-6170000D01*
X10400000Y-6130000D02*
X10360000Y-6170000D01*
X10360000Y-10530000D02*
X10400000Y-10570000D01*
X10400000Y-10530000D02*
X10360000Y-10570000D01*
X10420000Y-2030000D02*
X10460000Y-2070000D01*
X10460000Y-2030000D02*
X10420000Y-2070000D01*
X10420000Y-6130000D02*
X10460000Y-6170000D01*
X10460000Y-6130000D02*
X10420000Y-6170000D01*
X10420000Y-6430000D02*
X10460000Y-6470000D01*
X10460000Y-6430000D02*
X10420000Y-6470000D01*
X10420000Y-10530000D02*
X10460000Y-10570000D01*
X10460000Y-10530000D02*
X10420000Y-10570000D01*
X10480000Y-2030000D02*
X10520000Y-2070000D01*
X10520000Y-2030000D02*
X10480000Y-2070000D01*
X10480000Y-6430000D02*
X10520000Y-6470000D01*
X10520000Y-6430000D02*
X10480000Y-6470000D01*
X10483999Y-6130000D02*
X10523999Y-6170000D01*
X10523999Y-6130000D02*
X10483999Y-6170000D01*
X10483999Y-10530000D02*
X10523999Y-10570000D01*
X10523999Y-10530000D02*
X10483999Y-10570000D01*
X10540000Y-2030000D02*
X10580000Y-2070000D01*
X10580000Y-2030000D02*
X10540000Y-2070000D01*
X10540000Y-6130000D02*
X10580000Y-6170000D01*
X10580000Y-6130000D02*
X10540000Y-6170000D01*
X10540000Y-6430000D02*
X10580000Y-6470000D01*
X10580000Y-6430000D02*
X10540000Y-6470000D01*
X10540000Y-10530000D02*
X10580000Y-10570000D01*
X10580000Y-10530000D02*
X10540000Y-10570000D01*
X10600000Y-2030000D02*
X10640000Y-2070000D01*
X10640000Y-2030000D02*
X10600000Y-2070000D01*
X10600000Y-6130000D02*
X10640000Y-6170000D01*
X10640000Y-6130000D02*
X10600000Y-6170000D01*
X10600000Y-6430000D02*
X10640000Y-6470000D01*
X10640000Y-6430000D02*
X10600000Y-6470000D01*
X10600000Y-10530000D02*
X10640000Y-10570000D01*
X10640000Y-10530000D02*
X10600000Y-10570000D01*
X11660000Y-2030000D02*
X11700000Y-2070000D01*
X11700000Y-2030000D02*
X11660000Y-2070000D01*
X11660000Y-6130000D02*
X11700000Y-6170000D01*
X11700000Y-6130000D02*
X11660000Y-6170000D01*
X11660000Y-6430000D02*
X11700000Y-6470000D01*
X11700000Y-6430000D02*
X11660000Y-6470000D01*
X11660000Y-10530000D02*
X11700000Y-10570000D01*
X11700000Y-10530000D02*
X11660000Y-10570000D01*
X11720000Y-2030000D02*
X11760000Y-2070000D01*
X11760000Y-2030000D02*
X11720000Y-2070000D01*
X11720000Y-6130000D02*
X11760000Y-6170000D01*
X11760000Y-6130000D02*
X11720000Y-6170000D01*
X11720000Y-6430000D02*
X11760000Y-6470000D01*
X11760000Y-6430000D02*
X11720000Y-6470000D01*
X11720000Y-10530000D02*
X11760000Y-10570000D01*
X11760000Y-10530000D02*
X11720000Y-10570000D01*
X11776001Y-2030000D02*
X11816001Y-2070000D01*
X11816001Y-2030000D02*
X11776001Y-2070000D01*
X11776001Y-6430000D02*
X11816001Y-6470000D01*
X11816001Y-6430000D02*
X11776001Y-6470000D01*
X11780000Y-6130000D02*
X11820000Y-6170000D01*
X11820000Y-6130000D02*
X11780000Y-6170000D01*
X11780000Y-10530000D02*
X11820000Y-10570000D01*
X11820000Y-10530000D02*
X11780000Y-10570000D01*
X11840000Y-2030000D02*
X11880000Y-2070000D01*
X11880000Y-2030000D02*
X11840000Y-2070000D01*
X11840000Y-6130000D02*
X11880000Y-6170000D01*
X11880000Y-6130000D02*
X11840000Y-6170000D01*
X11840000Y-6430000D02*
X11880000Y-6470000D01*
X11880000Y-6430000D02*
X11840000Y-6470000D01*
X11840000Y-10530000D02*
X11880000Y-10570000D01*
X11880000Y-10530000D02*
X11840000Y-10570000D01*
X11900000Y-2030000D02*
X11940000Y-2070000D01*
X11940000Y-2030000D02*
X11900000Y-2070000D01*
X11900000Y-6430000D02*
X11940000Y-6470000D01*
X11940000Y-6430000D02*
X11900000Y-6470000D01*
X11903999Y-6130000D02*
X11943999Y-6170000D01*
X11943999Y-6130000D02*
X11903999Y-6170000D01*
X11903999Y-10530000D02*
X11943999Y-10570000D01*
X11943999Y-10530000D02*
X11903999Y-10570000D01*
X11960000Y-2030000D02*
X12000000Y-2070000D01*
X12000000Y-2030000D02*
X11960000Y-2070000D01*
X11960000Y-6130000D02*
X12000000Y-6170000D01*
X12000000Y-6130000D02*
X11960000Y-6170000D01*
X11960000Y-6430000D02*
X12000000Y-6470000D01*
X12000000Y-6430000D02*
X11960000Y-6470000D01*
X11960000Y-10530000D02*
X12000000Y-10570000D01*
X12000000Y-10530000D02*
X11960000Y-10570000D01*
X12020000Y-2030000D02*
X12060000Y-2070000D01*
X12060000Y-2030000D02*
X12020000Y-2070000D01*
X12020000Y-6130000D02*
X12060000Y-6170000D01*
X12060000Y-6130000D02*
X12020000Y-6170000D01*
X12020000Y-6430000D02*
X12060000Y-6470000D01*
X12060000Y-6430000D02*
X12020000Y-6470000D01*
X12020000Y-10530000D02*
X12060000Y-10570000D01*
X12060000Y-10530000D02*
X12020000Y-10570000D01*
D13*
X1965000Y-1421999D02*
G75*
G03*
X1965000Y-1421999I-40000J0D01*
G01*
X1965000Y-1550000D02*
G75*
G03*
X1965000Y-1550000I-40000J0D01*
G01*
X1965000Y-1550000D02*
G75*
G03*
X1965000Y-1550000I-40000J0D01*
G01*
X1965000Y-1678000D02*
G75*
G03*
X1965000Y-1678000I-40000J0D01*
G01*
X1965000Y-10922000D02*
G75*
G03*
X1965000Y-10922000I-40000J0D01*
G01*
X1965000Y-11050000D02*
G75*
G03*
X1965000Y-11050000I-40000J0D01*
G01*
X1965000Y-11050000D02*
G75*
G03*
X1965000Y-11050000I-40000J0D01*
G01*
X1965000Y-11178001D02*
G75*
G03*
X1965000Y-11178001I-40000J0D01*
G01*
X2450000Y-3650000D02*
G75*
G03*
X2450000Y-3650000I-40000J0D01*
G01*
X2450000Y-4550000D02*
G75*
G03*
X2450000Y-4550000I-40000J0D01*
G01*
X2450000Y-8050000D02*
G75*
G03*
X2450000Y-8050000I-40000J0D01*
G01*
X2450000Y-8950000D02*
G75*
G03*
X2450000Y-8950000I-40000J0D01*
G01*
X3130000Y-3650000D02*
G75*
G03*
X3130000Y-3650000I-40000J0D01*
G01*
X3130000Y-4550000D02*
G75*
G03*
X3130000Y-4550000I-40000J0D01*
G01*
X3130000Y-8050000D02*
G75*
G03*
X3130000Y-8050000I-40000J0D01*
G01*
X3130000Y-8950000D02*
G75*
G03*
X3130000Y-8950000I-40000J0D01*
G01*
X9015000Y-1421999D02*
G75*
G03*
X9015000Y-1421999I-40000J0D01*
G01*
X9015000Y-1550000D02*
G75*
G03*
X9015000Y-1550000I-40000J0D01*
G01*
X9015000Y-1678000D02*
G75*
G03*
X9015000Y-1678000I-40000J0D01*
G01*
X9015000Y-10915499D02*
G75*
G03*
X9015000Y-10915499I-40000J0D01*
G01*
X9015000Y-11043500D02*
G75*
G03*
X9015000Y-11043500I-40000J0D01*
G01*
X9015000Y-11043500D02*
G75*
G03*
X9015000Y-11043500I-40000J0D01*
G01*
X9015000Y-11171500D02*
G75*
G03*
X9015000Y-11171500I-40000J0D01*
G01*
X13365000Y-1421999D02*
G75*
G03*
X13365000Y-1421999I-40000J0D01*
G01*
X13365000Y-1550000D02*
G75*
G03*
X13365000Y-1550000I-40000J0D01*
G01*
X13365000Y-1678000D02*
G75*
G03*
X13365000Y-1678000I-40000J0D01*
G01*
X13365000Y-10922000D02*
G75*
G03*
X13365000Y-10922000I-40000J0D01*
G01*
X13365000Y-10922000D02*
G75*
G03*
X13365000Y-10922000I-40000J0D01*
G01*
X13365000Y-11050000D02*
G75*
G03*
X13365000Y-11050000I-40000J0D01*
G01*
X13365000Y-11050000D02*
G75*
G03*
X13365000Y-11050000I-40000J0D01*
G01*
X13365000Y-11178001D02*
G75*
G03*
X13365000Y-11178001I-40000J0D01*
G01*
D14*
X3350000Y-4050000D02*
X3350000Y-4150000D01*
X3300000Y-4100000D02*
X3400000Y-4100000D01*
X3350000Y-8450000D02*
X3350000Y-8550000D01*
X3300000Y-8500000D02*
X3400000Y-8500000D01*
X4450000Y-11000000D02*
X4450000Y-11100000D01*
X4400000Y-11050000D02*
X4500000Y-11050000D01*
X7550000Y-4050000D02*
X7550000Y-4150000D01*
X7500000Y-4100000D02*
X7600000Y-4100000D01*
X7550000Y-8450000D02*
X7550000Y-8550000D01*
X7500000Y-8500000D02*
X7600000Y-8500000D01*
X11900000Y-4050000D02*
X11900000Y-4150000D01*
X11850000Y-4100000D02*
X11950000Y-4100000D01*
X11900000Y-8450000D02*
X11900000Y-8550000D01*
X11850000Y-8500000D02*
X11950000Y-8500000D01*
D15*
X1590730Y-1590730D02*
X1590730Y-1509270D01*
X1509270Y-1509270D01*
X1509270Y-1590730D01*
X1590730Y-1590730D01*
X1590730Y-1590730D02*
X1590730Y-1509270D01*
X1509270Y-1509270D01*
X1509270Y-1590730D01*
X1590730Y-1590730D01*
X1590730Y-11090730D02*
X1590730Y-11009270D01*
X1509270Y-11009270D01*
X1509270Y-11090730D01*
X1590730Y-11090730D01*
X1590730Y-11090730D02*
X1590730Y-11009270D01*
X1509270Y-11009270D01*
X1509270Y-11090730D01*
X1590730Y-11090730D01*
X13740730Y-11090730D02*
X13740730Y-11009270D01*
X13659270Y-11009270D01*
X13659270Y-11090730D01*
X13740730Y-11090730D01*
X13740730Y-11090730D02*
X13740730Y-11009270D01*
X13659270Y-11009270D01*
X13659270Y-11090730D01*
X13740730Y-11090730D01*
D11*
X1540119Y-11600976D02*
X1540119Y-11400976D01*
X1540119Y-11400976D02*
X1587738Y-11400976D01*
X1587738Y-11400976D02*
X1616309Y-11410500D01*
X1616309Y-11410500D02*
X1635357Y-11429548D01*
X1635357Y-11429548D02*
X1644881Y-11448595D01*
X1644881Y-11448595D02*
X1654405Y-11486690D01*
X1654405Y-11486690D02*
X1654405Y-11515262D01*
X1654405Y-11515262D02*
X1644881Y-11553357D01*
X1644881Y-11553357D02*
X1635357Y-11572405D01*
X1635357Y-11572405D02*
X1616309Y-11591452D01*
X1616309Y-11591452D02*
X1587738Y-11600976D01*
X1587738Y-11600976D02*
X1540119Y-11600976D01*
X1740119Y-11600976D02*
X1740119Y-11467643D01*
X1740119Y-11505738D02*
X1749643Y-11486690D01*
X1749643Y-11486690D02*
X1759167Y-11477167D01*
X1759167Y-11477167D02*
X1778214Y-11467643D01*
X1778214Y-11467643D02*
X1797262Y-11467643D01*
X1863928Y-11600976D02*
X1863928Y-11467643D01*
X1863928Y-11400976D02*
X1854405Y-11410500D01*
X1854405Y-11410500D02*
X1863928Y-11420024D01*
X1863928Y-11420024D02*
X1873452Y-11410500D01*
X1873452Y-11410500D02*
X1863928Y-11400976D01*
X1863928Y-11400976D02*
X1863928Y-11420024D01*
X1987738Y-11600976D02*
X1968690Y-11591452D01*
X1968690Y-11591452D02*
X1959167Y-11572405D01*
X1959167Y-11572405D02*
X1959167Y-11400976D01*
X2092500Y-11600976D02*
X2073452Y-11591452D01*
X2073452Y-11591452D02*
X2063928Y-11572405D01*
X2063928Y-11572405D02*
X2063928Y-11400976D01*
X2288690Y-11600976D02*
X2288690Y-11400976D01*
X2288690Y-11400976D02*
X2355357Y-11543833D01*
X2355357Y-11543833D02*
X2422024Y-11400976D01*
X2422024Y-11400976D02*
X2422024Y-11600976D01*
X2602976Y-11600976D02*
X2602976Y-11496214D01*
X2602976Y-11496214D02*
X2593452Y-11477167D01*
X2593452Y-11477167D02*
X2574405Y-11467643D01*
X2574405Y-11467643D02*
X2536309Y-11467643D01*
X2536309Y-11467643D02*
X2517262Y-11477167D01*
X2602976Y-11591452D02*
X2583929Y-11600976D01*
X2583929Y-11600976D02*
X2536309Y-11600976D01*
X2536309Y-11600976D02*
X2517262Y-11591452D01*
X2517262Y-11591452D02*
X2507738Y-11572405D01*
X2507738Y-11572405D02*
X2507738Y-11553357D01*
X2507738Y-11553357D02*
X2517262Y-11534309D01*
X2517262Y-11534309D02*
X2536309Y-11524786D01*
X2536309Y-11524786D02*
X2583929Y-11524786D01*
X2583929Y-11524786D02*
X2602976Y-11515262D01*
X2698214Y-11467643D02*
X2698214Y-11667643D01*
X2698214Y-11477167D02*
X2717262Y-11467643D01*
X2717262Y-11467643D02*
X2755357Y-11467643D01*
X2755357Y-11467643D02*
X2774405Y-11477167D01*
X2774405Y-11477167D02*
X2783929Y-11486690D01*
X2783929Y-11486690D02*
X2793452Y-11505738D01*
X2793452Y-11505738D02*
X2793452Y-11562881D01*
X2793452Y-11562881D02*
X2783929Y-11581928D01*
X2783929Y-11581928D02*
X2774405Y-11591452D01*
X2774405Y-11591452D02*
X2755357Y-11600976D01*
X2755357Y-11600976D02*
X2717262Y-11600976D01*
X2717262Y-11600976D02*
X2698214Y-11591452D01*
X2879167Y-11581928D02*
X2888690Y-11591452D01*
X2888690Y-11591452D02*
X2879167Y-11600976D01*
X2879167Y-11600976D02*
X2869643Y-11591452D01*
X2869643Y-11591452D02*
X2879167Y-11581928D01*
X2879167Y-11581928D02*
X2879167Y-11600976D01*
X2879167Y-11477167D02*
X2888690Y-11486690D01*
X2888690Y-11486690D02*
X2879167Y-11496214D01*
X2879167Y-11496214D02*
X2869643Y-11486690D01*
X2869643Y-11486690D02*
X2879167Y-11477167D01*
X2879167Y-11477167D02*
X2879167Y-11496214D01*
D12*
X1252500Y-11927500D02*
X1292500Y-11967500D01*
X1292500Y-11927500D02*
X1252500Y-11967500D01*
D11*
X1578214Y-11820976D02*
X1597262Y-11820976D01*
X1597262Y-11820976D02*
X1616309Y-11830500D01*
X1616309Y-11830500D02*
X1625833Y-11840024D01*
X1625833Y-11840024D02*
X1635357Y-11859071D01*
X1635357Y-11859071D02*
X1644881Y-11897167D01*
X1644881Y-11897167D02*
X1644881Y-11944786D01*
X1644881Y-11944786D02*
X1635357Y-11982881D01*
X1635357Y-11982881D02*
X1625833Y-12001928D01*
X1625833Y-12001928D02*
X1616309Y-12011452D01*
X1616309Y-12011452D02*
X1597262Y-12020976D01*
X1597262Y-12020976D02*
X1578214Y-12020976D01*
X1578214Y-12020976D02*
X1559167Y-12011452D01*
X1559167Y-12011452D02*
X1549643Y-12001928D01*
X1549643Y-12001928D02*
X1540119Y-11982881D01*
X1540119Y-11982881D02*
X1530595Y-11944786D01*
X1530595Y-11944786D02*
X1530595Y-11897167D01*
X1530595Y-11897167D02*
X1540119Y-11859071D01*
X1540119Y-11859071D02*
X1549643Y-11840024D01*
X1549643Y-11840024D02*
X1559167Y-11830500D01*
X1559167Y-11830500D02*
X1578214Y-11820976D01*
X1730595Y-12001928D02*
X1740119Y-12011452D01*
X1740119Y-12011452D02*
X1730595Y-12020976D01*
X1730595Y-12020976D02*
X1721071Y-12011452D01*
X1721071Y-12011452D02*
X1730595Y-12001928D01*
X1730595Y-12001928D02*
X1730595Y-12020976D01*
X1911548Y-11887643D02*
X1911548Y-12020976D01*
X1863928Y-11811452D02*
X1816309Y-11954309D01*
X1816309Y-11954309D02*
X1940119Y-11954309D01*
X2054405Y-11820976D02*
X2073452Y-11820976D01*
X2073452Y-11820976D02*
X2092500Y-11830500D01*
X2092500Y-11830500D02*
X2102024Y-11840024D01*
X2102024Y-11840024D02*
X2111548Y-11859071D01*
X2111548Y-11859071D02*
X2121071Y-11897167D01*
X2121071Y-11897167D02*
X2121071Y-11944786D01*
X2121071Y-11944786D02*
X2111548Y-11982881D01*
X2111548Y-11982881D02*
X2102024Y-12001928D01*
X2102024Y-12001928D02*
X2092500Y-12011452D01*
X2092500Y-12011452D02*
X2073452Y-12020976D01*
X2073452Y-12020976D02*
X2054405Y-12020976D01*
X2054405Y-12020976D02*
X2035357Y-12011452D01*
X2035357Y-12011452D02*
X2025833Y-12001928D01*
X2025833Y-12001928D02*
X2016309Y-11982881D01*
X2016309Y-11982881D02*
X2006786Y-11944786D01*
X2006786Y-11944786D02*
X2006786Y-11897167D01*
X2006786Y-11897167D02*
X2016309Y-11859071D01*
X2016309Y-11859071D02*
X2025833Y-11840024D01*
X2025833Y-11840024D02*
X2035357Y-11830500D01*
X2035357Y-11830500D02*
X2054405Y-11820976D01*
X2244881Y-11820976D02*
X2263929Y-11820976D01*
X2263929Y-11820976D02*
X2282976Y-11830500D01*
X2282976Y-11830500D02*
X2292500Y-11840024D01*
X2292500Y-11840024D02*
X2302024Y-11859071D01*
X2302024Y-11859071D02*
X2311548Y-11897167D01*
X2311548Y-11897167D02*
X2311548Y-11944786D01*
X2311548Y-11944786D02*
X2302024Y-11982881D01*
X2302024Y-11982881D02*
X2292500Y-12001928D01*
X2292500Y-12001928D02*
X2282976Y-12011452D01*
X2282976Y-12011452D02*
X2263929Y-12020976D01*
X2263929Y-12020976D02*
X2244881Y-12020976D01*
X2244881Y-12020976D02*
X2225833Y-12011452D01*
X2225833Y-12011452D02*
X2216310Y-12001928D01*
X2216310Y-12001928D02*
X2206786Y-11982881D01*
X2206786Y-11982881D02*
X2197262Y-11944786D01*
X2197262Y-11944786D02*
X2197262Y-11897167D01*
X2197262Y-11897167D02*
X2206786Y-11859071D01*
X2206786Y-11859071D02*
X2216310Y-11840024D01*
X2216310Y-11840024D02*
X2225833Y-11830500D01*
X2225833Y-11830500D02*
X2244881Y-11820976D01*
X2397262Y-12020976D02*
X2397262Y-11887643D01*
X2397262Y-11906690D02*
X2406786Y-11897167D01*
X2406786Y-11897167D02*
X2425833Y-11887643D01*
X2425833Y-11887643D02*
X2454405Y-11887643D01*
X2454405Y-11887643D02*
X2473452Y-11897167D01*
X2473452Y-11897167D02*
X2482976Y-11916214D01*
X2482976Y-11916214D02*
X2482976Y-12020976D01*
X2482976Y-11916214D02*
X2492500Y-11897167D01*
X2492500Y-11897167D02*
X2511548Y-11887643D01*
X2511548Y-11887643D02*
X2540119Y-11887643D01*
X2540119Y-11887643D02*
X2559167Y-11897167D01*
X2559167Y-11897167D02*
X2568691Y-11916214D01*
X2568691Y-11916214D02*
X2568691Y-12020976D01*
X2663929Y-12020976D02*
X2663929Y-11887643D01*
X2663929Y-11906690D02*
X2673452Y-11897167D01*
X2673452Y-11897167D02*
X2692500Y-11887643D01*
X2692500Y-11887643D02*
X2721072Y-11887643D01*
X2721072Y-11887643D02*
X2740119Y-11897167D01*
X2740119Y-11897167D02*
X2749643Y-11916214D01*
X2749643Y-11916214D02*
X2749643Y-12020976D01*
X2749643Y-11916214D02*
X2759167Y-11897167D01*
X2759167Y-11897167D02*
X2778214Y-11887643D01*
X2778214Y-11887643D02*
X2806786Y-11887643D01*
X2806786Y-11887643D02*
X2825833Y-11897167D01*
X2825833Y-11897167D02*
X2835357Y-11916214D01*
X2835357Y-11916214D02*
X2835357Y-12020976D01*
X3193452Y-11811452D02*
X3022024Y-12068595D01*
X3418214Y-11820976D02*
X3437262Y-11820976D01*
X3437262Y-11820976D02*
X3456310Y-11830500D01*
X3456310Y-11830500D02*
X3465833Y-11840024D01*
X3465833Y-11840024D02*
X3475357Y-11859071D01*
X3475357Y-11859071D02*
X3484881Y-11897167D01*
X3484881Y-11897167D02*
X3484881Y-11944786D01*
X3484881Y-11944786D02*
X3475357Y-11982881D01*
X3475357Y-11982881D02*
X3465833Y-12001928D01*
X3465833Y-12001928D02*
X3456310Y-12011452D01*
X3456310Y-12011452D02*
X3437262Y-12020976D01*
X3437262Y-12020976D02*
X3418214Y-12020976D01*
X3418214Y-12020976D02*
X3399167Y-12011452D01*
X3399167Y-12011452D02*
X3389643Y-12001928D01*
X3389643Y-12001928D02*
X3380119Y-11982881D01*
X3380119Y-11982881D02*
X3370595Y-11944786D01*
X3370595Y-11944786D02*
X3370595Y-11897167D01*
X3370595Y-11897167D02*
X3380119Y-11859071D01*
X3380119Y-11859071D02*
X3389643Y-11840024D01*
X3389643Y-11840024D02*
X3399167Y-11830500D01*
X3399167Y-11830500D02*
X3418214Y-11820976D01*
X3570595Y-12001928D02*
X3580119Y-12011452D01*
X3580119Y-12011452D02*
X3570595Y-12020976D01*
X3570595Y-12020976D02*
X3561071Y-12011452D01*
X3561071Y-12011452D02*
X3570595Y-12001928D01*
X3570595Y-12001928D02*
X3570595Y-12020976D01*
X3703929Y-11820976D02*
X3722976Y-11820976D01*
X3722976Y-11820976D02*
X3742024Y-11830500D01*
X3742024Y-11830500D02*
X3751548Y-11840024D01*
X3751548Y-11840024D02*
X3761071Y-11859071D01*
X3761071Y-11859071D02*
X3770595Y-11897167D01*
X3770595Y-11897167D02*
X3770595Y-11944786D01*
X3770595Y-11944786D02*
X3761071Y-11982881D01*
X3761071Y-11982881D02*
X3751548Y-12001928D01*
X3751548Y-12001928D02*
X3742024Y-12011452D01*
X3742024Y-12011452D02*
X3722976Y-12020976D01*
X3722976Y-12020976D02*
X3703929Y-12020976D01*
X3703929Y-12020976D02*
X3684881Y-12011452D01*
X3684881Y-12011452D02*
X3675357Y-12001928D01*
X3675357Y-12001928D02*
X3665833Y-11982881D01*
X3665833Y-11982881D02*
X3656310Y-11944786D01*
X3656310Y-11944786D02*
X3656310Y-11897167D01*
X3656310Y-11897167D02*
X3665833Y-11859071D01*
X3665833Y-11859071D02*
X3675357Y-11840024D01*
X3675357Y-11840024D02*
X3684881Y-11830500D01*
X3684881Y-11830500D02*
X3703929Y-11820976D01*
X3961071Y-12020976D02*
X3846786Y-12020976D01*
X3903929Y-12020976D02*
X3903929Y-11820976D01*
X3903929Y-11820976D02*
X3884881Y-11849548D01*
X3884881Y-11849548D02*
X3865833Y-11868595D01*
X3865833Y-11868595D02*
X3846786Y-11878119D01*
X4142024Y-11820976D02*
X4046786Y-11820976D01*
X4046786Y-11820976D02*
X4037262Y-11916214D01*
X4037262Y-11916214D02*
X4046786Y-11906690D01*
X4046786Y-11906690D02*
X4065833Y-11897167D01*
X4065833Y-11897167D02*
X4113452Y-11897167D01*
X4113452Y-11897167D02*
X4132500Y-11906690D01*
X4132500Y-11906690D02*
X4142024Y-11916214D01*
X4142024Y-11916214D02*
X4151548Y-11935262D01*
X4151548Y-11935262D02*
X4151548Y-11982881D01*
X4151548Y-11982881D02*
X4142024Y-12001928D01*
X4142024Y-12001928D02*
X4132500Y-12011452D01*
X4132500Y-12011452D02*
X4113452Y-12020976D01*
X4113452Y-12020976D02*
X4065833Y-12020976D01*
X4065833Y-12020976D02*
X4046786Y-12011452D01*
X4046786Y-12011452D02*
X4037262Y-12001928D01*
X4218214Y-11820976D02*
X4351548Y-11820976D01*
X4351548Y-11820976D02*
X4265833Y-12020976D01*
X4418214Y-11820976D02*
X4418214Y-11859071D01*
X4494405Y-11820976D02*
X4494405Y-11859071D01*
X4757262Y-12097167D02*
X4747738Y-12087643D01*
X4747738Y-12087643D02*
X4728691Y-12059071D01*
X4728691Y-12059071D02*
X4719167Y-12040024D01*
X4719167Y-12040024D02*
X4709643Y-12011452D01*
X4709643Y-12011452D02*
X4700119Y-11963833D01*
X4700119Y-11963833D02*
X4700119Y-11925738D01*
X4700119Y-11925738D02*
X4709643Y-11878119D01*
X4709643Y-11878119D02*
X4719167Y-11849548D01*
X4719167Y-11849548D02*
X4728691Y-11830500D01*
X4728691Y-11830500D02*
X4747738Y-11801928D01*
X4747738Y-11801928D02*
X4757262Y-11792405D01*
X4938214Y-12020976D02*
X4823929Y-12020976D01*
X4881072Y-12020976D02*
X4881072Y-11820976D01*
X4881072Y-11820976D02*
X4862024Y-11849548D01*
X4862024Y-11849548D02*
X4842976Y-11868595D01*
X4842976Y-11868595D02*
X4823929Y-11878119D01*
X5109643Y-11820976D02*
X5071548Y-11820976D01*
X5071548Y-11820976D02*
X5052500Y-11830500D01*
X5052500Y-11830500D02*
X5042976Y-11840024D01*
X5042976Y-11840024D02*
X5023929Y-11868595D01*
X5023929Y-11868595D02*
X5014405Y-11906690D01*
X5014405Y-11906690D02*
X5014405Y-11982881D01*
X5014405Y-11982881D02*
X5023929Y-12001928D01*
X5023929Y-12001928D02*
X5033453Y-12011452D01*
X5033453Y-12011452D02*
X5052500Y-12020976D01*
X5052500Y-12020976D02*
X5090595Y-12020976D01*
X5090595Y-12020976D02*
X5109643Y-12011452D01*
X5109643Y-12011452D02*
X5119167Y-12001928D01*
X5119167Y-12001928D02*
X5128691Y-11982881D01*
X5128691Y-11982881D02*
X5128691Y-11935262D01*
X5128691Y-11935262D02*
X5119167Y-11916214D01*
X5119167Y-11916214D02*
X5109643Y-11906690D01*
X5109643Y-11906690D02*
X5090595Y-11897167D01*
X5090595Y-11897167D02*
X5052500Y-11897167D01*
X5052500Y-11897167D02*
X5033453Y-11906690D01*
X5033453Y-11906690D02*
X5023929Y-11916214D01*
X5023929Y-11916214D02*
X5014405Y-11935262D01*
X5242976Y-11906690D02*
X5223929Y-11897167D01*
X5223929Y-11897167D02*
X5214405Y-11887643D01*
X5214405Y-11887643D02*
X5204881Y-11868595D01*
X5204881Y-11868595D02*
X5204881Y-11859071D01*
X5204881Y-11859071D02*
X5214405Y-11840024D01*
X5214405Y-11840024D02*
X5223929Y-11830500D01*
X5223929Y-11830500D02*
X5242976Y-11820976D01*
X5242976Y-11820976D02*
X5281072Y-11820976D01*
X5281072Y-11820976D02*
X5300119Y-11830500D01*
X5300119Y-11830500D02*
X5309643Y-11840024D01*
X5309643Y-11840024D02*
X5319167Y-11859071D01*
X5319167Y-11859071D02*
X5319167Y-11868595D01*
X5319167Y-11868595D02*
X5309643Y-11887643D01*
X5309643Y-11887643D02*
X5300119Y-11897167D01*
X5300119Y-11897167D02*
X5281072Y-11906690D01*
X5281072Y-11906690D02*
X5242976Y-11906690D01*
X5242976Y-11906690D02*
X5223929Y-11916214D01*
X5223929Y-11916214D02*
X5214405Y-11925738D01*
X5214405Y-11925738D02*
X5204881Y-11944786D01*
X5204881Y-11944786D02*
X5204881Y-11982881D01*
X5204881Y-11982881D02*
X5214405Y-12001928D01*
X5214405Y-12001928D02*
X5223929Y-12011452D01*
X5223929Y-12011452D02*
X5242976Y-12020976D01*
X5242976Y-12020976D02*
X5281072Y-12020976D01*
X5281072Y-12020976D02*
X5300119Y-12011452D01*
X5300119Y-12011452D02*
X5309643Y-12001928D01*
X5309643Y-12001928D02*
X5319167Y-11982881D01*
X5319167Y-11982881D02*
X5319167Y-11944786D01*
X5319167Y-11944786D02*
X5309643Y-11925738D01*
X5309643Y-11925738D02*
X5300119Y-11916214D01*
X5300119Y-11916214D02*
X5281072Y-11906690D01*
X5524881Y-12020976D02*
X5524881Y-11820976D01*
X5610595Y-12020976D02*
X5610595Y-11916214D01*
X5610595Y-11916214D02*
X5601072Y-11897167D01*
X5601072Y-11897167D02*
X5582024Y-11887643D01*
X5582024Y-11887643D02*
X5553453Y-11887643D01*
X5553453Y-11887643D02*
X5534405Y-11897167D01*
X5534405Y-11897167D02*
X5524881Y-11906690D01*
X5734405Y-12020976D02*
X5715357Y-12011452D01*
X5715357Y-12011452D02*
X5705833Y-12001928D01*
X5705833Y-12001928D02*
X5696310Y-11982881D01*
X5696310Y-11982881D02*
X5696310Y-11925738D01*
X5696310Y-11925738D02*
X5705833Y-11906690D01*
X5705833Y-11906690D02*
X5715357Y-11897167D01*
X5715357Y-11897167D02*
X5734405Y-11887643D01*
X5734405Y-11887643D02*
X5762976Y-11887643D01*
X5762976Y-11887643D02*
X5782024Y-11897167D01*
X5782024Y-11897167D02*
X5791548Y-11906690D01*
X5791548Y-11906690D02*
X5801072Y-11925738D01*
X5801072Y-11925738D02*
X5801072Y-11982881D01*
X5801072Y-11982881D02*
X5791548Y-12001928D01*
X5791548Y-12001928D02*
X5782024Y-12011452D01*
X5782024Y-12011452D02*
X5762976Y-12020976D01*
X5762976Y-12020976D02*
X5734405Y-12020976D01*
X5915357Y-12020976D02*
X5896310Y-12011452D01*
X5896310Y-12011452D02*
X5886786Y-11992405D01*
X5886786Y-11992405D02*
X5886786Y-11820976D01*
X6067738Y-12011452D02*
X6048691Y-12020976D01*
X6048691Y-12020976D02*
X6010595Y-12020976D01*
X6010595Y-12020976D02*
X5991548Y-12011452D01*
X5991548Y-12011452D02*
X5982024Y-11992405D01*
X5982024Y-11992405D02*
X5982024Y-11916214D01*
X5982024Y-11916214D02*
X5991548Y-11897167D01*
X5991548Y-11897167D02*
X6010595Y-11887643D01*
X6010595Y-11887643D02*
X6048691Y-11887643D01*
X6048691Y-11887643D02*
X6067738Y-11897167D01*
X6067738Y-11897167D02*
X6077262Y-11916214D01*
X6077262Y-11916214D02*
X6077262Y-11935262D01*
X6077262Y-11935262D02*
X5982024Y-11954309D01*
X6153453Y-12011452D02*
X6172500Y-12020976D01*
X6172500Y-12020976D02*
X6210595Y-12020976D01*
X6210595Y-12020976D02*
X6229643Y-12011452D01*
X6229643Y-12011452D02*
X6239167Y-11992405D01*
X6239167Y-11992405D02*
X6239167Y-11982881D01*
X6239167Y-11982881D02*
X6229643Y-11963833D01*
X6229643Y-11963833D02*
X6210595Y-11954309D01*
X6210595Y-11954309D02*
X6182024Y-11954309D01*
X6182024Y-11954309D02*
X6162976Y-11944786D01*
X6162976Y-11944786D02*
X6153453Y-11925738D01*
X6153453Y-11925738D02*
X6153453Y-11916214D01*
X6153453Y-11916214D02*
X6162976Y-11897167D01*
X6162976Y-11897167D02*
X6182024Y-11887643D01*
X6182024Y-11887643D02*
X6210595Y-11887643D01*
X6210595Y-11887643D02*
X6229643Y-11897167D01*
X6305834Y-12097167D02*
X6315357Y-12087643D01*
X6315357Y-12087643D02*
X6334405Y-12059071D01*
X6334405Y-12059071D02*
X6343929Y-12040024D01*
X6343929Y-12040024D02*
X6353453Y-12011452D01*
X6353453Y-12011452D02*
X6362976Y-11963833D01*
X6362976Y-11963833D02*
X6362976Y-11925738D01*
X6362976Y-11925738D02*
X6353453Y-11878119D01*
X6353453Y-11878119D02*
X6343929Y-11849548D01*
X6343929Y-11849548D02*
X6334405Y-11830500D01*
X6334405Y-11830500D02*
X6315357Y-11801928D01*
X6315357Y-11801928D02*
X6305834Y-11792405D01*
X6635357Y-12097167D02*
X6625833Y-12087643D01*
X6625833Y-12087643D02*
X6606786Y-12059071D01*
X6606786Y-12059071D02*
X6597262Y-12040024D01*
X6597262Y-12040024D02*
X6587738Y-12011452D01*
X6587738Y-12011452D02*
X6578214Y-11963833D01*
X6578214Y-11963833D02*
X6578214Y-11925738D01*
X6578214Y-11925738D02*
X6587738Y-11878119D01*
X6587738Y-11878119D02*
X6597262Y-11849548D01*
X6597262Y-11849548D02*
X6606786Y-11830500D01*
X6606786Y-11830500D02*
X6625833Y-11801928D01*
X6625833Y-11801928D02*
X6635357Y-11792405D01*
X6711548Y-11887643D02*
X6711548Y-12020976D01*
X6711548Y-11906690D02*
X6721072Y-11897167D01*
X6721072Y-11897167D02*
X6740119Y-11887643D01*
X6740119Y-11887643D02*
X6768691Y-11887643D01*
X6768691Y-11887643D02*
X6787738Y-11897167D01*
X6787738Y-11897167D02*
X6797262Y-11916214D01*
X6797262Y-11916214D02*
X6797262Y-12020976D01*
X6921072Y-12020976D02*
X6902024Y-12011452D01*
X6902024Y-12011452D02*
X6892500Y-12001928D01*
X6892500Y-12001928D02*
X6882976Y-11982881D01*
X6882976Y-11982881D02*
X6882976Y-11925738D01*
X6882976Y-11925738D02*
X6892500Y-11906690D01*
X6892500Y-11906690D02*
X6902024Y-11897167D01*
X6902024Y-11897167D02*
X6921072Y-11887643D01*
X6921072Y-11887643D02*
X6949643Y-11887643D01*
X6949643Y-11887643D02*
X6968691Y-11897167D01*
X6968691Y-11897167D02*
X6978214Y-11906690D01*
X6978214Y-11906690D02*
X6987738Y-11925738D01*
X6987738Y-11925738D02*
X6987738Y-11982881D01*
X6987738Y-11982881D02*
X6978214Y-12001928D01*
X6978214Y-12001928D02*
X6968691Y-12011452D01*
X6968691Y-12011452D02*
X6949643Y-12020976D01*
X6949643Y-12020976D02*
X6921072Y-12020976D01*
X7044881Y-11887643D02*
X7121072Y-11887643D01*
X7073453Y-11820976D02*
X7073453Y-11992405D01*
X7073453Y-11992405D02*
X7082976Y-12011452D01*
X7082976Y-12011452D02*
X7102024Y-12020976D01*
X7102024Y-12020976D02*
X7121072Y-12020976D01*
X7307738Y-11887643D02*
X7307738Y-12087643D01*
X7307738Y-11897167D02*
X7326786Y-11887643D01*
X7326786Y-11887643D02*
X7364881Y-11887643D01*
X7364881Y-11887643D02*
X7383929Y-11897167D01*
X7383929Y-11897167D02*
X7393453Y-11906690D01*
X7393453Y-11906690D02*
X7402976Y-11925738D01*
X7402976Y-11925738D02*
X7402976Y-11982881D01*
X7402976Y-11982881D02*
X7393453Y-12001928D01*
X7393453Y-12001928D02*
X7383929Y-12011452D01*
X7383929Y-12011452D02*
X7364881Y-12020976D01*
X7364881Y-12020976D02*
X7326786Y-12020976D01*
X7326786Y-12020976D02*
X7307738Y-12011452D01*
X7517262Y-12020976D02*
X7498214Y-12011452D01*
X7498214Y-12011452D02*
X7488691Y-11992405D01*
X7488691Y-11992405D02*
X7488691Y-11820976D01*
X7679167Y-12020976D02*
X7679167Y-11916214D01*
X7679167Y-11916214D02*
X7669643Y-11897167D01*
X7669643Y-11897167D02*
X7650595Y-11887643D01*
X7650595Y-11887643D02*
X7612500Y-11887643D01*
X7612500Y-11887643D02*
X7593453Y-11897167D01*
X7679167Y-12011452D02*
X7660119Y-12020976D01*
X7660119Y-12020976D02*
X7612500Y-12020976D01*
X7612500Y-12020976D02*
X7593453Y-12011452D01*
X7593453Y-12011452D02*
X7583929Y-11992405D01*
X7583929Y-11992405D02*
X7583929Y-11973357D01*
X7583929Y-11973357D02*
X7593453Y-11954309D01*
X7593453Y-11954309D02*
X7612500Y-11944786D01*
X7612500Y-11944786D02*
X7660119Y-11944786D01*
X7660119Y-11944786D02*
X7679167Y-11935262D01*
X7745834Y-11887643D02*
X7822024Y-11887643D01*
X7774405Y-11820976D02*
X7774405Y-11992405D01*
X7774405Y-11992405D02*
X7783929Y-12011452D01*
X7783929Y-12011452D02*
X7802976Y-12020976D01*
X7802976Y-12020976D02*
X7822024Y-12020976D01*
X7964881Y-12011452D02*
X7945834Y-12020976D01*
X7945834Y-12020976D02*
X7907738Y-12020976D01*
X7907738Y-12020976D02*
X7888691Y-12011452D01*
X7888691Y-12011452D02*
X7879167Y-11992405D01*
X7879167Y-11992405D02*
X7879167Y-11916214D01*
X7879167Y-11916214D02*
X7888691Y-11897167D01*
X7888691Y-11897167D02*
X7907738Y-11887643D01*
X7907738Y-11887643D02*
X7945834Y-11887643D01*
X7945834Y-11887643D02*
X7964881Y-11897167D01*
X7964881Y-11897167D02*
X7974405Y-11916214D01*
X7974405Y-11916214D02*
X7974405Y-11935262D01*
X7974405Y-11935262D02*
X7879167Y-11954309D01*
X8145834Y-12020976D02*
X8145834Y-11820976D01*
X8145834Y-12011452D02*
X8126786Y-12020976D01*
X8126786Y-12020976D02*
X8088691Y-12020976D01*
X8088691Y-12020976D02*
X8069643Y-12011452D01*
X8069643Y-12011452D02*
X8060119Y-12001928D01*
X8060119Y-12001928D02*
X8050595Y-11982881D01*
X8050595Y-11982881D02*
X8050595Y-11925738D01*
X8050595Y-11925738D02*
X8060119Y-11906690D01*
X8060119Y-11906690D02*
X8069643Y-11897167D01*
X8069643Y-11897167D02*
X8088691Y-11887643D01*
X8088691Y-11887643D02*
X8126786Y-11887643D01*
X8126786Y-11887643D02*
X8145834Y-11897167D01*
X8222024Y-12097167D02*
X8231548Y-12087643D01*
X8231548Y-12087643D02*
X8250595Y-12059071D01*
X8250595Y-12059071D02*
X8260119Y-12040024D01*
X8260119Y-12040024D02*
X8269643Y-12011452D01*
X8269643Y-12011452D02*
X8279167Y-11963833D01*
X8279167Y-11963833D02*
X8279167Y-11925738D01*
X8279167Y-11925738D02*
X8269643Y-11878119D01*
X8269643Y-11878119D02*
X8260119Y-11849548D01*
X8260119Y-11849548D02*
X8250595Y-11830500D01*
X8250595Y-11830500D02*
X8231548Y-11801928D01*
X8231548Y-11801928D02*
X8222024Y-11792405D01*
D13*
X1292500Y-12211500D02*
G75*
G03*
X1292500Y-12211500I-40000J0D01*
G01*
D11*
X1578214Y-12084976D02*
X1597262Y-12084976D01*
X1597262Y-12084976D02*
X1616309Y-12094500D01*
X1616309Y-12094500D02*
X1625833Y-12104024D01*
X1625833Y-12104024D02*
X1635357Y-12123071D01*
X1635357Y-12123071D02*
X1644881Y-12161167D01*
X1644881Y-12161167D02*
X1644881Y-12208786D01*
X1644881Y-12208786D02*
X1635357Y-12246881D01*
X1635357Y-12246881D02*
X1625833Y-12265928D01*
X1625833Y-12265928D02*
X1616309Y-12275452D01*
X1616309Y-12275452D02*
X1597262Y-12284976D01*
X1597262Y-12284976D02*
X1578214Y-12284976D01*
X1578214Y-12284976D02*
X1559167Y-12275452D01*
X1559167Y-12275452D02*
X1549643Y-12265928D01*
X1549643Y-12265928D02*
X1540119Y-12246881D01*
X1540119Y-12246881D02*
X1530595Y-12208786D01*
X1530595Y-12208786D02*
X1530595Y-12161167D01*
X1530595Y-12161167D02*
X1540119Y-12123071D01*
X1540119Y-12123071D02*
X1549643Y-12104024D01*
X1549643Y-12104024D02*
X1559167Y-12094500D01*
X1559167Y-12094500D02*
X1578214Y-12084976D01*
X1730595Y-12265928D02*
X1740119Y-12275452D01*
X1740119Y-12275452D02*
X1730595Y-12284976D01*
X1730595Y-12284976D02*
X1721071Y-12275452D01*
X1721071Y-12275452D02*
X1730595Y-12265928D01*
X1730595Y-12265928D02*
X1730595Y-12284976D01*
X1854405Y-12170690D02*
X1835357Y-12161167D01*
X1835357Y-12161167D02*
X1825833Y-12151643D01*
X1825833Y-12151643D02*
X1816309Y-12132595D01*
X1816309Y-12132595D02*
X1816309Y-12123071D01*
X1816309Y-12123071D02*
X1825833Y-12104024D01*
X1825833Y-12104024D02*
X1835357Y-12094500D01*
X1835357Y-12094500D02*
X1854405Y-12084976D01*
X1854405Y-12084976D02*
X1892500Y-12084976D01*
X1892500Y-12084976D02*
X1911548Y-12094500D01*
X1911548Y-12094500D02*
X1921071Y-12104024D01*
X1921071Y-12104024D02*
X1930595Y-12123071D01*
X1930595Y-12123071D02*
X1930595Y-12132595D01*
X1930595Y-12132595D02*
X1921071Y-12151643D01*
X1921071Y-12151643D02*
X1911548Y-12161167D01*
X1911548Y-12161167D02*
X1892500Y-12170690D01*
X1892500Y-12170690D02*
X1854405Y-12170690D01*
X1854405Y-12170690D02*
X1835357Y-12180214D01*
X1835357Y-12180214D02*
X1825833Y-12189738D01*
X1825833Y-12189738D02*
X1816309Y-12208786D01*
X1816309Y-12208786D02*
X1816309Y-12246881D01*
X1816309Y-12246881D02*
X1825833Y-12265928D01*
X1825833Y-12265928D02*
X1835357Y-12275452D01*
X1835357Y-12275452D02*
X1854405Y-12284976D01*
X1854405Y-12284976D02*
X1892500Y-12284976D01*
X1892500Y-12284976D02*
X1911548Y-12275452D01*
X1911548Y-12275452D02*
X1921071Y-12265928D01*
X1921071Y-12265928D02*
X1930595Y-12246881D01*
X1930595Y-12246881D02*
X1930595Y-12208786D01*
X1930595Y-12208786D02*
X1921071Y-12189738D01*
X1921071Y-12189738D02*
X1911548Y-12180214D01*
X1911548Y-12180214D02*
X1892500Y-12170690D01*
X2054405Y-12084976D02*
X2073452Y-12084976D01*
X2073452Y-12084976D02*
X2092500Y-12094500D01*
X2092500Y-12094500D02*
X2102024Y-12104024D01*
X2102024Y-12104024D02*
X2111548Y-12123071D01*
X2111548Y-12123071D02*
X2121071Y-12161167D01*
X2121071Y-12161167D02*
X2121071Y-12208786D01*
X2121071Y-12208786D02*
X2111548Y-12246881D01*
X2111548Y-12246881D02*
X2102024Y-12265928D01*
X2102024Y-12265928D02*
X2092500Y-12275452D01*
X2092500Y-12275452D02*
X2073452Y-12284976D01*
X2073452Y-12284976D02*
X2054405Y-12284976D01*
X2054405Y-12284976D02*
X2035357Y-12275452D01*
X2035357Y-12275452D02*
X2025833Y-12265928D01*
X2025833Y-12265928D02*
X2016309Y-12246881D01*
X2016309Y-12246881D02*
X2006786Y-12208786D01*
X2006786Y-12208786D02*
X2006786Y-12161167D01*
X2006786Y-12161167D02*
X2016309Y-12123071D01*
X2016309Y-12123071D02*
X2025833Y-12104024D01*
X2025833Y-12104024D02*
X2035357Y-12094500D01*
X2035357Y-12094500D02*
X2054405Y-12084976D01*
X2244881Y-12084976D02*
X2263929Y-12084976D01*
X2263929Y-12084976D02*
X2282976Y-12094500D01*
X2282976Y-12094500D02*
X2292500Y-12104024D01*
X2292500Y-12104024D02*
X2302024Y-12123071D01*
X2302024Y-12123071D02*
X2311548Y-12161167D01*
X2311548Y-12161167D02*
X2311548Y-12208786D01*
X2311548Y-12208786D02*
X2302024Y-12246881D01*
X2302024Y-12246881D02*
X2292500Y-12265928D01*
X2292500Y-12265928D02*
X2282976Y-12275452D01*
X2282976Y-12275452D02*
X2263929Y-12284976D01*
X2263929Y-12284976D02*
X2244881Y-12284976D01*
X2244881Y-12284976D02*
X2225833Y-12275452D01*
X2225833Y-12275452D02*
X2216310Y-12265928D01*
X2216310Y-12265928D02*
X2206786Y-12246881D01*
X2206786Y-12246881D02*
X2197262Y-12208786D01*
X2197262Y-12208786D02*
X2197262Y-12161167D01*
X2197262Y-12161167D02*
X2206786Y-12123071D01*
X2206786Y-12123071D02*
X2216310Y-12104024D01*
X2216310Y-12104024D02*
X2225833Y-12094500D01*
X2225833Y-12094500D02*
X2244881Y-12084976D01*
X2397262Y-12284976D02*
X2397262Y-12151643D01*
X2397262Y-12170690D02*
X2406786Y-12161167D01*
X2406786Y-12161167D02*
X2425833Y-12151643D01*
X2425833Y-12151643D02*
X2454405Y-12151643D01*
X2454405Y-12151643D02*
X2473452Y-12161167D01*
X2473452Y-12161167D02*
X2482976Y-12180214D01*
X2482976Y-12180214D02*
X2482976Y-12284976D01*
X2482976Y-12180214D02*
X2492500Y-12161167D01*
X2492500Y-12161167D02*
X2511548Y-12151643D01*
X2511548Y-12151643D02*
X2540119Y-12151643D01*
X2540119Y-12151643D02*
X2559167Y-12161167D01*
X2559167Y-12161167D02*
X2568691Y-12180214D01*
X2568691Y-12180214D02*
X2568691Y-12284976D01*
X2663929Y-12284976D02*
X2663929Y-12151643D01*
X2663929Y-12170690D02*
X2673452Y-12161167D01*
X2673452Y-12161167D02*
X2692500Y-12151643D01*
X2692500Y-12151643D02*
X2721072Y-12151643D01*
X2721072Y-12151643D02*
X2740119Y-12161167D01*
X2740119Y-12161167D02*
X2749643Y-12180214D01*
X2749643Y-12180214D02*
X2749643Y-12284976D01*
X2749643Y-12180214D02*
X2759167Y-12161167D01*
X2759167Y-12161167D02*
X2778214Y-12151643D01*
X2778214Y-12151643D02*
X2806786Y-12151643D01*
X2806786Y-12151643D02*
X2825833Y-12161167D01*
X2825833Y-12161167D02*
X2835357Y-12180214D01*
X2835357Y-12180214D02*
X2835357Y-12284976D01*
X3193452Y-12075452D02*
X3022024Y-12332595D01*
X3418214Y-12084976D02*
X3437262Y-12084976D01*
X3437262Y-12084976D02*
X3456310Y-12094500D01*
X3456310Y-12094500D02*
X3465833Y-12104024D01*
X3465833Y-12104024D02*
X3475357Y-12123071D01*
X3475357Y-12123071D02*
X3484881Y-12161167D01*
X3484881Y-12161167D02*
X3484881Y-12208786D01*
X3484881Y-12208786D02*
X3475357Y-12246881D01*
X3475357Y-12246881D02*
X3465833Y-12265928D01*
X3465833Y-12265928D02*
X3456310Y-12275452D01*
X3456310Y-12275452D02*
X3437262Y-12284976D01*
X3437262Y-12284976D02*
X3418214Y-12284976D01*
X3418214Y-12284976D02*
X3399167Y-12275452D01*
X3399167Y-12275452D02*
X3389643Y-12265928D01*
X3389643Y-12265928D02*
X3380119Y-12246881D01*
X3380119Y-12246881D02*
X3370595Y-12208786D01*
X3370595Y-12208786D02*
X3370595Y-12161167D01*
X3370595Y-12161167D02*
X3380119Y-12123071D01*
X3380119Y-12123071D02*
X3389643Y-12104024D01*
X3389643Y-12104024D02*
X3399167Y-12094500D01*
X3399167Y-12094500D02*
X3418214Y-12084976D01*
X3570595Y-12265928D02*
X3580119Y-12275452D01*
X3580119Y-12275452D02*
X3570595Y-12284976D01*
X3570595Y-12284976D02*
X3561071Y-12275452D01*
X3561071Y-12275452D02*
X3570595Y-12265928D01*
X3570595Y-12265928D02*
X3570595Y-12284976D01*
X3703929Y-12084976D02*
X3722976Y-12084976D01*
X3722976Y-12084976D02*
X3742024Y-12094500D01*
X3742024Y-12094500D02*
X3751548Y-12104024D01*
X3751548Y-12104024D02*
X3761071Y-12123071D01*
X3761071Y-12123071D02*
X3770595Y-12161167D01*
X3770595Y-12161167D02*
X3770595Y-12208786D01*
X3770595Y-12208786D02*
X3761071Y-12246881D01*
X3761071Y-12246881D02*
X3751548Y-12265928D01*
X3751548Y-12265928D02*
X3742024Y-12275452D01*
X3742024Y-12275452D02*
X3722976Y-12284976D01*
X3722976Y-12284976D02*
X3703929Y-12284976D01*
X3703929Y-12284976D02*
X3684881Y-12275452D01*
X3684881Y-12275452D02*
X3675357Y-12265928D01*
X3675357Y-12265928D02*
X3665833Y-12246881D01*
X3665833Y-12246881D02*
X3656310Y-12208786D01*
X3656310Y-12208786D02*
X3656310Y-12161167D01*
X3656310Y-12161167D02*
X3665833Y-12123071D01*
X3665833Y-12123071D02*
X3675357Y-12104024D01*
X3675357Y-12104024D02*
X3684881Y-12094500D01*
X3684881Y-12094500D02*
X3703929Y-12084976D01*
X3837262Y-12084976D02*
X3961071Y-12084976D01*
X3961071Y-12084976D02*
X3894405Y-12161167D01*
X3894405Y-12161167D02*
X3922976Y-12161167D01*
X3922976Y-12161167D02*
X3942024Y-12170690D01*
X3942024Y-12170690D02*
X3951548Y-12180214D01*
X3951548Y-12180214D02*
X3961071Y-12199262D01*
X3961071Y-12199262D02*
X3961071Y-12246881D01*
X3961071Y-12246881D02*
X3951548Y-12265928D01*
X3951548Y-12265928D02*
X3942024Y-12275452D01*
X3942024Y-12275452D02*
X3922976Y-12284976D01*
X3922976Y-12284976D02*
X3865833Y-12284976D01*
X3865833Y-12284976D02*
X3846786Y-12275452D01*
X3846786Y-12275452D02*
X3837262Y-12265928D01*
X4151548Y-12284976D02*
X4037262Y-12284976D01*
X4094405Y-12284976D02*
X4094405Y-12084976D01*
X4094405Y-12084976D02*
X4075357Y-12113548D01*
X4075357Y-12113548D02*
X4056310Y-12132595D01*
X4056310Y-12132595D02*
X4037262Y-12142119D01*
X4332500Y-12084976D02*
X4237262Y-12084976D01*
X4237262Y-12084976D02*
X4227738Y-12180214D01*
X4227738Y-12180214D02*
X4237262Y-12170690D01*
X4237262Y-12170690D02*
X4256310Y-12161167D01*
X4256310Y-12161167D02*
X4303929Y-12161167D01*
X4303929Y-12161167D02*
X4322976Y-12170690D01*
X4322976Y-12170690D02*
X4332500Y-12180214D01*
X4332500Y-12180214D02*
X4342024Y-12199262D01*
X4342024Y-12199262D02*
X4342024Y-12246881D01*
X4342024Y-12246881D02*
X4332500Y-12265928D01*
X4332500Y-12265928D02*
X4322976Y-12275452D01*
X4322976Y-12275452D02*
X4303929Y-12284976D01*
X4303929Y-12284976D02*
X4256310Y-12284976D01*
X4256310Y-12284976D02*
X4237262Y-12275452D01*
X4237262Y-12275452D02*
X4227738Y-12265928D01*
X4418214Y-12084976D02*
X4418214Y-12123071D01*
X4494405Y-12084976D02*
X4494405Y-12123071D01*
X4757262Y-12361167D02*
X4747738Y-12351643D01*
X4747738Y-12351643D02*
X4728691Y-12323071D01*
X4728691Y-12323071D02*
X4719167Y-12304024D01*
X4719167Y-12304024D02*
X4709643Y-12275452D01*
X4709643Y-12275452D02*
X4700119Y-12227833D01*
X4700119Y-12227833D02*
X4700119Y-12189738D01*
X4700119Y-12189738D02*
X4709643Y-12142119D01*
X4709643Y-12142119D02*
X4719167Y-12113548D01*
X4719167Y-12113548D02*
X4728691Y-12094500D01*
X4728691Y-12094500D02*
X4747738Y-12065928D01*
X4747738Y-12065928D02*
X4757262Y-12056405D01*
X4814405Y-12084976D02*
X4938214Y-12084976D01*
X4938214Y-12084976D02*
X4871548Y-12161167D01*
X4871548Y-12161167D02*
X4900119Y-12161167D01*
X4900119Y-12161167D02*
X4919167Y-12170690D01*
X4919167Y-12170690D02*
X4928691Y-12180214D01*
X4928691Y-12180214D02*
X4938214Y-12199262D01*
X4938214Y-12199262D02*
X4938214Y-12246881D01*
X4938214Y-12246881D02*
X4928691Y-12265928D01*
X4928691Y-12265928D02*
X4919167Y-12275452D01*
X4919167Y-12275452D02*
X4900119Y-12284976D01*
X4900119Y-12284976D02*
X4842976Y-12284976D01*
X4842976Y-12284976D02*
X4823929Y-12275452D01*
X4823929Y-12275452D02*
X4814405Y-12265928D01*
X5128691Y-12284976D02*
X5014405Y-12284976D01*
X5071548Y-12284976D02*
X5071548Y-12084976D01*
X5071548Y-12084976D02*
X5052500Y-12113548D01*
X5052500Y-12113548D02*
X5033453Y-12132595D01*
X5033453Y-12132595D02*
X5014405Y-12142119D01*
X5334405Y-12284976D02*
X5334405Y-12084976D01*
X5420119Y-12284976D02*
X5420119Y-12180214D01*
X5420119Y-12180214D02*
X5410595Y-12161167D01*
X5410595Y-12161167D02*
X5391548Y-12151643D01*
X5391548Y-12151643D02*
X5362976Y-12151643D01*
X5362976Y-12151643D02*
X5343929Y-12161167D01*
X5343929Y-12161167D02*
X5334405Y-12170690D01*
X5543929Y-12284976D02*
X5524881Y-12275452D01*
X5524881Y-12275452D02*
X5515357Y-12265928D01*
X5515357Y-12265928D02*
X5505834Y-12246881D01*
X5505834Y-12246881D02*
X5505834Y-12189738D01*
X5505834Y-12189738D02*
X5515357Y-12170690D01*
X5515357Y-12170690D02*
X5524881Y-12161167D01*
X5524881Y-12161167D02*
X5543929Y-12151643D01*
X5543929Y-12151643D02*
X5572500Y-12151643D01*
X5572500Y-12151643D02*
X5591548Y-12161167D01*
X5591548Y-12161167D02*
X5601072Y-12170690D01*
X5601072Y-12170690D02*
X5610595Y-12189738D01*
X5610595Y-12189738D02*
X5610595Y-12246881D01*
X5610595Y-12246881D02*
X5601072Y-12265928D01*
X5601072Y-12265928D02*
X5591548Y-12275452D01*
X5591548Y-12275452D02*
X5572500Y-12284976D01*
X5572500Y-12284976D02*
X5543929Y-12284976D01*
X5724881Y-12284976D02*
X5705833Y-12275452D01*
X5705833Y-12275452D02*
X5696310Y-12256405D01*
X5696310Y-12256405D02*
X5696310Y-12084976D01*
X5877262Y-12275452D02*
X5858214Y-12284976D01*
X5858214Y-12284976D02*
X5820119Y-12284976D01*
X5820119Y-12284976D02*
X5801072Y-12275452D01*
X5801072Y-12275452D02*
X5791548Y-12256405D01*
X5791548Y-12256405D02*
X5791548Y-12180214D01*
X5791548Y-12180214D02*
X5801072Y-12161167D01*
X5801072Y-12161167D02*
X5820119Y-12151643D01*
X5820119Y-12151643D02*
X5858214Y-12151643D01*
X5858214Y-12151643D02*
X5877262Y-12161167D01*
X5877262Y-12161167D02*
X5886786Y-12180214D01*
X5886786Y-12180214D02*
X5886786Y-12199262D01*
X5886786Y-12199262D02*
X5791548Y-12218309D01*
X5962976Y-12275452D02*
X5982024Y-12284976D01*
X5982024Y-12284976D02*
X6020119Y-12284976D01*
X6020119Y-12284976D02*
X6039167Y-12275452D01*
X6039167Y-12275452D02*
X6048691Y-12256405D01*
X6048691Y-12256405D02*
X6048691Y-12246881D01*
X6048691Y-12246881D02*
X6039167Y-12227833D01*
X6039167Y-12227833D02*
X6020119Y-12218309D01*
X6020119Y-12218309D02*
X5991548Y-12218309D01*
X5991548Y-12218309D02*
X5972500Y-12208786D01*
X5972500Y-12208786D02*
X5962976Y-12189738D01*
X5962976Y-12189738D02*
X5962976Y-12180214D01*
X5962976Y-12180214D02*
X5972500Y-12161167D01*
X5972500Y-12161167D02*
X5991548Y-12151643D01*
X5991548Y-12151643D02*
X6020119Y-12151643D01*
X6020119Y-12151643D02*
X6039167Y-12161167D01*
X6115357Y-12361167D02*
X6124881Y-12351643D01*
X6124881Y-12351643D02*
X6143929Y-12323071D01*
X6143929Y-12323071D02*
X6153453Y-12304024D01*
X6153453Y-12304024D02*
X6162976Y-12275452D01*
X6162976Y-12275452D02*
X6172500Y-12227833D01*
X6172500Y-12227833D02*
X6172500Y-12189738D01*
X6172500Y-12189738D02*
X6162976Y-12142119D01*
X6162976Y-12142119D02*
X6153453Y-12113548D01*
X6153453Y-12113548D02*
X6143929Y-12094500D01*
X6143929Y-12094500D02*
X6124881Y-12065928D01*
X6124881Y-12065928D02*
X6115357Y-12056405D01*
X6444881Y-12361167D02*
X6435357Y-12351643D01*
X6435357Y-12351643D02*
X6416310Y-12323071D01*
X6416310Y-12323071D02*
X6406786Y-12304024D01*
X6406786Y-12304024D02*
X6397262Y-12275452D01*
X6397262Y-12275452D02*
X6387738Y-12227833D01*
X6387738Y-12227833D02*
X6387738Y-12189738D01*
X6387738Y-12189738D02*
X6397262Y-12142119D01*
X6397262Y-12142119D02*
X6406786Y-12113548D01*
X6406786Y-12113548D02*
X6416310Y-12094500D01*
X6416310Y-12094500D02*
X6435357Y-12065928D01*
X6435357Y-12065928D02*
X6444881Y-12056405D01*
X6521072Y-12151643D02*
X6521072Y-12284976D01*
X6521072Y-12170690D02*
X6530595Y-12161167D01*
X6530595Y-12161167D02*
X6549643Y-12151643D01*
X6549643Y-12151643D02*
X6578214Y-12151643D01*
X6578214Y-12151643D02*
X6597262Y-12161167D01*
X6597262Y-12161167D02*
X6606786Y-12180214D01*
X6606786Y-12180214D02*
X6606786Y-12284976D01*
X6730595Y-12284976D02*
X6711548Y-12275452D01*
X6711548Y-12275452D02*
X6702024Y-12265928D01*
X6702024Y-12265928D02*
X6692500Y-12246881D01*
X6692500Y-12246881D02*
X6692500Y-12189738D01*
X6692500Y-12189738D02*
X6702024Y-12170690D01*
X6702024Y-12170690D02*
X6711548Y-12161167D01*
X6711548Y-12161167D02*
X6730595Y-12151643D01*
X6730595Y-12151643D02*
X6759167Y-12151643D01*
X6759167Y-12151643D02*
X6778214Y-12161167D01*
X6778214Y-12161167D02*
X6787738Y-12170690D01*
X6787738Y-12170690D02*
X6797262Y-12189738D01*
X6797262Y-12189738D02*
X6797262Y-12246881D01*
X6797262Y-12246881D02*
X6787738Y-12265928D01*
X6787738Y-12265928D02*
X6778214Y-12275452D01*
X6778214Y-12275452D02*
X6759167Y-12284976D01*
X6759167Y-12284976D02*
X6730595Y-12284976D01*
X6854405Y-12151643D02*
X6930595Y-12151643D01*
X6882976Y-12084976D02*
X6882976Y-12256405D01*
X6882976Y-12256405D02*
X6892500Y-12275452D01*
X6892500Y-12275452D02*
X6911548Y-12284976D01*
X6911548Y-12284976D02*
X6930595Y-12284976D01*
X7117262Y-12151643D02*
X7117262Y-12351643D01*
X7117262Y-12161167D02*
X7136310Y-12151643D01*
X7136310Y-12151643D02*
X7174405Y-12151643D01*
X7174405Y-12151643D02*
X7193453Y-12161167D01*
X7193453Y-12161167D02*
X7202976Y-12170690D01*
X7202976Y-12170690D02*
X7212500Y-12189738D01*
X7212500Y-12189738D02*
X7212500Y-12246881D01*
X7212500Y-12246881D02*
X7202976Y-12265928D01*
X7202976Y-12265928D02*
X7193453Y-12275452D01*
X7193453Y-12275452D02*
X7174405Y-12284976D01*
X7174405Y-12284976D02*
X7136310Y-12284976D01*
X7136310Y-12284976D02*
X7117262Y-12275452D01*
X7326786Y-12284976D02*
X7307738Y-12275452D01*
X7307738Y-12275452D02*
X7298214Y-12256405D01*
X7298214Y-12256405D02*
X7298214Y-12084976D01*
X7488691Y-12284976D02*
X7488691Y-12180214D01*
X7488691Y-12180214D02*
X7479167Y-12161167D01*
X7479167Y-12161167D02*
X7460119Y-12151643D01*
X7460119Y-12151643D02*
X7422024Y-12151643D01*
X7422024Y-12151643D02*
X7402976Y-12161167D01*
X7488691Y-12275452D02*
X7469643Y-12284976D01*
X7469643Y-12284976D02*
X7422024Y-12284976D01*
X7422024Y-12284976D02*
X7402976Y-12275452D01*
X7402976Y-12275452D02*
X7393453Y-12256405D01*
X7393453Y-12256405D02*
X7393453Y-12237357D01*
X7393453Y-12237357D02*
X7402976Y-12218309D01*
X7402976Y-12218309D02*
X7422024Y-12208786D01*
X7422024Y-12208786D02*
X7469643Y-12208786D01*
X7469643Y-12208786D02*
X7488691Y-12199262D01*
X7555357Y-12151643D02*
X7631548Y-12151643D01*
X7583929Y-12084976D02*
X7583929Y-12256405D01*
X7583929Y-12256405D02*
X7593453Y-12275452D01*
X7593453Y-12275452D02*
X7612500Y-12284976D01*
X7612500Y-12284976D02*
X7631548Y-12284976D01*
X7774405Y-12275452D02*
X7755357Y-12284976D01*
X7755357Y-12284976D02*
X7717262Y-12284976D01*
X7717262Y-12284976D02*
X7698214Y-12275452D01*
X7698214Y-12275452D02*
X7688691Y-12256405D01*
X7688691Y-12256405D02*
X7688691Y-12180214D01*
X7688691Y-12180214D02*
X7698214Y-12161167D01*
X7698214Y-12161167D02*
X7717262Y-12151643D01*
X7717262Y-12151643D02*
X7755357Y-12151643D01*
X7755357Y-12151643D02*
X7774405Y-12161167D01*
X7774405Y-12161167D02*
X7783929Y-12180214D01*
X7783929Y-12180214D02*
X7783929Y-12199262D01*
X7783929Y-12199262D02*
X7688691Y-12218309D01*
X7955357Y-12284976D02*
X7955357Y-12084976D01*
X7955357Y-12275452D02*
X7936310Y-12284976D01*
X7936310Y-12284976D02*
X7898214Y-12284976D01*
X7898214Y-12284976D02*
X7879167Y-12275452D01*
X7879167Y-12275452D02*
X7869643Y-12265928D01*
X7869643Y-12265928D02*
X7860119Y-12246881D01*
X7860119Y-12246881D02*
X7860119Y-12189738D01*
X7860119Y-12189738D02*
X7869643Y-12170690D01*
X7869643Y-12170690D02*
X7879167Y-12161167D01*
X7879167Y-12161167D02*
X7898214Y-12151643D01*
X7898214Y-12151643D02*
X7936310Y-12151643D01*
X7936310Y-12151643D02*
X7955357Y-12161167D01*
X8031548Y-12361167D02*
X8041072Y-12351643D01*
X8041072Y-12351643D02*
X8060119Y-12323071D01*
X8060119Y-12323071D02*
X8069643Y-12304024D01*
X8069643Y-12304024D02*
X8079167Y-12275452D01*
X8079167Y-12275452D02*
X8088691Y-12227833D01*
X8088691Y-12227833D02*
X8088691Y-12189738D01*
X8088691Y-12189738D02*
X8079167Y-12142119D01*
X8079167Y-12142119D02*
X8069643Y-12113548D01*
X8069643Y-12113548D02*
X8060119Y-12094500D01*
X8060119Y-12094500D02*
X8041072Y-12065928D01*
X8041072Y-12065928D02*
X8031548Y-12056405D01*
D14*
X1242500Y-12425500D02*
X1242500Y-12525500D01*
X1192500Y-12475500D02*
X1292500Y-12475500D01*
D11*
X1644881Y-12548976D02*
X1530595Y-12548976D01*
X1587738Y-12548976D02*
X1587738Y-12348976D01*
X1587738Y-12348976D02*
X1568690Y-12377548D01*
X1568690Y-12377548D02*
X1549643Y-12396595D01*
X1549643Y-12396595D02*
X1530595Y-12406119D01*
X1730595Y-12529928D02*
X1740119Y-12539452D01*
X1740119Y-12539452D02*
X1730595Y-12548976D01*
X1730595Y-12548976D02*
X1721071Y-12539452D01*
X1721071Y-12539452D02*
X1730595Y-12529928D01*
X1730595Y-12529928D02*
X1730595Y-12548976D01*
X1863928Y-12348976D02*
X1882976Y-12348976D01*
X1882976Y-12348976D02*
X1902024Y-12358500D01*
X1902024Y-12358500D02*
X1911548Y-12368024D01*
X1911548Y-12368024D02*
X1921071Y-12387071D01*
X1921071Y-12387071D02*
X1930595Y-12425167D01*
X1930595Y-12425167D02*
X1930595Y-12472786D01*
X1930595Y-12472786D02*
X1921071Y-12510881D01*
X1921071Y-12510881D02*
X1911548Y-12529928D01*
X1911548Y-12529928D02*
X1902024Y-12539452D01*
X1902024Y-12539452D02*
X1882976Y-12548976D01*
X1882976Y-12548976D02*
X1863928Y-12548976D01*
X1863928Y-12548976D02*
X1844881Y-12539452D01*
X1844881Y-12539452D02*
X1835357Y-12529928D01*
X1835357Y-12529928D02*
X1825833Y-12510881D01*
X1825833Y-12510881D02*
X1816309Y-12472786D01*
X1816309Y-12472786D02*
X1816309Y-12425167D01*
X1816309Y-12425167D02*
X1825833Y-12387071D01*
X1825833Y-12387071D02*
X1835357Y-12368024D01*
X1835357Y-12368024D02*
X1844881Y-12358500D01*
X1844881Y-12358500D02*
X1863928Y-12348976D01*
X2054405Y-12348976D02*
X2073452Y-12348976D01*
X2073452Y-12348976D02*
X2092500Y-12358500D01*
X2092500Y-12358500D02*
X2102024Y-12368024D01*
X2102024Y-12368024D02*
X2111548Y-12387071D01*
X2111548Y-12387071D02*
X2121071Y-12425167D01*
X2121071Y-12425167D02*
X2121071Y-12472786D01*
X2121071Y-12472786D02*
X2111548Y-12510881D01*
X2111548Y-12510881D02*
X2102024Y-12529928D01*
X2102024Y-12529928D02*
X2092500Y-12539452D01*
X2092500Y-12539452D02*
X2073452Y-12548976D01*
X2073452Y-12548976D02*
X2054405Y-12548976D01*
X2054405Y-12548976D02*
X2035357Y-12539452D01*
X2035357Y-12539452D02*
X2025833Y-12529928D01*
X2025833Y-12529928D02*
X2016309Y-12510881D01*
X2016309Y-12510881D02*
X2006786Y-12472786D01*
X2006786Y-12472786D02*
X2006786Y-12425167D01*
X2006786Y-12425167D02*
X2016309Y-12387071D01*
X2016309Y-12387071D02*
X2025833Y-12368024D01*
X2025833Y-12368024D02*
X2035357Y-12358500D01*
X2035357Y-12358500D02*
X2054405Y-12348976D01*
X2244881Y-12348976D02*
X2263929Y-12348976D01*
X2263929Y-12348976D02*
X2282976Y-12358500D01*
X2282976Y-12358500D02*
X2292500Y-12368024D01*
X2292500Y-12368024D02*
X2302024Y-12387071D01*
X2302024Y-12387071D02*
X2311548Y-12425167D01*
X2311548Y-12425167D02*
X2311548Y-12472786D01*
X2311548Y-12472786D02*
X2302024Y-12510881D01*
X2302024Y-12510881D02*
X2292500Y-12529928D01*
X2292500Y-12529928D02*
X2282976Y-12539452D01*
X2282976Y-12539452D02*
X2263929Y-12548976D01*
X2263929Y-12548976D02*
X2244881Y-12548976D01*
X2244881Y-12548976D02*
X2225833Y-12539452D01*
X2225833Y-12539452D02*
X2216310Y-12529928D01*
X2216310Y-12529928D02*
X2206786Y-12510881D01*
X2206786Y-12510881D02*
X2197262Y-12472786D01*
X2197262Y-12472786D02*
X2197262Y-12425167D01*
X2197262Y-12425167D02*
X2206786Y-12387071D01*
X2206786Y-12387071D02*
X2216310Y-12368024D01*
X2216310Y-12368024D02*
X2225833Y-12358500D01*
X2225833Y-12358500D02*
X2244881Y-12348976D01*
X2397262Y-12548976D02*
X2397262Y-12415643D01*
X2397262Y-12434690D02*
X2406786Y-12425167D01*
X2406786Y-12425167D02*
X2425833Y-12415643D01*
X2425833Y-12415643D02*
X2454405Y-12415643D01*
X2454405Y-12415643D02*
X2473452Y-12425167D01*
X2473452Y-12425167D02*
X2482976Y-12444214D01*
X2482976Y-12444214D02*
X2482976Y-12548976D01*
X2482976Y-12444214D02*
X2492500Y-12425167D01*
X2492500Y-12425167D02*
X2511548Y-12415643D01*
X2511548Y-12415643D02*
X2540119Y-12415643D01*
X2540119Y-12415643D02*
X2559167Y-12425167D01*
X2559167Y-12425167D02*
X2568691Y-12444214D01*
X2568691Y-12444214D02*
X2568691Y-12548976D01*
X2663929Y-12548976D02*
X2663929Y-12415643D01*
X2663929Y-12434690D02*
X2673452Y-12425167D01*
X2673452Y-12425167D02*
X2692500Y-12415643D01*
X2692500Y-12415643D02*
X2721072Y-12415643D01*
X2721072Y-12415643D02*
X2740119Y-12425167D01*
X2740119Y-12425167D02*
X2749643Y-12444214D01*
X2749643Y-12444214D02*
X2749643Y-12548976D01*
X2749643Y-12444214D02*
X2759167Y-12425167D01*
X2759167Y-12425167D02*
X2778214Y-12415643D01*
X2778214Y-12415643D02*
X2806786Y-12415643D01*
X2806786Y-12415643D02*
X2825833Y-12425167D01*
X2825833Y-12425167D02*
X2835357Y-12444214D01*
X2835357Y-12444214D02*
X2835357Y-12548976D01*
X3193452Y-12339452D02*
X3022024Y-12596595D01*
X3418214Y-12348976D02*
X3437262Y-12348976D01*
X3437262Y-12348976D02*
X3456310Y-12358500D01*
X3456310Y-12358500D02*
X3465833Y-12368024D01*
X3465833Y-12368024D02*
X3475357Y-12387071D01*
X3475357Y-12387071D02*
X3484881Y-12425167D01*
X3484881Y-12425167D02*
X3484881Y-12472786D01*
X3484881Y-12472786D02*
X3475357Y-12510881D01*
X3475357Y-12510881D02*
X3465833Y-12529928D01*
X3465833Y-12529928D02*
X3456310Y-12539452D01*
X3456310Y-12539452D02*
X3437262Y-12548976D01*
X3437262Y-12548976D02*
X3418214Y-12548976D01*
X3418214Y-12548976D02*
X3399167Y-12539452D01*
X3399167Y-12539452D02*
X3389643Y-12529928D01*
X3389643Y-12529928D02*
X3380119Y-12510881D01*
X3380119Y-12510881D02*
X3370595Y-12472786D01*
X3370595Y-12472786D02*
X3370595Y-12425167D01*
X3370595Y-12425167D02*
X3380119Y-12387071D01*
X3380119Y-12387071D02*
X3389643Y-12368024D01*
X3389643Y-12368024D02*
X3399167Y-12358500D01*
X3399167Y-12358500D02*
X3418214Y-12348976D01*
X3570595Y-12529928D02*
X3580119Y-12539452D01*
X3580119Y-12539452D02*
X3570595Y-12548976D01*
X3570595Y-12548976D02*
X3561071Y-12539452D01*
X3561071Y-12539452D02*
X3570595Y-12529928D01*
X3570595Y-12529928D02*
X3570595Y-12548976D01*
X3703929Y-12348976D02*
X3722976Y-12348976D01*
X3722976Y-12348976D02*
X3742024Y-12358500D01*
X3742024Y-12358500D02*
X3751548Y-12368024D01*
X3751548Y-12368024D02*
X3761071Y-12387071D01*
X3761071Y-12387071D02*
X3770595Y-12425167D01*
X3770595Y-12425167D02*
X3770595Y-12472786D01*
X3770595Y-12472786D02*
X3761071Y-12510881D01*
X3761071Y-12510881D02*
X3751548Y-12529928D01*
X3751548Y-12529928D02*
X3742024Y-12539452D01*
X3742024Y-12539452D02*
X3722976Y-12548976D01*
X3722976Y-12548976D02*
X3703929Y-12548976D01*
X3703929Y-12548976D02*
X3684881Y-12539452D01*
X3684881Y-12539452D02*
X3675357Y-12529928D01*
X3675357Y-12529928D02*
X3665833Y-12510881D01*
X3665833Y-12510881D02*
X3656310Y-12472786D01*
X3656310Y-12472786D02*
X3656310Y-12425167D01*
X3656310Y-12425167D02*
X3665833Y-12387071D01*
X3665833Y-12387071D02*
X3675357Y-12368024D01*
X3675357Y-12368024D02*
X3684881Y-12358500D01*
X3684881Y-12358500D02*
X3703929Y-12348976D01*
X3837262Y-12348976D02*
X3961071Y-12348976D01*
X3961071Y-12348976D02*
X3894405Y-12425167D01*
X3894405Y-12425167D02*
X3922976Y-12425167D01*
X3922976Y-12425167D02*
X3942024Y-12434690D01*
X3942024Y-12434690D02*
X3951548Y-12444214D01*
X3951548Y-12444214D02*
X3961071Y-12463262D01*
X3961071Y-12463262D02*
X3961071Y-12510881D01*
X3961071Y-12510881D02*
X3951548Y-12529928D01*
X3951548Y-12529928D02*
X3942024Y-12539452D01*
X3942024Y-12539452D02*
X3922976Y-12548976D01*
X3922976Y-12548976D02*
X3865833Y-12548976D01*
X3865833Y-12548976D02*
X3846786Y-12539452D01*
X3846786Y-12539452D02*
X3837262Y-12529928D01*
X4056310Y-12548976D02*
X4094405Y-12548976D01*
X4094405Y-12548976D02*
X4113452Y-12539452D01*
X4113452Y-12539452D02*
X4122976Y-12529928D01*
X4122976Y-12529928D02*
X4142024Y-12501357D01*
X4142024Y-12501357D02*
X4151548Y-12463262D01*
X4151548Y-12463262D02*
X4151548Y-12387071D01*
X4151548Y-12387071D02*
X4142024Y-12368024D01*
X4142024Y-12368024D02*
X4132500Y-12358500D01*
X4132500Y-12358500D02*
X4113452Y-12348976D01*
X4113452Y-12348976D02*
X4075357Y-12348976D01*
X4075357Y-12348976D02*
X4056310Y-12358500D01*
X4056310Y-12358500D02*
X4046786Y-12368024D01*
X4046786Y-12368024D02*
X4037262Y-12387071D01*
X4037262Y-12387071D02*
X4037262Y-12434690D01*
X4037262Y-12434690D02*
X4046786Y-12453738D01*
X4046786Y-12453738D02*
X4056310Y-12463262D01*
X4056310Y-12463262D02*
X4075357Y-12472786D01*
X4075357Y-12472786D02*
X4113452Y-12472786D01*
X4113452Y-12472786D02*
X4132500Y-12463262D01*
X4132500Y-12463262D02*
X4142024Y-12453738D01*
X4142024Y-12453738D02*
X4151548Y-12434690D01*
X4322976Y-12415643D02*
X4322976Y-12548976D01*
X4275357Y-12339452D02*
X4227738Y-12482309D01*
X4227738Y-12482309D02*
X4351548Y-12482309D01*
X4418214Y-12348976D02*
X4418214Y-12387071D01*
X4494405Y-12348976D02*
X4494405Y-12387071D01*
X4757262Y-12625167D02*
X4747738Y-12615643D01*
X4747738Y-12615643D02*
X4728691Y-12587071D01*
X4728691Y-12587071D02*
X4719167Y-12568024D01*
X4719167Y-12568024D02*
X4709643Y-12539452D01*
X4709643Y-12539452D02*
X4700119Y-12491833D01*
X4700119Y-12491833D02*
X4700119Y-12453738D01*
X4700119Y-12453738D02*
X4709643Y-12406119D01*
X4709643Y-12406119D02*
X4719167Y-12377548D01*
X4719167Y-12377548D02*
X4728691Y-12358500D01*
X4728691Y-12358500D02*
X4747738Y-12329928D01*
X4747738Y-12329928D02*
X4757262Y-12320405D01*
X4814405Y-12348976D02*
X4947738Y-12348976D01*
X4947738Y-12348976D02*
X4862024Y-12548976D01*
X5143929Y-12548976D02*
X5143929Y-12348976D01*
X5229643Y-12548976D02*
X5229643Y-12444214D01*
X5229643Y-12444214D02*
X5220119Y-12425167D01*
X5220119Y-12425167D02*
X5201072Y-12415643D01*
X5201072Y-12415643D02*
X5172500Y-12415643D01*
X5172500Y-12415643D02*
X5153453Y-12425167D01*
X5153453Y-12425167D02*
X5143929Y-12434690D01*
X5353453Y-12548976D02*
X5334405Y-12539452D01*
X5334405Y-12539452D02*
X5324881Y-12529928D01*
X5324881Y-12529928D02*
X5315357Y-12510881D01*
X5315357Y-12510881D02*
X5315357Y-12453738D01*
X5315357Y-12453738D02*
X5324881Y-12434690D01*
X5324881Y-12434690D02*
X5334405Y-12425167D01*
X5334405Y-12425167D02*
X5353453Y-12415643D01*
X5353453Y-12415643D02*
X5382024Y-12415643D01*
X5382024Y-12415643D02*
X5401072Y-12425167D01*
X5401072Y-12425167D02*
X5410595Y-12434690D01*
X5410595Y-12434690D02*
X5420119Y-12453738D01*
X5420119Y-12453738D02*
X5420119Y-12510881D01*
X5420119Y-12510881D02*
X5410595Y-12529928D01*
X5410595Y-12529928D02*
X5401072Y-12539452D01*
X5401072Y-12539452D02*
X5382024Y-12548976D01*
X5382024Y-12548976D02*
X5353453Y-12548976D01*
X5534405Y-12548976D02*
X5515357Y-12539452D01*
X5515357Y-12539452D02*
X5505834Y-12520405D01*
X5505834Y-12520405D02*
X5505834Y-12348976D01*
X5686786Y-12539452D02*
X5667738Y-12548976D01*
X5667738Y-12548976D02*
X5629643Y-12548976D01*
X5629643Y-12548976D02*
X5610595Y-12539452D01*
X5610595Y-12539452D02*
X5601072Y-12520405D01*
X5601072Y-12520405D02*
X5601072Y-12444214D01*
X5601072Y-12444214D02*
X5610595Y-12425167D01*
X5610595Y-12425167D02*
X5629643Y-12415643D01*
X5629643Y-12415643D02*
X5667738Y-12415643D01*
X5667738Y-12415643D02*
X5686786Y-12425167D01*
X5686786Y-12425167D02*
X5696310Y-12444214D01*
X5696310Y-12444214D02*
X5696310Y-12463262D01*
X5696310Y-12463262D02*
X5601072Y-12482309D01*
X5772500Y-12539452D02*
X5791548Y-12548976D01*
X5791548Y-12548976D02*
X5829643Y-12548976D01*
X5829643Y-12548976D02*
X5848691Y-12539452D01*
X5848691Y-12539452D02*
X5858214Y-12520405D01*
X5858214Y-12520405D02*
X5858214Y-12510881D01*
X5858214Y-12510881D02*
X5848691Y-12491833D01*
X5848691Y-12491833D02*
X5829643Y-12482309D01*
X5829643Y-12482309D02*
X5801072Y-12482309D01*
X5801072Y-12482309D02*
X5782024Y-12472786D01*
X5782024Y-12472786D02*
X5772500Y-12453738D01*
X5772500Y-12453738D02*
X5772500Y-12444214D01*
X5772500Y-12444214D02*
X5782024Y-12425167D01*
X5782024Y-12425167D02*
X5801072Y-12415643D01*
X5801072Y-12415643D02*
X5829643Y-12415643D01*
X5829643Y-12415643D02*
X5848691Y-12425167D01*
X5924881Y-12625167D02*
X5934405Y-12615643D01*
X5934405Y-12615643D02*
X5953453Y-12587071D01*
X5953453Y-12587071D02*
X5962976Y-12568024D01*
X5962976Y-12568024D02*
X5972500Y-12539452D01*
X5972500Y-12539452D02*
X5982024Y-12491833D01*
X5982024Y-12491833D02*
X5982024Y-12453738D01*
X5982024Y-12453738D02*
X5972500Y-12406119D01*
X5972500Y-12406119D02*
X5962976Y-12377548D01*
X5962976Y-12377548D02*
X5953453Y-12358500D01*
X5953453Y-12358500D02*
X5934405Y-12329928D01*
X5934405Y-12329928D02*
X5924881Y-12320405D01*
X6254405Y-12625167D02*
X6244881Y-12615643D01*
X6244881Y-12615643D02*
X6225833Y-12587071D01*
X6225833Y-12587071D02*
X6216310Y-12568024D01*
X6216310Y-12568024D02*
X6206786Y-12539452D01*
X6206786Y-12539452D02*
X6197262Y-12491833D01*
X6197262Y-12491833D02*
X6197262Y-12453738D01*
X6197262Y-12453738D02*
X6206786Y-12406119D01*
X6206786Y-12406119D02*
X6216310Y-12377548D01*
X6216310Y-12377548D02*
X6225833Y-12358500D01*
X6225833Y-12358500D02*
X6244881Y-12329928D01*
X6244881Y-12329928D02*
X6254405Y-12320405D01*
X6330595Y-12415643D02*
X6330595Y-12548976D01*
X6330595Y-12434690D02*
X6340119Y-12425167D01*
X6340119Y-12425167D02*
X6359167Y-12415643D01*
X6359167Y-12415643D02*
X6387738Y-12415643D01*
X6387738Y-12415643D02*
X6406786Y-12425167D01*
X6406786Y-12425167D02*
X6416310Y-12444214D01*
X6416310Y-12444214D02*
X6416310Y-12548976D01*
X6540119Y-12548976D02*
X6521072Y-12539452D01*
X6521072Y-12539452D02*
X6511548Y-12529928D01*
X6511548Y-12529928D02*
X6502024Y-12510881D01*
X6502024Y-12510881D02*
X6502024Y-12453738D01*
X6502024Y-12453738D02*
X6511548Y-12434690D01*
X6511548Y-12434690D02*
X6521072Y-12425167D01*
X6521072Y-12425167D02*
X6540119Y-12415643D01*
X6540119Y-12415643D02*
X6568691Y-12415643D01*
X6568691Y-12415643D02*
X6587738Y-12425167D01*
X6587738Y-12425167D02*
X6597262Y-12434690D01*
X6597262Y-12434690D02*
X6606786Y-12453738D01*
X6606786Y-12453738D02*
X6606786Y-12510881D01*
X6606786Y-12510881D02*
X6597262Y-12529928D01*
X6597262Y-12529928D02*
X6587738Y-12539452D01*
X6587738Y-12539452D02*
X6568691Y-12548976D01*
X6568691Y-12548976D02*
X6540119Y-12548976D01*
X6663929Y-12415643D02*
X6740119Y-12415643D01*
X6692500Y-12348976D02*
X6692500Y-12520405D01*
X6692500Y-12520405D02*
X6702024Y-12539452D01*
X6702024Y-12539452D02*
X6721072Y-12548976D01*
X6721072Y-12548976D02*
X6740119Y-12548976D01*
X6926786Y-12415643D02*
X6926786Y-12615643D01*
X6926786Y-12425167D02*
X6945833Y-12415643D01*
X6945833Y-12415643D02*
X6983929Y-12415643D01*
X6983929Y-12415643D02*
X7002976Y-12425167D01*
X7002976Y-12425167D02*
X7012500Y-12434690D01*
X7012500Y-12434690D02*
X7022024Y-12453738D01*
X7022024Y-12453738D02*
X7022024Y-12510881D01*
X7022024Y-12510881D02*
X7012500Y-12529928D01*
X7012500Y-12529928D02*
X7002976Y-12539452D01*
X7002976Y-12539452D02*
X6983929Y-12548976D01*
X6983929Y-12548976D02*
X6945833Y-12548976D01*
X6945833Y-12548976D02*
X6926786Y-12539452D01*
X7136310Y-12548976D02*
X7117262Y-12539452D01*
X7117262Y-12539452D02*
X7107738Y-12520405D01*
X7107738Y-12520405D02*
X7107738Y-12348976D01*
X7298214Y-12548976D02*
X7298214Y-12444214D01*
X7298214Y-12444214D02*
X7288691Y-12425167D01*
X7288691Y-12425167D02*
X7269643Y-12415643D01*
X7269643Y-12415643D02*
X7231548Y-12415643D01*
X7231548Y-12415643D02*
X7212500Y-12425167D01*
X7298214Y-12539452D02*
X7279167Y-12548976D01*
X7279167Y-12548976D02*
X7231548Y-12548976D01*
X7231548Y-12548976D02*
X7212500Y-12539452D01*
X7212500Y-12539452D02*
X7202976Y-12520405D01*
X7202976Y-12520405D02*
X7202976Y-12501357D01*
X7202976Y-12501357D02*
X7212500Y-12482309D01*
X7212500Y-12482309D02*
X7231548Y-12472786D01*
X7231548Y-12472786D02*
X7279167Y-12472786D01*
X7279167Y-12472786D02*
X7298214Y-12463262D01*
X7364881Y-12415643D02*
X7441072Y-12415643D01*
X7393453Y-12348976D02*
X7393453Y-12520405D01*
X7393453Y-12520405D02*
X7402976Y-12539452D01*
X7402976Y-12539452D02*
X7422024Y-12548976D01*
X7422024Y-12548976D02*
X7441072Y-12548976D01*
X7583929Y-12539452D02*
X7564881Y-12548976D01*
X7564881Y-12548976D02*
X7526786Y-12548976D01*
X7526786Y-12548976D02*
X7507738Y-12539452D01*
X7507738Y-12539452D02*
X7498214Y-12520405D01*
X7498214Y-12520405D02*
X7498214Y-12444214D01*
X7498214Y-12444214D02*
X7507738Y-12425167D01*
X7507738Y-12425167D02*
X7526786Y-12415643D01*
X7526786Y-12415643D02*
X7564881Y-12415643D01*
X7564881Y-12415643D02*
X7583929Y-12425167D01*
X7583929Y-12425167D02*
X7593453Y-12444214D01*
X7593453Y-12444214D02*
X7593453Y-12463262D01*
X7593453Y-12463262D02*
X7498214Y-12482309D01*
X7764881Y-12548976D02*
X7764881Y-12348976D01*
X7764881Y-12539452D02*
X7745834Y-12548976D01*
X7745834Y-12548976D02*
X7707738Y-12548976D01*
X7707738Y-12548976D02*
X7688691Y-12539452D01*
X7688691Y-12539452D02*
X7679167Y-12529928D01*
X7679167Y-12529928D02*
X7669643Y-12510881D01*
X7669643Y-12510881D02*
X7669643Y-12453738D01*
X7669643Y-12453738D02*
X7679167Y-12434690D01*
X7679167Y-12434690D02*
X7688691Y-12425167D01*
X7688691Y-12425167D02*
X7707738Y-12415643D01*
X7707738Y-12415643D02*
X7745834Y-12415643D01*
X7745834Y-12415643D02*
X7764881Y-12425167D01*
X7841072Y-12625167D02*
X7850595Y-12615643D01*
X7850595Y-12615643D02*
X7869643Y-12587071D01*
X7869643Y-12587071D02*
X7879167Y-12568024D01*
X7879167Y-12568024D02*
X7888691Y-12539452D01*
X7888691Y-12539452D02*
X7898214Y-12491833D01*
X7898214Y-12491833D02*
X7898214Y-12453738D01*
X7898214Y-12453738D02*
X7888691Y-12406119D01*
X7888691Y-12406119D02*
X7879167Y-12377548D01*
X7879167Y-12377548D02*
X7869643Y-12358500D01*
X7869643Y-12358500D02*
X7850595Y-12329928D01*
X7850595Y-12329928D02*
X7841072Y-12320405D01*
D15*
X1275630Y-12780230D02*
X1275630Y-12698770D01*
X1194170Y-12698770D01*
X1194170Y-12780230D01*
X1275630Y-12780230D01*
D11*
X1644881Y-12812976D02*
X1530595Y-12812976D01*
X1587738Y-12812976D02*
X1587738Y-12612976D01*
X1587738Y-12612976D02*
X1568690Y-12641548D01*
X1568690Y-12641548D02*
X1549643Y-12660595D01*
X1549643Y-12660595D02*
X1530595Y-12670119D01*
X1730595Y-12793928D02*
X1740119Y-12803452D01*
X1740119Y-12803452D02*
X1730595Y-12812976D01*
X1730595Y-12812976D02*
X1721071Y-12803452D01*
X1721071Y-12803452D02*
X1730595Y-12793928D01*
X1730595Y-12793928D02*
X1730595Y-12812976D01*
X1930595Y-12812976D02*
X1816309Y-12812976D01*
X1873452Y-12812976D02*
X1873452Y-12612976D01*
X1873452Y-12612976D02*
X1854405Y-12641548D01*
X1854405Y-12641548D02*
X1835357Y-12660595D01*
X1835357Y-12660595D02*
X1816309Y-12670119D01*
X2111548Y-12612976D02*
X2016309Y-12612976D01*
X2016309Y-12612976D02*
X2006786Y-12708214D01*
X2006786Y-12708214D02*
X2016309Y-12698690D01*
X2016309Y-12698690D02*
X2035357Y-12689167D01*
X2035357Y-12689167D02*
X2082976Y-12689167D01*
X2082976Y-12689167D02*
X2102024Y-12698690D01*
X2102024Y-12698690D02*
X2111548Y-12708214D01*
X2111548Y-12708214D02*
X2121071Y-12727262D01*
X2121071Y-12727262D02*
X2121071Y-12774881D01*
X2121071Y-12774881D02*
X2111548Y-12793928D01*
X2111548Y-12793928D02*
X2102024Y-12803452D01*
X2102024Y-12803452D02*
X2082976Y-12812976D01*
X2082976Y-12812976D02*
X2035357Y-12812976D01*
X2035357Y-12812976D02*
X2016309Y-12803452D01*
X2016309Y-12803452D02*
X2006786Y-12793928D01*
X2197262Y-12632024D02*
X2206786Y-12622500D01*
X2206786Y-12622500D02*
X2225833Y-12612976D01*
X2225833Y-12612976D02*
X2273452Y-12612976D01*
X2273452Y-12612976D02*
X2292500Y-12622500D01*
X2292500Y-12622500D02*
X2302024Y-12632024D01*
X2302024Y-12632024D02*
X2311548Y-12651071D01*
X2311548Y-12651071D02*
X2311548Y-12670119D01*
X2311548Y-12670119D02*
X2302024Y-12698690D01*
X2302024Y-12698690D02*
X2187738Y-12812976D01*
X2187738Y-12812976D02*
X2311548Y-12812976D01*
X2397262Y-12812976D02*
X2397262Y-12679643D01*
X2397262Y-12698690D02*
X2406786Y-12689167D01*
X2406786Y-12689167D02*
X2425833Y-12679643D01*
X2425833Y-12679643D02*
X2454405Y-12679643D01*
X2454405Y-12679643D02*
X2473452Y-12689167D01*
X2473452Y-12689167D02*
X2482976Y-12708214D01*
X2482976Y-12708214D02*
X2482976Y-12812976D01*
X2482976Y-12708214D02*
X2492500Y-12689167D01*
X2492500Y-12689167D02*
X2511548Y-12679643D01*
X2511548Y-12679643D02*
X2540119Y-12679643D01*
X2540119Y-12679643D02*
X2559167Y-12689167D01*
X2559167Y-12689167D02*
X2568691Y-12708214D01*
X2568691Y-12708214D02*
X2568691Y-12812976D01*
X2663929Y-12812976D02*
X2663929Y-12679643D01*
X2663929Y-12698690D02*
X2673452Y-12689167D01*
X2673452Y-12689167D02*
X2692500Y-12679643D01*
X2692500Y-12679643D02*
X2721072Y-12679643D01*
X2721072Y-12679643D02*
X2740119Y-12689167D01*
X2740119Y-12689167D02*
X2749643Y-12708214D01*
X2749643Y-12708214D02*
X2749643Y-12812976D01*
X2749643Y-12708214D02*
X2759167Y-12689167D01*
X2759167Y-12689167D02*
X2778214Y-12679643D01*
X2778214Y-12679643D02*
X2806786Y-12679643D01*
X2806786Y-12679643D02*
X2825833Y-12689167D01*
X2825833Y-12689167D02*
X2835357Y-12708214D01*
X2835357Y-12708214D02*
X2835357Y-12812976D01*
X3193452Y-12603452D02*
X3022024Y-12860595D01*
X3418214Y-12612976D02*
X3437262Y-12612976D01*
X3437262Y-12612976D02*
X3456310Y-12622500D01*
X3456310Y-12622500D02*
X3465833Y-12632024D01*
X3465833Y-12632024D02*
X3475357Y-12651071D01*
X3475357Y-12651071D02*
X3484881Y-12689167D01*
X3484881Y-12689167D02*
X3484881Y-12736786D01*
X3484881Y-12736786D02*
X3475357Y-12774881D01*
X3475357Y-12774881D02*
X3465833Y-12793928D01*
X3465833Y-12793928D02*
X3456310Y-12803452D01*
X3456310Y-12803452D02*
X3437262Y-12812976D01*
X3437262Y-12812976D02*
X3418214Y-12812976D01*
X3418214Y-12812976D02*
X3399167Y-12803452D01*
X3399167Y-12803452D02*
X3389643Y-12793928D01*
X3389643Y-12793928D02*
X3380119Y-12774881D01*
X3380119Y-12774881D02*
X3370595Y-12736786D01*
X3370595Y-12736786D02*
X3370595Y-12689167D01*
X3370595Y-12689167D02*
X3380119Y-12651071D01*
X3380119Y-12651071D02*
X3389643Y-12632024D01*
X3389643Y-12632024D02*
X3399167Y-12622500D01*
X3399167Y-12622500D02*
X3418214Y-12612976D01*
X3570595Y-12793928D02*
X3580119Y-12803452D01*
X3580119Y-12803452D02*
X3570595Y-12812976D01*
X3570595Y-12812976D02*
X3561071Y-12803452D01*
X3561071Y-12803452D02*
X3570595Y-12793928D01*
X3570595Y-12793928D02*
X3570595Y-12812976D01*
X3703929Y-12612976D02*
X3722976Y-12612976D01*
X3722976Y-12612976D02*
X3742024Y-12622500D01*
X3742024Y-12622500D02*
X3751548Y-12632024D01*
X3751548Y-12632024D02*
X3761071Y-12651071D01*
X3761071Y-12651071D02*
X3770595Y-12689167D01*
X3770595Y-12689167D02*
X3770595Y-12736786D01*
X3770595Y-12736786D02*
X3761071Y-12774881D01*
X3761071Y-12774881D02*
X3751548Y-12793928D01*
X3751548Y-12793928D02*
X3742024Y-12803452D01*
X3742024Y-12803452D02*
X3722976Y-12812976D01*
X3722976Y-12812976D02*
X3703929Y-12812976D01*
X3703929Y-12812976D02*
X3684881Y-12803452D01*
X3684881Y-12803452D02*
X3675357Y-12793928D01*
X3675357Y-12793928D02*
X3665833Y-12774881D01*
X3665833Y-12774881D02*
X3656310Y-12736786D01*
X3656310Y-12736786D02*
X3656310Y-12689167D01*
X3656310Y-12689167D02*
X3665833Y-12651071D01*
X3665833Y-12651071D02*
X3675357Y-12632024D01*
X3675357Y-12632024D02*
X3684881Y-12622500D01*
X3684881Y-12622500D02*
X3703929Y-12612976D01*
X3942024Y-12679643D02*
X3942024Y-12812976D01*
X3894405Y-12603452D02*
X3846786Y-12746309D01*
X3846786Y-12746309D02*
X3970595Y-12746309D01*
X4142024Y-12612976D02*
X4046786Y-12612976D01*
X4046786Y-12612976D02*
X4037262Y-12708214D01*
X4037262Y-12708214D02*
X4046786Y-12698690D01*
X4046786Y-12698690D02*
X4065833Y-12689167D01*
X4065833Y-12689167D02*
X4113452Y-12689167D01*
X4113452Y-12689167D02*
X4132500Y-12698690D01*
X4132500Y-12698690D02*
X4142024Y-12708214D01*
X4142024Y-12708214D02*
X4151548Y-12727262D01*
X4151548Y-12727262D02*
X4151548Y-12774881D01*
X4151548Y-12774881D02*
X4142024Y-12793928D01*
X4142024Y-12793928D02*
X4132500Y-12803452D01*
X4132500Y-12803452D02*
X4113452Y-12812976D01*
X4113452Y-12812976D02*
X4065833Y-12812976D01*
X4065833Y-12812976D02*
X4046786Y-12803452D01*
X4046786Y-12803452D02*
X4037262Y-12793928D01*
X4322976Y-12679643D02*
X4322976Y-12812976D01*
X4275357Y-12603452D02*
X4227738Y-12746309D01*
X4227738Y-12746309D02*
X4351548Y-12746309D01*
X4418214Y-12612976D02*
X4418214Y-12651071D01*
X4494405Y-12612976D02*
X4494405Y-12651071D01*
X4757262Y-12889167D02*
X4747738Y-12879643D01*
X4747738Y-12879643D02*
X4728691Y-12851071D01*
X4728691Y-12851071D02*
X4719167Y-12832024D01*
X4719167Y-12832024D02*
X4709643Y-12803452D01*
X4709643Y-12803452D02*
X4700119Y-12755833D01*
X4700119Y-12755833D02*
X4700119Y-12717738D01*
X4700119Y-12717738D02*
X4709643Y-12670119D01*
X4709643Y-12670119D02*
X4719167Y-12641548D01*
X4719167Y-12641548D02*
X4728691Y-12622500D01*
X4728691Y-12622500D02*
X4747738Y-12593928D01*
X4747738Y-12593928D02*
X4757262Y-12584405D01*
X4919167Y-12612976D02*
X4881072Y-12612976D01*
X4881072Y-12612976D02*
X4862024Y-12622500D01*
X4862024Y-12622500D02*
X4852500Y-12632024D01*
X4852500Y-12632024D02*
X4833453Y-12660595D01*
X4833453Y-12660595D02*
X4823929Y-12698690D01*
X4823929Y-12698690D02*
X4823929Y-12774881D01*
X4823929Y-12774881D02*
X4833453Y-12793928D01*
X4833453Y-12793928D02*
X4842976Y-12803452D01*
X4842976Y-12803452D02*
X4862024Y-12812976D01*
X4862024Y-12812976D02*
X4900119Y-12812976D01*
X4900119Y-12812976D02*
X4919167Y-12803452D01*
X4919167Y-12803452D02*
X4928691Y-12793928D01*
X4928691Y-12793928D02*
X4938214Y-12774881D01*
X4938214Y-12774881D02*
X4938214Y-12727262D01*
X4938214Y-12727262D02*
X4928691Y-12708214D01*
X4928691Y-12708214D02*
X4919167Y-12698690D01*
X4919167Y-12698690D02*
X4900119Y-12689167D01*
X4900119Y-12689167D02*
X4862024Y-12689167D01*
X4862024Y-12689167D02*
X4842976Y-12698690D01*
X4842976Y-12698690D02*
X4833453Y-12708214D01*
X4833453Y-12708214D02*
X4823929Y-12727262D01*
X5143929Y-12812976D02*
X5143929Y-12612976D01*
X5229643Y-12812976D02*
X5229643Y-12708214D01*
X5229643Y-12708214D02*
X5220119Y-12689167D01*
X5220119Y-12689167D02*
X5201072Y-12679643D01*
X5201072Y-12679643D02*
X5172500Y-12679643D01*
X5172500Y-12679643D02*
X5153453Y-12689167D01*
X5153453Y-12689167D02*
X5143929Y-12698690D01*
X5353453Y-12812976D02*
X5334405Y-12803452D01*
X5334405Y-12803452D02*
X5324881Y-12793928D01*
X5324881Y-12793928D02*
X5315357Y-12774881D01*
X5315357Y-12774881D02*
X5315357Y-12717738D01*
X5315357Y-12717738D02*
X5324881Y-12698690D01*
X5324881Y-12698690D02*
X5334405Y-12689167D01*
X5334405Y-12689167D02*
X5353453Y-12679643D01*
X5353453Y-12679643D02*
X5382024Y-12679643D01*
X5382024Y-12679643D02*
X5401072Y-12689167D01*
X5401072Y-12689167D02*
X5410595Y-12698690D01*
X5410595Y-12698690D02*
X5420119Y-12717738D01*
X5420119Y-12717738D02*
X5420119Y-12774881D01*
X5420119Y-12774881D02*
X5410595Y-12793928D01*
X5410595Y-12793928D02*
X5401072Y-12803452D01*
X5401072Y-12803452D02*
X5382024Y-12812976D01*
X5382024Y-12812976D02*
X5353453Y-12812976D01*
X5534405Y-12812976D02*
X5515357Y-12803452D01*
X5515357Y-12803452D02*
X5505834Y-12784405D01*
X5505834Y-12784405D02*
X5505834Y-12612976D01*
X5686786Y-12803452D02*
X5667738Y-12812976D01*
X5667738Y-12812976D02*
X5629643Y-12812976D01*
X5629643Y-12812976D02*
X5610595Y-12803452D01*
X5610595Y-12803452D02*
X5601072Y-12784405D01*
X5601072Y-12784405D02*
X5601072Y-12708214D01*
X5601072Y-12708214D02*
X5610595Y-12689167D01*
X5610595Y-12689167D02*
X5629643Y-12679643D01*
X5629643Y-12679643D02*
X5667738Y-12679643D01*
X5667738Y-12679643D02*
X5686786Y-12689167D01*
X5686786Y-12689167D02*
X5696310Y-12708214D01*
X5696310Y-12708214D02*
X5696310Y-12727262D01*
X5696310Y-12727262D02*
X5601072Y-12746309D01*
X5772500Y-12803452D02*
X5791548Y-12812976D01*
X5791548Y-12812976D02*
X5829643Y-12812976D01*
X5829643Y-12812976D02*
X5848691Y-12803452D01*
X5848691Y-12803452D02*
X5858214Y-12784405D01*
X5858214Y-12784405D02*
X5858214Y-12774881D01*
X5858214Y-12774881D02*
X5848691Y-12755833D01*
X5848691Y-12755833D02*
X5829643Y-12746309D01*
X5829643Y-12746309D02*
X5801072Y-12746309D01*
X5801072Y-12746309D02*
X5782024Y-12736786D01*
X5782024Y-12736786D02*
X5772500Y-12717738D01*
X5772500Y-12717738D02*
X5772500Y-12708214D01*
X5772500Y-12708214D02*
X5782024Y-12689167D01*
X5782024Y-12689167D02*
X5801072Y-12679643D01*
X5801072Y-12679643D02*
X5829643Y-12679643D01*
X5829643Y-12679643D02*
X5848691Y-12689167D01*
X5924881Y-12889167D02*
X5934405Y-12879643D01*
X5934405Y-12879643D02*
X5953453Y-12851071D01*
X5953453Y-12851071D02*
X5962976Y-12832024D01*
X5962976Y-12832024D02*
X5972500Y-12803452D01*
X5972500Y-12803452D02*
X5982024Y-12755833D01*
X5982024Y-12755833D02*
X5982024Y-12717738D01*
X5982024Y-12717738D02*
X5972500Y-12670119D01*
X5972500Y-12670119D02*
X5962976Y-12641548D01*
X5962976Y-12641548D02*
X5953453Y-12622500D01*
X5953453Y-12622500D02*
X5934405Y-12593928D01*
X5934405Y-12593928D02*
X5924881Y-12584405D01*
X6254405Y-12889167D02*
X6244881Y-12879643D01*
X6244881Y-12879643D02*
X6225833Y-12851071D01*
X6225833Y-12851071D02*
X6216310Y-12832024D01*
X6216310Y-12832024D02*
X6206786Y-12803452D01*
X6206786Y-12803452D02*
X6197262Y-12755833D01*
X6197262Y-12755833D02*
X6197262Y-12717738D01*
X6197262Y-12717738D02*
X6206786Y-12670119D01*
X6206786Y-12670119D02*
X6216310Y-12641548D01*
X6216310Y-12641548D02*
X6225833Y-12622500D01*
X6225833Y-12622500D02*
X6244881Y-12593928D01*
X6244881Y-12593928D02*
X6254405Y-12584405D01*
X6330595Y-12679643D02*
X6330595Y-12812976D01*
X6330595Y-12698690D02*
X6340119Y-12689167D01*
X6340119Y-12689167D02*
X6359167Y-12679643D01*
X6359167Y-12679643D02*
X6387738Y-12679643D01*
X6387738Y-12679643D02*
X6406786Y-12689167D01*
X6406786Y-12689167D02*
X6416310Y-12708214D01*
X6416310Y-12708214D02*
X6416310Y-12812976D01*
X6540119Y-12812976D02*
X6521072Y-12803452D01*
X6521072Y-12803452D02*
X6511548Y-12793928D01*
X6511548Y-12793928D02*
X6502024Y-12774881D01*
X6502024Y-12774881D02*
X6502024Y-12717738D01*
X6502024Y-12717738D02*
X6511548Y-12698690D01*
X6511548Y-12698690D02*
X6521072Y-12689167D01*
X6521072Y-12689167D02*
X6540119Y-12679643D01*
X6540119Y-12679643D02*
X6568691Y-12679643D01*
X6568691Y-12679643D02*
X6587738Y-12689167D01*
X6587738Y-12689167D02*
X6597262Y-12698690D01*
X6597262Y-12698690D02*
X6606786Y-12717738D01*
X6606786Y-12717738D02*
X6606786Y-12774881D01*
X6606786Y-12774881D02*
X6597262Y-12793928D01*
X6597262Y-12793928D02*
X6587738Y-12803452D01*
X6587738Y-12803452D02*
X6568691Y-12812976D01*
X6568691Y-12812976D02*
X6540119Y-12812976D01*
X6663929Y-12679643D02*
X6740119Y-12679643D01*
X6692500Y-12612976D02*
X6692500Y-12784405D01*
X6692500Y-12784405D02*
X6702024Y-12803452D01*
X6702024Y-12803452D02*
X6721072Y-12812976D01*
X6721072Y-12812976D02*
X6740119Y-12812976D01*
X6926786Y-12679643D02*
X6926786Y-12879643D01*
X6926786Y-12689167D02*
X6945833Y-12679643D01*
X6945833Y-12679643D02*
X6983929Y-12679643D01*
X6983929Y-12679643D02*
X7002976Y-12689167D01*
X7002976Y-12689167D02*
X7012500Y-12698690D01*
X7012500Y-12698690D02*
X7022024Y-12717738D01*
X7022024Y-12717738D02*
X7022024Y-12774881D01*
X7022024Y-12774881D02*
X7012500Y-12793928D01*
X7012500Y-12793928D02*
X7002976Y-12803452D01*
X7002976Y-12803452D02*
X6983929Y-12812976D01*
X6983929Y-12812976D02*
X6945833Y-12812976D01*
X6945833Y-12812976D02*
X6926786Y-12803452D01*
X7136310Y-12812976D02*
X7117262Y-12803452D01*
X7117262Y-12803452D02*
X7107738Y-12784405D01*
X7107738Y-12784405D02*
X7107738Y-12612976D01*
X7298214Y-12812976D02*
X7298214Y-12708214D01*
X7298214Y-12708214D02*
X7288691Y-12689167D01*
X7288691Y-12689167D02*
X7269643Y-12679643D01*
X7269643Y-12679643D02*
X7231548Y-12679643D01*
X7231548Y-12679643D02*
X7212500Y-12689167D01*
X7298214Y-12803452D02*
X7279167Y-12812976D01*
X7279167Y-12812976D02*
X7231548Y-12812976D01*
X7231548Y-12812976D02*
X7212500Y-12803452D01*
X7212500Y-12803452D02*
X7202976Y-12784405D01*
X7202976Y-12784405D02*
X7202976Y-12765357D01*
X7202976Y-12765357D02*
X7212500Y-12746309D01*
X7212500Y-12746309D02*
X7231548Y-12736786D01*
X7231548Y-12736786D02*
X7279167Y-12736786D01*
X7279167Y-12736786D02*
X7298214Y-12727262D01*
X7364881Y-12679643D02*
X7441072Y-12679643D01*
X7393453Y-12612976D02*
X7393453Y-12784405D01*
X7393453Y-12784405D02*
X7402976Y-12803452D01*
X7402976Y-12803452D02*
X7422024Y-12812976D01*
X7422024Y-12812976D02*
X7441072Y-12812976D01*
X7583929Y-12803452D02*
X7564881Y-12812976D01*
X7564881Y-12812976D02*
X7526786Y-12812976D01*
X7526786Y-12812976D02*
X7507738Y-12803452D01*
X7507738Y-12803452D02*
X7498214Y-12784405D01*
X7498214Y-12784405D02*
X7498214Y-12708214D01*
X7498214Y-12708214D02*
X7507738Y-12689167D01*
X7507738Y-12689167D02*
X7526786Y-12679643D01*
X7526786Y-12679643D02*
X7564881Y-12679643D01*
X7564881Y-12679643D02*
X7583929Y-12689167D01*
X7583929Y-12689167D02*
X7593453Y-12708214D01*
X7593453Y-12708214D02*
X7593453Y-12727262D01*
X7593453Y-12727262D02*
X7498214Y-12746309D01*
X7764881Y-12812976D02*
X7764881Y-12612976D01*
X7764881Y-12803452D02*
X7745834Y-12812976D01*
X7745834Y-12812976D02*
X7707738Y-12812976D01*
X7707738Y-12812976D02*
X7688691Y-12803452D01*
X7688691Y-12803452D02*
X7679167Y-12793928D01*
X7679167Y-12793928D02*
X7669643Y-12774881D01*
X7669643Y-12774881D02*
X7669643Y-12717738D01*
X7669643Y-12717738D02*
X7679167Y-12698690D01*
X7679167Y-12698690D02*
X7688691Y-12689167D01*
X7688691Y-12689167D02*
X7707738Y-12679643D01*
X7707738Y-12679643D02*
X7745834Y-12679643D01*
X7745834Y-12679643D02*
X7764881Y-12689167D01*
X7841072Y-12889167D02*
X7850595Y-12879643D01*
X7850595Y-12879643D02*
X7869643Y-12851071D01*
X7869643Y-12851071D02*
X7879167Y-12832024D01*
X7879167Y-12832024D02*
X7888691Y-12803452D01*
X7888691Y-12803452D02*
X7898214Y-12755833D01*
X7898214Y-12755833D02*
X7898214Y-12717738D01*
X7898214Y-12717738D02*
X7888691Y-12670119D01*
X7888691Y-12670119D02*
X7879167Y-12641548D01*
X7879167Y-12641548D02*
X7869643Y-12622500D01*
X7869643Y-12622500D02*
X7850595Y-12593928D01*
X7850595Y-12593928D02*
X7841072Y-12584405D01*
M02*
