M48
; DRILL file {KiCad (7.0.0)} date Sun Apr 30 09:27:35 2023
; FORMAT={-:-/ absolute / metric / decimal}
; #@! TF.CreationDate,2023-04-30T09:27:35+02:00
; #@! TF.GenerationSoftware,Kicad,Pcbnew,(7.0.0)
; #@! TF.FileFunction,Plated,1,2,PTH
FMAT,2
METRIC
; #@! TA.AperFunction,Plated,PTH,ViaDrill
T1C0.400
; #@! TA.AperFunction,Plated,PTH,ComponentDrill
T2C1.000
; #@! TA.AperFunction,Plated,PTH,ComponentDrill
T3C1.850
%
G90
G05
T1
X21.25Y-23.5
X21.25Y-28.5
X21.25Y-30.5
X21.25Y-32.5
X21.25Y-34.5
X21.25Y-36.5
X21.25Y-38.5
X21.25Y-43.5
X21.25Y-45.5
X21.25Y-47.75
X21.25Y-49.75
X21.25Y-51.75
X21.25Y-53.75
X21.25Y-58.0
X21.25Y-67.5
X21.25Y-72.5
X21.25Y-74.5
X21.25Y-76.5
X21.25Y-78.5
X21.25Y-80.5
X21.25Y-82.5
X21.25Y-87.5
X21.25Y-89.5
X21.25Y-91.75
X21.25Y-93.75
X21.25Y-95.75
X21.25Y-97.75
X21.25Y-102.0
X24.2Y-54.2
X24.2Y-98.2
X25.14Y-27.95
X25.14Y-71.95
X25.2Y-56.3
X25.2Y-100.3
X25.25Y-60.5
X25.25Y-104.5
X25.5Y-21.5
X25.5Y-65.5
X27.5Y-60.5
X27.5Y-104.5
X27.75Y-21.5
X27.75Y-65.5
X28.93Y-28.54
X28.93Y-72.54
X29.5Y-21.5
X29.5Y-65.5
X29.51Y-26.37
X29.51Y-70.37
X29.7Y-55.0
X29.7Y-99.0
X29.75Y-60.5
X29.75Y-104.5
X31.2Y-54.3
X31.2Y-98.3
X31.5Y-34.17
X31.5Y-78.17
X31.53Y-48.3
X31.53Y-92.3
X31.94Y-28.18
X31.94Y-72.18
X32.5Y-54.4
X32.5Y-98.4
X32.93Y-29.15
X32.93Y-73.15
X33.3Y-58.3
X33.3Y-102.3
X33.43Y-45.29
X33.43Y-89.29
X33.54Y-42.83
X33.54Y-86.83
X34.83Y-37.06
X34.83Y-81.06
X34.9Y-50.4
X34.9Y-94.4
X35.0Y-60.25
X35.0Y-104.25
X35.4Y-21.6
X35.4Y-23.5
X35.4Y-25.4
X35.4Y-65.6
X35.4Y-67.5
X35.4Y-69.4
X35.5Y-58.5
X35.5Y-102.5
X35.52Y-28.45
X35.52Y-72.45
X36.5Y-57.0
X36.5Y-101.0
X36.6Y-53.2
X36.6Y-97.2
X36.89Y-43.88
X36.89Y-87.88
X37.22Y-48.09
X37.22Y-92.09
X37.64Y-39.51
X37.64Y-83.51
X37.75Y-30.75
X37.75Y-74.75
X38.25Y-55.75
X38.25Y-99.75
X38.47Y-50.43
X38.47Y-94.43
X39.25Y-32.25
X39.25Y-76.25
X39.7Y-51.8
X39.7Y-95.8
X40.1Y-48.2
X40.1Y-92.2
X40.75Y-33.75
X40.75Y-77.75
X41.01Y-47.41
X41.01Y-91.41
X42.0Y-34.92
X42.0Y-78.92
X42.39Y-46.71
X42.39Y-90.71
X44.07Y-47.7
X44.07Y-91.7
X44.19Y-43.41
X44.19Y-87.41
X44.5Y-40.5
X44.5Y-84.5
X44.75Y-56.5
X44.75Y-100.5
X45.0Y-38.0
X45.0Y-82.0
X45.28Y-45.83
X45.28Y-89.83
X45.98Y-49.83
X45.98Y-93.83
X46.2Y-47.6
X46.2Y-91.6
X46.25Y-58.25
X46.25Y-102.25
X46.44Y-51.82
X46.44Y-95.82
X46.5Y-39.4
X46.5Y-83.4
X46.7Y-42.6
X46.7Y-86.6
X46.75Y-60.25
X46.75Y-104.25
X46.9Y-56.0
X46.9Y-100.0
X48.26Y-53.94
X48.26Y-97.94
X48.4Y-58.8
X48.4Y-102.8
X49.367Y-53.928
X49.367Y-97.928
X50.0Y-40.4
X50.0Y-84.4
X50.52Y-57.33
X50.52Y-101.33
X52.24Y-45.35
X52.24Y-89.35
X52.25Y-60.5
X52.25Y-104.5
X52.4Y-40.4
X52.4Y-49.8
X52.4Y-51.8
X52.4Y-84.4
X52.4Y-93.8
X52.4Y-95.8
X52.67Y-54.26
X52.67Y-98.26
X54.06Y-57.99
X54.06Y-101.99
X54.5Y-60.5
X54.5Y-104.5
X54.8Y-40.4
X54.8Y-54.4
X54.8Y-84.4
X54.8Y-98.4
X55.05Y-47.62
X55.05Y-91.62
X56.44Y-58.11
X56.44Y-102.11
X56.7Y-54.3
X56.7Y-98.3
X56.75Y-60.5
X56.75Y-104.5
X57.0Y-40.4
X57.0Y-84.4
X57.66Y-51.25
X57.66Y-95.25
X57.94Y-45.26
X57.94Y-89.26
X58.6Y-54.2
X58.6Y-98.2
X59.0Y-40.4
X59.0Y-84.4
X59.183Y-58.015
X59.183Y-102.015
X60.01Y-46.74
X60.01Y-90.74
X60.11Y-52.11
X60.11Y-96.11
X60.388Y-57.988
X60.388Y-101.988
X62.0Y-40.4
X62.0Y-84.4
X62.25Y-60.25
X62.25Y-104.25
X62.93Y-49.1
X62.93Y-93.1
X63.07Y-53.36
X63.07Y-97.36
X63.94Y-38.19
X63.94Y-82.19
X64.23Y-45.14
X64.23Y-89.14
X64.29Y-42.279
X64.29Y-86.278
X64.75Y-56.25
X64.75Y-100.25
X65.205Y-41.655
X65.205Y-85.655
X65.8Y-39.4
X65.8Y-83.4
X66.5Y-35.5
X66.5Y-79.5
X66.75Y-43.15
X66.75Y-87.15
X66.962Y-49.8
X66.962Y-93.8
X68.0Y-34.0
X68.0Y-55.25
X68.0Y-78.0
X68.0Y-99.25
X68.02Y-47.22
X68.02Y-91.22
X68.72Y-40.1
X68.72Y-84.1
X68.78Y-42.99
X68.78Y-86.99
X68.98Y-53.06
X68.98Y-97.06
X69.5Y-32.5
X69.5Y-76.5
X70.25Y-55.75
X70.25Y-99.75
X70.86Y-50.45
X70.86Y-94.45
X71.25Y-30.75
X71.25Y-74.75
X71.73Y-36.98
X71.73Y-80.98
X71.84Y-34.25
X71.84Y-78.25
X72.0Y-55.0
X72.0Y-99.0
X72.4Y-41.1
X72.4Y-85.1
X72.46Y-44.81
X72.46Y-88.81
X73.0Y-29.0
X73.0Y-73.0
X73.25Y-58.5
X73.25Y-102.5
X73.5Y-21.75
X73.5Y-23.5
X73.5Y-25.25
X73.5Y-27.0
X73.5Y-65.75
X73.5Y-67.5
X73.5Y-69.25
X73.5Y-71.0
X73.75Y-60.25
X73.75Y-104.25
X74.31Y-54.81
X74.31Y-98.81
X74.46Y-48.22
X74.46Y-92.22
X74.68Y-31.54
X74.68Y-75.54
X74.94Y-58.78
X74.94Y-102.78
X75.0Y-21.75
X75.0Y-29.0
X75.0Y-65.75
X75.0Y-73.0
X76.16Y-52.78
X76.16Y-96.78
X76.45Y-36.81
X76.45Y-80.81
X76.5Y-33.5
X76.5Y-77.5
X76.7Y-27.9
X76.7Y-71.9
X77.67Y-44.87
X77.67Y-88.87
X78.55Y-36.36
X78.55Y-80.36
X79.22Y-56.28
X79.22Y-100.28
X79.25Y-21.75
X79.25Y-60.75
X79.25Y-65.75
X79.25Y-104.75
X79.3Y-26.7
X79.3Y-70.7
X80.61Y-53.84
X80.61Y-97.84
X81.5Y-21.75
X81.5Y-60.75
X81.5Y-65.75
X81.5Y-104.75
X81.56Y-42.18
X81.56Y-86.18
X81.71Y-48.18
X81.71Y-92.18
X83.14Y-32.05
X83.14Y-76.05
X83.57Y-55.93
X83.57Y-99.93
X83.75Y-21.75
X83.75Y-60.75
X83.75Y-65.75
X83.75Y-104.75
X83.8Y-26.8
X83.8Y-70.8
X83.95Y-39.66
X83.95Y-83.66
X84.1Y-37.4
X84.1Y-44.4
X84.1Y-81.4
X84.1Y-88.4
X84.3Y-52.8
X84.3Y-96.8
X84.49Y-48.3
X84.49Y-92.3
X85.38Y-29.04
X85.38Y-73.04
X85.95Y-58.44
X85.95Y-102.44
X87.75Y-23.5
X87.75Y-28.75
X87.75Y-30.5
X87.75Y-32.25
X87.75Y-34.0
X87.75Y-35.75
X87.75Y-37.5
X87.75Y-39.25
X87.75Y-42.75
X87.75Y-44.5
X87.75Y-46.25
X87.75Y-48.0
X87.75Y-49.75
X87.75Y-51.5
X87.75Y-53.25
X87.75Y-58.0
X87.75Y-67.5
X87.75Y-72.75
X87.75Y-74.5
X87.75Y-76.25
X87.75Y-78.0
X87.75Y-79.75
X87.75Y-81.5
X87.75Y-83.25
X87.75Y-86.75
X87.75Y-88.5
X87.75Y-90.25
X87.75Y-92.0
X87.75Y-93.75
X87.75Y-95.5
X87.75Y-97.25
X87.75Y-102.0
X91.5Y-43.1
X91.5Y-87.1
X91.7Y-55.3
X91.7Y-99.3
X91.9Y-52.0
X91.9Y-96.0
X92.0Y-57.75
X92.0Y-101.75
X92.867Y-46.328
X92.867Y-50.128
X92.867Y-90.328
X92.867Y-94.128
X93.591Y-48.228
X93.591Y-92.228
X93.9Y-44.5
X93.9Y-88.5
X94.8Y-42.7
X94.8Y-86.7
X95.25Y-40.75
X95.25Y-84.75
X95.7Y-48.1
X95.7Y-52.7
X95.7Y-92.1
X95.7Y-96.7
X95.74Y-45.9
X95.74Y-89.9
X96.33Y-56.4
X96.33Y-100.4
X96.5Y-60.5
X96.5Y-104.5
X97.1Y-46.6
X97.1Y-90.6
X97.7Y-44.0
X97.7Y-88.0
X98.5Y-40.75
X98.5Y-84.75
X99.5Y-60.5
X99.5Y-104.5
X100.1Y-45.1
X100.1Y-58.0
X100.1Y-89.1
X100.1Y-102.0
X100.6Y-51.7
X100.6Y-95.7
X101.25Y-40.75
X101.25Y-84.75
X102.6Y-44.4
X102.6Y-46.5
X102.6Y-88.4
X102.6Y-90.5
X103.0Y-49.8
X103.0Y-93.8
X103.1Y-53.5
X103.1Y-97.5
X104.7Y-47.8
X104.7Y-91.8
X104.8Y-45.8
X104.8Y-89.8
X104.9Y-51.7
X104.9Y-95.7
X105.0Y-58.55
X105.0Y-102.55
X105.25Y-60.25
X105.25Y-104.25
X105.75Y-40.75
X105.75Y-84.75
X106.8Y-29.9
X106.8Y-73.9
X107.192Y-44.4
X107.192Y-88.4
X107.25Y-33.5
X107.25Y-36.5
X107.25Y-39.25
X107.25Y-77.5
X107.25Y-80.5
X107.25Y-83.25
X107.4Y-56.7
X107.4Y-100.7
X107.8Y-28.4
X107.8Y-72.4
X107.825Y-29.875
X107.825Y-73.875
X108.4Y-41.64
X108.4Y-85.64
X108.6Y-35.0
X108.6Y-79.0
X109.0Y-49.82
X109.0Y-51.53
X109.0Y-93.82
X109.0Y-95.53
X110.025Y-43.8
X110.025Y-87.8
X110.3Y-53.4
X110.3Y-97.4
X110.5Y-55.25
X110.5Y-99.25
X110.6Y-31.0
X110.6Y-75.0
X111.0Y-27.0
X111.0Y-71.0
X111.21Y-52.28
X111.21Y-96.28
X111.27Y-50.75
X111.27Y-94.75
X112.28Y-37.07
X112.28Y-81.07
X112.3Y-44.3
X112.3Y-88.3
X113.5Y-26.75
X113.5Y-55.5
X113.5Y-70.75
X113.5Y-99.5
X113.7Y-31.7
X113.7Y-75.7
X113.89Y-41.81
X113.89Y-85.81
X114.04Y-51.73
X114.04Y-95.73
X115.06Y-38.59
X115.06Y-82.59
X115.2Y-45.7
X115.2Y-89.7
X115.3Y-47.8
X115.3Y-91.8
X115.7Y-33.6
X115.7Y-36.3
X115.7Y-43.5
X115.7Y-77.6
X115.7Y-80.3
X115.7Y-87.5
X116.0Y-56.7
X116.0Y-100.7
X117.0Y-24.25
X117.0Y-58.0
X117.0Y-68.25
X117.0Y-102.0
X117.4Y-50.6
X117.4Y-94.6
X117.75Y-22.0
X117.75Y-60.25
X117.75Y-66.0
X117.75Y-104.25
X118.5Y-55.0
X118.5Y-99.0
X118.7Y-52.8
X118.7Y-58.7
X118.7Y-96.8
X118.7Y-102.7
X119.42Y-45.22
X119.42Y-89.22
X119.55Y-28.62
X119.55Y-72.62
X119.725Y-54.125
X119.725Y-98.125
X119.87Y-32.14
X119.87Y-76.14
X120.0Y-34.6
X120.0Y-78.6
X120.2Y-50.1
X120.2Y-58.3
X120.2Y-94.1
X120.2Y-102.3
X121.0Y-47.4
X121.0Y-91.4
X121.2Y-36.8
X121.2Y-80.8
X121.49Y-24.44
X121.49Y-68.44
X121.6Y-54.1
X121.6Y-98.1
X121.64Y-45.28
X121.64Y-89.28
X122.7Y-27.0
X122.7Y-71.0
X122.8Y-33.4
X122.8Y-77.4
X122.9Y-53.8
X122.9Y-97.8
X123.15Y-36.94
X123.15Y-80.94
X123.25Y-21.75
X123.25Y-65.75
X123.3Y-57.7
X123.3Y-101.7
X123.75Y-60.5
X123.75Y-104.5
X124.1Y-49.6
X124.1Y-93.6
X124.16Y-47.4
X124.16Y-91.4
X124.2Y-30.9
X124.2Y-74.9
X124.7Y-54.4
X124.7Y-98.4
X124.9Y-51.6
X124.9Y-95.6
X125.2Y-37.7
X125.2Y-81.7
X126.5Y-60.5
X126.5Y-104.5
X126.7Y-57.7
X126.7Y-101.7
X126.75Y-21.75
X126.75Y-65.75
X126.77Y-45.3
X126.77Y-89.3
X127.3Y-26.9
X127.3Y-70.9
X127.39Y-39.81
X127.39Y-83.81
X127.64Y-36.52
X127.64Y-80.52
X127.7Y-30.6
X127.7Y-32.9
X127.7Y-74.6
X127.7Y-76.9
X129.6Y-27.7
X129.6Y-71.7
X129.7Y-51.8
X129.7Y-95.8
X131.0Y-23.75
X131.0Y-28.75
X131.0Y-31.75
X131.0Y-34.75
X131.0Y-47.0
X131.0Y-50.25
X131.0Y-53.5
X131.0Y-58.0
X131.0Y-67.75
X131.0Y-72.75
X131.0Y-75.75
X131.0Y-78.75
X131.0Y-91.0
X131.0Y-94.25
X131.0Y-97.5
X131.0Y-102.0
T2
X21.5Y-41.0
X21.5Y-85.0
X38.42Y-53.065
X38.42Y-97.065
X40.96Y-50.525
X40.96Y-53.065
X40.96Y-94.525
X40.96Y-97.065
X43.5Y-50.525
X43.5Y-53.065
X43.5Y-94.525
X43.5Y-97.065
X48.5Y-41.0
X48.5Y-85.0
X60.5Y-41.0
X60.5Y-85.0
X87.5Y-41.0
X87.5Y-85.0
X92.0Y-41.0
X92.0Y-85.0
X99.71Y-29.21
X99.71Y-31.75
X99.71Y-73.21
X99.71Y-75.75
X102.25Y-29.21
X102.25Y-31.75
X102.25Y-73.21
X102.25Y-75.75
X104.0Y-41.0
X104.0Y-85.0
X104.79Y-29.21
X104.79Y-73.21
X131.0Y-41.0
X131.0Y-41.0
X131.0Y-85.0
T3
X30.5Y-30.435
X30.5Y-51.565
X30.5Y-74.435
X30.5Y-95.565
X78.5Y-30.435
X78.5Y-51.565
X78.5Y-74.435
X78.5Y-95.565
X122.0Y-30.435
X122.0Y-51.565
X122.0Y-74.435
X122.0Y-95.565
T0
M30
