G04 #@! TF.GenerationSoftware,KiCad,Pcbnew,(7.0.0)*
G04 #@! TF.CreationDate,2023-04-30T09:27:40+02:00*
G04 #@! TF.ProjectId,IKEA_Button2,494b4541-5f42-4757-9474-6f6e322e6b69,rev?*
G04 #@! TF.SameCoordinates,Original*
G04 #@! TF.FileFunction,Profile,NP*
%FSLAX46Y46*%
G04 Gerber Fmt 4.6, Leading zero omitted, Abs format (unit mm)*
G04 Created by KiCad (PCBNEW (7.0.0)) date 2023-04-30 09:27:40*
%MOMM*%
%LPD*%
G01*
G04 APERTURE LIST*
G04 #@! TA.AperFunction,Profile*
%ADD10C,0.150000*%
G04 #@! TD*
G04 APERTURE END LIST*
D10*
X77002100Y-106997900D02*
X77000000Y-106000000D01*
X59000000Y-106000000D02*
X59002100Y-106997900D01*
X63000000Y-105500000D02*
X63002100Y-106997900D01*
X73000000Y-105500000D02*
X73002100Y-106997900D01*
X77500000Y-105500000D02*
X86500000Y-105500000D01*
X88500000Y-66500000D02*
G75*
G03*
X86500000Y-64500000I-2000000J0D01*
G01*
X58500000Y-64500000D02*
X50500000Y-64500000D01*
X63000000Y-65000000D02*
G75*
G03*
X73000000Y-65000000I5000000J0D01*
G01*
X50000000Y-77750000D02*
X62000000Y-77750000D01*
X62000000Y-83750000D02*
X50000000Y-83750000D01*
X58500000Y-64500000D02*
G75*
G03*
X58997900Y-64002100I0J497900D01*
G01*
X77500000Y-105500000D02*
G75*
G03*
X77000000Y-106000000I0J-500000D01*
G01*
X77000000Y-64000000D02*
G75*
G03*
X77500000Y-64500000I500000J0D01*
G01*
X88500000Y-66500000D02*
X88500000Y-103500000D01*
X73000000Y-105000000D02*
G75*
G03*
X63000000Y-105000000I-5000000J0D01*
G01*
X59000000Y-106000000D02*
G75*
G03*
X58500000Y-105500000I-500000J0D01*
G01*
X86499532Y-64502100D02*
X77500000Y-64502100D01*
X73000000Y-65000000D02*
X73000000Y-64500000D01*
X63000000Y-64500000D02*
X63000000Y-65000000D01*
X63000000Y-78750000D02*
X63000000Y-82750000D01*
X63000000Y-105500000D02*
X63000000Y-105000000D01*
X73000000Y-105000000D02*
X73000000Y-105500000D01*
X86500000Y-105500000D02*
G75*
G03*
X88500000Y-103500000I0J2000000D01*
G01*
X62000000Y-83750000D02*
G75*
G03*
X63000000Y-82750000I0J1000000D01*
G01*
X63000000Y-78750000D02*
G75*
G03*
X62000000Y-77750000I-1000000J0D01*
G01*
X120500000Y-20000000D02*
G75*
G03*
X121000000Y-20500000I500000J0D01*
G01*
X116500000Y-105000000D02*
G75*
G03*
X106500000Y-105000000I-5000000J0D01*
G01*
X63000000Y-20500000D02*
X63000000Y-21000000D01*
X36000000Y-21000000D02*
X36000000Y-20500000D01*
X77000000Y-20000000D02*
X77000000Y-19000000D01*
X133500000Y-108000000D02*
G75*
G03*
X134500000Y-107000000I0J1000000D01*
G01*
X50000400Y-106997900D02*
G75*
G03*
X51000468Y-107997900I1000100J100D01*
G01*
X32002100Y-61997900D02*
X32000000Y-64000000D01*
X105500000Y-83750000D02*
X94000000Y-83750000D01*
X18000000Y-107000000D02*
G75*
G03*
X19000000Y-108000000I1000000J0D01*
G01*
X106500000Y-61500000D02*
X106500000Y-61000000D01*
X58500000Y-20500000D02*
G75*
G03*
X58997900Y-20002100I0J497900D01*
G01*
X91000000Y-103500000D02*
G75*
G03*
X93000000Y-105500000I2000000J0D01*
G01*
X106500000Y-34750000D02*
G75*
G03*
X105500000Y-33750000I-1000000J0D01*
G01*
X37000000Y-18000000D02*
X45000000Y-18000000D01*
X116500000Y-105500000D02*
X116500468Y-106997900D01*
X73000000Y-19000000D02*
G75*
G03*
X72000000Y-18000000I-1000000J0D01*
G01*
X31500000Y-20500000D02*
X22500000Y-20500000D01*
X73000000Y-61000000D02*
X73000000Y-61500000D01*
X58002100Y-107997900D02*
G75*
G03*
X59002100Y-106997900I0J1000000D01*
G01*
X50002100Y-106997900D02*
X50002100Y-105997900D01*
X91000000Y-59500000D02*
X91000000Y-39750000D01*
X106500000Y-21000000D02*
G75*
G03*
X116500000Y-21000000I5000000J0D01*
G01*
X73000000Y-19000000D02*
X73000000Y-20500000D01*
X77002100Y-106997900D02*
G75*
G03*
X78002100Y-107997900I1000000J0D01*
G01*
X106500000Y-61500000D02*
X106500000Y-64500000D01*
X130000000Y-105500000D02*
G75*
G03*
X132000000Y-103500000I0J2000000D01*
G01*
X107500000Y-18000000D02*
X115500000Y-18000000D01*
X105500000Y-39750000D02*
G75*
G03*
X106500000Y-38750000I0J1000000D01*
G01*
X102000000Y-61500000D02*
X93000000Y-61500000D01*
X73000000Y-61500000D02*
X73000000Y-64500000D01*
X46000000Y-20500000D02*
X46000000Y-21000000D01*
X106500000Y-19000000D02*
X106500000Y-20500000D01*
X105500000Y-39750000D02*
X94000000Y-39750000D01*
X116500000Y-61500000D02*
X116500000Y-64500000D01*
X46000000Y-20500000D02*
X46000000Y-19000000D01*
X94000000Y-33750000D02*
X105500000Y-33750000D01*
X46000000Y-61000000D02*
G75*
G03*
X36000000Y-61000000I-5000000J0D01*
G01*
X93000000Y-78750000D02*
X93000000Y-82750000D01*
X50000000Y-77750000D02*
G75*
G03*
X49000000Y-78750000I0J-1000000D01*
G01*
X50000000Y-20000000D02*
G75*
G03*
X50500000Y-20500000I500000J0D01*
G01*
X31500000Y-20500000D02*
G75*
G03*
X32000000Y-20000000I0J500000D01*
G01*
X102000000Y-20500000D02*
X93000000Y-20500000D01*
X49000000Y-78750000D02*
X49000000Y-82750000D01*
X106500000Y-105500000D02*
X106500000Y-105000000D01*
X77500000Y-61500000D02*
X86500000Y-61500000D01*
X129999532Y-64502100D02*
X121000000Y-64502100D01*
X18000000Y-107000000D02*
X18000000Y-19000000D01*
X58500000Y-20500000D02*
X50500000Y-20500000D01*
X102500000Y-62000000D02*
G75*
G03*
X102000000Y-61500000I-500000J0D01*
G01*
X36000000Y-65000000D02*
X36000000Y-64500000D01*
X22500468Y-61497900D02*
X31500000Y-61497900D01*
X31000000Y-108000000D02*
X19000000Y-108000000D01*
X121000000Y-105500000D02*
G75*
G03*
X120500000Y-106000000I0J-500000D01*
G01*
X102500000Y-62000000D02*
X102497900Y-64002100D01*
X36000000Y-61000000D02*
X36000000Y-61500000D01*
X73000000Y-21000000D02*
X73000000Y-20500000D01*
X93000000Y-38750000D02*
G75*
G03*
X94000000Y-39750000I1000000J0D01*
G01*
X46000000Y-105000000D02*
G75*
G03*
X36000000Y-105000000I-5000000J0D01*
G01*
X132000000Y-66500000D02*
G75*
G03*
X130000000Y-64500000I-2000000J0D01*
G01*
X129999532Y-20502100D02*
X121000000Y-20502100D01*
X20500000Y-59500000D02*
G75*
G03*
X22500000Y-61500000I2000000J0D01*
G01*
X51000000Y-18000000D02*
G75*
G03*
X50000000Y-19000000I0J-1000000D01*
G01*
X46002100Y-106997900D02*
X46002100Y-105497900D01*
X63002100Y-106997900D02*
G75*
G03*
X64002100Y-107997900I1000000J0D01*
G01*
X106500000Y-20500000D02*
X106500000Y-21000000D01*
X59000000Y-62000000D02*
G75*
G03*
X58500000Y-61500000I-500000J0D01*
G01*
X46000000Y-105500000D02*
X46000000Y-105000000D01*
X116500000Y-21000000D02*
X116500000Y-20500000D01*
X93000000Y-20500000D02*
G75*
G03*
X91000000Y-22500000I0J-2000000D01*
G01*
X36000400Y-106997900D02*
G75*
G03*
X37000468Y-107997900I1000100J100D01*
G01*
X102000000Y-105500000D02*
X93000000Y-105500000D01*
X121502100Y-107997900D02*
X133500000Y-108000000D01*
X120500000Y-64000000D02*
G75*
G03*
X121000000Y-64500000I500000J0D01*
G01*
X88500000Y-22500000D02*
G75*
G03*
X86500000Y-20500000I-2000000J0D01*
G01*
X86500000Y-61500000D02*
G75*
G03*
X88500000Y-59500000I0J2000000D01*
G01*
X32000000Y-19000000D02*
G75*
G03*
X31000000Y-18000000I-1000000J0D01*
G01*
X121000000Y-105500000D02*
X130000000Y-105500000D01*
X91000000Y-22500000D02*
X91000000Y-39750000D01*
X63000000Y-21000000D02*
G75*
G03*
X73000000Y-21000000I5000000J0D01*
G01*
X106500000Y-105500000D02*
X106500468Y-106997900D01*
X32000000Y-106000000D02*
G75*
G03*
X31500000Y-105500000I-500000J0D01*
G01*
X77500000Y-61500000D02*
G75*
G03*
X77000000Y-62000000I0J-500000D01*
G01*
X59000000Y-19000000D02*
X59000000Y-20000000D01*
X101502100Y-107997900D02*
G75*
G03*
X102502100Y-106997900I0J1000000D01*
G01*
X72002100Y-107997900D02*
G75*
G03*
X73002100Y-106997900I0J1000000D01*
G01*
X37000000Y-18000000D02*
G75*
G03*
X36000000Y-19000000I0J-1000000D01*
G01*
X64002100Y-107997900D02*
X72002100Y-107997900D01*
X63000000Y-61500000D02*
X63000000Y-64500000D01*
X120502100Y-106997900D02*
G75*
G03*
X121502100Y-107997900I1000000J0D01*
G01*
X31500000Y-64500000D02*
X22500000Y-64500000D01*
X63000000Y-34750000D02*
G75*
G03*
X62000000Y-33750000I-1000000J0D01*
G01*
X102000000Y-64500000D02*
X93000000Y-64500000D01*
X32002100Y-105997900D02*
X32002100Y-106997900D01*
X49000000Y-38750000D02*
G75*
G03*
X50000000Y-39750000I1000000J0D01*
G01*
X45000468Y-107997968D02*
G75*
G03*
X46000468Y-106997900I-68J1000068D01*
G01*
X116500000Y-105000000D02*
X116500000Y-105500000D01*
X51000000Y-18000000D02*
X58000000Y-18000000D01*
X50000000Y-33750000D02*
G75*
G03*
X49000000Y-34750000I0J-1000000D01*
G01*
X50000000Y-20000000D02*
X50000000Y-19000000D01*
X91000000Y-66500000D02*
X91000000Y-83750000D01*
X94000000Y-77750000D02*
X105500000Y-77750000D01*
X106500000Y-78750000D02*
X106500000Y-82750000D01*
X102000000Y-20500000D02*
G75*
G03*
X102497900Y-20002100I0J497900D01*
G01*
X121000000Y-61500000D02*
G75*
G03*
X120500000Y-62000000I0J-500000D01*
G01*
X49000000Y-34750000D02*
X49000000Y-38750000D01*
X139500000Y-113000000D02*
X139500000Y-13000000D01*
X77000000Y-64000000D02*
X77000000Y-62000000D01*
X32000000Y-19000000D02*
X32000000Y-20000000D01*
X22500468Y-105497900D02*
X31500000Y-105497900D01*
X115502100Y-107997900D02*
G75*
G03*
X116502100Y-106997900I0J1000000D01*
G01*
X13000000Y-113000000D02*
X139500000Y-113000000D01*
X36000000Y-64500000D02*
X36002100Y-61497900D01*
X46000000Y-19000000D02*
G75*
G03*
X45000000Y-18000000I-1000000J0D01*
G01*
X107502100Y-107997900D02*
X115502100Y-107997900D01*
X49000000Y-82750000D02*
G75*
G03*
X50000000Y-83750000I1000000J0D01*
G01*
X31000468Y-107997968D02*
G75*
G03*
X32000468Y-106997900I-68J1000068D01*
G01*
X50500000Y-105500000D02*
G75*
G03*
X50002100Y-105997900I0J-497900D01*
G01*
X107500000Y-18000000D02*
G75*
G03*
X106500000Y-19000000I0J-1000000D01*
G01*
X46000000Y-64500000D02*
X46000000Y-65000000D01*
X20500000Y-103500000D02*
G75*
G03*
X22500000Y-105500000I2000000J0D01*
G01*
X78000000Y-18000000D02*
X101500000Y-18000000D01*
X120500000Y-64000000D02*
X120500000Y-62000000D01*
X130000000Y-61500000D02*
G75*
G03*
X132000000Y-59500000I0J2000000D01*
G01*
X22500000Y-20500000D02*
G75*
G03*
X20500000Y-22500000I0J-2000000D01*
G01*
X78002100Y-107997900D02*
X101502100Y-107997900D01*
X94000000Y-33750000D02*
G75*
G03*
X93000000Y-34750000I0J-1000000D01*
G01*
X88500000Y-22500000D02*
X88500000Y-59500000D01*
X50500000Y-61500000D02*
G75*
G03*
X50002100Y-61997900I0J-497900D01*
G01*
X102500000Y-106000000D02*
G75*
G03*
X102000000Y-105500000I-500000J0D01*
G01*
X120500000Y-20000000D02*
X120500000Y-19000000D01*
X64000000Y-18000000D02*
G75*
G03*
X63000000Y-19000000I0J-1000000D01*
G01*
X22500000Y-64500000D02*
G75*
G03*
X20500000Y-66500000I0J-2000000D01*
G01*
X59000000Y-19000000D02*
G75*
G03*
X58000000Y-18000000I-1000000J0D01*
G01*
X106502100Y-106997900D02*
G75*
G03*
X107502100Y-107997900I1000000J0D01*
G01*
X102500000Y-19000000D02*
G75*
G03*
X101500000Y-18000000I-1000000J0D01*
G01*
X62000000Y-39750000D02*
X50000000Y-39750000D01*
X91000000Y-103500000D02*
X91000000Y-83750000D01*
X120500000Y-107000000D02*
X120500000Y-106000000D01*
X134500000Y-107000000D02*
X134500000Y-19000000D01*
X93000000Y-64500000D02*
G75*
G03*
X91000000Y-66500000I0J-2000000D01*
G01*
X78000000Y-18000000D02*
G75*
G03*
X77000000Y-19000000I0J-1000000D01*
G01*
X46002100Y-64500000D02*
X46002100Y-61497900D01*
X31500000Y-64500000D02*
G75*
G03*
X32000000Y-64000000I0J500000D01*
G01*
X19000000Y-18000000D02*
G75*
G03*
X18000000Y-19000000I0J-1000000D01*
G01*
X94000000Y-77750000D02*
G75*
G03*
X93000000Y-78750000I0J-1000000D01*
G01*
X132000000Y-66500000D02*
X132000000Y-103500000D01*
X45000468Y-107997900D02*
X37000468Y-107997900D01*
X20500000Y-103500000D02*
X20500000Y-66500000D01*
X50500000Y-61500000D02*
X58500000Y-61500000D01*
X50500000Y-105500000D02*
X58500000Y-105500000D01*
X63000000Y-19000000D02*
X63000000Y-20500000D01*
X121500000Y-18000000D02*
G75*
G03*
X120500000Y-19000000I0J-1000000D01*
G01*
X93000000Y-82750000D02*
G75*
G03*
X94000000Y-83750000I1000000J0D01*
G01*
X86499532Y-20502100D02*
X77500000Y-20502100D01*
X46000000Y-61500000D02*
X46000000Y-61000000D01*
X64000000Y-18000000D02*
X72000000Y-18000000D01*
X36000000Y-21000000D02*
G75*
G03*
X46000000Y-21000000I5000000J0D01*
G01*
X50000000Y-64000000D02*
X50002100Y-61997900D01*
X50000000Y-33750000D02*
X62000000Y-33750000D01*
X36000000Y-20500000D02*
X36000000Y-19000000D01*
X132000000Y-22500000D02*
X132000000Y-59500000D01*
X116500000Y-19000000D02*
G75*
G03*
X115500000Y-18000000I-1000000J0D01*
G01*
X91000000Y-59500000D02*
G75*
G03*
X93000000Y-61500000I2000000J0D01*
G01*
X134500000Y-19000000D02*
G75*
G03*
X133500000Y-18000000I-1000000J0D01*
G01*
X121500000Y-18000000D02*
X133500000Y-18000000D01*
X32000000Y-62000000D02*
G75*
G03*
X31500000Y-61500000I-500000J0D01*
G01*
X116500000Y-61000000D02*
X116500000Y-61500000D01*
X36000000Y-105000000D02*
X36000000Y-105500000D01*
X19000000Y-18000000D02*
X31000000Y-18000000D01*
X50000000Y-64000000D02*
G75*
G03*
X50500000Y-64500000I500000J0D01*
G01*
X116500000Y-19000000D02*
X116500000Y-20500000D01*
X77000000Y-20000000D02*
G75*
G03*
X77500000Y-20500000I500000J0D01*
G01*
X102500000Y-19000000D02*
X102500000Y-20000000D01*
X102500000Y-106000000D02*
X102500468Y-106997900D01*
X62000000Y-39750000D02*
G75*
G03*
X63000000Y-38750000I0J1000000D01*
G01*
X116500000Y-65000000D02*
X116500000Y-64500000D01*
X106500000Y-65000000D02*
G75*
G03*
X116500000Y-65000000I5000000J0D01*
G01*
X106500000Y-64500000D02*
X106500000Y-65000000D01*
X13000000Y-113000000D02*
X13000000Y-13000000D01*
X121000000Y-61500000D02*
X130000000Y-61500000D01*
X93000000Y-34750000D02*
X93000000Y-38750000D01*
X116500000Y-61000000D02*
G75*
G03*
X106500000Y-61000000I-5000000J0D01*
G01*
X106500000Y-34750000D02*
X106500000Y-38750000D01*
X105500000Y-83750000D02*
G75*
G03*
X106500000Y-82750000I0J1000000D01*
G01*
X73000000Y-61000000D02*
G75*
G03*
X63000000Y-61000000I-5000000J0D01*
G01*
X63000000Y-34750000D02*
X63000000Y-38750000D01*
X59000000Y-62000000D02*
X58997900Y-64002100D01*
X102000000Y-64500000D02*
G75*
G03*
X102497900Y-64002100I0J497900D01*
G01*
X132000000Y-22500000D02*
G75*
G03*
X130000000Y-20500000I-2000000J0D01*
G01*
X36000000Y-65000000D02*
G75*
G03*
X46000000Y-65000000I5000000J0D01*
G01*
X63000000Y-61500000D02*
X63000000Y-61000000D01*
X106500000Y-78750000D02*
G75*
G03*
X105500000Y-77750000I-1000000J0D01*
G01*
X51000468Y-107997900D02*
X58002100Y-107997900D01*
X20500000Y-59500000D02*
X20500000Y-22500000D01*
X13000000Y-13000000D02*
X139500000Y-13000000D01*
X36002100Y-106997900D02*
X36002100Y-105497900D01*
M02*
